<?xml version="1.0" encoding="utf-8" standalone="no"?>
<!DOCTYPE svg PUBLIC "-//W3C//DTD SVG 1.1//EN"
  "http://www.w3.org/Graphics/SVG/1.1/DTD/svg11.dtd">
<svg xmlns:xlink="http://www.w3.org/1999/xlink" width="864pt" height="504pt" viewBox="0 0 864 504" xmlns="http://www.w3.org/2000/svg" version="1.1">
 <metadata>
  <rdf:RDF xmlns:dc="http://purl.org/dc/elements/1.1/" xmlns:cc="http://creativecommons.org/ns#" xmlns:rdf="http://www.w3.org/1999/02/22-rdf-syntax-ns#">
   <cc:Work>
    <dc:type rdf:resource="http://purl.org/dc/dcmitype/StillImage"/>
    <dc:date>2026-07-13T08:06:46.912271</dc:date>
    <dc:format>image/svg+xml</dc:format>
    <dc:creator>
     <cc:Agent>
      <dc:title>Matplotlib v3.11.0, https://matplotlib.org/</dc:title>
     </cc:Agent>
    </dc:creator>
   </cc:Work>
  </rdf:RDF>
 </metadata>
 <defs>
  <style type="text/css">*{stroke-linejoin: round; stroke-linecap: butt}</style>
 </defs>
 <g id="figure_1">
  <g id="patch_1">
   <path d="M 0 504 
L 864 504 
L 864 0 
L 0 0 
z
" style="fill: #ffffff"/>
  </g>
  <g id="axes_1">
   <g id="patch_2">
    <path d="M 43.88 323.344 
L 853.170909 323.344 
L 853.170909 27.6 
L 43.88 27.6 
z
" style="fill: #ffffff"/>
   </g>
   <g id="FillBetweenPolyCollection_1">
    <defs>
     <path id="m2263c2b5b5" d="M 80.66595 -397.317578 
L 80.66595 -362.384133 
L 86.115721 -361.190911 
L 91.565491 -361.454891 
L 97.015262 -361.066347 
L 102.465032 -360.676182 
L 107.914803 -361.092079 
L 113.364573 -360.955036 
L 118.814343 -360.983139 
L 124.264114 -360.473772 
L 129.713884 -360.352845 
L 135.163655 -360.489853 
L 140.613425 -360.448295 
L 146.063196 -360.677262 
L 151.512966 -360.255424 
L 156.962736 -360.066832 
L 162.412507 -360.497884 
L 167.862277 -360.314799 
L 173.312048 -360.752403 
L 178.761818 -360.320429 
L 184.211589 -360.221827 
L 189.661359 -359.910788 
L 195.111129 -360.235889 
L 200.5609 -360.256728 
L 206.01067 -360.344324 
L 211.460441 -360.645936 
L 216.910211 -360.326531 
L 222.359982 -360.016212 
L 227.809752 -360.237521 
L 233.259522 -360.449991 
L 238.709293 -360.768021 
L 244.159063 -361.0619 
L 249.608834 -361.40101 
L 255.058604 -362.338003 
L 260.508375 -362.954819 
L 265.958145 -363.532944 
L 271.407916 -362.446656 
L 276.857686 -360.963205 
L 282.307456 -359.021846 
L 287.757227 -358.929869 
L 293.206997 -358.5952 
L 298.656768 -358.343991 
L 304.106538 -358.358453 
L 309.556309 -357.765975 
L 315.006079 -357.591727 
L 320.455849 -358.331683 
L 325.90562 -358.425287 
L 331.35539 -358.515482 
L 336.805161 -359.132394 
L 342.254931 -359.545884 
L 347.704702 -359.899877 
L 353.154472 -359.858989 
L 358.604242 -304.573157 
L 364.054013 -226.45619 
L 369.503783 -203.082357 
L 374.953554 -194.677923 
L 380.403324 -196.71093 
L 385.853095 -197.381266 
L 391.302865 -199.832864 
L 396.752635 -203.23509 
L 402.202406 -196.876174 
L 407.652176 -251.212016 
L 413.101947 -302.075334 
L 418.551717 -338.675752 
L 424.001488 -356.168338 
L 429.451258 -362.292713 
L 434.901028 -365.373031 
L 440.350799 -366.885339 
L 445.800569 -368.371061 
L 451.25034 -369.281405 
L 456.70011 -370.2309 
L 462.149881 -371.245983 
L 467.599651 -371.898114 
L 473.049421 -373.269592 
L 478.499192 -374.649065 
L 483.948962 -375.962292 
L 489.398733 -377.512008 
L 494.848503 -379.063335 
L 500.298274 -381.430699 
L 505.748044 -383.55439 
L 511.197815 -386.970906 
L 516.647585 -390.13079 
L 522.097355 -394.811051 
L 527.547126 -398.690764 
L 532.996896 -400.328268 
L 538.446667 -401.445961 
L 543.896437 -393.550441 
L 549.346208 -383.02711 
L 554.795978 -375.714696 
L 560.245748 -371.536456 
L 565.695519 -369.113176 
L 571.145289 -367.627314 
L 576.59506 -366.251237 
L 582.04483 -365.714214 
L 587.494601 -365.251531 
L 592.944371 -365.106689 
L 598.394141 -364.936031 
L 603.843912 -364.436763 
L 609.293682 -364.603032 
L 614.743453 -364.547898 
L 620.193223 -364.800587 
L 625.642994 -365.042987 
L 631.092764 -365.423637 
L 636.542534 -365.390103 
L 641.992305 -364.921089 
L 647.442075 -364.854976 
L 652.891846 -364.489141 
L 658.341616 -363.924152 
L 663.791387 -363.606752 
L 669.241157 -362.608644 
L 674.690927 -362.119293 
L 680.140698 -361.561842 
L 685.590468 -361.537734 
L 691.040239 -360.937732 
L 696.490009 -360.40685 
L 701.93978 -359.985636 
L 707.38955 -359.647553 
L 712.83932 -359.630861 
L 718.289091 -359.145629 
L 723.738861 -358.905646 
L 729.188632 -358.735687 
L 734.638402 -358.371141 
L 740.088173 -357.969472 
L 745.537943 -357.737838 
L 750.987713 -357.720176 
L 756.437484 -357.404221 
L 761.887254 -356.920026 
L 767.337025 -357.060402 
L 772.786795 -356.516653 
L 778.236566 -356.644805 
L 783.686336 -356.505382 
L 789.136107 -356.295151 
L 794.585877 -356.00461 
L 800.035647 -355.846253 
L 805.485418 -355.491257 
L 810.935188 -355.874733 
L 816.384959 -355.191563 
L 816.384959 -372.746331 
L 816.384959 -372.746331 
L 810.935188 -372.462711 
L 805.485418 -372.739295 
L 800.035647 -372.356617 
L 794.585877 -372.864841 
L 789.136107 -372.724536 
L 783.686336 -372.233917 
L 778.236566 -372.030712 
L 772.786795 -371.737317 
L 767.337025 -372.600694 
L 761.887254 -371.654777 
L 756.437484 -372.188259 
L 750.987713 -372.391945 
L 745.537943 -371.97028 
L 740.088173 -371.838097 
L 734.638402 -371.534007 
L 729.188632 -371.421303 
L 723.738861 -371.774948 
L 718.289091 -372.092766 
L 712.83932 -371.599586 
L 707.38955 -372.118336 
L 701.93978 -372.352558 
L 696.490009 -372.065146 
L 691.040239 -372.250814 
L 685.590468 -373.247861 
L 680.140698 -373.425322 
L 674.690927 -373.661766 
L 669.241157 -374.003822 
L 663.791387 -374.470594 
L 658.341616 -374.992159 
L 652.891846 -374.773249 
L 647.442075 -374.404935 
L 641.992305 -374.440901 
L 636.542534 -374.464046 
L 631.092764 -374.304962 
L 625.642994 -373.701094 
L 620.193223 -373.83745 
L 614.743453 -373.636716 
L 609.293682 -372.879107 
L 603.843912 -372.446568 
L 598.394141 -372.395265 
L 592.944371 -374.932639 
L 587.494601 -380.152656 
L 582.04483 -391.933985 
L 576.59506 -408.043108 
L 571.145289 -421.683865 
L 565.695519 -434.302417 
L 560.245748 -449.906919 
L 554.795978 -455.155418 
L 549.346208 -461.763941 
L 543.896437 -461.942705 
L 538.446667 -462.502466 
L 532.996896 -461.668404 
L 527.547126 -462.735341 
L 522.097355 -462.957091 
L 516.647585 -457.199842 
L 511.197815 -447.397233 
L 505.748044 -436.501385 
L 500.298274 -425.98019 
L 494.848503 -416.355489 
L 489.398733 -406.888967 
L 483.948962 -399.226444 
L 478.499192 -393.184635 
L 473.049421 -388.569278 
L 467.599651 -384.757595 
L 462.149881 -381.9905 
L 456.70011 -379.886457 
L 451.25034 -378.520804 
L 445.800569 -377.547122 
L 440.350799 -376.371555 
L 434.901028 -376.391382 
L 429.451258 -375.613818 
L 424.001488 -374.715515 
L 418.551717 -374.063108 
L 413.101947 -372.421967 
L 407.652176 -369.933606 
L 402.202406 -367.522023 
L 396.752635 -364.604686 
L 391.302865 -361.843604 
L 385.853095 -417.853028 
L 380.403324 -422.468876 
L 374.953554 -439.491797 
L 369.503783 -453.104739 
L 364.054013 -442.972395 
L 358.604242 -456.104158 
L 353.154472 -431.553322 
L 347.704702 -414.501051 
L 342.254931 -380.452291 
L 336.805161 -370.474507 
L 331.35539 -370.25842 
L 325.90562 -370.008964 
L 320.455849 -369.551404 
L 315.006079 -369.355098 
L 309.556309 -369.101864 
L 304.106538 -369.75251 
L 298.656768 -370.426779 
L 293.206997 -374.281254 
L 287.757227 -378.278776 
L 282.307456 -379.065014 
L 276.857686 -379.260533 
L 271.407916 -378.835611 
L 265.958145 -380.244523 
L 260.508375 -380.698396 
L 255.058604 -379.505913 
L 249.608834 -376.727596 
L 244.159063 -375.393481 
L 238.709293 -374.66158 
L 233.259522 -375.049076 
L 227.809752 -374.279879 
L 222.359982 -374.864073 
L 216.910211 -374.975709 
L 211.460441 -375.653507 
L 206.01067 -375.636776 
L 200.5609 -375.640174 
L 195.111129 -376.023365 
L 189.661359 -375.808444 
L 184.211589 -376.104037 
L 178.761818 -376.631129 
L 173.312048 -376.870026 
L 167.862277 -376.476345 
L 162.412507 -377.390349 
L 156.962736 -377.010084 
L 151.512966 -377.061075 
L 146.063196 -377.599298 
L 140.613425 -378.066595 
L 135.163655 -377.970723 
L 129.713884 -378.339277 
L 124.264114 -378.325451 
L 118.814343 -378.514736 
L 113.364573 -379.036453 
L 107.914803 -379.279967 
L 102.465032 -379.259551 
L 97.015262 -380.412311 
L 91.565491 -379.766182 
L 86.115721 -379.958337 
L 80.66595 -397.317578 
z
" style="stroke: #a7dff3; stroke-opacity: 0.55"/>
    </defs>
    <g clip-path="url(#p1ac041a8a1)">
     <use xlink:href="#m2263c2b5b5" x="0" y="504" style="fill: #a7dff3; fill-opacity: 0.55; stroke: #a7dff3; stroke-opacity: 0.55"/>
    </g>
   </g>
   <g id="matplotlib.axis_1">
    <g id="xtick_1">
     <g id="line2d_1">
      <defs>
       <path id="m5e5fcbf652" d="M 0 0 
L 0 3.5 
" style="stroke: #000000; stroke-width: 0.8"/>
      </defs>
      <g>
       <use xlink:href="#m5e5fcbf652" x="80.66595" y="323.344" style="stroke: #000000; stroke-width: 0.8"/>
      </g>
     </g>
     <g id="text_1">
      <!-- 0 -->
      <g transform="translate(77.51595 339.344) scale(0.1 -0.1)">
       <defs>
        <path id="AppleSDGothicNeo-Regular-11" d="M 2022 192 
C 2893 192 3558 787 3558 2240 
L 3558 2630 
C 3558 4122 2867 4634 2029 4634 
C 1184 4634 448 4122 448 2605 
L 448 2246 
C 448 794 1139 192 2022 192 
z
M 2022 614 
C 1350 614 992 1126 992 2195 
L 992 2669 
C 992 3744 1357 4211 2029 4211 
C 2688 4211 3040 3718 3040 2637 
L 3040 2163 
C 3040 1062 2682 614 2022 614 
z
" transform="scale(0.015625)"/>
       </defs>
       <use xlink:href="#AppleSDGothicNeo-Regular-11"/>
      </g>
     </g>
    </g>
    <g id="xtick_2">
     <g id="line2d_2">
      <g>
       <use xlink:href="#m5e5fcbf652" x="189.661359" y="323.344" style="stroke: #000000; stroke-width: 0.8"/>
      </g>
     </g>
     <g id="text_2">
      <!-- 20 -->
      <g transform="translate(183.871515 339.344) scale(0.1 -0.1)">
       <defs>
        <path id="AppleSDGothicNeo-Regular-13" d="M 397 269 
L 3066 269 
L 3066 704 
L 1107 704 
L 1779 1382 
C 2522 2138 2970 2650 2970 3392 
C 2970 4160 2502 4640 1638 4640 
C 1152 4640 717 4422 448 4250 
L 595 3846 
C 845 4019 1190 4198 1555 4198 
C 2163 4198 2438 3917 2438 3347 
C 2438 2733 2029 2266 1421 1632 
L 397 570 
L 397 269 
z
" transform="scale(0.015625)"/>
       </defs>
       <use xlink:href="#AppleSDGothicNeo-Regular-13"/>
       <use xlink:href="#AppleSDGothicNeo-Regular-11" transform="translate(52.796875 0)"/>
      </g>
     </g>
    </g>
    <g id="xtick_3">
     <g id="line2d_3">
      <g>
       <use xlink:href="#m5e5fcbf652" x="298.656768" y="323.344" style="stroke: #000000; stroke-width: 0.8"/>
      </g>
     </g>
     <g id="text_3">
      <!-- 40 -->
      <g transform="translate(292.731768 339.344) scale(0.1 -0.1)">
       <defs>
        <path id="AppleSDGothicNeo-Regular-15" d="M 2214 166 
L 2682 166 
L 2682 1171 
L 3398 1171 
L 3398 1587 
L 2682 1587 
L 2682 4621 
L 2285 4621 
L 186 1555 
L 186 1171 
L 2214 1171 
L 2214 166 
z
M 730 1587 
L 2214 3814 
L 2214 1587 
L 730 1587 
z
" transform="scale(0.015625)"/>
       </defs>
       <use xlink:href="#AppleSDGothicNeo-Regular-15"/>
       <use xlink:href="#AppleSDGothicNeo-Regular-11" transform="translate(55.5 0)"/>
      </g>
     </g>
    </g>
    <g id="xtick_4">
     <g id="line2d_4">
      <g>
       <use xlink:href="#m5e5fcbf652" x="407.652176" y="323.344" style="stroke: #000000; stroke-width: 0.8"/>
      </g>
     </g>
     <g id="text_4">
      <!-- 60 -->
      <g transform="translate(401.756864 339.344) scale(0.1 -0.1)">
       <defs>
        <path id="AppleSDGothicNeo-Regular-17" d="M 1837 192 
C 2707 192 3232 826 3232 1645 
C 3232 2464 2656 2957 1939 2957 
C 1459 2957 1107 2733 877 2496 
C 941 3834 1350 4205 2080 4205 
C 2355 4205 2733 4096 2886 4006 
L 3034 4378 
C 2854 4486 2458 4634 2029 4634 
C 1037 4634 365 3968 365 2451 
L 365 2118 
C 365 896 877 192 1837 192 
z
M 1830 614 
C 1146 614 877 1139 877 1939 
L 877 1984 
C 1056 2240 1427 2528 1837 2528 
C 2355 2528 2720 2266 2720 1594 
C 2720 979 2387 614 1830 614 
z
" transform="scale(0.015625)"/>
       </defs>
       <use xlink:href="#AppleSDGothicNeo-Regular-17"/>
       <use xlink:href="#AppleSDGothicNeo-Regular-11" transform="translate(54.90625 0)"/>
      </g>
     </g>
    </g>
    <g id="xtick_5">
     <g id="line2d_5">
      <g>
       <use xlink:href="#m5e5fcbf652" x="516.647585" y="323.344" style="stroke: #000000; stroke-width: 0.8"/>
      </g>
     </g>
     <g id="text_5">
      <!-- 80 -->
      <g transform="translate(510.622585 339.344) scale(0.1 -0.1)">
       <defs>
        <path id="AppleSDGothicNeo-Regular-19" d="M 1837 186 
C 2765 186 3341 723 3341 1408 
C 3341 2054 2829 2362 2298 2534 
C 2739 2765 3168 3066 3168 3584 
C 3168 4250 2624 4640 1818 4640 
C 992 4640 461 4179 461 3558 
C 461 3008 838 2682 1299 2502 
C 826 2317 339 1926 339 1363 
C 339 659 922 186 1837 186 
z
M 1830 608 
C 1261 608 851 909 851 1382 
C 851 1856 1280 2163 1702 2310 
C 2445 2074 2797 1882 2797 1357 
C 2797 915 2381 608 1830 608 
z
M 1920 2720 
C 1350 2867 1005 3130 1005 3571 
C 1005 3981 1331 4218 1824 4218 
C 2355 4218 2637 3942 2637 3565 
C 2637 3155 2323 2899 1920 2720 
z
" transform="scale(0.015625)"/>
       </defs>
       <use xlink:href="#AppleSDGothicNeo-Regular-19"/>
       <use xlink:href="#AppleSDGothicNeo-Regular-11" transform="translate(57.5 0)"/>
      </g>
     </g>
    </g>
    <g id="xtick_6">
     <g id="line2d_6">
      <g>
       <use xlink:href="#m5e5fcbf652" x="625.642994" y="323.344" style="stroke: #000000; stroke-width: 0.8"/>
      </g>
     </g>
     <g id="text_6">
      <!-- 100 -->
      <g transform="translate(617.557837 339.344) scale(0.1 -0.1)">
       <defs>
        <path id="AppleSDGothicNeo-Regular-12" d="M 1146 243 
L 1632 243 
L 1632 4634 
L 1363 4634 
L 352 4160 
L 352 3866 
L 1146 4051 
L 1146 243 
z
" transform="scale(0.015625)"/>
       </defs>
       <use xlink:href="#AppleSDGothicNeo-Regular-12"/>
       <use xlink:href="#AppleSDGothicNeo-Regular-11" transform="translate(35.703125 0)"/>
       <use xlink:href="#AppleSDGothicNeo-Regular-11" transform="translate(98.703125 0)"/>
      </g>
     </g>
    </g>
    <g id="xtick_7">
     <g id="line2d_7">
      <g>
       <use xlink:href="#m5e5fcbf652" x="734.638402" y="323.344" style="stroke: #000000; stroke-width: 0.8"/>
      </g>
     </g>
     <g id="text_7">
      <!-- 120 -->
      <g transform="translate(727.063402 339.344) scale(0.1 -0.1)">
       <use xlink:href="#AppleSDGothicNeo-Regular-12"/>
       <use xlink:href="#AppleSDGothicNeo-Regular-13" transform="translate(35.703125 0)"/>
       <use xlink:href="#AppleSDGothicNeo-Regular-11" transform="translate(88.5 0)"/>
      </g>
     </g>
    </g>
    <g id="xtick_8">
     <g id="line2d_8">
      <g>
       <use xlink:href="#m5e5fcbf652" x="843.633811" y="323.344" style="stroke: #000000; stroke-width: 0.8"/>
      </g>
     </g>
     <g id="text_8">
      <!-- 140 -->
      <g transform="translate(835.923655 339.344) scale(0.1 -0.1)">
       <use xlink:href="#AppleSDGothicNeo-Regular-12"/>
       <use xlink:href="#AppleSDGothicNeo-Regular-15" transform="translate(35.703125 0)"/>
       <use xlink:href="#AppleSDGothicNeo-Regular-11" transform="translate(91.203125 0)"/>
      </g>
     </g>
    </g>
    <g id="text_9">
     <!-- time index -->
     <g transform="translate(426.435611 355.344) scale(0.1 -0.1)">
      <defs>
       <path id="AppleSDGothicNeo-Regular-55" d="M 1472 230 
C 1747 230 1882 301 2010 358 
L 2010 691 
C 1882 653 1734 634 1600 634 
C 1235 634 1133 755 1133 1062 
L 1133 3034 
L 1946 3034 
L 1946 3437 
L 1133 3437 
L 1133 4192 
L 646 4192 
L 646 3437 
L 192 3437 
L 192 3034 
L 646 3034 
L 646 986 
C 646 448 973 230 1472 230 
z
" transform="scale(0.015625)"/>
       <path id="AppleSDGothicNeo-Regular-4a" d="M 486 269 
L 973 269 
L 973 3437 
L 486 3437 
L 486 269 
z
M 480 4077 
L 979 4077 
L 979 4589 
L 480 4589 
L 480 4077 
z
" transform="scale(0.015625)"/>
       <path id="AppleSDGothicNeo-Regular-4e" d="M 467 269 
L 954 269 
L 954 2848 
C 1210 2970 1491 3078 1760 3078 
C 2182 3078 2336 2918 2336 2534 
L 2336 269 
L 2822 269 
L 2822 2637 
C 2822 2714 2816 2771 2803 2848 
C 3104 2982 3373 3078 3622 3078 
C 4051 3078 4205 2918 4205 2534 
L 4205 269 
L 4685 269 
L 4685 2637 
C 4685 3251 4365 3501 3814 3501 
C 3456 3501 3085 3373 2739 3149 
L 2714 3149 
C 2566 3386 2310 3501 1952 3501 
C 1594 3501 1254 3354 960 3168 
L 934 3168 
L 934 3443 
L 467 3443 
L 467 269 
z
" transform="scale(0.015625)"/>
       <path id="AppleSDGothicNeo-Regular-46" d="M 1773 211 
C 2285 211 2650 371 2842 506 
L 2842 870 
C 2554 736 2272 634 1850 634 
C 1171 634 794 941 768 1734 
L 2931 1734 
L 2931 2010 
C 2931 2995 2522 3501 1651 3501 
C 922 3501 269 3008 269 1901 
L 269 1811 
C 269 819 774 211 1773 211 
z
M 1638 3104 
C 2157 3104 2419 2816 2419 2125 
L 768 2125 
C 819 2874 1242 3104 1638 3104 
z
" transform="scale(0.015625)"/>
       <path id="AppleSDGothicNeo-Regular-1" transform="scale(0.015625)"/>
       <path id="AppleSDGothicNeo-Regular-4f" d="M 467 269 
L 954 269 
L 954 2848 
C 1216 2970 1549 3078 1850 3078 
C 2355 3078 2490 2918 2490 2534 
L 2490 269 
L 2976 269 
L 2976 2637 
C 2976 3251 2675 3501 2054 3501 
C 1664 3501 1254 3360 960 3168 
L 934 3168 
L 934 3443 
L 467 3443 
L 467 269 
z
" transform="scale(0.015625)"/>
       <path id="AppleSDGothicNeo-Regular-45" d="M 1600 211 
C 2029 211 2336 346 2528 531 
L 2554 531 
L 2611 269 
L 3021 269 
L 3021 4851 
L 2528 4851 
L 2528 3290 
C 2355 3392 2086 3501 1696 3501 
C 877 3501 282 3002 282 1850 
L 282 1766 
C 282 595 966 211 1600 211 
z
M 1747 614 
C 1178 614 794 896 794 1786 
L 794 1914 
C 794 2771 1158 3085 1760 3085 
C 2086 3085 2381 2995 2528 2880 
L 2528 883 
C 2368 755 2118 614 1747 614 
z
" transform="scale(0.015625)"/>
       <path id="AppleSDGothicNeo-Regular-59" d="M 147 269 
L 685 269 
L 1510 1536 
L 2317 269 
L 2899 269 
L 1837 1882 
L 2822 3443 
L 2291 3443 
L 1568 2234 
L 774 3443 
L 198 3443 
L 1229 1882 
L 147 269 
z
" transform="scale(0.015625)"/>
      </defs>
      <use xlink:href="#AppleSDGothicNeo-Regular-55"/>
      <use xlink:href="#AppleSDGothicNeo-Regular-4a" transform="translate(35 0)"/>
      <use xlink:href="#AppleSDGothicNeo-Regular-4e" transform="translate(57.703125 0)"/>
      <use xlink:href="#AppleSDGothicNeo-Regular-46" transform="translate(138 0)"/>
      <use xlink:href="#AppleSDGothicNeo-Regular-1" transform="translate(188 0)"/>
      <use xlink:href="#AppleSDGothicNeo-Regular-4a" transform="translate(214.296875 0)"/>
      <use xlink:href="#AppleSDGothicNeo-Regular-4f" transform="translate(237 0)"/>
      <use xlink:href="#AppleSDGothicNeo-Regular-45" transform="translate(290.59375 0)"/>
      <use xlink:href="#AppleSDGothicNeo-Regular-46" transform="translate(345.09375 0)"/>
      <use xlink:href="#AppleSDGothicNeo-Regular-59" transform="translate(394.09375 0)"/>
     </g>
    </g>
   </g>
   <g id="matplotlib.axis_2">
    <g id="ytick_1">
     <g id="line2d_9">
      <defs>
       <path id="mc633514a35" d="M 0 0 
L -3.5 0 
" style="stroke: #000000; stroke-width: 0.8"/>
      </defs>
      <g>
       <use xlink:href="#mc633514a35" x="43.88" y="309.903376" style="stroke: #000000; stroke-width: 0.8"/>
      </g>
     </g>
     <g id="text_10">
      <!-- -6 -->
      <g transform="translate(27.019063 314.403376) scale(0.1 -0.1)">
       <defs>
        <path id="AppleSDGothicNeo-Regular-e" d="M 333 2138 
L 2445 2138 
L 2445 2560 
L 333 2560 
L 333 2138 
z
" transform="scale(0.015625)"/>
       </defs>
       <use xlink:href="#AppleSDGothicNeo-Regular-e"/>
       <use xlink:href="#AppleSDGothicNeo-Regular-17" transform="translate(43.203125 0)"/>
      </g>
     </g>
    </g>
    <g id="ytick_2">
     <g id="line2d_10">
      <g>
       <use xlink:href="#mc633514a35" x="43.88" y="251.469713" style="stroke: #000000; stroke-width: 0.8"/>
      </g>
     </g>
     <g id="text_11">
      <!-- -4 -->
      <g transform="translate(27.009688 255.969713) scale(0.1 -0.1)">
       <use xlink:href="#AppleSDGothicNeo-Regular-e"/>
       <use xlink:href="#AppleSDGothicNeo-Regular-15" transform="translate(43.203125 0)"/>
      </g>
     </g>
    </g>
    <g id="ytick_3">
     <g id="line2d_11">
      <g>
       <use xlink:href="#mc633514a35" x="43.88" y="193.036051" style="stroke: #000000; stroke-width: 0.8"/>
      </g>
     </g>
     <g id="text_12">
      <!-- -2 -->
      <g transform="translate(27.539375 197.536051) scale(0.1 -0.1)">
       <use xlink:href="#AppleSDGothicNeo-Regular-e"/>
       <use xlink:href="#AppleSDGothicNeo-Regular-13" transform="translate(40.109375 0)"/>
      </g>
     </g>
    </g>
    <g id="ytick_4">
     <g id="line2d_12">
      <g>
       <use xlink:href="#mc633514a35" x="43.88" y="134.602388" style="stroke: #000000; stroke-width: 0.8"/>
      </g>
     </g>
     <g id="text_13">
      <!-- 0 -->
      <g transform="translate(30.58 139.102388) scale(0.1 -0.1)">
       <use xlink:href="#AppleSDGothicNeo-Regular-11"/>
      </g>
     </g>
    </g>
    <g id="ytick_5">
     <g id="line2d_13">
      <g>
       <use xlink:href="#mc633514a35" x="43.88" y="76.168726" style="stroke: #000000; stroke-width: 0.8"/>
      </g>
     </g>
     <g id="text_14">
      <!-- 2 -->
      <g transform="translate(31.550313 80.668726) scale(0.1 -0.1)">
       <use xlink:href="#AppleSDGothicNeo-Regular-13"/>
      </g>
     </g>
    </g>
    <g id="text_15">
     <!-- value -->
     <g transform="translate(20.009688 186.502469) rotate(-90) scale(0.1 -0.1)">
      <defs>
       <path id="AppleSDGothicNeo-Regular-57" d="M 1331 269 
L 1818 269 
L 2995 3443 
L 2515 3443 
L 1600 890 
L 1574 890 
L 685 3443 
L 154 3443 
L 1331 269 
z
" transform="scale(0.015625)"/>
       <path id="AppleSDGothicNeo-Regular-42" d="M 1242 211 
C 1670 211 1939 365 2086 544 
L 2118 544 
L 2170 269 
L 2566 269 
L 2566 2566 
C 2566 3213 2176 3501 1478 3501 
C 1114 3501 806 3443 531 3328 
L 531 2976 
C 730 3034 979 3078 1286 3078 
C 1856 3078 2074 2950 2074 2458 
L 2074 2125 
L 1216 2022 
C 608 1952 250 1658 250 1101 
C 250 506 666 211 1242 211 
z
M 1363 595 
C 998 595 762 768 762 1114 
C 762 1478 954 1638 1344 1677 
L 2074 1760 
L 2074 826 
C 1939 691 1658 595 1363 595 
z
" transform="scale(0.015625)"/>
       <path id="AppleSDGothicNeo-Regular-4d" d="M 480 269 
L 973 269 
L 973 4851 
L 480 4851 
L 480 269 
z
" transform="scale(0.015625)"/>
       <path id="AppleSDGothicNeo-Regular-56" d="M 1421 211 
C 1805 211 2144 358 2432 557 
L 2458 557 
L 2502 269 
L 2925 269 
L 2925 3443 
L 2438 3443 
L 2438 883 
C 2176 755 1894 634 1555 634 
C 1088 634 941 800 941 1210 
L 941 3443 
L 448 3443 
L 448 1139 
C 448 525 800 211 1421 211 
z
" transform="scale(0.015625)"/>
      </defs>
      <use xlink:href="#AppleSDGothicNeo-Regular-57"/>
      <use xlink:href="#AppleSDGothicNeo-Regular-42" transform="translate(47.703125 0)"/>
      <use xlink:href="#AppleSDGothicNeo-Regular-4d" transform="translate(94.90625 0)"/>
      <use xlink:href="#AppleSDGothicNeo-Regular-56" transform="translate(117.609375 0)"/>
      <use xlink:href="#AppleSDGothicNeo-Regular-46" transform="translate(170.609375 0)"/>
     </g>
    </g>
   </g>
   <g id="line2d_14">
    <path d="M 80.66595 133.267445 
L 86.115721 134.411418 
L 91.565491 134.380178 
L 102.465032 135.208819 
L 113.364573 135.690188 
L 124.264114 136.087304 
L 129.713884 136.104074 
L 135.163655 136.42683 
L 140.613425 136.620251 
L 146.063196 136.524267 
L 151.512966 136.867688 
L 156.962736 137.0453 
L 184.211589 137.154986 
L 189.661359 137.352389 
L 200.5609 137.400205 
L 206.01067 137.720704 
L 211.460441 137.656633 
L 216.910211 137.988994 
L 222.359982 137.666199 
L 227.809752 137.952824 
L 233.259522 138.000902 
L 238.709293 137.611335 
L 249.608834 136.275444 
L 255.058604 134.704397 
L 260.508375 134.145256 
L 265.958145 133.780173 
L 271.407916 134.33618 
L 276.857686 135.05893 
L 282.307456 137.336252 
L 287.757227 139.171967 
L 293.206997 140.457205 
L 298.656768 141.305385 
L 304.106538 141.715615 
L 309.556309 141.841732 
L 315.006079 142.306189 
L 320.455849 141.808054 
L 325.90562 142.033247 
L 331.35539 141.718861 
L 336.805161 141.523622 
L 342.254931 141.002167 
L 347.704702 139.584765 
L 353.154472 137.423 
L 358.604242 135.391704 
L 364.054013 135.500933 
L 369.503783 141.835493 
L 374.953554 202.950051 
L 380.403324 214.562892 
L 385.853095 215.022234 
L 391.302865 201.710564 
L 396.752635 183.791708 
L 402.202406 156.315232 
L 407.652176 143.869719 
L 413.101947 139.655959 
L 418.551717 137.10197 
L 424.001488 135.272166 
L 429.451258 134.368648 
L 434.901028 133.32092 
L 440.350799 132.149599 
L 445.800569 131.164069 
L 451.25034 130.338378 
L 456.70011 129.012205 
L 462.149881 128.071261 
L 467.599651 126.756281 
L 478.499192 123.042311 
L 483.948962 120.230265 
L 489.398733 117.276719 
L 494.848503 113.029384 
L 500.298274 108.128613 
L 505.748044 101.999513 
L 511.197815 95.342066 
L 516.647585 86.491425 
L 522.097355 78.512716 
L 527.547126 72.287662 
L 532.996896 68.219008 
L 538.446667 69.803917 
L 543.896437 73.568178 
L 549.346208 79.73484 
L 554.795978 92.23826 
L 560.245748 107.36123 
L 565.695519 119.086262 
L 571.145289 126.995408 
L 576.59506 131.422221 
L 582.04483 133.833835 
L 587.494601 135.205976 
L 592.944371 136.004895 
L 598.394141 136.102515 
L 603.843912 136.359107 
L 609.293682 136.257662 
L 620.193223 135.689131 
L 631.092764 135.393323 
L 636.542534 135.364009 
L 647.442075 135.716642 
L 658.341616 136.549958 
L 691.040239 139.904201 
L 696.490009 140.14528 
L 707.38955 141.038982 
L 712.83932 141.160672 
L 718.289091 141.498871 
L 723.738861 141.692016 
L 729.188632 142.172942 
L 734.638402 142.230094 
L 740.088173 142.472895 
L 745.537943 142.533752 
L 750.987713 142.837675 
L 756.437484 142.903312 
L 761.887254 143.165371 
L 767.337025 143.176767 
L 778.236566 143.561103 
L 783.686336 143.528029 
L 789.136107 143.679636 
L 794.585877 143.666636 
L 800.035647 143.908102 
L 805.485418 143.87139 
L 816.384959 144.162017 
L 816.384959 144.162017 
" clip-path="url(#p1ac041a8a1)" style="fill: none; stroke: #2378a8; stroke-width: 1.2; stroke-linecap: square"/>
   </g>
   <g id="line2d_15">
    <path d="M 80.66595 124.942887 
L 91.565491 124.942887 
L 97.015262 125.230535 
L 102.465032 124.367589 
L 107.914803 125.518185 
L 113.364573 124.07994 
L 118.814343 124.07994 
L 124.264114 124.367589 
L 129.713884 125.230535 
L 135.163655 124.07994 
L 140.613425 125.518185 
L 146.063196 123.792291 
L 151.512966 124.655238 
L 156.962736 126.381131 
L 162.412507 126.381131 
L 167.862277 126.093482 
L 173.312048 125.230535 
L 178.761818 124.942887 
L 184.211589 126.093482 
L 189.661359 124.07994 
L 195.111129 124.655238 
L 200.5609 125.805833 
L 206.01067 126.381131 
L 211.460441 127.244078 
L 216.910211 126.66878 
L 222.359982 126.956429 
L 227.809752 125.518185 
L 233.259522 126.66878 
L 238.709293 125.230535 
L 244.159063 128.682322 
L 249.608834 126.093482 
L 255.058604 126.093482 
L 260.508375 122.354048 
L 265.958145 122.066399 
L 271.407916 119.18991 
L 276.857686 129.257619 
L 282.307456 134.14765 
L 287.757227 136.161191 
L 293.206997 137.024138 
L 298.656768 137.024138 
L 304.106538 136.44884 
L 309.556309 130.120566 
L 315.006079 132.134108 
L 320.455849 129.257619 
L 325.90562 129.545268 
L 331.35539 128.96997 
L 336.805161 128.96997 
L 342.254931 128.682322 
L 347.704702 128.96997 
L 353.154472 128.682322 
L 358.604242 128.682322 
L 364.054013 109.985147 
L 369.503783 104.519822 
L 374.953554 221.592897 
L 380.403324 301.559266 
L 385.853095 309.901091 
L 391.302865 261.000787 
L 396.752635 208.648696 
L 402.202406 177.582624 
L 407.652176 153.420121 
L 413.101947 136.161191 
L 418.551717 129.832917 
L 424.001488 128.682322 
L 429.451258 127.244078 
L 434.901028 126.66878 
L 440.350799 124.942887 
L 445.800569 125.805833 
L 456.70011 125.230535 
L 462.149881 124.07994 
L 467.599651 124.07994 
L 473.049421 122.066399 
L 478.499192 120.915803 
L 483.948962 117.464016 
L 489.398733 114.587529 
L 500.298274 105.382764 
L 505.748044 100.20509 
L 511.197815 93.876813 
L 516.647585 87.836187 
L 522.097355 84.384403 
L 527.547126 84.959701 
L 532.996896 90.425026 
L 538.446667 99.342141 
L 543.896437 110.272796 
L 549.346208 120.052857 
L 554.795978 127.819375 
L 560.245748 131.55881 
L 565.695519 135.010596 
L 571.145289 135.298245 
L 576.59506 137.887084 
L 582.04483 137.311787 
L 587.494601 137.887084 
L 592.944371 137.311787 
L 598.394141 137.024138 
L 603.843912 138.462382 
L 609.293682 137.311787 
L 614.743453 136.736489 
L 620.193223 138.174733 
L 625.642994 137.311787 
L 631.092764 137.024138 
L 636.542534 138.174733 
L 641.992305 138.174733 
L 647.442075 136.736489 
L 652.891846 138.462382 
L 658.341616 137.887084 
L 669.241157 140.188275 
L 674.690927 141.051222 
L 680.140698 139.325329 
L 685.590468 141.051222 
L 691.040239 140.475924 
L 696.490009 141.051222 
L 701.93978 142.201817 
L 712.83932 142.201817 
L 718.289091 141.626519 
L 723.738861 141.914168 
L 729.188632 143.064763 
L 734.638402 142.777114 
L 745.537943 143.352412 
L 750.987713 144.215359 
L 756.437484 143.640061 
L 761.887254 144.215359 
L 772.786795 144.790656 
L 778.236566 143.92771 
L 783.686336 139.03768 
L 789.136107 139.900626 
L 794.585877 137.311787 
L 800.035647 147.667145 
L 805.485418 152.269525 
L 816.384959 156.871906 
L 816.384959 156.871906 
" clip-path="url(#p1ac041a8a1)" style="fill: none; stroke: #e45756; stroke-width: 1.1; stroke-linecap: square"/>
   </g>
   <g id="patch_3">
    <path d="M 43.88 323.344 
L 43.88 27.6 
" style="fill: none; stroke: #000000; stroke-width: 0.8; stroke-linejoin: miter; stroke-linecap: square"/>
   </g>
   <g id="patch_4">
    <path d="M 853.170909 323.344 
L 853.170909 27.6 
" style="fill: none; stroke: #000000; stroke-width: 0.8; stroke-linejoin: miter; stroke-linecap: square"/>
   </g>
   <g id="patch_5">
    <path d="M 43.88 323.344 
L 853.170909 323.344 
" style="fill: none; stroke: #000000; stroke-width: 0.8; stroke-linejoin: miter; stroke-linecap: square"/>
   </g>
   <g id="patch_6">
    <path d="M 43.88 27.6 
L 853.170909 27.6 
" style="fill: none; stroke: #000000; stroke-width: 0.8; stroke-linejoin: miter; stroke-linecap: square"/>
   </g>
   <g id="text_16">
    <!-- primary score=1.07762, threshold=0.437474 -->
    <g transform="translate(51.972909 317.98656) scale(0.08 -0.08)">
     <defs>
      <path id="AppleSDGothicNeo-Regular-51" d="M 467 -678 
L 960 -678 
L 960 422 
C 1139 320 1408 211 1773 211 
C 2650 211 3206 698 3206 1856 
L 3206 1939 
C 3206 3117 2605 3501 1907 3501 
C 1498 3501 1165 3360 966 3181 
L 941 3181 
L 941 3437 
L 467 3437 
L 467 -678 
z
M 1728 614 
C 1395 614 1107 717 960 838 
L 960 2854 
C 1107 2957 1408 3085 1779 3085 
C 2362 3085 2694 2810 2694 1914 
L 2694 1786 
C 2694 934 2330 614 1728 614 
z
" transform="scale(0.015625)"/>
      <path id="AppleSDGothicNeo-Regular-53" d="M 467 269 
L 960 269 
L 960 2765 
C 1184 2925 1491 3040 1811 3040 
C 1862 3040 1958 3034 2042 3021 
L 2042 3462 
C 2010 3469 1920 3475 1850 3475 
C 1491 3475 1146 3290 966 3085 
L 934 3085 
L 934 3443 
L 467 3443 
L 467 269 
z
" transform="scale(0.015625)"/>
      <path id="AppleSDGothicNeo-Regular-5a" d="M 710 -685 
C 1235 -685 1498 -493 1709 70 
L 2957 3443 
L 2464 3443 
L 1606 1030 
L 1594 1030 
L 659 3443 
L 134 3443 
L 1350 384 
L 1254 122 
C 1120 -224 928 -275 621 -275 
C 506 -275 390 -243 314 -230 
L 314 -595 
C 403 -640 563 -685 710 -685 
z
" transform="scale(0.015625)"/>
      <path id="AppleSDGothicNeo-Regular-54" d="M 1274 218 
C 1971 218 2394 550 2394 1152 
C 2394 1702 2144 1907 1536 2067 
L 1216 2157 
C 877 2253 742 2368 742 2643 
C 742 2938 954 3085 1382 3085 
C 1734 3085 2054 3002 2221 2918 
L 2221 3315 
C 2054 3405 1779 3501 1357 3501 
C 627 3501 275 3136 275 2598 
C 275 2061 589 1850 1050 1722 
L 1363 1638 
C 1766 1523 1914 1395 1914 1101 
C 1914 813 1709 634 1203 634 
C 755 634 525 730 250 832 
L 250 442 
C 512 294 858 218 1274 218 
z
" transform="scale(0.015625)"/>
      <path id="AppleSDGothicNeo-Regular-44" d="M 1734 211 
C 2176 211 2458 339 2662 461 
L 2662 858 
C 2502 768 2221 634 1792 634 
C 1114 634 774 998 774 1811 
L 774 1965 
C 774 2694 1152 3085 1728 3085 
C 2144 3085 2349 3008 2630 2880 
L 2630 3290 
C 2419 3424 2170 3501 1754 3501 
C 934 3501 269 3014 269 1888 
L 269 1792 
C 269 749 826 211 1734 211 
z
" transform="scale(0.015625)"/>
      <path id="AppleSDGothicNeo-Regular-50" d="M 1702 211 
C 2560 211 3149 813 3149 1824 
L 3149 1914 
C 3149 2918 2605 3501 1709 3501 
C 851 3501 269 2899 269 1894 
L 269 1798 
C 269 787 806 211 1702 211 
z
M 1715 614 
C 1184 614 768 902 768 1786 
L 768 1946 
C 768 2688 1126 3098 1702 3098 
C 2221 3098 2650 2810 2650 1926 
L 2650 1766 
C 2650 1018 2291 614 1715 614 
z
" transform="scale(0.015625)"/>
      <path id="AppleSDGothicNeo-Regular-1e" d="M 422 2816 
L 2970 2816 
L 2970 3226 
L 422 3226 
L 422 2816 
z
M 422 1542 
L 2970 1542 
L 2970 1952 
L 422 1952 
L 422 1542 
z
" transform="scale(0.015625)"/>
      <path id="AppleSDGothicNeo-Regular-f" d="M 269 109 
L 826 109 
L 826 678 
L 269 678 
L 269 109 
z
" transform="scale(0.015625)"/>
      <path id="AppleSDGothicNeo-Regular-18" d="M 710 243 
L 1274 243 
L 2957 4218 
L 2957 4544 
L 218 4544 
L 218 4115 
L 2400 4115 
L 710 243 
z
" transform="scale(0.015625)"/>
      <path id="AppleSDGothicNeo-Regular-d" d="M 122 -563 
L 467 -563 
L 941 685 
L 358 685 
L 122 -563 
z
" transform="scale(0.015625)"/>
      <path id="AppleSDGothicNeo-Regular-49" d="M 467 269 
L 954 269 
L 954 2842 
C 1216 2970 1549 3078 1850 3078 
C 2355 3078 2490 2918 2490 2534 
L 2490 269 
L 2976 269 
L 2976 2630 
C 2976 3245 2675 3501 2054 3501 
C 1664 3501 1261 3366 986 3168 
L 954 3168 
L 954 4851 
L 467 4851 
L 467 269 
z
" transform="scale(0.015625)"/>
      <path id="AppleSDGothicNeo-Regular-14" d="M 1491 205 
C 2445 205 3053 730 3053 1478 
C 3053 2144 2630 2458 2074 2566 
C 2560 2726 2893 3040 2893 3571 
C 2893 4243 2368 4634 1600 4634 
C 1229 4634 723 4474 467 4301 
L 544 3891 
C 813 4045 1146 4198 1498 4198 
C 2022 4198 2362 4013 2362 3488 
C 2362 3008 1984 2726 1427 2726 
L 1043 2726 
L 1043 2291 
L 1459 2291 
C 2112 2291 2534 2029 2534 1478 
C 2534 947 2138 634 1427 634 
C 1107 634 678 755 435 915 
L 326 512 
C 563 346 992 205 1491 205 
z
" transform="scale(0.015625)"/>
     </defs>
     <use xlink:href="#AppleSDGothicNeo-Regular-51"/>
     <use xlink:href="#AppleSDGothicNeo-Regular-53" transform="translate(54.5 0)"/>
     <use xlink:href="#AppleSDGothicNeo-Regular-4a" transform="translate(89.09375 0)"/>
     <use xlink:href="#AppleSDGothicNeo-Regular-4e" transform="translate(111.796875 0)"/>
     <use xlink:href="#AppleSDGothicNeo-Regular-42" transform="translate(192.09375 0)"/>
     <use xlink:href="#AppleSDGothicNeo-Regular-53" transform="translate(239.296875 0)"/>
     <use xlink:href="#AppleSDGothicNeo-Regular-5a" transform="translate(273.890625 0)"/>
     <use xlink:href="#AppleSDGothicNeo-Regular-1" transform="translate(322.09375 0)"/>
     <use xlink:href="#AppleSDGothicNeo-Regular-54" transform="translate(348.390625 0)"/>
     <use xlink:href="#AppleSDGothicNeo-Regular-44" transform="translate(389.890625 0)"/>
     <use xlink:href="#AppleSDGothicNeo-Regular-50" transform="translate(434.890625 0)"/>
     <use xlink:href="#AppleSDGothicNeo-Regular-53" transform="translate(488.296875 0)"/>
     <use xlink:href="#AppleSDGothicNeo-Regular-46" transform="translate(522.890625 0)"/>
     <use xlink:href="#AppleSDGothicNeo-Regular-1e" transform="translate(572.890625 0)"/>
     <use xlink:href="#AppleSDGothicNeo-Regular-12" transform="translate(621.984375 0)"/>
     <use xlink:href="#AppleSDGothicNeo-Regular-f" transform="translate(657.6875 0)"/>
     <use xlink:href="#AppleSDGothicNeo-Regular-11" transform="translate(680.28125 0)"/>
     <use xlink:href="#AppleSDGothicNeo-Regular-18" transform="translate(740.078125 0)"/>
     <use xlink:href="#AppleSDGothicNeo-Regular-18" transform="translate(790.171875 0)"/>
     <use xlink:href="#AppleSDGothicNeo-Regular-17" transform="translate(838.078125 0)"/>
     <use xlink:href="#AppleSDGothicNeo-Regular-13" transform="translate(892.390625 0)"/>
     <use xlink:href="#AppleSDGothicNeo-Regular-d" transform="translate(945.6875 0)"/>
     <use xlink:href="#AppleSDGothicNeo-Regular-1" transform="translate(968.28125 0)"/>
     <use xlink:href="#AppleSDGothicNeo-Regular-55" transform="translate(994.578125 0)"/>
     <use xlink:href="#AppleSDGothicNeo-Regular-49" transform="translate(1029.578125 0)"/>
     <use xlink:href="#AppleSDGothicNeo-Regular-53" transform="translate(1083.171875 0)"/>
     <use xlink:href="#AppleSDGothicNeo-Regular-46" transform="translate(1117.765625 0)"/>
     <use xlink:href="#AppleSDGothicNeo-Regular-54" transform="translate(1167.765625 0)"/>
     <use xlink:href="#AppleSDGothicNeo-Regular-49" transform="translate(1209.265625 0)"/>
     <use xlink:href="#AppleSDGothicNeo-Regular-50" transform="translate(1262.859375 0)"/>
     <use xlink:href="#AppleSDGothicNeo-Regular-4d" transform="translate(1316.265625 0)"/>
     <use xlink:href="#AppleSDGothicNeo-Regular-45" transform="translate(1338.96875 0)"/>
     <use xlink:href="#AppleSDGothicNeo-Regular-1e" transform="translate(1393.46875 0)"/>
     <use xlink:href="#AppleSDGothicNeo-Regular-11" transform="translate(1445.765625 0)"/>
     <use xlink:href="#AppleSDGothicNeo-Regular-f" transform="translate(1508.765625 0)"/>
     <use xlink:href="#AppleSDGothicNeo-Regular-15" transform="translate(1531.359375 0)"/>
     <use xlink:href="#AppleSDGothicNeo-Regular-14" transform="translate(1586.859375 0)"/>
     <use xlink:href="#AppleSDGothicNeo-Regular-18" transform="translate(1638.546875 0)"/>
     <use xlink:href="#AppleSDGothicNeo-Regular-15" transform="translate(1684.046875 0)"/>
     <use xlink:href="#AppleSDGothicNeo-Regular-18" transform="translate(1737.953125 0)"/>
     <use xlink:href="#AppleSDGothicNeo-Regular-15" transform="translate(1783.453125 0)"/>
    </g>
   </g>
   <g id="text_17">
    <!-- 02_명확한_자동_경보_TP_2 | ECGFiveDays_normal_1 | TEST index 441 | 자동 경보 -->
    <g transform="translate(253.539517 21.6) scale(0.12 -0.12)">
     <defs>
      <path id="AppleSDGothicNeo-Regular-40" d="M 51 -365 
L 2099 -365 
L 2099 -38 
L 51 -38 
L 51 -365 
z
" transform="scale(0.015625)"/>
      <path id="AppleSDGothicNeo-Regular-77a" d="M 4858 614 
C 4858 1274 4166 1690 2957 1690 
C 1734 1690 1050 1274 1050 614 
C 1050 -38 1734 -448 2957 -448 
C 4166 -448 4858 -38 4858 614 
z
M 2957 1274 
C 3840 1274 4358 1037 4358 614 
C 4358 198 3840 -38 2957 -38 
C 2074 -38 1555 198 1555 614 
C 1555 1037 2074 1274 2957 1274 
z
M 3322 3840 
L 4326 3840 
L 4326 3091 
L 3315 3091 
L 3315 2688 
L 4326 2688 
L 4326 1664 
L 4813 1664 
L 4813 5146 
L 4326 5146 
L 4326 4243 
L 3322 4243 
L 3322 3840 
z
M 3053 2157 
L 3053 4717 
L 493 4717 
L 493 2157 
L 3053 2157 
z
M 2560 2554 
L 979 2554 
L 979 4314 
L 2560 4314 
L 2560 2554 
z
" transform="scale(0.015625)"/>
      <path id="AppleSDGothicNeo-Regular-d1b" d="M 3750 1690 
L 3706 2067 
C 3379 2016 2771 1965 2182 1939 
L 2182 2291 
C 2784 2342 3251 2579 3251 3034 
C 3251 3552 2656 3782 1946 3782 
C 1235 3782 653 3546 653 3027 
C 653 2573 1101 2349 1690 2291 
L 1690 1914 
C 1120 1888 550 1875 147 1875 
L 224 1472 
C 614 1472 1382 1504 2016 1542 
C 2675 1574 3347 1645 3750 1690 
z
M 5402 2880 
L 5402 3290 
L 4557 3290 
L 4557 5146 
L 4064 5146 
L 4064 1427 
L 4557 1427 
L 4557 2880 
L 5402 2880 
z
M 890 1133 
L 890 730 
L 4064 730 
L 4064 -486 
L 4557 -486 
L 4557 1133 
L 890 1133 
z
M 3558 3968 
L 3558 4365 
L 346 4365 
L 346 3968 
L 3558 3968 
z
M 2784 3034 
C 2784 2771 2413 2643 1946 2643 
C 1472 2643 1114 2765 1114 3034 
C 1114 3290 1466 3418 1946 3418 
C 2413 3418 2784 3290 2784 3034 
z
M 2720 4672 
L 2720 5075 
L 1184 5075 
L 1184 4672 
L 2720 4672 
z
" transform="scale(0.015625)"/>
      <path id="AppleSDGothicNeo-Regular-ce0" d="M 5395 2842 
L 5395 3251 
L 4544 3251 
L 4544 5146 
L 4058 5146 
L 4058 1018 
L 4544 1018 
L 4544 2842 
L 5395 2842 
z
M 4762 -269 
L 4762 141 
L 1523 141 
L 1523 1165 
L 1037 1165 
L 1037 -269 
L 4762 -269 
z
M 2630 4518 
L 2630 4947 
L 1018 4947 
L 1018 4518 
L 2630 4518 
z
M 3494 3693 
L 3494 4096 
L 218 4096 
L 218 3693 
L 3494 3693 
z
M 3174 2413 
C 3174 3014 2611 3392 1856 3392 
C 1107 3392 544 3014 544 2413 
C 544 1824 1114 1434 1856 1434 
C 2611 1434 3174 1824 3174 2413 
z
M 2714 2413 
C 2714 2048 2310 1824 1856 1824 
C 1408 1824 1005 2048 1005 2413 
C 1005 2784 1408 3008 1856 3008 
C 2310 3008 2714 2784 2714 2413 
z
" transform="scale(0.015625)"/>
      <path id="AppleSDGothicNeo-Regular-a57" d="M 3558 1229 
C 2790 1664 2106 2541 2106 3584 
L 2106 4147 
L 3398 4147 
L 3398 4557 
L 307 4557 
L 307 4147 
L 1600 4147 
L 1600 3571 
C 1600 2566 954 1581 128 1094 
L 448 730 
C 1120 1197 1664 1888 1856 2566 
C 2054 1901 2739 1197 3264 864 
L 3558 1229 
z
M 5453 2464 
L 5453 2874 
L 4544 2874 
L 4544 5146 
L 4058 5146 
L 4058 -448 
L 4544 -448 
L 4544 2464 
L 5453 2464 
z
" transform="scale(0.015625)"/>
      <path id="AppleSDGothicNeo-Regular-632" d="M 4691 531 
C 4691 1165 3994 1504 2765 1504 
C 1542 1504 851 1139 851 531 
C 851 -90 1542 -448 2765 -448 
C 3994 -448 4691 -96 4691 531 
z
M 4685 3027 
L 4685 3430 
L 1350 3430 
L 1350 4474 
L 4659 4474 
L 4659 4877 
L 858 4877 
L 858 3027 
L 2522 3027 
L 2522 2317 
L 243 2317 
L 243 1914 
L 5293 1914 
L 5293 2317 
L 3008 2317 
L 3008 3027 
L 4685 3027 
z
M 2765 1107 
C 3654 1107 4192 890 4192 531 
C 4192 160 3654 -45 2765 -45 
C 1888 -45 1350 160 1350 531 
C 1350 890 1888 1107 2765 1107 
z
" transform="scale(0.015625)"/>
      <path id="AppleSDGothicNeo-Regular-483" d="M 4858 640 
C 4858 1286 4166 1696 2957 1696 
C 1734 1696 1050 1286 1050 640 
C 1050 -13 1734 -422 2957 -422 
C 4166 -422 4858 -13 4858 640 
z
M 2957 1286 
C 3840 1286 4358 1050 4358 640 
C 4358 224 3840 -19 2957 -19 
C 2074 -19 1555 224 1555 640 
C 1555 1050 2074 1286 2957 1286 
z
M 3091 2560 
L 4326 2560 
L 4326 1613 
L 4813 1613 
L 4813 5146 
L 4326 5146 
L 4326 4134 
L 3181 4134 
L 3181 3731 
L 4326 3731 
L 4326 2963 
L 3091 2963 
L 3091 2560 
z
M 3123 4710 
L 550 4710 
L 550 4294 
L 2573 4294 
C 2406 3347 1459 2419 307 2099 
L 550 1683 
C 2029 2202 3040 3302 3123 4710 
z
" transform="scale(0.015625)"/>
      <path id="AppleSDGothicNeo-Regular-801" d="M 4678 1798 
L 4678 4762 
L 4192 4762 
L 4192 3731 
L 1344 3731 
L 1344 4762 
L 851 4762 
L 851 1798 
L 2515 1798 
L 2515 659 
L 243 659 
L 243 250 
L 5293 250 
L 5293 659 
L 3002 659 
L 3002 1798 
L 4678 1798 
z
M 4192 2202 
L 1344 2202 
L 1344 3328 
L 4192 3328 
L 4192 2202 
z
" transform="scale(0.015625)"/>
      <path id="AppleSDGothicNeo-Regular-35" d="M 1491 269 
L 1990 269 
L 1990 4134 
L 3302 4134 
L 3302 4563 
L 179 4563 
L 179 4134 
L 1491 4134 
L 1491 269 
z
" transform="scale(0.015625)"/>
      <path id="AppleSDGothicNeo-Regular-31" d="M 550 269 
L 1062 269 
L 1062 1990 
L 1939 1990 
C 2758 1990 3309 2451 3309 3296 
C 3309 4102 2842 4563 1875 4563 
L 550 4563 
L 550 269 
z
M 1062 2413 
L 1062 4134 
L 1824 4134 
C 2522 4134 2765 3872 2765 3264 
C 2765 2688 2502 2413 1837 2413 
L 1062 2413 
z
" transform="scale(0.015625)"/>
      <path id="AppleSDGothicNeo-Regular-5d" d="M 691 -384 
L 1114 -384 
L 1114 4941 
L 691 4941 
L 691 -384 
z
" transform="scale(0.015625)"/>
      <path id="AppleSDGothicNeo-Regular-26" d="M 557 269 
L 3123 269 
L 3123 698 
L 1062 698 
L 1062 2266 
L 2637 2266 
L 2637 2694 
L 1062 2694 
L 1062 4134 
L 3104 4134 
L 3104 4563 
L 557 4563 
L 557 269 
z
" transform="scale(0.015625)"/>
      <path id="AppleSDGothicNeo-Regular-24" d="M 2182 198 
C 2688 198 3078 314 3366 480 
L 3366 909 
C 3098 774 2778 627 2246 627 
C 1261 627 851 1267 851 2368 
L 851 2579 
C 851 3718 1427 4205 2240 4205 
C 2662 4205 2982 4109 3322 3974 
L 3322 4397 
C 3059 4538 2726 4634 2266 4634 
C 1171 4634 314 4032 314 2496 
L 314 2368 
C 314 915 1024 198 2182 198 
z
" transform="scale(0.015625)"/>
      <path id="AppleSDGothicNeo-Regular-28" d="M 2298 198 
C 2842 198 3283 314 3616 435 
L 3616 2349 
L 2195 2349 
L 2195 1926 
L 3117 1926 
L 3117 755 
C 2912 678 2611 627 2310 627 
C 1158 627 851 1344 851 2342 
L 851 2515 
C 851 3424 1229 4205 2298 4205 
C 2867 4205 3194 4064 3456 3942 
L 3456 4384 
C 3200 4512 2867 4634 2336 4634 
C 1254 4634 307 4058 307 2445 
L 307 2330 
C 307 858 1082 198 2298 198 
z
" transform="scale(0.015625)"/>
      <path id="AppleSDGothicNeo-Regular-27" d="M 550 269 
L 1056 269 
L 1056 2195 
L 2586 2195 
L 2586 2630 
L 1056 2630 
L 1056 4134 
L 3040 4134 
L 3040 4563 
L 550 4563 
L 550 269 
z
" transform="scale(0.015625)"/>
      <path id="AppleSDGothicNeo-Regular-25" d="M 550 269 
L 1830 269 
C 3226 269 3853 1056 3853 2406 
L 3853 2528 
C 3853 3898 3130 4563 1824 4563 
L 550 4563 
L 550 269 
z
M 1056 704 
L 1056 4128 
L 1773 4128 
C 2758 4128 3302 3718 3302 2528 
L 3302 2336 
C 3302 1190 2854 704 1843 704 
L 1056 704 
z
" transform="scale(0.015625)"/>
      <path id="AppleSDGothicNeo-Regular-34" d="M 1472 192 
C 2477 192 2912 691 2912 1440 
C 2912 2163 2509 2432 1875 2650 
L 1453 2784 
C 966 2950 813 3130 813 3539 
C 813 3949 1107 4205 1632 4205 
C 2106 4205 2445 4083 2694 3968 
L 2694 4397 
C 2458 4512 2157 4634 1651 4634 
C 755 4634 314 4160 314 3494 
C 314 2842 653 2534 1254 2336 
L 1670 2189 
C 2189 2022 2400 1843 2400 1402 
C 2400 934 2112 627 1453 627 
C 998 627 576 742 250 909 
L 250 480 
C 538 320 947 192 1472 192 
z
" transform="scale(0.015625)"/>
     </defs>
     <use xlink:href="#AppleSDGothicNeo-Regular-11"/>
     <use xlink:href="#AppleSDGothicNeo-Regular-13" transform="translate(61.40625 0)"/>
     <use xlink:href="#AppleSDGothicNeo-Regular-40" transform="translate(114.703125 0)"/>
     <use xlink:href="#AppleSDGothicNeo-Regular-77a" transform="translate(148.296875 0)"/>
     <use xlink:href="#AppleSDGothicNeo-Regular-d1b" transform="translate(234.796875 0)"/>
     <use xlink:href="#AppleSDGothicNeo-Regular-ce0" transform="translate(321.296875 0)"/>
     <use xlink:href="#AppleSDGothicNeo-Regular-40" transform="translate(407.796875 0)"/>
     <use xlink:href="#AppleSDGothicNeo-Regular-a57" transform="translate(441.390625 0)"/>
     <use xlink:href="#AppleSDGothicNeo-Regular-632" transform="translate(527.890625 0)"/>
     <use xlink:href="#AppleSDGothicNeo-Regular-40" transform="translate(614.390625 0)"/>
     <use xlink:href="#AppleSDGothicNeo-Regular-483" transform="translate(647.984375 0)"/>
     <use xlink:href="#AppleSDGothicNeo-Regular-801" transform="translate(734.484375 0)"/>
     <use xlink:href="#AppleSDGothicNeo-Regular-40" transform="translate(820.984375 0)"/>
     <use xlink:href="#AppleSDGothicNeo-Regular-35" transform="translate(854.578125 0)"/>
     <use xlink:href="#AppleSDGothicNeo-Regular-31" transform="translate(908.984375 0)"/>
     <use xlink:href="#AppleSDGothicNeo-Regular-40" transform="translate(964.28125 0)"/>
     <use xlink:href="#AppleSDGothicNeo-Regular-13" transform="translate(997.875 0)"/>
     <use xlink:href="#AppleSDGothicNeo-Regular-1" transform="translate(1051.171875 0)"/>
     <use xlink:href="#AppleSDGothicNeo-Regular-5d" transform="translate(1077.46875 0)"/>
     <use xlink:href="#AppleSDGothicNeo-Regular-1" transform="translate(1105.671875 0)"/>
     <use xlink:href="#AppleSDGothicNeo-Regular-26" transform="translate(1131.96875 0)"/>
     <use xlink:href="#AppleSDGothicNeo-Regular-24" transform="translate(1184.875 0)"/>
     <use xlink:href="#AppleSDGothicNeo-Regular-28" transform="translate(1241.875 0)"/>
     <use xlink:href="#AppleSDGothicNeo-Regular-27" transform="translate(1305.171875 0)"/>
     <use xlink:href="#AppleSDGothicNeo-Regular-4a" transform="translate(1356.765625 0)"/>
     <use xlink:href="#AppleSDGothicNeo-Regular-57" transform="translate(1379.46875 0)"/>
     <use xlink:href="#AppleSDGothicNeo-Regular-46" transform="translate(1428.671875 0)"/>
     <use xlink:href="#AppleSDGothicNeo-Regular-25" transform="translate(1478.671875 0)"/>
     <use xlink:href="#AppleSDGothicNeo-Regular-42" transform="translate(1543.671875 0)"/>
     <use xlink:href="#AppleSDGothicNeo-Regular-5a" transform="translate(1590.875 0)"/>
     <use xlink:href="#AppleSDGothicNeo-Regular-54" transform="translate(1639.078125 0)"/>
     <use xlink:href="#AppleSDGothicNeo-Regular-40" transform="translate(1680.578125 0)"/>
     <use xlink:href="#AppleSDGothicNeo-Regular-4f" transform="translate(1714.171875 0)"/>
     <use xlink:href="#AppleSDGothicNeo-Regular-50" transform="translate(1767.765625 0)"/>
     <use xlink:href="#AppleSDGothicNeo-Regular-53" transform="translate(1821.171875 0)"/>
     <use xlink:href="#AppleSDGothicNeo-Regular-4e" transform="translate(1855.765625 0)"/>
     <use xlink:href="#AppleSDGothicNeo-Regular-42" transform="translate(1936.0625 0)"/>
     <use xlink:href="#AppleSDGothicNeo-Regular-4d" transform="translate(1983.265625 0)"/>
     <use xlink:href="#AppleSDGothicNeo-Regular-40" transform="translate(2005.96875 0)"/>
     <use xlink:href="#AppleSDGothicNeo-Regular-12" transform="translate(2039.5625 0)"/>
     <use xlink:href="#AppleSDGothicNeo-Regular-1" transform="translate(2075.265625 0)"/>
     <use xlink:href="#AppleSDGothicNeo-Regular-5d" transform="translate(2101.5625 0)"/>
     <use xlink:href="#AppleSDGothicNeo-Regular-1" transform="translate(2129.765625 0)"/>
     <use xlink:href="#AppleSDGothicNeo-Regular-35" transform="translate(2156.0625 0)"/>
     <use xlink:href="#AppleSDGothicNeo-Regular-26" transform="translate(2210.46875 0)"/>
     <use xlink:href="#AppleSDGothicNeo-Regular-34" transform="translate(2265.46875 0)"/>
     <use xlink:href="#AppleSDGothicNeo-Regular-35" transform="translate(2315.875 0)"/>
     <use xlink:href="#AppleSDGothicNeo-Regular-1" transform="translate(2370.28125 0)"/>
     <use xlink:href="#AppleSDGothicNeo-Regular-4a" transform="translate(2396.578125 0)"/>
     <use xlink:href="#AppleSDGothicNeo-Regular-4f" transform="translate(2419.28125 0)"/>
     <use xlink:href="#AppleSDGothicNeo-Regular-45" transform="translate(2472.875 0)"/>
     <use xlink:href="#AppleSDGothicNeo-Regular-46" transform="translate(2527.375 0)"/>
     <use xlink:href="#AppleSDGothicNeo-Regular-59" transform="translate(2576.375 0)"/>
     <use xlink:href="#AppleSDGothicNeo-Regular-1" transform="translate(2624.078125 0)"/>
     <use xlink:href="#AppleSDGothicNeo-Regular-15" transform="translate(2650.375 0)"/>
     <use xlink:href="#AppleSDGothicNeo-Regular-15" transform="translate(2707.671875 0)"/>
     <use xlink:href="#AppleSDGothicNeo-Regular-12" transform="translate(2760.96875 0)"/>
     <use xlink:href="#AppleSDGothicNeo-Regular-1" transform="translate(2796.671875 0)"/>
     <use xlink:href="#AppleSDGothicNeo-Regular-5d" transform="translate(2822.96875 0)"/>
     <use xlink:href="#AppleSDGothicNeo-Regular-1" transform="translate(2851.171875 0)"/>
     <use xlink:href="#AppleSDGothicNeo-Regular-a57" transform="translate(2877.46875 0)"/>
     <use xlink:href="#AppleSDGothicNeo-Regular-632" transform="translate(2963.96875 0)"/>
     <use xlink:href="#AppleSDGothicNeo-Regular-1" transform="translate(3050.46875 0)"/>
     <use xlink:href="#AppleSDGothicNeo-Regular-483" transform="translate(3076.765625 0)"/>
     <use xlink:href="#AppleSDGothicNeo-Regular-801" transform="translate(3163.265625 0)"/>
    </g>
   </g>
   <g id="legend_1">
    <g id="patch_7">
     <path d="M 743.569659 74.8 
L 847.570909 74.8 
Q 849.170909 74.8 849.170909 73.2 
L 849.170909 33.2 
Q 849.170909 31.6 847.570909 31.6 
L 743.569659 31.6 
Q 741.969659 31.6 741.969659 33.2 
L 741.969659 73.2 
Q 741.969659 74.8 743.569659 74.8 
z
" style="fill: #ffffff; opacity: 0.8; stroke: #cccccc; stroke-linejoin: miter"/>
    </g>
    <g id="patch_8">
     <path d="M 745.169659 42 
L 761.169659 42 
L 761.169659 36.4 
L 745.169659 36.4 
z
" style="fill: #a7dff3; fill-opacity: 0.55; stroke: #a7dff3; stroke-opacity: 0.55; stroke-linejoin: miter"/>
    </g>
    <g id="text_18">
     <!-- TRAIN normal p05-p95 -->
     <g transform="translate(767.569659 42) scale(0.08 -0.08)">
      <defs>
       <path id="AppleSDGothicNeo-Regular-33" d="M 550 269 
L 1056 269 
L 1056 2112 
L 1875 2112 
L 2944 269 
L 3520 269 
L 2381 2202 
L 2381 2234 
C 2912 2400 3219 2746 3219 3360 
C 3219 4134 2746 4563 1798 4563 
L 550 4563 
L 550 269 
z
M 1056 2509 
L 1056 4134 
L 1760 4134 
C 2419 4134 2682 3885 2682 3354 
C 2682 2797 2438 2509 1766 2509 
L 1056 2509 
z
" transform="scale(0.015625)"/>
       <path id="AppleSDGothicNeo-Regular-22" d="M 122 269 
L 608 269 
L 1050 1523 
L 2771 1523 
L 3226 269 
L 3757 269 
L 2189 4563 
L 1696 4563 
L 122 269 
z
M 1901 3885 
L 1914 3885 
L 2611 1952 
L 1197 1952 
L 1901 3885 
z
" transform="scale(0.015625)"/>
       <path id="AppleSDGothicNeo-Regular-2a" d="M 576 269 
L 1082 269 
L 1082 4563 
L 576 4563 
L 576 269 
z
" transform="scale(0.015625)"/>
       <path id="AppleSDGothicNeo-Regular-2f" d="M 550 269 
L 1024 269 
L 1024 3872 
L 1043 3872 
L 3174 269 
L 3699 269 
L 3699 4563 
L 3238 4563 
L 3238 1126 
L 3219 1126 
L 1152 4563 
L 550 4563 
L 550 269 
z
" transform="scale(0.015625)"/>
       <path id="AppleSDGothicNeo-Regular-16" d="M 1395 192 
C 2342 192 2906 838 2906 1606 
C 2906 2509 2374 2918 1510 2918 
C 1331 2918 1069 2874 896 2829 
L 986 4134 
L 2752 4134 
L 2752 4570 
L 576 4570 
L 422 2317 
C 621 2406 1024 2528 1318 2528 
C 1990 2528 2374 2266 2374 1613 
C 2374 1005 1978 621 1299 621 
C 947 621 525 768 288 928 
L 192 518 
C 448 333 896 192 1395 192 
z
" transform="scale(0.015625)"/>
       <path id="AppleSDGothicNeo-Regular-1a" d="M 1696 4634 
C 826 4634 307 3949 307 3142 
C 307 2323 896 1798 1619 1798 
C 2093 1798 2445 2010 2675 2272 
C 2630 1069 2227 621 1523 621 
C 1178 621 832 723 646 832 
L 506 461 
C 704 326 1107 192 1549 192 
C 2586 192 3187 979 3187 2477 
L 3187 2758 
C 3187 3974 2656 4634 1696 4634 
z
M 1702 4211 
C 2387 4211 2675 3686 2675 2886 
L 2675 2765 
C 2496 2515 2131 2227 1722 2227 
C 1203 2227 813 2515 813 3187 
C 813 3782 1146 4211 1702 4211 
z
" transform="scale(0.015625)"/>
      </defs>
      <use xlink:href="#AppleSDGothicNeo-Regular-35"/>
      <use xlink:href="#AppleSDGothicNeo-Regular-33" transform="translate(54.40625 0)"/>
      <use xlink:href="#AppleSDGothicNeo-Regular-22" transform="translate(112.203125 0)"/>
      <use xlink:href="#AppleSDGothicNeo-Regular-2a" transform="translate(172.703125 0)"/>
      <use xlink:href="#AppleSDGothicNeo-Regular-2f" transform="translate(198.609375 0)"/>
      <use xlink:href="#AppleSDGothicNeo-Regular-1" transform="translate(265.203125 0)"/>
      <use xlink:href="#AppleSDGothicNeo-Regular-4f" transform="translate(291.5 0)"/>
      <use xlink:href="#AppleSDGothicNeo-Regular-50" transform="translate(345.09375 0)"/>
      <use xlink:href="#AppleSDGothicNeo-Regular-53" transform="translate(398.5 0)"/>
      <use xlink:href="#AppleSDGothicNeo-Regular-4e" transform="translate(433.09375 0)"/>
      <use xlink:href="#AppleSDGothicNeo-Regular-42" transform="translate(513.390625 0)"/>
      <use xlink:href="#AppleSDGothicNeo-Regular-4d" transform="translate(560.59375 0)"/>
      <use xlink:href="#AppleSDGothicNeo-Regular-1" transform="translate(583.296875 0)"/>
      <use xlink:href="#AppleSDGothicNeo-Regular-51" transform="translate(609.59375 0)"/>
      <use xlink:href="#AppleSDGothicNeo-Regular-11" transform="translate(664.09375 0)"/>
      <use xlink:href="#AppleSDGothicNeo-Regular-16" transform="translate(727.09375 0)"/>
      <use xlink:href="#AppleSDGothicNeo-Regular-e" transform="translate(777 0)"/>
      <use xlink:href="#AppleSDGothicNeo-Regular-51" transform="translate(820.203125 0)"/>
      <use xlink:href="#AppleSDGothicNeo-Regular-1a" transform="translate(874.703125 0)"/>
      <use xlink:href="#AppleSDGothicNeo-Regular-16" transform="translate(930.109375 0)"/>
     </g>
    </g>
    <g id="line2d_16">
     <path d="M 745.169659 52.8 
L 753.169659 52.8 
L 761.169659 52.8 
" style="fill: none; stroke: #2378a8; stroke-width: 1.2; stroke-linecap: square"/>
    </g>
    <g id="text_19">
     <!-- TRAIN normal median -->
     <g transform="translate(767.569659 55.6) scale(0.08 -0.08)">
      <use xlink:href="#AppleSDGothicNeo-Regular-35"/>
      <use xlink:href="#AppleSDGothicNeo-Regular-33" transform="translate(54.40625 0)"/>
      <use xlink:href="#AppleSDGothicNeo-Regular-22" transform="translate(112.203125 0)"/>
      <use xlink:href="#AppleSDGothicNeo-Regular-2a" transform="translate(172.703125 0)"/>
      <use xlink:href="#AppleSDGothicNeo-Regular-2f" transform="translate(198.609375 0)"/>
      <use xlink:href="#AppleSDGothicNeo-Regular-1" transform="translate(265.203125 0)"/>
      <use xlink:href="#AppleSDGothicNeo-Regular-4f" transform="translate(291.5 0)"/>
      <use xlink:href="#AppleSDGothicNeo-Regular-50" transform="translate(345.09375 0)"/>
      <use xlink:href="#AppleSDGothicNeo-Regular-53" transform="translate(398.5 0)"/>
      <use xlink:href="#AppleSDGothicNeo-Regular-4e" transform="translate(433.09375 0)"/>
      <use xlink:href="#AppleSDGothicNeo-Regular-42" transform="translate(513.390625 0)"/>
      <use xlink:href="#AppleSDGothicNeo-Regular-4d" transform="translate(560.59375 0)"/>
      <use xlink:href="#AppleSDGothicNeo-Regular-1" transform="translate(583.296875 0)"/>
      <use xlink:href="#AppleSDGothicNeo-Regular-4e" transform="translate(609.59375 0)"/>
      <use xlink:href="#AppleSDGothicNeo-Regular-46" transform="translate(689.890625 0)"/>
      <use xlink:href="#AppleSDGothicNeo-Regular-45" transform="translate(739.890625 0)"/>
      <use xlink:href="#AppleSDGothicNeo-Regular-4a" transform="translate(794.390625 0)"/>
      <use xlink:href="#AppleSDGothicNeo-Regular-42" transform="translate(817.09375 0)"/>
      <use xlink:href="#AppleSDGothicNeo-Regular-4f" transform="translate(864.296875 0)"/>
     </g>
    </g>
    <g id="line2d_17">
     <path d="M 745.169659 66.4 
L 753.169659 66.4 
L 761.169659 66.4 
" style="fill: none; stroke: #e45756; stroke-width: 1.1; stroke-linecap: square"/>
    </g>
    <g id="text_20">
     <!-- selected TEST series -->
     <g transform="translate(767.569659 69.2) scale(0.08 -0.08)">
      <use xlink:href="#AppleSDGothicNeo-Regular-54"/>
      <use xlink:href="#AppleSDGothicNeo-Regular-46" transform="translate(41.5 0)"/>
      <use xlink:href="#AppleSDGothicNeo-Regular-4d" transform="translate(91.5 0)"/>
      <use xlink:href="#AppleSDGothicNeo-Regular-46" transform="translate(114.203125 0)"/>
      <use xlink:href="#AppleSDGothicNeo-Regular-44" transform="translate(164.203125 0)"/>
      <use xlink:href="#AppleSDGothicNeo-Regular-55" transform="translate(210.109375 0)"/>
      <use xlink:href="#AppleSDGothicNeo-Regular-46" transform="translate(245.109375 0)"/>
      <use xlink:href="#AppleSDGothicNeo-Regular-45" transform="translate(295.109375 0)"/>
      <use xlink:href="#AppleSDGothicNeo-Regular-1" transform="translate(349.609375 0)"/>
      <use xlink:href="#AppleSDGothicNeo-Regular-35" transform="translate(375.90625 0)"/>
      <use xlink:href="#AppleSDGothicNeo-Regular-26" transform="translate(430.3125 0)"/>
      <use xlink:href="#AppleSDGothicNeo-Regular-34" transform="translate(485.3125 0)"/>
      <use xlink:href="#AppleSDGothicNeo-Regular-35" transform="translate(535.71875 0)"/>
      <use xlink:href="#AppleSDGothicNeo-Regular-1" transform="translate(590.125 0)"/>
      <use xlink:href="#AppleSDGothicNeo-Regular-54" transform="translate(616.421875 0)"/>
      <use xlink:href="#AppleSDGothicNeo-Regular-46" transform="translate(657.921875 0)"/>
      <use xlink:href="#AppleSDGothicNeo-Regular-53" transform="translate(707.921875 0)"/>
      <use xlink:href="#AppleSDGothicNeo-Regular-4a" transform="translate(742.515625 0)"/>
      <use xlink:href="#AppleSDGothicNeo-Regular-46" transform="translate(765.21875 0)"/>
      <use xlink:href="#AppleSDGothicNeo-Regular-54" transform="translate(815.21875 0)"/>
     </g>
    </g>
   </g>
  </g>
  <g id="axes_2">
   <g id="patch_9">
    <path d="M 43.88 443.08 
L 853.170909 443.08 
L 853.170909 369.144 
L 43.88 369.144 
z
" style="fill: #ffffff"/>
   </g>
   <g id="PathCollection_1">
    <defs>
     <path id="mae1bc9f463" d="M -3 3 
L 3 -3 
M -3 -3 
L 3 3 
" style="stroke: #e45756; stroke-width: 1.5"/>
    </defs>
    <g clip-path="url(#p370f840cb7)">
     <use xlink:href="#mae1bc9f463" x="837.02098" y="416.984941" style="fill: #e45756; stroke: #e45756; stroke-width: 1.5"/>
     <use xlink:href="#mae1bc9f463" x="838.815416" y="416.984941" style="fill: #e45756; stroke: #e45756; stroke-width: 1.5"/>
     <use xlink:href="#mae1bc9f463" x="840.609853" y="416.984941" style="fill: #e45756; stroke: #e45756; stroke-width: 1.5"/>
     <use xlink:href="#mae1bc9f463" x="842.404289" y="416.984941" style="fill: #e45756; stroke: #e45756; stroke-width: 1.5"/>
     <use xlink:href="#mae1bc9f463" x="844.198726" y="416.984941" style="fill: #e45756; stroke: #e45756; stroke-width: 1.5"/>
     <use xlink:href="#mae1bc9f463" x="845.993163" y="416.984941" style="fill: #e45756; stroke: #e45756; stroke-width: 1.5"/>
     <use xlink:href="#mae1bc9f463" x="847.787599" y="416.984941" style="fill: #e45756; stroke: #e45756; stroke-width: 1.5"/>
     <use xlink:href="#mae1bc9f463" x="849.582036" y="416.984941" style="fill: #e45756; stroke: #e45756; stroke-width: 1.5"/>
     <use xlink:href="#mae1bc9f463" x="851.376472" y="416.984941" style="fill: #e45756; stroke: #e45756; stroke-width: 1.5"/>
    </g>
   </g>
   <g id="PathCollection_2">
    <defs>
     <path id="m181e2cf07b" d="M 0 3 
C 0.795609 3 1.55874 2.683901 2.12132 2.12132 
C 2.683901 1.55874 3 0.795609 3 0 
C 3 -0.795609 2.683901 -1.55874 2.12132 -2.12132 
C 1.55874 -2.683901 0.795609 -3 0 -3 
C -0.795609 -3 -1.55874 -2.683901 -2.12132 -2.12132 
C -2.683901 -1.55874 -3 -0.795609 -3 0 
C -3 0.795609 -2.683901 1.55874 -2.12132 2.12132 
C -1.55874 2.683901 -0.795609 3 0 3 
z
" style="stroke: #111111"/>
    </defs>
    <g clip-path="url(#p370f840cb7)">
     <use xlink:href="#m181e2cf07b" x="837.02098" y="395.239059" style="fill: #111111; stroke: #111111"/>
    </g>
   </g>
   <g id="matplotlib.axis_3">
    <g id="xtick_9">
     <g id="line2d_18">
      <g>
       <use xlink:href="#m5e5fcbf652" x="45.674437" y="443.08" style="stroke: #000000; stroke-width: 0.8"/>
      </g>
     </g>
     <g id="text_21">
      <!-- 0 -->
      <g transform="translate(42.524437 459.08) scale(0.1 -0.1)">
       <use xlink:href="#AppleSDGothicNeo-Regular-11"/>
      </g>
     </g>
    </g>
    <g id="xtick_10">
     <g id="line2d_19">
      <g>
       <use xlink:href="#m5e5fcbf652" x="225.118097" y="443.08" style="stroke: #000000; stroke-width: 0.8"/>
      </g>
     </g>
     <g id="text_22">
      <!-- 100 -->
      <g transform="translate(217.032941 459.08) scale(0.1 -0.1)">
       <use xlink:href="#AppleSDGothicNeo-Regular-12"/>
       <use xlink:href="#AppleSDGothicNeo-Regular-11" transform="translate(35.703125 0)"/>
       <use xlink:href="#AppleSDGothicNeo-Regular-11" transform="translate(98.703125 0)"/>
      </g>
     </g>
    </g>
    <g id="xtick_11">
     <g id="line2d_20">
      <g>
       <use xlink:href="#m5e5fcbf652" x="404.561758" y="443.08" style="stroke: #000000; stroke-width: 0.8"/>
      </g>
     </g>
     <g id="text_23">
      <!-- 200 -->
      <g transform="translate(395.621914 459.08) scale(0.1 -0.1)">
       <use xlink:href="#AppleSDGothicNeo-Regular-13"/>
       <use xlink:href="#AppleSDGothicNeo-Regular-11" transform="translate(52.796875 0)"/>
       <use xlink:href="#AppleSDGothicNeo-Regular-11" transform="translate(115.796875 0)"/>
      </g>
     </g>
    </g>
    <g id="xtick_12">
     <g id="line2d_21">
      <g>
       <use xlink:href="#m5e5fcbf652" x="584.005418" y="443.08" style="stroke: #000000; stroke-width: 0.8"/>
      </g>
     </g>
     <g id="text_24">
      <!-- 300 -->
      <g transform="translate(575.025731 459.08) scale(0.1 -0.1)">
       <use xlink:href="#AppleSDGothicNeo-Regular-14"/>
       <use xlink:href="#AppleSDGothicNeo-Regular-11" transform="translate(53.59375 0)"/>
       <use xlink:href="#AppleSDGothicNeo-Regular-11" transform="translate(116.59375 0)"/>
      </g>
     </g>
    </g>
    <g id="xtick_13">
     <g id="line2d_22">
      <g>
       <use xlink:href="#m5e5fcbf652" x="763.449079" y="443.08" style="stroke: #000000; stroke-width: 0.8"/>
      </g>
     </g>
     <g id="text_25">
      <!-- 400 -->
      <g transform="translate(754.374079 459.08) scale(0.1 -0.1)">
       <use xlink:href="#AppleSDGothicNeo-Regular-15"/>
       <use xlink:href="#AppleSDGothicNeo-Regular-11" transform="translate(55.5 0)"/>
       <use xlink:href="#AppleSDGothicNeo-Regular-11" transform="translate(118.5 0)"/>
      </g>
     </g>
    </g>
    <g id="text_26">
     <!-- TEST sample index -->
     <g transform="translate(408.999673 475.08) scale(0.1 -0.1)">
      <use xlink:href="#AppleSDGothicNeo-Regular-35"/>
      <use xlink:href="#AppleSDGothicNeo-Regular-26" transform="translate(54.40625 0)"/>
      <use xlink:href="#AppleSDGothicNeo-Regular-34" transform="translate(109.40625 0)"/>
      <use xlink:href="#AppleSDGothicNeo-Regular-35" transform="translate(159.8125 0)"/>
      <use xlink:href="#AppleSDGothicNeo-Regular-1" transform="translate(214.21875 0)"/>
      <use xlink:href="#AppleSDGothicNeo-Regular-54" transform="translate(240.515625 0)"/>
      <use xlink:href="#AppleSDGothicNeo-Regular-42" transform="translate(282.015625 0)"/>
      <use xlink:href="#AppleSDGothicNeo-Regular-4e" transform="translate(329.21875 0)"/>
      <use xlink:href="#AppleSDGothicNeo-Regular-51" transform="translate(409.515625 0)"/>
      <use xlink:href="#AppleSDGothicNeo-Regular-4d" transform="translate(464.015625 0)"/>
      <use xlink:href="#AppleSDGothicNeo-Regular-46" transform="translate(486.71875 0)"/>
      <use xlink:href="#AppleSDGothicNeo-Regular-1" transform="translate(536.71875 0)"/>
      <use xlink:href="#AppleSDGothicNeo-Regular-4a" transform="translate(563.015625 0)"/>
      <use xlink:href="#AppleSDGothicNeo-Regular-4f" transform="translate(585.71875 0)"/>
      <use xlink:href="#AppleSDGothicNeo-Regular-45" transform="translate(639.3125 0)"/>
      <use xlink:href="#AppleSDGothicNeo-Regular-46" transform="translate(693.8125 0)"/>
      <use xlink:href="#AppleSDGothicNeo-Regular-59" transform="translate(742.8125 0)"/>
     </g>
    </g>
   </g>
   <g id="matplotlib.axis_4"/>
   <g id="patch_10">
    <path d="M 43.88 443.08 
L 43.88 369.144 
" style="fill: none; stroke: #000000; stroke-width: 0.8; stroke-linejoin: miter; stroke-linecap: square"/>
   </g>
   <g id="patch_11">
    <path d="M 853.170909 443.08 
L 853.170909 369.144 
" style="fill: none; stroke: #000000; stroke-width: 0.8; stroke-linejoin: miter; stroke-linecap: square"/>
   </g>
   <g id="patch_12">
    <path d="M 43.88 443.08 
L 853.170909 443.08 
" style="fill: none; stroke: #000000; stroke-width: 0.8; stroke-linejoin: miter; stroke-linecap: square"/>
   </g>
   <g id="patch_13">
    <path d="M 43.88 369.144 
L 853.170909 369.144 
" style="fill: none; stroke: #000000; stroke-width: 0.8; stroke-linejoin: miter; stroke-linecap: square"/>
   </g>
   <g id="legend_2">
    <g id="patch_14">
     <path d="M 734.199659 402.744 
L 847.570909 402.744 
Q 849.170909 402.744 849.170909 401.144 
L 849.170909 374.744 
Q 849.170909 373.144 847.570909 373.144 
L 734.199659 373.144 
Q 732.599659 373.144 732.599659 374.744 
L 732.599659 401.144 
Q 732.599659 402.744 734.199659 402.744 
z
" style="fill: #ffffff; opacity: 0.8; stroke: #cccccc; stroke-linejoin: miter"/>
    </g>
    <g id="PathCollection_3">
     <g>
      <use xlink:href="#mae1bc9f463" x="743.799659" y="381.444" style="fill: #e45756; stroke: #e45756; stroke-width: 1.5"/>
     </g>
    </g>
    <g id="text_27">
     <!-- actual anomaly (post-hoc) -->
     <g transform="translate(758.199659 383.544) scale(0.08 -0.08)">
      <defs>
       <path id="AppleSDGothicNeo-Regular-9" d="M 1472 -384 
L 1914 -384 
C 1344 256 883 1235 883 2221 
L 883 2374 
C 883 3392 1344 4307 1914 4941 
L 1472 4941 
C 883 4339 365 3469 365 2330 
L 365 2227 
C 365 1094 883 218 1472 -384 
z
" transform="scale(0.015625)"/>
       <path id="AppleSDGothicNeo-Regular-a" d="M 115 -384 
L 550 -384 
C 1146 218 1651 1088 1651 2227 
L 1651 2330 
C 1651 3462 1146 4339 550 4941 
L 115 4941 
C 678 4301 1146 3322 1146 2336 
L 1146 2176 
C 1146 1165 678 250 115 -384 
z
" transform="scale(0.015625)"/>
      </defs>
      <use xlink:href="#AppleSDGothicNeo-Regular-42"/>
      <use xlink:href="#AppleSDGothicNeo-Regular-44" transform="translate(47.203125 0)"/>
      <use xlink:href="#AppleSDGothicNeo-Regular-55" transform="translate(93.109375 0)"/>
      <use xlink:href="#AppleSDGothicNeo-Regular-56" transform="translate(128.109375 0)"/>
      <use xlink:href="#AppleSDGothicNeo-Regular-42" transform="translate(181.109375 0)"/>
      <use xlink:href="#AppleSDGothicNeo-Regular-4d" transform="translate(228.3125 0)"/>
      <use xlink:href="#AppleSDGothicNeo-Regular-1" transform="translate(251.015625 0)"/>
      <use xlink:href="#AppleSDGothicNeo-Regular-42" transform="translate(277.3125 0)"/>
      <use xlink:href="#AppleSDGothicNeo-Regular-4f" transform="translate(324.515625 0)"/>
      <use xlink:href="#AppleSDGothicNeo-Regular-50" transform="translate(378.109375 0)"/>
      <use xlink:href="#AppleSDGothicNeo-Regular-4e" transform="translate(431.515625 0)"/>
      <use xlink:href="#AppleSDGothicNeo-Regular-42" transform="translate(511.8125 0)"/>
      <use xlink:href="#AppleSDGothicNeo-Regular-4d" transform="translate(559.015625 0)"/>
      <use xlink:href="#AppleSDGothicNeo-Regular-5a" transform="translate(581.71875 0)"/>
      <use xlink:href="#AppleSDGothicNeo-Regular-1" transform="translate(629.921875 0)"/>
      <use xlink:href="#AppleSDGothicNeo-Regular-9" transform="translate(656.21875 0)"/>
      <use xlink:href="#AppleSDGothicNeo-Regular-51" transform="translate(687.921875 0)"/>
      <use xlink:href="#AppleSDGothicNeo-Regular-50" transform="translate(742.421875 0)"/>
      <use xlink:href="#AppleSDGothicNeo-Regular-54" transform="translate(795.828125 0)"/>
      <use xlink:href="#AppleSDGothicNeo-Regular-55" transform="translate(837.328125 0)"/>
      <use xlink:href="#AppleSDGothicNeo-Regular-e" transform="translate(870.234375 0)"/>
      <use xlink:href="#AppleSDGothicNeo-Regular-49" transform="translate(913.4375 0)"/>
      <use xlink:href="#AppleSDGothicNeo-Regular-50" transform="translate(967.03125 0)"/>
      <use xlink:href="#AppleSDGothicNeo-Regular-44" transform="translate(1020.4375 0)"/>
      <use xlink:href="#AppleSDGothicNeo-Regular-a" transform="translate(1065.4375 0)"/>
     </g>
    </g>
    <g id="PathCollection_4">
     <g>
      <use xlink:href="#m181e2cf07b" x="743.799659" y="395.044" style="fill: #111111; stroke: #111111"/>
     </g>
    </g>
    <g id="text_28">
     <!-- selected case -->
     <g transform="translate(758.199659 397.144) scale(0.08 -0.08)">
      <use xlink:href="#AppleSDGothicNeo-Regular-54"/>
      <use xlink:href="#AppleSDGothicNeo-Regular-46" transform="translate(41.5 0)"/>
      <use xlink:href="#AppleSDGothicNeo-Regular-4d" transform="translate(91.5 0)"/>
      <use xlink:href="#AppleSDGothicNeo-Regular-46" transform="translate(114.203125 0)"/>
      <use xlink:href="#AppleSDGothicNeo-Regular-44" transform="translate(164.203125 0)"/>
      <use xlink:href="#AppleSDGothicNeo-Regular-55" transform="translate(210.109375 0)"/>
      <use xlink:href="#AppleSDGothicNeo-Regular-46" transform="translate(245.109375 0)"/>
      <use xlink:href="#AppleSDGothicNeo-Regular-45" transform="translate(295.109375 0)"/>
      <use xlink:href="#AppleSDGothicNeo-Regular-1" transform="translate(349.609375 0)"/>
      <use xlink:href="#AppleSDGothicNeo-Regular-44" transform="translate(375.90625 0)"/>
      <use xlink:href="#AppleSDGothicNeo-Regular-42" transform="translate(420.90625 0)"/>
      <use xlink:href="#AppleSDGothicNeo-Regular-54" transform="translate(468.109375 0)"/>
      <use xlink:href="#AppleSDGothicNeo-Regular-46" transform="translate(509.609375 0)"/>
     </g>
    </g>
   </g>
  </g>
  <g id="text_29">
   <!-- Actual anomaly labels are shown only for post-hoc evaluation and explanation; they were not used for candidate selection or routing. -->
   <g transform="translate(8.64 501.48) scale(0.08 -0.08)">
    <defs>
     <path id="AppleSDGothicNeo-Regular-43" d="M 1626 198 
C 2650 198 3206 800 3206 1862 
L 3206 1946 
C 3206 3136 2579 3501 1971 3501 
C 1536 3501 1235 3379 992 3232 
L 960 3232 
L 960 4851 
L 467 4851 
L 467 371 
C 749 262 1254 198 1626 198 
z
M 1651 608 
C 1331 608 1107 659 960 723 
L 960 2880 
C 1126 2957 1421 3085 1747 3085 
C 2387 3085 2694 2797 2694 1914 
L 2694 1786 
C 2694 877 2221 608 1651 608 
z
" transform="scale(0.015625)"/>
     <path id="AppleSDGothicNeo-Regular-58" d="M 1082 269 
L 1581 269 
L 2330 2688 
L 2349 2688 
L 3085 269 
L 3578 269 
L 4480 3443 
L 4013 3443 
L 3360 902 
L 3334 902 
L 2566 3443 
L 2144 3443 
L 1382 902 
L 1357 902 
L 704 3443 
L 179 3443 
L 1082 269 
z
" transform="scale(0.015625)"/>
     <path id="AppleSDGothicNeo-Regular-47" d="M 653 269 
L 1146 269 
L 1146 3034 
L 1875 3034 
L 1875 3437 
L 1146 3437 
L 1146 3866 
C 1146 4307 1357 4486 1734 4486 
C 1952 4486 2086 4461 2182 4442 
L 2182 4787 
C 2067 4845 1894 4896 1645 4896 
C 1069 4896 653 4595 653 3898 
L 653 3437 
L 186 3437 
L 186 3034 
L 653 3034 
L 653 269 
z
" transform="scale(0.015625)"/>
     <path id="AppleSDGothicNeo-Regular-1c" d="M 416 -122 
L 774 -122 
L 1222 1094 
L 646 1094 
L 416 -122 
z
M 646 3021 
L 1203 3021 
L 1203 3590 
L 646 3590 
L 646 3021 
z
" transform="scale(0.015625)"/>
     <path id="AppleSDGothicNeo-Regular-48" d="M 1574 -672 
C 2656 -672 3091 -243 3091 301 
C 3091 890 2662 1062 2086 1062 
L 1210 1062 
C 998 1062 896 1126 896 1299 
C 896 1402 960 1478 1043 1555 
C 1210 1498 1389 1466 1587 1466 
C 2253 1466 2778 1805 2778 2483 
L 2778 2490 
C 2778 2739 2694 2931 2547 3072 
L 3117 3072 
L 3117 3450 
L 2042 3450 
C 1901 3482 1754 3501 1594 3501 
C 896 3501 397 3136 397 2477 
L 397 2464 
C 397 2086 550 1830 794 1670 
C 550 1491 435 1344 435 1146 
C 435 934 576 800 755 749 
L 755 717 
C 429 608 154 410 154 70 
C 154 -390 608 -672 1574 -672 
z
M 1562 -288 
C 934 -288 666 -147 666 134 
C 666 403 851 544 1094 627 
L 2010 627 
C 2426 627 2579 531 2579 237 
C 2579 -96 2310 -288 1562 -288 
z
M 1587 1850 
C 1165 1850 883 2054 883 2470 
L 883 2502 
C 883 2899 1152 3130 1587 3130 
C 2016 3130 2285 2931 2285 2496 
L 2285 2464 
C 2285 2054 2029 1850 1587 1850 
z
" transform="scale(0.015625)"/>
    </defs>
    <use xlink:href="#AppleSDGothicNeo-Regular-22"/>
    <use xlink:href="#AppleSDGothicNeo-Regular-44" transform="translate(60.5 0)"/>
    <use xlink:href="#AppleSDGothicNeo-Regular-55" transform="translate(106.40625 0)"/>
    <use xlink:href="#AppleSDGothicNeo-Regular-56" transform="translate(141.40625 0)"/>
    <use xlink:href="#AppleSDGothicNeo-Regular-42" transform="translate(194.40625 0)"/>
    <use xlink:href="#AppleSDGothicNeo-Regular-4d" transform="translate(241.609375 0)"/>
    <use xlink:href="#AppleSDGothicNeo-Regular-1" transform="translate(264.3125 0)"/>
    <use xlink:href="#AppleSDGothicNeo-Regular-42" transform="translate(290.609375 0)"/>
    <use xlink:href="#AppleSDGothicNeo-Regular-4f" transform="translate(337.8125 0)"/>
    <use xlink:href="#AppleSDGothicNeo-Regular-50" transform="translate(391.40625 0)"/>
    <use xlink:href="#AppleSDGothicNeo-Regular-4e" transform="translate(444.8125 0)"/>
    <use xlink:href="#AppleSDGothicNeo-Regular-42" transform="translate(525.109375 0)"/>
    <use xlink:href="#AppleSDGothicNeo-Regular-4d" transform="translate(572.3125 0)"/>
    <use xlink:href="#AppleSDGothicNeo-Regular-5a" transform="translate(595.015625 0)"/>
    <use xlink:href="#AppleSDGothicNeo-Regular-1" transform="translate(643.21875 0)"/>
    <use xlink:href="#AppleSDGothicNeo-Regular-4d" transform="translate(669.515625 0)"/>
    <use xlink:href="#AppleSDGothicNeo-Regular-42" transform="translate(692.21875 0)"/>
    <use xlink:href="#AppleSDGothicNeo-Regular-43" transform="translate(739.421875 0)"/>
    <use xlink:href="#AppleSDGothicNeo-Regular-46" transform="translate(793.921875 0)"/>
    <use xlink:href="#AppleSDGothicNeo-Regular-4d" transform="translate(843.921875 0)"/>
    <use xlink:href="#AppleSDGothicNeo-Regular-54" transform="translate(866.625 0)"/>
    <use xlink:href="#AppleSDGothicNeo-Regular-1" transform="translate(908.125 0)"/>
    <use xlink:href="#AppleSDGothicNeo-Regular-42" transform="translate(934.421875 0)"/>
    <use xlink:href="#AppleSDGothicNeo-Regular-53" transform="translate(981.625 0)"/>
    <use xlink:href="#AppleSDGothicNeo-Regular-46" transform="translate(1016.21875 0)"/>
    <use xlink:href="#AppleSDGothicNeo-Regular-1" transform="translate(1066.21875 0)"/>
    <use xlink:href="#AppleSDGothicNeo-Regular-54" transform="translate(1092.515625 0)"/>
    <use xlink:href="#AppleSDGothicNeo-Regular-49" transform="translate(1134.015625 0)"/>
    <use xlink:href="#AppleSDGothicNeo-Regular-50" transform="translate(1187.609375 0)"/>
    <use xlink:href="#AppleSDGothicNeo-Regular-58" transform="translate(1241.015625 0)"/>
    <use xlink:href="#AppleSDGothicNeo-Regular-4f" transform="translate(1313.8125 0)"/>
    <use xlink:href="#AppleSDGothicNeo-Regular-1" transform="translate(1367.40625 0)"/>
    <use xlink:href="#AppleSDGothicNeo-Regular-50" transform="translate(1393.703125 0)"/>
    <use xlink:href="#AppleSDGothicNeo-Regular-4f" transform="translate(1447.109375 0)"/>
    <use xlink:href="#AppleSDGothicNeo-Regular-4d" transform="translate(1500.703125 0)"/>
    <use xlink:href="#AppleSDGothicNeo-Regular-5a" transform="translate(1523.40625 0)"/>
    <use xlink:href="#AppleSDGothicNeo-Regular-1" transform="translate(1571.609375 0)"/>
    <use xlink:href="#AppleSDGothicNeo-Regular-47" transform="translate(1597.90625 0)"/>
    <use xlink:href="#AppleSDGothicNeo-Regular-50" transform="translate(1630.203125 0)"/>
    <use xlink:href="#AppleSDGothicNeo-Regular-53" transform="translate(1683.609375 0)"/>
    <use xlink:href="#AppleSDGothicNeo-Regular-1" transform="translate(1718.203125 0)"/>
    <use xlink:href="#AppleSDGothicNeo-Regular-51" transform="translate(1744.5 0)"/>
    <use xlink:href="#AppleSDGothicNeo-Regular-50" transform="translate(1799 0)"/>
    <use xlink:href="#AppleSDGothicNeo-Regular-54" transform="translate(1852.40625 0)"/>
    <use xlink:href="#AppleSDGothicNeo-Regular-55" transform="translate(1893.90625 0)"/>
    <use xlink:href="#AppleSDGothicNeo-Regular-e" transform="translate(1926.8125 0)"/>
    <use xlink:href="#AppleSDGothicNeo-Regular-49" transform="translate(1970.015625 0)"/>
    <use xlink:href="#AppleSDGothicNeo-Regular-50" transform="translate(2023.609375 0)"/>
    <use xlink:href="#AppleSDGothicNeo-Regular-44" transform="translate(2077.015625 0)"/>
    <use xlink:href="#AppleSDGothicNeo-Regular-1" transform="translate(2122.015625 0)"/>
    <use xlink:href="#AppleSDGothicNeo-Regular-46" transform="translate(2148.3125 0)"/>
    <use xlink:href="#AppleSDGothicNeo-Regular-57" transform="translate(2197.8125 0)"/>
    <use xlink:href="#AppleSDGothicNeo-Regular-42" transform="translate(2245.515625 0)"/>
    <use xlink:href="#AppleSDGothicNeo-Regular-4d" transform="translate(2292.71875 0)"/>
    <use xlink:href="#AppleSDGothicNeo-Regular-56" transform="translate(2315.421875 0)"/>
    <use xlink:href="#AppleSDGothicNeo-Regular-42" transform="translate(2368.421875 0)"/>
    <use xlink:href="#AppleSDGothicNeo-Regular-55" transform="translate(2415.625 0)"/>
    <use xlink:href="#AppleSDGothicNeo-Regular-4a" transform="translate(2450.625 0)"/>
    <use xlink:href="#AppleSDGothicNeo-Regular-50" transform="translate(2473.328125 0)"/>
    <use xlink:href="#AppleSDGothicNeo-Regular-4f" transform="translate(2526.734375 0)"/>
    <use xlink:href="#AppleSDGothicNeo-Regular-1" transform="translate(2580.328125 0)"/>
    <use xlink:href="#AppleSDGothicNeo-Regular-42" transform="translate(2606.625 0)"/>
    <use xlink:href="#AppleSDGothicNeo-Regular-4f" transform="translate(2653.828125 0)"/>
    <use xlink:href="#AppleSDGothicNeo-Regular-45" transform="translate(2707.421875 0)"/>
    <use xlink:href="#AppleSDGothicNeo-Regular-1" transform="translate(2761.921875 0)"/>
    <use xlink:href="#AppleSDGothicNeo-Regular-46" transform="translate(2788.21875 0)"/>
    <use xlink:href="#AppleSDGothicNeo-Regular-59" transform="translate(2837.21875 0)"/>
    <use xlink:href="#AppleSDGothicNeo-Regular-51" transform="translate(2884.921875 0)"/>
    <use xlink:href="#AppleSDGothicNeo-Regular-4d" transform="translate(2939.421875 0)"/>
    <use xlink:href="#AppleSDGothicNeo-Regular-42" transform="translate(2962.125 0)"/>
    <use xlink:href="#AppleSDGothicNeo-Regular-4f" transform="translate(3009.328125 0)"/>
    <use xlink:href="#AppleSDGothicNeo-Regular-42" transform="translate(3062.921875 0)"/>
    <use xlink:href="#AppleSDGothicNeo-Regular-55" transform="translate(3110.125 0)"/>
    <use xlink:href="#AppleSDGothicNeo-Regular-4a" transform="translate(3145.125 0)"/>
    <use xlink:href="#AppleSDGothicNeo-Regular-50" transform="translate(3167.828125 0)"/>
    <use xlink:href="#AppleSDGothicNeo-Regular-4f" transform="translate(3221.234375 0)"/>
    <use xlink:href="#AppleSDGothicNeo-Regular-1c" transform="translate(3274.828125 0)"/>
    <use xlink:href="#AppleSDGothicNeo-Regular-1" transform="translate(3303.234375 0)"/>
    <use xlink:href="#AppleSDGothicNeo-Regular-55" transform="translate(3329.53125 0)"/>
    <use xlink:href="#AppleSDGothicNeo-Regular-49" transform="translate(3364.53125 0)"/>
    <use xlink:href="#AppleSDGothicNeo-Regular-46" transform="translate(3418.125 0)"/>
    <use xlink:href="#AppleSDGothicNeo-Regular-5a" transform="translate(3468.125 0)"/>
    <use xlink:href="#AppleSDGothicNeo-Regular-1" transform="translate(3516.328125 0)"/>
    <use xlink:href="#AppleSDGothicNeo-Regular-58" transform="translate(3542.625 0)"/>
    <use xlink:href="#AppleSDGothicNeo-Regular-46" transform="translate(3615.421875 0)"/>
    <use xlink:href="#AppleSDGothicNeo-Regular-53" transform="translate(3665.421875 0)"/>
    <use xlink:href="#AppleSDGothicNeo-Regular-46" transform="translate(3700.015625 0)"/>
    <use xlink:href="#AppleSDGothicNeo-Regular-1" transform="translate(3750.015625 0)"/>
    <use xlink:href="#AppleSDGothicNeo-Regular-4f" transform="translate(3776.3125 0)"/>
    <use xlink:href="#AppleSDGothicNeo-Regular-50" transform="translate(3829.90625 0)"/>
    <use xlink:href="#AppleSDGothicNeo-Regular-55" transform="translate(3883.3125 0)"/>
    <use xlink:href="#AppleSDGothicNeo-Regular-1" transform="translate(3918.3125 0)"/>
    <use xlink:href="#AppleSDGothicNeo-Regular-56" transform="translate(3944.609375 0)"/>
    <use xlink:href="#AppleSDGothicNeo-Regular-54" transform="translate(3997.609375 0)"/>
    <use xlink:href="#AppleSDGothicNeo-Regular-46" transform="translate(4039.109375 0)"/>
    <use xlink:href="#AppleSDGothicNeo-Regular-45" transform="translate(4089.109375 0)"/>
    <use xlink:href="#AppleSDGothicNeo-Regular-1" transform="translate(4143.609375 0)"/>
    <use xlink:href="#AppleSDGothicNeo-Regular-47" transform="translate(4169.90625 0)"/>
    <use xlink:href="#AppleSDGothicNeo-Regular-50" transform="translate(4202.203125 0)"/>
    <use xlink:href="#AppleSDGothicNeo-Regular-53" transform="translate(4255.609375 0)"/>
    <use xlink:href="#AppleSDGothicNeo-Regular-1" transform="translate(4290.203125 0)"/>
    <use xlink:href="#AppleSDGothicNeo-Regular-44" transform="translate(4316.5 0)"/>
    <use xlink:href="#AppleSDGothicNeo-Regular-42" transform="translate(4361.5 0)"/>
    <use xlink:href="#AppleSDGothicNeo-Regular-4f" transform="translate(4408.703125 0)"/>
    <use xlink:href="#AppleSDGothicNeo-Regular-45" transform="translate(4462.296875 0)"/>
    <use xlink:href="#AppleSDGothicNeo-Regular-4a" transform="translate(4516.796875 0)"/>
    <use xlink:href="#AppleSDGothicNeo-Regular-45" transform="translate(4539.5 0)"/>
    <use xlink:href="#AppleSDGothicNeo-Regular-42" transform="translate(4594 0)"/>
    <use xlink:href="#AppleSDGothicNeo-Regular-55" transform="translate(4641.203125 0)"/>
    <use xlink:href="#AppleSDGothicNeo-Regular-46" transform="translate(4676.203125 0)"/>
    <use xlink:href="#AppleSDGothicNeo-Regular-1" transform="translate(4726.203125 0)"/>
    <use xlink:href="#AppleSDGothicNeo-Regular-54" transform="translate(4752.5 0)"/>
    <use xlink:href="#AppleSDGothicNeo-Regular-46" transform="translate(4794 0)"/>
    <use xlink:href="#AppleSDGothicNeo-Regular-4d" transform="translate(4844 0)"/>
    <use xlink:href="#AppleSDGothicNeo-Regular-46" transform="translate(4866.703125 0)"/>
    <use xlink:href="#AppleSDGothicNeo-Regular-44" transform="translate(4916.703125 0)"/>
    <use xlink:href="#AppleSDGothicNeo-Regular-55" transform="translate(4962.609375 0)"/>
    <use xlink:href="#AppleSDGothicNeo-Regular-4a" transform="translate(4997.609375 0)"/>
    <use xlink:href="#AppleSDGothicNeo-Regular-50" transform="translate(5020.3125 0)"/>
    <use xlink:href="#AppleSDGothicNeo-Regular-4f" transform="translate(5073.71875 0)"/>
    <use xlink:href="#AppleSDGothicNeo-Regular-1" transform="translate(5127.3125 0)"/>
    <use xlink:href="#AppleSDGothicNeo-Regular-50" transform="translate(5153.609375 0)"/>
    <use xlink:href="#AppleSDGothicNeo-Regular-53" transform="translate(5207.015625 0)"/>
    <use xlink:href="#AppleSDGothicNeo-Regular-1" transform="translate(5241.609375 0)"/>
    <use xlink:href="#AppleSDGothicNeo-Regular-53" transform="translate(5267.90625 0)"/>
    <use xlink:href="#AppleSDGothicNeo-Regular-50" transform="translate(5302.5 0)"/>
    <use xlink:href="#AppleSDGothicNeo-Regular-56" transform="translate(5355.90625 0)"/>
    <use xlink:href="#AppleSDGothicNeo-Regular-55" transform="translate(5408.90625 0)"/>
    <use xlink:href="#AppleSDGothicNeo-Regular-4a" transform="translate(5443.90625 0)"/>
    <use xlink:href="#AppleSDGothicNeo-Regular-4f" transform="translate(5466.609375 0)"/>
    <use xlink:href="#AppleSDGothicNeo-Regular-48" transform="translate(5520.203125 0)"/>
    <use xlink:href="#AppleSDGothicNeo-Regular-f" transform="translate(5570.796875 0)"/>
   </g>
  </g>
 </g>
 <defs>
  <clipPath id="p1ac041a8a1">
   <rect x="43.88" y="27.6" width="809.290909" height="295.744"/>
  </clipPath>
  <clipPath id="p370f840cb7">
   <rect x="43.88" y="369.144" width="809.290909" height="73.936"/>
  </clipPath>
 </defs>
</svg>
