<?xml version="1.0" encoding="utf-8" standalone="no"?>
<!DOCTYPE svg PUBLIC "-//W3C//DTD SVG 1.1//EN"
  "http://www.w3.org/Graphics/SVG/1.1/DTD/svg11.dtd">
<svg xmlns:xlink="http://www.w3.org/1999/xlink" width="864pt" height="504pt" viewBox="0 0 864 504" xmlns="http://www.w3.org/2000/svg" version="1.1">
 <metadata>
  <rdf:RDF xmlns:dc="http://purl.org/dc/elements/1.1/" xmlns:cc="http://creativecommons.org/ns#" xmlns:rdf="http://www.w3.org/1999/02/22-rdf-syntax-ns#">
   <cc:Work>
    <dc:type rdf:resource="http://purl.org/dc/dcmitype/StillImage"/>
    <dc:date>2026-07-13T08:07:59.133920</dc:date>
    <dc:format>image/svg+xml</dc:format>
    <dc:creator>
     <cc:Agent>
      <dc:title>Matplotlib v3.11.0, https://matplotlib.org/</dc:title>
     </cc:Agent>
    </dc:creator>
   </cc:Work>
  </rdf:RDF>
 </metadata>
 <defs>
  <style type="text/css">*{stroke-linejoin: round; stroke-linecap: butt}</style>
 </defs>
 <g id="figure_1">
  <g id="patch_1">
   <path d="M 0 504 
L 864 504 
L 864 0 
L 0 0 
z
" style="fill: #ffffff"/>
  </g>
  <g id="axes_1">
   <g id="patch_2">
    <path d="M 56.255 323.344 
L 841.68 323.344 
L 841.68 27.6 
L 56.255 27.6 
z
" style="fill: #ffffff"/>
   </g>
   <g id="FillBetweenPolyCollection_1">
    <defs>
     <path id="md423f5e6cd" d="M 91.956136 -457.880144 
L 91.956136 -388.806872 
L 96.283547 -421.305326 
L 100.610957 -415.2592 
L 104.938368 -413.451349 
L 109.265778 -407.226791 
L 113.593189 -406.042772 
L 117.920599 -390.939702 
L 122.24801 -392.130408 
L 126.57542 -355.440993 
L 130.902831 -354.184447 
L 135.230241 -353.45173 
L 139.557652 -352.255745 
L 143.885062 -351.959602 
L 148.212472 -351.396972 
L 152.539883 -356.469139 
L 156.867293 -356.384857 
L 161.194704 -357.902202 
L 165.522114 -357.800176 
L 169.849525 -359.223005 
L 174.176935 -359.428763 
L 178.504346 -359.222438 
L 182.831756 -358.356977 
L 187.159167 -357.501211 
L 191.486577 -355.850708 
L 195.813988 -354.544582 
L 200.141398 -351.107149 
L 204.468809 -390.367793 
L 208.796219 -376.794818 
L 213.123629 -375.815048 
L 217.45104 -368.319142 
L 221.77845 -366.107382 
L 226.105861 -364.069122 
L 230.433271 -361.087597 
L 234.760682 -358.319882 
L 239.088092 -357.077545 
L 243.415503 -354.635308 
L 247.742913 -352.769324 
L 252.070324 -349.862082 
L 256.397734 -357.326215 
L 260.725145 -356.146886 
L 265.052555 -355.349392 
L 269.379966 -357.969565 
L 273.707376 -358.656249 
L 278.034787 -356.874302 
L 282.362197 -358.9432 
L 286.689607 -353.195817 
L 291.017018 -356.539298 
L 295.344428 -352.595131 
L 299.671839 -350.914362 
L 303.999249 -352.322987 
L 308.32666 -357.310145 
L 312.65407 -356.522415 
L 316.981481 -357.086696 
L 321.308891 -358.780138 
L 325.636302 -359.50416 
L 329.963712 -356.812111 
L 334.291123 -355.377539 
L 338.618533 -354.467742 
L 342.945944 -353.210743 
L 347.273354 -352.431617 
L 351.600764 -351.358335 
L 355.928175 -353.073041 
L 360.255585 -351.361708 
L 364.582996 -357.023048 
L 368.910406 -357.735595 
L 373.237817 -358.571915 
L 377.565227 -358.973387 
L 381.892638 -358.131305 
L 386.220048 -356.824815 
L 390.547459 -355.851355 
L 394.874869 -354.213183 
L 399.20228 -353.958155 
L 403.52969 -352.209864 
L 407.857101 -360.782998 
L 412.184511 -359.770617 
L 416.511921 -358.956678 
L 420.839332 -358.593221 
L 425.166742 -352.088898 
L 429.494153 -365.795681 
L 433.821563 -360.583351 
L 438.148974 -357.691572 
L 442.476384 -356.016205 
L 446.803795 -356.360239 
L 451.131205 -356.435978 
L 455.458616 -357.239756 
L 459.786026 -359.041441 
L 464.113437 -358.556773 
L 468.440847 -357.597355 
L 472.768258 -356.385599 
L 477.095668 -356.614498 
L 481.423079 -355.513316 
L 485.750489 -351.772846 
L 490.077899 -351.503084 
L 494.40531 -352.539423 
L 498.73272 -351.740091 
L 503.060131 -356.855732 
L 507.387541 -359.470221 
L 511.714952 -357.768434 
L 516.042362 -350.132539 
L 520.369773 -350.994257 
L 524.697183 -351.017588 
L 529.024594 -351.034352 
L 533.352004 -358.051164 
L 537.679415 -359.432937 
L 542.006825 -353.8816 
L 546.334236 -358.471044 
L 550.661646 -359.326065 
L 554.989056 -358.509557 
L 559.316467 -354.826773 
L 563.643877 -351.616288 
L 567.971288 -350.638337 
L 572.298698 -350.730169 
L 576.626109 -358.626738 
L 580.953519 -358.761425 
L 585.28093 -358.523708 
L 589.60834 -356.590572 
L 593.935751 -350.337896 
L 598.263161 -349.5607 
L 602.590572 -356.600736 
L 606.917982 -356.836902 
L 611.245393 -357.482654 
L 615.572803 -355.095481 
L 619.900213 -354.115986 
L 624.227624 -354.75003 
L 628.555034 -353.067715 
L 632.882445 -352.63152 
L 637.209855 -351.744648 
L 641.537266 -352.19023 
L 645.864676 -353.213255 
L 650.192087 -349.969876 
L 654.519497 -351.375497 
L 658.846908 -353.201655 
L 663.174318 -351.399991 
L 667.501729 -349.431975 
L 671.829139 -349.750631 
L 676.15655 -352.672956 
L 680.48396 -352.168287 
L 684.811371 -353.384639 
L 689.138781 -372.293502 
L 693.466191 -374.157282 
L 697.793602 -364.926503 
L 702.121012 -358.55515 
L 706.448423 -367.325393 
L 710.775833 -361.022843 
L 715.103244 -350.849875 
L 719.430654 -358.959091 
L 723.758065 -350.957508 
L 728.085475 -365.727844 
L 732.412886 -360.435366 
L 736.740296 -366.457448 
L 741.067707 -369.689059 
L 745.395117 -360.541431 
L 749.722528 -362.989879 
L 754.049938 -364.788154 
L 758.377348 -376.582659 
L 762.704759 -362.562512 
L 767.032169 -361.951322 
L 771.35958 -370.449596 
L 775.68699 -364.58782 
L 780.014401 -358.937566 
L 784.341811 -363.971137 
L 788.669222 -357.169953 
L 792.996632 -355.794396 
L 797.324043 -351.777195 
L 801.651453 -355.658654 
L 805.978864 -354.534797 
L 805.978864 -366.018753 
L 805.978864 -366.018753 
L 801.651453 -366.335686 
L 797.324043 -366.018751 
L 792.996632 -366.958077 
L 788.669222 -372.584548 
L 784.341811 -391.932709 
L 780.014401 -380.542632 
L 775.68699 -399.166862 
L 771.35958 -404.871353 
L 767.032169 -377.849424 
L 762.704759 -379.228337 
L 758.377348 -410.355599 
L 754.049938 -407.722839 
L 749.722528 -382.312377 
L 745.395117 -381.723893 
L 741.067707 -382.465407 
L 736.740296 -381.414563 
L 732.412886 -381.417984 
L 728.085475 -381.530058 
L 723.758065 -366.018757 
L 719.430654 -373.426549 
L 715.103244 -366.018754 
L 710.775833 -376.879347 
L 706.448423 -384.31561 
L 702.121012 -376.82435 
L 697.793602 -379.782808 
L 693.466191 -393.434953 
L 689.138781 -392.050451 
L 684.811371 -374.955507 
L 680.48396 -370.62554 
L 676.15655 -371.710661 
L 671.829139 -366.018751 
L 667.501729 -366.018751 
L 663.174318 -366.018751 
L 658.846908 -371.073972 
L 654.519497 -366.018754 
L 650.192087 -366.018751 
L 645.864676 -368.123889 
L 641.537266 -366.01875 
L 637.209855 -366.018751 
L 632.882445 -370.346623 
L 628.555034 -366.018751 
L 624.227624 -371.93817 
L 619.900213 -369.373351 
L 615.572803 -371.079977 
L 611.245393 -373.328586 
L 606.917982 -372.288716 
L 602.590572 -374.745716 
L 598.263161 -366.018751 
L 593.935751 -366.018751 
L 589.60834 -372.116283 
L 585.28093 -375.717407 
L 580.953519 -376.335531 
L 576.626109 -378.634836 
L 572.298698 -366.018751 
L 567.971288 -366.018755 
L 563.643877 -366.018751 
L 559.316467 -371.252489 
L 554.989056 -374.658445 
L 550.661646 -378.451869 
L 546.334236 -381.777951 
L 542.006825 -382.034252 
L 537.679415 -379.969725 
L 533.352004 -384.492483 
L 529.024594 -366.018752 
L 524.697183 -366.01876 
L 520.369773 -366.018751 
L 516.042362 -366.018749 
L 511.714952 -371.929891 
L 507.387541 -381.265875 
L 503.060131 -388.793461 
L 498.73272 -366.018754 
L 494.40531 -366.018751 
L 490.077899 -366.018751 
L 485.750489 -366.018751 
L 481.423079 -372.827631 
L 477.095668 -375.103112 
L 472.768258 -377.368609 
L 468.440847 -377.294426 
L 464.113437 -381.015126 
L 459.786026 -384.764531 
L 455.458616 -384.841965 
L 451.131205 -390.989981 
L 446.803795 -393.793579 
L 442.476384 -370.152591 
L 438.148974 -373.488433 
L 433.821563 -377.032319 
L 429.494153 -383.091939 
L 425.166742 -366.018767 
L 420.839332 -372.730509 
L 416.511921 -372.192371 
L 412.184511 -373.315156 
L 407.857101 -376.654142 
L 403.52969 -366.018751 
L 399.20228 -366.089085 
L 394.874869 -367.089537 
L 390.547459 -369.432453 
L 386.220048 -369.842283 
L 381.892638 -371.226758 
L 377.565227 -372.9739 
L 373.237817 -378.451624 
L 368.910406 -381.641054 
L 364.582996 -389.774333 
L 360.255585 -378.999613 
L 355.928175 -366.056324 
L 351.600764 -366.01876 
L 347.273354 -366.018751 
L 342.945944 -366.01875 
L 338.618533 -367.678588 
L 334.291123 -366.895227 
L 329.963712 -370.122219 
L 325.636302 -372.634326 
L 321.308891 -381.816123 
L 316.981481 -386.844378 
L 312.65407 -393.003282 
L 308.32666 -386.716931 
L 303.999249 -366.018767 
L 299.671839 -366.018751 
L 295.344428 -366.018751 
L 291.017018 -371.932 
L 286.689607 -366.01875 
L 282.362197 -367.233585 
L 278.034787 -368.516191 
L 273.707376 -378.244624 
L 269.379966 -386.798007 
L 265.052555 -384.447061 
L 260.725145 -395.405317 
L 256.397734 -389.172476 
L 252.070324 -366.018751 
L 247.742913 -366.01875 
L 243.415503 -368.289492 
L 239.088092 -372.166875 
L 234.760682 -375.597322 
L 230.433271 -379.513441 
L 226.105861 -381.249835 
L 221.77845 -384.048127 
L 217.45104 -387.800379 
L 213.123629 -397.879559 
L 208.796219 -399.419058 
L 204.468809 -405.207256 
L 200.141398 -366.018751 
L 195.813988 -366.566685 
L 191.486577 -378.232854 
L 187.159167 -379.46195 
L 182.831756 -380.671455 
L 178.504346 -381.942997 
L 174.176935 -382.508378 
L 169.849525 -385.68355 
L 165.522114 -389.166308 
L 161.194704 -391.793212 
L 156.867293 -395.733468 
L 152.539883 -397.675664 
L 148.212472 -375.326485 
L 143.885062 -381.949775 
L 139.557652 -388.366283 
L 135.230241 -393.666947 
L 130.902831 -396.196108 
L 126.57542 -399.214145 
L 122.24801 -407.293525 
L 117.920599 -410.876089 
L 113.593189 -419.289522 
L 109.265778 -422.769754 
L 104.938368 -436.998231 
L 100.610957 -442.049031 
L 96.283547 -462.957091 
L 91.956136 -457.880144 
z
" style="stroke: #a7dff3; stroke-opacity: 0.55"/>
    </defs>
    <g clip-path="url(#p5432e44582)">
     <use xlink:href="#md423f5e6cd" x="0" y="504" style="fill: #a7dff3; fill-opacity: 0.55; stroke: #a7dff3; stroke-opacity: 0.55"/>
    </g>
   </g>
   <g id="matplotlib.axis_1">
    <g id="xtick_1">
     <g id="line2d_1">
      <defs>
       <path id="m1cc4d7ebf8" d="M 0 0 
L 0 3.5 
" style="stroke: #000000; stroke-width: 0.8"/>
      </defs>
      <g>
       <use xlink:href="#m1cc4d7ebf8" x="91.956136" y="323.344" style="stroke: #000000; stroke-width: 0.8"/>
      </g>
     </g>
     <g id="text_1">
      <!-- 0 -->
      <g transform="translate(88.806136 339.344) scale(0.1 -0.1)">
       <defs>
        <path id="AppleSDGothicNeo-Regular-11" d="M 2022 192 
C 2893 192 3558 787 3558 2240 
L 3558 2630 
C 3558 4122 2867 4634 2029 4634 
C 1184 4634 448 4122 448 2605 
L 448 2246 
C 448 794 1139 192 2022 192 
z
M 2022 614 
C 1350 614 992 1126 992 2195 
L 992 2669 
C 992 3744 1357 4211 2029 4211 
C 2688 4211 3040 3718 3040 2637 
L 3040 2163 
C 3040 1062 2682 614 2022 614 
z
" transform="scale(0.015625)"/>
       </defs>
       <use xlink:href="#AppleSDGothicNeo-Regular-11"/>
      </g>
     </g>
    </g>
    <g id="xtick_2">
     <g id="line2d_2">
      <g>
       <use xlink:href="#m1cc4d7ebf8" x="200.141398" y="323.344" style="stroke: #000000; stroke-width: 0.8"/>
      </g>
     </g>
     <g id="text_2">
      <!-- 25 -->
      <g transform="translate(194.981242 339.344) scale(0.1 -0.1)">
       <defs>
        <path id="AppleSDGothicNeo-Regular-13" d="M 397 269 
L 3066 269 
L 3066 704 
L 1107 704 
L 1779 1382 
C 2522 2138 2970 2650 2970 3392 
C 2970 4160 2502 4640 1638 4640 
C 1152 4640 717 4422 448 4250 
L 595 3846 
C 845 4019 1190 4198 1555 4198 
C 2163 4198 2438 3917 2438 3347 
C 2438 2733 2029 2266 1421 1632 
L 397 570 
L 397 269 
z
" transform="scale(0.015625)"/>
        <path id="AppleSDGothicNeo-Regular-16" d="M 1395 192 
C 2342 192 2906 838 2906 1606 
C 2906 2509 2374 2918 1510 2918 
C 1331 2918 1069 2874 896 2829 
L 986 4134 
L 2752 4134 
L 2752 4570 
L 576 4570 
L 422 2317 
C 621 2406 1024 2528 1318 2528 
C 1990 2528 2374 2266 2374 1613 
C 2374 1005 1978 621 1299 621 
C 947 621 525 768 288 928 
L 192 518 
C 448 333 896 192 1395 192 
z
" transform="scale(0.015625)"/>
       </defs>
       <use xlink:href="#AppleSDGothicNeo-Regular-13"/>
       <use xlink:href="#AppleSDGothicNeo-Regular-16" transform="translate(53.296875 0)"/>
      </g>
     </g>
    </g>
    <g id="xtick_3">
     <g id="line2d_3">
      <g>
       <use xlink:href="#m1cc4d7ebf8" x="308.32666" y="323.344" style="stroke: #000000; stroke-width: 0.8"/>
      </g>
     </g>
     <g id="text_3">
      <!-- 50 -->
      <g transform="translate(302.681347 339.344) scale(0.1 -0.1)">
       <use xlink:href="#AppleSDGothicNeo-Regular-16"/>
       <use xlink:href="#AppleSDGothicNeo-Regular-11" transform="translate(49.90625 0)"/>
      </g>
     </g>
    </g>
    <g id="xtick_4">
     <g id="line2d_4">
      <g>
       <use xlink:href="#m1cc4d7ebf8" x="416.511921" y="323.344" style="stroke: #000000; stroke-width: 0.8"/>
      </g>
     </g>
     <g id="text_4">
      <!-- 75 -->
      <g transform="translate(411.566609 339.344) scale(0.1 -0.1)">
       <defs>
        <path id="AppleSDGothicNeo-Regular-18" d="M 710 243 
L 1274 243 
L 2957 4218 
L 2957 4544 
L 218 4544 
L 218 4115 
L 2400 4115 
L 710 243 
z
" transform="scale(0.015625)"/>
       </defs>
       <use xlink:href="#AppleSDGothicNeo-Regular-18"/>
       <use xlink:href="#AppleSDGothicNeo-Regular-16" transform="translate(49 0)"/>
      </g>
     </g>
    </g>
    <g id="xtick_5">
     <g id="line2d_5">
      <g>
       <use xlink:href="#m1cc4d7ebf8" x="524.697183" y="323.344" style="stroke: #000000; stroke-width: 0.8"/>
      </g>
     </g>
     <g id="text_5">
      <!-- 100 -->
      <g transform="translate(516.612027 339.344) scale(0.1 -0.1)">
       <defs>
        <path id="AppleSDGothicNeo-Regular-12" d="M 1146 243 
L 1632 243 
L 1632 4634 
L 1363 4634 
L 352 4160 
L 352 3866 
L 1146 4051 
L 1146 243 
z
" transform="scale(0.015625)"/>
       </defs>
       <use xlink:href="#AppleSDGothicNeo-Regular-12"/>
       <use xlink:href="#AppleSDGothicNeo-Regular-11" transform="translate(35.703125 0)"/>
       <use xlink:href="#AppleSDGothicNeo-Regular-11" transform="translate(98.703125 0)"/>
      </g>
     </g>
    </g>
    <g id="xtick_6">
     <g id="line2d_6">
      <g>
       <use xlink:href="#m1cc4d7ebf8" x="632.882445" y="323.344" style="stroke: #000000; stroke-width: 0.8"/>
      </g>
     </g>
     <g id="text_6">
      <!-- 125 -->
      <g transform="translate(625.937132 339.344) scale(0.1 -0.1)">
       <use xlink:href="#AppleSDGothicNeo-Regular-12"/>
       <use xlink:href="#AppleSDGothicNeo-Regular-13" transform="translate(35.703125 0)"/>
       <use xlink:href="#AppleSDGothicNeo-Regular-16" transform="translate(89 0)"/>
      </g>
     </g>
    </g>
    <g id="xtick_7">
     <g id="line2d_7">
      <g>
       <use xlink:href="#m1cc4d7ebf8" x="741.067707" y="323.344" style="stroke: #000000; stroke-width: 0.8"/>
      </g>
     </g>
     <g id="text_7">
      <!-- 150 -->
      <g transform="translate(733.637238 339.344) scale(0.1 -0.1)">
       <use xlink:href="#AppleSDGothicNeo-Regular-12"/>
       <use xlink:href="#AppleSDGothicNeo-Regular-16" transform="translate(35.703125 0)"/>
       <use xlink:href="#AppleSDGothicNeo-Regular-11" transform="translate(85.609375 0)"/>
      </g>
     </g>
    </g>
    <g id="text_8">
     <!-- time index -->
     <g transform="translate(426.877656 355.344) scale(0.1 -0.1)">
      <defs>
       <path id="AppleSDGothicNeo-Regular-55" d="M 1472 230 
C 1747 230 1882 301 2010 358 
L 2010 691 
C 1882 653 1734 634 1600 634 
C 1235 634 1133 755 1133 1062 
L 1133 3034 
L 1946 3034 
L 1946 3437 
L 1133 3437 
L 1133 4192 
L 646 4192 
L 646 3437 
L 192 3437 
L 192 3034 
L 646 3034 
L 646 986 
C 646 448 973 230 1472 230 
z
" transform="scale(0.015625)"/>
       <path id="AppleSDGothicNeo-Regular-4a" d="M 486 269 
L 973 269 
L 973 3437 
L 486 3437 
L 486 269 
z
M 480 4077 
L 979 4077 
L 979 4589 
L 480 4589 
L 480 4077 
z
" transform="scale(0.015625)"/>
       <path id="AppleSDGothicNeo-Regular-4e" d="M 467 269 
L 954 269 
L 954 2848 
C 1210 2970 1491 3078 1760 3078 
C 2182 3078 2336 2918 2336 2534 
L 2336 269 
L 2822 269 
L 2822 2637 
C 2822 2714 2816 2771 2803 2848 
C 3104 2982 3373 3078 3622 3078 
C 4051 3078 4205 2918 4205 2534 
L 4205 269 
L 4685 269 
L 4685 2637 
C 4685 3251 4365 3501 3814 3501 
C 3456 3501 3085 3373 2739 3149 
L 2714 3149 
C 2566 3386 2310 3501 1952 3501 
C 1594 3501 1254 3354 960 3168 
L 934 3168 
L 934 3443 
L 467 3443 
L 467 269 
z
" transform="scale(0.015625)"/>
       <path id="AppleSDGothicNeo-Regular-46" d="M 1773 211 
C 2285 211 2650 371 2842 506 
L 2842 870 
C 2554 736 2272 634 1850 634 
C 1171 634 794 941 768 1734 
L 2931 1734 
L 2931 2010 
C 2931 2995 2522 3501 1651 3501 
C 922 3501 269 3008 269 1901 
L 269 1811 
C 269 819 774 211 1773 211 
z
M 1638 3104 
C 2157 3104 2419 2816 2419 2125 
L 768 2125 
C 819 2874 1242 3104 1638 3104 
z
" transform="scale(0.015625)"/>
       <path id="AppleSDGothicNeo-Regular-1" transform="scale(0.015625)"/>
       <path id="AppleSDGothicNeo-Regular-4f" d="M 467 269 
L 954 269 
L 954 2848 
C 1216 2970 1549 3078 1850 3078 
C 2355 3078 2490 2918 2490 2534 
L 2490 269 
L 2976 269 
L 2976 2637 
C 2976 3251 2675 3501 2054 3501 
C 1664 3501 1254 3360 960 3168 
L 934 3168 
L 934 3443 
L 467 3443 
L 467 269 
z
" transform="scale(0.015625)"/>
       <path id="AppleSDGothicNeo-Regular-45" d="M 1600 211 
C 2029 211 2336 346 2528 531 
L 2554 531 
L 2611 269 
L 3021 269 
L 3021 4851 
L 2528 4851 
L 2528 3290 
C 2355 3392 2086 3501 1696 3501 
C 877 3501 282 3002 282 1850 
L 282 1766 
C 282 595 966 211 1600 211 
z
M 1747 614 
C 1178 614 794 896 794 1786 
L 794 1914 
C 794 2771 1158 3085 1760 3085 
C 2086 3085 2381 2995 2528 2880 
L 2528 883 
C 2368 755 2118 614 1747 614 
z
" transform="scale(0.015625)"/>
       <path id="AppleSDGothicNeo-Regular-59" d="M 147 269 
L 685 269 
L 1510 1536 
L 2317 269 
L 2899 269 
L 1837 1882 
L 2822 3443 
L 2291 3443 
L 1568 2234 
L 774 3443 
L 198 3443 
L 1229 1882 
L 147 269 
z
" transform="scale(0.015625)"/>
      </defs>
      <use xlink:href="#AppleSDGothicNeo-Regular-55"/>
      <use xlink:href="#AppleSDGothicNeo-Regular-4a" transform="translate(35 0)"/>
      <use xlink:href="#AppleSDGothicNeo-Regular-4e" transform="translate(57.703125 0)"/>
      <use xlink:href="#AppleSDGothicNeo-Regular-46" transform="translate(138 0)"/>
      <use xlink:href="#AppleSDGothicNeo-Regular-1" transform="translate(188 0)"/>
      <use xlink:href="#AppleSDGothicNeo-Regular-4a" transform="translate(214.296875 0)"/>
      <use xlink:href="#AppleSDGothicNeo-Regular-4f" transform="translate(237 0)"/>
      <use xlink:href="#AppleSDGothicNeo-Regular-45" transform="translate(290.59375 0)"/>
      <use xlink:href="#AppleSDGothicNeo-Regular-46" transform="translate(345.09375 0)"/>
      <use xlink:href="#AppleSDGothicNeo-Regular-59" transform="translate(394.09375 0)"/>
     </g>
    </g>
   </g>
   <g id="matplotlib.axis_2">
    <g id="ytick_1">
     <g id="line2d_8">
      <defs>
       <path id="m26e149f62b" d="M 0 0 
L -3.5 0 
" style="stroke: #000000; stroke-width: 0.8"/>
      </defs>
      <g>
       <use xlink:href="#m26e149f62b" x="56.255" y="296.242983" style="stroke: #000000; stroke-width: 0.8"/>
      </g>
     </g>
     <g id="text_9">
      <!-- -10.0 -->
      <g transform="translate(27.084688 300.742983) scale(0.1 -0.1)">
       <defs>
        <path id="AppleSDGothicNeo-Regular-e" d="M 333 2138 
L 2445 2138 
L 2445 2560 
L 333 2560 
L 333 2138 
z
" transform="scale(0.015625)"/>
        <path id="AppleSDGothicNeo-Regular-f" d="M 269 109 
L 826 109 
L 826 678 
L 269 678 
L 269 109 
z
" transform="scale(0.015625)"/>
       </defs>
       <use xlink:href="#AppleSDGothicNeo-Regular-e"/>
       <use xlink:href="#AppleSDGothicNeo-Regular-12" transform="translate(37.40625 0)"/>
       <use xlink:href="#AppleSDGothicNeo-Regular-11" transform="translate(73.109375 0)"/>
       <use xlink:href="#AppleSDGothicNeo-Regular-f" transform="translate(136.109375 0)"/>
       <use xlink:href="#AppleSDGothicNeo-Regular-11" transform="translate(158.703125 0)"/>
      </g>
     </g>
    </g>
    <g id="ytick_2">
     <g id="line2d_9">
      <g>
       <use xlink:href="#m26e149f62b" x="56.255" y="255.780276" style="stroke: #000000; stroke-width: 0.8"/>
      </g>
     </g>
     <g id="text_10">
      <!-- -7.5 -->
      <g transform="translate(33.414375 260.280276) scale(0.1 -0.1)">
       <use xlink:href="#AppleSDGothicNeo-Regular-e"/>
       <use xlink:href="#AppleSDGothicNeo-Regular-18" transform="translate(36.90625 0)"/>
       <use xlink:href="#AppleSDGothicNeo-Regular-f" transform="translate(85.90625 0)"/>
       <use xlink:href="#AppleSDGothicNeo-Regular-16" transform="translate(108.5 0)"/>
      </g>
     </g>
    </g>
    <g id="ytick_3">
     <g id="line2d_10">
      <g>
       <use xlink:href="#m26e149f62b" x="56.255" y="215.317569" style="stroke: #000000; stroke-width: 0.8"/>
      </g>
     </g>
     <g id="text_11">
      <!-- -5.0 -->
      <g transform="translate(31.514375 219.817569) scale(0.1 -0.1)">
       <use xlink:href="#AppleSDGothicNeo-Regular-e"/>
       <use xlink:href="#AppleSDGothicNeo-Regular-16" transform="translate(41.90625 0)"/>
       <use xlink:href="#AppleSDGothicNeo-Regular-f" transform="translate(91.8125 0)"/>
       <use xlink:href="#AppleSDGothicNeo-Regular-11" transform="translate(114.40625 0)"/>
      </g>
     </g>
    </g>
    <g id="ytick_4">
     <g id="line2d_11">
      <g>
       <use xlink:href="#m26e149f62b" x="56.255" y="174.854862" style="stroke: #000000; stroke-width: 0.8"/>
      </g>
     </g>
     <g id="text_12">
      <!-- -2.5 -->
      <g transform="translate(32.664375 179.354862) scale(0.1 -0.1)">
       <use xlink:href="#AppleSDGothicNeo-Regular-e"/>
       <use xlink:href="#AppleSDGothicNeo-Regular-13" transform="translate(40.109375 0)"/>
       <use xlink:href="#AppleSDGothicNeo-Regular-f" transform="translate(93.40625 0)"/>
       <use xlink:href="#AppleSDGothicNeo-Regular-16" transform="translate(116 0)"/>
      </g>
     </g>
    </g>
    <g id="ytick_5">
     <g id="line2d_12">
      <g>
       <use xlink:href="#m26e149f62b" x="56.255" y="134.392155" style="stroke: #000000; stroke-width: 0.8"/>
      </g>
     </g>
     <g id="text_13">
      <!-- 0.0 -->
      <g transform="translate(34.395625 138.892155) scale(0.1 -0.1)">
       <use xlink:href="#AppleSDGothicNeo-Regular-11"/>
       <use xlink:href="#AppleSDGothicNeo-Regular-f" transform="translate(63 0)"/>
       <use xlink:href="#AppleSDGothicNeo-Regular-11" transform="translate(85.59375 0)"/>
      </g>
     </g>
    </g>
    <g id="ytick_6">
     <g id="line2d_13">
      <g>
       <use xlink:href="#m26e149f62b" x="56.255" y="93.929448" style="stroke: #000000; stroke-width: 0.8"/>
      </g>
     </g>
     <g id="text_14">
      <!-- 2.5 -->
      <g transform="translate(36.675313 98.429448) scale(0.1 -0.1)">
       <use xlink:href="#AppleSDGothicNeo-Regular-13"/>
       <use xlink:href="#AppleSDGothicNeo-Regular-f" transform="translate(53.296875 0)"/>
       <use xlink:href="#AppleSDGothicNeo-Regular-16" transform="translate(75.890625 0)"/>
      </g>
     </g>
    </g>
    <g id="ytick_7">
     <g id="line2d_14">
      <g>
       <use xlink:href="#m26e149f62b" x="56.255" y="53.466742" style="stroke: #000000; stroke-width: 0.8"/>
      </g>
     </g>
     <g id="text_15">
      <!-- 5.0 -->
      <g transform="translate(35.705 57.966742) scale(0.1 -0.1)">
       <use xlink:href="#AppleSDGothicNeo-Regular-16"/>
       <use xlink:href="#AppleSDGothicNeo-Regular-f" transform="translate(49.90625 0)"/>
       <use xlink:href="#AppleSDGothicNeo-Regular-11" transform="translate(72.5 0)"/>
      </g>
     </g>
    </g>
    <g id="text_16">
     <!-- value -->
     <g transform="translate(20.084688 186.502469) rotate(-90) scale(0.1 -0.1)">
      <defs>
       <path id="AppleSDGothicNeo-Regular-57" d="M 1331 269 
L 1818 269 
L 2995 3443 
L 2515 3443 
L 1600 890 
L 1574 890 
L 685 3443 
L 154 3443 
L 1331 269 
z
" transform="scale(0.015625)"/>
       <path id="AppleSDGothicNeo-Regular-42" d="M 1242 211 
C 1670 211 1939 365 2086 544 
L 2118 544 
L 2170 269 
L 2566 269 
L 2566 2566 
C 2566 3213 2176 3501 1478 3501 
C 1114 3501 806 3443 531 3328 
L 531 2976 
C 730 3034 979 3078 1286 3078 
C 1856 3078 2074 2950 2074 2458 
L 2074 2125 
L 1216 2022 
C 608 1952 250 1658 250 1101 
C 250 506 666 211 1242 211 
z
M 1363 595 
C 998 595 762 768 762 1114 
C 762 1478 954 1638 1344 1677 
L 2074 1760 
L 2074 826 
C 1939 691 1658 595 1363 595 
z
" transform="scale(0.015625)"/>
       <path id="AppleSDGothicNeo-Regular-4d" d="M 480 269 
L 973 269 
L 973 4851 
L 480 4851 
L 480 269 
z
" transform="scale(0.015625)"/>
       <path id="AppleSDGothicNeo-Regular-56" d="M 1421 211 
C 1805 211 2144 358 2432 557 
L 2458 557 
L 2502 269 
L 2925 269 
L 2925 3443 
L 2438 3443 
L 2438 883 
C 2176 755 1894 634 1555 634 
C 1088 634 941 800 941 1210 
L 941 3443 
L 448 3443 
L 448 1139 
C 448 525 800 211 1421 211 
z
" transform="scale(0.015625)"/>
      </defs>
      <use xlink:href="#AppleSDGothicNeo-Regular-57"/>
      <use xlink:href="#AppleSDGothicNeo-Regular-42" transform="translate(47.703125 0)"/>
      <use xlink:href="#AppleSDGothicNeo-Regular-4d" transform="translate(94.90625 0)"/>
      <use xlink:href="#AppleSDGothicNeo-Regular-56" transform="translate(117.609375 0)"/>
      <use xlink:href="#AppleSDGothicNeo-Regular-46" transform="translate(170.609375 0)"/>
     </g>
    </g>
   </g>
   <g id="line2d_15">
    <path d="M 91.956136 80.821045 
L 96.283547 70.158233 
L 100.610957 76.755546 
L 104.938368 79.590582 
L 109.265778 87.700013 
L 113.593189 89.617629 
L 117.920599 97.666195 
L 122.24801 102.976466 
L 126.57542 115.915755 
L 130.902831 119.423083 
L 135.230241 123.320632 
L 139.557652 134.250513 
L 143.885062 142.698227 
L 148.212472 144.592093 
L 152.539883 116.558525 
L 156.867293 118.258368 
L 161.194704 121.607034 
L 165.522114 124.32115 
L 169.849525 127.812644 
L 178.504346 133.195517 
L 182.831756 135.05951 
L 187.159167 137.502176 
L 191.486577 139.630517 
L 195.813988 144.381133 
L 200.141398 145.384182 
L 204.468809 103.771044 
L 208.796219 109.640617 
L 213.123629 111.679686 
L 217.45104 121.714453 
L 221.77845 127.131195 
L 226.105861 131.758716 
L 234.760682 138.575536 
L 239.088092 141.230677 
L 243.415503 143.741894 
L 247.742913 145.736814 
L 252.070324 148.083637 
L 256.397734 125.117814 
L 260.725145 118.480189 
L 265.052555 127.853795 
L 269.379966 126.722019 
L 273.707376 136.774654 
L 278.034787 143.019647 
L 282.362197 142.277707 
L 286.689607 145.567604 
L 291.017018 141.849873 
L 295.344428 145.100149 
L 299.671839 147.281117 
L 303.999249 145.870973 
L 308.32666 132.67603 
L 312.65407 120.295378 
L 316.981481 126.142703 
L 321.308891 130.268084 
L 325.636302 138.505142 
L 329.963712 142.073949 
L 334.291123 144.94078 
L 338.618533 144.32769 
L 342.945944 145.226909 
L 347.273354 145.567815 
L 351.600764 146.996818 
L 355.928175 145.088602 
L 360.255585 138.584546 
L 364.582996 124.33785 
L 368.910406 130.090453 
L 373.237817 133.108058 
L 381.892638 140.630696 
L 386.220048 142.652397 
L 390.547459 143.047983 
L 394.874869 144.732759 
L 399.20228 144.57169 
L 403.52969 147.421393 
L 407.857101 134.832964 
L 412.184511 136.239548 
L 416.511921 137.361718 
L 420.839332 139.394646 
L 425.166742 146.099612 
L 429.494153 128.66665 
L 433.821563 136.03125 
L 438.148974 139.648615 
L 442.476384 142.598489 
L 446.803795 120.06485 
L 451.131205 122.40479 
L 455.458616 127.872329 
L 459.786026 127.885945 
L 464.113437 132.538784 
L 468.440847 135.886944 
L 472.768258 138.383035 
L 477.095668 139.928155 
L 481.423079 141.648987 
L 485.750489 145.000141 
L 490.077899 145.964557 
L 494.40531 145.188183 
L 498.73272 146.784193 
L 503.060131 124.502529 
L 507.387541 130.905483 
L 511.714952 137.546829 
L 516.042362 148.067665 
L 520.369773 146.712658 
L 524.697183 146.514235 
L 529.024594 147.323338 
L 533.352004 128.073172 
L 537.679415 133.802151 
L 542.006825 136.306901 
L 546.334236 130.286014 
L 550.661646 135.170408 
L 554.989056 136.039948 
L 559.316467 142.691232 
L 563.643877 147.868675 
L 567.971288 147.580387 
L 572.298698 148.181708 
L 576.626109 134.318833 
L 580.953519 135.462978 
L 585.28093 135.871344 
L 589.60834 139.195524 
L 593.935751 148.456891 
L 598.263161 148.779214 
L 602.590572 138.818404 
L 606.917982 139.570372 
L 611.245393 137.585259 
L 615.572803 141.915878 
L 619.900213 144.454908 
L 624.227624 141.662664 
L 628.555034 145.89107 
L 632.882445 144.450405 
L 637.209855 146.390234 
L 641.537266 146.397843 
L 645.864676 145.01164 
L 650.192087 147.915859 
L 654.519497 146.312569 
L 658.846908 143.169999 
L 663.174318 146.671486 
L 667.501729 149.368906 
L 671.829139 148.353307 
L 676.15655 143.33423 
L 680.48396 143.462029 
L 684.811371 140.915514 
L 689.138781 118.995579 
L 693.466191 115.890288 
L 697.793602 133.3831 
L 702.121012 138.666212 
L 706.448423 126.29825 
L 715.103244 147.479847 
L 719.430654 139.923206 
L 723.758065 147.121186 
L 728.085475 130.769267 
L 732.412886 136.343679 
L 736.740296 130.528604 
L 741.067707 128.820129 
L 745.395117 136.124805 
L 749.722528 134.9736 
L 754.049938 123.316602 
L 758.377348 100.528756 
L 762.704759 135.781672 
L 767.032169 136.635936 
L 771.35958 111.147214 
L 775.68699 126.75635 
L 780.014401 135.536819 
L 784.341811 130.860712 
L 788.669222 139.724092 
L 792.996632 142.593894 
L 797.324043 147.112504 
L 801.651453 143.068475 
L 805.978864 144.193121 
L 805.978864 144.193121 
" clip-path="url(#p5432e44582)" style="fill: none; stroke: #2378a8; stroke-width: 1.2; stroke-linecap: square"/>
   </g>
   <g id="line2d_16">
    <path d="M 91.956136 309.901091 
L 96.283547 218.652126 
L 100.610957 187.215977 
L 104.938368 149.798515 
L 109.265778 146.501134 
L 113.593189 154.250947 
L 117.920599 133.183681 
L 122.24801 152.186742 
L 126.57542 127.511245 
L 130.902831 128.02709 
L 135.230241 132.043613 
L 139.557652 132.271009 
L 148.212472 132.298821 
L 152.539883 127.539915 
L 156.867293 128.145697 
L 161.194704 128.931378 
L 165.522114 130.607292 
L 169.849525 132.103283 
L 174.176935 132.37919 
L 182.831756 132.298394 
L 200.141398 132.298821 
L 204.468809 150.707031 
L 208.796219 129.254203 
L 213.123629 130.985717 
L 217.45104 129.874803 
L 221.77845 132.272894 
L 243.415503 132.298822 
L 252.070324 132.298822 
L 256.397734 131.975367 
L 260.725145 128.25553 
L 265.052555 130.557713 
L 269.379966 131.525336 
L 273.707376 132.351075 
L 286.689607 132.298822 
L 308.32666 132.29869 
L 312.65407 128.748757 
L 316.981481 131.132087 
L 321.308891 132.291334 
L 360.255585 132.298822 
L 364.582996 130.313374 
L 368.910406 132.219257 
L 373.237817 132.345942 
L 386.220048 132.298858 
L 442.476384 132.298823 
L 446.803795 128.547666 
L 451.131205 129.690318 
L 455.458616 131.789204 
L 459.786026 131.915198 
L 464.113437 132.297482 
L 498.73272 132.298823 
L 503.060131 130.701014 
L 507.387541 132.19808 
L 516.042362 132.298827 
L 529.024594 132.298821 
L 533.352004 132.045756 
L 537.679415 132.309782 
L 684.811371 132.309774 
L 689.138781 128.564745 
L 693.466191 132.79046 
L 697.793602 132.296775 
L 702.121012 132.29879 
L 706.448423 131.141169 
L 710.775833 132.299051 
L 732.412886 132.33608 
L 736.740296 132.001623 
L 741.067707 131.113462 
L 745.395117 132.328762 
L 754.049938 132.425635 
L 758.377348 128.277938 
L 762.704759 132.2982 
L 767.032169 132.298147 
L 771.35958 130.694579 
L 775.68699 132.320537 
L 801.651453 132.298822 
L 805.978864 132.298821 
L 805.978864 132.298821 
" clip-path="url(#p5432e44582)" style="fill: none; stroke: #e45756; stroke-width: 1.1; stroke-linecap: square"/>
   </g>
   <g id="patch_3">
    <path d="M 56.255 323.344 
L 56.255 27.6 
" style="fill: none; stroke: #000000; stroke-width: 0.8; stroke-linejoin: miter; stroke-linecap: square"/>
   </g>
   <g id="patch_4">
    <path d="M 841.68 323.344 
L 841.68 27.6 
" style="fill: none; stroke: #000000; stroke-width: 0.8; stroke-linejoin: miter; stroke-linecap: square"/>
   </g>
   <g id="patch_5">
    <path d="M 56.255 323.344 
L 841.68 323.344 
" style="fill: none; stroke: #000000; stroke-width: 0.8; stroke-linejoin: miter; stroke-linecap: square"/>
   </g>
   <g id="patch_6">
    <path d="M 56.255 27.6 
L 841.68 27.6 
" style="fill: none; stroke: #000000; stroke-width: 0.8; stroke-linejoin: miter; stroke-linecap: square"/>
   </g>
   <g id="text_17">
    <!-- primary score=-1.75967, threshold=0.701079 -->
    <g transform="translate(64.10925 317.98656) scale(0.08 -0.08)">
     <defs>
      <path id="AppleSDGothicNeo-Regular-51" d="M 467 -678 
L 960 -678 
L 960 422 
C 1139 320 1408 211 1773 211 
C 2650 211 3206 698 3206 1856 
L 3206 1939 
C 3206 3117 2605 3501 1907 3501 
C 1498 3501 1165 3360 966 3181 
L 941 3181 
L 941 3437 
L 467 3437 
L 467 -678 
z
M 1728 614 
C 1395 614 1107 717 960 838 
L 960 2854 
C 1107 2957 1408 3085 1779 3085 
C 2362 3085 2694 2810 2694 1914 
L 2694 1786 
C 2694 934 2330 614 1728 614 
z
" transform="scale(0.015625)"/>
      <path id="AppleSDGothicNeo-Regular-53" d="M 467 269 
L 960 269 
L 960 2765 
C 1184 2925 1491 3040 1811 3040 
C 1862 3040 1958 3034 2042 3021 
L 2042 3462 
C 2010 3469 1920 3475 1850 3475 
C 1491 3475 1146 3290 966 3085 
L 934 3085 
L 934 3443 
L 467 3443 
L 467 269 
z
" transform="scale(0.015625)"/>
      <path id="AppleSDGothicNeo-Regular-5a" d="M 710 -685 
C 1235 -685 1498 -493 1709 70 
L 2957 3443 
L 2464 3443 
L 1606 1030 
L 1594 1030 
L 659 3443 
L 134 3443 
L 1350 384 
L 1254 122 
C 1120 -224 928 -275 621 -275 
C 506 -275 390 -243 314 -230 
L 314 -595 
C 403 -640 563 -685 710 -685 
z
" transform="scale(0.015625)"/>
      <path id="AppleSDGothicNeo-Regular-54" d="M 1274 218 
C 1971 218 2394 550 2394 1152 
C 2394 1702 2144 1907 1536 2067 
L 1216 2157 
C 877 2253 742 2368 742 2643 
C 742 2938 954 3085 1382 3085 
C 1734 3085 2054 3002 2221 2918 
L 2221 3315 
C 2054 3405 1779 3501 1357 3501 
C 627 3501 275 3136 275 2598 
C 275 2061 589 1850 1050 1722 
L 1363 1638 
C 1766 1523 1914 1395 1914 1101 
C 1914 813 1709 634 1203 634 
C 755 634 525 730 250 832 
L 250 442 
C 512 294 858 218 1274 218 
z
" transform="scale(0.015625)"/>
      <path id="AppleSDGothicNeo-Regular-44" d="M 1734 211 
C 2176 211 2458 339 2662 461 
L 2662 858 
C 2502 768 2221 634 1792 634 
C 1114 634 774 998 774 1811 
L 774 1965 
C 774 2694 1152 3085 1728 3085 
C 2144 3085 2349 3008 2630 2880 
L 2630 3290 
C 2419 3424 2170 3501 1754 3501 
C 934 3501 269 3014 269 1888 
L 269 1792 
C 269 749 826 211 1734 211 
z
" transform="scale(0.015625)"/>
      <path id="AppleSDGothicNeo-Regular-50" d="M 1702 211 
C 2560 211 3149 813 3149 1824 
L 3149 1914 
C 3149 2918 2605 3501 1709 3501 
C 851 3501 269 2899 269 1894 
L 269 1798 
C 269 787 806 211 1702 211 
z
M 1715 614 
C 1184 614 768 902 768 1786 
L 768 1946 
C 768 2688 1126 3098 1702 3098 
C 2221 3098 2650 2810 2650 1926 
L 2650 1766 
C 2650 1018 2291 614 1715 614 
z
" transform="scale(0.015625)"/>
      <path id="AppleSDGothicNeo-Regular-1e" d="M 422 2816 
L 2970 2816 
L 2970 3226 
L 422 3226 
L 422 2816 
z
M 422 1542 
L 2970 1542 
L 2970 1952 
L 422 1952 
L 422 1542 
z
" transform="scale(0.015625)"/>
      <path id="AppleSDGothicNeo-Regular-1a" d="M 1696 4634 
C 826 4634 307 3949 307 3142 
C 307 2323 896 1798 1619 1798 
C 2093 1798 2445 2010 2675 2272 
C 2630 1069 2227 621 1523 621 
C 1178 621 832 723 646 832 
L 506 461 
C 704 326 1107 192 1549 192 
C 2586 192 3187 979 3187 2477 
L 3187 2758 
C 3187 3974 2656 4634 1696 4634 
z
M 1702 4211 
C 2387 4211 2675 3686 2675 2886 
L 2675 2765 
C 2496 2515 2131 2227 1722 2227 
C 1203 2227 813 2515 813 3187 
C 813 3782 1146 4211 1702 4211 
z
" transform="scale(0.015625)"/>
      <path id="AppleSDGothicNeo-Regular-17" d="M 1837 192 
C 2707 192 3232 826 3232 1645 
C 3232 2464 2656 2957 1939 2957 
C 1459 2957 1107 2733 877 2496 
C 941 3834 1350 4205 2080 4205 
C 2355 4205 2733 4096 2886 4006 
L 3034 4378 
C 2854 4486 2458 4634 2029 4634 
C 1037 4634 365 3968 365 2451 
L 365 2118 
C 365 896 877 192 1837 192 
z
M 1830 614 
C 1146 614 877 1139 877 1939 
L 877 1984 
C 1056 2240 1427 2528 1837 2528 
C 2355 2528 2720 2266 2720 1594 
C 2720 979 2387 614 1830 614 
z
" transform="scale(0.015625)"/>
      <path id="AppleSDGothicNeo-Regular-d" d="M 122 -563 
L 467 -563 
L 941 685 
L 358 685 
L 122 -563 
z
" transform="scale(0.015625)"/>
      <path id="AppleSDGothicNeo-Regular-49" d="M 467 269 
L 954 269 
L 954 2842 
C 1216 2970 1549 3078 1850 3078 
C 2355 3078 2490 2918 2490 2534 
L 2490 269 
L 2976 269 
L 2976 2630 
C 2976 3245 2675 3501 2054 3501 
C 1664 3501 1261 3366 986 3168 
L 954 3168 
L 954 4851 
L 467 4851 
L 467 269 
z
" transform="scale(0.015625)"/>
     </defs>
     <use xlink:href="#AppleSDGothicNeo-Regular-51"/>
     <use xlink:href="#AppleSDGothicNeo-Regular-53" transform="translate(54.5 0)"/>
     <use xlink:href="#AppleSDGothicNeo-Regular-4a" transform="translate(89.09375 0)"/>
     <use xlink:href="#AppleSDGothicNeo-Regular-4e" transform="translate(111.796875 0)"/>
     <use xlink:href="#AppleSDGothicNeo-Regular-42" transform="translate(192.09375 0)"/>
     <use xlink:href="#AppleSDGothicNeo-Regular-53" transform="translate(239.296875 0)"/>
     <use xlink:href="#AppleSDGothicNeo-Regular-5a" transform="translate(273.890625 0)"/>
     <use xlink:href="#AppleSDGothicNeo-Regular-1" transform="translate(322.09375 0)"/>
     <use xlink:href="#AppleSDGothicNeo-Regular-54" transform="translate(348.390625 0)"/>
     <use xlink:href="#AppleSDGothicNeo-Regular-44" transform="translate(389.890625 0)"/>
     <use xlink:href="#AppleSDGothicNeo-Regular-50" transform="translate(434.890625 0)"/>
     <use xlink:href="#AppleSDGothicNeo-Regular-53" transform="translate(488.296875 0)"/>
     <use xlink:href="#AppleSDGothicNeo-Regular-46" transform="translate(522.890625 0)"/>
     <use xlink:href="#AppleSDGothicNeo-Regular-1e" transform="translate(572.890625 0)"/>
     <use xlink:href="#AppleSDGothicNeo-Regular-e" transform="translate(625.1875 0)"/>
     <use xlink:href="#AppleSDGothicNeo-Regular-12" transform="translate(662.59375 0)"/>
     <use xlink:href="#AppleSDGothicNeo-Regular-f" transform="translate(698.296875 0)"/>
     <use xlink:href="#AppleSDGothicNeo-Regular-18" transform="translate(720.890625 0)"/>
     <use xlink:href="#AppleSDGothicNeo-Regular-16" transform="translate(769.890625 0)"/>
     <use xlink:href="#AppleSDGothicNeo-Regular-1a" transform="translate(818.203125 0)"/>
     <use xlink:href="#AppleSDGothicNeo-Regular-17" transform="translate(873.609375 0)"/>
     <use xlink:href="#AppleSDGothicNeo-Regular-18" transform="translate(927.515625 0)"/>
     <use xlink:href="#AppleSDGothicNeo-Regular-d" transform="translate(966.515625 0)"/>
     <use xlink:href="#AppleSDGothicNeo-Regular-1" transform="translate(989.109375 0)"/>
     <use xlink:href="#AppleSDGothicNeo-Regular-55" transform="translate(1015.40625 0)"/>
     <use xlink:href="#AppleSDGothicNeo-Regular-49" transform="translate(1050.40625 0)"/>
     <use xlink:href="#AppleSDGothicNeo-Regular-53" transform="translate(1104 0)"/>
     <use xlink:href="#AppleSDGothicNeo-Regular-46" transform="translate(1138.59375 0)"/>
     <use xlink:href="#AppleSDGothicNeo-Regular-54" transform="translate(1188.59375 0)"/>
     <use xlink:href="#AppleSDGothicNeo-Regular-49" transform="translate(1230.09375 0)"/>
     <use xlink:href="#AppleSDGothicNeo-Regular-50" transform="translate(1283.6875 0)"/>
     <use xlink:href="#AppleSDGothicNeo-Regular-4d" transform="translate(1337.09375 0)"/>
     <use xlink:href="#AppleSDGothicNeo-Regular-45" transform="translate(1359.796875 0)"/>
     <use xlink:href="#AppleSDGothicNeo-Regular-1e" transform="translate(1414.296875 0)"/>
     <use xlink:href="#AppleSDGothicNeo-Regular-11" transform="translate(1466.59375 0)"/>
     <use xlink:href="#AppleSDGothicNeo-Regular-f" transform="translate(1529.59375 0)"/>
     <use xlink:href="#AppleSDGothicNeo-Regular-18" transform="translate(1552.1875 0)"/>
     <use xlink:href="#AppleSDGothicNeo-Regular-11" transform="translate(1600.09375 0)"/>
     <use xlink:href="#AppleSDGothicNeo-Regular-12" transform="translate(1662.09375 0)"/>
     <use xlink:href="#AppleSDGothicNeo-Regular-11" transform="translate(1697.796875 0)"/>
     <use xlink:href="#AppleSDGothicNeo-Regular-18" transform="translate(1757.59375 0)"/>
     <use xlink:href="#AppleSDGothicNeo-Regular-1a" transform="translate(1806.59375 0)"/>
    </g>
   </g>
   <g id="text_18">
    <!-- 06_기존_후보에서_일반_검토로_이동한_FP_3 | ChlorineConcentration_normal_1 | TEST index 0 | 일반 검토 -->
    <g transform="translate(195.027812 21.6) scale(0.12 -0.12)">
     <defs>
      <path id="AppleSDGothicNeo-Regular-40" d="M 51 -365 
L 2099 -365 
L 2099 -38 
L 51 -38 
L 51 -365 
z
" transform="scale(0.015625)"/>
      <path id="AppleSDGothicNeo-Regular-4dd" d="M 4813 -448 
L 4813 5146 
L 4326 5146 
L 4326 -448 
L 4813 -448 
z
M 3168 4550 
L 506 4550 
L 506 4141 
L 2650 4141 
C 2547 2880 1715 1664 301 1043 
L 582 659 
C 2029 1344 3142 2733 3168 4550 
z
" transform="scale(0.015625)"/>
      <path id="AppleSDGothicNeo-Regular-a93" d="M 5050 3091 
C 4211 3168 3072 3674 3027 4422 
L 4832 4422 
L 4832 4832 
L 691 4832 
L 691 4422 
L 2515 4422 
C 2470 3680 1440 3168 506 3085 
L 730 2675 
C 1715 2829 2547 3315 2765 3827 
C 3046 3322 3891 2835 4826 2675 
L 5050 3091 
z
M 5293 1728 
L 5293 2138 
L 3002 2138 
L 3002 3046 
L 2515 3046 
L 2515 2138 
L 243 2138 
L 243 1728 
L 5293 1728 
z
M 4774 -275 
L 4774 134 
L 1350 134 
L 1350 1299 
L 864 1299 
L 864 -275 
L 4774 -275 
z
" transform="scale(0.015625)"/>
      <path id="AppleSDGothicNeo-Regular-d31" d="M 4493 2714 
C 4493 3302 3763 3571 2771 3571 
C 1786 3571 1050 3302 1050 2714 
C 1050 2138 1786 1862 2771 1862 
C 3763 1862 4493 2138 4493 2714 
z
M 3008 -454 
L 3008 1146 
L 5293 1146 
L 5293 1555 
L 243 1555 
L 243 1146 
L 2522 1146 
L 2522 -454 
L 3008 -454 
z
M 5024 3814 
L 5024 4224 
L 531 4224 
L 531 3814 
L 5024 3814 
z
M 3987 2714 
C 3987 2387 3334 2266 2771 2266 
C 2221 2266 1555 2387 1555 2714 
C 1555 3059 2221 3168 2771 3168 
C 3334 3168 3987 3059 3987 2714 
z
M 3706 4646 
L 3706 5062 
L 1837 5062 
L 1837 4646 
L 3706 4646 
z
" transform="scale(0.015625)"/>
      <path id="AppleSDGothicNeo-Regular-801" d="M 4678 1798 
L 4678 4762 
L 4192 4762 
L 4192 3731 
L 1344 3731 
L 1344 4762 
L 851 4762 
L 851 1798 
L 2515 1798 
L 2515 659 
L 243 659 
L 243 250 
L 5293 250 
L 5293 659 
L 3002 659 
L 3002 1798 
L 4678 1798 
z
M 4192 2202 
L 1344 2202 
L 1344 3328 
L 4192 3328 
L 4192 2202 
z
" transform="scale(0.015625)"/>
      <path id="AppleSDGothicNeo-Regular-9c0" d="M 1562 4659 
C 749 4659 333 3866 333 2746 
C 333 1619 749 832 1562 832 
C 2330 832 2739 1517 2790 2528 
L 3392 2528 
L 3392 -179 
L 3866 -179 
L 3866 5037 
L 3392 5037 
L 3392 2931 
L 2790 2931 
C 2752 3949 2336 4659 1562 4659 
z
M 2310 2746 
C 2310 1837 2016 1261 1562 1261 
C 1114 1261 826 1837 826 2746 
C 826 3648 1114 4230 1562 4230 
C 2016 4230 2310 3648 2310 2746 
z
M 4960 -448 
L 4960 5146 
L 4480 5146 
L 4480 -448 
L 4960 -448 
z
" transform="scale(0.015625)"/>
      <path id="AppleSDGothicNeo-Regular-8b2" d="M 4832 -448 
L 4832 5146 
L 4346 5146 
L 4346 3149 
L 3040 3149 
L 3040 2739 
L 4346 2739 
L 4346 -448 
L 4832 -448 
z
M 3590 1261 
C 2822 1709 2157 2618 2157 3642 
L 2157 4659 
L 1651 4659 
L 1651 3622 
C 1651 2630 1005 1638 192 1126 
L 512 762 
C 1158 1229 1709 1920 1907 2618 
C 2131 1946 2778 1235 3290 890 
L 3590 1261 
z
" transform="scale(0.015625)"/>
      <path id="AppleSDGothicNeo-Regular-a4c" d="M 4813 2317 
L 4813 5146 
L 4326 5146 
L 4326 2317 
L 4813 2317 
z
M 5018 -371 
L 5018 26 
L 1677 26 
L 1677 666 
L 4813 666 
L 4813 2022 
L 1171 2022 
L 1171 1626 
L 4326 1626 
L 4326 1043 
L 1190 1043 
L 1190 -371 
L 5018 -371 
z
M 1850 4973 
C 1043 4973 390 4461 390 3706 
C 390 2944 1050 2458 1850 2458 
C 2650 2458 3296 2950 3296 3706 
C 3296 4467 2650 4973 1850 4973 
z
M 1850 4550 
C 2432 4550 2822 4205 2822 3706 
C 2822 3213 2432 2880 1850 2880 
C 1293 2880 864 3213 864 3712 
C 864 4211 1299 4550 1850 4550 
z
" transform="scale(0.015625)"/>
      <path id="AppleSDGothicNeo-Regular-7c8" d="M 5395 3072 
L 5395 3482 
L 4544 3482 
L 4544 5146 
L 4058 5146 
L 4058 1088 
L 4544 1088 
L 4544 3072 
L 5395 3072 
z
M 4762 -256 
L 4762 147 
L 1472 147 
L 1472 1466 
L 986 1466 
L 986 -256 
L 4762 -256 
z
M 3059 1933 
L 3059 4768 
L 2566 4768 
L 2566 3808 
L 902 3808 
L 902 4768 
L 416 4768 
L 416 1933 
L 3059 1933 
z
M 2566 2330 
L 902 2330 
L 902 3411 
L 2566 3411 
L 2566 2330 
z
" transform="scale(0.015625)"/>
      <path id="AppleSDGothicNeo-Regular-468" d="M 4326 3277 
L 4326 1907 
L 4813 1907 
L 4813 5146 
L 4326 5146 
L 4326 3686 
L 3098 3686 
L 3098 3277 
L 4326 3277 
z
M 4813 -371 
L 4813 1613 
L 1210 1613 
L 1210 -371 
L 4813 -371 
z
M 4326 32 
L 1696 32 
L 1696 1210 
L 4326 1210 
L 4326 32 
z
M 563 4762 
L 563 4346 
L 2541 4346 
C 2387 3379 1414 2547 288 2285 
L 544 1875 
C 1984 2336 2989 3270 3078 4762 
L 563 4762 
z
" transform="scale(0.015625)"/>
      <path id="AppleSDGothicNeo-Regular-c37" d="M 4506 3027 
L 4506 3437 
L 1325 3437 
L 1325 4262 
L 4672 4262 
L 4672 4672 
L 838 4672 
L 838 1766 
L 2515 1766 
L 2515 672 
L 243 672 
L 243 262 
L 5293 262 
L 5293 672 
L 3002 672 
L 3002 1766 
L 4736 1766 
L 4736 2170 
L 1325 2170 
L 1325 3027 
L 4506 3027 
z
" transform="scale(0.015625)"/>
      <path id="AppleSDGothicNeo-Regular-6fd" d="M 5293 262 
L 5293 672 
L 3002 672 
L 3002 1626 
L 4826 1626 
L 4826 2035 
L 1350 2035 
L 1350 2970 
L 4666 2970 
L 4666 4678 
L 858 4678 
L 858 4269 
L 4179 4269 
L 4179 3373 
L 864 3373 
L 864 1626 
L 2515 1626 
L 2515 672 
L 243 672 
L 243 262 
L 5293 262 
z
" transform="scale(0.015625)"/>
      <path id="AppleSDGothicNeo-Regular-a49" d="M 4845 -448 
L 4845 5146 
L 4358 5146 
L 4358 -448 
L 4845 -448 
z
M 429 2752 
C 429 1562 954 768 1869 768 
C 2797 768 3315 1562 3315 2746 
C 3315 3930 2797 4723 1869 4723 
C 954 4723 429 3930 429 2752 
z
M 2854 2746 
C 2854 1830 2464 1190 1869 1190 
C 1280 1190 890 1830 890 2746 
C 890 3667 1280 4301 1869 4301 
C 2464 4301 2854 3667 2854 2746 
z
" transform="scale(0.015625)"/>
      <path id="AppleSDGothicNeo-Regular-632" d="M 4691 531 
C 4691 1165 3994 1504 2765 1504 
C 1542 1504 851 1139 851 531 
C 851 -90 1542 -448 2765 -448 
C 3994 -448 4691 -96 4691 531 
z
M 4685 3027 
L 4685 3430 
L 1350 3430 
L 1350 4474 
L 4659 4474 
L 4659 4877 
L 858 4877 
L 858 3027 
L 2522 3027 
L 2522 2317 
L 243 2317 
L 243 1914 
L 5293 1914 
L 5293 2317 
L 3008 2317 
L 3008 3027 
L 4685 3027 
z
M 2765 1107 
C 3654 1107 4192 890 4192 531 
C 4192 160 3654 -45 2765 -45 
C 1888 -45 1350 160 1350 531 
C 1350 890 1888 1107 2765 1107 
z
" transform="scale(0.015625)"/>
      <path id="AppleSDGothicNeo-Regular-ce0" d="M 5395 2842 
L 5395 3251 
L 4544 3251 
L 4544 5146 
L 4058 5146 
L 4058 1018 
L 4544 1018 
L 4544 2842 
L 5395 2842 
z
M 4762 -269 
L 4762 141 
L 1523 141 
L 1523 1165 
L 1037 1165 
L 1037 -269 
L 4762 -269 
z
M 2630 4518 
L 2630 4947 
L 1018 4947 
L 1018 4518 
L 2630 4518 
z
M 3494 3693 
L 3494 4096 
L 218 4096 
L 218 3693 
L 3494 3693 
z
M 3174 2413 
C 3174 3014 2611 3392 1856 3392 
C 1107 3392 544 3014 544 2413 
C 544 1824 1114 1434 1856 1434 
C 2611 1434 3174 1824 3174 2413 
z
M 2714 2413 
C 2714 2048 2310 1824 1856 1824 
C 1408 1824 1005 2048 1005 2413 
C 1005 2784 1408 3008 1856 3008 
C 2310 3008 2714 2784 2714 2413 
z
" transform="scale(0.015625)"/>
      <path id="AppleSDGothicNeo-Regular-27" d="M 550 269 
L 1056 269 
L 1056 2195 
L 2586 2195 
L 2586 2630 
L 1056 2630 
L 1056 4134 
L 3040 4134 
L 3040 4563 
L 550 4563 
L 550 269 
z
" transform="scale(0.015625)"/>
      <path id="AppleSDGothicNeo-Regular-31" d="M 550 269 
L 1062 269 
L 1062 1990 
L 1939 1990 
C 2758 1990 3309 2451 3309 3296 
C 3309 4102 2842 4563 1875 4563 
L 550 4563 
L 550 269 
z
M 1062 2413 
L 1062 4134 
L 1824 4134 
C 2522 4134 2765 3872 2765 3264 
C 2765 2688 2502 2413 1837 2413 
L 1062 2413 
z
" transform="scale(0.015625)"/>
      <path id="AppleSDGothicNeo-Regular-14" d="M 1491 205 
C 2445 205 3053 730 3053 1478 
C 3053 2144 2630 2458 2074 2566 
C 2560 2726 2893 3040 2893 3571 
C 2893 4243 2368 4634 1600 4634 
C 1229 4634 723 4474 467 4301 
L 544 3891 
C 813 4045 1146 4198 1498 4198 
C 2022 4198 2362 4013 2362 3488 
C 2362 3008 1984 2726 1427 2726 
L 1043 2726 
L 1043 2291 
L 1459 2291 
C 2112 2291 2534 2029 2534 1478 
C 2534 947 2138 634 1427 634 
C 1107 634 678 755 435 915 
L 326 512 
C 563 346 992 205 1491 205 
z
" transform="scale(0.015625)"/>
      <path id="AppleSDGothicNeo-Regular-5d" d="M 691 -384 
L 1114 -384 
L 1114 4941 
L 691 4941 
L 691 -384 
z
" transform="scale(0.015625)"/>
      <path id="AppleSDGothicNeo-Regular-24" d="M 2182 198 
C 2688 198 3078 314 3366 480 
L 3366 909 
C 3098 774 2778 627 2246 627 
C 1261 627 851 1267 851 2368 
L 851 2579 
C 851 3718 1427 4205 2240 4205 
C 2662 4205 2982 4109 3322 3974 
L 3322 4397 
C 3059 4538 2726 4634 2266 4634 
C 1171 4634 314 4032 314 2496 
L 314 2368 
C 314 915 1024 198 2182 198 
z
" transform="scale(0.015625)"/>
      <path id="AppleSDGothicNeo-Regular-35" d="M 1491 269 
L 1990 269 
L 1990 4134 
L 3302 4134 
L 3302 4563 
L 179 4563 
L 179 4134 
L 1491 4134 
L 1491 269 
z
" transform="scale(0.015625)"/>
      <path id="AppleSDGothicNeo-Regular-26" d="M 557 269 
L 3123 269 
L 3123 698 
L 1062 698 
L 1062 2266 
L 2637 2266 
L 2637 2694 
L 1062 2694 
L 1062 4134 
L 3104 4134 
L 3104 4563 
L 557 4563 
L 557 269 
z
" transform="scale(0.015625)"/>
      <path id="AppleSDGothicNeo-Regular-34" d="M 1472 192 
C 2477 192 2912 691 2912 1440 
C 2912 2163 2509 2432 1875 2650 
L 1453 2784 
C 966 2950 813 3130 813 3539 
C 813 3949 1107 4205 1632 4205 
C 2106 4205 2445 4083 2694 3968 
L 2694 4397 
C 2458 4512 2157 4634 1651 4634 
C 755 4634 314 4160 314 3494 
C 314 2842 653 2534 1254 2336 
L 1670 2189 
C 2189 2022 2400 1843 2400 1402 
C 2400 934 2112 627 1453 627 
C 998 627 576 742 250 909 
L 250 480 
C 538 320 947 192 1472 192 
z
" transform="scale(0.015625)"/>
     </defs>
     <use xlink:href="#AppleSDGothicNeo-Regular-11"/>
     <use xlink:href="#AppleSDGothicNeo-Regular-17" transform="translate(63 0)"/>
     <use xlink:href="#AppleSDGothicNeo-Regular-40" transform="translate(118.40625 0)"/>
     <use xlink:href="#AppleSDGothicNeo-Regular-4dd" transform="translate(152 0)"/>
     <use xlink:href="#AppleSDGothicNeo-Regular-a93" transform="translate(238.5 0)"/>
     <use xlink:href="#AppleSDGothicNeo-Regular-40" transform="translate(325 0)"/>
     <use xlink:href="#AppleSDGothicNeo-Regular-d31" transform="translate(358.59375 0)"/>
     <use xlink:href="#AppleSDGothicNeo-Regular-801" transform="translate(445.09375 0)"/>
     <use xlink:href="#AppleSDGothicNeo-Regular-9c0" transform="translate(531.59375 0)"/>
     <use xlink:href="#AppleSDGothicNeo-Regular-8b2" transform="translate(618.09375 0)"/>
     <use xlink:href="#AppleSDGothicNeo-Regular-40" transform="translate(704.59375 0)"/>
     <use xlink:href="#AppleSDGothicNeo-Regular-a4c" transform="translate(738.1875 0)"/>
     <use xlink:href="#AppleSDGothicNeo-Regular-7c8" transform="translate(824.6875 0)"/>
     <use xlink:href="#AppleSDGothicNeo-Regular-40" transform="translate(911.1875 0)"/>
     <use xlink:href="#AppleSDGothicNeo-Regular-468" transform="translate(944.78125 0)"/>
     <use xlink:href="#AppleSDGothicNeo-Regular-c37" transform="translate(1031.28125 0)"/>
     <use xlink:href="#AppleSDGothicNeo-Regular-6fd" transform="translate(1117.78125 0)"/>
     <use xlink:href="#AppleSDGothicNeo-Regular-40" transform="translate(1204.28125 0)"/>
     <use xlink:href="#AppleSDGothicNeo-Regular-a49" transform="translate(1237.875 0)"/>
     <use xlink:href="#AppleSDGothicNeo-Regular-632" transform="translate(1324.375 0)"/>
     <use xlink:href="#AppleSDGothicNeo-Regular-ce0" transform="translate(1410.875 0)"/>
     <use xlink:href="#AppleSDGothicNeo-Regular-40" transform="translate(1497.375 0)"/>
     <use xlink:href="#AppleSDGothicNeo-Regular-27" transform="translate(1530.96875 0)"/>
     <use xlink:href="#AppleSDGothicNeo-Regular-31" transform="translate(1582.5625 0)"/>
     <use xlink:href="#AppleSDGothicNeo-Regular-40" transform="translate(1637.859375 0)"/>
     <use xlink:href="#AppleSDGothicNeo-Regular-14" transform="translate(1671.453125 0)"/>
     <use xlink:href="#AppleSDGothicNeo-Regular-1" transform="translate(1725.046875 0)"/>
     <use xlink:href="#AppleSDGothicNeo-Regular-5d" transform="translate(1751.34375 0)"/>
     <use xlink:href="#AppleSDGothicNeo-Regular-1" transform="translate(1779.546875 0)"/>
     <use xlink:href="#AppleSDGothicNeo-Regular-24" transform="translate(1805.84375 0)"/>
     <use xlink:href="#AppleSDGothicNeo-Regular-49" transform="translate(1862.84375 0)"/>
     <use xlink:href="#AppleSDGothicNeo-Regular-4d" transform="translate(1916.4375 0)"/>
     <use xlink:href="#AppleSDGothicNeo-Regular-50" transform="translate(1939.140625 0)"/>
     <use xlink:href="#AppleSDGothicNeo-Regular-53" transform="translate(1992.546875 0)"/>
     <use xlink:href="#AppleSDGothicNeo-Regular-4a" transform="translate(2027.140625 0)"/>
     <use xlink:href="#AppleSDGothicNeo-Regular-4f" transform="translate(2049.84375 0)"/>
     <use xlink:href="#AppleSDGothicNeo-Regular-46" transform="translate(2103.4375 0)"/>
     <use xlink:href="#AppleSDGothicNeo-Regular-24" transform="translate(2153.4375 0)"/>
     <use xlink:href="#AppleSDGothicNeo-Regular-50" transform="translate(2210.4375 0)"/>
     <use xlink:href="#AppleSDGothicNeo-Regular-4f" transform="translate(2263.84375 0)"/>
     <use xlink:href="#AppleSDGothicNeo-Regular-44" transform="translate(2317.4375 0)"/>
     <use xlink:href="#AppleSDGothicNeo-Regular-46" transform="translate(2362.4375 0)"/>
     <use xlink:href="#AppleSDGothicNeo-Regular-4f" transform="translate(2412.4375 0)"/>
     <use xlink:href="#AppleSDGothicNeo-Regular-55" transform="translate(2466.03125 0)"/>
     <use xlink:href="#AppleSDGothicNeo-Regular-53" transform="translate(2501.03125 0)"/>
     <use xlink:href="#AppleSDGothicNeo-Regular-42" transform="translate(2534.53125 0)"/>
     <use xlink:href="#AppleSDGothicNeo-Regular-55" transform="translate(2581.734375 0)"/>
     <use xlink:href="#AppleSDGothicNeo-Regular-4a" transform="translate(2616.734375 0)"/>
     <use xlink:href="#AppleSDGothicNeo-Regular-50" transform="translate(2639.4375 0)"/>
     <use xlink:href="#AppleSDGothicNeo-Regular-4f" transform="translate(2692.84375 0)"/>
     <use xlink:href="#AppleSDGothicNeo-Regular-40" transform="translate(2746.4375 0)"/>
     <use xlink:href="#AppleSDGothicNeo-Regular-4f" transform="translate(2780.03125 0)"/>
     <use xlink:href="#AppleSDGothicNeo-Regular-50" transform="translate(2833.625 0)"/>
     <use xlink:href="#AppleSDGothicNeo-Regular-53" transform="translate(2887.03125 0)"/>
     <use xlink:href="#AppleSDGothicNeo-Regular-4e" transform="translate(2921.625 0)"/>
     <use xlink:href="#AppleSDGothicNeo-Regular-42" transform="translate(3001.921875 0)"/>
     <use xlink:href="#AppleSDGothicNeo-Regular-4d" transform="translate(3049.125 0)"/>
     <use xlink:href="#AppleSDGothicNeo-Regular-40" transform="translate(3071.828125 0)"/>
     <use xlink:href="#AppleSDGothicNeo-Regular-12" transform="translate(3105.421875 0)"/>
     <use xlink:href="#AppleSDGothicNeo-Regular-1" transform="translate(3141.125 0)"/>
     <use xlink:href="#AppleSDGothicNeo-Regular-5d" transform="translate(3167.421875 0)"/>
     <use xlink:href="#AppleSDGothicNeo-Regular-1" transform="translate(3195.625 0)"/>
     <use xlink:href="#AppleSDGothicNeo-Regular-35" transform="translate(3221.921875 0)"/>
     <use xlink:href="#AppleSDGothicNeo-Regular-26" transform="translate(3276.328125 0)"/>
     <use xlink:href="#AppleSDGothicNeo-Regular-34" transform="translate(3331.328125 0)"/>
     <use xlink:href="#AppleSDGothicNeo-Regular-35" transform="translate(3381.734375 0)"/>
     <use xlink:href="#AppleSDGothicNeo-Regular-1" transform="translate(3436.140625 0)"/>
     <use xlink:href="#AppleSDGothicNeo-Regular-4a" transform="translate(3462.4375 0)"/>
     <use xlink:href="#AppleSDGothicNeo-Regular-4f" transform="translate(3485.140625 0)"/>
     <use xlink:href="#AppleSDGothicNeo-Regular-45" transform="translate(3538.734375 0)"/>
     <use xlink:href="#AppleSDGothicNeo-Regular-46" transform="translate(3593.234375 0)"/>
     <use xlink:href="#AppleSDGothicNeo-Regular-59" transform="translate(3642.234375 0)"/>
     <use xlink:href="#AppleSDGothicNeo-Regular-1" transform="translate(3689.9375 0)"/>
     <use xlink:href="#AppleSDGothicNeo-Regular-11" transform="translate(3716.234375 0)"/>
     <use xlink:href="#AppleSDGothicNeo-Regular-1" transform="translate(3779.234375 0)"/>
     <use xlink:href="#AppleSDGothicNeo-Regular-5d" transform="translate(3805.53125 0)"/>
     <use xlink:href="#AppleSDGothicNeo-Regular-1" transform="translate(3833.734375 0)"/>
     <use xlink:href="#AppleSDGothicNeo-Regular-a4c" transform="translate(3860.03125 0)"/>
     <use xlink:href="#AppleSDGothicNeo-Regular-7c8" transform="translate(3946.53125 0)"/>
     <use xlink:href="#AppleSDGothicNeo-Regular-1" transform="translate(4033.03125 0)"/>
     <use xlink:href="#AppleSDGothicNeo-Regular-468" transform="translate(4059.328125 0)"/>
     <use xlink:href="#AppleSDGothicNeo-Regular-c37" transform="translate(4145.828125 0)"/>
    </g>
   </g>
   <g id="legend_1">
    <g id="patch_7">
     <path d="M 732.07875 74.8 
L 836.08 74.8 
Q 837.68 74.8 837.68 73.2 
L 837.68 33.2 
Q 837.68 31.6 836.08 31.6 
L 732.07875 31.6 
Q 730.47875 31.6 730.47875 33.2 
L 730.47875 73.2 
Q 730.47875 74.8 732.07875 74.8 
z
" style="fill: #ffffff; opacity: 0.8; stroke: #cccccc; stroke-linejoin: miter"/>
    </g>
    <g id="patch_8">
     <path d="M 733.67875 42 
L 749.67875 42 
L 749.67875 36.4 
L 733.67875 36.4 
z
" style="fill: #a7dff3; fill-opacity: 0.55; stroke: #a7dff3; stroke-opacity: 0.55; stroke-linejoin: miter"/>
    </g>
    <g id="text_19">
     <!-- TRAIN normal p05-p95 -->
     <g transform="translate(756.07875 42) scale(0.08 -0.08)">
      <defs>
       <path id="AppleSDGothicNeo-Regular-33" d="M 550 269 
L 1056 269 
L 1056 2112 
L 1875 2112 
L 2944 269 
L 3520 269 
L 2381 2202 
L 2381 2234 
C 2912 2400 3219 2746 3219 3360 
C 3219 4134 2746 4563 1798 4563 
L 550 4563 
L 550 269 
z
M 1056 2509 
L 1056 4134 
L 1760 4134 
C 2419 4134 2682 3885 2682 3354 
C 2682 2797 2438 2509 1766 2509 
L 1056 2509 
z
" transform="scale(0.015625)"/>
       <path id="AppleSDGothicNeo-Regular-22" d="M 122 269 
L 608 269 
L 1050 1523 
L 2771 1523 
L 3226 269 
L 3757 269 
L 2189 4563 
L 1696 4563 
L 122 269 
z
M 1901 3885 
L 1914 3885 
L 2611 1952 
L 1197 1952 
L 1901 3885 
z
" transform="scale(0.015625)"/>
       <path id="AppleSDGothicNeo-Regular-2a" d="M 576 269 
L 1082 269 
L 1082 4563 
L 576 4563 
L 576 269 
z
" transform="scale(0.015625)"/>
       <path id="AppleSDGothicNeo-Regular-2f" d="M 550 269 
L 1024 269 
L 1024 3872 
L 1043 3872 
L 3174 269 
L 3699 269 
L 3699 4563 
L 3238 4563 
L 3238 1126 
L 3219 1126 
L 1152 4563 
L 550 4563 
L 550 269 
z
" transform="scale(0.015625)"/>
      </defs>
      <use xlink:href="#AppleSDGothicNeo-Regular-35"/>
      <use xlink:href="#AppleSDGothicNeo-Regular-33" transform="translate(54.40625 0)"/>
      <use xlink:href="#AppleSDGothicNeo-Regular-22" transform="translate(112.203125 0)"/>
      <use xlink:href="#AppleSDGothicNeo-Regular-2a" transform="translate(172.703125 0)"/>
      <use xlink:href="#AppleSDGothicNeo-Regular-2f" transform="translate(198.609375 0)"/>
      <use xlink:href="#AppleSDGothicNeo-Regular-1" transform="translate(265.203125 0)"/>
      <use xlink:href="#AppleSDGothicNeo-Regular-4f" transform="translate(291.5 0)"/>
      <use xlink:href="#AppleSDGothicNeo-Regular-50" transform="translate(345.09375 0)"/>
      <use xlink:href="#AppleSDGothicNeo-Regular-53" transform="translate(398.5 0)"/>
      <use xlink:href="#AppleSDGothicNeo-Regular-4e" transform="translate(433.09375 0)"/>
      <use xlink:href="#AppleSDGothicNeo-Regular-42" transform="translate(513.390625 0)"/>
      <use xlink:href="#AppleSDGothicNeo-Regular-4d" transform="translate(560.59375 0)"/>
      <use xlink:href="#AppleSDGothicNeo-Regular-1" transform="translate(583.296875 0)"/>
      <use xlink:href="#AppleSDGothicNeo-Regular-51" transform="translate(609.59375 0)"/>
      <use xlink:href="#AppleSDGothicNeo-Regular-11" transform="translate(664.09375 0)"/>
      <use xlink:href="#AppleSDGothicNeo-Regular-16" transform="translate(727.09375 0)"/>
      <use xlink:href="#AppleSDGothicNeo-Regular-e" transform="translate(777 0)"/>
      <use xlink:href="#AppleSDGothicNeo-Regular-51" transform="translate(820.203125 0)"/>
      <use xlink:href="#AppleSDGothicNeo-Regular-1a" transform="translate(874.703125 0)"/>
      <use xlink:href="#AppleSDGothicNeo-Regular-16" transform="translate(930.109375 0)"/>
     </g>
    </g>
    <g id="line2d_17">
     <path d="M 733.67875 52.8 
L 741.67875 52.8 
L 749.67875 52.8 
" style="fill: none; stroke: #2378a8; stroke-width: 1.2; stroke-linecap: square"/>
    </g>
    <g id="text_20">
     <!-- TRAIN normal median -->
     <g transform="translate(756.07875 55.6) scale(0.08 -0.08)">
      <use xlink:href="#AppleSDGothicNeo-Regular-35"/>
      <use xlink:href="#AppleSDGothicNeo-Regular-33" transform="translate(54.40625 0)"/>
      <use xlink:href="#AppleSDGothicNeo-Regular-22" transform="translate(112.203125 0)"/>
      <use xlink:href="#AppleSDGothicNeo-Regular-2a" transform="translate(172.703125 0)"/>
      <use xlink:href="#AppleSDGothicNeo-Regular-2f" transform="translate(198.609375 0)"/>
      <use xlink:href="#AppleSDGothicNeo-Regular-1" transform="translate(265.203125 0)"/>
      <use xlink:href="#AppleSDGothicNeo-Regular-4f" transform="translate(291.5 0)"/>
      <use xlink:href="#AppleSDGothicNeo-Regular-50" transform="translate(345.09375 0)"/>
      <use xlink:href="#AppleSDGothicNeo-Regular-53" transform="translate(398.5 0)"/>
      <use xlink:href="#AppleSDGothicNeo-Regular-4e" transform="translate(433.09375 0)"/>
      <use xlink:href="#AppleSDGothicNeo-Regular-42" transform="translate(513.390625 0)"/>
      <use xlink:href="#AppleSDGothicNeo-Regular-4d" transform="translate(560.59375 0)"/>
      <use xlink:href="#AppleSDGothicNeo-Regular-1" transform="translate(583.296875 0)"/>
      <use xlink:href="#AppleSDGothicNeo-Regular-4e" transform="translate(609.59375 0)"/>
      <use xlink:href="#AppleSDGothicNeo-Regular-46" transform="translate(689.890625 0)"/>
      <use xlink:href="#AppleSDGothicNeo-Regular-45" transform="translate(739.890625 0)"/>
      <use xlink:href="#AppleSDGothicNeo-Regular-4a" transform="translate(794.390625 0)"/>
      <use xlink:href="#AppleSDGothicNeo-Regular-42" transform="translate(817.09375 0)"/>
      <use xlink:href="#AppleSDGothicNeo-Regular-4f" transform="translate(864.296875 0)"/>
     </g>
    </g>
    <g id="line2d_18">
     <path d="M 733.67875 66.4 
L 741.67875 66.4 
L 749.67875 66.4 
" style="fill: none; stroke: #e45756; stroke-width: 1.1; stroke-linecap: square"/>
    </g>
    <g id="text_21">
     <!-- selected TEST series -->
     <g transform="translate(756.07875 69.2) scale(0.08 -0.08)">
      <use xlink:href="#AppleSDGothicNeo-Regular-54"/>
      <use xlink:href="#AppleSDGothicNeo-Regular-46" transform="translate(41.5 0)"/>
      <use xlink:href="#AppleSDGothicNeo-Regular-4d" transform="translate(91.5 0)"/>
      <use xlink:href="#AppleSDGothicNeo-Regular-46" transform="translate(114.203125 0)"/>
      <use xlink:href="#AppleSDGothicNeo-Regular-44" transform="translate(164.203125 0)"/>
      <use xlink:href="#AppleSDGothicNeo-Regular-55" transform="translate(210.109375 0)"/>
      <use xlink:href="#AppleSDGothicNeo-Regular-46" transform="translate(245.109375 0)"/>
      <use xlink:href="#AppleSDGothicNeo-Regular-45" transform="translate(295.109375 0)"/>
      <use xlink:href="#AppleSDGothicNeo-Regular-1" transform="translate(349.609375 0)"/>
      <use xlink:href="#AppleSDGothicNeo-Regular-35" transform="translate(375.90625 0)"/>
      <use xlink:href="#AppleSDGothicNeo-Regular-26" transform="translate(430.3125 0)"/>
      <use xlink:href="#AppleSDGothicNeo-Regular-34" transform="translate(485.3125 0)"/>
      <use xlink:href="#AppleSDGothicNeo-Regular-35" transform="translate(535.71875 0)"/>
      <use xlink:href="#AppleSDGothicNeo-Regular-1" transform="translate(590.125 0)"/>
      <use xlink:href="#AppleSDGothicNeo-Regular-54" transform="translate(616.421875 0)"/>
      <use xlink:href="#AppleSDGothicNeo-Regular-46" transform="translate(657.921875 0)"/>
      <use xlink:href="#AppleSDGothicNeo-Regular-53" transform="translate(707.921875 0)"/>
      <use xlink:href="#AppleSDGothicNeo-Regular-4a" transform="translate(742.515625 0)"/>
      <use xlink:href="#AppleSDGothicNeo-Regular-46" transform="translate(765.21875 0)"/>
      <use xlink:href="#AppleSDGothicNeo-Regular-54" transform="translate(815.21875 0)"/>
     </g>
    </g>
   </g>
  </g>
  <g id="axes_2">
   <g id="patch_9">
    <path d="M 56.255 443.08 
L 841.68 443.08 
L 841.68 369.144 
L 56.255 369.144 
z
" style="fill: #ffffff"/>
   </g>
   <g id="PathCollection_1">
    <defs>
     <path id="m5dc6498a12" d="M -3 3 
L 3 -3 
M -3 -3 
L 3 3 
" style="stroke: #e45756; stroke-width: 1.5"/>
    </defs>
    <g clip-path="url(#p5483dfba6a)">
     <use xlink:href="#m5dc6498a12" x="825.987193" y="416.984941" style="fill: #e45756; stroke: #e45756; stroke-width: 1.5"/>
     <use xlink:href="#m5dc6498a12" x="826.771833" y="416.984941" style="fill: #e45756; stroke: #e45756; stroke-width: 1.5"/>
     <use xlink:href="#m5dc6498a12" x="827.556474" y="416.984941" style="fill: #e45756; stroke: #e45756; stroke-width: 1.5"/>
     <use xlink:href="#m5dc6498a12" x="828.341114" y="416.984941" style="fill: #e45756; stroke: #e45756; stroke-width: 1.5"/>
     <use xlink:href="#m5dc6498a12" x="829.125754" y="416.984941" style="fill: #e45756; stroke: #e45756; stroke-width: 1.5"/>
     <use xlink:href="#m5dc6498a12" x="829.910395" y="416.984941" style="fill: #e45756; stroke: #e45756; stroke-width: 1.5"/>
     <use xlink:href="#m5dc6498a12" x="830.695035" y="416.984941" style="fill: #e45756; stroke: #e45756; stroke-width: 1.5"/>
     <use xlink:href="#m5dc6498a12" x="831.479675" y="416.984941" style="fill: #e45756; stroke: #e45756; stroke-width: 1.5"/>
     <use xlink:href="#m5dc6498a12" x="832.264316" y="416.984941" style="fill: #e45756; stroke: #e45756; stroke-width: 1.5"/>
     <use xlink:href="#m5dc6498a12" x="833.048956" y="416.984941" style="fill: #e45756; stroke: #e45756; stroke-width: 1.5"/>
     <use xlink:href="#m5dc6498a12" x="833.833596" y="416.984941" style="fill: #e45756; stroke: #e45756; stroke-width: 1.5"/>
     <use xlink:href="#m5dc6498a12" x="834.618237" y="416.984941" style="fill: #e45756; stroke: #e45756; stroke-width: 1.5"/>
     <use xlink:href="#m5dc6498a12" x="835.402877" y="416.984941" style="fill: #e45756; stroke: #e45756; stroke-width: 1.5"/>
     <use xlink:href="#m5dc6498a12" x="836.187517" y="416.984941" style="fill: #e45756; stroke: #e45756; stroke-width: 1.5"/>
     <use xlink:href="#m5dc6498a12" x="836.972158" y="416.984941" style="fill: #e45756; stroke: #e45756; stroke-width: 1.5"/>
     <use xlink:href="#m5dc6498a12" x="837.756798" y="416.984941" style="fill: #e45756; stroke: #e45756; stroke-width: 1.5"/>
     <use xlink:href="#m5dc6498a12" x="838.541439" y="416.984941" style="fill: #e45756; stroke: #e45756; stroke-width: 1.5"/>
     <use xlink:href="#m5dc6498a12" x="839.326079" y="416.984941" style="fill: #e45756; stroke: #e45756; stroke-width: 1.5"/>
     <use xlink:href="#m5dc6498a12" x="840.110719" y="416.984941" style="fill: #e45756; stroke: #e45756; stroke-width: 1.5"/>
     <use xlink:href="#m5dc6498a12" x="840.89536" y="416.984941" style="fill: #e45756; stroke: #e45756; stroke-width: 1.5"/>
    </g>
   </g>
   <g id="PathCollection_2">
    <defs>
     <path id="m7f2a99e548" d="M 0 3 
C 0.795609 3 1.55874 2.683901 2.12132 2.12132 
C 2.683901 1.55874 3 0.795609 3 0 
C 3 -0.795609 2.683901 -1.55874 2.12132 -2.12132 
C 1.55874 -2.683901 0.795609 -3 0 -3 
C -0.795609 -3 -1.55874 -2.683901 -2.12132 -2.12132 
C -2.683901 -1.55874 -3 -0.795609 -3 0 
C -3 0.795609 -2.683901 1.55874 -2.12132 2.12132 
C -1.55874 2.683901 -0.795609 3 0 3 
z
" style="stroke: #111111"/>
    </defs>
    <g clip-path="url(#p5483dfba6a)">
     <use xlink:href="#m7f2a99e548" x="57.03964" y="395.239059" style="fill: #111111; stroke: #111111"/>
    </g>
   </g>
   <g id="matplotlib.axis_3">
    <g id="xtick_8">
     <g id="line2d_19">
      <g>
       <use xlink:href="#m1cc4d7ebf8" x="57.03964" y="443.08" style="stroke: #000000; stroke-width: 0.8"/>
      </g>
     </g>
     <g id="text_22">
      <!-- 0 -->
      <g transform="translate(53.88964 459.08) scale(0.1 -0.1)">
       <use xlink:href="#AppleSDGothicNeo-Regular-11"/>
      </g>
     </g>
    </g>
    <g id="xtick_9">
     <g id="line2d_20">
      <g>
       <use xlink:href="#m1cc4d7ebf8" x="213.967712" y="443.08" style="stroke: #000000; stroke-width: 0.8"/>
      </g>
     </g>
     <g id="text_23">
      <!-- 200 -->
      <g transform="translate(205.027869 459.08) scale(0.1 -0.1)">
       <use xlink:href="#AppleSDGothicNeo-Regular-13"/>
       <use xlink:href="#AppleSDGothicNeo-Regular-11" transform="translate(52.796875 0)"/>
       <use xlink:href="#AppleSDGothicNeo-Regular-11" transform="translate(115.796875 0)"/>
      </g>
     </g>
    </g>
    <g id="xtick_10">
     <g id="line2d_21">
      <g>
       <use xlink:href="#m1cc4d7ebf8" x="370.895784" y="443.08" style="stroke: #000000; stroke-width: 0.8"/>
      </g>
     </g>
     <g id="text_24">
      <!-- 400 -->
      <g transform="translate(361.820784 459.08) scale(0.1 -0.1)">
       <defs>
        <path id="AppleSDGothicNeo-Regular-15" d="M 2214 166 
L 2682 166 
L 2682 1171 
L 3398 1171 
L 3398 1587 
L 2682 1587 
L 2682 4621 
L 2285 4621 
L 186 1555 
L 186 1171 
L 2214 1171 
L 2214 166 
z
M 730 1587 
L 2214 3814 
L 2214 1587 
L 730 1587 
z
" transform="scale(0.015625)"/>
       </defs>
       <use xlink:href="#AppleSDGothicNeo-Regular-15"/>
       <use xlink:href="#AppleSDGothicNeo-Regular-11" transform="translate(55.5 0)"/>
       <use xlink:href="#AppleSDGothicNeo-Regular-11" transform="translate(118.5 0)"/>
      </g>
     </g>
    </g>
    <g id="xtick_11">
     <g id="line2d_22">
      <g>
       <use xlink:href="#m1cc4d7ebf8" x="527.823856" y="443.08" style="stroke: #000000; stroke-width: 0.8"/>
      </g>
     </g>
     <g id="text_25">
      <!-- 600 -->
      <g transform="translate(518.778544 459.08) scale(0.1 -0.1)">
       <use xlink:href="#AppleSDGothicNeo-Regular-17"/>
       <use xlink:href="#AppleSDGothicNeo-Regular-11" transform="translate(54.90625 0)"/>
       <use xlink:href="#AppleSDGothicNeo-Regular-11" transform="translate(117.90625 0)"/>
      </g>
     </g>
    </g>
    <g id="xtick_12">
     <g id="line2d_23">
      <g>
       <use xlink:href="#m1cc4d7ebf8" x="684.751928" y="443.08" style="stroke: #000000; stroke-width: 0.8"/>
      </g>
     </g>
     <g id="text_26">
      <!-- 800 -->
      <g transform="translate(675.576928 459.08) scale(0.1 -0.1)">
       <defs>
        <path id="AppleSDGothicNeo-Regular-19" d="M 1837 186 
C 2765 186 3341 723 3341 1408 
C 3341 2054 2829 2362 2298 2534 
C 2739 2765 3168 3066 3168 3584 
C 3168 4250 2624 4640 1818 4640 
C 992 4640 461 4179 461 3558 
C 461 3008 838 2682 1299 2502 
C 826 2317 339 1926 339 1363 
C 339 659 922 186 1837 186 
z
M 1830 608 
C 1261 608 851 909 851 1382 
C 851 1856 1280 2163 1702 2310 
C 2445 2074 2797 1882 2797 1357 
C 2797 915 2381 608 1830 608 
z
M 1920 2720 
C 1350 2867 1005 3130 1005 3571 
C 1005 3981 1331 4218 1824 4218 
C 2355 4218 2637 3942 2637 3565 
C 2637 3155 2323 2899 1920 2720 
z
" transform="scale(0.015625)"/>
       </defs>
       <use xlink:href="#AppleSDGothicNeo-Regular-19"/>
       <use xlink:href="#AppleSDGothicNeo-Regular-11" transform="translate(57.5 0)"/>
       <use xlink:href="#AppleSDGothicNeo-Regular-11" transform="translate(120.5 0)"/>
      </g>
     </g>
    </g>
    <g id="xtick_13">
     <g id="line2d_24">
      <g>
       <use xlink:href="#m1cc4d7ebf8" x="841.68" y="443.08" style="stroke: #000000; stroke-width: 0.8"/>
      </g>
     </g>
     <g id="text_27">
      <!-- 1000 -->
      <g transform="translate(830.444844 459.08) scale(0.1 -0.1)">
       <use xlink:href="#AppleSDGothicNeo-Regular-12"/>
       <use xlink:href="#AppleSDGothicNeo-Regular-11" transform="translate(35.703125 0)"/>
       <use xlink:href="#AppleSDGothicNeo-Regular-11" transform="translate(98.703125 0)"/>
       <use xlink:href="#AppleSDGothicNeo-Regular-11" transform="translate(161.703125 0)"/>
      </g>
     </g>
    </g>
    <g id="text_28">
     <!-- TEST sample index -->
     <g transform="translate(409.441719 475.08) scale(0.1 -0.1)">
      <use xlink:href="#AppleSDGothicNeo-Regular-35"/>
      <use xlink:href="#AppleSDGothicNeo-Regular-26" transform="translate(54.40625 0)"/>
      <use xlink:href="#AppleSDGothicNeo-Regular-34" transform="translate(109.40625 0)"/>
      <use xlink:href="#AppleSDGothicNeo-Regular-35" transform="translate(159.8125 0)"/>
      <use xlink:href="#AppleSDGothicNeo-Regular-1" transform="translate(214.21875 0)"/>
      <use xlink:href="#AppleSDGothicNeo-Regular-54" transform="translate(240.515625 0)"/>
      <use xlink:href="#AppleSDGothicNeo-Regular-42" transform="translate(282.015625 0)"/>
      <use xlink:href="#AppleSDGothicNeo-Regular-4e" transform="translate(329.21875 0)"/>
      <use xlink:href="#AppleSDGothicNeo-Regular-51" transform="translate(409.515625 0)"/>
      <use xlink:href="#AppleSDGothicNeo-Regular-4d" transform="translate(464.015625 0)"/>
      <use xlink:href="#AppleSDGothicNeo-Regular-46" transform="translate(486.71875 0)"/>
      <use xlink:href="#AppleSDGothicNeo-Regular-1" transform="translate(536.71875 0)"/>
      <use xlink:href="#AppleSDGothicNeo-Regular-4a" transform="translate(563.015625 0)"/>
      <use xlink:href="#AppleSDGothicNeo-Regular-4f" transform="translate(585.71875 0)"/>
      <use xlink:href="#AppleSDGothicNeo-Regular-45" transform="translate(639.3125 0)"/>
      <use xlink:href="#AppleSDGothicNeo-Regular-46" transform="translate(693.8125 0)"/>
      <use xlink:href="#AppleSDGothicNeo-Regular-59" transform="translate(742.8125 0)"/>
     </g>
    </g>
   </g>
   <g id="matplotlib.axis_4"/>
   <g id="patch_10">
    <path d="M 56.255 443.08 
L 56.255 369.144 
" style="fill: none; stroke: #000000; stroke-width: 0.8; stroke-linejoin: miter; stroke-linecap: square"/>
   </g>
   <g id="patch_11">
    <path d="M 841.68 443.08 
L 841.68 369.144 
" style="fill: none; stroke: #000000; stroke-width: 0.8; stroke-linejoin: miter; stroke-linecap: square"/>
   </g>
   <g id="patch_12">
    <path d="M 56.255 443.08 
L 841.68 443.08 
" style="fill: none; stroke: #000000; stroke-width: 0.8; stroke-linejoin: miter; stroke-linecap: square"/>
   </g>
   <g id="patch_13">
    <path d="M 56.255 369.144 
L 841.68 369.144 
" style="fill: none; stroke: #000000; stroke-width: 0.8; stroke-linejoin: miter; stroke-linecap: square"/>
   </g>
   <g id="legend_2">
    <g id="patch_14">
     <path d="M 722.70875 402.744 
L 836.08 402.744 
Q 837.68 402.744 837.68 401.144 
L 837.68 374.744 
Q 837.68 373.144 836.08 373.144 
L 722.70875 373.144 
Q 721.10875 373.144 721.10875 374.744 
L 721.10875 401.144 
Q 721.10875 402.744 722.70875 402.744 
z
" style="fill: #ffffff; opacity: 0.8; stroke: #cccccc; stroke-linejoin: miter"/>
    </g>
    <g id="PathCollection_3">
     <g>
      <use xlink:href="#m5dc6498a12" x="732.30875" y="381.444" style="fill: #e45756; stroke: #e45756; stroke-width: 1.5"/>
     </g>
    </g>
    <g id="text_29">
     <!-- actual anomaly (post-hoc) -->
     <g transform="translate(746.70875 383.544) scale(0.08 -0.08)">
      <defs>
       <path id="AppleSDGothicNeo-Regular-9" d="M 1472 -384 
L 1914 -384 
C 1344 256 883 1235 883 2221 
L 883 2374 
C 883 3392 1344 4307 1914 4941 
L 1472 4941 
C 883 4339 365 3469 365 2330 
L 365 2227 
C 365 1094 883 218 1472 -384 
z
" transform="scale(0.015625)"/>
       <path id="AppleSDGothicNeo-Regular-a" d="M 115 -384 
L 550 -384 
C 1146 218 1651 1088 1651 2227 
L 1651 2330 
C 1651 3462 1146 4339 550 4941 
L 115 4941 
C 678 4301 1146 3322 1146 2336 
L 1146 2176 
C 1146 1165 678 250 115 -384 
z
" transform="scale(0.015625)"/>
      </defs>
      <use xlink:href="#AppleSDGothicNeo-Regular-42"/>
      <use xlink:href="#AppleSDGothicNeo-Regular-44" transform="translate(47.203125 0)"/>
      <use xlink:href="#AppleSDGothicNeo-Regular-55" transform="translate(93.109375 0)"/>
      <use xlink:href="#AppleSDGothicNeo-Regular-56" transform="translate(128.109375 0)"/>
      <use xlink:href="#AppleSDGothicNeo-Regular-42" transform="translate(181.109375 0)"/>
      <use xlink:href="#AppleSDGothicNeo-Regular-4d" transform="translate(228.3125 0)"/>
      <use xlink:href="#AppleSDGothicNeo-Regular-1" transform="translate(251.015625 0)"/>
      <use xlink:href="#AppleSDGothicNeo-Regular-42" transform="translate(277.3125 0)"/>
      <use xlink:href="#AppleSDGothicNeo-Regular-4f" transform="translate(324.515625 0)"/>
      <use xlink:href="#AppleSDGothicNeo-Regular-50" transform="translate(378.109375 0)"/>
      <use xlink:href="#AppleSDGothicNeo-Regular-4e" transform="translate(431.515625 0)"/>
      <use xlink:href="#AppleSDGothicNeo-Regular-42" transform="translate(511.8125 0)"/>
      <use xlink:href="#AppleSDGothicNeo-Regular-4d" transform="translate(559.015625 0)"/>
      <use xlink:href="#AppleSDGothicNeo-Regular-5a" transform="translate(581.71875 0)"/>
      <use xlink:href="#AppleSDGothicNeo-Regular-1" transform="translate(629.921875 0)"/>
      <use xlink:href="#AppleSDGothicNeo-Regular-9" transform="translate(656.21875 0)"/>
      <use xlink:href="#AppleSDGothicNeo-Regular-51" transform="translate(687.921875 0)"/>
      <use xlink:href="#AppleSDGothicNeo-Regular-50" transform="translate(742.421875 0)"/>
      <use xlink:href="#AppleSDGothicNeo-Regular-54" transform="translate(795.828125 0)"/>
      <use xlink:href="#AppleSDGothicNeo-Regular-55" transform="translate(837.328125 0)"/>
      <use xlink:href="#AppleSDGothicNeo-Regular-e" transform="translate(870.234375 0)"/>
      <use xlink:href="#AppleSDGothicNeo-Regular-49" transform="translate(913.4375 0)"/>
      <use xlink:href="#AppleSDGothicNeo-Regular-50" transform="translate(967.03125 0)"/>
      <use xlink:href="#AppleSDGothicNeo-Regular-44" transform="translate(1020.4375 0)"/>
      <use xlink:href="#AppleSDGothicNeo-Regular-a" transform="translate(1065.4375 0)"/>
     </g>
    </g>
    <g id="PathCollection_4">
     <g>
      <use xlink:href="#m7f2a99e548" x="732.30875" y="395.044" style="fill: #111111; stroke: #111111"/>
     </g>
    </g>
    <g id="text_30">
     <!-- selected case -->
     <g transform="translate(746.70875 397.144) scale(0.08 -0.08)">
      <use xlink:href="#AppleSDGothicNeo-Regular-54"/>
      <use xlink:href="#AppleSDGothicNeo-Regular-46" transform="translate(41.5 0)"/>
      <use xlink:href="#AppleSDGothicNeo-Regular-4d" transform="translate(91.5 0)"/>
      <use xlink:href="#AppleSDGothicNeo-Regular-46" transform="translate(114.203125 0)"/>
      <use xlink:href="#AppleSDGothicNeo-Regular-44" transform="translate(164.203125 0)"/>
      <use xlink:href="#AppleSDGothicNeo-Regular-55" transform="translate(210.109375 0)"/>
      <use xlink:href="#AppleSDGothicNeo-Regular-46" transform="translate(245.109375 0)"/>
      <use xlink:href="#AppleSDGothicNeo-Regular-45" transform="translate(295.109375 0)"/>
      <use xlink:href="#AppleSDGothicNeo-Regular-1" transform="translate(349.609375 0)"/>
      <use xlink:href="#AppleSDGothicNeo-Regular-44" transform="translate(375.90625 0)"/>
      <use xlink:href="#AppleSDGothicNeo-Regular-42" transform="translate(420.90625 0)"/>
      <use xlink:href="#AppleSDGothicNeo-Regular-54" transform="translate(468.109375 0)"/>
      <use xlink:href="#AppleSDGothicNeo-Regular-46" transform="translate(509.609375 0)"/>
     </g>
    </g>
   </g>
  </g>
  <g id="text_31">
   <!-- Actual anomaly labels are shown only for post-hoc evaluation and explanation; they were not used for candidate selection or routing. -->
   <g transform="translate(8.64 501.48) scale(0.08 -0.08)">
    <defs>
     <path id="AppleSDGothicNeo-Regular-43" d="M 1626 198 
C 2650 198 3206 800 3206 1862 
L 3206 1946 
C 3206 3136 2579 3501 1971 3501 
C 1536 3501 1235 3379 992 3232 
L 960 3232 
L 960 4851 
L 467 4851 
L 467 371 
C 749 262 1254 198 1626 198 
z
M 1651 608 
C 1331 608 1107 659 960 723 
L 960 2880 
C 1126 2957 1421 3085 1747 3085 
C 2387 3085 2694 2797 2694 1914 
L 2694 1786 
C 2694 877 2221 608 1651 608 
z
" transform="scale(0.015625)"/>
     <path id="AppleSDGothicNeo-Regular-58" d="M 1082 269 
L 1581 269 
L 2330 2688 
L 2349 2688 
L 3085 269 
L 3578 269 
L 4480 3443 
L 4013 3443 
L 3360 902 
L 3334 902 
L 2566 3443 
L 2144 3443 
L 1382 902 
L 1357 902 
L 704 3443 
L 179 3443 
L 1082 269 
z
" transform="scale(0.015625)"/>
     <path id="AppleSDGothicNeo-Regular-47" d="M 653 269 
L 1146 269 
L 1146 3034 
L 1875 3034 
L 1875 3437 
L 1146 3437 
L 1146 3866 
C 1146 4307 1357 4486 1734 4486 
C 1952 4486 2086 4461 2182 4442 
L 2182 4787 
C 2067 4845 1894 4896 1645 4896 
C 1069 4896 653 4595 653 3898 
L 653 3437 
L 186 3437 
L 186 3034 
L 653 3034 
L 653 269 
z
" transform="scale(0.015625)"/>
     <path id="AppleSDGothicNeo-Regular-1c" d="M 416 -122 
L 774 -122 
L 1222 1094 
L 646 1094 
L 416 -122 
z
M 646 3021 
L 1203 3021 
L 1203 3590 
L 646 3590 
L 646 3021 
z
" transform="scale(0.015625)"/>
     <path id="AppleSDGothicNeo-Regular-48" d="M 1574 -672 
C 2656 -672 3091 -243 3091 301 
C 3091 890 2662 1062 2086 1062 
L 1210 1062 
C 998 1062 896 1126 896 1299 
C 896 1402 960 1478 1043 1555 
C 1210 1498 1389 1466 1587 1466 
C 2253 1466 2778 1805 2778 2483 
L 2778 2490 
C 2778 2739 2694 2931 2547 3072 
L 3117 3072 
L 3117 3450 
L 2042 3450 
C 1901 3482 1754 3501 1594 3501 
C 896 3501 397 3136 397 2477 
L 397 2464 
C 397 2086 550 1830 794 1670 
C 550 1491 435 1344 435 1146 
C 435 934 576 800 755 749 
L 755 717 
C 429 608 154 410 154 70 
C 154 -390 608 -672 1574 -672 
z
M 1562 -288 
C 934 -288 666 -147 666 134 
C 666 403 851 544 1094 627 
L 2010 627 
C 2426 627 2579 531 2579 237 
C 2579 -96 2310 -288 1562 -288 
z
M 1587 1850 
C 1165 1850 883 2054 883 2470 
L 883 2502 
C 883 2899 1152 3130 1587 3130 
C 2016 3130 2285 2931 2285 2496 
L 2285 2464 
C 2285 2054 2029 1850 1587 1850 
z
" transform="scale(0.015625)"/>
    </defs>
    <use xlink:href="#AppleSDGothicNeo-Regular-22"/>
    <use xlink:href="#AppleSDGothicNeo-Regular-44" transform="translate(60.5 0)"/>
    <use xlink:href="#AppleSDGothicNeo-Regular-55" transform="translate(106.40625 0)"/>
    <use xlink:href="#AppleSDGothicNeo-Regular-56" transform="translate(141.40625 0)"/>
    <use xlink:href="#AppleSDGothicNeo-Regular-42" transform="translate(194.40625 0)"/>
    <use xlink:href="#AppleSDGothicNeo-Regular-4d" transform="translate(241.609375 0)"/>
    <use xlink:href="#AppleSDGothicNeo-Regular-1" transform="translate(264.3125 0)"/>
    <use xlink:href="#AppleSDGothicNeo-Regular-42" transform="translate(290.609375 0)"/>
    <use xlink:href="#AppleSDGothicNeo-Regular-4f" transform="translate(337.8125 0)"/>
    <use xlink:href="#AppleSDGothicNeo-Regular-50" transform="translate(391.40625 0)"/>
    <use xlink:href="#AppleSDGothicNeo-Regular-4e" transform="translate(444.8125 0)"/>
    <use xlink:href="#AppleSDGothicNeo-Regular-42" transform="translate(525.109375 0)"/>
    <use xlink:href="#AppleSDGothicNeo-Regular-4d" transform="translate(572.3125 0)"/>
    <use xlink:href="#AppleSDGothicNeo-Regular-5a" transform="translate(595.015625 0)"/>
    <use xlink:href="#AppleSDGothicNeo-Regular-1" transform="translate(643.21875 0)"/>
    <use xlink:href="#AppleSDGothicNeo-Regular-4d" transform="translate(669.515625 0)"/>
    <use xlink:href="#AppleSDGothicNeo-Regular-42" transform="translate(692.21875 0)"/>
    <use xlink:href="#AppleSDGothicNeo-Regular-43" transform="translate(739.421875 0)"/>
    <use xlink:href="#AppleSDGothicNeo-Regular-46" transform="translate(793.921875 0)"/>
    <use xlink:href="#AppleSDGothicNeo-Regular-4d" transform="translate(843.921875 0)"/>
    <use xlink:href="#AppleSDGothicNeo-Regular-54" transform="translate(866.625 0)"/>
    <use xlink:href="#AppleSDGothicNeo-Regular-1" transform="translate(908.125 0)"/>
    <use xlink:href="#AppleSDGothicNeo-Regular-42" transform="translate(934.421875 0)"/>
    <use xlink:href="#AppleSDGothicNeo-Regular-53" transform="translate(981.625 0)"/>
    <use xlink:href="#AppleSDGothicNeo-Regular-46" transform="translate(1016.21875 0)"/>
    <use xlink:href="#AppleSDGothicNeo-Regular-1" transform="translate(1066.21875 0)"/>
    <use xlink:href="#AppleSDGothicNeo-Regular-54" transform="translate(1092.515625 0)"/>
    <use xlink:href="#AppleSDGothicNeo-Regular-49" transform="translate(1134.015625 0)"/>
    <use xlink:href="#AppleSDGothicNeo-Regular-50" transform="translate(1187.609375 0)"/>
    <use xlink:href="#AppleSDGothicNeo-Regular-58" transform="translate(1241.015625 0)"/>
    <use xlink:href="#AppleSDGothicNeo-Regular-4f" transform="translate(1313.8125 0)"/>
    <use xlink:href="#AppleSDGothicNeo-Regular-1" transform="translate(1367.40625 0)"/>
    <use xlink:href="#AppleSDGothicNeo-Regular-50" transform="translate(1393.703125 0)"/>
    <use xlink:href="#AppleSDGothicNeo-Regular-4f" transform="translate(1447.109375 0)"/>
    <use xlink:href="#AppleSDGothicNeo-Regular-4d" transform="translate(1500.703125 0)"/>
    <use xlink:href="#AppleSDGothicNeo-Regular-5a" transform="translate(1523.40625 0)"/>
    <use xlink:href="#AppleSDGothicNeo-Regular-1" transform="translate(1571.609375 0)"/>
    <use xlink:href="#AppleSDGothicNeo-Regular-47" transform="translate(1597.90625 0)"/>
    <use xlink:href="#AppleSDGothicNeo-Regular-50" transform="translate(1630.203125 0)"/>
    <use xlink:href="#AppleSDGothicNeo-Regular-53" transform="translate(1683.609375 0)"/>
    <use xlink:href="#AppleSDGothicNeo-Regular-1" transform="translate(1718.203125 0)"/>
    <use xlink:href="#AppleSDGothicNeo-Regular-51" transform="translate(1744.5 0)"/>
    <use xlink:href="#AppleSDGothicNeo-Regular-50" transform="translate(1799 0)"/>
    <use xlink:href="#AppleSDGothicNeo-Regular-54" transform="translate(1852.40625 0)"/>
    <use xlink:href="#AppleSDGothicNeo-Regular-55" transform="translate(1893.90625 0)"/>
    <use xlink:href="#AppleSDGothicNeo-Regular-e" transform="translate(1926.8125 0)"/>
    <use xlink:href="#AppleSDGothicNeo-Regular-49" transform="translate(1970.015625 0)"/>
    <use xlink:href="#AppleSDGothicNeo-Regular-50" transform="translate(2023.609375 0)"/>
    <use xlink:href="#AppleSDGothicNeo-Regular-44" transform="translate(2077.015625 0)"/>
    <use xlink:href="#AppleSDGothicNeo-Regular-1" transform="translate(2122.015625 0)"/>
    <use xlink:href="#AppleSDGothicNeo-Regular-46" transform="translate(2148.3125 0)"/>
    <use xlink:href="#AppleSDGothicNeo-Regular-57" transform="translate(2197.8125 0)"/>
    <use xlink:href="#AppleSDGothicNeo-Regular-42" transform="translate(2245.515625 0)"/>
    <use xlink:href="#AppleSDGothicNeo-Regular-4d" transform="translate(2292.71875 0)"/>
    <use xlink:href="#AppleSDGothicNeo-Regular-56" transform="translate(2315.421875 0)"/>
    <use xlink:href="#AppleSDGothicNeo-Regular-42" transform="translate(2368.421875 0)"/>
    <use xlink:href="#AppleSDGothicNeo-Regular-55" transform="translate(2415.625 0)"/>
    <use xlink:href="#AppleSDGothicNeo-Regular-4a" transform="translate(2450.625 0)"/>
    <use xlink:href="#AppleSDGothicNeo-Regular-50" transform="translate(2473.328125 0)"/>
    <use xlink:href="#AppleSDGothicNeo-Regular-4f" transform="translate(2526.734375 0)"/>
    <use xlink:href="#AppleSDGothicNeo-Regular-1" transform="translate(2580.328125 0)"/>
    <use xlink:href="#AppleSDGothicNeo-Regular-42" transform="translate(2606.625 0)"/>
    <use xlink:href="#AppleSDGothicNeo-Regular-4f" transform="translate(2653.828125 0)"/>
    <use xlink:href="#AppleSDGothicNeo-Regular-45" transform="translate(2707.421875 0)"/>
    <use xlink:href="#AppleSDGothicNeo-Regular-1" transform="translate(2761.921875 0)"/>
    <use xlink:href="#AppleSDGothicNeo-Regular-46" transform="translate(2788.21875 0)"/>
    <use xlink:href="#AppleSDGothicNeo-Regular-59" transform="translate(2837.21875 0)"/>
    <use xlink:href="#AppleSDGothicNeo-Regular-51" transform="translate(2884.921875 0)"/>
    <use xlink:href="#AppleSDGothicNeo-Regular-4d" transform="translate(2939.421875 0)"/>
    <use xlink:href="#AppleSDGothicNeo-Regular-42" transform="translate(2962.125 0)"/>
    <use xlink:href="#AppleSDGothicNeo-Regular-4f" transform="translate(3009.328125 0)"/>
    <use xlink:href="#AppleSDGothicNeo-Regular-42" transform="translate(3062.921875 0)"/>
    <use xlink:href="#AppleSDGothicNeo-Regular-55" transform="translate(3110.125 0)"/>
    <use xlink:href="#AppleSDGothicNeo-Regular-4a" transform="translate(3145.125 0)"/>
    <use xlink:href="#AppleSDGothicNeo-Regular-50" transform="translate(3167.828125 0)"/>
    <use xlink:href="#AppleSDGothicNeo-Regular-4f" transform="translate(3221.234375 0)"/>
    <use xlink:href="#AppleSDGothicNeo-Regular-1c" transform="translate(3274.828125 0)"/>
    <use xlink:href="#AppleSDGothicNeo-Regular-1" transform="translate(3303.234375 0)"/>
    <use xlink:href="#AppleSDGothicNeo-Regular-55" transform="translate(3329.53125 0)"/>
    <use xlink:href="#AppleSDGothicNeo-Regular-49" transform="translate(3364.53125 0)"/>
    <use xlink:href="#AppleSDGothicNeo-Regular-46" transform="translate(3418.125 0)"/>
    <use xlink:href="#AppleSDGothicNeo-Regular-5a" transform="translate(3468.125 0)"/>
    <use xlink:href="#AppleSDGothicNeo-Regular-1" transform="translate(3516.328125 0)"/>
    <use xlink:href="#AppleSDGothicNeo-Regular-58" transform="translate(3542.625 0)"/>
    <use xlink:href="#AppleSDGothicNeo-Regular-46" transform="translate(3615.421875 0)"/>
    <use xlink:href="#AppleSDGothicNeo-Regular-53" transform="translate(3665.421875 0)"/>
    <use xlink:href="#AppleSDGothicNeo-Regular-46" transform="translate(3700.015625 0)"/>
    <use xlink:href="#AppleSDGothicNeo-Regular-1" transform="translate(3750.015625 0)"/>
    <use xlink:href="#AppleSDGothicNeo-Regular-4f" transform="translate(3776.3125 0)"/>
    <use xlink:href="#AppleSDGothicNeo-Regular-50" transform="translate(3829.90625 0)"/>
    <use xlink:href="#AppleSDGothicNeo-Regular-55" transform="translate(3883.3125 0)"/>
    <use xlink:href="#AppleSDGothicNeo-Regular-1" transform="translate(3918.3125 0)"/>
    <use xlink:href="#AppleSDGothicNeo-Regular-56" transform="translate(3944.609375 0)"/>
    <use xlink:href="#AppleSDGothicNeo-Regular-54" transform="translate(3997.609375 0)"/>
    <use xlink:href="#AppleSDGothicNeo-Regular-46" transform="translate(4039.109375 0)"/>
    <use xlink:href="#AppleSDGothicNeo-Regular-45" transform="translate(4089.109375 0)"/>
    <use xlink:href="#AppleSDGothicNeo-Regular-1" transform="translate(4143.609375 0)"/>
    <use xlink:href="#AppleSDGothicNeo-Regular-47" transform="translate(4169.90625 0)"/>
    <use xlink:href="#AppleSDGothicNeo-Regular-50" transform="translate(4202.203125 0)"/>
    <use xlink:href="#AppleSDGothicNeo-Regular-53" transform="translate(4255.609375 0)"/>
    <use xlink:href="#AppleSDGothicNeo-Regular-1" transform="translate(4290.203125 0)"/>
    <use xlink:href="#AppleSDGothicNeo-Regular-44" transform="translate(4316.5 0)"/>
    <use xlink:href="#AppleSDGothicNeo-Regular-42" transform="translate(4361.5 0)"/>
    <use xlink:href="#AppleSDGothicNeo-Regular-4f" transform="translate(4408.703125 0)"/>
    <use xlink:href="#AppleSDGothicNeo-Regular-45" transform="translate(4462.296875 0)"/>
    <use xlink:href="#AppleSDGothicNeo-Regular-4a" transform="translate(4516.796875 0)"/>
    <use xlink:href="#AppleSDGothicNeo-Regular-45" transform="translate(4539.5 0)"/>
    <use xlink:href="#AppleSDGothicNeo-Regular-42" transform="translate(4594 0)"/>
    <use xlink:href="#AppleSDGothicNeo-Regular-55" transform="translate(4641.203125 0)"/>
    <use xlink:href="#AppleSDGothicNeo-Regular-46" transform="translate(4676.203125 0)"/>
    <use xlink:href="#AppleSDGothicNeo-Regular-1" transform="translate(4726.203125 0)"/>
    <use xlink:href="#AppleSDGothicNeo-Regular-54" transform="translate(4752.5 0)"/>
    <use xlink:href="#AppleSDGothicNeo-Regular-46" transform="translate(4794 0)"/>
    <use xlink:href="#AppleSDGothicNeo-Regular-4d" transform="translate(4844 0)"/>
    <use xlink:href="#AppleSDGothicNeo-Regular-46" transform="translate(4866.703125 0)"/>
    <use xlink:href="#AppleSDGothicNeo-Regular-44" transform="translate(4916.703125 0)"/>
    <use xlink:href="#AppleSDGothicNeo-Regular-55" transform="translate(4962.609375 0)"/>
    <use xlink:href="#AppleSDGothicNeo-Regular-4a" transform="translate(4997.609375 0)"/>
    <use xlink:href="#AppleSDGothicNeo-Regular-50" transform="translate(5020.3125 0)"/>
    <use xlink:href="#AppleSDGothicNeo-Regular-4f" transform="translate(5073.71875 0)"/>
    <use xlink:href="#AppleSDGothicNeo-Regular-1" transform="translate(5127.3125 0)"/>
    <use xlink:href="#AppleSDGothicNeo-Regular-50" transform="translate(5153.609375 0)"/>
    <use xlink:href="#AppleSDGothicNeo-Regular-53" transform="translate(5207.015625 0)"/>
    <use xlink:href="#AppleSDGothicNeo-Regular-1" transform="translate(5241.609375 0)"/>
    <use xlink:href="#AppleSDGothicNeo-Regular-53" transform="translate(5267.90625 0)"/>
    <use xlink:href="#AppleSDGothicNeo-Regular-50" transform="translate(5302.5 0)"/>
    <use xlink:href="#AppleSDGothicNeo-Regular-56" transform="translate(5355.90625 0)"/>
    <use xlink:href="#AppleSDGothicNeo-Regular-55" transform="translate(5408.90625 0)"/>
    <use xlink:href="#AppleSDGothicNeo-Regular-4a" transform="translate(5443.90625 0)"/>
    <use xlink:href="#AppleSDGothicNeo-Regular-4f" transform="translate(5466.609375 0)"/>
    <use xlink:href="#AppleSDGothicNeo-Regular-48" transform="translate(5520.203125 0)"/>
    <use xlink:href="#AppleSDGothicNeo-Regular-f" transform="translate(5570.796875 0)"/>
   </g>
  </g>
 </g>
 <defs>
  <clipPath id="p5432e44582">
   <rect x="56.255" y="27.6" width="785.425" height="295.744"/>
  </clipPath>
  <clipPath id="p5483dfba6a">
   <rect x="56.255" y="369.144" width="785.425" height="73.936"/>
  </clipPath>
 </defs>
</svg>
