<?xml version="1.0" encoding="utf-8" standalone="no"?>
<!DOCTYPE svg PUBLIC "-//W3C//DTD SVG 1.1//EN"
  "http://www.w3.org/Graphics/SVG/1.1/DTD/svg11.dtd">
<svg xmlns:xlink="http://www.w3.org/1999/xlink" width="864pt" height="504pt" viewBox="0 0 864 504" xmlns="http://www.w3.org/2000/svg" version="1.1">
 <metadata>
  <rdf:RDF xmlns:dc="http://purl.org/dc/elements/1.1/" xmlns:cc="http://creativecommons.org/ns#" xmlns:rdf="http://www.w3.org/1999/02/22-rdf-syntax-ns#">
   <cc:Work>
    <dc:type rdf:resource="http://purl.org/dc/dcmitype/StillImage"/>
    <dc:date>2026-07-13T08:08:00.284456</dc:date>
    <dc:format>image/svg+xml</dc:format>
    <dc:creator>
     <cc:Agent>
      <dc:title>Matplotlib v3.11.0, https://matplotlib.org/</dc:title>
     </cc:Agent>
    </dc:creator>
   </cc:Work>
  </rdf:RDF>
 </metadata>
 <defs>
  <style type="text/css">*{stroke-linejoin: round; stroke-linecap: butt}</style>
 </defs>
 <g id="figure_1">
  <g id="patch_1">
   <path d="M 0 504 
L 864 504 
L 864 0 
L 0 0 
z
" style="fill: #ffffff"/>
  </g>
  <g id="axes_1">
   <g id="patch_2">
    <path d="M 51.8 323.344 
L 847.44 323.344 
L 847.44 27.6 
L 51.8 27.6 
z
" style="fill: #ffffff"/>
   </g>
   <g id="FillBetweenPolyCollection_1">
    <defs>
     <path id="m31e7f02053" d="M 87.965455 -460.979897 
L 87.965455 -453.800483 
L 92.098649 -450.502558 
L 96.231844 -447.095933 
L 100.365039 -442.201337 
L 104.498234 -435.868043 
L 108.631429 -428.579466 
L 112.764623 -420.282693 
L 116.897818 -411.633027 
L 121.031013 -402.673891 
L 125.164208 -393.891706 
L 129.297403 -384.427232 
L 133.430597 -375.294428 
L 137.563792 -366.775728 
L 141.696987 -357.729907 
L 145.830182 -349.024638 
L 149.963377 -340.572046 
L 154.096571 -332.193194 
L 158.229766 -324.264581 
L 162.362961 -317.239539 
L 166.496156 -309.58378 
L 170.629351 -303.321469 
L 174.762545 -295.685461 
L 178.89574 -289.152555 
L 183.028935 -282.60153 
L 187.16213 -276.424068 
L 191.295325 -270.158453 
L 195.428519 -263.481644 
L 199.561714 -257.440561 
L 203.694909 -252.744305 
L 207.828104 -247.00428 
L 211.961299 -241.804355 
L 216.094494 -236.596987 
L 220.227688 -231.702865 
L 224.360883 -226.619188 
L 228.494078 -223.093824 
L 232.627273 -218.355113 
L 236.760468 -216.087115 
L 240.893662 -211.481437 
L 245.026857 -208.185206 
L 249.160052 -205.830705 
L 253.293247 -202.670573 
L 257.426442 -200.126384 
L 261.559636 -198.262811 
L 265.692831 -197.089069 
L 269.826026 -197.081314 
L 273.959221 -196.956954 
L 278.092416 -197.98782 
L 282.22561 -198.417505 
L 286.358805 -200.265548 
L 290.492 -202.510211 
L 294.625195 -205.152006 
L 298.75839 -207.320813 
L 302.891584 -211.727486 
L 307.024779 -215.236337 
L 311.157974 -219.25465 
L 315.291169 -222.990288 
L 319.424364 -228.143175 
L 323.557558 -231.707252 
L 327.690753 -236.482559 
L 331.823948 -241.39922 
L 335.957143 -246.89075 
L 340.090338 -250.728941 
L 344.223532 -256.674944 
L 348.356727 -261.836307 
L 352.489922 -267.119403 
L 356.623117 -274.117908 
L 360.756312 -280.141065 
L 364.889506 -287.304301 
L 369.022701 -294.642901 
L 373.155896 -302.64952 
L 377.289091 -310.213993 
L 381.422286 -318.139131 
L 385.555481 -326.670481 
L 389.688675 -335.1775 
L 393.82187 -343.688195 
L 397.955065 -352.369993 
L 402.08826 -361.065951 
L 406.221455 -370.551109 
L 410.354649 -379.772579 
L 414.487844 -389.032729 
L 418.621039 -397.816588 
L 422.754234 -407.205983 
L 426.887429 -416.822197 
L 431.020623 -425.44041 
L 435.153818 -433.794805 
L 439.287013 -442.181592 
L 443.420208 -449.11897 
L 447.553403 -451.528421 
L 451.686597 -451.682188 
L 455.819792 -448.320701 
L 459.952987 -445.080529 
L 464.086182 -436.360988 
L 468.219377 -427.02513 
L 472.352571 -418.198523 
L 476.485766 -409.002506 
L 480.618961 -399.882605 
L 484.752156 -391.681542 
L 488.885351 -384.308045 
L 493.018545 -375.488603 
L 497.15174 -371.439764 
L 501.284935 -364.219816 
L 505.41813 -355.589724 
L 509.551325 -346.792639 
L 513.684519 -338.230891 
L 517.817714 -330.549586 
L 521.950909 -321.818689 
L 526.084104 -313.554851 
L 530.217299 -306.000712 
L 534.350494 -297.603899 
L 538.483688 -290.583681 
L 542.616883 -283.87131 
L 546.750078 -275.930193 
L 550.883273 -269.915906 
L 555.016468 -263.954425 
L 559.149662 -257.218921 
L 563.282857 -252.120737 
L 567.416052 -246.880706 
L 571.549247 -241.981351 
L 575.682442 -236.884896 
L 579.815636 -232.193153 
L 583.948831 -226.672993 
L 588.082026 -223.155752 
L 592.215221 -219.915358 
L 596.348416 -216.581069 
L 600.48161 -212.996051 
L 604.614805 -208.962278 
L 608.748 -205.435659 
L 612.881195 -202.492079 
L 617.01439 -199.608087 
L 621.147584 -198.267117 
L 625.280779 -196.381963 
L 629.413974 -194.531277 
L 633.547169 -194.098909 
L 637.680364 -194.526557 
L 641.813558 -195.813345 
L 645.946753 -197.397813 
L 650.079948 -199.681118 
L 654.213143 -202.679558 
L 658.346338 -206.196879 
L 662.479532 -208.790612 
L 666.612727 -213.186858 
L 670.745922 -217.33181 
L 674.879117 -221.882761 
L 679.012312 -226.437235 
L 683.145506 -229.372425 
L 687.278701 -235.010608 
L 691.411896 -238.975302 
L 695.545091 -245.165338 
L 699.678286 -250.614282 
L 703.811481 -256.154757 
L 707.944675 -262.513892 
L 712.07787 -267.477974 
L 716.211065 -274.8863 
L 720.34426 -280.540875 
L 724.477455 -286.926585 
L 728.610649 -294.715761 
L 732.743844 -301.966254 
L 736.877039 -309.033086 
L 741.010234 -316.400907 
L 745.143429 -324.090937 
L 749.276623 -332.048273 
L 753.409818 -340.264568 
L 757.543013 -348.723335 
L 761.676208 -357.391117 
L 765.809403 -366.282128 
L 769.942597 -375.347628 
L 774.075792 -384.880928 
L 778.208987 -393.77868 
L 782.342182 -402.556479 
L 786.475377 -411.02629 
L 790.608571 -419.602037 
L 794.741766 -427.565996 
L 798.874961 -434.831258 
L 803.008156 -443.039329 
L 807.141351 -447.746738 
L 811.274545 -450.540898 
L 811.274545 -460.240954 
L 811.274545 -460.240954 
L 807.141351 -458.202618 
L 803.008156 -454.100342 
L 798.874961 -449.788553 
L 794.741766 -445.189813 
L 790.608571 -436.734745 
L 786.475377 -428.395608 
L 782.342182 -419.954718 
L 778.208987 -410.813277 
L 774.075792 -401.331408 
L 769.942597 -392.313823 
L 765.809403 -383.075416 
L 761.676208 -373.961369 
L 757.543013 -365.128959 
L 753.409818 -356.380839 
L 749.276623 -347.792445 
L 745.143429 -339.276317 
L 741.010234 -330.943565 
L 736.877039 -323.175871 
L 732.743844 -315.482842 
L 728.610649 -307.713365 
L 724.477455 -300.139219 
L 720.34426 -293.014523 
L 716.211065 -286.147844 
L 712.07787 -280.371886 
L 707.944675 -272.984694 
L 703.811481 -266.733277 
L 699.678286 -260.788454 
L 695.545091 -255.510899 
L 691.411896 -249.691087 
L 687.278701 -243.85341 
L 683.145506 -239.264633 
L 679.012312 -234.041958 
L 674.879117 -229.704262 
L 670.745922 -225.473763 
L 666.612727 -221.098024 
L 662.479532 -218.990913 
L 658.346338 -215.094863 
L 654.213143 -212.485388 
L 650.079948 -209.764854 
L 645.946753 -208.80832 
L 641.813558 -207.173087 
L 637.680364 -206.449785 
L 633.547169 -206.312708 
L 629.413974 -206.601283 
L 625.280779 -207.544646 
L 621.147584 -208.197812 
L 617.01439 -210.415892 
L 612.881195 -213.55165 
L 608.748 -216.556785 
L 604.614805 -219.893001 
L 600.48161 -222.705122 
L 596.348416 -226.411807 
L 592.215221 -230.008649 
L 588.082026 -235.661666 
L 583.948831 -240.415907 
L 579.815636 -244.654362 
L 575.682442 -250.278583 
L 571.549247 -256.501674 
L 567.416052 -262.553659 
L 563.282857 -268.527057 
L 559.149662 -275.606872 
L 555.016468 -281.742227 
L 550.883273 -288.105347 
L 546.750078 -294.926406 
L 542.616883 -301.680013 
L 538.483688 -309.340727 
L 534.350494 -317.343669 
L 530.217299 -325.305609 
L 526.084104 -333.507158 
L 521.950909 -342.239292 
L 517.817714 -350.364802 
L 513.684519 -358.696026 
L 509.551325 -367.362382 
L 505.41813 -376.082911 
L 501.284935 -385.608864 
L 497.15174 -391.969331 
L 493.018545 -401.533892 
L 488.885351 -410.733046 
L 484.752156 -420.073593 
L 480.618961 -429.028655 
L 476.485766 -438.460657 
L 472.352571 -447.649999 
L 468.219377 -454.076533 
L 464.086182 -454.902817 
L 459.952987 -457.405982 
L 455.819792 -460.087338 
L 451.686597 -460.513232 
L 447.553403 -460.603648 
L 443.420208 -459.727951 
L 439.287013 -456.326681 
L 435.153818 -451.661092 
L 431.020623 -445.036006 
L 426.887429 -435.813214 
L 422.754234 -427.122041 
L 418.621039 -417.887935 
L 414.487844 -408.772148 
L 410.354649 -399.775297 
L 406.221455 -391.817646 
L 402.08826 -383.103022 
L 397.955065 -374.53933 
L 393.82187 -366.133706 
L 389.688675 -357.697329 
L 385.555481 -348.930841 
L 381.422286 -340.337723 
L 377.289091 -332.174472 
L 373.155896 -323.962941 
L 369.022701 -316.416077 
L 364.889506 -308.510079 
L 360.756312 -301.131911 
L 356.623117 -294.418321 
L 352.489922 -286.783515 
L 348.356727 -280.484864 
L 344.223532 -274.607203 
L 340.090338 -267.79065 
L 335.957143 -262.643663 
L 331.823948 -256.340405 
L 327.690753 -250.213322 
L 323.557558 -246.517608 
L 319.424364 -241.221881 
L 315.291169 -236.313202 
L 311.157974 -232.018143 
L 307.024779 -227.987689 
L 302.891584 -224.808673 
L 298.75839 -220.217002 
L 294.625195 -218.875638 
L 290.492 -215.207162 
L 286.358805 -212.231574 
L 282.22561 -209.518634 
L 278.092416 -207.809997 
L 273.959221 -206.934824 
L 269.826026 -207.165585 
L 265.692831 -206.027905 
L 261.559636 -208.591133 
L 257.426442 -210.647126 
L 253.293247 -212.501896 
L 249.160052 -215.086251 
L 245.026857 -216.367542 
L 240.893662 -219.550848 
L 236.760468 -224.413991 
L 232.627273 -228.000032 
L 228.494078 -231.796292 
L 224.360883 -235.260756 
L 220.227688 -239.75778 
L 216.094494 -244.51552 
L 211.961299 -251.086911 
L 207.828104 -257.28398 
L 203.694909 -261.951239 
L 199.561714 -268.551222 
L 195.428519 -274.280138 
L 191.295325 -281.200918 
L 187.16213 -287.417115 
L 183.028935 -294.675397 
L 178.89574 -301.89708 
L 174.762545 -309.16406 
L 170.629351 -316.292772 
L 166.496156 -323.979842 
L 162.362961 -331.823064 
L 158.229766 -340.112647 
L 154.096571 -348.157386 
L 149.963377 -356.399107 
L 145.830182 -365.781711 
L 141.696987 -374.290775 
L 137.563792 -382.921024 
L 133.430597 -391.82349 
L 129.297403 -400.167912 
L 125.164208 -409.691098 
L 121.031013 -419.4171 
L 116.897818 -428.247266 
L 112.764623 -435.444116 
L 108.631429 -442.741336 
L 104.498234 -450.25782 
L 100.365039 -457.551268 
L 96.231844 -460.237959 
L 92.098649 -462.957091 
L 87.965455 -460.979897 
z
" style="stroke: #a7dff3; stroke-opacity: 0.55"/>
    </defs>
    <g clip-path="url(#p955c06a056)">
     <use xlink:href="#m31e7f02053" x="0" y="504" style="fill: #a7dff3; fill-opacity: 0.55; stroke: #a7dff3; stroke-opacity: 0.55"/>
    </g>
   </g>
   <g id="matplotlib.axis_1">
    <g id="xtick_1">
     <g id="line2d_1">
      <defs>
       <path id="m6967d82698" d="M 0 0 
L 0 3.5 
" style="stroke: #000000; stroke-width: 0.8"/>
      </defs>
      <g>
       <use xlink:href="#m6967d82698" x="87.965455" y="323.344" style="stroke: #000000; stroke-width: 0.8"/>
      </g>
     </g>
     <g id="text_1">
      <!-- 0 -->
      <g transform="translate(84.815455 339.344) scale(0.1 -0.1)">
       <defs>
        <path id="AppleSDGothicNeo-Regular-11" d="M 2022 192 
C 2893 192 3558 787 3558 2240 
L 3558 2630 
C 3558 4122 2867 4634 2029 4634 
C 1184 4634 448 4122 448 2605 
L 448 2246 
C 448 794 1139 192 2022 192 
z
M 2022 614 
C 1350 614 992 1126 992 2195 
L 992 2669 
C 992 3744 1357 4211 2029 4211 
C 2688 4211 3040 3718 3040 2637 
L 3040 2163 
C 3040 1062 2682 614 2022 614 
z
" transform="scale(0.015625)"/>
       </defs>
       <use xlink:href="#AppleSDGothicNeo-Regular-11"/>
      </g>
     </g>
    </g>
    <g id="xtick_2">
     <g id="line2d_2">
      <g>
       <use xlink:href="#m6967d82698" x="191.295325" y="323.344" style="stroke: #000000; stroke-width: 0.8"/>
      </g>
     </g>
     <g id="text_2">
      <!-- 25 -->
      <g transform="translate(186.135168 339.344) scale(0.1 -0.1)">
       <defs>
        <path id="AppleSDGothicNeo-Regular-13" d="M 397 269 
L 3066 269 
L 3066 704 
L 1107 704 
L 1779 1382 
C 2522 2138 2970 2650 2970 3392 
C 2970 4160 2502 4640 1638 4640 
C 1152 4640 717 4422 448 4250 
L 595 3846 
C 845 4019 1190 4198 1555 4198 
C 2163 4198 2438 3917 2438 3347 
C 2438 2733 2029 2266 1421 1632 
L 397 570 
L 397 269 
z
" transform="scale(0.015625)"/>
        <path id="AppleSDGothicNeo-Regular-16" d="M 1395 192 
C 2342 192 2906 838 2906 1606 
C 2906 2509 2374 2918 1510 2918 
C 1331 2918 1069 2874 896 2829 
L 986 4134 
L 2752 4134 
L 2752 4570 
L 576 4570 
L 422 2317 
C 621 2406 1024 2528 1318 2528 
C 1990 2528 2374 2266 2374 1613 
C 2374 1005 1978 621 1299 621 
C 947 621 525 768 288 928 
L 192 518 
C 448 333 896 192 1395 192 
z
" transform="scale(0.015625)"/>
       </defs>
       <use xlink:href="#AppleSDGothicNeo-Regular-13"/>
       <use xlink:href="#AppleSDGothicNeo-Regular-16" transform="translate(53.296875 0)"/>
      </g>
     </g>
    </g>
    <g id="xtick_3">
     <g id="line2d_3">
      <g>
       <use xlink:href="#m6967d82698" x="294.625195" y="323.344" style="stroke: #000000; stroke-width: 0.8"/>
      </g>
     </g>
     <g id="text_3">
      <!-- 50 -->
      <g transform="translate(288.979882 339.344) scale(0.1 -0.1)">
       <use xlink:href="#AppleSDGothicNeo-Regular-16"/>
       <use xlink:href="#AppleSDGothicNeo-Regular-11" transform="translate(49.90625 0)"/>
      </g>
     </g>
    </g>
    <g id="xtick_4">
     <g id="line2d_4">
      <g>
       <use xlink:href="#m6967d82698" x="397.955065" y="323.344" style="stroke: #000000; stroke-width: 0.8"/>
      </g>
     </g>
     <g id="text_4">
      <!-- 75 -->
      <g transform="translate(393.009752 339.344) scale(0.1 -0.1)">
       <defs>
        <path id="AppleSDGothicNeo-Regular-18" d="M 710 243 
L 1274 243 
L 2957 4218 
L 2957 4544 
L 218 4544 
L 218 4115 
L 2400 4115 
L 710 243 
z
" transform="scale(0.015625)"/>
       </defs>
       <use xlink:href="#AppleSDGothicNeo-Regular-18"/>
       <use xlink:href="#AppleSDGothicNeo-Regular-16" transform="translate(49 0)"/>
      </g>
     </g>
    </g>
    <g id="xtick_5">
     <g id="line2d_5">
      <g>
       <use xlink:href="#m6967d82698" x="501.284935" y="323.344" style="stroke: #000000; stroke-width: 0.8"/>
      </g>
     </g>
     <g id="text_5">
      <!-- 100 -->
      <g transform="translate(493.199779 339.344) scale(0.1 -0.1)">
       <defs>
        <path id="AppleSDGothicNeo-Regular-12" d="M 1146 243 
L 1632 243 
L 1632 4634 
L 1363 4634 
L 352 4160 
L 352 3866 
L 1146 4051 
L 1146 243 
z
" transform="scale(0.015625)"/>
       </defs>
       <use xlink:href="#AppleSDGothicNeo-Regular-12"/>
       <use xlink:href="#AppleSDGothicNeo-Regular-11" transform="translate(35.703125 0)"/>
       <use xlink:href="#AppleSDGothicNeo-Regular-11" transform="translate(98.703125 0)"/>
      </g>
     </g>
    </g>
    <g id="xtick_6">
     <g id="line2d_6">
      <g>
       <use xlink:href="#m6967d82698" x="604.614805" y="323.344" style="stroke: #000000; stroke-width: 0.8"/>
      </g>
     </g>
     <g id="text_6">
      <!-- 125 -->
      <g transform="translate(597.669493 339.344) scale(0.1 -0.1)">
       <use xlink:href="#AppleSDGothicNeo-Regular-12"/>
       <use xlink:href="#AppleSDGothicNeo-Regular-13" transform="translate(35.703125 0)"/>
       <use xlink:href="#AppleSDGothicNeo-Regular-16" transform="translate(89 0)"/>
      </g>
     </g>
    </g>
    <g id="xtick_7">
     <g id="line2d_7">
      <g>
       <use xlink:href="#m6967d82698" x="707.944675" y="323.344" style="stroke: #000000; stroke-width: 0.8"/>
      </g>
     </g>
     <g id="text_7">
      <!-- 150 -->
      <g transform="translate(700.514207 339.344) scale(0.1 -0.1)">
       <use xlink:href="#AppleSDGothicNeo-Regular-12"/>
       <use xlink:href="#AppleSDGothicNeo-Regular-16" transform="translate(35.703125 0)"/>
       <use xlink:href="#AppleSDGothicNeo-Regular-11" transform="translate(85.609375 0)"/>
      </g>
     </g>
    </g>
    <g id="xtick_8">
     <g id="line2d_8">
      <g>
       <use xlink:href="#m6967d82698" x="811.274545" y="323.344" style="stroke: #000000; stroke-width: 0.8"/>
      </g>
     </g>
     <g id="text_8">
      <!-- 175 -->
      <g transform="translate(804.544077 339.344) scale(0.1 -0.1)">
       <use xlink:href="#AppleSDGothicNeo-Regular-12"/>
       <use xlink:href="#AppleSDGothicNeo-Regular-18" transform="translate(35.703125 0)"/>
       <use xlink:href="#AppleSDGothicNeo-Regular-16" transform="translate(84.703125 0)"/>
      </g>
     </g>
    </g>
    <g id="text_9">
     <!-- time index -->
     <g transform="translate(427.530156 355.344) scale(0.1 -0.1)">
      <defs>
       <path id="AppleSDGothicNeo-Regular-55" d="M 1472 230 
C 1747 230 1882 301 2010 358 
L 2010 691 
C 1882 653 1734 634 1600 634 
C 1235 634 1133 755 1133 1062 
L 1133 3034 
L 1946 3034 
L 1946 3437 
L 1133 3437 
L 1133 4192 
L 646 4192 
L 646 3437 
L 192 3437 
L 192 3034 
L 646 3034 
L 646 986 
C 646 448 973 230 1472 230 
z
" transform="scale(0.015625)"/>
       <path id="AppleSDGothicNeo-Regular-4a" d="M 486 269 
L 973 269 
L 973 3437 
L 486 3437 
L 486 269 
z
M 480 4077 
L 979 4077 
L 979 4589 
L 480 4589 
L 480 4077 
z
" transform="scale(0.015625)"/>
       <path id="AppleSDGothicNeo-Regular-4e" d="M 467 269 
L 954 269 
L 954 2848 
C 1210 2970 1491 3078 1760 3078 
C 2182 3078 2336 2918 2336 2534 
L 2336 269 
L 2822 269 
L 2822 2637 
C 2822 2714 2816 2771 2803 2848 
C 3104 2982 3373 3078 3622 3078 
C 4051 3078 4205 2918 4205 2534 
L 4205 269 
L 4685 269 
L 4685 2637 
C 4685 3251 4365 3501 3814 3501 
C 3456 3501 3085 3373 2739 3149 
L 2714 3149 
C 2566 3386 2310 3501 1952 3501 
C 1594 3501 1254 3354 960 3168 
L 934 3168 
L 934 3443 
L 467 3443 
L 467 269 
z
" transform="scale(0.015625)"/>
       <path id="AppleSDGothicNeo-Regular-46" d="M 1773 211 
C 2285 211 2650 371 2842 506 
L 2842 870 
C 2554 736 2272 634 1850 634 
C 1171 634 794 941 768 1734 
L 2931 1734 
L 2931 2010 
C 2931 2995 2522 3501 1651 3501 
C 922 3501 269 3008 269 1901 
L 269 1811 
C 269 819 774 211 1773 211 
z
M 1638 3104 
C 2157 3104 2419 2816 2419 2125 
L 768 2125 
C 819 2874 1242 3104 1638 3104 
z
" transform="scale(0.015625)"/>
       <path id="AppleSDGothicNeo-Regular-1" transform="scale(0.015625)"/>
       <path id="AppleSDGothicNeo-Regular-4f" d="M 467 269 
L 954 269 
L 954 2848 
C 1216 2970 1549 3078 1850 3078 
C 2355 3078 2490 2918 2490 2534 
L 2490 269 
L 2976 269 
L 2976 2637 
C 2976 3251 2675 3501 2054 3501 
C 1664 3501 1254 3360 960 3168 
L 934 3168 
L 934 3443 
L 467 3443 
L 467 269 
z
" transform="scale(0.015625)"/>
       <path id="AppleSDGothicNeo-Regular-45" d="M 1600 211 
C 2029 211 2336 346 2528 531 
L 2554 531 
L 2611 269 
L 3021 269 
L 3021 4851 
L 2528 4851 
L 2528 3290 
C 2355 3392 2086 3501 1696 3501 
C 877 3501 282 3002 282 1850 
L 282 1766 
C 282 595 966 211 1600 211 
z
M 1747 614 
C 1178 614 794 896 794 1786 
L 794 1914 
C 794 2771 1158 3085 1760 3085 
C 2086 3085 2381 2995 2528 2880 
L 2528 883 
C 2368 755 2118 614 1747 614 
z
" transform="scale(0.015625)"/>
       <path id="AppleSDGothicNeo-Regular-59" d="M 147 269 
L 685 269 
L 1510 1536 
L 2317 269 
L 2899 269 
L 1837 1882 
L 2822 3443 
L 2291 3443 
L 1568 2234 
L 774 3443 
L 198 3443 
L 1229 1882 
L 147 269 
z
" transform="scale(0.015625)"/>
      </defs>
      <use xlink:href="#AppleSDGothicNeo-Regular-55"/>
      <use xlink:href="#AppleSDGothicNeo-Regular-4a" transform="translate(35 0)"/>
      <use xlink:href="#AppleSDGothicNeo-Regular-4e" transform="translate(57.703125 0)"/>
      <use xlink:href="#AppleSDGothicNeo-Regular-46" transform="translate(138 0)"/>
      <use xlink:href="#AppleSDGothicNeo-Regular-1" transform="translate(188 0)"/>
      <use xlink:href="#AppleSDGothicNeo-Regular-4a" transform="translate(214.296875 0)"/>
      <use xlink:href="#AppleSDGothicNeo-Regular-4f" transform="translate(237 0)"/>
      <use xlink:href="#AppleSDGothicNeo-Regular-45" transform="translate(290.59375 0)"/>
      <use xlink:href="#AppleSDGothicNeo-Regular-46" transform="translate(345.09375 0)"/>
      <use xlink:href="#AppleSDGothicNeo-Regular-59" transform="translate(394.09375 0)"/>
     </g>
    </g>
   </g>
   <g id="matplotlib.axis_2">
    <g id="ytick_1">
     <g id="line2d_9">
      <defs>
       <path id="mae7cdb96ad" d="M 0 0 
L -3.5 0 
" style="stroke: #000000; stroke-width: 0.8"/>
      </defs>
      <g>
       <use xlink:href="#mae7cdb96ad" x="51.8" y="321.980031" style="stroke: #000000; stroke-width: 0.8"/>
      </g>
     </g>
     <g id="text_10">
      <!-- -1.5 -->
      <g transform="translate(30.239063 326.480031) scale(0.1 -0.1)">
       <defs>
        <path id="AppleSDGothicNeo-Regular-e" d="M 333 2138 
L 2445 2138 
L 2445 2560 
L 333 2560 
L 333 2138 
z
" transform="scale(0.015625)"/>
        <path id="AppleSDGothicNeo-Regular-f" d="M 269 109 
L 826 109 
L 826 678 
L 269 678 
L 269 109 
z
" transform="scale(0.015625)"/>
       </defs>
       <use xlink:href="#AppleSDGothicNeo-Regular-e"/>
       <use xlink:href="#AppleSDGothicNeo-Regular-12" transform="translate(37.40625 0)"/>
       <use xlink:href="#AppleSDGothicNeo-Regular-f" transform="translate(73.109375 0)"/>
       <use xlink:href="#AppleSDGothicNeo-Regular-16" transform="translate(95.703125 0)"/>
      </g>
     </g>
    </g>
    <g id="ytick_2">
     <g id="line2d_10">
      <g>
       <use xlink:href="#mae7cdb96ad" x="51.8" y="279.683072" style="stroke: #000000; stroke-width: 0.8"/>
      </g>
     </g>
     <g id="text_11">
      <!-- -1.0 -->
      <g transform="translate(28.929688 284.183072) scale(0.1 -0.1)">
       <use xlink:href="#AppleSDGothicNeo-Regular-e"/>
       <use xlink:href="#AppleSDGothicNeo-Regular-12" transform="translate(37.40625 0)"/>
       <use xlink:href="#AppleSDGothicNeo-Regular-f" transform="translate(73.109375 0)"/>
       <use xlink:href="#AppleSDGothicNeo-Regular-11" transform="translate(95.703125 0)"/>
      </g>
     </g>
    </g>
    <g id="ytick_3">
     <g id="line2d_11">
      <g>
       <use xlink:href="#mae7cdb96ad" x="51.8" y="237.386112" style="stroke: #000000; stroke-width: 0.8"/>
      </g>
     </g>
     <g id="text_12">
      <!-- -0.5 -->
      <g transform="translate(26.929688 241.886112) scale(0.1 -0.1)">
       <use xlink:href="#AppleSDGothicNeo-Regular-e"/>
       <use xlink:href="#AppleSDGothicNeo-Regular-11" transform="translate(43.203125 0)"/>
       <use xlink:href="#AppleSDGothicNeo-Regular-f" transform="translate(106.203125 0)"/>
       <use xlink:href="#AppleSDGothicNeo-Regular-16" transform="translate(128.796875 0)"/>
      </g>
     </g>
    </g>
    <g id="ytick_4">
     <g id="line2d_12">
      <g>
       <use xlink:href="#mae7cdb96ad" x="51.8" y="195.089152" style="stroke: #000000; stroke-width: 0.8"/>
      </g>
     </g>
     <g id="text_13">
      <!-- 0.0 -->
      <g transform="translate(29.940625 199.589152) scale(0.1 -0.1)">
       <use xlink:href="#AppleSDGothicNeo-Regular-11"/>
       <use xlink:href="#AppleSDGothicNeo-Regular-f" transform="translate(63 0)"/>
       <use xlink:href="#AppleSDGothicNeo-Regular-11" transform="translate(85.59375 0)"/>
      </g>
     </g>
    </g>
    <g id="ytick_5">
     <g id="line2d_13">
      <g>
       <use xlink:href="#mae7cdb96ad" x="51.8" y="152.792192" style="stroke: #000000; stroke-width: 0.8"/>
      </g>
     </g>
     <g id="text_14">
      <!-- 0.5 -->
      <g transform="translate(31.25 157.292192) scale(0.1 -0.1)">
       <use xlink:href="#AppleSDGothicNeo-Regular-11"/>
       <use xlink:href="#AppleSDGothicNeo-Regular-f" transform="translate(63 0)"/>
       <use xlink:href="#AppleSDGothicNeo-Regular-16" transform="translate(85.59375 0)"/>
      </g>
     </g>
    </g>
    <g id="ytick_6">
     <g id="line2d_14">
      <g>
       <use xlink:href="#mae7cdb96ad" x="51.8" y="110.495232" style="stroke: #000000; stroke-width: 0.8"/>
      </g>
     </g>
     <g id="text_15">
      <!-- 1.0 -->
      <g transform="translate(32.670313 114.995232) scale(0.1 -0.1)">
       <use xlink:href="#AppleSDGothicNeo-Regular-12"/>
       <use xlink:href="#AppleSDGothicNeo-Regular-f" transform="translate(35.703125 0)"/>
       <use xlink:href="#AppleSDGothicNeo-Regular-11" transform="translate(58.296875 0)"/>
      </g>
     </g>
    </g>
    <g id="ytick_7">
     <g id="line2d_15">
      <g>
       <use xlink:href="#mae7cdb96ad" x="51.8" y="68.198272" style="stroke: #000000; stroke-width: 0.8"/>
      </g>
     </g>
     <g id="text_16">
      <!-- 1.5 -->
      <g transform="translate(33.979688 72.698272) scale(0.1 -0.1)">
       <use xlink:href="#AppleSDGothicNeo-Regular-12"/>
       <use xlink:href="#AppleSDGothicNeo-Regular-f" transform="translate(35.703125 0)"/>
       <use xlink:href="#AppleSDGothicNeo-Regular-16" transform="translate(58.296875 0)"/>
      </g>
     </g>
    </g>
    <g id="text_17">
     <!-- value -->
     <g transform="translate(19.929688 186.502469) rotate(-90) scale(0.1 -0.1)">
      <defs>
       <path id="AppleSDGothicNeo-Regular-57" d="M 1331 269 
L 1818 269 
L 2995 3443 
L 2515 3443 
L 1600 890 
L 1574 890 
L 685 3443 
L 154 3443 
L 1331 269 
z
" transform="scale(0.015625)"/>
       <path id="AppleSDGothicNeo-Regular-42" d="M 1242 211 
C 1670 211 1939 365 2086 544 
L 2118 544 
L 2170 269 
L 2566 269 
L 2566 2566 
C 2566 3213 2176 3501 1478 3501 
C 1114 3501 806 3443 531 3328 
L 531 2976 
C 730 3034 979 3078 1286 3078 
C 1856 3078 2074 2950 2074 2458 
L 2074 2125 
L 1216 2022 
C 608 1952 250 1658 250 1101 
C 250 506 666 211 1242 211 
z
M 1363 595 
C 998 595 762 768 762 1114 
C 762 1478 954 1638 1344 1677 
L 2074 1760 
L 2074 826 
C 1939 691 1658 595 1363 595 
z
" transform="scale(0.015625)"/>
       <path id="AppleSDGothicNeo-Regular-4d" d="M 480 269 
L 973 269 
L 973 4851 
L 480 4851 
L 480 269 
z
" transform="scale(0.015625)"/>
       <path id="AppleSDGothicNeo-Regular-56" d="M 1421 211 
C 1805 211 2144 358 2432 557 
L 2458 557 
L 2502 269 
L 2925 269 
L 2925 3443 
L 2438 3443 
L 2438 883 
C 2176 755 1894 634 1555 634 
C 1088 634 941 800 941 1210 
L 941 3443 
L 448 3443 
L 448 1139 
C 448 525 800 211 1421 211 
z
" transform="scale(0.015625)"/>
      </defs>
      <use xlink:href="#AppleSDGothicNeo-Regular-57"/>
      <use xlink:href="#AppleSDGothicNeo-Regular-42" transform="translate(47.703125 0)"/>
      <use xlink:href="#AppleSDGothicNeo-Regular-4d" transform="translate(94.90625 0)"/>
      <use xlink:href="#AppleSDGothicNeo-Regular-56" transform="translate(117.609375 0)"/>
      <use xlink:href="#AppleSDGothicNeo-Regular-46" transform="translate(170.609375 0)"/>
     </g>
    </g>
   </g>
   <g id="line2d_16">
    <path d="M 87.965455 47.046655 
L 92.098649 48.169108 
L 96.231844 52.169904 
L 100.365039 55.572858 
L 104.498234 60.854815 
L 108.631429 67.243341 
L 116.897818 86.144648 
L 121.031013 93.456429 
L 125.164208 102.319753 
L 129.297403 111.682199 
L 133.430597 120.343391 
L 137.563792 128.659637 
L 145.830182 146.63062 
L 149.963377 154.917962 
L 154.096571 163.640402 
L 158.229766 171.958304 
L 162.362961 179.566714 
L 166.496156 187.751027 
L 170.629351 195.271515 
L 178.89574 209.56819 
L 187.16213 224.175567 
L 191.295325 230.204141 
L 195.428519 235.512986 
L 199.561714 241.965283 
L 203.694909 248.118717 
L 207.828104 252.795701 
L 216.094494 262.69873 
L 220.227688 268.222268 
L 224.360883 272.451632 
L 228.494078 277.162773 
L 236.760468 284.767889 
L 240.893662 288.805796 
L 245.026857 290.440444 
L 249.160052 293.438228 
L 253.293247 296.081435 
L 257.426442 297.997608 
L 261.559636 300.16565 
L 265.692831 300.880602 
L 269.826026 301.012778 
L 273.959221 301.947096 
L 282.22561 300.049982 
L 286.358805 297.507296 
L 290.492 296.468161 
L 294.625195 293.043364 
L 298.75839 291.053947 
L 302.891584 287.66853 
L 307.024779 283.865044 
L 311.157974 278.857135 
L 315.291169 273.505395 
L 319.424364 271.113122 
L 323.557558 265.197579 
L 327.690753 261.213971 
L 331.823948 255.562805 
L 335.957143 249.262926 
L 340.090338 243.484858 
L 344.223532 236.640959 
L 348.356727 230.075283 
L 356.623117 216.149029 
L 360.756312 209.429483 
L 364.889506 202.381553 
L 377.289091 180.479512 
L 389.688675 157.298856 
L 393.82187 149.347165 
L 397.955065 141.006182 
L 406.221455 123.313171 
L 410.354649 114.205528 
L 414.487844 105.488699 
L 418.621039 95.815559 
L 422.754234 87.139301 
L 426.887429 78.891709 
L 435.153818 60.315089 
L 439.287013 53.827867 
L 443.420208 49.325766 
L 447.553403 47.315939 
L 451.686597 46.807232 
L 455.819792 47.24675 
L 459.952987 48.241645 
L 464.086182 52.487482 
L 468.219377 59.912753 
L 472.352571 67.917936 
L 488.885351 103.989848 
L 493.018545 113.371685 
L 497.15174 122.083139 
L 501.284935 129.38121 
L 505.41813 139.035553 
L 509.551325 146.452328 
L 513.684519 155.21418 
L 517.817714 163.426492 
L 526.084104 180.311284 
L 534.350494 195.714128 
L 538.483688 203.423144 
L 546.750078 218.104298 
L 550.883273 224.726288 
L 555.016468 230.547968 
L 559.149662 236.911006 
L 563.282857 243.794655 
L 567.416052 248.345182 
L 575.682442 260.12929 
L 583.948831 270.454713 
L 588.082026 274.924101 
L 592.215221 279.715684 
L 596.348416 282.843143 
L 600.48161 287.3996 
L 604.614805 292.126573 
L 608.748 293.406361 
L 612.881195 296.445733 
L 617.01439 298.948838 
L 621.147584 301.101339 
L 625.280779 302.884681 
L 629.413974 303.351084 
L 637.680364 302.057076 
L 641.813558 300.775966 
L 650.079948 297.096357 
L 654.213143 294.882654 
L 658.346338 292.190185 
L 662.479532 290.04562 
L 666.612727 286.538484 
L 670.745922 282.244918 
L 674.879117 277.246372 
L 679.012312 273.51085 
L 683.145506 268.699774 
L 687.278701 264.564214 
L 691.411896 258.260705 
L 699.678286 247.515111 
L 703.811481 240.861678 
L 712.07787 228.603443 
L 716.211065 221.949967 
L 720.34426 214.689175 
L 724.477455 208.064258 
L 736.877039 185.218516 
L 741.010234 178.368457 
L 745.143429 170.809486 
L 761.676208 137.958571 
L 769.942597 120.561693 
L 774.075792 111.519074 
L 782.342182 93.808203 
L 790.608571 75.800634 
L 794.741766 67.523758 
L 798.874961 59.645073 
L 803.008156 55.005965 
L 807.141351 50.870038 
L 811.274545 49.204784 
L 811.274545 49.204784 
" clip-path="url(#p955c06a056)" style="fill: none; stroke: #2378a8; stroke-width: 1.2; stroke-linecap: square"/>
   </g>
   <g id="line2d_17">
    <path d="M 87.965455 49.104515 
L 92.098649 51.27067 
L 96.231844 54.566921 
L 100.365039 58.982942 
L 104.498234 65.49595 
L 108.631429 72.464651 
L 112.764623 80.247221 
L 116.897818 88.910189 
L 121.031013 97.163922 
L 125.164208 105.102558 
L 141.696987 139.658153 
L 145.830182 148.214271 
L 158.229766 172.223193 
L 162.362961 180.596392 
L 166.496156 187.607643 
L 170.629351 196.02599 
L 174.762545 203.460984 
L 178.89574 209.919732 
L 183.028935 216.645515 
L 191.295325 231.635365 
L 195.428519 237.507588 
L 199.561714 244.266019 
L 203.694909 249.045809 
L 207.828104 255.485362 
L 211.961299 261.6076 
L 216.094494 267.384846 
L 220.227688 271.902482 
L 224.360883 275.835477 
L 228.494078 281.366165 
L 232.627273 284.664877 
L 236.760468 287.438354 
L 240.893662 290.553006 
L 245.026857 294.402587 
L 249.160052 295.629887 
L 257.426442 299.886221 
L 261.559636 301.385033 
L 265.692831 300.87799 
L 269.826026 301.117363 
L 273.959221 301.625323 
L 278.092416 301.053287 
L 282.22561 299.393781 
L 290.492 294.776889 
L 294.625195 293.449744 
L 298.75839 290.723886 
L 302.891584 286.217922 
L 307.024779 282.582311 
L 311.157974 278.185536 
L 315.291169 273.46182 
L 319.424364 269.387402 
L 323.557558 264.578479 
L 327.690753 258.340649 
L 335.957143 246.853742 
L 344.223532 233.192592 
L 348.356727 227.193858 
L 352.489922 219.631094 
L 356.623117 212.762437 
L 360.756312 205.239348 
L 364.889506 198.133338 
L 369.022701 190.384126 
L 373.155896 183.314302 
L 381.422286 167.745851 
L 389.688675 151.448997 
L 406.221455 117.076823 
L 410.354649 108.853615 
L 422.754234 82.750417 
L 426.887429 74.334043 
L 431.020623 65.406552 
L 435.153818 60.823029 
L 439.287013 56.476359 
L 443.420208 53.371388 
L 447.553403 51.770825 
L 451.686597 51.875864 
L 455.819792 53.135161 
L 459.952987 55.971655 
L 464.086182 59.043459 
L 468.219377 64.597028 
L 472.352571 73.178181 
L 476.485766 80.576396 
L 484.752156 97.808899 
L 488.885351 106.356087 
L 493.018545 115.382269 
L 509.551325 149.436674 
L 513.684519 157.866703 
L 530.217299 189.997967 
L 538.483688 205.459686 
L 550.883273 227.642174 
L 555.016468 233.812472 
L 559.149662 241.068817 
L 563.282857 247.762955 
L 567.416052 253.898136 
L 579.815636 270.969798 
L 583.948831 275.248278 
L 588.082026 280.076352 
L 592.215221 284.448446 
L 596.348416 287.663457 
L 600.48161 291.71631 
L 604.614805 293.949335 
L 608.748 296.427662 
L 612.881195 299.246761 
L 617.01439 300.325144 
L 621.147584 302.13279 
L 625.280779 302.512104 
L 633.547169 302.365719 
L 637.680364 301.617851 
L 641.813558 300.244227 
L 645.946753 299.608437 
L 650.079948 297.000777 
L 654.213143 295.59679 
L 658.346338 291.931954 
L 666.612727 286.182647 
L 670.745922 281.161371 
L 674.879117 277.557339 
L 679.012312 272.973661 
L 683.145506 267.691699 
L 687.278701 262.766653 
L 691.411896 257.440824 
L 699.678286 245.842379 
L 703.811481 239.571775 
L 707.944675 232.81551 
L 712.07787 227.251447 
L 720.34426 212.095215 
L 724.477455 205.285522 
L 728.610649 197.543302 
L 732.743844 190.071361 
L 741.010234 174.441965 
L 745.143429 166.013809 
L 749.276623 157.971782 
L 753.409818 149.424064 
L 757.543013 141.389636 
L 769.942597 115.678477 
L 774.075792 106.963964 
L 778.208987 98.547741 
L 782.342182 89.813709 
L 786.475377 81.441212 
L 790.608571 73.991476 
L 794.741766 65.502636 
L 798.874961 59.22045 
L 803.008156 53.857737 
L 811.274545 49.034781 
L 811.274545 49.034781 
" clip-path="url(#p955c06a056)" style="fill: none; stroke: #e45756; stroke-width: 1.1; stroke-linecap: square"/>
   </g>
   <g id="patch_3">
    <path d="M 51.8 323.344 
L 51.8 27.6 
" style="fill: none; stroke: #000000; stroke-width: 0.8; stroke-linejoin: miter; stroke-linecap: square"/>
   </g>
   <g id="patch_4">
    <path d="M 847.44 323.344 
L 847.44 27.6 
" style="fill: none; stroke: #000000; stroke-width: 0.8; stroke-linejoin: miter; stroke-linecap: square"/>
   </g>
   <g id="patch_5">
    <path d="M 51.8 323.344 
L 847.44 323.344 
" style="fill: none; stroke: #000000; stroke-width: 0.8; stroke-linejoin: miter; stroke-linecap: square"/>
   </g>
   <g id="patch_6">
    <path d="M 51.8 27.6 
L 847.44 27.6 
" style="fill: none; stroke: #000000; stroke-width: 0.8; stroke-linejoin: miter; stroke-linecap: square"/>
   </g>
   <g id="text_18">
    <!-- primary score=0.282523, threshold=1.38303 -->
    <g transform="translate(59.7564 317.98656) scale(0.08 -0.08)">
     <defs>
      <path id="AppleSDGothicNeo-Regular-51" d="M 467 -678 
L 960 -678 
L 960 422 
C 1139 320 1408 211 1773 211 
C 2650 211 3206 698 3206 1856 
L 3206 1939 
C 3206 3117 2605 3501 1907 3501 
C 1498 3501 1165 3360 966 3181 
L 941 3181 
L 941 3437 
L 467 3437 
L 467 -678 
z
M 1728 614 
C 1395 614 1107 717 960 838 
L 960 2854 
C 1107 2957 1408 3085 1779 3085 
C 2362 3085 2694 2810 2694 1914 
L 2694 1786 
C 2694 934 2330 614 1728 614 
z
" transform="scale(0.015625)"/>
      <path id="AppleSDGothicNeo-Regular-53" d="M 467 269 
L 960 269 
L 960 2765 
C 1184 2925 1491 3040 1811 3040 
C 1862 3040 1958 3034 2042 3021 
L 2042 3462 
C 2010 3469 1920 3475 1850 3475 
C 1491 3475 1146 3290 966 3085 
L 934 3085 
L 934 3443 
L 467 3443 
L 467 269 
z
" transform="scale(0.015625)"/>
      <path id="AppleSDGothicNeo-Regular-5a" d="M 710 -685 
C 1235 -685 1498 -493 1709 70 
L 2957 3443 
L 2464 3443 
L 1606 1030 
L 1594 1030 
L 659 3443 
L 134 3443 
L 1350 384 
L 1254 122 
C 1120 -224 928 -275 621 -275 
C 506 -275 390 -243 314 -230 
L 314 -595 
C 403 -640 563 -685 710 -685 
z
" transform="scale(0.015625)"/>
      <path id="AppleSDGothicNeo-Regular-54" d="M 1274 218 
C 1971 218 2394 550 2394 1152 
C 2394 1702 2144 1907 1536 2067 
L 1216 2157 
C 877 2253 742 2368 742 2643 
C 742 2938 954 3085 1382 3085 
C 1734 3085 2054 3002 2221 2918 
L 2221 3315 
C 2054 3405 1779 3501 1357 3501 
C 627 3501 275 3136 275 2598 
C 275 2061 589 1850 1050 1722 
L 1363 1638 
C 1766 1523 1914 1395 1914 1101 
C 1914 813 1709 634 1203 634 
C 755 634 525 730 250 832 
L 250 442 
C 512 294 858 218 1274 218 
z
" transform="scale(0.015625)"/>
      <path id="AppleSDGothicNeo-Regular-44" d="M 1734 211 
C 2176 211 2458 339 2662 461 
L 2662 858 
C 2502 768 2221 634 1792 634 
C 1114 634 774 998 774 1811 
L 774 1965 
C 774 2694 1152 3085 1728 3085 
C 2144 3085 2349 3008 2630 2880 
L 2630 3290 
C 2419 3424 2170 3501 1754 3501 
C 934 3501 269 3014 269 1888 
L 269 1792 
C 269 749 826 211 1734 211 
z
" transform="scale(0.015625)"/>
      <path id="AppleSDGothicNeo-Regular-50" d="M 1702 211 
C 2560 211 3149 813 3149 1824 
L 3149 1914 
C 3149 2918 2605 3501 1709 3501 
C 851 3501 269 2899 269 1894 
L 269 1798 
C 269 787 806 211 1702 211 
z
M 1715 614 
C 1184 614 768 902 768 1786 
L 768 1946 
C 768 2688 1126 3098 1702 3098 
C 2221 3098 2650 2810 2650 1926 
L 2650 1766 
C 2650 1018 2291 614 1715 614 
z
" transform="scale(0.015625)"/>
      <path id="AppleSDGothicNeo-Regular-1e" d="M 422 2816 
L 2970 2816 
L 2970 3226 
L 422 3226 
L 422 2816 
z
M 422 1542 
L 2970 1542 
L 2970 1952 
L 422 1952 
L 422 1542 
z
" transform="scale(0.015625)"/>
      <path id="AppleSDGothicNeo-Regular-19" d="M 1837 186 
C 2765 186 3341 723 3341 1408 
C 3341 2054 2829 2362 2298 2534 
C 2739 2765 3168 3066 3168 3584 
C 3168 4250 2624 4640 1818 4640 
C 992 4640 461 4179 461 3558 
C 461 3008 838 2682 1299 2502 
C 826 2317 339 1926 339 1363 
C 339 659 922 186 1837 186 
z
M 1830 608 
C 1261 608 851 909 851 1382 
C 851 1856 1280 2163 1702 2310 
C 2445 2074 2797 1882 2797 1357 
C 2797 915 2381 608 1830 608 
z
M 1920 2720 
C 1350 2867 1005 3130 1005 3571 
C 1005 3981 1331 4218 1824 4218 
C 2355 4218 2637 3942 2637 3565 
C 2637 3155 2323 2899 1920 2720 
z
" transform="scale(0.015625)"/>
      <path id="AppleSDGothicNeo-Regular-14" d="M 1491 205 
C 2445 205 3053 730 3053 1478 
C 3053 2144 2630 2458 2074 2566 
C 2560 2726 2893 3040 2893 3571 
C 2893 4243 2368 4634 1600 4634 
C 1229 4634 723 4474 467 4301 
L 544 3891 
C 813 4045 1146 4198 1498 4198 
C 2022 4198 2362 4013 2362 3488 
C 2362 3008 1984 2726 1427 2726 
L 1043 2726 
L 1043 2291 
L 1459 2291 
C 2112 2291 2534 2029 2534 1478 
C 2534 947 2138 634 1427 634 
C 1107 634 678 755 435 915 
L 326 512 
C 563 346 992 205 1491 205 
z
" transform="scale(0.015625)"/>
      <path id="AppleSDGothicNeo-Regular-d" d="M 122 -563 
L 467 -563 
L 941 685 
L 358 685 
L 122 -563 
z
" transform="scale(0.015625)"/>
      <path id="AppleSDGothicNeo-Regular-49" d="M 467 269 
L 954 269 
L 954 2842 
C 1216 2970 1549 3078 1850 3078 
C 2355 3078 2490 2918 2490 2534 
L 2490 269 
L 2976 269 
L 2976 2630 
C 2976 3245 2675 3501 2054 3501 
C 1664 3501 1261 3366 986 3168 
L 954 3168 
L 954 4851 
L 467 4851 
L 467 269 
z
" transform="scale(0.015625)"/>
     </defs>
     <use xlink:href="#AppleSDGothicNeo-Regular-51"/>
     <use xlink:href="#AppleSDGothicNeo-Regular-53" transform="translate(54.5 0)"/>
     <use xlink:href="#AppleSDGothicNeo-Regular-4a" transform="translate(89.09375 0)"/>
     <use xlink:href="#AppleSDGothicNeo-Regular-4e" transform="translate(111.796875 0)"/>
     <use xlink:href="#AppleSDGothicNeo-Regular-42" transform="translate(192.09375 0)"/>
     <use xlink:href="#AppleSDGothicNeo-Regular-53" transform="translate(239.296875 0)"/>
     <use xlink:href="#AppleSDGothicNeo-Regular-5a" transform="translate(273.890625 0)"/>
     <use xlink:href="#AppleSDGothicNeo-Regular-1" transform="translate(322.09375 0)"/>
     <use xlink:href="#AppleSDGothicNeo-Regular-54" transform="translate(348.390625 0)"/>
     <use xlink:href="#AppleSDGothicNeo-Regular-44" transform="translate(389.890625 0)"/>
     <use xlink:href="#AppleSDGothicNeo-Regular-50" transform="translate(434.890625 0)"/>
     <use xlink:href="#AppleSDGothicNeo-Regular-53" transform="translate(488.296875 0)"/>
     <use xlink:href="#AppleSDGothicNeo-Regular-46" transform="translate(522.890625 0)"/>
     <use xlink:href="#AppleSDGothicNeo-Regular-1e" transform="translate(572.890625 0)"/>
     <use xlink:href="#AppleSDGothicNeo-Regular-11" transform="translate(625.1875 0)"/>
     <use xlink:href="#AppleSDGothicNeo-Regular-f" transform="translate(688.1875 0)"/>
     <use xlink:href="#AppleSDGothicNeo-Regular-13" transform="translate(710.78125 0)"/>
     <use xlink:href="#AppleSDGothicNeo-Regular-19" transform="translate(764.078125 0)"/>
     <use xlink:href="#AppleSDGothicNeo-Regular-13" transform="translate(820.578125 0)"/>
     <use xlink:href="#AppleSDGothicNeo-Regular-16" transform="translate(873.875 0)"/>
     <use xlink:href="#AppleSDGothicNeo-Regular-13" transform="translate(923.78125 0)"/>
     <use xlink:href="#AppleSDGothicNeo-Regular-14" transform="translate(977.078125 0)"/>
     <use xlink:href="#AppleSDGothicNeo-Regular-d" transform="translate(1028.578125 0)"/>
     <use xlink:href="#AppleSDGothicNeo-Regular-1" transform="translate(1051.171875 0)"/>
     <use xlink:href="#AppleSDGothicNeo-Regular-55" transform="translate(1077.46875 0)"/>
     <use xlink:href="#AppleSDGothicNeo-Regular-49" transform="translate(1112.46875 0)"/>
     <use xlink:href="#AppleSDGothicNeo-Regular-53" transform="translate(1166.0625 0)"/>
     <use xlink:href="#AppleSDGothicNeo-Regular-46" transform="translate(1200.65625 0)"/>
     <use xlink:href="#AppleSDGothicNeo-Regular-54" transform="translate(1250.65625 0)"/>
     <use xlink:href="#AppleSDGothicNeo-Regular-49" transform="translate(1292.15625 0)"/>
     <use xlink:href="#AppleSDGothicNeo-Regular-50" transform="translate(1345.75 0)"/>
     <use xlink:href="#AppleSDGothicNeo-Regular-4d" transform="translate(1399.15625 0)"/>
     <use xlink:href="#AppleSDGothicNeo-Regular-45" transform="translate(1421.859375 0)"/>
     <use xlink:href="#AppleSDGothicNeo-Regular-1e" transform="translate(1476.359375 0)"/>
     <use xlink:href="#AppleSDGothicNeo-Regular-12" transform="translate(1525.453125 0)"/>
     <use xlink:href="#AppleSDGothicNeo-Regular-f" transform="translate(1561.15625 0)"/>
     <use xlink:href="#AppleSDGothicNeo-Regular-14" transform="translate(1583.75 0)"/>
     <use xlink:href="#AppleSDGothicNeo-Regular-19" transform="translate(1637.34375 0)"/>
     <use xlink:href="#AppleSDGothicNeo-Regular-14" transform="translate(1694.84375 0)"/>
     <use xlink:href="#AppleSDGothicNeo-Regular-11" transform="translate(1748.4375 0)"/>
     <use xlink:href="#AppleSDGothicNeo-Regular-14" transform="translate(1809.34375 0)"/>
    </g>
   </g>
   <g id="text_19">
    <!-- 07_일반_검토_TP_1 | Adiac_normal_18 | TEST index 49 | 일반 검토 -->
    <g transform="translate(291.550938 21.6) scale(0.12 -0.12)">
     <defs>
      <path id="AppleSDGothicNeo-Regular-40" d="M 51 -365 
L 2099 -365 
L 2099 -38 
L 51 -38 
L 51 -365 
z
" transform="scale(0.015625)"/>
      <path id="AppleSDGothicNeo-Regular-a4c" d="M 4813 2317 
L 4813 5146 
L 4326 5146 
L 4326 2317 
L 4813 2317 
z
M 5018 -371 
L 5018 26 
L 1677 26 
L 1677 666 
L 4813 666 
L 4813 2022 
L 1171 2022 
L 1171 1626 
L 4326 1626 
L 4326 1043 
L 1190 1043 
L 1190 -371 
L 5018 -371 
z
M 1850 4973 
C 1043 4973 390 4461 390 3706 
C 390 2944 1050 2458 1850 2458 
C 2650 2458 3296 2950 3296 3706 
C 3296 4467 2650 4973 1850 4973 
z
M 1850 4550 
C 2432 4550 2822 4205 2822 3706 
C 2822 3213 2432 2880 1850 2880 
C 1293 2880 864 3213 864 3712 
C 864 4211 1299 4550 1850 4550 
z
" transform="scale(0.015625)"/>
      <path id="AppleSDGothicNeo-Regular-7c8" d="M 5395 3072 
L 5395 3482 
L 4544 3482 
L 4544 5146 
L 4058 5146 
L 4058 1088 
L 4544 1088 
L 4544 3072 
L 5395 3072 
z
M 4762 -256 
L 4762 147 
L 1472 147 
L 1472 1466 
L 986 1466 
L 986 -256 
L 4762 -256 
z
M 3059 1933 
L 3059 4768 
L 2566 4768 
L 2566 3808 
L 902 3808 
L 902 4768 
L 416 4768 
L 416 1933 
L 3059 1933 
z
M 2566 2330 
L 902 2330 
L 902 3411 
L 2566 3411 
L 2566 2330 
z
" transform="scale(0.015625)"/>
      <path id="AppleSDGothicNeo-Regular-468" d="M 4326 3277 
L 4326 1907 
L 4813 1907 
L 4813 5146 
L 4326 5146 
L 4326 3686 
L 3098 3686 
L 3098 3277 
L 4326 3277 
z
M 4813 -371 
L 4813 1613 
L 1210 1613 
L 1210 -371 
L 4813 -371 
z
M 4326 32 
L 1696 32 
L 1696 1210 
L 4326 1210 
L 4326 32 
z
M 563 4762 
L 563 4346 
L 2541 4346 
C 2387 3379 1414 2547 288 2285 
L 544 1875 
C 1984 2336 2989 3270 3078 4762 
L 563 4762 
z
" transform="scale(0.015625)"/>
      <path id="AppleSDGothicNeo-Regular-c37" d="M 4506 3027 
L 4506 3437 
L 1325 3437 
L 1325 4262 
L 4672 4262 
L 4672 4672 
L 838 4672 
L 838 1766 
L 2515 1766 
L 2515 672 
L 243 672 
L 243 262 
L 5293 262 
L 5293 672 
L 3002 672 
L 3002 1766 
L 4736 1766 
L 4736 2170 
L 1325 2170 
L 1325 3027 
L 4506 3027 
z
" transform="scale(0.015625)"/>
      <path id="AppleSDGothicNeo-Regular-35" d="M 1491 269 
L 1990 269 
L 1990 4134 
L 3302 4134 
L 3302 4563 
L 179 4563 
L 179 4134 
L 1491 4134 
L 1491 269 
z
" transform="scale(0.015625)"/>
      <path id="AppleSDGothicNeo-Regular-31" d="M 550 269 
L 1062 269 
L 1062 1990 
L 1939 1990 
C 2758 1990 3309 2451 3309 3296 
C 3309 4102 2842 4563 1875 4563 
L 550 4563 
L 550 269 
z
M 1062 2413 
L 1062 4134 
L 1824 4134 
C 2522 4134 2765 3872 2765 3264 
C 2765 2688 2502 2413 1837 2413 
L 1062 2413 
z
" transform="scale(0.015625)"/>
      <path id="AppleSDGothicNeo-Regular-5d" d="M 691 -384 
L 1114 -384 
L 1114 4941 
L 691 4941 
L 691 -384 
z
" transform="scale(0.015625)"/>
      <path id="AppleSDGothicNeo-Regular-22" d="M 122 269 
L 608 269 
L 1050 1523 
L 2771 1523 
L 3226 269 
L 3757 269 
L 2189 4563 
L 1696 4563 
L 122 269 
z
M 1901 3885 
L 1914 3885 
L 2611 1952 
L 1197 1952 
L 1901 3885 
z
" transform="scale(0.015625)"/>
      <path id="AppleSDGothicNeo-Regular-26" d="M 557 269 
L 3123 269 
L 3123 698 
L 1062 698 
L 1062 2266 
L 2637 2266 
L 2637 2694 
L 1062 2694 
L 1062 4134 
L 3104 4134 
L 3104 4563 
L 557 4563 
L 557 269 
z
" transform="scale(0.015625)"/>
      <path id="AppleSDGothicNeo-Regular-34" d="M 1472 192 
C 2477 192 2912 691 2912 1440 
C 2912 2163 2509 2432 1875 2650 
L 1453 2784 
C 966 2950 813 3130 813 3539 
C 813 3949 1107 4205 1632 4205 
C 2106 4205 2445 4083 2694 3968 
L 2694 4397 
C 2458 4512 2157 4634 1651 4634 
C 755 4634 314 4160 314 3494 
C 314 2842 653 2534 1254 2336 
L 1670 2189 
C 2189 2022 2400 1843 2400 1402 
C 2400 934 2112 627 1453 627 
C 998 627 576 742 250 909 
L 250 480 
C 538 320 947 192 1472 192 
z
" transform="scale(0.015625)"/>
      <path id="AppleSDGothicNeo-Regular-15" d="M 2214 166 
L 2682 166 
L 2682 1171 
L 3398 1171 
L 3398 1587 
L 2682 1587 
L 2682 4621 
L 2285 4621 
L 186 1555 
L 186 1171 
L 2214 1171 
L 2214 166 
z
M 730 1587 
L 2214 3814 
L 2214 1587 
L 730 1587 
z
" transform="scale(0.015625)"/>
      <path id="AppleSDGothicNeo-Regular-1a" d="M 1696 4634 
C 826 4634 307 3949 307 3142 
C 307 2323 896 1798 1619 1798 
C 2093 1798 2445 2010 2675 2272 
C 2630 1069 2227 621 1523 621 
C 1178 621 832 723 646 832 
L 506 461 
C 704 326 1107 192 1549 192 
C 2586 192 3187 979 3187 2477 
L 3187 2758 
C 3187 3974 2656 4634 1696 4634 
z
M 1702 4211 
C 2387 4211 2675 3686 2675 2886 
L 2675 2765 
C 2496 2515 2131 2227 1722 2227 
C 1203 2227 813 2515 813 3187 
C 813 3782 1146 4211 1702 4211 
z
" transform="scale(0.015625)"/>
     </defs>
     <use xlink:href="#AppleSDGothicNeo-Regular-11"/>
     <use xlink:href="#AppleSDGothicNeo-Regular-18" transform="translate(59.796875 0)"/>
     <use xlink:href="#AppleSDGothicNeo-Regular-40" transform="translate(108.796875 0)"/>
     <use xlink:href="#AppleSDGothicNeo-Regular-a4c" transform="translate(142.390625 0)"/>
     <use xlink:href="#AppleSDGothicNeo-Regular-7c8" transform="translate(228.890625 0)"/>
     <use xlink:href="#AppleSDGothicNeo-Regular-40" transform="translate(315.390625 0)"/>
     <use xlink:href="#AppleSDGothicNeo-Regular-468" transform="translate(348.984375 0)"/>
     <use xlink:href="#AppleSDGothicNeo-Regular-c37" transform="translate(435.484375 0)"/>
     <use xlink:href="#AppleSDGothicNeo-Regular-40" transform="translate(521.984375 0)"/>
     <use xlink:href="#AppleSDGothicNeo-Regular-35" transform="translate(555.578125 0)"/>
     <use xlink:href="#AppleSDGothicNeo-Regular-31" transform="translate(609.984375 0)"/>
     <use xlink:href="#AppleSDGothicNeo-Regular-40" transform="translate(665.28125 0)"/>
     <use xlink:href="#AppleSDGothicNeo-Regular-12" transform="translate(698.875 0)"/>
     <use xlink:href="#AppleSDGothicNeo-Regular-1" transform="translate(734.578125 0)"/>
     <use xlink:href="#AppleSDGothicNeo-Regular-5d" transform="translate(760.875 0)"/>
     <use xlink:href="#AppleSDGothicNeo-Regular-1" transform="translate(789.078125 0)"/>
     <use xlink:href="#AppleSDGothicNeo-Regular-22" transform="translate(815.375 0)"/>
     <use xlink:href="#AppleSDGothicNeo-Regular-45" transform="translate(875.875 0)"/>
     <use xlink:href="#AppleSDGothicNeo-Regular-4a" transform="translate(930.375 0)"/>
     <use xlink:href="#AppleSDGothicNeo-Regular-42" transform="translate(953.078125 0)"/>
     <use xlink:href="#AppleSDGothicNeo-Regular-44" transform="translate(1000.28125 0)"/>
     <use xlink:href="#AppleSDGothicNeo-Regular-40" transform="translate(1045.28125 0)"/>
     <use xlink:href="#AppleSDGothicNeo-Regular-4f" transform="translate(1078.875 0)"/>
     <use xlink:href="#AppleSDGothicNeo-Regular-50" transform="translate(1132.46875 0)"/>
     <use xlink:href="#AppleSDGothicNeo-Regular-53" transform="translate(1185.875 0)"/>
     <use xlink:href="#AppleSDGothicNeo-Regular-4e" transform="translate(1220.46875 0)"/>
     <use xlink:href="#AppleSDGothicNeo-Regular-42" transform="translate(1300.765625 0)"/>
     <use xlink:href="#AppleSDGothicNeo-Regular-4d" transform="translate(1347.96875 0)"/>
     <use xlink:href="#AppleSDGothicNeo-Regular-40" transform="translate(1370.671875 0)"/>
     <use xlink:href="#AppleSDGothicNeo-Regular-12" transform="translate(1404.265625 0)"/>
     <use xlink:href="#AppleSDGothicNeo-Regular-19" transform="translate(1439.96875 0)"/>
     <use xlink:href="#AppleSDGothicNeo-Regular-1" transform="translate(1497.46875 0)"/>
     <use xlink:href="#AppleSDGothicNeo-Regular-5d" transform="translate(1523.765625 0)"/>
     <use xlink:href="#AppleSDGothicNeo-Regular-1" transform="translate(1551.96875 0)"/>
     <use xlink:href="#AppleSDGothicNeo-Regular-35" transform="translate(1578.265625 0)"/>
     <use xlink:href="#AppleSDGothicNeo-Regular-26" transform="translate(1632.671875 0)"/>
     <use xlink:href="#AppleSDGothicNeo-Regular-34" transform="translate(1687.671875 0)"/>
     <use xlink:href="#AppleSDGothicNeo-Regular-35" transform="translate(1738.078125 0)"/>
     <use xlink:href="#AppleSDGothicNeo-Regular-1" transform="translate(1792.484375 0)"/>
     <use xlink:href="#AppleSDGothicNeo-Regular-4a" transform="translate(1818.78125 0)"/>
     <use xlink:href="#AppleSDGothicNeo-Regular-4f" transform="translate(1841.484375 0)"/>
     <use xlink:href="#AppleSDGothicNeo-Regular-45" transform="translate(1895.078125 0)"/>
     <use xlink:href="#AppleSDGothicNeo-Regular-46" transform="translate(1949.578125 0)"/>
     <use xlink:href="#AppleSDGothicNeo-Regular-59" transform="translate(1998.578125 0)"/>
     <use xlink:href="#AppleSDGothicNeo-Regular-1" transform="translate(2046.28125 0)"/>
     <use xlink:href="#AppleSDGothicNeo-Regular-15" transform="translate(2072.578125 0)"/>
     <use xlink:href="#AppleSDGothicNeo-Regular-1a" transform="translate(2125.984375 0)"/>
     <use xlink:href="#AppleSDGothicNeo-Regular-1" transform="translate(2181.390625 0)"/>
     <use xlink:href="#AppleSDGothicNeo-Regular-5d" transform="translate(2207.6875 0)"/>
     <use xlink:href="#AppleSDGothicNeo-Regular-1" transform="translate(2235.890625 0)"/>
     <use xlink:href="#AppleSDGothicNeo-Regular-a4c" transform="translate(2262.1875 0)"/>
     <use xlink:href="#AppleSDGothicNeo-Regular-7c8" transform="translate(2348.6875 0)"/>
     <use xlink:href="#AppleSDGothicNeo-Regular-1" transform="translate(2435.1875 0)"/>
     <use xlink:href="#AppleSDGothicNeo-Regular-468" transform="translate(2461.484375 0)"/>
     <use xlink:href="#AppleSDGothicNeo-Regular-c37" transform="translate(2547.984375 0)"/>
    </g>
   </g>
   <g id="legend_1">
    <g id="patch_7">
     <path d="M 737.83875 319.344 
L 841.84 319.344 
Q 843.44 319.344 843.44 317.744 
L 843.44 277.744 
Q 843.44 276.144 841.84 276.144 
L 737.83875 276.144 
Q 736.23875 276.144 736.23875 277.744 
L 736.23875 317.744 
Q 736.23875 319.344 737.83875 319.344 
z
" style="fill: #ffffff; opacity: 0.8; stroke: #cccccc; stroke-linejoin: miter"/>
    </g>
    <g id="patch_8">
     <path d="M 739.43875 286.544 
L 755.43875 286.544 
L 755.43875 280.944 
L 739.43875 280.944 
z
" style="fill: #a7dff3; fill-opacity: 0.55; stroke: #a7dff3; stroke-opacity: 0.55; stroke-linejoin: miter"/>
    </g>
    <g id="text_20">
     <!-- TRAIN normal p05-p95 -->
     <g transform="translate(761.83875 286.544) scale(0.08 -0.08)">
      <defs>
       <path id="AppleSDGothicNeo-Regular-33" d="M 550 269 
L 1056 269 
L 1056 2112 
L 1875 2112 
L 2944 269 
L 3520 269 
L 2381 2202 
L 2381 2234 
C 2912 2400 3219 2746 3219 3360 
C 3219 4134 2746 4563 1798 4563 
L 550 4563 
L 550 269 
z
M 1056 2509 
L 1056 4134 
L 1760 4134 
C 2419 4134 2682 3885 2682 3354 
C 2682 2797 2438 2509 1766 2509 
L 1056 2509 
z
" transform="scale(0.015625)"/>
       <path id="AppleSDGothicNeo-Regular-2a" d="M 576 269 
L 1082 269 
L 1082 4563 
L 576 4563 
L 576 269 
z
" transform="scale(0.015625)"/>
       <path id="AppleSDGothicNeo-Regular-2f" d="M 550 269 
L 1024 269 
L 1024 3872 
L 1043 3872 
L 3174 269 
L 3699 269 
L 3699 4563 
L 3238 4563 
L 3238 1126 
L 3219 1126 
L 1152 4563 
L 550 4563 
L 550 269 
z
" transform="scale(0.015625)"/>
      </defs>
      <use xlink:href="#AppleSDGothicNeo-Regular-35"/>
      <use xlink:href="#AppleSDGothicNeo-Regular-33" transform="translate(54.40625 0)"/>
      <use xlink:href="#AppleSDGothicNeo-Regular-22" transform="translate(112.203125 0)"/>
      <use xlink:href="#AppleSDGothicNeo-Regular-2a" transform="translate(172.703125 0)"/>
      <use xlink:href="#AppleSDGothicNeo-Regular-2f" transform="translate(198.609375 0)"/>
      <use xlink:href="#AppleSDGothicNeo-Regular-1" transform="translate(265.203125 0)"/>
      <use xlink:href="#AppleSDGothicNeo-Regular-4f" transform="translate(291.5 0)"/>
      <use xlink:href="#AppleSDGothicNeo-Regular-50" transform="translate(345.09375 0)"/>
      <use xlink:href="#AppleSDGothicNeo-Regular-53" transform="translate(398.5 0)"/>
      <use xlink:href="#AppleSDGothicNeo-Regular-4e" transform="translate(433.09375 0)"/>
      <use xlink:href="#AppleSDGothicNeo-Regular-42" transform="translate(513.390625 0)"/>
      <use xlink:href="#AppleSDGothicNeo-Regular-4d" transform="translate(560.59375 0)"/>
      <use xlink:href="#AppleSDGothicNeo-Regular-1" transform="translate(583.296875 0)"/>
      <use xlink:href="#AppleSDGothicNeo-Regular-51" transform="translate(609.59375 0)"/>
      <use xlink:href="#AppleSDGothicNeo-Regular-11" transform="translate(664.09375 0)"/>
      <use xlink:href="#AppleSDGothicNeo-Regular-16" transform="translate(727.09375 0)"/>
      <use xlink:href="#AppleSDGothicNeo-Regular-e" transform="translate(777 0)"/>
      <use xlink:href="#AppleSDGothicNeo-Regular-51" transform="translate(820.203125 0)"/>
      <use xlink:href="#AppleSDGothicNeo-Regular-1a" transform="translate(874.703125 0)"/>
      <use xlink:href="#AppleSDGothicNeo-Regular-16" transform="translate(930.109375 0)"/>
     </g>
    </g>
    <g id="line2d_18">
     <path d="M 739.43875 297.344 
L 747.43875 297.344 
L 755.43875 297.344 
" style="fill: none; stroke: #2378a8; stroke-width: 1.2; stroke-linecap: square"/>
    </g>
    <g id="text_21">
     <!-- TRAIN normal median -->
     <g transform="translate(761.83875 300.144) scale(0.08 -0.08)">
      <use xlink:href="#AppleSDGothicNeo-Regular-35"/>
      <use xlink:href="#AppleSDGothicNeo-Regular-33" transform="translate(54.40625 0)"/>
      <use xlink:href="#AppleSDGothicNeo-Regular-22" transform="translate(112.203125 0)"/>
      <use xlink:href="#AppleSDGothicNeo-Regular-2a" transform="translate(172.703125 0)"/>
      <use xlink:href="#AppleSDGothicNeo-Regular-2f" transform="translate(198.609375 0)"/>
      <use xlink:href="#AppleSDGothicNeo-Regular-1" transform="translate(265.203125 0)"/>
      <use xlink:href="#AppleSDGothicNeo-Regular-4f" transform="translate(291.5 0)"/>
      <use xlink:href="#AppleSDGothicNeo-Regular-50" transform="translate(345.09375 0)"/>
      <use xlink:href="#AppleSDGothicNeo-Regular-53" transform="translate(398.5 0)"/>
      <use xlink:href="#AppleSDGothicNeo-Regular-4e" transform="translate(433.09375 0)"/>
      <use xlink:href="#AppleSDGothicNeo-Regular-42" transform="translate(513.390625 0)"/>
      <use xlink:href="#AppleSDGothicNeo-Regular-4d" transform="translate(560.59375 0)"/>
      <use xlink:href="#AppleSDGothicNeo-Regular-1" transform="translate(583.296875 0)"/>
      <use xlink:href="#AppleSDGothicNeo-Regular-4e" transform="translate(609.59375 0)"/>
      <use xlink:href="#AppleSDGothicNeo-Regular-46" transform="translate(689.890625 0)"/>
      <use xlink:href="#AppleSDGothicNeo-Regular-45" transform="translate(739.890625 0)"/>
      <use xlink:href="#AppleSDGothicNeo-Regular-4a" transform="translate(794.390625 0)"/>
      <use xlink:href="#AppleSDGothicNeo-Regular-42" transform="translate(817.09375 0)"/>
      <use xlink:href="#AppleSDGothicNeo-Regular-4f" transform="translate(864.296875 0)"/>
     </g>
    </g>
    <g id="line2d_19">
     <path d="M 739.43875 310.944 
L 747.43875 310.944 
L 755.43875 310.944 
" style="fill: none; stroke: #e45756; stroke-width: 1.1; stroke-linecap: square"/>
    </g>
    <g id="text_22">
     <!-- selected TEST series -->
     <g transform="translate(761.83875 313.744) scale(0.08 -0.08)">
      <use xlink:href="#AppleSDGothicNeo-Regular-54"/>
      <use xlink:href="#AppleSDGothicNeo-Regular-46" transform="translate(41.5 0)"/>
      <use xlink:href="#AppleSDGothicNeo-Regular-4d" transform="translate(91.5 0)"/>
      <use xlink:href="#AppleSDGothicNeo-Regular-46" transform="translate(114.203125 0)"/>
      <use xlink:href="#AppleSDGothicNeo-Regular-44" transform="translate(164.203125 0)"/>
      <use xlink:href="#AppleSDGothicNeo-Regular-55" transform="translate(210.109375 0)"/>
      <use xlink:href="#AppleSDGothicNeo-Regular-46" transform="translate(245.109375 0)"/>
      <use xlink:href="#AppleSDGothicNeo-Regular-45" transform="translate(295.109375 0)"/>
      <use xlink:href="#AppleSDGothicNeo-Regular-1" transform="translate(349.609375 0)"/>
      <use xlink:href="#AppleSDGothicNeo-Regular-35" transform="translate(375.90625 0)"/>
      <use xlink:href="#AppleSDGothicNeo-Regular-26" transform="translate(430.3125 0)"/>
      <use xlink:href="#AppleSDGothicNeo-Regular-34" transform="translate(485.3125 0)"/>
      <use xlink:href="#AppleSDGothicNeo-Regular-35" transform="translate(535.71875 0)"/>
      <use xlink:href="#AppleSDGothicNeo-Regular-1" transform="translate(590.125 0)"/>
      <use xlink:href="#AppleSDGothicNeo-Regular-54" transform="translate(616.421875 0)"/>
      <use xlink:href="#AppleSDGothicNeo-Regular-46" transform="translate(657.921875 0)"/>
      <use xlink:href="#AppleSDGothicNeo-Regular-53" transform="translate(707.921875 0)"/>
      <use xlink:href="#AppleSDGothicNeo-Regular-4a" transform="translate(742.515625 0)"/>
      <use xlink:href="#AppleSDGothicNeo-Regular-46" transform="translate(765.21875 0)"/>
      <use xlink:href="#AppleSDGothicNeo-Regular-54" transform="translate(815.21875 0)"/>
     </g>
    </g>
   </g>
  </g>
  <g id="axes_2">
   <g id="patch_9">
    <path d="M 51.8 443.08 
L 847.44 443.08 
L 847.44 369.144 
L 51.8 369.144 
z
" style="fill: #ffffff"/>
   </g>
   <g id="PathCollection_1">
    <defs>
     <path id="m9b7bb1c475" d="M -3 3 
L 3 -3 
M -3 -3 
L 3 3 
" style="stroke: #e45756; stroke-width: 1.5"/>
    </defs>
    <g clip-path="url(#pbb601dcd77)">
     <use xlink:href="#m9b7bb1c475" x="831.839216" y="416.984941" style="fill: #e45756; stroke: #e45756; stroke-width: 1.5"/>
    </g>
   </g>
   <g id="PathCollection_2">
    <defs>
     <path id="m16c1f5e9d6" d="M 0 3 
C 0.795609 3 1.55874 2.683901 2.12132 2.12132 
C 2.683901 1.55874 3 0.795609 3 0 
C 3 -0.795609 2.683901 -1.55874 2.12132 -2.12132 
C 1.55874 -2.683901 0.795609 -3 0 -3 
C -0.795609 -3 -1.55874 -2.683901 -2.12132 -2.12132 
C -2.683901 -1.55874 -3 -0.795609 -3 0 
C -3 0.795609 -2.683901 1.55874 -2.12132 2.12132 
C -1.55874 2.683901 -0.795609 3 0 3 
z
" style="stroke: #111111"/>
    </defs>
    <g clip-path="url(#pbb601dcd77)">
     <use xlink:href="#m16c1f5e9d6" x="831.839216" y="395.239059" style="fill: #111111; stroke: #111111"/>
    </g>
   </g>
   <g id="matplotlib.axis_3">
    <g id="xtick_9">
     <g id="line2d_20">
      <g>
       <use xlink:href="#m6967d82698" x="67.400784" y="443.08" style="stroke: #000000; stroke-width: 0.8"/>
      </g>
     </g>
     <g id="text_23">
      <!-- 0 -->
      <g transform="translate(64.250784 459.08) scale(0.1 -0.1)">
       <use xlink:href="#AppleSDGothicNeo-Regular-11"/>
      </g>
     </g>
    </g>
    <g id="xtick_10">
     <g id="line2d_21">
      <g>
       <use xlink:href="#m6967d82698" x="223.408627" y="443.08" style="stroke: #000000; stroke-width: 0.8"/>
      </g>
     </g>
     <g id="text_24">
      <!-- 10 -->
      <g transform="translate(218.473471 459.08) scale(0.1 -0.1)">
       <use xlink:href="#AppleSDGothicNeo-Regular-12"/>
       <use xlink:href="#AppleSDGothicNeo-Regular-11" transform="translate(35.703125 0)"/>
      </g>
     </g>
    </g>
    <g id="xtick_11">
     <g id="line2d_22">
      <g>
       <use xlink:href="#m6967d82698" x="379.416471" y="443.08" style="stroke: #000000; stroke-width: 0.8"/>
      </g>
     </g>
     <g id="text_25">
      <!-- 20 -->
      <g transform="translate(373.626627 459.08) scale(0.1 -0.1)">
       <use xlink:href="#AppleSDGothicNeo-Regular-13"/>
       <use xlink:href="#AppleSDGothicNeo-Regular-11" transform="translate(52.796875 0)"/>
      </g>
     </g>
    </g>
    <g id="xtick_12">
     <g id="line2d_23">
      <g>
       <use xlink:href="#m6967d82698" x="535.424314" y="443.08" style="stroke: #000000; stroke-width: 0.8"/>
      </g>
     </g>
     <g id="text_26">
      <!-- 30 -->
      <g transform="translate(529.594626 459.08) scale(0.1 -0.1)">
       <use xlink:href="#AppleSDGothicNeo-Regular-14"/>
       <use xlink:href="#AppleSDGothicNeo-Regular-11" transform="translate(53.59375 0)"/>
      </g>
     </g>
    </g>
    <g id="xtick_13">
     <g id="line2d_24">
      <g>
       <use xlink:href="#m6967d82698" x="691.432157" y="443.08" style="stroke: #000000; stroke-width: 0.8"/>
      </g>
     </g>
     <g id="text_27">
      <!-- 40 -->
      <g transform="translate(685.507157 459.08) scale(0.1 -0.1)">
       <use xlink:href="#AppleSDGothicNeo-Regular-15"/>
       <use xlink:href="#AppleSDGothicNeo-Regular-11" transform="translate(55.5 0)"/>
      </g>
     </g>
    </g>
    <g id="xtick_14">
     <g id="line2d_25">
      <g>
       <use xlink:href="#m6967d82698" x="847.44" y="443.08" style="stroke: #000000; stroke-width: 0.8"/>
      </g>
     </g>
     <g id="text_28">
      <!-- 50 -->
      <g transform="translate(841.794688 459.08) scale(0.1 -0.1)">
       <use xlink:href="#AppleSDGothicNeo-Regular-16"/>
       <use xlink:href="#AppleSDGothicNeo-Regular-11" transform="translate(49.90625 0)"/>
      </g>
     </g>
    </g>
    <g id="text_29">
     <!-- TEST sample index -->
     <g transform="translate(410.094219 475.08) scale(0.1 -0.1)">
      <use xlink:href="#AppleSDGothicNeo-Regular-35"/>
      <use xlink:href="#AppleSDGothicNeo-Regular-26" transform="translate(54.40625 0)"/>
      <use xlink:href="#AppleSDGothicNeo-Regular-34" transform="translate(109.40625 0)"/>
      <use xlink:href="#AppleSDGothicNeo-Regular-35" transform="translate(159.8125 0)"/>
      <use xlink:href="#AppleSDGothicNeo-Regular-1" transform="translate(214.21875 0)"/>
      <use xlink:href="#AppleSDGothicNeo-Regular-54" transform="translate(240.515625 0)"/>
      <use xlink:href="#AppleSDGothicNeo-Regular-42" transform="translate(282.015625 0)"/>
      <use xlink:href="#AppleSDGothicNeo-Regular-4e" transform="translate(329.21875 0)"/>
      <use xlink:href="#AppleSDGothicNeo-Regular-51" transform="translate(409.515625 0)"/>
      <use xlink:href="#AppleSDGothicNeo-Regular-4d" transform="translate(464.015625 0)"/>
      <use xlink:href="#AppleSDGothicNeo-Regular-46" transform="translate(486.71875 0)"/>
      <use xlink:href="#AppleSDGothicNeo-Regular-1" transform="translate(536.71875 0)"/>
      <use xlink:href="#AppleSDGothicNeo-Regular-4a" transform="translate(563.015625 0)"/>
      <use xlink:href="#AppleSDGothicNeo-Regular-4f" transform="translate(585.71875 0)"/>
      <use xlink:href="#AppleSDGothicNeo-Regular-45" transform="translate(639.3125 0)"/>
      <use xlink:href="#AppleSDGothicNeo-Regular-46" transform="translate(693.8125 0)"/>
      <use xlink:href="#AppleSDGothicNeo-Regular-59" transform="translate(742.8125 0)"/>
     </g>
    </g>
   </g>
   <g id="matplotlib.axis_4"/>
   <g id="patch_10">
    <path d="M 51.8 443.08 
L 51.8 369.144 
" style="fill: none; stroke: #000000; stroke-width: 0.8; stroke-linejoin: miter; stroke-linecap: square"/>
   </g>
   <g id="patch_11">
    <path d="M 847.44 443.08 
L 847.44 369.144 
" style="fill: none; stroke: #000000; stroke-width: 0.8; stroke-linejoin: miter; stroke-linecap: square"/>
   </g>
   <g id="patch_12">
    <path d="M 51.8 443.08 
L 847.44 443.08 
" style="fill: none; stroke: #000000; stroke-width: 0.8; stroke-linejoin: miter; stroke-linecap: square"/>
   </g>
   <g id="patch_13">
    <path d="M 51.8 369.144 
L 847.44 369.144 
" style="fill: none; stroke: #000000; stroke-width: 0.8; stroke-linejoin: miter; stroke-linecap: square"/>
   </g>
   <g id="legend_2">
    <g id="patch_14">
     <path d="M 728.46875 402.744 
L 841.84 402.744 
Q 843.44 402.744 843.44 401.144 
L 843.44 374.744 
Q 843.44 373.144 841.84 373.144 
L 728.46875 373.144 
Q 726.86875 373.144 726.86875 374.744 
L 726.86875 401.144 
Q 726.86875 402.744 728.46875 402.744 
z
" style="fill: #ffffff; opacity: 0.8; stroke: #cccccc; stroke-linejoin: miter"/>
    </g>
    <g id="PathCollection_3">
     <g>
      <use xlink:href="#m9b7bb1c475" x="738.06875" y="381.444" style="fill: #e45756; stroke: #e45756; stroke-width: 1.5"/>
     </g>
    </g>
    <g id="text_30">
     <!-- actual anomaly (post-hoc) -->
     <g transform="translate(752.46875 383.544) scale(0.08 -0.08)">
      <defs>
       <path id="AppleSDGothicNeo-Regular-9" d="M 1472 -384 
L 1914 -384 
C 1344 256 883 1235 883 2221 
L 883 2374 
C 883 3392 1344 4307 1914 4941 
L 1472 4941 
C 883 4339 365 3469 365 2330 
L 365 2227 
C 365 1094 883 218 1472 -384 
z
" transform="scale(0.015625)"/>
       <path id="AppleSDGothicNeo-Regular-a" d="M 115 -384 
L 550 -384 
C 1146 218 1651 1088 1651 2227 
L 1651 2330 
C 1651 3462 1146 4339 550 4941 
L 115 4941 
C 678 4301 1146 3322 1146 2336 
L 1146 2176 
C 1146 1165 678 250 115 -384 
z
" transform="scale(0.015625)"/>
      </defs>
      <use xlink:href="#AppleSDGothicNeo-Regular-42"/>
      <use xlink:href="#AppleSDGothicNeo-Regular-44" transform="translate(47.203125 0)"/>
      <use xlink:href="#AppleSDGothicNeo-Regular-55" transform="translate(93.109375 0)"/>
      <use xlink:href="#AppleSDGothicNeo-Regular-56" transform="translate(128.109375 0)"/>
      <use xlink:href="#AppleSDGothicNeo-Regular-42" transform="translate(181.109375 0)"/>
      <use xlink:href="#AppleSDGothicNeo-Regular-4d" transform="translate(228.3125 0)"/>
      <use xlink:href="#AppleSDGothicNeo-Regular-1" transform="translate(251.015625 0)"/>
      <use xlink:href="#AppleSDGothicNeo-Regular-42" transform="translate(277.3125 0)"/>
      <use xlink:href="#AppleSDGothicNeo-Regular-4f" transform="translate(324.515625 0)"/>
      <use xlink:href="#AppleSDGothicNeo-Regular-50" transform="translate(378.109375 0)"/>
      <use xlink:href="#AppleSDGothicNeo-Regular-4e" transform="translate(431.515625 0)"/>
      <use xlink:href="#AppleSDGothicNeo-Regular-42" transform="translate(511.8125 0)"/>
      <use xlink:href="#AppleSDGothicNeo-Regular-4d" transform="translate(559.015625 0)"/>
      <use xlink:href="#AppleSDGothicNeo-Regular-5a" transform="translate(581.71875 0)"/>
      <use xlink:href="#AppleSDGothicNeo-Regular-1" transform="translate(629.921875 0)"/>
      <use xlink:href="#AppleSDGothicNeo-Regular-9" transform="translate(656.21875 0)"/>
      <use xlink:href="#AppleSDGothicNeo-Regular-51" transform="translate(687.921875 0)"/>
      <use xlink:href="#AppleSDGothicNeo-Regular-50" transform="translate(742.421875 0)"/>
      <use xlink:href="#AppleSDGothicNeo-Regular-54" transform="translate(795.828125 0)"/>
      <use xlink:href="#AppleSDGothicNeo-Regular-55" transform="translate(837.328125 0)"/>
      <use xlink:href="#AppleSDGothicNeo-Regular-e" transform="translate(870.234375 0)"/>
      <use xlink:href="#AppleSDGothicNeo-Regular-49" transform="translate(913.4375 0)"/>
      <use xlink:href="#AppleSDGothicNeo-Regular-50" transform="translate(967.03125 0)"/>
      <use xlink:href="#AppleSDGothicNeo-Regular-44" transform="translate(1020.4375 0)"/>
      <use xlink:href="#AppleSDGothicNeo-Regular-a" transform="translate(1065.4375 0)"/>
     </g>
    </g>
    <g id="PathCollection_4">
     <g>
      <use xlink:href="#m16c1f5e9d6" x="738.06875" y="395.044" style="fill: #111111; stroke: #111111"/>
     </g>
    </g>
    <g id="text_31">
     <!-- selected case -->
     <g transform="translate(752.46875 397.144) scale(0.08 -0.08)">
      <use xlink:href="#AppleSDGothicNeo-Regular-54"/>
      <use xlink:href="#AppleSDGothicNeo-Regular-46" transform="translate(41.5 0)"/>
      <use xlink:href="#AppleSDGothicNeo-Regular-4d" transform="translate(91.5 0)"/>
      <use xlink:href="#AppleSDGothicNeo-Regular-46" transform="translate(114.203125 0)"/>
      <use xlink:href="#AppleSDGothicNeo-Regular-44" transform="translate(164.203125 0)"/>
      <use xlink:href="#AppleSDGothicNeo-Regular-55" transform="translate(210.109375 0)"/>
      <use xlink:href="#AppleSDGothicNeo-Regular-46" transform="translate(245.109375 0)"/>
      <use xlink:href="#AppleSDGothicNeo-Regular-45" transform="translate(295.109375 0)"/>
      <use xlink:href="#AppleSDGothicNeo-Regular-1" transform="translate(349.609375 0)"/>
      <use xlink:href="#AppleSDGothicNeo-Regular-44" transform="translate(375.90625 0)"/>
      <use xlink:href="#AppleSDGothicNeo-Regular-42" transform="translate(420.90625 0)"/>
      <use xlink:href="#AppleSDGothicNeo-Regular-54" transform="translate(468.109375 0)"/>
      <use xlink:href="#AppleSDGothicNeo-Regular-46" transform="translate(509.609375 0)"/>
     </g>
    </g>
   </g>
  </g>
  <g id="text_32">
   <!-- Actual anomaly labels are shown only for post-hoc evaluation and explanation; they were not used for candidate selection or routing. -->
   <g transform="translate(8.64 501.48) scale(0.08 -0.08)">
    <defs>
     <path id="AppleSDGothicNeo-Regular-43" d="M 1626 198 
C 2650 198 3206 800 3206 1862 
L 3206 1946 
C 3206 3136 2579 3501 1971 3501 
C 1536 3501 1235 3379 992 3232 
L 960 3232 
L 960 4851 
L 467 4851 
L 467 371 
C 749 262 1254 198 1626 198 
z
M 1651 608 
C 1331 608 1107 659 960 723 
L 960 2880 
C 1126 2957 1421 3085 1747 3085 
C 2387 3085 2694 2797 2694 1914 
L 2694 1786 
C 2694 877 2221 608 1651 608 
z
" transform="scale(0.015625)"/>
     <path id="AppleSDGothicNeo-Regular-58" d="M 1082 269 
L 1581 269 
L 2330 2688 
L 2349 2688 
L 3085 269 
L 3578 269 
L 4480 3443 
L 4013 3443 
L 3360 902 
L 3334 902 
L 2566 3443 
L 2144 3443 
L 1382 902 
L 1357 902 
L 704 3443 
L 179 3443 
L 1082 269 
z
" transform="scale(0.015625)"/>
     <path id="AppleSDGothicNeo-Regular-47" d="M 653 269 
L 1146 269 
L 1146 3034 
L 1875 3034 
L 1875 3437 
L 1146 3437 
L 1146 3866 
C 1146 4307 1357 4486 1734 4486 
C 1952 4486 2086 4461 2182 4442 
L 2182 4787 
C 2067 4845 1894 4896 1645 4896 
C 1069 4896 653 4595 653 3898 
L 653 3437 
L 186 3437 
L 186 3034 
L 653 3034 
L 653 269 
z
" transform="scale(0.015625)"/>
     <path id="AppleSDGothicNeo-Regular-1c" d="M 416 -122 
L 774 -122 
L 1222 1094 
L 646 1094 
L 416 -122 
z
M 646 3021 
L 1203 3021 
L 1203 3590 
L 646 3590 
L 646 3021 
z
" transform="scale(0.015625)"/>
     <path id="AppleSDGothicNeo-Regular-48" d="M 1574 -672 
C 2656 -672 3091 -243 3091 301 
C 3091 890 2662 1062 2086 1062 
L 1210 1062 
C 998 1062 896 1126 896 1299 
C 896 1402 960 1478 1043 1555 
C 1210 1498 1389 1466 1587 1466 
C 2253 1466 2778 1805 2778 2483 
L 2778 2490 
C 2778 2739 2694 2931 2547 3072 
L 3117 3072 
L 3117 3450 
L 2042 3450 
C 1901 3482 1754 3501 1594 3501 
C 896 3501 397 3136 397 2477 
L 397 2464 
C 397 2086 550 1830 794 1670 
C 550 1491 435 1344 435 1146 
C 435 934 576 800 755 749 
L 755 717 
C 429 608 154 410 154 70 
C 154 -390 608 -672 1574 -672 
z
M 1562 -288 
C 934 -288 666 -147 666 134 
C 666 403 851 544 1094 627 
L 2010 627 
C 2426 627 2579 531 2579 237 
C 2579 -96 2310 -288 1562 -288 
z
M 1587 1850 
C 1165 1850 883 2054 883 2470 
L 883 2502 
C 883 2899 1152 3130 1587 3130 
C 2016 3130 2285 2931 2285 2496 
L 2285 2464 
C 2285 2054 2029 1850 1587 1850 
z
" transform="scale(0.015625)"/>
    </defs>
    <use xlink:href="#AppleSDGothicNeo-Regular-22"/>
    <use xlink:href="#AppleSDGothicNeo-Regular-44" transform="translate(60.5 0)"/>
    <use xlink:href="#AppleSDGothicNeo-Regular-55" transform="translate(106.40625 0)"/>
    <use xlink:href="#AppleSDGothicNeo-Regular-56" transform="translate(141.40625 0)"/>
    <use xlink:href="#AppleSDGothicNeo-Regular-42" transform="translate(194.40625 0)"/>
    <use xlink:href="#AppleSDGothicNeo-Regular-4d" transform="translate(241.609375 0)"/>
    <use xlink:href="#AppleSDGothicNeo-Regular-1" transform="translate(264.3125 0)"/>
    <use xlink:href="#AppleSDGothicNeo-Regular-42" transform="translate(290.609375 0)"/>
    <use xlink:href="#AppleSDGothicNeo-Regular-4f" transform="translate(337.8125 0)"/>
    <use xlink:href="#AppleSDGothicNeo-Regular-50" transform="translate(391.40625 0)"/>
    <use xlink:href="#AppleSDGothicNeo-Regular-4e" transform="translate(444.8125 0)"/>
    <use xlink:href="#AppleSDGothicNeo-Regular-42" transform="translate(525.109375 0)"/>
    <use xlink:href="#AppleSDGothicNeo-Regular-4d" transform="translate(572.3125 0)"/>
    <use xlink:href="#AppleSDGothicNeo-Regular-5a" transform="translate(595.015625 0)"/>
    <use xlink:href="#AppleSDGothicNeo-Regular-1" transform="translate(643.21875 0)"/>
    <use xlink:href="#AppleSDGothicNeo-Regular-4d" transform="translate(669.515625 0)"/>
    <use xlink:href="#AppleSDGothicNeo-Regular-42" transform="translate(692.21875 0)"/>
    <use xlink:href="#AppleSDGothicNeo-Regular-43" transform="translate(739.421875 0)"/>
    <use xlink:href="#AppleSDGothicNeo-Regular-46" transform="translate(793.921875 0)"/>
    <use xlink:href="#AppleSDGothicNeo-Regular-4d" transform="translate(843.921875 0)"/>
    <use xlink:href="#AppleSDGothicNeo-Regular-54" transform="translate(866.625 0)"/>
    <use xlink:href="#AppleSDGothicNeo-Regular-1" transform="translate(908.125 0)"/>
    <use xlink:href="#AppleSDGothicNeo-Regular-42" transform="translate(934.421875 0)"/>
    <use xlink:href="#AppleSDGothicNeo-Regular-53" transform="translate(981.625 0)"/>
    <use xlink:href="#AppleSDGothicNeo-Regular-46" transform="translate(1016.21875 0)"/>
    <use xlink:href="#AppleSDGothicNeo-Regular-1" transform="translate(1066.21875 0)"/>
    <use xlink:href="#AppleSDGothicNeo-Regular-54" transform="translate(1092.515625 0)"/>
    <use xlink:href="#AppleSDGothicNeo-Regular-49" transform="translate(1134.015625 0)"/>
    <use xlink:href="#AppleSDGothicNeo-Regular-50" transform="translate(1187.609375 0)"/>
    <use xlink:href="#AppleSDGothicNeo-Regular-58" transform="translate(1241.015625 0)"/>
    <use xlink:href="#AppleSDGothicNeo-Regular-4f" transform="translate(1313.8125 0)"/>
    <use xlink:href="#AppleSDGothicNeo-Regular-1" transform="translate(1367.40625 0)"/>
    <use xlink:href="#AppleSDGothicNeo-Regular-50" transform="translate(1393.703125 0)"/>
    <use xlink:href="#AppleSDGothicNeo-Regular-4f" transform="translate(1447.109375 0)"/>
    <use xlink:href="#AppleSDGothicNeo-Regular-4d" transform="translate(1500.703125 0)"/>
    <use xlink:href="#AppleSDGothicNeo-Regular-5a" transform="translate(1523.40625 0)"/>
    <use xlink:href="#AppleSDGothicNeo-Regular-1" transform="translate(1571.609375 0)"/>
    <use xlink:href="#AppleSDGothicNeo-Regular-47" transform="translate(1597.90625 0)"/>
    <use xlink:href="#AppleSDGothicNeo-Regular-50" transform="translate(1630.203125 0)"/>
    <use xlink:href="#AppleSDGothicNeo-Regular-53" transform="translate(1683.609375 0)"/>
    <use xlink:href="#AppleSDGothicNeo-Regular-1" transform="translate(1718.203125 0)"/>
    <use xlink:href="#AppleSDGothicNeo-Regular-51" transform="translate(1744.5 0)"/>
    <use xlink:href="#AppleSDGothicNeo-Regular-50" transform="translate(1799 0)"/>
    <use xlink:href="#AppleSDGothicNeo-Regular-54" transform="translate(1852.40625 0)"/>
    <use xlink:href="#AppleSDGothicNeo-Regular-55" transform="translate(1893.90625 0)"/>
    <use xlink:href="#AppleSDGothicNeo-Regular-e" transform="translate(1926.8125 0)"/>
    <use xlink:href="#AppleSDGothicNeo-Regular-49" transform="translate(1970.015625 0)"/>
    <use xlink:href="#AppleSDGothicNeo-Regular-50" transform="translate(2023.609375 0)"/>
    <use xlink:href="#AppleSDGothicNeo-Regular-44" transform="translate(2077.015625 0)"/>
    <use xlink:href="#AppleSDGothicNeo-Regular-1" transform="translate(2122.015625 0)"/>
    <use xlink:href="#AppleSDGothicNeo-Regular-46" transform="translate(2148.3125 0)"/>
    <use xlink:href="#AppleSDGothicNeo-Regular-57" transform="translate(2197.8125 0)"/>
    <use xlink:href="#AppleSDGothicNeo-Regular-42" transform="translate(2245.515625 0)"/>
    <use xlink:href="#AppleSDGothicNeo-Regular-4d" transform="translate(2292.71875 0)"/>
    <use xlink:href="#AppleSDGothicNeo-Regular-56" transform="translate(2315.421875 0)"/>
    <use xlink:href="#AppleSDGothicNeo-Regular-42" transform="translate(2368.421875 0)"/>
    <use xlink:href="#AppleSDGothicNeo-Regular-55" transform="translate(2415.625 0)"/>
    <use xlink:href="#AppleSDGothicNeo-Regular-4a" transform="translate(2450.625 0)"/>
    <use xlink:href="#AppleSDGothicNeo-Regular-50" transform="translate(2473.328125 0)"/>
    <use xlink:href="#AppleSDGothicNeo-Regular-4f" transform="translate(2526.734375 0)"/>
    <use xlink:href="#AppleSDGothicNeo-Regular-1" transform="translate(2580.328125 0)"/>
    <use xlink:href="#AppleSDGothicNeo-Regular-42" transform="translate(2606.625 0)"/>
    <use xlink:href="#AppleSDGothicNeo-Regular-4f" transform="translate(2653.828125 0)"/>
    <use xlink:href="#AppleSDGothicNeo-Regular-45" transform="translate(2707.421875 0)"/>
    <use xlink:href="#AppleSDGothicNeo-Regular-1" transform="translate(2761.921875 0)"/>
    <use xlink:href="#AppleSDGothicNeo-Regular-46" transform="translate(2788.21875 0)"/>
    <use xlink:href="#AppleSDGothicNeo-Regular-59" transform="translate(2837.21875 0)"/>
    <use xlink:href="#AppleSDGothicNeo-Regular-51" transform="translate(2884.921875 0)"/>
    <use xlink:href="#AppleSDGothicNeo-Regular-4d" transform="translate(2939.421875 0)"/>
    <use xlink:href="#AppleSDGothicNeo-Regular-42" transform="translate(2962.125 0)"/>
    <use xlink:href="#AppleSDGothicNeo-Regular-4f" transform="translate(3009.328125 0)"/>
    <use xlink:href="#AppleSDGothicNeo-Regular-42" transform="translate(3062.921875 0)"/>
    <use xlink:href="#AppleSDGothicNeo-Regular-55" transform="translate(3110.125 0)"/>
    <use xlink:href="#AppleSDGothicNeo-Regular-4a" transform="translate(3145.125 0)"/>
    <use xlink:href="#AppleSDGothicNeo-Regular-50" transform="translate(3167.828125 0)"/>
    <use xlink:href="#AppleSDGothicNeo-Regular-4f" transform="translate(3221.234375 0)"/>
    <use xlink:href="#AppleSDGothicNeo-Regular-1c" transform="translate(3274.828125 0)"/>
    <use xlink:href="#AppleSDGothicNeo-Regular-1" transform="translate(3303.234375 0)"/>
    <use xlink:href="#AppleSDGothicNeo-Regular-55" transform="translate(3329.53125 0)"/>
    <use xlink:href="#AppleSDGothicNeo-Regular-49" transform="translate(3364.53125 0)"/>
    <use xlink:href="#AppleSDGothicNeo-Regular-46" transform="translate(3418.125 0)"/>
    <use xlink:href="#AppleSDGothicNeo-Regular-5a" transform="translate(3468.125 0)"/>
    <use xlink:href="#AppleSDGothicNeo-Regular-1" transform="translate(3516.328125 0)"/>
    <use xlink:href="#AppleSDGothicNeo-Regular-58" transform="translate(3542.625 0)"/>
    <use xlink:href="#AppleSDGothicNeo-Regular-46" transform="translate(3615.421875 0)"/>
    <use xlink:href="#AppleSDGothicNeo-Regular-53" transform="translate(3665.421875 0)"/>
    <use xlink:href="#AppleSDGothicNeo-Regular-46" transform="translate(3700.015625 0)"/>
    <use xlink:href="#AppleSDGothicNeo-Regular-1" transform="translate(3750.015625 0)"/>
    <use xlink:href="#AppleSDGothicNeo-Regular-4f" transform="translate(3776.3125 0)"/>
    <use xlink:href="#AppleSDGothicNeo-Regular-50" transform="translate(3829.90625 0)"/>
    <use xlink:href="#AppleSDGothicNeo-Regular-55" transform="translate(3883.3125 0)"/>
    <use xlink:href="#AppleSDGothicNeo-Regular-1" transform="translate(3918.3125 0)"/>
    <use xlink:href="#AppleSDGothicNeo-Regular-56" transform="translate(3944.609375 0)"/>
    <use xlink:href="#AppleSDGothicNeo-Regular-54" transform="translate(3997.609375 0)"/>
    <use xlink:href="#AppleSDGothicNeo-Regular-46" transform="translate(4039.109375 0)"/>
    <use xlink:href="#AppleSDGothicNeo-Regular-45" transform="translate(4089.109375 0)"/>
    <use xlink:href="#AppleSDGothicNeo-Regular-1" transform="translate(4143.609375 0)"/>
    <use xlink:href="#AppleSDGothicNeo-Regular-47" transform="translate(4169.90625 0)"/>
    <use xlink:href="#AppleSDGothicNeo-Regular-50" transform="translate(4202.203125 0)"/>
    <use xlink:href="#AppleSDGothicNeo-Regular-53" transform="translate(4255.609375 0)"/>
    <use xlink:href="#AppleSDGothicNeo-Regular-1" transform="translate(4290.203125 0)"/>
    <use xlink:href="#AppleSDGothicNeo-Regular-44" transform="translate(4316.5 0)"/>
    <use xlink:href="#AppleSDGothicNeo-Regular-42" transform="translate(4361.5 0)"/>
    <use xlink:href="#AppleSDGothicNeo-Regular-4f" transform="translate(4408.703125 0)"/>
    <use xlink:href="#AppleSDGothicNeo-Regular-45" transform="translate(4462.296875 0)"/>
    <use xlink:href="#AppleSDGothicNeo-Regular-4a" transform="translate(4516.796875 0)"/>
    <use xlink:href="#AppleSDGothicNeo-Regular-45" transform="translate(4539.5 0)"/>
    <use xlink:href="#AppleSDGothicNeo-Regular-42" transform="translate(4594 0)"/>
    <use xlink:href="#AppleSDGothicNeo-Regular-55" transform="translate(4641.203125 0)"/>
    <use xlink:href="#AppleSDGothicNeo-Regular-46" transform="translate(4676.203125 0)"/>
    <use xlink:href="#AppleSDGothicNeo-Regular-1" transform="translate(4726.203125 0)"/>
    <use xlink:href="#AppleSDGothicNeo-Regular-54" transform="translate(4752.5 0)"/>
    <use xlink:href="#AppleSDGothicNeo-Regular-46" transform="translate(4794 0)"/>
    <use xlink:href="#AppleSDGothicNeo-Regular-4d" transform="translate(4844 0)"/>
    <use xlink:href="#AppleSDGothicNeo-Regular-46" transform="translate(4866.703125 0)"/>
    <use xlink:href="#AppleSDGothicNeo-Regular-44" transform="translate(4916.703125 0)"/>
    <use xlink:href="#AppleSDGothicNeo-Regular-55" transform="translate(4962.609375 0)"/>
    <use xlink:href="#AppleSDGothicNeo-Regular-4a" transform="translate(4997.609375 0)"/>
    <use xlink:href="#AppleSDGothicNeo-Regular-50" transform="translate(5020.3125 0)"/>
    <use xlink:href="#AppleSDGothicNeo-Regular-4f" transform="translate(5073.71875 0)"/>
    <use xlink:href="#AppleSDGothicNeo-Regular-1" transform="translate(5127.3125 0)"/>
    <use xlink:href="#AppleSDGothicNeo-Regular-50" transform="translate(5153.609375 0)"/>
    <use xlink:href="#AppleSDGothicNeo-Regular-53" transform="translate(5207.015625 0)"/>
    <use xlink:href="#AppleSDGothicNeo-Regular-1" transform="translate(5241.609375 0)"/>
    <use xlink:href="#AppleSDGothicNeo-Regular-53" transform="translate(5267.90625 0)"/>
    <use xlink:href="#AppleSDGothicNeo-Regular-50" transform="translate(5302.5 0)"/>
    <use xlink:href="#AppleSDGothicNeo-Regular-56" transform="translate(5355.90625 0)"/>
    <use xlink:href="#AppleSDGothicNeo-Regular-55" transform="translate(5408.90625 0)"/>
    <use xlink:href="#AppleSDGothicNeo-Regular-4a" transform="translate(5443.90625 0)"/>
    <use xlink:href="#AppleSDGothicNeo-Regular-4f" transform="translate(5466.609375 0)"/>
    <use xlink:href="#AppleSDGothicNeo-Regular-48" transform="translate(5520.203125 0)"/>
    <use xlink:href="#AppleSDGothicNeo-Regular-f" transform="translate(5570.796875 0)"/>
   </g>
  </g>
 </g>
 <defs>
  <clipPath id="p955c06a056">
   <rect x="51.8" y="27.6" width="795.64" height="295.744"/>
  </clipPath>
  <clipPath id="pbb601dcd77">
   <rect x="51.8" y="369.144" width="795.64" height="73.936"/>
  </clipPath>
 </defs>
</svg>
