<?xml version="1.0" encoding="utf-8" standalone="no"?>
<!DOCTYPE svg PUBLIC "-//W3C//DTD SVG 1.1//EN"
  "http://www.w3.org/Graphics/SVG/1.1/DTD/svg11.dtd">
<svg xmlns:xlink="http://www.w3.org/1999/xlink" width="864pt" height="504pt" viewBox="0 0 864 504" xmlns="http://www.w3.org/2000/svg" version="1.1">
 <metadata>
  <rdf:RDF xmlns:dc="http://purl.org/dc/elements/1.1/" xmlns:cc="http://creativecommons.org/ns#" xmlns:rdf="http://www.w3.org/1999/02/22-rdf-syntax-ns#">
   <cc:Work>
    <dc:type rdf:resource="http://purl.org/dc/dcmitype/StillImage"/>
    <dc:date>2026-07-13T08:08:07.200883</dc:date>
    <dc:format>image/svg+xml</dc:format>
    <dc:creator>
     <cc:Agent>
      <dc:title>Matplotlib v3.11.0, https://matplotlib.org/</dc:title>
     </cc:Agent>
    </dc:creator>
   </cc:Work>
  </rdf:RDF>
 </metadata>
 <defs>
  <style type="text/css">*{stroke-linejoin: round; stroke-linecap: butt}</style>
 </defs>
 <g id="figure_1">
  <g id="patch_1">
   <path d="M 0 504 
L 864 504 
L 864 0 
L 0 0 
z
" style="fill: #ffffff"/>
  </g>
  <g id="axes_1">
   <g id="patch_2">
    <path d="M 51.8 323.344 
L 844.2 323.344 
L 844.2 27.6 
L 51.8 27.6 
z
" style="fill: #ffffff"/>
   </g>
   <g id="FillBetweenPolyCollection_1">
    <defs>
     <path id="mbf0cf0211d" d="M 87.818182 -312.415329 
L 87.818182 -265.847705 
L 96.936709 -271.599097 
L 106.055236 -288.401456 
L 115.173763 -307.825625 
L 124.29229 -326.814314 
L 133.410817 -349.591634 
L 142.529344 -371.575412 
L 151.647871 -389.861697 
L 160.766398 -404.752803 
L 169.884925 -420.186526 
L 179.003452 -431.110583 
L 188.121979 -436.553009 
L 197.240506 -433.599092 
L 206.359033 -425.274918 
L 215.47756 -414.68536 
L 224.596087 -401.7984 
L 233.714614 -386.988699 
L 242.833142 -371.209317 
L 251.951669 -352.708175 
L 261.070196 -333.028764 
L 270.188723 -314.36731 
L 279.30725 -295.901293 
L 288.425777 -276.656035 
L 297.544304 -267.807266 
L 306.662831 -265.197651 
L 315.781358 -271.715202 
L 324.899885 -284.675407 
L 334.018412 -304.711819 
L 343.136939 -329.058324 
L 352.255466 -351.788477 
L 361.373993 -376.61367 
L 370.49252 -402.031485 
L 379.611047 -422.105032 
L 388.729574 -434.305223 
L 397.848101 -430.481009 
L 406.966628 -431.542636 
L 416.085155 -433.617303 
L 425.203682 -436.249061 
L 434.322209 -437.976106 
L 443.440736 -438.141464 
L 452.559264 -439.335786 
L 461.677791 -438.957227 
L 470.796318 -426.918583 
L 479.914845 -410.379743 
L 489.033372 -389.518245 
L 498.151899 -362.34747 
L 507.270426 -338.260278 
L 516.388953 -311.814421 
L 525.50748 -289.424438 
L 534.626007 -271.935879 
L 543.744534 -258.907176 
L 552.863061 -258.907176 
L 561.981588 -258.907176 
L 571.100115 -258.907176 
L 580.218642 -258.879242 
L 589.337169 -257.785372 
L 598.455696 -239.406912 
L 607.574223 -221.795934 
L 616.69275 -212.642867 
L 625.811277 -221.515304 
L 634.929804 -239.088381 
L 644.048331 -258.305999 
L 653.166858 -258.877114 
L 662.285386 -258.907176 
L 671.403913 -258.907176 
L 680.52244 -258.907176 
L 689.640967 -258.907176 
L 698.759494 -258.907176 
L 707.878021 -258.907176 
L 716.996548 -258.877114 
L 726.115075 -251.354048 
L 735.233602 -234.74812 
L 744.352129 -224.375198 
L 753.470656 -221.803712 
L 762.589183 -230.038559 
L 771.70771 -245.095255 
L 780.826237 -258.381013 
L 789.944764 -258.879242 
L 799.063291 -258.907176 
L 808.181818 -258.907176 
L 808.181818 -337.121953 
L 808.181818 -337.121953 
L 799.063291 -318.306854 
L 789.944764 -295.964395 
L 780.826237 -275.248367 
L 771.70771 -262.385836 
L 762.589183 -262.261936 
L 753.470656 -262.261936 
L 744.352129 -262.261936 
L 735.233602 -262.282941 
L 726.115075 -263.689684 
L 716.996548 -284.870288 
L 707.878021 -308.203145 
L 698.759494 -329.132068 
L 689.640967 -343.169684 
L 680.52244 -345.34739 
L 671.403913 -332.232823 
L 662.285386 -313.143831 
L 653.166858 -293.818024 
L 644.048331 -274.968844 
L 634.929804 -262.300626 
L 625.811277 -262.261936 
L 616.69275 -262.261936 
L 607.574223 -262.273174 
L 598.455696 -262.282941 
L 589.337169 -273.111312 
L 580.218642 -292.831806 
L 571.100115 -312.62733 
L 561.981588 -335.370819 
L 552.863061 -345.053089 
L 543.744534 -345.600021 
L 534.626007 -319.086367 
L 525.50748 -333.635723 
L 516.388953 -351.14341 
L 507.270426 -370.162972 
L 498.151899 -388.96658 
L 489.033372 -409.31618 
L 479.914845 -429.506712 
L 470.796318 -450.643046 
L 461.677791 -461.032059 
L 452.559264 -462.957091 
L 443.440736 -456.229352 
L 434.322209 -453.583193 
L 425.203682 -451.598589 
L 416.085155 -449.049677 
L 406.966628 -451.43684 
L 397.848101 -454.842991 
L 388.729574 -455.279835 
L 379.611047 -448.896301 
L 370.49252 -444.170605 
L 361.373993 -428.450182 
L 352.255466 -410.546266 
L 343.136939 -393.724641 
L 334.018412 -376.212923 
L 324.899885 -358.717517 
L 315.781358 -342.309509 
L 306.662831 -325.599914 
L 297.544304 -316.260609 
L 288.425777 -326.314473 
L 279.30725 -343.47868 
L 270.188723 -360.980623 
L 261.070196 -376.159553 
L 251.951669 -390.996066 
L 242.833142 -406.048448 
L 233.714614 -417.710131 
L 224.596087 -429.311037 
L 215.47756 -439.523726 
L 206.359033 -447.244463 
L 197.240506 -454.350867 
L 188.121979 -454.437943 
L 179.003452 -449.042765 
L 169.884925 -441.575154 
L 160.766398 -430.322544 
L 151.647871 -415.656741 
L 142.529344 -399.393989 
L 133.410817 -381.556644 
L 124.29229 -363.522605 
L 115.173763 -345.796386 
L 106.055236 -329.004658 
L 96.936709 -316.210986 
L 87.818182 -312.415329 
z
" style="stroke: #a7dff3; stroke-opacity: 0.55"/>
    </defs>
    <g clip-path="url(#p97b804fb7f)">
     <use xlink:href="#mbf0cf0211d" x="0" y="504" style="fill: #a7dff3; fill-opacity: 0.55; stroke: #a7dff3; stroke-opacity: 0.55"/>
    </g>
   </g>
   <g id="matplotlib.axis_1">
    <g id="xtick_1">
     <g id="line2d_1">
      <defs>
       <path id="mc161e74405" d="M 0 0 
L 0 3.5 
" style="stroke: #000000; stroke-width: 0.8"/>
      </defs>
      <g>
       <use xlink:href="#mc161e74405" x="87.818182" y="323.344" style="stroke: #000000; stroke-width: 0.8"/>
      </g>
     </g>
     <g id="text_1">
      <!-- 0 -->
      <g transform="translate(84.668182 339.344) scale(0.1 -0.1)">
       <defs>
        <path id="AppleSDGothicNeo-Regular-11" d="M 2022 192 
C 2893 192 3558 787 3558 2240 
L 3558 2630 
C 3558 4122 2867 4634 2029 4634 
C 1184 4634 448 4122 448 2605 
L 448 2246 
C 448 794 1139 192 2022 192 
z
M 2022 614 
C 1350 614 992 1126 992 2195 
L 992 2669 
C 992 3744 1357 4211 2029 4211 
C 2688 4211 3040 3718 3040 2637 
L 3040 2163 
C 3040 1062 2682 614 2022 614 
z
" transform="scale(0.015625)"/>
       </defs>
       <use xlink:href="#AppleSDGothicNeo-Regular-11"/>
      </g>
     </g>
    </g>
    <g id="xtick_2">
     <g id="line2d_2">
      <g>
       <use xlink:href="#mc161e74405" x="179.003452" y="323.344" style="stroke: #000000; stroke-width: 0.8"/>
      </g>
     </g>
     <g id="text_2">
      <!-- 10 -->
      <g transform="translate(174.068296 339.344) scale(0.1 -0.1)">
       <defs>
        <path id="AppleSDGothicNeo-Regular-12" d="M 1146 243 
L 1632 243 
L 1632 4634 
L 1363 4634 
L 352 4160 
L 352 3866 
L 1146 4051 
L 1146 243 
z
" transform="scale(0.015625)"/>
       </defs>
       <use xlink:href="#AppleSDGothicNeo-Regular-12"/>
       <use xlink:href="#AppleSDGothicNeo-Regular-11" transform="translate(35.703125 0)"/>
      </g>
     </g>
    </g>
    <g id="xtick_3">
     <g id="line2d_3">
      <g>
       <use xlink:href="#mc161e74405" x="270.188723" y="323.344" style="stroke: #000000; stroke-width: 0.8"/>
      </g>
     </g>
     <g id="text_3">
      <!-- 20 -->
      <g transform="translate(264.398879 339.344) scale(0.1 -0.1)">
       <defs>
        <path id="AppleSDGothicNeo-Regular-13" d="M 397 269 
L 3066 269 
L 3066 704 
L 1107 704 
L 1779 1382 
C 2522 2138 2970 2650 2970 3392 
C 2970 4160 2502 4640 1638 4640 
C 1152 4640 717 4422 448 4250 
L 595 3846 
C 845 4019 1190 4198 1555 4198 
C 2163 4198 2438 3917 2438 3347 
C 2438 2733 2029 2266 1421 1632 
L 397 570 
L 397 269 
z
" transform="scale(0.015625)"/>
       </defs>
       <use xlink:href="#AppleSDGothicNeo-Regular-13"/>
       <use xlink:href="#AppleSDGothicNeo-Regular-11" transform="translate(52.796875 0)"/>
      </g>
     </g>
    </g>
    <g id="xtick_4">
     <g id="line2d_4">
      <g>
       <use xlink:href="#mc161e74405" x="361.373993" y="323.344" style="stroke: #000000; stroke-width: 0.8"/>
      </g>
     </g>
     <g id="text_4">
      <!-- 30 -->
      <g transform="translate(355.544306 339.344) scale(0.1 -0.1)">
       <defs>
        <path id="AppleSDGothicNeo-Regular-14" d="M 1491 205 
C 2445 205 3053 730 3053 1478 
C 3053 2144 2630 2458 2074 2566 
C 2560 2726 2893 3040 2893 3571 
C 2893 4243 2368 4634 1600 4634 
C 1229 4634 723 4474 467 4301 
L 544 3891 
C 813 4045 1146 4198 1498 4198 
C 2022 4198 2362 4013 2362 3488 
C 2362 3008 1984 2726 1427 2726 
L 1043 2726 
L 1043 2291 
L 1459 2291 
C 2112 2291 2534 2029 2534 1478 
C 2534 947 2138 634 1427 634 
C 1107 634 678 755 435 915 
L 326 512 
C 563 346 992 205 1491 205 
z
" transform="scale(0.015625)"/>
       </defs>
       <use xlink:href="#AppleSDGothicNeo-Regular-14"/>
       <use xlink:href="#AppleSDGothicNeo-Regular-11" transform="translate(53.59375 0)"/>
      </g>
     </g>
    </g>
    <g id="xtick_5">
     <g id="line2d_5">
      <g>
       <use xlink:href="#mc161e74405" x="452.559264" y="323.344" style="stroke: #000000; stroke-width: 0.8"/>
      </g>
     </g>
     <g id="text_5">
      <!-- 40 -->
      <g transform="translate(446.634264 339.344) scale(0.1 -0.1)">
       <defs>
        <path id="AppleSDGothicNeo-Regular-15" d="M 2214 166 
L 2682 166 
L 2682 1171 
L 3398 1171 
L 3398 1587 
L 2682 1587 
L 2682 4621 
L 2285 4621 
L 186 1555 
L 186 1171 
L 2214 1171 
L 2214 166 
z
M 730 1587 
L 2214 3814 
L 2214 1587 
L 730 1587 
z
" transform="scale(0.015625)"/>
       </defs>
       <use xlink:href="#AppleSDGothicNeo-Regular-15"/>
       <use xlink:href="#AppleSDGothicNeo-Regular-11" transform="translate(55.5 0)"/>
      </g>
     </g>
    </g>
    <g id="xtick_6">
     <g id="line2d_6">
      <g>
       <use xlink:href="#mc161e74405" x="543.744534" y="323.344" style="stroke: #000000; stroke-width: 0.8"/>
      </g>
     </g>
     <g id="text_6">
      <!-- 50 -->
      <g transform="translate(538.099221 339.344) scale(0.1 -0.1)">
       <defs>
        <path id="AppleSDGothicNeo-Regular-16" d="M 1395 192 
C 2342 192 2906 838 2906 1606 
C 2906 2509 2374 2918 1510 2918 
C 1331 2918 1069 2874 896 2829 
L 986 4134 
L 2752 4134 
L 2752 4570 
L 576 4570 
L 422 2317 
C 621 2406 1024 2528 1318 2528 
C 1990 2528 2374 2266 2374 1613 
C 2374 1005 1978 621 1299 621 
C 947 621 525 768 288 928 
L 192 518 
C 448 333 896 192 1395 192 
z
" transform="scale(0.015625)"/>
       </defs>
       <use xlink:href="#AppleSDGothicNeo-Regular-16"/>
       <use xlink:href="#AppleSDGothicNeo-Regular-11" transform="translate(49.90625 0)"/>
      </g>
     </g>
    </g>
    <g id="xtick_7">
     <g id="line2d_7">
      <g>
       <use xlink:href="#mc161e74405" x="634.929804" y="323.344" style="stroke: #000000; stroke-width: 0.8"/>
      </g>
     </g>
     <g id="text_7">
      <!-- 60 -->
      <g transform="translate(629.034492 339.344) scale(0.1 -0.1)">
       <defs>
        <path id="AppleSDGothicNeo-Regular-17" d="M 1837 192 
C 2707 192 3232 826 3232 1645 
C 3232 2464 2656 2957 1939 2957 
C 1459 2957 1107 2733 877 2496 
C 941 3834 1350 4205 2080 4205 
C 2355 4205 2733 4096 2886 4006 
L 3034 4378 
C 2854 4486 2458 4634 2029 4634 
C 1037 4634 365 3968 365 2451 
L 365 2118 
C 365 896 877 192 1837 192 
z
M 1830 614 
C 1146 614 877 1139 877 1939 
L 877 1984 
C 1056 2240 1427 2528 1837 2528 
C 2355 2528 2720 2266 2720 1594 
C 2720 979 2387 614 1830 614 
z
" transform="scale(0.015625)"/>
       </defs>
       <use xlink:href="#AppleSDGothicNeo-Regular-17"/>
       <use xlink:href="#AppleSDGothicNeo-Regular-11" transform="translate(54.90625 0)"/>
      </g>
     </g>
    </g>
    <g id="xtick_8">
     <g id="line2d_8">
      <g>
       <use xlink:href="#mc161e74405" x="726.115075" y="323.344" style="stroke: #000000; stroke-width: 0.8"/>
      </g>
     </g>
     <g id="text_8">
      <!-- 70 -->
      <g transform="translate(720.569762 339.344) scale(0.1 -0.1)">
       <defs>
        <path id="AppleSDGothicNeo-Regular-18" d="M 710 243 
L 1274 243 
L 2957 4218 
L 2957 4544 
L 218 4544 
L 218 4115 
L 2400 4115 
L 710 243 
z
" transform="scale(0.015625)"/>
       </defs>
       <use xlink:href="#AppleSDGothicNeo-Regular-18"/>
       <use xlink:href="#AppleSDGothicNeo-Regular-11" transform="translate(47.90625 0)"/>
      </g>
     </g>
    </g>
    <g id="xtick_9">
     <g id="line2d_9">
      <g>
       <use xlink:href="#mc161e74405" x="817.300345" y="323.344" style="stroke: #000000; stroke-width: 0.8"/>
      </g>
     </g>
     <g id="text_9">
      <!-- 80 -->
      <g transform="translate(811.275345 339.344) scale(0.1 -0.1)">
       <defs>
        <path id="AppleSDGothicNeo-Regular-19" d="M 1837 186 
C 2765 186 3341 723 3341 1408 
C 3341 2054 2829 2362 2298 2534 
C 2739 2765 3168 3066 3168 3584 
C 3168 4250 2624 4640 1818 4640 
C 992 4640 461 4179 461 3558 
C 461 3008 838 2682 1299 2502 
C 826 2317 339 1926 339 1363 
C 339 659 922 186 1837 186 
z
M 1830 608 
C 1261 608 851 909 851 1382 
C 851 1856 1280 2163 1702 2310 
C 2445 2074 2797 1882 2797 1357 
C 2797 915 2381 608 1830 608 
z
M 1920 2720 
C 1350 2867 1005 3130 1005 3571 
C 1005 3981 1331 4218 1824 4218 
C 2355 4218 2637 3942 2637 3565 
C 2637 3155 2323 2899 1920 2720 
z
" transform="scale(0.015625)"/>
       </defs>
       <use xlink:href="#AppleSDGothicNeo-Regular-19"/>
       <use xlink:href="#AppleSDGothicNeo-Regular-11" transform="translate(57.5 0)"/>
      </g>
     </g>
    </g>
    <g id="text_10">
     <!-- time index -->
     <g transform="translate(425.910156 355.344) scale(0.1 -0.1)">
      <defs>
       <path id="AppleSDGothicNeo-Regular-55" d="M 1472 230 
C 1747 230 1882 301 2010 358 
L 2010 691 
C 1882 653 1734 634 1600 634 
C 1235 634 1133 755 1133 1062 
L 1133 3034 
L 1946 3034 
L 1946 3437 
L 1133 3437 
L 1133 4192 
L 646 4192 
L 646 3437 
L 192 3437 
L 192 3034 
L 646 3034 
L 646 986 
C 646 448 973 230 1472 230 
z
" transform="scale(0.015625)"/>
       <path id="AppleSDGothicNeo-Regular-4a" d="M 486 269 
L 973 269 
L 973 3437 
L 486 3437 
L 486 269 
z
M 480 4077 
L 979 4077 
L 979 4589 
L 480 4589 
L 480 4077 
z
" transform="scale(0.015625)"/>
       <path id="AppleSDGothicNeo-Regular-4e" d="M 467 269 
L 954 269 
L 954 2848 
C 1210 2970 1491 3078 1760 3078 
C 2182 3078 2336 2918 2336 2534 
L 2336 269 
L 2822 269 
L 2822 2637 
C 2822 2714 2816 2771 2803 2848 
C 3104 2982 3373 3078 3622 3078 
C 4051 3078 4205 2918 4205 2534 
L 4205 269 
L 4685 269 
L 4685 2637 
C 4685 3251 4365 3501 3814 3501 
C 3456 3501 3085 3373 2739 3149 
L 2714 3149 
C 2566 3386 2310 3501 1952 3501 
C 1594 3501 1254 3354 960 3168 
L 934 3168 
L 934 3443 
L 467 3443 
L 467 269 
z
" transform="scale(0.015625)"/>
       <path id="AppleSDGothicNeo-Regular-46" d="M 1773 211 
C 2285 211 2650 371 2842 506 
L 2842 870 
C 2554 736 2272 634 1850 634 
C 1171 634 794 941 768 1734 
L 2931 1734 
L 2931 2010 
C 2931 2995 2522 3501 1651 3501 
C 922 3501 269 3008 269 1901 
L 269 1811 
C 269 819 774 211 1773 211 
z
M 1638 3104 
C 2157 3104 2419 2816 2419 2125 
L 768 2125 
C 819 2874 1242 3104 1638 3104 
z
" transform="scale(0.015625)"/>
       <path id="AppleSDGothicNeo-Regular-1" transform="scale(0.015625)"/>
       <path id="AppleSDGothicNeo-Regular-4f" d="M 467 269 
L 954 269 
L 954 2848 
C 1216 2970 1549 3078 1850 3078 
C 2355 3078 2490 2918 2490 2534 
L 2490 269 
L 2976 269 
L 2976 2637 
C 2976 3251 2675 3501 2054 3501 
C 1664 3501 1254 3360 960 3168 
L 934 3168 
L 934 3443 
L 467 3443 
L 467 269 
z
" transform="scale(0.015625)"/>
       <path id="AppleSDGothicNeo-Regular-45" d="M 1600 211 
C 2029 211 2336 346 2528 531 
L 2554 531 
L 2611 269 
L 3021 269 
L 3021 4851 
L 2528 4851 
L 2528 3290 
C 2355 3392 2086 3501 1696 3501 
C 877 3501 282 3002 282 1850 
L 282 1766 
C 282 595 966 211 1600 211 
z
M 1747 614 
C 1178 614 794 896 794 1786 
L 794 1914 
C 794 2771 1158 3085 1760 3085 
C 2086 3085 2381 2995 2528 2880 
L 2528 883 
C 2368 755 2118 614 1747 614 
z
" transform="scale(0.015625)"/>
       <path id="AppleSDGothicNeo-Regular-59" d="M 147 269 
L 685 269 
L 1510 1536 
L 2317 269 
L 2899 269 
L 1837 1882 
L 2822 3443 
L 2291 3443 
L 1568 2234 
L 774 3443 
L 198 3443 
L 1229 1882 
L 147 269 
z
" transform="scale(0.015625)"/>
      </defs>
      <use xlink:href="#AppleSDGothicNeo-Regular-55"/>
      <use xlink:href="#AppleSDGothicNeo-Regular-4a" transform="translate(35 0)"/>
      <use xlink:href="#AppleSDGothicNeo-Regular-4e" transform="translate(57.703125 0)"/>
      <use xlink:href="#AppleSDGothicNeo-Regular-46" transform="translate(138 0)"/>
      <use xlink:href="#AppleSDGothicNeo-Regular-1" transform="translate(188 0)"/>
      <use xlink:href="#AppleSDGothicNeo-Regular-4a" transform="translate(214.296875 0)"/>
      <use xlink:href="#AppleSDGothicNeo-Regular-4f" transform="translate(237 0)"/>
      <use xlink:href="#AppleSDGothicNeo-Regular-45" transform="translate(290.59375 0)"/>
      <use xlink:href="#AppleSDGothicNeo-Regular-46" transform="translate(345.09375 0)"/>
      <use xlink:href="#AppleSDGothicNeo-Regular-59" transform="translate(394.09375 0)"/>
     </g>
    </g>
   </g>
   <g id="matplotlib.axis_2">
    <g id="ytick_1">
     <g id="line2d_10">
      <defs>
       <path id="mbbb5b53657" d="M 0 0 
L -3.5 0 
" style="stroke: #000000; stroke-width: 0.8"/>
      </defs>
      <g>
       <use xlink:href="#mbbb5b53657" x="51.8" y="310.307855" style="stroke: #000000; stroke-width: 0.8"/>
      </g>
     </g>
     <g id="text_11">
      <!-- -2.0 -->
      <g transform="translate(26.9 314.807855) scale(0.1 -0.1)">
       <defs>
        <path id="AppleSDGothicNeo-Regular-e" d="M 333 2138 
L 2445 2138 
L 2445 2560 
L 333 2560 
L 333 2138 
z
" transform="scale(0.015625)"/>
        <path id="AppleSDGothicNeo-Regular-f" d="M 269 109 
L 826 109 
L 826 678 
L 269 678 
L 269 109 
z
" transform="scale(0.015625)"/>
       </defs>
       <use xlink:href="#AppleSDGothicNeo-Regular-e"/>
       <use xlink:href="#AppleSDGothicNeo-Regular-13" transform="translate(40.109375 0)"/>
       <use xlink:href="#AppleSDGothicNeo-Regular-f" transform="translate(93.40625 0)"/>
       <use xlink:href="#AppleSDGothicNeo-Regular-11" transform="translate(116 0)"/>
      </g>
     </g>
    </g>
    <g id="ytick_2">
     <g id="line2d_11">
      <g>
       <use xlink:href="#mbbb5b53657" x="51.8" y="273.568682" style="stroke: #000000; stroke-width: 0.8"/>
      </g>
     </g>
     <g id="text_12">
      <!-- -1.5 -->
      <g transform="translate(30.239063 278.068682) scale(0.1 -0.1)">
       <use xlink:href="#AppleSDGothicNeo-Regular-e"/>
       <use xlink:href="#AppleSDGothicNeo-Regular-12" transform="translate(37.40625 0)"/>
       <use xlink:href="#AppleSDGothicNeo-Regular-f" transform="translate(73.109375 0)"/>
       <use xlink:href="#AppleSDGothicNeo-Regular-16" transform="translate(95.703125 0)"/>
      </g>
     </g>
    </g>
    <g id="ytick_3">
     <g id="line2d_12">
      <g>
       <use xlink:href="#mbbb5b53657" x="51.8" y="236.829509" style="stroke: #000000; stroke-width: 0.8"/>
      </g>
     </g>
     <g id="text_13">
      <!-- -1.0 -->
      <g transform="translate(28.929688 241.329509) scale(0.1 -0.1)">
       <use xlink:href="#AppleSDGothicNeo-Regular-e"/>
       <use xlink:href="#AppleSDGothicNeo-Regular-12" transform="translate(37.40625 0)"/>
       <use xlink:href="#AppleSDGothicNeo-Regular-f" transform="translate(73.109375 0)"/>
       <use xlink:href="#AppleSDGothicNeo-Regular-11" transform="translate(95.703125 0)"/>
      </g>
     </g>
    </g>
    <g id="ytick_4">
     <g id="line2d_13">
      <g>
       <use xlink:href="#mbbb5b53657" x="51.8" y="200.090336" style="stroke: #000000; stroke-width: 0.8"/>
      </g>
     </g>
     <g id="text_14">
      <!-- -0.5 -->
      <g transform="translate(26.929688 204.590336) scale(0.1 -0.1)">
       <use xlink:href="#AppleSDGothicNeo-Regular-e"/>
       <use xlink:href="#AppleSDGothicNeo-Regular-11" transform="translate(43.203125 0)"/>
       <use xlink:href="#AppleSDGothicNeo-Regular-f" transform="translate(106.203125 0)"/>
       <use xlink:href="#AppleSDGothicNeo-Regular-16" transform="translate(128.796875 0)"/>
      </g>
     </g>
    </g>
    <g id="ytick_5">
     <g id="line2d_14">
      <g>
       <use xlink:href="#mbbb5b53657" x="51.8" y="163.351163" style="stroke: #000000; stroke-width: 0.8"/>
      </g>
     </g>
     <g id="text_15">
      <!-- 0.0 -->
      <g transform="translate(29.940625 167.851163) scale(0.1 -0.1)">
       <use xlink:href="#AppleSDGothicNeo-Regular-11"/>
       <use xlink:href="#AppleSDGothicNeo-Regular-f" transform="translate(63 0)"/>
       <use xlink:href="#AppleSDGothicNeo-Regular-11" transform="translate(85.59375 0)"/>
      </g>
     </g>
    </g>
    <g id="ytick_6">
     <g id="line2d_15">
      <g>
       <use xlink:href="#mbbb5b53657" x="51.8" y="126.61199" style="stroke: #000000; stroke-width: 0.8"/>
      </g>
     </g>
     <g id="text_16">
      <!-- 0.5 -->
      <g transform="translate(31.25 131.11199) scale(0.1 -0.1)">
       <use xlink:href="#AppleSDGothicNeo-Regular-11"/>
       <use xlink:href="#AppleSDGothicNeo-Regular-f" transform="translate(63 0)"/>
       <use xlink:href="#AppleSDGothicNeo-Regular-16" transform="translate(85.59375 0)"/>
      </g>
     </g>
    </g>
    <g id="ytick_7">
     <g id="line2d_16">
      <g>
       <use xlink:href="#mbbb5b53657" x="51.8" y="89.872817" style="stroke: #000000; stroke-width: 0.8"/>
      </g>
     </g>
     <g id="text_17">
      <!-- 1.0 -->
      <g transform="translate(32.670313 94.372817) scale(0.1 -0.1)">
       <use xlink:href="#AppleSDGothicNeo-Regular-12"/>
       <use xlink:href="#AppleSDGothicNeo-Regular-f" transform="translate(35.703125 0)"/>
       <use xlink:href="#AppleSDGothicNeo-Regular-11" transform="translate(58.296875 0)"/>
      </g>
     </g>
    </g>
    <g id="ytick_8">
     <g id="line2d_17">
      <g>
       <use xlink:href="#mbbb5b53657" x="51.8" y="53.133644" style="stroke: #000000; stroke-width: 0.8"/>
      </g>
     </g>
     <g id="text_18">
      <!-- 1.5 -->
      <g transform="translate(33.979688 57.633644) scale(0.1 -0.1)">
       <use xlink:href="#AppleSDGothicNeo-Regular-12"/>
       <use xlink:href="#AppleSDGothicNeo-Regular-f" transform="translate(35.703125 0)"/>
       <use xlink:href="#AppleSDGothicNeo-Regular-16" transform="translate(58.296875 0)"/>
      </g>
     </g>
    </g>
    <g id="text_19">
     <!-- value -->
     <g transform="translate(19.9 186.502469) rotate(-90) scale(0.1 -0.1)">
      <defs>
       <path id="AppleSDGothicNeo-Regular-57" d="M 1331 269 
L 1818 269 
L 2995 3443 
L 2515 3443 
L 1600 890 
L 1574 890 
L 685 3443 
L 154 3443 
L 1331 269 
z
" transform="scale(0.015625)"/>
       <path id="AppleSDGothicNeo-Regular-42" d="M 1242 211 
C 1670 211 1939 365 2086 544 
L 2118 544 
L 2170 269 
L 2566 269 
L 2566 2566 
C 2566 3213 2176 3501 1478 3501 
C 1114 3501 806 3443 531 3328 
L 531 2976 
C 730 3034 979 3078 1286 3078 
C 1856 3078 2074 2950 2074 2458 
L 2074 2125 
L 1216 2022 
C 608 1952 250 1658 250 1101 
C 250 506 666 211 1242 211 
z
M 1363 595 
C 998 595 762 768 762 1114 
C 762 1478 954 1638 1344 1677 
L 2074 1760 
L 2074 826 
C 1939 691 1658 595 1363 595 
z
" transform="scale(0.015625)"/>
       <path id="AppleSDGothicNeo-Regular-4d" d="M 480 269 
L 973 269 
L 973 4851 
L 480 4851 
L 480 269 
z
" transform="scale(0.015625)"/>
       <path id="AppleSDGothicNeo-Regular-56" d="M 1421 211 
C 1805 211 2144 358 2432 557 
L 2458 557 
L 2502 269 
L 2925 269 
L 2925 3443 
L 2438 3443 
L 2438 883 
C 2176 755 1894 634 1555 634 
C 1088 634 941 800 941 1210 
L 941 3443 
L 448 3443 
L 448 1139 
C 448 525 800 211 1421 211 
z
" transform="scale(0.015625)"/>
      </defs>
      <use xlink:href="#AppleSDGothicNeo-Regular-57"/>
      <use xlink:href="#AppleSDGothicNeo-Regular-42" transform="translate(47.703125 0)"/>
      <use xlink:href="#AppleSDGothicNeo-Regular-4d" transform="translate(94.90625 0)"/>
      <use xlink:href="#AppleSDGothicNeo-Regular-56" transform="translate(117.609375 0)"/>
      <use xlink:href="#AppleSDGothicNeo-Regular-46" transform="translate(170.609375 0)"/>
     </g>
    </g>
   </g>
   <g id="line2d_18">
    <path d="M 87.818182 198.384511 
L 96.936709 194.093684 
L 106.055236 181.327505 
L 115.173763 164.980477 
L 124.29229 148.166603 
L 133.410817 130.373869 
L 142.529344 113.925259 
L 151.647871 97.275158 
L 160.766398 82.450685 
L 169.884925 70.963921 
L 179.003452 63.04828 
L 188.121979 59.51907 
L 197.240506 61.402959 
L 206.359033 69.019838 
L 215.47756 78.116696 
L 224.596087 90.237585 
L 233.714614 102.947314 
L 242.833142 118.926575 
L 251.951669 134.912593 
L 261.070196 152.072485 
L 270.188723 168.718349 
L 279.30725 185.818995 
L 288.425777 196.409689 
L 297.544304 197.032221 
L 306.662831 190.539032 
L 315.781358 177.971646 
L 324.899885 162.498614 
L 334.018412 145.20522 
L 343.136939 127.033188 
L 352.255466 109.118479 
L 361.373993 91.847541 
L 370.49252 74.24498 
L 379.611047 62.207694 
L 388.729574 60.183682 
L 397.848101 63.196488 
L 406.966628 64.628283 
L 416.085155 63.120308 
L 425.203682 60.372559 
L 434.322209 59.085572 
L 443.440736 58.593685 
L 452.559264 56.2263 
L 461.677791 57.901464 
L 470.796318 67.314647 
L 479.914845 85.465908 
L 489.033372 104.229571 
L 498.151899 123.343505 
L 507.270426 141.777028 
L 516.388953 160.801804 
L 525.50748 178.466749 
L 534.626007 192.675835 
L 543.744534 242.959085 
L 552.863061 242.959085 
L 561.981588 242.959085 
L 571.100115 242.959085 
L 580.218642 243.000271 
L 589.337169 243.172847 
L 598.455696 243.844448 
L 607.574223 243.901156 
L 616.69275 243.903977 
L 625.811277 243.903977 
L 634.929804 243.83992 
L 644.048331 243.172847 
L 653.166858 243.000271 
L 662.285386 242.959085 
L 671.403913 242.959085 
L 680.52244 242.959085 
L 689.640967 242.959085 
L 698.759494 242.959085 
L 707.878021 242.959085 
L 716.996548 243.052669 
L 726.115075 243.59529 
L 735.233602 243.872434 
L 744.352129 243.903977 
L 753.470656 243.903977 
L 762.589183 243.903977 
L 771.70771 243.795624 
L 780.826237 243.101274 
L 789.944764 242.969105 
L 799.063291 242.959085 
L 808.181818 242.959085 
" clip-path="url(#p97b804fb7f)" style="fill: none; stroke: #2378a8; stroke-width: 1.2; stroke-linecap: square"/>
   </g>
   <g id="line2d_19">
    <path d="M 87.818182 225.914207 
L 96.936709 219.562071 
L 106.055236 202.771799 
L 115.173763 182.380829 
L 124.29229 172.462653 
L 133.410817 154.190505 
L 142.529344 128.959604 
L 151.647871 113.135586 
L 160.766398 89.16991 
L 169.884925 76.773273 
L 179.003452 66.079498 
L 188.121979 63.6877 
L 197.240506 62.972757 
L 206.359033 58.960428 
L 215.47756 65.507542 
L 224.596087 79.568042 
L 233.714614 91.808693 
L 242.833142 101.92185 
L 251.951669 121.398564 
L 261.070196 148.254332 
L 270.188723 157.847535 
L 279.30725 180.890285 
L 288.425777 201.177265 
L 297.544304 208.157684 
L 306.662831 215.172767 
L 315.781358 224.934956 
L 324.899885 213.959534 
L 334.018412 199.509071 
L 343.136939 179.538397 
L 352.255466 156.123011 
L 361.373993 131.121756 
L 370.49252 105.518222 
L 379.611047 80.421645 
L 388.729574 60.359972 
L 397.848101 54.982759 
L 406.966628 58.908424 
L 416.085155 54.475797 
L 425.203682 63.081084 
L 434.322209 67.08475 
L 443.440736 62.318481 
L 452.559264 59.055747 
L 461.677791 56.178649 
L 470.796318 59.437048 
L 479.914845 73.293895 
L 489.033372 97.203245 
L 498.151899 122.447144 
L 507.270426 148.782955 
L 516.388953 175.205425 
L 525.50748 199.517736 
L 534.626007 218.041198 
L 543.744534 164.606973 
L 552.863061 151.647051 
L 561.981588 154.749459 
L 571.100115 179.70305 
L 580.218642 204.002363 
L 589.337169 226.009534 
L 598.455696 245.984539 
L 607.574223 260.192362 
L 616.69275 290.523607 
L 625.811277 309.901091 
L 634.929804 291.726005 
L 644.048331 269.668568 
L 653.166858 246.751477 
L 662.285386 225.597899 
L 671.403913 205.696556 
L 680.52244 185.227591 
L 689.640967 165.482233 
L 698.759494 155.598722 
L 707.878021 173.606558 
L 716.996548 195.527069 
L 726.115075 225.85788 
L 735.233602 242.643811 
L 744.352129 267.311432 
L 753.470656 282.316518 
L 762.589183 288.272624 
L 771.70771 275.953113 
L 780.826237 254.217187 
L 789.944764 231.278429 
L 799.063291 206.766799 
L 808.181818 181.046273 
" clip-path="url(#p97b804fb7f)" style="fill: none; stroke: #e45756; stroke-width: 1.1; stroke-linecap: square"/>
   </g>
   <g id="patch_3">
    <path d="M 51.8 323.344 
L 51.8 27.6 
" style="fill: none; stroke: #000000; stroke-width: 0.8; stroke-linejoin: miter; stroke-linecap: square"/>
   </g>
   <g id="patch_4">
    <path d="M 844.2 323.344 
L 844.2 27.6 
" style="fill: none; stroke: #000000; stroke-width: 0.8; stroke-linejoin: miter; stroke-linecap: square"/>
   </g>
   <g id="patch_5">
    <path d="M 51.8 323.344 
L 844.2 323.344 
" style="fill: none; stroke: #000000; stroke-width: 0.8; stroke-linejoin: miter; stroke-linecap: square"/>
   </g>
   <g id="patch_6">
    <path d="M 51.8 27.6 
L 844.2 27.6 
" style="fill: none; stroke: #000000; stroke-width: 0.8; stroke-linejoin: miter; stroke-linecap: square"/>
   </g>
   <g id="text_20">
    <!-- primary score=0.552799, threshold=1.21398 -->
    <g transform="translate(59.724 317.98656) scale(0.08 -0.08)">
     <defs>
      <path id="AppleSDGothicNeo-Regular-51" d="M 467 -678 
L 960 -678 
L 960 422 
C 1139 320 1408 211 1773 211 
C 2650 211 3206 698 3206 1856 
L 3206 1939 
C 3206 3117 2605 3501 1907 3501 
C 1498 3501 1165 3360 966 3181 
L 941 3181 
L 941 3437 
L 467 3437 
L 467 -678 
z
M 1728 614 
C 1395 614 1107 717 960 838 
L 960 2854 
C 1107 2957 1408 3085 1779 3085 
C 2362 3085 2694 2810 2694 1914 
L 2694 1786 
C 2694 934 2330 614 1728 614 
z
" transform="scale(0.015625)"/>
      <path id="AppleSDGothicNeo-Regular-53" d="M 467 269 
L 960 269 
L 960 2765 
C 1184 2925 1491 3040 1811 3040 
C 1862 3040 1958 3034 2042 3021 
L 2042 3462 
C 2010 3469 1920 3475 1850 3475 
C 1491 3475 1146 3290 966 3085 
L 934 3085 
L 934 3443 
L 467 3443 
L 467 269 
z
" transform="scale(0.015625)"/>
      <path id="AppleSDGothicNeo-Regular-5a" d="M 710 -685 
C 1235 -685 1498 -493 1709 70 
L 2957 3443 
L 2464 3443 
L 1606 1030 
L 1594 1030 
L 659 3443 
L 134 3443 
L 1350 384 
L 1254 122 
C 1120 -224 928 -275 621 -275 
C 506 -275 390 -243 314 -230 
L 314 -595 
C 403 -640 563 -685 710 -685 
z
" transform="scale(0.015625)"/>
      <path id="AppleSDGothicNeo-Regular-54" d="M 1274 218 
C 1971 218 2394 550 2394 1152 
C 2394 1702 2144 1907 1536 2067 
L 1216 2157 
C 877 2253 742 2368 742 2643 
C 742 2938 954 3085 1382 3085 
C 1734 3085 2054 3002 2221 2918 
L 2221 3315 
C 2054 3405 1779 3501 1357 3501 
C 627 3501 275 3136 275 2598 
C 275 2061 589 1850 1050 1722 
L 1363 1638 
C 1766 1523 1914 1395 1914 1101 
C 1914 813 1709 634 1203 634 
C 755 634 525 730 250 832 
L 250 442 
C 512 294 858 218 1274 218 
z
" transform="scale(0.015625)"/>
      <path id="AppleSDGothicNeo-Regular-44" d="M 1734 211 
C 2176 211 2458 339 2662 461 
L 2662 858 
C 2502 768 2221 634 1792 634 
C 1114 634 774 998 774 1811 
L 774 1965 
C 774 2694 1152 3085 1728 3085 
C 2144 3085 2349 3008 2630 2880 
L 2630 3290 
C 2419 3424 2170 3501 1754 3501 
C 934 3501 269 3014 269 1888 
L 269 1792 
C 269 749 826 211 1734 211 
z
" transform="scale(0.015625)"/>
      <path id="AppleSDGothicNeo-Regular-50" d="M 1702 211 
C 2560 211 3149 813 3149 1824 
L 3149 1914 
C 3149 2918 2605 3501 1709 3501 
C 851 3501 269 2899 269 1894 
L 269 1798 
C 269 787 806 211 1702 211 
z
M 1715 614 
C 1184 614 768 902 768 1786 
L 768 1946 
C 768 2688 1126 3098 1702 3098 
C 2221 3098 2650 2810 2650 1926 
L 2650 1766 
C 2650 1018 2291 614 1715 614 
z
" transform="scale(0.015625)"/>
      <path id="AppleSDGothicNeo-Regular-1e" d="M 422 2816 
L 2970 2816 
L 2970 3226 
L 422 3226 
L 422 2816 
z
M 422 1542 
L 2970 1542 
L 2970 1952 
L 422 1952 
L 422 1542 
z
" transform="scale(0.015625)"/>
      <path id="AppleSDGothicNeo-Regular-1a" d="M 1696 4634 
C 826 4634 307 3949 307 3142 
C 307 2323 896 1798 1619 1798 
C 2093 1798 2445 2010 2675 2272 
C 2630 1069 2227 621 1523 621 
C 1178 621 832 723 646 832 
L 506 461 
C 704 326 1107 192 1549 192 
C 2586 192 3187 979 3187 2477 
L 3187 2758 
C 3187 3974 2656 4634 1696 4634 
z
M 1702 4211 
C 2387 4211 2675 3686 2675 2886 
L 2675 2765 
C 2496 2515 2131 2227 1722 2227 
C 1203 2227 813 2515 813 3187 
C 813 3782 1146 4211 1702 4211 
z
" transform="scale(0.015625)"/>
      <path id="AppleSDGothicNeo-Regular-d" d="M 122 -563 
L 467 -563 
L 941 685 
L 358 685 
L 122 -563 
z
" transform="scale(0.015625)"/>
      <path id="AppleSDGothicNeo-Regular-49" d="M 467 269 
L 954 269 
L 954 2842 
C 1216 2970 1549 3078 1850 3078 
C 2355 3078 2490 2918 2490 2534 
L 2490 269 
L 2976 269 
L 2976 2630 
C 2976 3245 2675 3501 2054 3501 
C 1664 3501 1261 3366 986 3168 
L 954 3168 
L 954 4851 
L 467 4851 
L 467 269 
z
" transform="scale(0.015625)"/>
     </defs>
     <use xlink:href="#AppleSDGothicNeo-Regular-51"/>
     <use xlink:href="#AppleSDGothicNeo-Regular-53" transform="translate(54.5 0)"/>
     <use xlink:href="#AppleSDGothicNeo-Regular-4a" transform="translate(89.09375 0)"/>
     <use xlink:href="#AppleSDGothicNeo-Regular-4e" transform="translate(111.796875 0)"/>
     <use xlink:href="#AppleSDGothicNeo-Regular-42" transform="translate(192.09375 0)"/>
     <use xlink:href="#AppleSDGothicNeo-Regular-53" transform="translate(239.296875 0)"/>
     <use xlink:href="#AppleSDGothicNeo-Regular-5a" transform="translate(273.890625 0)"/>
     <use xlink:href="#AppleSDGothicNeo-Regular-1" transform="translate(322.09375 0)"/>
     <use xlink:href="#AppleSDGothicNeo-Regular-54" transform="translate(348.390625 0)"/>
     <use xlink:href="#AppleSDGothicNeo-Regular-44" transform="translate(389.890625 0)"/>
     <use xlink:href="#AppleSDGothicNeo-Regular-50" transform="translate(434.890625 0)"/>
     <use xlink:href="#AppleSDGothicNeo-Regular-53" transform="translate(488.296875 0)"/>
     <use xlink:href="#AppleSDGothicNeo-Regular-46" transform="translate(522.890625 0)"/>
     <use xlink:href="#AppleSDGothicNeo-Regular-1e" transform="translate(572.890625 0)"/>
     <use xlink:href="#AppleSDGothicNeo-Regular-11" transform="translate(625.1875 0)"/>
     <use xlink:href="#AppleSDGothicNeo-Regular-f" transform="translate(688.1875 0)"/>
     <use xlink:href="#AppleSDGothicNeo-Regular-16" transform="translate(710.78125 0)"/>
     <use xlink:href="#AppleSDGothicNeo-Regular-16" transform="translate(760.6875 0)"/>
     <use xlink:href="#AppleSDGothicNeo-Regular-13" transform="translate(810.59375 0)"/>
     <use xlink:href="#AppleSDGothicNeo-Regular-18" transform="translate(862.890625 0)"/>
     <use xlink:href="#AppleSDGothicNeo-Regular-1a" transform="translate(911.890625 0)"/>
     <use xlink:href="#AppleSDGothicNeo-Regular-1a" transform="translate(966.390625 0)"/>
     <use xlink:href="#AppleSDGothicNeo-Regular-d" transform="translate(1016.796875 0)"/>
     <use xlink:href="#AppleSDGothicNeo-Regular-1" transform="translate(1039.390625 0)"/>
     <use xlink:href="#AppleSDGothicNeo-Regular-55" transform="translate(1065.6875 0)"/>
     <use xlink:href="#AppleSDGothicNeo-Regular-49" transform="translate(1100.6875 0)"/>
     <use xlink:href="#AppleSDGothicNeo-Regular-53" transform="translate(1154.28125 0)"/>
     <use xlink:href="#AppleSDGothicNeo-Regular-46" transform="translate(1188.875 0)"/>
     <use xlink:href="#AppleSDGothicNeo-Regular-54" transform="translate(1238.875 0)"/>
     <use xlink:href="#AppleSDGothicNeo-Regular-49" transform="translate(1280.375 0)"/>
     <use xlink:href="#AppleSDGothicNeo-Regular-50" transform="translate(1333.96875 0)"/>
     <use xlink:href="#AppleSDGothicNeo-Regular-4d" transform="translate(1387.375 0)"/>
     <use xlink:href="#AppleSDGothicNeo-Regular-45" transform="translate(1410.078125 0)"/>
     <use xlink:href="#AppleSDGothicNeo-Regular-1e" transform="translate(1464.578125 0)"/>
     <use xlink:href="#AppleSDGothicNeo-Regular-12" transform="translate(1513.671875 0)"/>
     <use xlink:href="#AppleSDGothicNeo-Regular-f" transform="translate(1549.375 0)"/>
     <use xlink:href="#AppleSDGothicNeo-Regular-13" transform="translate(1571.96875 0)"/>
     <use xlink:href="#AppleSDGothicNeo-Regular-12" transform="translate(1625.265625 0)"/>
     <use xlink:href="#AppleSDGothicNeo-Regular-14" transform="translate(1660.96875 0)"/>
     <use xlink:href="#AppleSDGothicNeo-Regular-1a" transform="translate(1713.5625 0)"/>
     <use xlink:href="#AppleSDGothicNeo-Regular-19" transform="translate(1768.96875 0)"/>
    </g>
   </g>
   <g id="text_21">
    <!-- 08_일반_검토_TP_2 | DistalPhalanxOutlineAgeGroup_normal_3 | TEST index 298 | 일반 검토 -->
    <g transform="translate(223.698438 21.6) scale(0.12 -0.12)">
     <defs>
      <path id="AppleSDGothicNeo-Regular-40" d="M 51 -365 
L 2099 -365 
L 2099 -38 
L 51 -38 
L 51 -365 
z
" transform="scale(0.015625)"/>
      <path id="AppleSDGothicNeo-Regular-a4c" d="M 4813 2317 
L 4813 5146 
L 4326 5146 
L 4326 2317 
L 4813 2317 
z
M 5018 -371 
L 5018 26 
L 1677 26 
L 1677 666 
L 4813 666 
L 4813 2022 
L 1171 2022 
L 1171 1626 
L 4326 1626 
L 4326 1043 
L 1190 1043 
L 1190 -371 
L 5018 -371 
z
M 1850 4973 
C 1043 4973 390 4461 390 3706 
C 390 2944 1050 2458 1850 2458 
C 2650 2458 3296 2950 3296 3706 
C 3296 4467 2650 4973 1850 4973 
z
M 1850 4550 
C 2432 4550 2822 4205 2822 3706 
C 2822 3213 2432 2880 1850 2880 
C 1293 2880 864 3213 864 3712 
C 864 4211 1299 4550 1850 4550 
z
" transform="scale(0.015625)"/>
      <path id="AppleSDGothicNeo-Regular-7c8" d="M 5395 3072 
L 5395 3482 
L 4544 3482 
L 4544 5146 
L 4058 5146 
L 4058 1088 
L 4544 1088 
L 4544 3072 
L 5395 3072 
z
M 4762 -256 
L 4762 147 
L 1472 147 
L 1472 1466 
L 986 1466 
L 986 -256 
L 4762 -256 
z
M 3059 1933 
L 3059 4768 
L 2566 4768 
L 2566 3808 
L 902 3808 
L 902 4768 
L 416 4768 
L 416 1933 
L 3059 1933 
z
M 2566 2330 
L 902 2330 
L 902 3411 
L 2566 3411 
L 2566 2330 
z
" transform="scale(0.015625)"/>
      <path id="AppleSDGothicNeo-Regular-468" d="M 4326 3277 
L 4326 1907 
L 4813 1907 
L 4813 5146 
L 4326 5146 
L 4326 3686 
L 3098 3686 
L 3098 3277 
L 4326 3277 
z
M 4813 -371 
L 4813 1613 
L 1210 1613 
L 1210 -371 
L 4813 -371 
z
M 4326 32 
L 1696 32 
L 1696 1210 
L 4326 1210 
L 4326 32 
z
M 563 4762 
L 563 4346 
L 2541 4346 
C 2387 3379 1414 2547 288 2285 
L 544 1875 
C 1984 2336 2989 3270 3078 4762 
L 563 4762 
z
" transform="scale(0.015625)"/>
      <path id="AppleSDGothicNeo-Regular-c37" d="M 4506 3027 
L 4506 3437 
L 1325 3437 
L 1325 4262 
L 4672 4262 
L 4672 4672 
L 838 4672 
L 838 1766 
L 2515 1766 
L 2515 672 
L 243 672 
L 243 262 
L 5293 262 
L 5293 672 
L 3002 672 
L 3002 1766 
L 4736 1766 
L 4736 2170 
L 1325 2170 
L 1325 3027 
L 4506 3027 
z
" transform="scale(0.015625)"/>
      <path id="AppleSDGothicNeo-Regular-35" d="M 1491 269 
L 1990 269 
L 1990 4134 
L 3302 4134 
L 3302 4563 
L 179 4563 
L 179 4134 
L 1491 4134 
L 1491 269 
z
" transform="scale(0.015625)"/>
      <path id="AppleSDGothicNeo-Regular-31" d="M 550 269 
L 1062 269 
L 1062 1990 
L 1939 1990 
C 2758 1990 3309 2451 3309 3296 
C 3309 4102 2842 4563 1875 4563 
L 550 4563 
L 550 269 
z
M 1062 2413 
L 1062 4134 
L 1824 4134 
C 2522 4134 2765 3872 2765 3264 
C 2765 2688 2502 2413 1837 2413 
L 1062 2413 
z
" transform="scale(0.015625)"/>
      <path id="AppleSDGothicNeo-Regular-5d" d="M 691 -384 
L 1114 -384 
L 1114 4941 
L 691 4941 
L 691 -384 
z
" transform="scale(0.015625)"/>
      <path id="AppleSDGothicNeo-Regular-25" d="M 550 269 
L 1830 269 
C 3226 269 3853 1056 3853 2406 
L 3853 2528 
C 3853 3898 3130 4563 1824 4563 
L 550 4563 
L 550 269 
z
M 1056 704 
L 1056 4128 
L 1773 4128 
C 2758 4128 3302 3718 3302 2528 
L 3302 2336 
C 3302 1190 2854 704 1843 704 
L 1056 704 
z
" transform="scale(0.015625)"/>
      <path id="AppleSDGothicNeo-Regular-30" d="M 2182 198 
C 3360 198 4070 1011 4070 2362 
L 4070 2464 
C 4070 3872 3360 4634 2202 4634 
C 1018 4634 307 3821 307 2470 
L 307 2368 
C 307 960 1018 198 2182 198 
z
M 2195 614 
C 1235 614 851 1331 851 2368 
L 851 2566 
C 851 3526 1293 4218 2176 4218 
C 3149 4211 3526 3507 3526 2464 
L 3526 2266 
C 3526 1312 3085 614 2195 614 
z
" transform="scale(0.015625)"/>
      <path id="AppleSDGothicNeo-Regular-22" d="M 122 269 
L 608 269 
L 1050 1523 
L 2771 1523 
L 3226 269 
L 3757 269 
L 2189 4563 
L 1696 4563 
L 122 269 
z
M 1901 3885 
L 1914 3885 
L 2611 1952 
L 1197 1952 
L 1901 3885 
z
" transform="scale(0.015625)"/>
      <path id="AppleSDGothicNeo-Regular-48" d="M 1574 -672 
C 2656 -672 3091 -243 3091 301 
C 3091 890 2662 1062 2086 1062 
L 1210 1062 
C 998 1062 896 1126 896 1299 
C 896 1402 960 1478 1043 1555 
C 1210 1498 1389 1466 1587 1466 
C 2253 1466 2778 1805 2778 2483 
L 2778 2490 
C 2778 2739 2694 2931 2547 3072 
L 3117 3072 
L 3117 3450 
L 2042 3450 
C 1901 3482 1754 3501 1594 3501 
C 896 3501 397 3136 397 2477 
L 397 2464 
C 397 2086 550 1830 794 1670 
C 550 1491 435 1344 435 1146 
C 435 934 576 800 755 749 
L 755 717 
C 429 608 154 410 154 70 
C 154 -390 608 -672 1574 -672 
z
M 1562 -288 
C 934 -288 666 -147 666 134 
C 666 403 851 544 1094 627 
L 2010 627 
C 2426 627 2579 531 2579 237 
C 2579 -96 2310 -288 1562 -288 
z
M 1587 1850 
C 1165 1850 883 2054 883 2470 
L 883 2502 
C 883 2899 1152 3130 1587 3130 
C 2016 3130 2285 2931 2285 2496 
L 2285 2464 
C 2285 2054 2029 1850 1587 1850 
z
" transform="scale(0.015625)"/>
      <path id="AppleSDGothicNeo-Regular-28" d="M 2298 198 
C 2842 198 3283 314 3616 435 
L 3616 2349 
L 2195 2349 
L 2195 1926 
L 3117 1926 
L 3117 755 
C 2912 678 2611 627 2310 627 
C 1158 627 851 1344 851 2342 
L 851 2515 
C 851 3424 1229 4205 2298 4205 
C 2867 4205 3194 4064 3456 3942 
L 3456 4384 
C 3200 4512 2867 4634 2336 4634 
C 1254 4634 307 4058 307 2445 
L 307 2330 
C 307 858 1082 198 2298 198 
z
" transform="scale(0.015625)"/>
      <path id="AppleSDGothicNeo-Regular-26" d="M 557 269 
L 3123 269 
L 3123 698 
L 1062 698 
L 1062 2266 
L 2637 2266 
L 2637 2694 
L 1062 2694 
L 1062 4134 
L 3104 4134 
L 3104 4563 
L 557 4563 
L 557 269 
z
" transform="scale(0.015625)"/>
      <path id="AppleSDGothicNeo-Regular-34" d="M 1472 192 
C 2477 192 2912 691 2912 1440 
C 2912 2163 2509 2432 1875 2650 
L 1453 2784 
C 966 2950 813 3130 813 3539 
C 813 3949 1107 4205 1632 4205 
C 2106 4205 2445 4083 2694 3968 
L 2694 4397 
C 2458 4512 2157 4634 1651 4634 
C 755 4634 314 4160 314 3494 
C 314 2842 653 2534 1254 2336 
L 1670 2189 
C 2189 2022 2400 1843 2400 1402 
C 2400 934 2112 627 1453 627 
C 998 627 576 742 250 909 
L 250 480 
C 538 320 947 192 1472 192 
z
" transform="scale(0.015625)"/>
     </defs>
     <use xlink:href="#AppleSDGothicNeo-Regular-11"/>
     <use xlink:href="#AppleSDGothicNeo-Regular-19" transform="translate(63 0)"/>
     <use xlink:href="#AppleSDGothicNeo-Regular-40" transform="translate(120.5 0)"/>
     <use xlink:href="#AppleSDGothicNeo-Regular-a4c" transform="translate(154.09375 0)"/>
     <use xlink:href="#AppleSDGothicNeo-Regular-7c8" transform="translate(240.59375 0)"/>
     <use xlink:href="#AppleSDGothicNeo-Regular-40" transform="translate(327.09375 0)"/>
     <use xlink:href="#AppleSDGothicNeo-Regular-468" transform="translate(360.6875 0)"/>
     <use xlink:href="#AppleSDGothicNeo-Regular-c37" transform="translate(447.1875 0)"/>
     <use xlink:href="#AppleSDGothicNeo-Regular-40" transform="translate(533.6875 0)"/>
     <use xlink:href="#AppleSDGothicNeo-Regular-35" transform="translate(567.28125 0)"/>
     <use xlink:href="#AppleSDGothicNeo-Regular-31" transform="translate(621.6875 0)"/>
     <use xlink:href="#AppleSDGothicNeo-Regular-40" transform="translate(676.984375 0)"/>
     <use xlink:href="#AppleSDGothicNeo-Regular-13" transform="translate(710.578125 0)"/>
     <use xlink:href="#AppleSDGothicNeo-Regular-1" transform="translate(763.875 0)"/>
     <use xlink:href="#AppleSDGothicNeo-Regular-5d" transform="translate(790.171875 0)"/>
     <use xlink:href="#AppleSDGothicNeo-Regular-1" transform="translate(818.375 0)"/>
     <use xlink:href="#AppleSDGothicNeo-Regular-25" transform="translate(844.671875 0)"/>
     <use xlink:href="#AppleSDGothicNeo-Regular-4a" transform="translate(909.671875 0)"/>
     <use xlink:href="#AppleSDGothicNeo-Regular-54" transform="translate(932.375 0)"/>
     <use xlink:href="#AppleSDGothicNeo-Regular-55" transform="translate(973.875 0)"/>
     <use xlink:href="#AppleSDGothicNeo-Regular-42" transform="translate(1008.875 0)"/>
     <use xlink:href="#AppleSDGothicNeo-Regular-4d" transform="translate(1056.078125 0)"/>
     <use xlink:href="#AppleSDGothicNeo-Regular-31" transform="translate(1078.78125 0)"/>
     <use xlink:href="#AppleSDGothicNeo-Regular-49" transform="translate(1134.078125 0)"/>
     <use xlink:href="#AppleSDGothicNeo-Regular-42" transform="translate(1187.671875 0)"/>
     <use xlink:href="#AppleSDGothicNeo-Regular-4d" transform="translate(1234.875 0)"/>
     <use xlink:href="#AppleSDGothicNeo-Regular-42" transform="translate(1257.578125 0)"/>
     <use xlink:href="#AppleSDGothicNeo-Regular-4f" transform="translate(1304.78125 0)"/>
     <use xlink:href="#AppleSDGothicNeo-Regular-59" transform="translate(1358.375 0)"/>
     <use xlink:href="#AppleSDGothicNeo-Regular-30" transform="translate(1406.078125 0)"/>
     <use xlink:href="#AppleSDGothicNeo-Regular-56" transform="translate(1474.484375 0)"/>
     <use xlink:href="#AppleSDGothicNeo-Regular-55" transform="translate(1527.484375 0)"/>
     <use xlink:href="#AppleSDGothicNeo-Regular-4d" transform="translate(1562.484375 0)"/>
     <use xlink:href="#AppleSDGothicNeo-Regular-4a" transform="translate(1585.1875 0)"/>
     <use xlink:href="#AppleSDGothicNeo-Regular-4f" transform="translate(1607.890625 0)"/>
     <use xlink:href="#AppleSDGothicNeo-Regular-46" transform="translate(1661.484375 0)"/>
     <use xlink:href="#AppleSDGothicNeo-Regular-22" transform="translate(1711.484375 0)"/>
     <use xlink:href="#AppleSDGothicNeo-Regular-48" transform="translate(1771.984375 0)"/>
     <use xlink:href="#AppleSDGothicNeo-Regular-46" transform="translate(1822.578125 0)"/>
     <use xlink:href="#AppleSDGothicNeo-Regular-28" transform="translate(1872.578125 0)"/>
     <use xlink:href="#AppleSDGothicNeo-Regular-53" transform="translate(1935.875 0)"/>
     <use xlink:href="#AppleSDGothicNeo-Regular-50" transform="translate(1970.46875 0)"/>
     <use xlink:href="#AppleSDGothicNeo-Regular-56" transform="translate(2023.875 0)"/>
     <use xlink:href="#AppleSDGothicNeo-Regular-51" transform="translate(2076.875 0)"/>
     <use xlink:href="#AppleSDGothicNeo-Regular-40" transform="translate(2131.375 0)"/>
     <use xlink:href="#AppleSDGothicNeo-Regular-4f" transform="translate(2164.96875 0)"/>
     <use xlink:href="#AppleSDGothicNeo-Regular-50" transform="translate(2218.5625 0)"/>
     <use xlink:href="#AppleSDGothicNeo-Regular-53" transform="translate(2271.96875 0)"/>
     <use xlink:href="#AppleSDGothicNeo-Regular-4e" transform="translate(2306.5625 0)"/>
     <use xlink:href="#AppleSDGothicNeo-Regular-42" transform="translate(2386.859375 0)"/>
     <use xlink:href="#AppleSDGothicNeo-Regular-4d" transform="translate(2434.0625 0)"/>
     <use xlink:href="#AppleSDGothicNeo-Regular-40" transform="translate(2456.765625 0)"/>
     <use xlink:href="#AppleSDGothicNeo-Regular-14" transform="translate(2490.359375 0)"/>
     <use xlink:href="#AppleSDGothicNeo-Regular-1" transform="translate(2543.953125 0)"/>
     <use xlink:href="#AppleSDGothicNeo-Regular-5d" transform="translate(2570.25 0)"/>
     <use xlink:href="#AppleSDGothicNeo-Regular-1" transform="translate(2598.453125 0)"/>
     <use xlink:href="#AppleSDGothicNeo-Regular-35" transform="translate(2624.75 0)"/>
     <use xlink:href="#AppleSDGothicNeo-Regular-26" transform="translate(2679.15625 0)"/>
     <use xlink:href="#AppleSDGothicNeo-Regular-34" transform="translate(2734.15625 0)"/>
     <use xlink:href="#AppleSDGothicNeo-Regular-35" transform="translate(2784.5625 0)"/>
     <use xlink:href="#AppleSDGothicNeo-Regular-1" transform="translate(2838.96875 0)"/>
     <use xlink:href="#AppleSDGothicNeo-Regular-4a" transform="translate(2865.265625 0)"/>
     <use xlink:href="#AppleSDGothicNeo-Regular-4f" transform="translate(2887.96875 0)"/>
     <use xlink:href="#AppleSDGothicNeo-Regular-45" transform="translate(2941.5625 0)"/>
     <use xlink:href="#AppleSDGothicNeo-Regular-46" transform="translate(2996.0625 0)"/>
     <use xlink:href="#AppleSDGothicNeo-Regular-59" transform="translate(3045.0625 0)"/>
     <use xlink:href="#AppleSDGothicNeo-Regular-1" transform="translate(3092.765625 0)"/>
     <use xlink:href="#AppleSDGothicNeo-Regular-13" transform="translate(3119.0625 0)"/>
     <use xlink:href="#AppleSDGothicNeo-Regular-1a" transform="translate(3172.359375 0)"/>
     <use xlink:href="#AppleSDGothicNeo-Regular-19" transform="translate(3227.765625 0)"/>
     <use xlink:href="#AppleSDGothicNeo-Regular-1" transform="translate(3285.265625 0)"/>
     <use xlink:href="#AppleSDGothicNeo-Regular-5d" transform="translate(3311.5625 0)"/>
     <use xlink:href="#AppleSDGothicNeo-Regular-1" transform="translate(3339.765625 0)"/>
     <use xlink:href="#AppleSDGothicNeo-Regular-a4c" transform="translate(3366.0625 0)"/>
     <use xlink:href="#AppleSDGothicNeo-Regular-7c8" transform="translate(3452.5625 0)"/>
     <use xlink:href="#AppleSDGothicNeo-Regular-1" transform="translate(3539.0625 0)"/>
     <use xlink:href="#AppleSDGothicNeo-Regular-468" transform="translate(3565.359375 0)"/>
     <use xlink:href="#AppleSDGothicNeo-Regular-c37" transform="translate(3651.859375 0)"/>
    </g>
   </g>
   <g id="legend_1">
    <g id="patch_7">
     <path d="M 734.59875 74.8 
L 838.6 74.8 
Q 840.2 74.8 840.2 73.2 
L 840.2 33.2 
Q 840.2 31.6 838.6 31.6 
L 734.59875 31.6 
Q 732.99875 31.6 732.99875 33.2 
L 732.99875 73.2 
Q 732.99875 74.8 734.59875 74.8 
z
" style="fill: #ffffff; opacity: 0.8; stroke: #cccccc; stroke-linejoin: miter"/>
    </g>
    <g id="patch_8">
     <path d="M 736.19875 42 
L 752.19875 42 
L 752.19875 36.4 
L 736.19875 36.4 
z
" style="fill: #a7dff3; fill-opacity: 0.55; stroke: #a7dff3; stroke-opacity: 0.55; stroke-linejoin: miter"/>
    </g>
    <g id="text_22">
     <!-- TRAIN normal p05-p95 -->
     <g transform="translate(758.59875 42) scale(0.08 -0.08)">
      <defs>
       <path id="AppleSDGothicNeo-Regular-33" d="M 550 269 
L 1056 269 
L 1056 2112 
L 1875 2112 
L 2944 269 
L 3520 269 
L 2381 2202 
L 2381 2234 
C 2912 2400 3219 2746 3219 3360 
C 3219 4134 2746 4563 1798 4563 
L 550 4563 
L 550 269 
z
M 1056 2509 
L 1056 4134 
L 1760 4134 
C 2419 4134 2682 3885 2682 3354 
C 2682 2797 2438 2509 1766 2509 
L 1056 2509 
z
" transform="scale(0.015625)"/>
       <path id="AppleSDGothicNeo-Regular-2a" d="M 576 269 
L 1082 269 
L 1082 4563 
L 576 4563 
L 576 269 
z
" transform="scale(0.015625)"/>
       <path id="AppleSDGothicNeo-Regular-2f" d="M 550 269 
L 1024 269 
L 1024 3872 
L 1043 3872 
L 3174 269 
L 3699 269 
L 3699 4563 
L 3238 4563 
L 3238 1126 
L 3219 1126 
L 1152 4563 
L 550 4563 
L 550 269 
z
" transform="scale(0.015625)"/>
      </defs>
      <use xlink:href="#AppleSDGothicNeo-Regular-35"/>
      <use xlink:href="#AppleSDGothicNeo-Regular-33" transform="translate(54.40625 0)"/>
      <use xlink:href="#AppleSDGothicNeo-Regular-22" transform="translate(112.203125 0)"/>
      <use xlink:href="#AppleSDGothicNeo-Regular-2a" transform="translate(172.703125 0)"/>
      <use xlink:href="#AppleSDGothicNeo-Regular-2f" transform="translate(198.609375 0)"/>
      <use xlink:href="#AppleSDGothicNeo-Regular-1" transform="translate(265.203125 0)"/>
      <use xlink:href="#AppleSDGothicNeo-Regular-4f" transform="translate(291.5 0)"/>
      <use xlink:href="#AppleSDGothicNeo-Regular-50" transform="translate(345.09375 0)"/>
      <use xlink:href="#AppleSDGothicNeo-Regular-53" transform="translate(398.5 0)"/>
      <use xlink:href="#AppleSDGothicNeo-Regular-4e" transform="translate(433.09375 0)"/>
      <use xlink:href="#AppleSDGothicNeo-Regular-42" transform="translate(513.390625 0)"/>
      <use xlink:href="#AppleSDGothicNeo-Regular-4d" transform="translate(560.59375 0)"/>
      <use xlink:href="#AppleSDGothicNeo-Regular-1" transform="translate(583.296875 0)"/>
      <use xlink:href="#AppleSDGothicNeo-Regular-51" transform="translate(609.59375 0)"/>
      <use xlink:href="#AppleSDGothicNeo-Regular-11" transform="translate(664.09375 0)"/>
      <use xlink:href="#AppleSDGothicNeo-Regular-16" transform="translate(727.09375 0)"/>
      <use xlink:href="#AppleSDGothicNeo-Regular-e" transform="translate(777 0)"/>
      <use xlink:href="#AppleSDGothicNeo-Regular-51" transform="translate(820.203125 0)"/>
      <use xlink:href="#AppleSDGothicNeo-Regular-1a" transform="translate(874.703125 0)"/>
      <use xlink:href="#AppleSDGothicNeo-Regular-16" transform="translate(930.109375 0)"/>
     </g>
    </g>
    <g id="line2d_20">
     <path d="M 736.19875 52.8 
L 744.19875 52.8 
L 752.19875 52.8 
" style="fill: none; stroke: #2378a8; stroke-width: 1.2; stroke-linecap: square"/>
    </g>
    <g id="text_23">
     <!-- TRAIN normal median -->
     <g transform="translate(758.59875 55.6) scale(0.08 -0.08)">
      <use xlink:href="#AppleSDGothicNeo-Regular-35"/>
      <use xlink:href="#AppleSDGothicNeo-Regular-33" transform="translate(54.40625 0)"/>
      <use xlink:href="#AppleSDGothicNeo-Regular-22" transform="translate(112.203125 0)"/>
      <use xlink:href="#AppleSDGothicNeo-Regular-2a" transform="translate(172.703125 0)"/>
      <use xlink:href="#AppleSDGothicNeo-Regular-2f" transform="translate(198.609375 0)"/>
      <use xlink:href="#AppleSDGothicNeo-Regular-1" transform="translate(265.203125 0)"/>
      <use xlink:href="#AppleSDGothicNeo-Regular-4f" transform="translate(291.5 0)"/>
      <use xlink:href="#AppleSDGothicNeo-Regular-50" transform="translate(345.09375 0)"/>
      <use xlink:href="#AppleSDGothicNeo-Regular-53" transform="translate(398.5 0)"/>
      <use xlink:href="#AppleSDGothicNeo-Regular-4e" transform="translate(433.09375 0)"/>
      <use xlink:href="#AppleSDGothicNeo-Regular-42" transform="translate(513.390625 0)"/>
      <use xlink:href="#AppleSDGothicNeo-Regular-4d" transform="translate(560.59375 0)"/>
      <use xlink:href="#AppleSDGothicNeo-Regular-1" transform="translate(583.296875 0)"/>
      <use xlink:href="#AppleSDGothicNeo-Regular-4e" transform="translate(609.59375 0)"/>
      <use xlink:href="#AppleSDGothicNeo-Regular-46" transform="translate(689.890625 0)"/>
      <use xlink:href="#AppleSDGothicNeo-Regular-45" transform="translate(739.890625 0)"/>
      <use xlink:href="#AppleSDGothicNeo-Regular-4a" transform="translate(794.390625 0)"/>
      <use xlink:href="#AppleSDGothicNeo-Regular-42" transform="translate(817.09375 0)"/>
      <use xlink:href="#AppleSDGothicNeo-Regular-4f" transform="translate(864.296875 0)"/>
     </g>
    </g>
    <g id="line2d_21">
     <path d="M 736.19875 66.4 
L 744.19875 66.4 
L 752.19875 66.4 
" style="fill: none; stroke: #e45756; stroke-width: 1.1; stroke-linecap: square"/>
    </g>
    <g id="text_24">
     <!-- selected TEST series -->
     <g transform="translate(758.59875 69.2) scale(0.08 -0.08)">
      <use xlink:href="#AppleSDGothicNeo-Regular-54"/>
      <use xlink:href="#AppleSDGothicNeo-Regular-46" transform="translate(41.5 0)"/>
      <use xlink:href="#AppleSDGothicNeo-Regular-4d" transform="translate(91.5 0)"/>
      <use xlink:href="#AppleSDGothicNeo-Regular-46" transform="translate(114.203125 0)"/>
      <use xlink:href="#AppleSDGothicNeo-Regular-44" transform="translate(164.203125 0)"/>
      <use xlink:href="#AppleSDGothicNeo-Regular-55" transform="translate(210.109375 0)"/>
      <use xlink:href="#AppleSDGothicNeo-Regular-46" transform="translate(245.109375 0)"/>
      <use xlink:href="#AppleSDGothicNeo-Regular-45" transform="translate(295.109375 0)"/>
      <use xlink:href="#AppleSDGothicNeo-Regular-1" transform="translate(349.609375 0)"/>
      <use xlink:href="#AppleSDGothicNeo-Regular-35" transform="translate(375.90625 0)"/>
      <use xlink:href="#AppleSDGothicNeo-Regular-26" transform="translate(430.3125 0)"/>
      <use xlink:href="#AppleSDGothicNeo-Regular-34" transform="translate(485.3125 0)"/>
      <use xlink:href="#AppleSDGothicNeo-Regular-35" transform="translate(535.71875 0)"/>
      <use xlink:href="#AppleSDGothicNeo-Regular-1" transform="translate(590.125 0)"/>
      <use xlink:href="#AppleSDGothicNeo-Regular-54" transform="translate(616.421875 0)"/>
      <use xlink:href="#AppleSDGothicNeo-Regular-46" transform="translate(657.921875 0)"/>
      <use xlink:href="#AppleSDGothicNeo-Regular-53" transform="translate(707.921875 0)"/>
      <use xlink:href="#AppleSDGothicNeo-Regular-4a" transform="translate(742.515625 0)"/>
      <use xlink:href="#AppleSDGothicNeo-Regular-46" transform="translate(765.21875 0)"/>
      <use xlink:href="#AppleSDGothicNeo-Regular-54" transform="translate(815.21875 0)"/>
     </g>
    </g>
   </g>
  </g>
  <g id="axes_2">
   <g id="patch_9">
    <path d="M 51.8 443.08 
L 844.2 443.08 
L 844.2 369.144 
L 51.8 369.144 
z
" style="fill: #ffffff"/>
   </g>
   <g id="PathCollection_1">
    <defs>
     <path id="m56aa88cc2a" d="M -3 3 
L 3 -3 
M -3 -3 
L 3 3 
" style="stroke: #e45756; stroke-width: 1.5"/>
    </defs>
    <g clip-path="url(#p6d97664947)">
     <use xlink:href="#m56aa88cc2a" x="828.404651" y="416.984941" style="fill: #e45756; stroke: #e45756; stroke-width: 1.5"/>
     <use xlink:href="#m56aa88cc2a" x="831.037209" y="416.984941" style="fill: #e45756; stroke: #e45756; stroke-width: 1.5"/>
     <use xlink:href="#m56aa88cc2a" x="833.669767" y="416.984941" style="fill: #e45756; stroke: #e45756; stroke-width: 1.5"/>
     <use xlink:href="#m56aa88cc2a" x="836.302326" y="416.984941" style="fill: #e45756; stroke: #e45756; stroke-width: 1.5"/>
     <use xlink:href="#m56aa88cc2a" x="838.934884" y="416.984941" style="fill: #e45756; stroke: #e45756; stroke-width: 1.5"/>
     <use xlink:href="#m56aa88cc2a" x="841.567442" y="416.984941" style="fill: #e45756; stroke: #e45756; stroke-width: 1.5"/>
    </g>
   </g>
   <g id="PathCollection_2">
    <defs>
     <path id="m5adeab9643" d="M 0 3 
C 0.795609 3 1.55874 2.683901 2.12132 2.12132 
C 2.683901 1.55874 3 0.795609 3 0 
C 3 -0.795609 2.683901 -1.55874 2.12132 -2.12132 
C 1.55874 -2.683901 0.795609 -3 0 -3 
C -0.795609 -3 -1.55874 -2.683901 -2.12132 -2.12132 
C -2.683901 -1.55874 -3 -0.795609 -3 0 
C -3 0.795609 -2.683901 1.55874 -2.12132 2.12132 
C -1.55874 2.683901 -0.795609 3 0 3 
z
" style="stroke: #111111"/>
    </defs>
    <g clip-path="url(#p6d97664947)">
     <use xlink:href="#m5adeab9643" x="838.934884" y="395.239059" style="fill: #111111; stroke: #111111"/>
    </g>
   </g>
   <g id="matplotlib.axis_3">
    <g id="xtick_10">
     <g id="line2d_22">
      <g>
       <use xlink:href="#mc161e74405" x="54.432558" y="443.08" style="stroke: #000000; stroke-width: 0.8"/>
      </g>
     </g>
     <g id="text_25">
      <!-- 0 -->
      <g transform="translate(51.282558 459.08) scale(0.1 -0.1)">
       <use xlink:href="#AppleSDGothicNeo-Regular-11"/>
      </g>
     </g>
    </g>
    <g id="xtick_11">
     <g id="line2d_23">
      <g>
       <use xlink:href="#mc161e74405" x="186.060465" y="443.08" style="stroke: #000000; stroke-width: 0.8"/>
      </g>
     </g>
     <g id="text_26">
      <!-- 50 -->
      <g transform="translate(180.415153 459.08) scale(0.1 -0.1)">
       <use xlink:href="#AppleSDGothicNeo-Regular-16"/>
       <use xlink:href="#AppleSDGothicNeo-Regular-11" transform="translate(49.90625 0)"/>
      </g>
     </g>
    </g>
    <g id="xtick_12">
     <g id="line2d_24">
      <g>
       <use xlink:href="#mc161e74405" x="317.688372" y="443.08" style="stroke: #000000; stroke-width: 0.8"/>
      </g>
     </g>
     <g id="text_27">
      <!-- 100 -->
      <g transform="translate(309.603216 459.08) scale(0.1 -0.1)">
       <use xlink:href="#AppleSDGothicNeo-Regular-12"/>
       <use xlink:href="#AppleSDGothicNeo-Regular-11" transform="translate(35.703125 0)"/>
       <use xlink:href="#AppleSDGothicNeo-Regular-11" transform="translate(98.703125 0)"/>
      </g>
     </g>
    </g>
    <g id="xtick_13">
     <g id="line2d_25">
      <g>
       <use xlink:href="#mc161e74405" x="449.316279" y="443.08" style="stroke: #000000; stroke-width: 0.8"/>
      </g>
     </g>
     <g id="text_28">
      <!-- 150 -->
      <g transform="translate(441.88581 459.08) scale(0.1 -0.1)">
       <use xlink:href="#AppleSDGothicNeo-Regular-12"/>
       <use xlink:href="#AppleSDGothicNeo-Regular-16" transform="translate(35.703125 0)"/>
       <use xlink:href="#AppleSDGothicNeo-Regular-11" transform="translate(85.609375 0)"/>
      </g>
     </g>
    </g>
    <g id="xtick_14">
     <g id="line2d_26">
      <g>
       <use xlink:href="#mc161e74405" x="580.944186" y="443.08" style="stroke: #000000; stroke-width: 0.8"/>
      </g>
     </g>
     <g id="text_29">
      <!-- 200 -->
      <g transform="translate(572.004342 459.08) scale(0.1 -0.1)">
       <use xlink:href="#AppleSDGothicNeo-Regular-13"/>
       <use xlink:href="#AppleSDGothicNeo-Regular-11" transform="translate(52.796875 0)"/>
       <use xlink:href="#AppleSDGothicNeo-Regular-11" transform="translate(115.796875 0)"/>
      </g>
     </g>
    </g>
    <g id="xtick_15">
     <g id="line2d_27">
      <g>
       <use xlink:href="#mc161e74405" x="712.572093" y="443.08" style="stroke: #000000; stroke-width: 0.8"/>
      </g>
     </g>
     <g id="text_30">
      <!-- 250 -->
      <g transform="translate(704.261937 459.08) scale(0.1 -0.1)">
       <use xlink:href="#AppleSDGothicNeo-Regular-13"/>
       <use xlink:href="#AppleSDGothicNeo-Regular-16" transform="translate(53.296875 0)"/>
       <use xlink:href="#AppleSDGothicNeo-Regular-11" transform="translate(103.203125 0)"/>
      </g>
     </g>
    </g>
    <g id="xtick_16">
     <g id="line2d_28">
      <g>
       <use xlink:href="#mc161e74405" x="844.2" y="443.08" style="stroke: #000000; stroke-width: 0.8"/>
      </g>
     </g>
     <g id="text_31">
      <!-- 300 -->
      <g transform="translate(835.220312 459.08) scale(0.1 -0.1)">
       <use xlink:href="#AppleSDGothicNeo-Regular-14"/>
       <use xlink:href="#AppleSDGothicNeo-Regular-11" transform="translate(53.59375 0)"/>
       <use xlink:href="#AppleSDGothicNeo-Regular-11" transform="translate(116.59375 0)"/>
      </g>
     </g>
    </g>
    <g id="text_32">
     <!-- TEST sample index -->
     <g transform="translate(408.474219 475.08) scale(0.1 -0.1)">
      <use xlink:href="#AppleSDGothicNeo-Regular-35"/>
      <use xlink:href="#AppleSDGothicNeo-Regular-26" transform="translate(54.40625 0)"/>
      <use xlink:href="#AppleSDGothicNeo-Regular-34" transform="translate(109.40625 0)"/>
      <use xlink:href="#AppleSDGothicNeo-Regular-35" transform="translate(159.8125 0)"/>
      <use xlink:href="#AppleSDGothicNeo-Regular-1" transform="translate(214.21875 0)"/>
      <use xlink:href="#AppleSDGothicNeo-Regular-54" transform="translate(240.515625 0)"/>
      <use xlink:href="#AppleSDGothicNeo-Regular-42" transform="translate(282.015625 0)"/>
      <use xlink:href="#AppleSDGothicNeo-Regular-4e" transform="translate(329.21875 0)"/>
      <use xlink:href="#AppleSDGothicNeo-Regular-51" transform="translate(409.515625 0)"/>
      <use xlink:href="#AppleSDGothicNeo-Regular-4d" transform="translate(464.015625 0)"/>
      <use xlink:href="#AppleSDGothicNeo-Regular-46" transform="translate(486.71875 0)"/>
      <use xlink:href="#AppleSDGothicNeo-Regular-1" transform="translate(536.71875 0)"/>
      <use xlink:href="#AppleSDGothicNeo-Regular-4a" transform="translate(563.015625 0)"/>
      <use xlink:href="#AppleSDGothicNeo-Regular-4f" transform="translate(585.71875 0)"/>
      <use xlink:href="#AppleSDGothicNeo-Regular-45" transform="translate(639.3125 0)"/>
      <use xlink:href="#AppleSDGothicNeo-Regular-46" transform="translate(693.8125 0)"/>
      <use xlink:href="#AppleSDGothicNeo-Regular-59" transform="translate(742.8125 0)"/>
     </g>
    </g>
   </g>
   <g id="matplotlib.axis_4"/>
   <g id="patch_10">
    <path d="M 51.8 443.08 
L 51.8 369.144 
" style="fill: none; stroke: #000000; stroke-width: 0.8; stroke-linejoin: miter; stroke-linecap: square"/>
   </g>
   <g id="patch_11">
    <path d="M 844.2 443.08 
L 844.2 369.144 
" style="fill: none; stroke: #000000; stroke-width: 0.8; stroke-linejoin: miter; stroke-linecap: square"/>
   </g>
   <g id="patch_12">
    <path d="M 51.8 443.08 
L 844.2 443.08 
" style="fill: none; stroke: #000000; stroke-width: 0.8; stroke-linejoin: miter; stroke-linecap: square"/>
   </g>
   <g id="patch_13">
    <path d="M 51.8 369.144 
L 844.2 369.144 
" style="fill: none; stroke: #000000; stroke-width: 0.8; stroke-linejoin: miter; stroke-linecap: square"/>
   </g>
   <g id="legend_2">
    <g id="patch_14">
     <path d="M 725.22875 402.744 
L 838.6 402.744 
Q 840.2 402.744 840.2 401.144 
L 840.2 374.744 
Q 840.2 373.144 838.6 373.144 
L 725.22875 373.144 
Q 723.62875 373.144 723.62875 374.744 
L 723.62875 401.144 
Q 723.62875 402.744 725.22875 402.744 
z
" style="fill: #ffffff; opacity: 0.8; stroke: #cccccc; stroke-linejoin: miter"/>
    </g>
    <g id="PathCollection_3">
     <g>
      <use xlink:href="#m56aa88cc2a" x="734.82875" y="381.444" style="fill: #e45756; stroke: #e45756; stroke-width: 1.5"/>
     </g>
    </g>
    <g id="text_33">
     <!-- actual anomaly (post-hoc) -->
     <g transform="translate(749.22875 383.544) scale(0.08 -0.08)">
      <defs>
       <path id="AppleSDGothicNeo-Regular-9" d="M 1472 -384 
L 1914 -384 
C 1344 256 883 1235 883 2221 
L 883 2374 
C 883 3392 1344 4307 1914 4941 
L 1472 4941 
C 883 4339 365 3469 365 2330 
L 365 2227 
C 365 1094 883 218 1472 -384 
z
" transform="scale(0.015625)"/>
       <path id="AppleSDGothicNeo-Regular-a" d="M 115 -384 
L 550 -384 
C 1146 218 1651 1088 1651 2227 
L 1651 2330 
C 1651 3462 1146 4339 550 4941 
L 115 4941 
C 678 4301 1146 3322 1146 2336 
L 1146 2176 
C 1146 1165 678 250 115 -384 
z
" transform="scale(0.015625)"/>
      </defs>
      <use xlink:href="#AppleSDGothicNeo-Regular-42"/>
      <use xlink:href="#AppleSDGothicNeo-Regular-44" transform="translate(47.203125 0)"/>
      <use xlink:href="#AppleSDGothicNeo-Regular-55" transform="translate(93.109375 0)"/>
      <use xlink:href="#AppleSDGothicNeo-Regular-56" transform="translate(128.109375 0)"/>
      <use xlink:href="#AppleSDGothicNeo-Regular-42" transform="translate(181.109375 0)"/>
      <use xlink:href="#AppleSDGothicNeo-Regular-4d" transform="translate(228.3125 0)"/>
      <use xlink:href="#AppleSDGothicNeo-Regular-1" transform="translate(251.015625 0)"/>
      <use xlink:href="#AppleSDGothicNeo-Regular-42" transform="translate(277.3125 0)"/>
      <use xlink:href="#AppleSDGothicNeo-Regular-4f" transform="translate(324.515625 0)"/>
      <use xlink:href="#AppleSDGothicNeo-Regular-50" transform="translate(378.109375 0)"/>
      <use xlink:href="#AppleSDGothicNeo-Regular-4e" transform="translate(431.515625 0)"/>
      <use xlink:href="#AppleSDGothicNeo-Regular-42" transform="translate(511.8125 0)"/>
      <use xlink:href="#AppleSDGothicNeo-Regular-4d" transform="translate(559.015625 0)"/>
      <use xlink:href="#AppleSDGothicNeo-Regular-5a" transform="translate(581.71875 0)"/>
      <use xlink:href="#AppleSDGothicNeo-Regular-1" transform="translate(629.921875 0)"/>
      <use xlink:href="#AppleSDGothicNeo-Regular-9" transform="translate(656.21875 0)"/>
      <use xlink:href="#AppleSDGothicNeo-Regular-51" transform="translate(687.921875 0)"/>
      <use xlink:href="#AppleSDGothicNeo-Regular-50" transform="translate(742.421875 0)"/>
      <use xlink:href="#AppleSDGothicNeo-Regular-54" transform="translate(795.828125 0)"/>
      <use xlink:href="#AppleSDGothicNeo-Regular-55" transform="translate(837.328125 0)"/>
      <use xlink:href="#AppleSDGothicNeo-Regular-e" transform="translate(870.234375 0)"/>
      <use xlink:href="#AppleSDGothicNeo-Regular-49" transform="translate(913.4375 0)"/>
      <use xlink:href="#AppleSDGothicNeo-Regular-50" transform="translate(967.03125 0)"/>
      <use xlink:href="#AppleSDGothicNeo-Regular-44" transform="translate(1020.4375 0)"/>
      <use xlink:href="#AppleSDGothicNeo-Regular-a" transform="translate(1065.4375 0)"/>
     </g>
    </g>
    <g id="PathCollection_4">
     <g>
      <use xlink:href="#m5adeab9643" x="734.82875" y="395.044" style="fill: #111111; stroke: #111111"/>
     </g>
    </g>
    <g id="text_34">
     <!-- selected case -->
     <g transform="translate(749.22875 397.144) scale(0.08 -0.08)">
      <use xlink:href="#AppleSDGothicNeo-Regular-54"/>
      <use xlink:href="#AppleSDGothicNeo-Regular-46" transform="translate(41.5 0)"/>
      <use xlink:href="#AppleSDGothicNeo-Regular-4d" transform="translate(91.5 0)"/>
      <use xlink:href="#AppleSDGothicNeo-Regular-46" transform="translate(114.203125 0)"/>
      <use xlink:href="#AppleSDGothicNeo-Regular-44" transform="translate(164.203125 0)"/>
      <use xlink:href="#AppleSDGothicNeo-Regular-55" transform="translate(210.109375 0)"/>
      <use xlink:href="#AppleSDGothicNeo-Regular-46" transform="translate(245.109375 0)"/>
      <use xlink:href="#AppleSDGothicNeo-Regular-45" transform="translate(295.109375 0)"/>
      <use xlink:href="#AppleSDGothicNeo-Regular-1" transform="translate(349.609375 0)"/>
      <use xlink:href="#AppleSDGothicNeo-Regular-44" transform="translate(375.90625 0)"/>
      <use xlink:href="#AppleSDGothicNeo-Regular-42" transform="translate(420.90625 0)"/>
      <use xlink:href="#AppleSDGothicNeo-Regular-54" transform="translate(468.109375 0)"/>
      <use xlink:href="#AppleSDGothicNeo-Regular-46" transform="translate(509.609375 0)"/>
     </g>
    </g>
   </g>
  </g>
  <g id="text_35">
   <!-- Actual anomaly labels are shown only for post-hoc evaluation and explanation; they were not used for candidate selection or routing. -->
   <g transform="translate(8.64 501.48) scale(0.08 -0.08)">
    <defs>
     <path id="AppleSDGothicNeo-Regular-43" d="M 1626 198 
C 2650 198 3206 800 3206 1862 
L 3206 1946 
C 3206 3136 2579 3501 1971 3501 
C 1536 3501 1235 3379 992 3232 
L 960 3232 
L 960 4851 
L 467 4851 
L 467 371 
C 749 262 1254 198 1626 198 
z
M 1651 608 
C 1331 608 1107 659 960 723 
L 960 2880 
C 1126 2957 1421 3085 1747 3085 
C 2387 3085 2694 2797 2694 1914 
L 2694 1786 
C 2694 877 2221 608 1651 608 
z
" transform="scale(0.015625)"/>
     <path id="AppleSDGothicNeo-Regular-58" d="M 1082 269 
L 1581 269 
L 2330 2688 
L 2349 2688 
L 3085 269 
L 3578 269 
L 4480 3443 
L 4013 3443 
L 3360 902 
L 3334 902 
L 2566 3443 
L 2144 3443 
L 1382 902 
L 1357 902 
L 704 3443 
L 179 3443 
L 1082 269 
z
" transform="scale(0.015625)"/>
     <path id="AppleSDGothicNeo-Regular-47" d="M 653 269 
L 1146 269 
L 1146 3034 
L 1875 3034 
L 1875 3437 
L 1146 3437 
L 1146 3866 
C 1146 4307 1357 4486 1734 4486 
C 1952 4486 2086 4461 2182 4442 
L 2182 4787 
C 2067 4845 1894 4896 1645 4896 
C 1069 4896 653 4595 653 3898 
L 653 3437 
L 186 3437 
L 186 3034 
L 653 3034 
L 653 269 
z
" transform="scale(0.015625)"/>
     <path id="AppleSDGothicNeo-Regular-1c" d="M 416 -122 
L 774 -122 
L 1222 1094 
L 646 1094 
L 416 -122 
z
M 646 3021 
L 1203 3021 
L 1203 3590 
L 646 3590 
L 646 3021 
z
" transform="scale(0.015625)"/>
    </defs>
    <use xlink:href="#AppleSDGothicNeo-Regular-22"/>
    <use xlink:href="#AppleSDGothicNeo-Regular-44" transform="translate(60.5 0)"/>
    <use xlink:href="#AppleSDGothicNeo-Regular-55" transform="translate(106.40625 0)"/>
    <use xlink:href="#AppleSDGothicNeo-Regular-56" transform="translate(141.40625 0)"/>
    <use xlink:href="#AppleSDGothicNeo-Regular-42" transform="translate(194.40625 0)"/>
    <use xlink:href="#AppleSDGothicNeo-Regular-4d" transform="translate(241.609375 0)"/>
    <use xlink:href="#AppleSDGothicNeo-Regular-1" transform="translate(264.3125 0)"/>
    <use xlink:href="#AppleSDGothicNeo-Regular-42" transform="translate(290.609375 0)"/>
    <use xlink:href="#AppleSDGothicNeo-Regular-4f" transform="translate(337.8125 0)"/>
    <use xlink:href="#AppleSDGothicNeo-Regular-50" transform="translate(391.40625 0)"/>
    <use xlink:href="#AppleSDGothicNeo-Regular-4e" transform="translate(444.8125 0)"/>
    <use xlink:href="#AppleSDGothicNeo-Regular-42" transform="translate(525.109375 0)"/>
    <use xlink:href="#AppleSDGothicNeo-Regular-4d" transform="translate(572.3125 0)"/>
    <use xlink:href="#AppleSDGothicNeo-Regular-5a" transform="translate(595.015625 0)"/>
    <use xlink:href="#AppleSDGothicNeo-Regular-1" transform="translate(643.21875 0)"/>
    <use xlink:href="#AppleSDGothicNeo-Regular-4d" transform="translate(669.515625 0)"/>
    <use xlink:href="#AppleSDGothicNeo-Regular-42" transform="translate(692.21875 0)"/>
    <use xlink:href="#AppleSDGothicNeo-Regular-43" transform="translate(739.421875 0)"/>
    <use xlink:href="#AppleSDGothicNeo-Regular-46" transform="translate(793.921875 0)"/>
    <use xlink:href="#AppleSDGothicNeo-Regular-4d" transform="translate(843.921875 0)"/>
    <use xlink:href="#AppleSDGothicNeo-Regular-54" transform="translate(866.625 0)"/>
    <use xlink:href="#AppleSDGothicNeo-Regular-1" transform="translate(908.125 0)"/>
    <use xlink:href="#AppleSDGothicNeo-Regular-42" transform="translate(934.421875 0)"/>
    <use xlink:href="#AppleSDGothicNeo-Regular-53" transform="translate(981.625 0)"/>
    <use xlink:href="#AppleSDGothicNeo-Regular-46" transform="translate(1016.21875 0)"/>
    <use xlink:href="#AppleSDGothicNeo-Regular-1" transform="translate(1066.21875 0)"/>
    <use xlink:href="#AppleSDGothicNeo-Regular-54" transform="translate(1092.515625 0)"/>
    <use xlink:href="#AppleSDGothicNeo-Regular-49" transform="translate(1134.015625 0)"/>
    <use xlink:href="#AppleSDGothicNeo-Regular-50" transform="translate(1187.609375 0)"/>
    <use xlink:href="#AppleSDGothicNeo-Regular-58" transform="translate(1241.015625 0)"/>
    <use xlink:href="#AppleSDGothicNeo-Regular-4f" transform="translate(1313.8125 0)"/>
    <use xlink:href="#AppleSDGothicNeo-Regular-1" transform="translate(1367.40625 0)"/>
    <use xlink:href="#AppleSDGothicNeo-Regular-50" transform="translate(1393.703125 0)"/>
    <use xlink:href="#AppleSDGothicNeo-Regular-4f" transform="translate(1447.109375 0)"/>
    <use xlink:href="#AppleSDGothicNeo-Regular-4d" transform="translate(1500.703125 0)"/>
    <use xlink:href="#AppleSDGothicNeo-Regular-5a" transform="translate(1523.40625 0)"/>
    <use xlink:href="#AppleSDGothicNeo-Regular-1" transform="translate(1571.609375 0)"/>
    <use xlink:href="#AppleSDGothicNeo-Regular-47" transform="translate(1597.90625 0)"/>
    <use xlink:href="#AppleSDGothicNeo-Regular-50" transform="translate(1630.203125 0)"/>
    <use xlink:href="#AppleSDGothicNeo-Regular-53" transform="translate(1683.609375 0)"/>
    <use xlink:href="#AppleSDGothicNeo-Regular-1" transform="translate(1718.203125 0)"/>
    <use xlink:href="#AppleSDGothicNeo-Regular-51" transform="translate(1744.5 0)"/>
    <use xlink:href="#AppleSDGothicNeo-Regular-50" transform="translate(1799 0)"/>
    <use xlink:href="#AppleSDGothicNeo-Regular-54" transform="translate(1852.40625 0)"/>
    <use xlink:href="#AppleSDGothicNeo-Regular-55" transform="translate(1893.90625 0)"/>
    <use xlink:href="#AppleSDGothicNeo-Regular-e" transform="translate(1926.8125 0)"/>
    <use xlink:href="#AppleSDGothicNeo-Regular-49" transform="translate(1970.015625 0)"/>
    <use xlink:href="#AppleSDGothicNeo-Regular-50" transform="translate(2023.609375 0)"/>
    <use xlink:href="#AppleSDGothicNeo-Regular-44" transform="translate(2077.015625 0)"/>
    <use xlink:href="#AppleSDGothicNeo-Regular-1" transform="translate(2122.015625 0)"/>
    <use xlink:href="#AppleSDGothicNeo-Regular-46" transform="translate(2148.3125 0)"/>
    <use xlink:href="#AppleSDGothicNeo-Regular-57" transform="translate(2197.8125 0)"/>
    <use xlink:href="#AppleSDGothicNeo-Regular-42" transform="translate(2245.515625 0)"/>
    <use xlink:href="#AppleSDGothicNeo-Regular-4d" transform="translate(2292.71875 0)"/>
    <use xlink:href="#AppleSDGothicNeo-Regular-56" transform="translate(2315.421875 0)"/>
    <use xlink:href="#AppleSDGothicNeo-Regular-42" transform="translate(2368.421875 0)"/>
    <use xlink:href="#AppleSDGothicNeo-Regular-55" transform="translate(2415.625 0)"/>
    <use xlink:href="#AppleSDGothicNeo-Regular-4a" transform="translate(2450.625 0)"/>
    <use xlink:href="#AppleSDGothicNeo-Regular-50" transform="translate(2473.328125 0)"/>
    <use xlink:href="#AppleSDGothicNeo-Regular-4f" transform="translate(2526.734375 0)"/>
    <use xlink:href="#AppleSDGothicNeo-Regular-1" transform="translate(2580.328125 0)"/>
    <use xlink:href="#AppleSDGothicNeo-Regular-42" transform="translate(2606.625 0)"/>
    <use xlink:href="#AppleSDGothicNeo-Regular-4f" transform="translate(2653.828125 0)"/>
    <use xlink:href="#AppleSDGothicNeo-Regular-45" transform="translate(2707.421875 0)"/>
    <use xlink:href="#AppleSDGothicNeo-Regular-1" transform="translate(2761.921875 0)"/>
    <use xlink:href="#AppleSDGothicNeo-Regular-46" transform="translate(2788.21875 0)"/>
    <use xlink:href="#AppleSDGothicNeo-Regular-59" transform="translate(2837.21875 0)"/>
    <use xlink:href="#AppleSDGothicNeo-Regular-51" transform="translate(2884.921875 0)"/>
    <use xlink:href="#AppleSDGothicNeo-Regular-4d" transform="translate(2939.421875 0)"/>
    <use xlink:href="#AppleSDGothicNeo-Regular-42" transform="translate(2962.125 0)"/>
    <use xlink:href="#AppleSDGothicNeo-Regular-4f" transform="translate(3009.328125 0)"/>
    <use xlink:href="#AppleSDGothicNeo-Regular-42" transform="translate(3062.921875 0)"/>
    <use xlink:href="#AppleSDGothicNeo-Regular-55" transform="translate(3110.125 0)"/>
    <use xlink:href="#AppleSDGothicNeo-Regular-4a" transform="translate(3145.125 0)"/>
    <use xlink:href="#AppleSDGothicNeo-Regular-50" transform="translate(3167.828125 0)"/>
    <use xlink:href="#AppleSDGothicNeo-Regular-4f" transform="translate(3221.234375 0)"/>
    <use xlink:href="#AppleSDGothicNeo-Regular-1c" transform="translate(3274.828125 0)"/>
    <use xlink:href="#AppleSDGothicNeo-Regular-1" transform="translate(3303.234375 0)"/>
    <use xlink:href="#AppleSDGothicNeo-Regular-55" transform="translate(3329.53125 0)"/>
    <use xlink:href="#AppleSDGothicNeo-Regular-49" transform="translate(3364.53125 0)"/>
    <use xlink:href="#AppleSDGothicNeo-Regular-46" transform="translate(3418.125 0)"/>
    <use xlink:href="#AppleSDGothicNeo-Regular-5a" transform="translate(3468.125 0)"/>
    <use xlink:href="#AppleSDGothicNeo-Regular-1" transform="translate(3516.328125 0)"/>
    <use xlink:href="#AppleSDGothicNeo-Regular-58" transform="translate(3542.625 0)"/>
    <use xlink:href="#AppleSDGothicNeo-Regular-46" transform="translate(3615.421875 0)"/>
    <use xlink:href="#AppleSDGothicNeo-Regular-53" transform="translate(3665.421875 0)"/>
    <use xlink:href="#AppleSDGothicNeo-Regular-46" transform="translate(3700.015625 0)"/>
    <use xlink:href="#AppleSDGothicNeo-Regular-1" transform="translate(3750.015625 0)"/>
    <use xlink:href="#AppleSDGothicNeo-Regular-4f" transform="translate(3776.3125 0)"/>
    <use xlink:href="#AppleSDGothicNeo-Regular-50" transform="translate(3829.90625 0)"/>
    <use xlink:href="#AppleSDGothicNeo-Regular-55" transform="translate(3883.3125 0)"/>
    <use xlink:href="#AppleSDGothicNeo-Regular-1" transform="translate(3918.3125 0)"/>
    <use xlink:href="#AppleSDGothicNeo-Regular-56" transform="translate(3944.609375 0)"/>
    <use xlink:href="#AppleSDGothicNeo-Regular-54" transform="translate(3997.609375 0)"/>
    <use xlink:href="#AppleSDGothicNeo-Regular-46" transform="translate(4039.109375 0)"/>
    <use xlink:href="#AppleSDGothicNeo-Regular-45" transform="translate(4089.109375 0)"/>
    <use xlink:href="#AppleSDGothicNeo-Regular-1" transform="translate(4143.609375 0)"/>
    <use xlink:href="#AppleSDGothicNeo-Regular-47" transform="translate(4169.90625 0)"/>
    <use xlink:href="#AppleSDGothicNeo-Regular-50" transform="translate(4202.203125 0)"/>
    <use xlink:href="#AppleSDGothicNeo-Regular-53" transform="translate(4255.609375 0)"/>
    <use xlink:href="#AppleSDGothicNeo-Regular-1" transform="translate(4290.203125 0)"/>
    <use xlink:href="#AppleSDGothicNeo-Regular-44" transform="translate(4316.5 0)"/>
    <use xlink:href="#AppleSDGothicNeo-Regular-42" transform="translate(4361.5 0)"/>
    <use xlink:href="#AppleSDGothicNeo-Regular-4f" transform="translate(4408.703125 0)"/>
    <use xlink:href="#AppleSDGothicNeo-Regular-45" transform="translate(4462.296875 0)"/>
    <use xlink:href="#AppleSDGothicNeo-Regular-4a" transform="translate(4516.796875 0)"/>
    <use xlink:href="#AppleSDGothicNeo-Regular-45" transform="translate(4539.5 0)"/>
    <use xlink:href="#AppleSDGothicNeo-Regular-42" transform="translate(4594 0)"/>
    <use xlink:href="#AppleSDGothicNeo-Regular-55" transform="translate(4641.203125 0)"/>
    <use xlink:href="#AppleSDGothicNeo-Regular-46" transform="translate(4676.203125 0)"/>
    <use xlink:href="#AppleSDGothicNeo-Regular-1" transform="translate(4726.203125 0)"/>
    <use xlink:href="#AppleSDGothicNeo-Regular-54" transform="translate(4752.5 0)"/>
    <use xlink:href="#AppleSDGothicNeo-Regular-46" transform="translate(4794 0)"/>
    <use xlink:href="#AppleSDGothicNeo-Regular-4d" transform="translate(4844 0)"/>
    <use xlink:href="#AppleSDGothicNeo-Regular-46" transform="translate(4866.703125 0)"/>
    <use xlink:href="#AppleSDGothicNeo-Regular-44" transform="translate(4916.703125 0)"/>
    <use xlink:href="#AppleSDGothicNeo-Regular-55" transform="translate(4962.609375 0)"/>
    <use xlink:href="#AppleSDGothicNeo-Regular-4a" transform="translate(4997.609375 0)"/>
    <use xlink:href="#AppleSDGothicNeo-Regular-50" transform="translate(5020.3125 0)"/>
    <use xlink:href="#AppleSDGothicNeo-Regular-4f" transform="translate(5073.71875 0)"/>
    <use xlink:href="#AppleSDGothicNeo-Regular-1" transform="translate(5127.3125 0)"/>
    <use xlink:href="#AppleSDGothicNeo-Regular-50" transform="translate(5153.609375 0)"/>
    <use xlink:href="#AppleSDGothicNeo-Regular-53" transform="translate(5207.015625 0)"/>
    <use xlink:href="#AppleSDGothicNeo-Regular-1" transform="translate(5241.609375 0)"/>
    <use xlink:href="#AppleSDGothicNeo-Regular-53" transform="translate(5267.90625 0)"/>
    <use xlink:href="#AppleSDGothicNeo-Regular-50" transform="translate(5302.5 0)"/>
    <use xlink:href="#AppleSDGothicNeo-Regular-56" transform="translate(5355.90625 0)"/>
    <use xlink:href="#AppleSDGothicNeo-Regular-55" transform="translate(5408.90625 0)"/>
    <use xlink:href="#AppleSDGothicNeo-Regular-4a" transform="translate(5443.90625 0)"/>
    <use xlink:href="#AppleSDGothicNeo-Regular-4f" transform="translate(5466.609375 0)"/>
    <use xlink:href="#AppleSDGothicNeo-Regular-48" transform="translate(5520.203125 0)"/>
    <use xlink:href="#AppleSDGothicNeo-Regular-f" transform="translate(5570.796875 0)"/>
   </g>
  </g>
 </g>
 <defs>
  <clipPath id="p97b804fb7f">
   <rect x="51.8" y="27.6" width="792.4" height="295.744"/>
  </clipPath>
  <clipPath id="p6d97664947">
   <rect x="51.8" y="369.144" width="792.4" height="73.936"/>
  </clipPath>
 </defs>
</svg>
