<?xml version="1.0" encoding="utf-8" standalone="no"?>
<!DOCTYPE svg PUBLIC "-//W3C//DTD SVG 1.1//EN"
  "http://www.w3.org/Graphics/SVG/1.1/DTD/svg11.dtd">
<svg xmlns:xlink="http://www.w3.org/1999/xlink" width="864pt" height="504pt" viewBox="0 0 864 504" xmlns="http://www.w3.org/2000/svg" version="1.1">
 <metadata>
  <rdf:RDF xmlns:dc="http://purl.org/dc/elements/1.1/" xmlns:cc="http://creativecommons.org/ns#" xmlns:rdf="http://www.w3.org/1999/02/22-rdf-syntax-ns#">
   <cc:Work>
    <dc:type rdf:resource="http://purl.org/dc/dcmitype/StillImage"/>
    <dc:date>2026-07-13T08:08:44.854577</dc:date>
    <dc:format>image/svg+xml</dc:format>
    <dc:creator>
     <cc:Agent>
      <dc:title>Matplotlib v3.11.0, https://matplotlib.org/</dc:title>
     </cc:Agent>
    </dc:creator>
   </cc:Work>
  </rdf:RDF>
 </metadata>
 <defs>
  <style type="text/css">*{stroke-linejoin: round; stroke-linecap: butt}</style>
 </defs>
 <g id="figure_1">
  <g id="patch_1">
   <path d="M 0 504 
L 864 504 
L 864 0 
L 0 0 
z
" style="fill: #ffffff"/>
  </g>
  <g id="axes_1">
   <g id="patch_2">
    <path d="M 59 323.344 
L 844.92 323.344 
L 844.92 27.6 
L 59 27.6 
z
" style="fill: #ffffff"/>
   </g>
   <g id="FillBetweenPolyCollection_1">
    <path d="M 94.723636 306.143839 
L 94.723636 309.327439 
L 125.787668 309.901091 
L 125.787668 307.656805 
L 125.787668 307.656805 
L 94.723636 306.143839 
z
" clip-path="url(#p0345d2cc17)" style="fill: #a7dff3; fill-opacity: 0.55; stroke: #a7dff3; stroke-opacity: 0.55"/>
    <path d="M 250.043794 302.020927 
L 250.043794 309.364341 
L 281.107826 308.894684 
L 312.171858 307.351527 
L 343.235889 305.332004 
L 374.299921 303.288999 
L 405.363953 303.057525 
L 436.427984 302.856244 
L 467.492016 302.550967 
L 498.556047 302.654963 
L 529.620079 302.990431 
L 560.684111 302.111503 
L 560.684111 220.364456 
L 560.684111 220.364456 
L 529.620079 245.333392 
L 498.556047 213.26928 
L 467.492016 205.090547 
L 436.427984 256.595094 
L 405.363953 254.988189 
L 374.299921 159.637868 
L 343.235889 41.042909 
L 312.171858 169.141712 
L 281.107826 265.662808 
L 250.043794 302.020927 
z
" clip-path="url(#p0345d2cc17)" style="fill: #a7dff3; fill-opacity: 0.55; stroke: #a7dff3; stroke-opacity: 0.55"/>
    <path d="M 622.812174 66.558661 
L 622.812174 302.014217 
L 653.876206 300.434158 
L 684.940237 304.161218 
L 716.004269 305.42929 
L 747.0683 306.308219 
L 778.132332 307.448813 
L 809.196364 308.357934 
L 809.196364 302.155115 
L 809.196364 302.155115 
L 778.132332 296.049581 
L 747.0683 296.586331 
L 716.004269 290.950454 
L 684.940237 271.932722 
L 653.876206 203.533966 
L 622.812174 66.558661 
z
" clip-path="url(#p0345d2cc17)" style="fill: #a7dff3; fill-opacity: 0.55; stroke: #a7dff3; stroke-opacity: 0.55"/>
   </g>
   <g id="matplotlib.axis_1">
    <g id="xtick_1">
     <g id="line2d_1">
      <defs>
       <path id="mf809485ed8" d="M 0 0 
L 0 3.5 
" style="stroke: #000000; stroke-width: 0.8"/>
      </defs>
      <g>
       <use xlink:href="#mf809485ed8" x="94.723636" y="323.344" style="stroke: #000000; stroke-width: 0.8"/>
      </g>
     </g>
     <g id="text_1">
      <!-- 0 -->
      <g transform="translate(91.573636 339.344) scale(0.1 -0.1)">
       <defs>
        <path id="AppleSDGothicNeo-Regular-11" d="M 2022 192 
C 2893 192 3558 787 3558 2240 
L 3558 2630 
C 3558 4122 2867 4634 2029 4634 
C 1184 4634 448 4122 448 2605 
L 448 2246 
C 448 794 1139 192 2022 192 
z
M 2022 614 
C 1350 614 992 1126 992 2195 
L 992 2669 
C 992 3744 1357 4211 2029 4211 
C 2688 4211 3040 3718 3040 2637 
L 3040 2163 
C 3040 1062 2682 614 2022 614 
z
" transform="scale(0.015625)"/>
       </defs>
       <use xlink:href="#AppleSDGothicNeo-Regular-11"/>
      </g>
     </g>
    </g>
    <g id="xtick_2">
     <g id="line2d_2">
      <g>
       <use xlink:href="#mf809485ed8" x="250.043794" y="323.344" style="stroke: #000000; stroke-width: 0.8"/>
      </g>
     </g>
     <g id="text_2">
      <!-- 5 -->
      <g transform="translate(247.548482 339.344) scale(0.1 -0.1)">
       <defs>
        <path id="AppleSDGothicNeo-Regular-16" d="M 1395 192 
C 2342 192 2906 838 2906 1606 
C 2906 2509 2374 2918 1510 2918 
C 1331 2918 1069 2874 896 2829 
L 986 4134 
L 2752 4134 
L 2752 4570 
L 576 4570 
L 422 2317 
C 621 2406 1024 2528 1318 2528 
C 1990 2528 2374 2266 2374 1613 
C 2374 1005 1978 621 1299 621 
C 947 621 525 768 288 928 
L 192 518 
C 448 333 896 192 1395 192 
z
" transform="scale(0.015625)"/>
       </defs>
       <use xlink:href="#AppleSDGothicNeo-Regular-16"/>
      </g>
     </g>
    </g>
    <g id="xtick_3">
     <g id="line2d_3">
      <g>
       <use xlink:href="#mf809485ed8" x="405.363953" y="323.344" style="stroke: #000000; stroke-width: 0.8"/>
      </g>
     </g>
     <g id="text_3">
      <!-- 10 -->
      <g transform="translate(400.428796 339.344) scale(0.1 -0.1)">
       <defs>
        <path id="AppleSDGothicNeo-Regular-12" d="M 1146 243 
L 1632 243 
L 1632 4634 
L 1363 4634 
L 352 4160 
L 352 3866 
L 1146 4051 
L 1146 243 
z
" transform="scale(0.015625)"/>
       </defs>
       <use xlink:href="#AppleSDGothicNeo-Regular-12"/>
       <use xlink:href="#AppleSDGothicNeo-Regular-11" transform="translate(35.703125 0)"/>
      </g>
     </g>
    </g>
    <g id="xtick_4">
     <g id="line2d_4">
      <g>
       <use xlink:href="#mf809485ed8" x="560.684111" y="323.344" style="stroke: #000000; stroke-width: 0.8"/>
      </g>
     </g>
     <g id="text_4">
      <!-- 15 -->
      <g transform="translate(556.403642 339.344) scale(0.1 -0.1)">
       <use xlink:href="#AppleSDGothicNeo-Regular-12"/>
       <use xlink:href="#AppleSDGothicNeo-Regular-16" transform="translate(35.703125 0)"/>
      </g>
     </g>
    </g>
    <g id="xtick_5">
     <g id="line2d_5">
      <g>
       <use xlink:href="#mf809485ed8" x="716.004269" y="323.344" style="stroke: #000000; stroke-width: 0.8"/>
      </g>
     </g>
     <g id="text_5">
      <!-- 20 -->
      <g transform="translate(710.214425 339.344) scale(0.1 -0.1)">
       <defs>
        <path id="AppleSDGothicNeo-Regular-13" d="M 397 269 
L 3066 269 
L 3066 704 
L 1107 704 
L 1779 1382 
C 2522 2138 2970 2650 2970 3392 
C 2970 4160 2502 4640 1638 4640 
C 1152 4640 717 4422 448 4250 
L 595 3846 
C 845 4019 1190 4198 1555 4198 
C 2163 4198 2438 3917 2438 3347 
C 2438 2733 2029 2266 1421 1632 
L 397 570 
L 397 269 
z
" transform="scale(0.015625)"/>
       </defs>
       <use xlink:href="#AppleSDGothicNeo-Regular-13"/>
       <use xlink:href="#AppleSDGothicNeo-Regular-11" transform="translate(52.796875 0)"/>
      </g>
     </g>
    </g>
    <g id="text_6">
     <!-- time index -->
     <g transform="translate(429.870156 355.344) scale(0.1 -0.1)">
      <defs>
       <path id="AppleSDGothicNeo-Regular-55" d="M 1472 230 
C 1747 230 1882 301 2010 358 
L 2010 691 
C 1882 653 1734 634 1600 634 
C 1235 634 1133 755 1133 1062 
L 1133 3034 
L 1946 3034 
L 1946 3437 
L 1133 3437 
L 1133 4192 
L 646 4192 
L 646 3437 
L 192 3437 
L 192 3034 
L 646 3034 
L 646 986 
C 646 448 973 230 1472 230 
z
" transform="scale(0.015625)"/>
       <path id="AppleSDGothicNeo-Regular-4a" d="M 486 269 
L 973 269 
L 973 3437 
L 486 3437 
L 486 269 
z
M 480 4077 
L 979 4077 
L 979 4589 
L 480 4589 
L 480 4077 
z
" transform="scale(0.015625)"/>
       <path id="AppleSDGothicNeo-Regular-4e" d="M 467 269 
L 954 269 
L 954 2848 
C 1210 2970 1491 3078 1760 3078 
C 2182 3078 2336 2918 2336 2534 
L 2336 269 
L 2822 269 
L 2822 2637 
C 2822 2714 2816 2771 2803 2848 
C 3104 2982 3373 3078 3622 3078 
C 4051 3078 4205 2918 4205 2534 
L 4205 269 
L 4685 269 
L 4685 2637 
C 4685 3251 4365 3501 3814 3501 
C 3456 3501 3085 3373 2739 3149 
L 2714 3149 
C 2566 3386 2310 3501 1952 3501 
C 1594 3501 1254 3354 960 3168 
L 934 3168 
L 934 3443 
L 467 3443 
L 467 269 
z
" transform="scale(0.015625)"/>
       <path id="AppleSDGothicNeo-Regular-46" d="M 1773 211 
C 2285 211 2650 371 2842 506 
L 2842 870 
C 2554 736 2272 634 1850 634 
C 1171 634 794 941 768 1734 
L 2931 1734 
L 2931 2010 
C 2931 2995 2522 3501 1651 3501 
C 922 3501 269 3008 269 1901 
L 269 1811 
C 269 819 774 211 1773 211 
z
M 1638 3104 
C 2157 3104 2419 2816 2419 2125 
L 768 2125 
C 819 2874 1242 3104 1638 3104 
z
" transform="scale(0.015625)"/>
       <path id="AppleSDGothicNeo-Regular-1" transform="scale(0.015625)"/>
       <path id="AppleSDGothicNeo-Regular-4f" d="M 467 269 
L 954 269 
L 954 2848 
C 1216 2970 1549 3078 1850 3078 
C 2355 3078 2490 2918 2490 2534 
L 2490 269 
L 2976 269 
L 2976 2637 
C 2976 3251 2675 3501 2054 3501 
C 1664 3501 1254 3360 960 3168 
L 934 3168 
L 934 3443 
L 467 3443 
L 467 269 
z
" transform="scale(0.015625)"/>
       <path id="AppleSDGothicNeo-Regular-45" d="M 1600 211 
C 2029 211 2336 346 2528 531 
L 2554 531 
L 2611 269 
L 3021 269 
L 3021 4851 
L 2528 4851 
L 2528 3290 
C 2355 3392 2086 3501 1696 3501 
C 877 3501 282 3002 282 1850 
L 282 1766 
C 282 595 966 211 1600 211 
z
M 1747 614 
C 1178 614 794 896 794 1786 
L 794 1914 
C 794 2771 1158 3085 1760 3085 
C 2086 3085 2381 2995 2528 2880 
L 2528 883 
C 2368 755 2118 614 1747 614 
z
" transform="scale(0.015625)"/>
       <path id="AppleSDGothicNeo-Regular-59" d="M 147 269 
L 685 269 
L 1510 1536 
L 2317 269 
L 2899 269 
L 1837 1882 
L 2822 3443 
L 2291 3443 
L 1568 2234 
L 774 3443 
L 198 3443 
L 1229 1882 
L 147 269 
z
" transform="scale(0.015625)"/>
      </defs>
      <use xlink:href="#AppleSDGothicNeo-Regular-55"/>
      <use xlink:href="#AppleSDGothicNeo-Regular-4a" transform="translate(35 0)"/>
      <use xlink:href="#AppleSDGothicNeo-Regular-4e" transform="translate(57.703125 0)"/>
      <use xlink:href="#AppleSDGothicNeo-Regular-46" transform="translate(138 0)"/>
      <use xlink:href="#AppleSDGothicNeo-Regular-1" transform="translate(188 0)"/>
      <use xlink:href="#AppleSDGothicNeo-Regular-4a" transform="translate(214.296875 0)"/>
      <use xlink:href="#AppleSDGothicNeo-Regular-4f" transform="translate(237 0)"/>
      <use xlink:href="#AppleSDGothicNeo-Regular-45" transform="translate(290.59375 0)"/>
      <use xlink:href="#AppleSDGothicNeo-Regular-46" transform="translate(345.09375 0)"/>
      <use xlink:href="#AppleSDGothicNeo-Regular-59" transform="translate(394.09375 0)"/>
     </g>
    </g>
   </g>
   <g id="matplotlib.axis_2">
    <g id="ytick_1">
     <g id="line2d_6">
      <defs>
       <path id="m05ed9ef14b" d="M 0 0 
L -3.5 0 
" style="stroke: #000000; stroke-width: 0.8"/>
      </defs>
      <g>
       <use xlink:href="#m05ed9ef14b" x="59" y="310.102372" style="stroke: #000000; stroke-width: 0.8"/>
      </g>
     </g>
     <g id="text_7">
      <!-- 0 -->
      <g transform="translate(45.7 314.602372) scale(0.1 -0.1)">
       <use xlink:href="#AppleSDGothicNeo-Regular-11"/>
      </g>
     </g>
    </g>
    <g id="ytick_2">
     <g id="line2d_7">
      <g>
       <use xlink:href="#m05ed9ef14b" x="59" y="276.555481" style="stroke: #000000; stroke-width: 0.8"/>
      </g>
     </g>
     <g id="text_8">
      <!-- 500 -->
      <g transform="translate(34.409375 281.055481) scale(0.1 -0.1)">
       <use xlink:href="#AppleSDGothicNeo-Regular-16"/>
       <use xlink:href="#AppleSDGothicNeo-Regular-11" transform="translate(49.90625 0)"/>
       <use xlink:href="#AppleSDGothicNeo-Regular-11" transform="translate(112.90625 0)"/>
      </g>
     </g>
    </g>
    <g id="ytick_3">
     <g id="line2d_8">
      <g>
       <use xlink:href="#m05ed9ef14b" x="59" y="243.008591" style="stroke: #000000; stroke-width: 0.8"/>
      </g>
     </g>
     <g id="text_9">
      <!-- 1000 -->
      <g transform="translate(29.529687 247.508591) scale(0.1 -0.1)">
       <use xlink:href="#AppleSDGothicNeo-Regular-12"/>
       <use xlink:href="#AppleSDGothicNeo-Regular-11" transform="translate(35.703125 0)"/>
       <use xlink:href="#AppleSDGothicNeo-Regular-11" transform="translate(98.703125 0)"/>
       <use xlink:href="#AppleSDGothicNeo-Regular-11" transform="translate(161.703125 0)"/>
      </g>
     </g>
    </g>
    <g id="ytick_4">
     <g id="line2d_9">
      <g>
       <use xlink:href="#m05ed9ef14b" x="59" y="209.4617" style="stroke: #000000; stroke-width: 0.8"/>
      </g>
     </g>
     <g id="text_10">
      <!-- 1500 -->
      <g transform="translate(30.839062 213.9617) scale(0.1 -0.1)">
       <use xlink:href="#AppleSDGothicNeo-Regular-12"/>
       <use xlink:href="#AppleSDGothicNeo-Regular-16" transform="translate(35.703125 0)"/>
       <use xlink:href="#AppleSDGothicNeo-Regular-11" transform="translate(85.609375 0)"/>
       <use xlink:href="#AppleSDGothicNeo-Regular-11" transform="translate(148.609375 0)"/>
      </g>
     </g>
    </g>
    <g id="ytick_5">
     <g id="line2d_10">
      <g>
       <use xlink:href="#m05ed9ef14b" x="59" y="175.914809" style="stroke: #000000; stroke-width: 0.8"/>
      </g>
     </g>
     <g id="text_11">
      <!-- 2000 -->
      <g transform="translate(27.820312 180.414809) scale(0.1 -0.1)">
       <use xlink:href="#AppleSDGothicNeo-Regular-13"/>
       <use xlink:href="#AppleSDGothicNeo-Regular-11" transform="translate(52.796875 0)"/>
       <use xlink:href="#AppleSDGothicNeo-Regular-11" transform="translate(115.796875 0)"/>
       <use xlink:href="#AppleSDGothicNeo-Regular-11" transform="translate(178.796875 0)"/>
      </g>
     </g>
    </g>
    <g id="ytick_6">
     <g id="line2d_11">
      <g>
       <use xlink:href="#m05ed9ef14b" x="59" y="142.367918" style="stroke: #000000; stroke-width: 0.8"/>
      </g>
     </g>
     <g id="text_12">
      <!-- 2500 -->
      <g transform="translate(29.079687 146.867918) scale(0.1 -0.1)">
       <use xlink:href="#AppleSDGothicNeo-Regular-13"/>
       <use xlink:href="#AppleSDGothicNeo-Regular-16" transform="translate(53.296875 0)"/>
       <use xlink:href="#AppleSDGothicNeo-Regular-11" transform="translate(103.203125 0)"/>
       <use xlink:href="#AppleSDGothicNeo-Regular-11" transform="translate(166.203125 0)"/>
      </g>
     </g>
    </g>
    <g id="ytick_7">
     <g id="line2d_12">
      <g>
       <use xlink:href="#m05ed9ef14b" x="59" y="108.821028" style="stroke: #000000; stroke-width: 0.8"/>
      </g>
     </g>
     <g id="text_13">
      <!-- 3000 -->
      <g transform="translate(27.740625 113.321028) scale(0.1 -0.1)">
       <defs>
        <path id="AppleSDGothicNeo-Regular-14" d="M 1491 205 
C 2445 205 3053 730 3053 1478 
C 3053 2144 2630 2458 2074 2566 
C 2560 2726 2893 3040 2893 3571 
C 2893 4243 2368 4634 1600 4634 
C 1229 4634 723 4474 467 4301 
L 544 3891 
C 813 4045 1146 4198 1498 4198 
C 2022 4198 2362 4013 2362 3488 
C 2362 3008 1984 2726 1427 2726 
L 1043 2726 
L 1043 2291 
L 1459 2291 
C 2112 2291 2534 2029 2534 1478 
C 2534 947 2138 634 1427 634 
C 1107 634 678 755 435 915 
L 326 512 
C 563 346 992 205 1491 205 
z
" transform="scale(0.015625)"/>
       </defs>
       <use xlink:href="#AppleSDGothicNeo-Regular-14"/>
       <use xlink:href="#AppleSDGothicNeo-Regular-11" transform="translate(53.59375 0)"/>
       <use xlink:href="#AppleSDGothicNeo-Regular-11" transform="translate(116.59375 0)"/>
       <use xlink:href="#AppleSDGothicNeo-Regular-11" transform="translate(179.59375 0)"/>
      </g>
     </g>
    </g>
    <g id="ytick_8">
     <g id="line2d_13">
      <g>
       <use xlink:href="#m05ed9ef14b" x="59" y="75.274137" style="stroke: #000000; stroke-width: 0.8"/>
      </g>
     </g>
     <g id="text_14">
      <!-- 3500 -->
      <g transform="translate(29.05 79.774137) scale(0.1 -0.1)">
       <use xlink:href="#AppleSDGothicNeo-Regular-14"/>
       <use xlink:href="#AppleSDGothicNeo-Regular-16" transform="translate(53.59375 0)"/>
       <use xlink:href="#AppleSDGothicNeo-Regular-11" transform="translate(103.5 0)"/>
       <use xlink:href="#AppleSDGothicNeo-Regular-11" transform="translate(166.5 0)"/>
      </g>
     </g>
    </g>
    <g id="ytick_9">
     <g id="line2d_14">
      <g>
       <use xlink:href="#m05ed9ef14b" x="59" y="41.727246" style="stroke: #000000; stroke-width: 0.8"/>
      </g>
     </g>
     <g id="text_15">
      <!-- 4000 -->
      <g transform="translate(27.55 46.227246) scale(0.1 -0.1)">
       <defs>
        <path id="AppleSDGothicNeo-Regular-15" d="M 2214 166 
L 2682 166 
L 2682 1171 
L 3398 1171 
L 3398 1587 
L 2682 1587 
L 2682 4621 
L 2285 4621 
L 186 1555 
L 186 1171 
L 2214 1171 
L 2214 166 
z
M 730 1587 
L 2214 3814 
L 2214 1587 
L 730 1587 
z
" transform="scale(0.015625)"/>
       </defs>
       <use xlink:href="#AppleSDGothicNeo-Regular-15"/>
       <use xlink:href="#AppleSDGothicNeo-Regular-11" transform="translate(55.5 0)"/>
       <use xlink:href="#AppleSDGothicNeo-Regular-11" transform="translate(118.5 0)"/>
       <use xlink:href="#AppleSDGothicNeo-Regular-11" transform="translate(181.5 0)"/>
      </g>
     </g>
    </g>
    <g id="text_16">
     <!-- value -->
     <g transform="translate(20.55 186.502469) rotate(-90) scale(0.1 -0.1)">
      <defs>
       <path id="AppleSDGothicNeo-Regular-57" d="M 1331 269 
L 1818 269 
L 2995 3443 
L 2515 3443 
L 1600 890 
L 1574 890 
L 685 3443 
L 154 3443 
L 1331 269 
z
" transform="scale(0.015625)"/>
       <path id="AppleSDGothicNeo-Regular-42" d="M 1242 211 
C 1670 211 1939 365 2086 544 
L 2118 544 
L 2170 269 
L 2566 269 
L 2566 2566 
C 2566 3213 2176 3501 1478 3501 
C 1114 3501 806 3443 531 3328 
L 531 2976 
C 730 3034 979 3078 1286 3078 
C 1856 3078 2074 2950 2074 2458 
L 2074 2125 
L 1216 2022 
C 608 1952 250 1658 250 1101 
C 250 506 666 211 1242 211 
z
M 1363 595 
C 998 595 762 768 762 1114 
C 762 1478 954 1638 1344 1677 
L 2074 1760 
L 2074 826 
C 1939 691 1658 595 1363 595 
z
" transform="scale(0.015625)"/>
       <path id="AppleSDGothicNeo-Regular-4d" d="M 480 269 
L 973 269 
L 973 4851 
L 480 4851 
L 480 269 
z
" transform="scale(0.015625)"/>
       <path id="AppleSDGothicNeo-Regular-56" d="M 1421 211 
C 1805 211 2144 358 2432 557 
L 2458 557 
L 2502 269 
L 2925 269 
L 2925 3443 
L 2438 3443 
L 2438 883 
C 2176 755 1894 634 1555 634 
C 1088 634 941 800 941 1210 
L 941 3443 
L 448 3443 
L 448 1139 
C 448 525 800 211 1421 211 
z
" transform="scale(0.015625)"/>
      </defs>
      <use xlink:href="#AppleSDGothicNeo-Regular-57"/>
      <use xlink:href="#AppleSDGothicNeo-Regular-42" transform="translate(47.703125 0)"/>
      <use xlink:href="#AppleSDGothicNeo-Regular-4d" transform="translate(94.90625 0)"/>
      <use xlink:href="#AppleSDGothicNeo-Regular-56" transform="translate(117.609375 0)"/>
      <use xlink:href="#AppleSDGothicNeo-Regular-46" transform="translate(170.609375 0)"/>
     </g>
    </g>
   </g>
   <g id="line2d_15">
    <path d="M 94.723636 308.492121 
L 125.787668 309.297247 
M 250.043794 304.332307 
L 281.107826 274.542668 
L 312.171858 188.494893 
L 343.235889 75.710246 
L 374.299921 182.355812 
L 405.363953 264.612788 
L 436.427984 268.571321 
L 467.492016 224.591348 
L 498.556047 232.072304 
L 529.620079 258.44016 
L 560.684111 237.808823 
M 622.812174 111.001575 
L 653.876206 223.115284 
L 684.940237 282.627469 
L 716.004269 297.488741 
L 747.0683 302.520775 
L 778.132332 303.963291 
L 809.196364 306.680589 
" clip-path="url(#p0345d2cc17)" style="fill: none; stroke: #2378a8; stroke-width: 1.2; stroke-linecap: square"/>
   </g>
   <g id="line2d_16">
    <path d="M 94.723636 304.667776 
L 125.787668 305.204526 
L 156.8517 305.27162 
L 187.915731 307.75409 
L 218.979763 308.357934 
L 250.043794 308.961778 
L 281.107826 308.626309 
L 312.171858 307.016058 
L 343.235889 306.076745 
L 374.299921 304.399401 
L 405.363953 299.971211 
L 436.427984 305.003245 
L 467.492016 303.728463 
L 498.556047 300.105399 
L 529.620079 302.923338 
L 560.684111 304.399401 
L 591.748142 303.594275 
L 622.812174 303.057525 
L 653.876206 302.185306 
L 684.940237 305.942558 
L 716.004269 305.741276 
L 747.0683 305.137432 
L 778.132332 306.278027 
L 809.196364 307.619902 
" clip-path="url(#p0345d2cc17)" style="fill: none; stroke: #e45756; stroke-width: 1.1; stroke-linecap: square"/>
   </g>
   <g id="patch_3">
    <path d="M 59 323.344 
L 59 27.6 
" style="fill: none; stroke: #000000; stroke-width: 0.8; stroke-linejoin: miter; stroke-linecap: square"/>
   </g>
   <g id="patch_4">
    <path d="M 844.92 323.344 
L 844.92 27.6 
" style="fill: none; stroke: #000000; stroke-width: 0.8; stroke-linejoin: miter; stroke-linecap: square"/>
   </g>
   <g id="patch_5">
    <path d="M 59 323.344 
L 844.92 323.344 
" style="fill: none; stroke: #000000; stroke-width: 0.8; stroke-linejoin: miter; stroke-linecap: square"/>
   </g>
   <g id="patch_6">
    <path d="M 59 27.6 
L 844.92 27.6 
" style="fill: none; stroke: #000000; stroke-width: 0.8; stroke-linejoin: miter; stroke-linecap: square"/>
   </g>
   <g id="text_17">
    <!-- primary score=2.54237, threshold=1.0417 -->
    <g transform="translate(66.8592 317.98656) scale(0.08 -0.08)">
     <defs>
      <path id="AppleSDGothicNeo-Regular-51" d="M 467 -678 
L 960 -678 
L 960 422 
C 1139 320 1408 211 1773 211 
C 2650 211 3206 698 3206 1856 
L 3206 1939 
C 3206 3117 2605 3501 1907 3501 
C 1498 3501 1165 3360 966 3181 
L 941 3181 
L 941 3437 
L 467 3437 
L 467 -678 
z
M 1728 614 
C 1395 614 1107 717 960 838 
L 960 2854 
C 1107 2957 1408 3085 1779 3085 
C 2362 3085 2694 2810 2694 1914 
L 2694 1786 
C 2694 934 2330 614 1728 614 
z
" transform="scale(0.015625)"/>
      <path id="AppleSDGothicNeo-Regular-53" d="M 467 269 
L 960 269 
L 960 2765 
C 1184 2925 1491 3040 1811 3040 
C 1862 3040 1958 3034 2042 3021 
L 2042 3462 
C 2010 3469 1920 3475 1850 3475 
C 1491 3475 1146 3290 966 3085 
L 934 3085 
L 934 3443 
L 467 3443 
L 467 269 
z
" transform="scale(0.015625)"/>
      <path id="AppleSDGothicNeo-Regular-5a" d="M 710 -685 
C 1235 -685 1498 -493 1709 70 
L 2957 3443 
L 2464 3443 
L 1606 1030 
L 1594 1030 
L 659 3443 
L 134 3443 
L 1350 384 
L 1254 122 
C 1120 -224 928 -275 621 -275 
C 506 -275 390 -243 314 -230 
L 314 -595 
C 403 -640 563 -685 710 -685 
z
" transform="scale(0.015625)"/>
      <path id="AppleSDGothicNeo-Regular-54" d="M 1274 218 
C 1971 218 2394 550 2394 1152 
C 2394 1702 2144 1907 1536 2067 
L 1216 2157 
C 877 2253 742 2368 742 2643 
C 742 2938 954 3085 1382 3085 
C 1734 3085 2054 3002 2221 2918 
L 2221 3315 
C 2054 3405 1779 3501 1357 3501 
C 627 3501 275 3136 275 2598 
C 275 2061 589 1850 1050 1722 
L 1363 1638 
C 1766 1523 1914 1395 1914 1101 
C 1914 813 1709 634 1203 634 
C 755 634 525 730 250 832 
L 250 442 
C 512 294 858 218 1274 218 
z
" transform="scale(0.015625)"/>
      <path id="AppleSDGothicNeo-Regular-44" d="M 1734 211 
C 2176 211 2458 339 2662 461 
L 2662 858 
C 2502 768 2221 634 1792 634 
C 1114 634 774 998 774 1811 
L 774 1965 
C 774 2694 1152 3085 1728 3085 
C 2144 3085 2349 3008 2630 2880 
L 2630 3290 
C 2419 3424 2170 3501 1754 3501 
C 934 3501 269 3014 269 1888 
L 269 1792 
C 269 749 826 211 1734 211 
z
" transform="scale(0.015625)"/>
      <path id="AppleSDGothicNeo-Regular-50" d="M 1702 211 
C 2560 211 3149 813 3149 1824 
L 3149 1914 
C 3149 2918 2605 3501 1709 3501 
C 851 3501 269 2899 269 1894 
L 269 1798 
C 269 787 806 211 1702 211 
z
M 1715 614 
C 1184 614 768 902 768 1786 
L 768 1946 
C 768 2688 1126 3098 1702 3098 
C 2221 3098 2650 2810 2650 1926 
L 2650 1766 
C 2650 1018 2291 614 1715 614 
z
" transform="scale(0.015625)"/>
      <path id="AppleSDGothicNeo-Regular-1e" d="M 422 2816 
L 2970 2816 
L 2970 3226 
L 422 3226 
L 422 2816 
z
M 422 1542 
L 2970 1542 
L 2970 1952 
L 422 1952 
L 422 1542 
z
" transform="scale(0.015625)"/>
      <path id="AppleSDGothicNeo-Regular-f" d="M 269 109 
L 826 109 
L 826 678 
L 269 678 
L 269 109 
z
" transform="scale(0.015625)"/>
      <path id="AppleSDGothicNeo-Regular-18" d="M 710 243 
L 1274 243 
L 2957 4218 
L 2957 4544 
L 218 4544 
L 218 4115 
L 2400 4115 
L 710 243 
z
" transform="scale(0.015625)"/>
      <path id="AppleSDGothicNeo-Regular-d" d="M 122 -563 
L 467 -563 
L 941 685 
L 358 685 
L 122 -563 
z
" transform="scale(0.015625)"/>
      <path id="AppleSDGothicNeo-Regular-49" d="M 467 269 
L 954 269 
L 954 2842 
C 1216 2970 1549 3078 1850 3078 
C 2355 3078 2490 2918 2490 2534 
L 2490 269 
L 2976 269 
L 2976 2630 
C 2976 3245 2675 3501 2054 3501 
C 1664 3501 1261 3366 986 3168 
L 954 3168 
L 954 4851 
L 467 4851 
L 467 269 
z
" transform="scale(0.015625)"/>
     </defs>
     <use xlink:href="#AppleSDGothicNeo-Regular-51"/>
     <use xlink:href="#AppleSDGothicNeo-Regular-53" transform="translate(54.5 0)"/>
     <use xlink:href="#AppleSDGothicNeo-Regular-4a" transform="translate(89.09375 0)"/>
     <use xlink:href="#AppleSDGothicNeo-Regular-4e" transform="translate(111.796875 0)"/>
     <use xlink:href="#AppleSDGothicNeo-Regular-42" transform="translate(192.09375 0)"/>
     <use xlink:href="#AppleSDGothicNeo-Regular-53" transform="translate(239.296875 0)"/>
     <use xlink:href="#AppleSDGothicNeo-Regular-5a" transform="translate(273.890625 0)"/>
     <use xlink:href="#AppleSDGothicNeo-Regular-1" transform="translate(322.09375 0)"/>
     <use xlink:href="#AppleSDGothicNeo-Regular-54" transform="translate(348.390625 0)"/>
     <use xlink:href="#AppleSDGothicNeo-Regular-44" transform="translate(389.890625 0)"/>
     <use xlink:href="#AppleSDGothicNeo-Regular-50" transform="translate(434.890625 0)"/>
     <use xlink:href="#AppleSDGothicNeo-Regular-53" transform="translate(488.296875 0)"/>
     <use xlink:href="#AppleSDGothicNeo-Regular-46" transform="translate(522.890625 0)"/>
     <use xlink:href="#AppleSDGothicNeo-Regular-1e" transform="translate(572.890625 0)"/>
     <use xlink:href="#AppleSDGothicNeo-Regular-13" transform="translate(623.09375 0)"/>
     <use xlink:href="#AppleSDGothicNeo-Regular-f" transform="translate(676.390625 0)"/>
     <use xlink:href="#AppleSDGothicNeo-Regular-16" transform="translate(698.984375 0)"/>
     <use xlink:href="#AppleSDGothicNeo-Regular-15" transform="translate(748.890625 0)"/>
     <use xlink:href="#AppleSDGothicNeo-Regular-13" transform="translate(803.296875 0)"/>
     <use xlink:href="#AppleSDGothicNeo-Regular-14" transform="translate(856.59375 0)"/>
     <use xlink:href="#AppleSDGothicNeo-Regular-18" transform="translate(908.28125 0)"/>
     <use xlink:href="#AppleSDGothicNeo-Regular-d" transform="translate(947.28125 0)"/>
     <use xlink:href="#AppleSDGothicNeo-Regular-1" transform="translate(969.875 0)"/>
     <use xlink:href="#AppleSDGothicNeo-Regular-55" transform="translate(996.171875 0)"/>
     <use xlink:href="#AppleSDGothicNeo-Regular-49" transform="translate(1031.171875 0)"/>
     <use xlink:href="#AppleSDGothicNeo-Regular-53" transform="translate(1084.765625 0)"/>
     <use xlink:href="#AppleSDGothicNeo-Regular-46" transform="translate(1119.359375 0)"/>
     <use xlink:href="#AppleSDGothicNeo-Regular-54" transform="translate(1169.359375 0)"/>
     <use xlink:href="#AppleSDGothicNeo-Regular-49" transform="translate(1210.859375 0)"/>
     <use xlink:href="#AppleSDGothicNeo-Regular-50" transform="translate(1264.453125 0)"/>
     <use xlink:href="#AppleSDGothicNeo-Regular-4d" transform="translate(1317.859375 0)"/>
     <use xlink:href="#AppleSDGothicNeo-Regular-45" transform="translate(1340.5625 0)"/>
     <use xlink:href="#AppleSDGothicNeo-Regular-1e" transform="translate(1395.0625 0)"/>
     <use xlink:href="#AppleSDGothicNeo-Regular-12" transform="translate(1444.15625 0)"/>
     <use xlink:href="#AppleSDGothicNeo-Regular-f" transform="translate(1479.859375 0)"/>
     <use xlink:href="#AppleSDGothicNeo-Regular-11" transform="translate(1502.453125 0)"/>
     <use xlink:href="#AppleSDGothicNeo-Regular-15" transform="translate(1565.453125 0)"/>
     <use xlink:href="#AppleSDGothicNeo-Regular-12" transform="translate(1618.75 0)"/>
     <use xlink:href="#AppleSDGothicNeo-Regular-18" transform="translate(1654.453125 0)"/>
    </g>
   </g>
   <g id="text_18">
    <!-- 11_자동_경보_FP_2 | MelbournePedestrian_normal_2 | TEST index 70 | 자동 경보 -->
    <g transform="translate(257.56375 21.6) scale(0.12 -0.12)">
     <defs>
      <path id="AppleSDGothicNeo-Regular-40" d="M 51 -365 
L 2099 -365 
L 2099 -38 
L 51 -38 
L 51 -365 
z
" transform="scale(0.015625)"/>
      <path id="AppleSDGothicNeo-Regular-a57" d="M 3558 1229 
C 2790 1664 2106 2541 2106 3584 
L 2106 4147 
L 3398 4147 
L 3398 4557 
L 307 4557 
L 307 4147 
L 1600 4147 
L 1600 3571 
C 1600 2566 954 1581 128 1094 
L 448 730 
C 1120 1197 1664 1888 1856 2566 
C 2054 1901 2739 1197 3264 864 
L 3558 1229 
z
M 5453 2464 
L 5453 2874 
L 4544 2874 
L 4544 5146 
L 4058 5146 
L 4058 -448 
L 4544 -448 
L 4544 2464 
L 5453 2464 
z
" transform="scale(0.015625)"/>
      <path id="AppleSDGothicNeo-Regular-632" d="M 4691 531 
C 4691 1165 3994 1504 2765 1504 
C 1542 1504 851 1139 851 531 
C 851 -90 1542 -448 2765 -448 
C 3994 -448 4691 -96 4691 531 
z
M 4685 3027 
L 4685 3430 
L 1350 3430 
L 1350 4474 
L 4659 4474 
L 4659 4877 
L 858 4877 
L 858 3027 
L 2522 3027 
L 2522 2317 
L 243 2317 
L 243 1914 
L 5293 1914 
L 5293 2317 
L 3008 2317 
L 3008 3027 
L 4685 3027 
z
M 2765 1107 
C 3654 1107 4192 890 4192 531 
C 4192 160 3654 -45 2765 -45 
C 1888 -45 1350 160 1350 531 
C 1350 890 1888 1107 2765 1107 
z
" transform="scale(0.015625)"/>
      <path id="AppleSDGothicNeo-Regular-483" d="M 4858 640 
C 4858 1286 4166 1696 2957 1696 
C 1734 1696 1050 1286 1050 640 
C 1050 -13 1734 -422 2957 -422 
C 4166 -422 4858 -13 4858 640 
z
M 2957 1286 
C 3840 1286 4358 1050 4358 640 
C 4358 224 3840 -19 2957 -19 
C 2074 -19 1555 224 1555 640 
C 1555 1050 2074 1286 2957 1286 
z
M 3091 2560 
L 4326 2560 
L 4326 1613 
L 4813 1613 
L 4813 5146 
L 4326 5146 
L 4326 4134 
L 3181 4134 
L 3181 3731 
L 4326 3731 
L 4326 2963 
L 3091 2963 
L 3091 2560 
z
M 3123 4710 
L 550 4710 
L 550 4294 
L 2573 4294 
C 2406 3347 1459 2419 307 2099 
L 550 1683 
C 2029 2202 3040 3302 3123 4710 
z
" transform="scale(0.015625)"/>
      <path id="AppleSDGothicNeo-Regular-801" d="M 4678 1798 
L 4678 4762 
L 4192 4762 
L 4192 3731 
L 1344 3731 
L 1344 4762 
L 851 4762 
L 851 1798 
L 2515 1798 
L 2515 659 
L 243 659 
L 243 250 
L 5293 250 
L 5293 659 
L 3002 659 
L 3002 1798 
L 4678 1798 
z
M 4192 2202 
L 1344 2202 
L 1344 3328 
L 4192 3328 
L 4192 2202 
z
" transform="scale(0.015625)"/>
      <path id="AppleSDGothicNeo-Regular-27" d="M 550 269 
L 1056 269 
L 1056 2195 
L 2586 2195 
L 2586 2630 
L 1056 2630 
L 1056 4134 
L 3040 4134 
L 3040 4563 
L 550 4563 
L 550 269 
z
" transform="scale(0.015625)"/>
      <path id="AppleSDGothicNeo-Regular-31" d="M 550 269 
L 1062 269 
L 1062 1990 
L 1939 1990 
C 2758 1990 3309 2451 3309 3296 
C 3309 4102 2842 4563 1875 4563 
L 550 4563 
L 550 269 
z
M 1062 2413 
L 1062 4134 
L 1824 4134 
C 2522 4134 2765 3872 2765 3264 
C 2765 2688 2502 2413 1837 2413 
L 1062 2413 
z
" transform="scale(0.015625)"/>
      <path id="AppleSDGothicNeo-Regular-5d" d="M 691 -384 
L 1114 -384 
L 1114 4941 
L 691 4941 
L 691 -384 
z
" transform="scale(0.015625)"/>
      <path id="AppleSDGothicNeo-Regular-2e" d="M 550 269 
L 1024 269 
L 1024 3898 
L 1043 3898 
L 2285 269 
L 2758 269 
L 4013 3898 
L 4032 3898 
L 4032 269 
L 4544 269 
L 4544 4563 
L 3795 4563 
L 2560 934 
L 2547 934 
L 1306 4563 
L 550 4563 
L 550 269 
z
" transform="scale(0.015625)"/>
      <path id="AppleSDGothicNeo-Regular-43" d="M 1626 198 
C 2650 198 3206 800 3206 1862 
L 3206 1946 
C 3206 3136 2579 3501 1971 3501 
C 1536 3501 1235 3379 992 3232 
L 960 3232 
L 960 4851 
L 467 4851 
L 467 371 
C 749 262 1254 198 1626 198 
z
M 1651 608 
C 1331 608 1107 659 960 723 
L 960 2880 
C 1126 2957 1421 3085 1747 3085 
C 2387 3085 2694 2797 2694 1914 
L 2694 1786 
C 2694 877 2221 608 1651 608 
z
" transform="scale(0.015625)"/>
      <path id="AppleSDGothicNeo-Regular-35" d="M 1491 269 
L 1990 269 
L 1990 4134 
L 3302 4134 
L 3302 4563 
L 179 4563 
L 179 4134 
L 1491 4134 
L 1491 269 
z
" transform="scale(0.015625)"/>
      <path id="AppleSDGothicNeo-Regular-26" d="M 557 269 
L 3123 269 
L 3123 698 
L 1062 698 
L 1062 2266 
L 2637 2266 
L 2637 2694 
L 1062 2694 
L 1062 4134 
L 3104 4134 
L 3104 4563 
L 557 4563 
L 557 269 
z
" transform="scale(0.015625)"/>
      <path id="AppleSDGothicNeo-Regular-34" d="M 1472 192 
C 2477 192 2912 691 2912 1440 
C 2912 2163 2509 2432 1875 2650 
L 1453 2784 
C 966 2950 813 3130 813 3539 
C 813 3949 1107 4205 1632 4205 
C 2106 4205 2445 4083 2694 3968 
L 2694 4397 
C 2458 4512 2157 4634 1651 4634 
C 755 4634 314 4160 314 3494 
C 314 2842 653 2534 1254 2336 
L 1670 2189 
C 2189 2022 2400 1843 2400 1402 
C 2400 934 2112 627 1453 627 
C 998 627 576 742 250 909 
L 250 480 
C 538 320 947 192 1472 192 
z
" transform="scale(0.015625)"/>
     </defs>
     <use xlink:href="#AppleSDGothicNeo-Regular-12"/>
     <use xlink:href="#AppleSDGothicNeo-Regular-12" transform="translate(35.703125 0)"/>
     <use xlink:href="#AppleSDGothicNeo-Regular-40" transform="translate(71.40625 0)"/>
     <use xlink:href="#AppleSDGothicNeo-Regular-a57" transform="translate(105 0)"/>
     <use xlink:href="#AppleSDGothicNeo-Regular-632" transform="translate(191.5 0)"/>
     <use xlink:href="#AppleSDGothicNeo-Regular-40" transform="translate(278 0)"/>
     <use xlink:href="#AppleSDGothicNeo-Regular-483" transform="translate(311.59375 0)"/>
     <use xlink:href="#AppleSDGothicNeo-Regular-801" transform="translate(398.09375 0)"/>
     <use xlink:href="#AppleSDGothicNeo-Regular-40" transform="translate(484.59375 0)"/>
     <use xlink:href="#AppleSDGothicNeo-Regular-27" transform="translate(518.1875 0)"/>
     <use xlink:href="#AppleSDGothicNeo-Regular-31" transform="translate(569.78125 0)"/>
     <use xlink:href="#AppleSDGothicNeo-Regular-40" transform="translate(625.078125 0)"/>
     <use xlink:href="#AppleSDGothicNeo-Regular-13" transform="translate(658.671875 0)"/>
     <use xlink:href="#AppleSDGothicNeo-Regular-1" transform="translate(711.96875 0)"/>
     <use xlink:href="#AppleSDGothicNeo-Regular-5d" transform="translate(738.265625 0)"/>
     <use xlink:href="#AppleSDGothicNeo-Regular-1" transform="translate(766.46875 0)"/>
     <use xlink:href="#AppleSDGothicNeo-Regular-2e" transform="translate(792.765625 0)"/>
     <use xlink:href="#AppleSDGothicNeo-Regular-46" transform="translate(872.359375 0)"/>
     <use xlink:href="#AppleSDGothicNeo-Regular-4d" transform="translate(922.359375 0)"/>
     <use xlink:href="#AppleSDGothicNeo-Regular-43" transform="translate(945.0625 0)"/>
     <use xlink:href="#AppleSDGothicNeo-Regular-50" transform="translate(999.5625 0)"/>
     <use xlink:href="#AppleSDGothicNeo-Regular-56" transform="translate(1052.96875 0)"/>
     <use xlink:href="#AppleSDGothicNeo-Regular-53" transform="translate(1105.96875 0)"/>
     <use xlink:href="#AppleSDGothicNeo-Regular-4f" transform="translate(1140.5625 0)"/>
     <use xlink:href="#AppleSDGothicNeo-Regular-46" transform="translate(1194.15625 0)"/>
     <use xlink:href="#AppleSDGothicNeo-Regular-31" transform="translate(1244.15625 0)"/>
     <use xlink:href="#AppleSDGothicNeo-Regular-46" transform="translate(1299.453125 0)"/>
     <use xlink:href="#AppleSDGothicNeo-Regular-45" transform="translate(1349.453125 0)"/>
     <use xlink:href="#AppleSDGothicNeo-Regular-46" transform="translate(1403.953125 0)"/>
     <use xlink:href="#AppleSDGothicNeo-Regular-54" transform="translate(1453.953125 0)"/>
     <use xlink:href="#AppleSDGothicNeo-Regular-55" transform="translate(1495.453125 0)"/>
     <use xlink:href="#AppleSDGothicNeo-Regular-53" transform="translate(1530.453125 0)"/>
     <use xlink:href="#AppleSDGothicNeo-Regular-4a" transform="translate(1565.046875 0)"/>
     <use xlink:href="#AppleSDGothicNeo-Regular-42" transform="translate(1587.75 0)"/>
     <use xlink:href="#AppleSDGothicNeo-Regular-4f" transform="translate(1634.953125 0)"/>
     <use xlink:href="#AppleSDGothicNeo-Regular-40" transform="translate(1688.546875 0)"/>
     <use xlink:href="#AppleSDGothicNeo-Regular-4f" transform="translate(1722.140625 0)"/>
     <use xlink:href="#AppleSDGothicNeo-Regular-50" transform="translate(1775.734375 0)"/>
     <use xlink:href="#AppleSDGothicNeo-Regular-53" transform="translate(1829.140625 0)"/>
     <use xlink:href="#AppleSDGothicNeo-Regular-4e" transform="translate(1863.734375 0)"/>
     <use xlink:href="#AppleSDGothicNeo-Regular-42" transform="translate(1944.03125 0)"/>
     <use xlink:href="#AppleSDGothicNeo-Regular-4d" transform="translate(1991.234375 0)"/>
     <use xlink:href="#AppleSDGothicNeo-Regular-40" transform="translate(2013.9375 0)"/>
     <use xlink:href="#AppleSDGothicNeo-Regular-13" transform="translate(2047.53125 0)"/>
     <use xlink:href="#AppleSDGothicNeo-Regular-1" transform="translate(2100.828125 0)"/>
     <use xlink:href="#AppleSDGothicNeo-Regular-5d" transform="translate(2127.125 0)"/>
     <use xlink:href="#AppleSDGothicNeo-Regular-1" transform="translate(2155.328125 0)"/>
     <use xlink:href="#AppleSDGothicNeo-Regular-35" transform="translate(2181.625 0)"/>
     <use xlink:href="#AppleSDGothicNeo-Regular-26" transform="translate(2236.03125 0)"/>
     <use xlink:href="#AppleSDGothicNeo-Regular-34" transform="translate(2291.03125 0)"/>
     <use xlink:href="#AppleSDGothicNeo-Regular-35" transform="translate(2341.4375 0)"/>
     <use xlink:href="#AppleSDGothicNeo-Regular-1" transform="translate(2395.84375 0)"/>
     <use xlink:href="#AppleSDGothicNeo-Regular-4a" transform="translate(2422.140625 0)"/>
     <use xlink:href="#AppleSDGothicNeo-Regular-4f" transform="translate(2444.84375 0)"/>
     <use xlink:href="#AppleSDGothicNeo-Regular-45" transform="translate(2498.4375 0)"/>
     <use xlink:href="#AppleSDGothicNeo-Regular-46" transform="translate(2552.9375 0)"/>
     <use xlink:href="#AppleSDGothicNeo-Regular-59" transform="translate(2601.9375 0)"/>
     <use xlink:href="#AppleSDGothicNeo-Regular-1" transform="translate(2649.640625 0)"/>
     <use xlink:href="#AppleSDGothicNeo-Regular-18" transform="translate(2675.9375 0)"/>
     <use xlink:href="#AppleSDGothicNeo-Regular-11" transform="translate(2723.84375 0)"/>
     <use xlink:href="#AppleSDGothicNeo-Regular-1" transform="translate(2786.84375 0)"/>
     <use xlink:href="#AppleSDGothicNeo-Regular-5d" transform="translate(2813.140625 0)"/>
     <use xlink:href="#AppleSDGothicNeo-Regular-1" transform="translate(2841.34375 0)"/>
     <use xlink:href="#AppleSDGothicNeo-Regular-a57" transform="translate(2867.640625 0)"/>
     <use xlink:href="#AppleSDGothicNeo-Regular-632" transform="translate(2954.140625 0)"/>
     <use xlink:href="#AppleSDGothicNeo-Regular-1" transform="translate(3040.640625 0)"/>
     <use xlink:href="#AppleSDGothicNeo-Regular-483" transform="translate(3066.9375 0)"/>
     <use xlink:href="#AppleSDGothicNeo-Regular-801" transform="translate(3153.4375 0)"/>
    </g>
   </g>
   <g id="legend_1">
    <g id="patch_7">
     <path d="M 735.31875 74.8 
L 839.32 74.8 
Q 840.92 74.8 840.92 73.2 
L 840.92 33.2 
Q 840.92 31.6 839.32 31.6 
L 735.31875 31.6 
Q 733.71875 31.6 733.71875 33.2 
L 733.71875 73.2 
Q 733.71875 74.8 735.31875 74.8 
z
" style="fill: #ffffff; opacity: 0.8; stroke: #cccccc; stroke-linejoin: miter"/>
    </g>
    <g id="patch_8">
     <path d="M 736.91875 42 
L 752.91875 42 
L 752.91875 36.4 
L 736.91875 36.4 
z
" style="fill: #a7dff3; fill-opacity: 0.55; stroke: #a7dff3; stroke-opacity: 0.55; stroke-linejoin: miter"/>
    </g>
    <g id="text_19">
     <!-- TRAIN normal p05-p95 -->
     <g transform="translate(759.31875 42) scale(0.08 -0.08)">
      <defs>
       <path id="AppleSDGothicNeo-Regular-33" d="M 550 269 
L 1056 269 
L 1056 2112 
L 1875 2112 
L 2944 269 
L 3520 269 
L 2381 2202 
L 2381 2234 
C 2912 2400 3219 2746 3219 3360 
C 3219 4134 2746 4563 1798 4563 
L 550 4563 
L 550 269 
z
M 1056 2509 
L 1056 4134 
L 1760 4134 
C 2419 4134 2682 3885 2682 3354 
C 2682 2797 2438 2509 1766 2509 
L 1056 2509 
z
" transform="scale(0.015625)"/>
       <path id="AppleSDGothicNeo-Regular-22" d="M 122 269 
L 608 269 
L 1050 1523 
L 2771 1523 
L 3226 269 
L 3757 269 
L 2189 4563 
L 1696 4563 
L 122 269 
z
M 1901 3885 
L 1914 3885 
L 2611 1952 
L 1197 1952 
L 1901 3885 
z
" transform="scale(0.015625)"/>
       <path id="AppleSDGothicNeo-Regular-2a" d="M 576 269 
L 1082 269 
L 1082 4563 
L 576 4563 
L 576 269 
z
" transform="scale(0.015625)"/>
       <path id="AppleSDGothicNeo-Regular-2f" d="M 550 269 
L 1024 269 
L 1024 3872 
L 1043 3872 
L 3174 269 
L 3699 269 
L 3699 4563 
L 3238 4563 
L 3238 1126 
L 3219 1126 
L 1152 4563 
L 550 4563 
L 550 269 
z
" transform="scale(0.015625)"/>
       <path id="AppleSDGothicNeo-Regular-e" d="M 333 2138 
L 2445 2138 
L 2445 2560 
L 333 2560 
L 333 2138 
z
" transform="scale(0.015625)"/>
       <path id="AppleSDGothicNeo-Regular-1a" d="M 1696 4634 
C 826 4634 307 3949 307 3142 
C 307 2323 896 1798 1619 1798 
C 2093 1798 2445 2010 2675 2272 
C 2630 1069 2227 621 1523 621 
C 1178 621 832 723 646 832 
L 506 461 
C 704 326 1107 192 1549 192 
C 2586 192 3187 979 3187 2477 
L 3187 2758 
C 3187 3974 2656 4634 1696 4634 
z
M 1702 4211 
C 2387 4211 2675 3686 2675 2886 
L 2675 2765 
C 2496 2515 2131 2227 1722 2227 
C 1203 2227 813 2515 813 3187 
C 813 3782 1146 4211 1702 4211 
z
" transform="scale(0.015625)"/>
      </defs>
      <use xlink:href="#AppleSDGothicNeo-Regular-35"/>
      <use xlink:href="#AppleSDGothicNeo-Regular-33" transform="translate(54.40625 0)"/>
      <use xlink:href="#AppleSDGothicNeo-Regular-22" transform="translate(112.203125 0)"/>
      <use xlink:href="#AppleSDGothicNeo-Regular-2a" transform="translate(172.703125 0)"/>
      <use xlink:href="#AppleSDGothicNeo-Regular-2f" transform="translate(198.609375 0)"/>
      <use xlink:href="#AppleSDGothicNeo-Regular-1" transform="translate(265.203125 0)"/>
      <use xlink:href="#AppleSDGothicNeo-Regular-4f" transform="translate(291.5 0)"/>
      <use xlink:href="#AppleSDGothicNeo-Regular-50" transform="translate(345.09375 0)"/>
      <use xlink:href="#AppleSDGothicNeo-Regular-53" transform="translate(398.5 0)"/>
      <use xlink:href="#AppleSDGothicNeo-Regular-4e" transform="translate(433.09375 0)"/>
      <use xlink:href="#AppleSDGothicNeo-Regular-42" transform="translate(513.390625 0)"/>
      <use xlink:href="#AppleSDGothicNeo-Regular-4d" transform="translate(560.59375 0)"/>
      <use xlink:href="#AppleSDGothicNeo-Regular-1" transform="translate(583.296875 0)"/>
      <use xlink:href="#AppleSDGothicNeo-Regular-51" transform="translate(609.59375 0)"/>
      <use xlink:href="#AppleSDGothicNeo-Regular-11" transform="translate(664.09375 0)"/>
      <use xlink:href="#AppleSDGothicNeo-Regular-16" transform="translate(727.09375 0)"/>
      <use xlink:href="#AppleSDGothicNeo-Regular-e" transform="translate(777 0)"/>
      <use xlink:href="#AppleSDGothicNeo-Regular-51" transform="translate(820.203125 0)"/>
      <use xlink:href="#AppleSDGothicNeo-Regular-1a" transform="translate(874.703125 0)"/>
      <use xlink:href="#AppleSDGothicNeo-Regular-16" transform="translate(930.109375 0)"/>
     </g>
    </g>
    <g id="line2d_17">
     <path d="M 736.91875 52.8 
L 744.91875 52.8 
L 752.91875 52.8 
" style="fill: none; stroke: #2378a8; stroke-width: 1.2; stroke-linecap: square"/>
    </g>
    <g id="text_20">
     <!-- TRAIN normal median -->
     <g transform="translate(759.31875 55.6) scale(0.08 -0.08)">
      <use xlink:href="#AppleSDGothicNeo-Regular-35"/>
      <use xlink:href="#AppleSDGothicNeo-Regular-33" transform="translate(54.40625 0)"/>
      <use xlink:href="#AppleSDGothicNeo-Regular-22" transform="translate(112.203125 0)"/>
      <use xlink:href="#AppleSDGothicNeo-Regular-2a" transform="translate(172.703125 0)"/>
      <use xlink:href="#AppleSDGothicNeo-Regular-2f" transform="translate(198.609375 0)"/>
      <use xlink:href="#AppleSDGothicNeo-Regular-1" transform="translate(265.203125 0)"/>
      <use xlink:href="#AppleSDGothicNeo-Regular-4f" transform="translate(291.5 0)"/>
      <use xlink:href="#AppleSDGothicNeo-Regular-50" transform="translate(345.09375 0)"/>
      <use xlink:href="#AppleSDGothicNeo-Regular-53" transform="translate(398.5 0)"/>
      <use xlink:href="#AppleSDGothicNeo-Regular-4e" transform="translate(433.09375 0)"/>
      <use xlink:href="#AppleSDGothicNeo-Regular-42" transform="translate(513.390625 0)"/>
      <use xlink:href="#AppleSDGothicNeo-Regular-4d" transform="translate(560.59375 0)"/>
      <use xlink:href="#AppleSDGothicNeo-Regular-1" transform="translate(583.296875 0)"/>
      <use xlink:href="#AppleSDGothicNeo-Regular-4e" transform="translate(609.59375 0)"/>
      <use xlink:href="#AppleSDGothicNeo-Regular-46" transform="translate(689.890625 0)"/>
      <use xlink:href="#AppleSDGothicNeo-Regular-45" transform="translate(739.890625 0)"/>
      <use xlink:href="#AppleSDGothicNeo-Regular-4a" transform="translate(794.390625 0)"/>
      <use xlink:href="#AppleSDGothicNeo-Regular-42" transform="translate(817.09375 0)"/>
      <use xlink:href="#AppleSDGothicNeo-Regular-4f" transform="translate(864.296875 0)"/>
     </g>
    </g>
    <g id="line2d_18">
     <path d="M 736.91875 66.4 
L 744.91875 66.4 
L 752.91875 66.4 
" style="fill: none; stroke: #e45756; stroke-width: 1.1; stroke-linecap: square"/>
    </g>
    <g id="text_21">
     <!-- selected TEST series -->
     <g transform="translate(759.31875 69.2) scale(0.08 -0.08)">
      <use xlink:href="#AppleSDGothicNeo-Regular-54"/>
      <use xlink:href="#AppleSDGothicNeo-Regular-46" transform="translate(41.5 0)"/>
      <use xlink:href="#AppleSDGothicNeo-Regular-4d" transform="translate(91.5 0)"/>
      <use xlink:href="#AppleSDGothicNeo-Regular-46" transform="translate(114.203125 0)"/>
      <use xlink:href="#AppleSDGothicNeo-Regular-44" transform="translate(164.203125 0)"/>
      <use xlink:href="#AppleSDGothicNeo-Regular-55" transform="translate(210.109375 0)"/>
      <use xlink:href="#AppleSDGothicNeo-Regular-46" transform="translate(245.109375 0)"/>
      <use xlink:href="#AppleSDGothicNeo-Regular-45" transform="translate(295.109375 0)"/>
      <use xlink:href="#AppleSDGothicNeo-Regular-1" transform="translate(349.609375 0)"/>
      <use xlink:href="#AppleSDGothicNeo-Regular-35" transform="translate(375.90625 0)"/>
      <use xlink:href="#AppleSDGothicNeo-Regular-26" transform="translate(430.3125 0)"/>
      <use xlink:href="#AppleSDGothicNeo-Regular-34" transform="translate(485.3125 0)"/>
      <use xlink:href="#AppleSDGothicNeo-Regular-35" transform="translate(535.71875 0)"/>
      <use xlink:href="#AppleSDGothicNeo-Regular-1" transform="translate(590.125 0)"/>
      <use xlink:href="#AppleSDGothicNeo-Regular-54" transform="translate(616.421875 0)"/>
      <use xlink:href="#AppleSDGothicNeo-Regular-46" transform="translate(657.921875 0)"/>
      <use xlink:href="#AppleSDGothicNeo-Regular-53" transform="translate(707.921875 0)"/>
      <use xlink:href="#AppleSDGothicNeo-Regular-4a" transform="translate(742.515625 0)"/>
      <use xlink:href="#AppleSDGothicNeo-Regular-46" transform="translate(765.21875 0)"/>
      <use xlink:href="#AppleSDGothicNeo-Regular-54" transform="translate(815.21875 0)"/>
     </g>
    </g>
   </g>
  </g>
  <g id="axes_2">
   <g id="patch_9">
    <path d="M 59 443.08 
L 844.92 443.08 
L 844.92 369.144 
L 59 369.144 
z
" style="fill: #ffffff"/>
   </g>
   <g id="PathCollection_1">
    <defs>
     <path id="m507723a65a" d="M -3 3 
L 3 -3 
M -3 -3 
L 3 3 
" style="stroke: #e45756; stroke-width: 1.5"/>
    </defs>
    <g clip-path="url(#p4bc03822af)">
     <use xlink:href="#m507723a65a" x="829.246382" y="416.984941" style="fill: #e45756; stroke: #e45756; stroke-width: 1.5"/>
     <use xlink:href="#m507723a65a" x="831.48547" y="416.984941" style="fill: #e45756; stroke: #e45756; stroke-width: 1.5"/>
     <use xlink:href="#m507723a65a" x="833.724558" y="416.984941" style="fill: #e45756; stroke: #e45756; stroke-width: 1.5"/>
     <use xlink:href="#m507723a65a" x="835.963647" y="416.984941" style="fill: #e45756; stroke: #e45756; stroke-width: 1.5"/>
     <use xlink:href="#m507723a65a" x="838.202735" y="416.984941" style="fill: #e45756; stroke: #e45756; stroke-width: 1.5"/>
     <use xlink:href="#m507723a65a" x="840.441823" y="416.984941" style="fill: #e45756; stroke: #e45756; stroke-width: 1.5"/>
     <use xlink:href="#m507723a65a" x="842.680912" y="416.984941" style="fill: #e45756; stroke: #e45756; stroke-width: 1.5"/>
    </g>
   </g>
   <g id="PathCollection_2">
    <defs>
     <path id="ma21437fe10" d="M 0 3 
C 0.795609 3 1.55874 2.683901 2.12132 2.12132 
C 2.683901 1.55874 3 0.795609 3 0 
C 3 -0.795609 2.683901 -1.55874 2.12132 -2.12132 
C 1.55874 -2.683901 0.795609 -3 0 -3 
C -0.795609 -3 -1.55874 -2.683901 -2.12132 -2.12132 
C -2.683901 -1.55874 -3 -0.795609 -3 0 
C -3 0.795609 -2.683901 1.55874 -2.12132 2.12132 
C -1.55874 2.683901 -0.795609 3 0 3 
z
" style="stroke: #111111"/>
    </defs>
    <g clip-path="url(#p4bc03822af)">
     <use xlink:href="#ma21437fe10" x="217.975271" y="395.239059" style="fill: #111111; stroke: #111111"/>
    </g>
   </g>
   <g id="matplotlib.axis_3">
    <g id="xtick_6">
     <g id="line2d_19">
      <g>
       <use xlink:href="#mf809485ed8" x="61.239088" y="443.08" style="stroke: #000000; stroke-width: 0.8"/>
      </g>
     </g>
     <g id="text_22">
      <!-- 0 -->
      <g transform="translate(58.089088 459.08) scale(0.1 -0.1)">
       <use xlink:href="#AppleSDGothicNeo-Regular-11"/>
      </g>
     </g>
    </g>
    <g id="xtick_7">
     <g id="line2d_20">
      <g>
       <use xlink:href="#mf809485ed8" x="173.193504" y="443.08" style="stroke: #000000; stroke-width: 0.8"/>
      </g>
     </g>
     <g id="text_23">
      <!-- 50 -->
      <g transform="translate(167.548192 459.08) scale(0.1 -0.1)">
       <use xlink:href="#AppleSDGothicNeo-Regular-16"/>
       <use xlink:href="#AppleSDGothicNeo-Regular-11" transform="translate(49.90625 0)"/>
      </g>
     </g>
    </g>
    <g id="xtick_8">
     <g id="line2d_21">
      <g>
       <use xlink:href="#mf809485ed8" x="285.14792" y="443.08" style="stroke: #000000; stroke-width: 0.8"/>
      </g>
     </g>
     <g id="text_24">
      <!-- 100 -->
      <g transform="translate(277.062764 459.08) scale(0.1 -0.1)">
       <use xlink:href="#AppleSDGothicNeo-Regular-12"/>
       <use xlink:href="#AppleSDGothicNeo-Regular-11" transform="translate(35.703125 0)"/>
       <use xlink:href="#AppleSDGothicNeo-Regular-11" transform="translate(98.703125 0)"/>
      </g>
     </g>
    </g>
    <g id="xtick_9">
     <g id="line2d_22">
      <g>
       <use xlink:href="#mf809485ed8" x="397.102336" y="443.08" style="stroke: #000000; stroke-width: 0.8"/>
      </g>
     </g>
     <g id="text_25">
      <!-- 150 -->
      <g transform="translate(389.671867 459.08) scale(0.1 -0.1)">
       <use xlink:href="#AppleSDGothicNeo-Regular-12"/>
       <use xlink:href="#AppleSDGothicNeo-Regular-16" transform="translate(35.703125 0)"/>
       <use xlink:href="#AppleSDGothicNeo-Regular-11" transform="translate(85.609375 0)"/>
      </g>
     </g>
    </g>
    <g id="xtick_10">
     <g id="line2d_23">
      <g>
       <use xlink:href="#mf809485ed8" x="509.056752" y="443.08" style="stroke: #000000; stroke-width: 0.8"/>
      </g>
     </g>
     <g id="text_26">
      <!-- 200 -->
      <g transform="translate(500.116908 459.08) scale(0.1 -0.1)">
       <use xlink:href="#AppleSDGothicNeo-Regular-13"/>
       <use xlink:href="#AppleSDGothicNeo-Regular-11" transform="translate(52.796875 0)"/>
       <use xlink:href="#AppleSDGothicNeo-Regular-11" transform="translate(115.796875 0)"/>
      </g>
     </g>
    </g>
    <g id="xtick_11">
     <g id="line2d_24">
      <g>
       <use xlink:href="#mf809485ed8" x="621.011168" y="443.08" style="stroke: #000000; stroke-width: 0.8"/>
      </g>
     </g>
     <g id="text_27">
      <!-- 250 -->
      <g transform="translate(612.701012 459.08) scale(0.1 -0.1)">
       <use xlink:href="#AppleSDGothicNeo-Regular-13"/>
       <use xlink:href="#AppleSDGothicNeo-Regular-16" transform="translate(53.296875 0)"/>
       <use xlink:href="#AppleSDGothicNeo-Regular-11" transform="translate(103.203125 0)"/>
      </g>
     </g>
    </g>
    <g id="xtick_12">
     <g id="line2d_25">
      <g>
       <use xlink:href="#mf809485ed8" x="732.965584" y="443.08" style="stroke: #000000; stroke-width: 0.8"/>
      </g>
     </g>
     <g id="text_28">
      <!-- 300 -->
      <g transform="translate(723.985897 459.08) scale(0.1 -0.1)">
       <use xlink:href="#AppleSDGothicNeo-Regular-14"/>
       <use xlink:href="#AppleSDGothicNeo-Regular-11" transform="translate(53.59375 0)"/>
       <use xlink:href="#AppleSDGothicNeo-Regular-11" transform="translate(116.59375 0)"/>
      </g>
     </g>
    </g>
    <g id="xtick_13">
     <g id="line2d_26">
      <g>
       <use xlink:href="#mf809485ed8" x="844.92" y="443.08" style="stroke: #000000; stroke-width: 0.8"/>
      </g>
     </g>
     <g id="text_29">
      <!-- 350 -->
      <g transform="translate(836.595 459.08) scale(0.1 -0.1)">
       <use xlink:href="#AppleSDGothicNeo-Regular-14"/>
       <use xlink:href="#AppleSDGothicNeo-Regular-16" transform="translate(53.59375 0)"/>
       <use xlink:href="#AppleSDGothicNeo-Regular-11" transform="translate(103.5 0)"/>
      </g>
     </g>
    </g>
    <g id="text_30">
     <!-- TEST sample index -->
     <g transform="translate(412.434219 475.08) scale(0.1 -0.1)">
      <use xlink:href="#AppleSDGothicNeo-Regular-35"/>
      <use xlink:href="#AppleSDGothicNeo-Regular-26" transform="translate(54.40625 0)"/>
      <use xlink:href="#AppleSDGothicNeo-Regular-34" transform="translate(109.40625 0)"/>
      <use xlink:href="#AppleSDGothicNeo-Regular-35" transform="translate(159.8125 0)"/>
      <use xlink:href="#AppleSDGothicNeo-Regular-1" transform="translate(214.21875 0)"/>
      <use xlink:href="#AppleSDGothicNeo-Regular-54" transform="translate(240.515625 0)"/>
      <use xlink:href="#AppleSDGothicNeo-Regular-42" transform="translate(282.015625 0)"/>
      <use xlink:href="#AppleSDGothicNeo-Regular-4e" transform="translate(329.21875 0)"/>
      <use xlink:href="#AppleSDGothicNeo-Regular-51" transform="translate(409.515625 0)"/>
      <use xlink:href="#AppleSDGothicNeo-Regular-4d" transform="translate(464.015625 0)"/>
      <use xlink:href="#AppleSDGothicNeo-Regular-46" transform="translate(486.71875 0)"/>
      <use xlink:href="#AppleSDGothicNeo-Regular-1" transform="translate(536.71875 0)"/>
      <use xlink:href="#AppleSDGothicNeo-Regular-4a" transform="translate(563.015625 0)"/>
      <use xlink:href="#AppleSDGothicNeo-Regular-4f" transform="translate(585.71875 0)"/>
      <use xlink:href="#AppleSDGothicNeo-Regular-45" transform="translate(639.3125 0)"/>
      <use xlink:href="#AppleSDGothicNeo-Regular-46" transform="translate(693.8125 0)"/>
      <use xlink:href="#AppleSDGothicNeo-Regular-59" transform="translate(742.8125 0)"/>
     </g>
    </g>
   </g>
   <g id="matplotlib.axis_4"/>
   <g id="patch_10">
    <path d="M 59 443.08 
L 59 369.144 
" style="fill: none; stroke: #000000; stroke-width: 0.8; stroke-linejoin: miter; stroke-linecap: square"/>
   </g>
   <g id="patch_11">
    <path d="M 844.92 443.08 
L 844.92 369.144 
" style="fill: none; stroke: #000000; stroke-width: 0.8; stroke-linejoin: miter; stroke-linecap: square"/>
   </g>
   <g id="patch_12">
    <path d="M 59 443.08 
L 844.92 443.08 
" style="fill: none; stroke: #000000; stroke-width: 0.8; stroke-linejoin: miter; stroke-linecap: square"/>
   </g>
   <g id="patch_13">
    <path d="M 59 369.144 
L 844.92 369.144 
" style="fill: none; stroke: #000000; stroke-width: 0.8; stroke-linejoin: miter; stroke-linecap: square"/>
   </g>
   <g id="legend_2">
    <g id="patch_14">
     <path d="M 725.94875 402.744 
L 839.32 402.744 
Q 840.92 402.744 840.92 401.144 
L 840.92 374.744 
Q 840.92 373.144 839.32 373.144 
L 725.94875 373.144 
Q 724.34875 373.144 724.34875 374.744 
L 724.34875 401.144 
Q 724.34875 402.744 725.94875 402.744 
z
" style="fill: #ffffff; opacity: 0.8; stroke: #cccccc; stroke-linejoin: miter"/>
    </g>
    <g id="PathCollection_3">
     <g>
      <use xlink:href="#m507723a65a" x="735.54875" y="381.444" style="fill: #e45756; stroke: #e45756; stroke-width: 1.5"/>
     </g>
    </g>
    <g id="text_31">
     <!-- actual anomaly (post-hoc) -->
     <g transform="translate(749.94875 383.544) scale(0.08 -0.08)">
      <defs>
       <path id="AppleSDGothicNeo-Regular-9" d="M 1472 -384 
L 1914 -384 
C 1344 256 883 1235 883 2221 
L 883 2374 
C 883 3392 1344 4307 1914 4941 
L 1472 4941 
C 883 4339 365 3469 365 2330 
L 365 2227 
C 365 1094 883 218 1472 -384 
z
" transform="scale(0.015625)"/>
       <path id="AppleSDGothicNeo-Regular-a" d="M 115 -384 
L 550 -384 
C 1146 218 1651 1088 1651 2227 
L 1651 2330 
C 1651 3462 1146 4339 550 4941 
L 115 4941 
C 678 4301 1146 3322 1146 2336 
L 1146 2176 
C 1146 1165 678 250 115 -384 
z
" transform="scale(0.015625)"/>
      </defs>
      <use xlink:href="#AppleSDGothicNeo-Regular-42"/>
      <use xlink:href="#AppleSDGothicNeo-Regular-44" transform="translate(47.203125 0)"/>
      <use xlink:href="#AppleSDGothicNeo-Regular-55" transform="translate(93.109375 0)"/>
      <use xlink:href="#AppleSDGothicNeo-Regular-56" transform="translate(128.109375 0)"/>
      <use xlink:href="#AppleSDGothicNeo-Regular-42" transform="translate(181.109375 0)"/>
      <use xlink:href="#AppleSDGothicNeo-Regular-4d" transform="translate(228.3125 0)"/>
      <use xlink:href="#AppleSDGothicNeo-Regular-1" transform="translate(251.015625 0)"/>
      <use xlink:href="#AppleSDGothicNeo-Regular-42" transform="translate(277.3125 0)"/>
      <use xlink:href="#AppleSDGothicNeo-Regular-4f" transform="translate(324.515625 0)"/>
      <use xlink:href="#AppleSDGothicNeo-Regular-50" transform="translate(378.109375 0)"/>
      <use xlink:href="#AppleSDGothicNeo-Regular-4e" transform="translate(431.515625 0)"/>
      <use xlink:href="#AppleSDGothicNeo-Regular-42" transform="translate(511.8125 0)"/>
      <use xlink:href="#AppleSDGothicNeo-Regular-4d" transform="translate(559.015625 0)"/>
      <use xlink:href="#AppleSDGothicNeo-Regular-5a" transform="translate(581.71875 0)"/>
      <use xlink:href="#AppleSDGothicNeo-Regular-1" transform="translate(629.921875 0)"/>
      <use xlink:href="#AppleSDGothicNeo-Regular-9" transform="translate(656.21875 0)"/>
      <use xlink:href="#AppleSDGothicNeo-Regular-51" transform="translate(687.921875 0)"/>
      <use xlink:href="#AppleSDGothicNeo-Regular-50" transform="translate(742.421875 0)"/>
      <use xlink:href="#AppleSDGothicNeo-Regular-54" transform="translate(795.828125 0)"/>
      <use xlink:href="#AppleSDGothicNeo-Regular-55" transform="translate(837.328125 0)"/>
      <use xlink:href="#AppleSDGothicNeo-Regular-e" transform="translate(870.234375 0)"/>
      <use xlink:href="#AppleSDGothicNeo-Regular-49" transform="translate(913.4375 0)"/>
      <use xlink:href="#AppleSDGothicNeo-Regular-50" transform="translate(967.03125 0)"/>
      <use xlink:href="#AppleSDGothicNeo-Regular-44" transform="translate(1020.4375 0)"/>
      <use xlink:href="#AppleSDGothicNeo-Regular-a" transform="translate(1065.4375 0)"/>
     </g>
    </g>
    <g id="PathCollection_4">
     <g>
      <use xlink:href="#ma21437fe10" x="735.54875" y="395.044" style="fill: #111111; stroke: #111111"/>
     </g>
    </g>
    <g id="text_32">
     <!-- selected case -->
     <g transform="translate(749.94875 397.144) scale(0.08 -0.08)">
      <use xlink:href="#AppleSDGothicNeo-Regular-54"/>
      <use xlink:href="#AppleSDGothicNeo-Regular-46" transform="translate(41.5 0)"/>
      <use xlink:href="#AppleSDGothicNeo-Regular-4d" transform="translate(91.5 0)"/>
      <use xlink:href="#AppleSDGothicNeo-Regular-46" transform="translate(114.203125 0)"/>
      <use xlink:href="#AppleSDGothicNeo-Regular-44" transform="translate(164.203125 0)"/>
      <use xlink:href="#AppleSDGothicNeo-Regular-55" transform="translate(210.109375 0)"/>
      <use xlink:href="#AppleSDGothicNeo-Regular-46" transform="translate(245.109375 0)"/>
      <use xlink:href="#AppleSDGothicNeo-Regular-45" transform="translate(295.109375 0)"/>
      <use xlink:href="#AppleSDGothicNeo-Regular-1" transform="translate(349.609375 0)"/>
      <use xlink:href="#AppleSDGothicNeo-Regular-44" transform="translate(375.90625 0)"/>
      <use xlink:href="#AppleSDGothicNeo-Regular-42" transform="translate(420.90625 0)"/>
      <use xlink:href="#AppleSDGothicNeo-Regular-54" transform="translate(468.109375 0)"/>
      <use xlink:href="#AppleSDGothicNeo-Regular-46" transform="translate(509.609375 0)"/>
     </g>
    </g>
   </g>
  </g>
  <g id="text_33">
   <!-- Actual anomaly labels are shown only for post-hoc evaluation and explanation; they were not used for candidate selection or routing. -->
   <g transform="translate(8.64 501.48) scale(0.08 -0.08)">
    <defs>
     <path id="AppleSDGothicNeo-Regular-58" d="M 1082 269 
L 1581 269 
L 2330 2688 
L 2349 2688 
L 3085 269 
L 3578 269 
L 4480 3443 
L 4013 3443 
L 3360 902 
L 3334 902 
L 2566 3443 
L 2144 3443 
L 1382 902 
L 1357 902 
L 704 3443 
L 179 3443 
L 1082 269 
z
" transform="scale(0.015625)"/>
     <path id="AppleSDGothicNeo-Regular-47" d="M 653 269 
L 1146 269 
L 1146 3034 
L 1875 3034 
L 1875 3437 
L 1146 3437 
L 1146 3866 
C 1146 4307 1357 4486 1734 4486 
C 1952 4486 2086 4461 2182 4442 
L 2182 4787 
C 2067 4845 1894 4896 1645 4896 
C 1069 4896 653 4595 653 3898 
L 653 3437 
L 186 3437 
L 186 3034 
L 653 3034 
L 653 269 
z
" transform="scale(0.015625)"/>
     <path id="AppleSDGothicNeo-Regular-1c" d="M 416 -122 
L 774 -122 
L 1222 1094 
L 646 1094 
L 416 -122 
z
M 646 3021 
L 1203 3021 
L 1203 3590 
L 646 3590 
L 646 3021 
z
" transform="scale(0.015625)"/>
     <path id="AppleSDGothicNeo-Regular-48" d="M 1574 -672 
C 2656 -672 3091 -243 3091 301 
C 3091 890 2662 1062 2086 1062 
L 1210 1062 
C 998 1062 896 1126 896 1299 
C 896 1402 960 1478 1043 1555 
C 1210 1498 1389 1466 1587 1466 
C 2253 1466 2778 1805 2778 2483 
L 2778 2490 
C 2778 2739 2694 2931 2547 3072 
L 3117 3072 
L 3117 3450 
L 2042 3450 
C 1901 3482 1754 3501 1594 3501 
C 896 3501 397 3136 397 2477 
L 397 2464 
C 397 2086 550 1830 794 1670 
C 550 1491 435 1344 435 1146 
C 435 934 576 800 755 749 
L 755 717 
C 429 608 154 410 154 70 
C 154 -390 608 -672 1574 -672 
z
M 1562 -288 
C 934 -288 666 -147 666 134 
C 666 403 851 544 1094 627 
L 2010 627 
C 2426 627 2579 531 2579 237 
C 2579 -96 2310 -288 1562 -288 
z
M 1587 1850 
C 1165 1850 883 2054 883 2470 
L 883 2502 
C 883 2899 1152 3130 1587 3130 
C 2016 3130 2285 2931 2285 2496 
L 2285 2464 
C 2285 2054 2029 1850 1587 1850 
z
" transform="scale(0.015625)"/>
    </defs>
    <use xlink:href="#AppleSDGothicNeo-Regular-22"/>
    <use xlink:href="#AppleSDGothicNeo-Regular-44" transform="translate(60.5 0)"/>
    <use xlink:href="#AppleSDGothicNeo-Regular-55" transform="translate(106.40625 0)"/>
    <use xlink:href="#AppleSDGothicNeo-Regular-56" transform="translate(141.40625 0)"/>
    <use xlink:href="#AppleSDGothicNeo-Regular-42" transform="translate(194.40625 0)"/>
    <use xlink:href="#AppleSDGothicNeo-Regular-4d" transform="translate(241.609375 0)"/>
    <use xlink:href="#AppleSDGothicNeo-Regular-1" transform="translate(264.3125 0)"/>
    <use xlink:href="#AppleSDGothicNeo-Regular-42" transform="translate(290.609375 0)"/>
    <use xlink:href="#AppleSDGothicNeo-Regular-4f" transform="translate(337.8125 0)"/>
    <use xlink:href="#AppleSDGothicNeo-Regular-50" transform="translate(391.40625 0)"/>
    <use xlink:href="#AppleSDGothicNeo-Regular-4e" transform="translate(444.8125 0)"/>
    <use xlink:href="#AppleSDGothicNeo-Regular-42" transform="translate(525.109375 0)"/>
    <use xlink:href="#AppleSDGothicNeo-Regular-4d" transform="translate(572.3125 0)"/>
    <use xlink:href="#AppleSDGothicNeo-Regular-5a" transform="translate(595.015625 0)"/>
    <use xlink:href="#AppleSDGothicNeo-Regular-1" transform="translate(643.21875 0)"/>
    <use xlink:href="#AppleSDGothicNeo-Regular-4d" transform="translate(669.515625 0)"/>
    <use xlink:href="#AppleSDGothicNeo-Regular-42" transform="translate(692.21875 0)"/>
    <use xlink:href="#AppleSDGothicNeo-Regular-43" transform="translate(739.421875 0)"/>
    <use xlink:href="#AppleSDGothicNeo-Regular-46" transform="translate(793.921875 0)"/>
    <use xlink:href="#AppleSDGothicNeo-Regular-4d" transform="translate(843.921875 0)"/>
    <use xlink:href="#AppleSDGothicNeo-Regular-54" transform="translate(866.625 0)"/>
    <use xlink:href="#AppleSDGothicNeo-Regular-1" transform="translate(908.125 0)"/>
    <use xlink:href="#AppleSDGothicNeo-Regular-42" transform="translate(934.421875 0)"/>
    <use xlink:href="#AppleSDGothicNeo-Regular-53" transform="translate(981.625 0)"/>
    <use xlink:href="#AppleSDGothicNeo-Regular-46" transform="translate(1016.21875 0)"/>
    <use xlink:href="#AppleSDGothicNeo-Regular-1" transform="translate(1066.21875 0)"/>
    <use xlink:href="#AppleSDGothicNeo-Regular-54" transform="translate(1092.515625 0)"/>
    <use xlink:href="#AppleSDGothicNeo-Regular-49" transform="translate(1134.015625 0)"/>
    <use xlink:href="#AppleSDGothicNeo-Regular-50" transform="translate(1187.609375 0)"/>
    <use xlink:href="#AppleSDGothicNeo-Regular-58" transform="translate(1241.015625 0)"/>
    <use xlink:href="#AppleSDGothicNeo-Regular-4f" transform="translate(1313.8125 0)"/>
    <use xlink:href="#AppleSDGothicNeo-Regular-1" transform="translate(1367.40625 0)"/>
    <use xlink:href="#AppleSDGothicNeo-Regular-50" transform="translate(1393.703125 0)"/>
    <use xlink:href="#AppleSDGothicNeo-Regular-4f" transform="translate(1447.109375 0)"/>
    <use xlink:href="#AppleSDGothicNeo-Regular-4d" transform="translate(1500.703125 0)"/>
    <use xlink:href="#AppleSDGothicNeo-Regular-5a" transform="translate(1523.40625 0)"/>
    <use xlink:href="#AppleSDGothicNeo-Regular-1" transform="translate(1571.609375 0)"/>
    <use xlink:href="#AppleSDGothicNeo-Regular-47" transform="translate(1597.90625 0)"/>
    <use xlink:href="#AppleSDGothicNeo-Regular-50" transform="translate(1630.203125 0)"/>
    <use xlink:href="#AppleSDGothicNeo-Regular-53" transform="translate(1683.609375 0)"/>
    <use xlink:href="#AppleSDGothicNeo-Regular-1" transform="translate(1718.203125 0)"/>
    <use xlink:href="#AppleSDGothicNeo-Regular-51" transform="translate(1744.5 0)"/>
    <use xlink:href="#AppleSDGothicNeo-Regular-50" transform="translate(1799 0)"/>
    <use xlink:href="#AppleSDGothicNeo-Regular-54" transform="translate(1852.40625 0)"/>
    <use xlink:href="#AppleSDGothicNeo-Regular-55" transform="translate(1893.90625 0)"/>
    <use xlink:href="#AppleSDGothicNeo-Regular-e" transform="translate(1926.8125 0)"/>
    <use xlink:href="#AppleSDGothicNeo-Regular-49" transform="translate(1970.015625 0)"/>
    <use xlink:href="#AppleSDGothicNeo-Regular-50" transform="translate(2023.609375 0)"/>
    <use xlink:href="#AppleSDGothicNeo-Regular-44" transform="translate(2077.015625 0)"/>
    <use xlink:href="#AppleSDGothicNeo-Regular-1" transform="translate(2122.015625 0)"/>
    <use xlink:href="#AppleSDGothicNeo-Regular-46" transform="translate(2148.3125 0)"/>
    <use xlink:href="#AppleSDGothicNeo-Regular-57" transform="translate(2197.8125 0)"/>
    <use xlink:href="#AppleSDGothicNeo-Regular-42" transform="translate(2245.515625 0)"/>
    <use xlink:href="#AppleSDGothicNeo-Regular-4d" transform="translate(2292.71875 0)"/>
    <use xlink:href="#AppleSDGothicNeo-Regular-56" transform="translate(2315.421875 0)"/>
    <use xlink:href="#AppleSDGothicNeo-Regular-42" transform="translate(2368.421875 0)"/>
    <use xlink:href="#AppleSDGothicNeo-Regular-55" transform="translate(2415.625 0)"/>
    <use xlink:href="#AppleSDGothicNeo-Regular-4a" transform="translate(2450.625 0)"/>
    <use xlink:href="#AppleSDGothicNeo-Regular-50" transform="translate(2473.328125 0)"/>
    <use xlink:href="#AppleSDGothicNeo-Regular-4f" transform="translate(2526.734375 0)"/>
    <use xlink:href="#AppleSDGothicNeo-Regular-1" transform="translate(2580.328125 0)"/>
    <use xlink:href="#AppleSDGothicNeo-Regular-42" transform="translate(2606.625 0)"/>
    <use xlink:href="#AppleSDGothicNeo-Regular-4f" transform="translate(2653.828125 0)"/>
    <use xlink:href="#AppleSDGothicNeo-Regular-45" transform="translate(2707.421875 0)"/>
    <use xlink:href="#AppleSDGothicNeo-Regular-1" transform="translate(2761.921875 0)"/>
    <use xlink:href="#AppleSDGothicNeo-Regular-46" transform="translate(2788.21875 0)"/>
    <use xlink:href="#AppleSDGothicNeo-Regular-59" transform="translate(2837.21875 0)"/>
    <use xlink:href="#AppleSDGothicNeo-Regular-51" transform="translate(2884.921875 0)"/>
    <use xlink:href="#AppleSDGothicNeo-Regular-4d" transform="translate(2939.421875 0)"/>
    <use xlink:href="#AppleSDGothicNeo-Regular-42" transform="translate(2962.125 0)"/>
    <use xlink:href="#AppleSDGothicNeo-Regular-4f" transform="translate(3009.328125 0)"/>
    <use xlink:href="#AppleSDGothicNeo-Regular-42" transform="translate(3062.921875 0)"/>
    <use xlink:href="#AppleSDGothicNeo-Regular-55" transform="translate(3110.125 0)"/>
    <use xlink:href="#AppleSDGothicNeo-Regular-4a" transform="translate(3145.125 0)"/>
    <use xlink:href="#AppleSDGothicNeo-Regular-50" transform="translate(3167.828125 0)"/>
    <use xlink:href="#AppleSDGothicNeo-Regular-4f" transform="translate(3221.234375 0)"/>
    <use xlink:href="#AppleSDGothicNeo-Regular-1c" transform="translate(3274.828125 0)"/>
    <use xlink:href="#AppleSDGothicNeo-Regular-1" transform="translate(3303.234375 0)"/>
    <use xlink:href="#AppleSDGothicNeo-Regular-55" transform="translate(3329.53125 0)"/>
    <use xlink:href="#AppleSDGothicNeo-Regular-49" transform="translate(3364.53125 0)"/>
    <use xlink:href="#AppleSDGothicNeo-Regular-46" transform="translate(3418.125 0)"/>
    <use xlink:href="#AppleSDGothicNeo-Regular-5a" transform="translate(3468.125 0)"/>
    <use xlink:href="#AppleSDGothicNeo-Regular-1" transform="translate(3516.328125 0)"/>
    <use xlink:href="#AppleSDGothicNeo-Regular-58" transform="translate(3542.625 0)"/>
    <use xlink:href="#AppleSDGothicNeo-Regular-46" transform="translate(3615.421875 0)"/>
    <use xlink:href="#AppleSDGothicNeo-Regular-53" transform="translate(3665.421875 0)"/>
    <use xlink:href="#AppleSDGothicNeo-Regular-46" transform="translate(3700.015625 0)"/>
    <use xlink:href="#AppleSDGothicNeo-Regular-1" transform="translate(3750.015625 0)"/>
    <use xlink:href="#AppleSDGothicNeo-Regular-4f" transform="translate(3776.3125 0)"/>
    <use xlink:href="#AppleSDGothicNeo-Regular-50" transform="translate(3829.90625 0)"/>
    <use xlink:href="#AppleSDGothicNeo-Regular-55" transform="translate(3883.3125 0)"/>
    <use xlink:href="#AppleSDGothicNeo-Regular-1" transform="translate(3918.3125 0)"/>
    <use xlink:href="#AppleSDGothicNeo-Regular-56" transform="translate(3944.609375 0)"/>
    <use xlink:href="#AppleSDGothicNeo-Regular-54" transform="translate(3997.609375 0)"/>
    <use xlink:href="#AppleSDGothicNeo-Regular-46" transform="translate(4039.109375 0)"/>
    <use xlink:href="#AppleSDGothicNeo-Regular-45" transform="translate(4089.109375 0)"/>
    <use xlink:href="#AppleSDGothicNeo-Regular-1" transform="translate(4143.609375 0)"/>
    <use xlink:href="#AppleSDGothicNeo-Regular-47" transform="translate(4169.90625 0)"/>
    <use xlink:href="#AppleSDGothicNeo-Regular-50" transform="translate(4202.203125 0)"/>
    <use xlink:href="#AppleSDGothicNeo-Regular-53" transform="translate(4255.609375 0)"/>
    <use xlink:href="#AppleSDGothicNeo-Regular-1" transform="translate(4290.203125 0)"/>
    <use xlink:href="#AppleSDGothicNeo-Regular-44" transform="translate(4316.5 0)"/>
    <use xlink:href="#AppleSDGothicNeo-Regular-42" transform="translate(4361.5 0)"/>
    <use xlink:href="#AppleSDGothicNeo-Regular-4f" transform="translate(4408.703125 0)"/>
    <use xlink:href="#AppleSDGothicNeo-Regular-45" transform="translate(4462.296875 0)"/>
    <use xlink:href="#AppleSDGothicNeo-Regular-4a" transform="translate(4516.796875 0)"/>
    <use xlink:href="#AppleSDGothicNeo-Regular-45" transform="translate(4539.5 0)"/>
    <use xlink:href="#AppleSDGothicNeo-Regular-42" transform="translate(4594 0)"/>
    <use xlink:href="#AppleSDGothicNeo-Regular-55" transform="translate(4641.203125 0)"/>
    <use xlink:href="#AppleSDGothicNeo-Regular-46" transform="translate(4676.203125 0)"/>
    <use xlink:href="#AppleSDGothicNeo-Regular-1" transform="translate(4726.203125 0)"/>
    <use xlink:href="#AppleSDGothicNeo-Regular-54" transform="translate(4752.5 0)"/>
    <use xlink:href="#AppleSDGothicNeo-Regular-46" transform="translate(4794 0)"/>
    <use xlink:href="#AppleSDGothicNeo-Regular-4d" transform="translate(4844 0)"/>
    <use xlink:href="#AppleSDGothicNeo-Regular-46" transform="translate(4866.703125 0)"/>
    <use xlink:href="#AppleSDGothicNeo-Regular-44" transform="translate(4916.703125 0)"/>
    <use xlink:href="#AppleSDGothicNeo-Regular-55" transform="translate(4962.609375 0)"/>
    <use xlink:href="#AppleSDGothicNeo-Regular-4a" transform="translate(4997.609375 0)"/>
    <use xlink:href="#AppleSDGothicNeo-Regular-50" transform="translate(5020.3125 0)"/>
    <use xlink:href="#AppleSDGothicNeo-Regular-4f" transform="translate(5073.71875 0)"/>
    <use xlink:href="#AppleSDGothicNeo-Regular-1" transform="translate(5127.3125 0)"/>
    <use xlink:href="#AppleSDGothicNeo-Regular-50" transform="translate(5153.609375 0)"/>
    <use xlink:href="#AppleSDGothicNeo-Regular-53" transform="translate(5207.015625 0)"/>
    <use xlink:href="#AppleSDGothicNeo-Regular-1" transform="translate(5241.609375 0)"/>
    <use xlink:href="#AppleSDGothicNeo-Regular-53" transform="translate(5267.90625 0)"/>
    <use xlink:href="#AppleSDGothicNeo-Regular-50" transform="translate(5302.5 0)"/>
    <use xlink:href="#AppleSDGothicNeo-Regular-56" transform="translate(5355.90625 0)"/>
    <use xlink:href="#AppleSDGothicNeo-Regular-55" transform="translate(5408.90625 0)"/>
    <use xlink:href="#AppleSDGothicNeo-Regular-4a" transform="translate(5443.90625 0)"/>
    <use xlink:href="#AppleSDGothicNeo-Regular-4f" transform="translate(5466.609375 0)"/>
    <use xlink:href="#AppleSDGothicNeo-Regular-48" transform="translate(5520.203125 0)"/>
    <use xlink:href="#AppleSDGothicNeo-Regular-f" transform="translate(5570.796875 0)"/>
   </g>
  </g>
 </g>
 <defs>
  <clipPath id="p0345d2cc17">
   <rect x="59" y="27.6" width="785.92" height="295.744"/>
  </clipPath>
  <clipPath id="p4bc03822af">
   <rect x="59" y="369.144" width="785.92" height="73.936"/>
  </clipPath>
 </defs>
</svg>
