<?xml version="1.0" encoding="utf-8" standalone="no"?>
<!DOCTYPE svg PUBLIC "-//W3C//DTD SVG 1.1//EN"
  "http://www.w3.org/Graphics/SVG/1.1/DTD/svg11.dtd">
<svg xmlns:xlink="http://www.w3.org/1999/xlink" width="864pt" height="504pt" viewBox="0 0 864 504" xmlns="http://www.w3.org/2000/svg" version="1.1">
 <metadata>
  <rdf:RDF xmlns:dc="http://purl.org/dc/elements/1.1/" xmlns:cc="http://creativecommons.org/ns#" xmlns:rdf="http://www.w3.org/1999/02/22-rdf-syntax-ns#">
   <cc:Work>
    <dc:type rdf:resource="http://purl.org/dc/dcmitype/StillImage"/>
    <dc:date>2026-07-13T08:09:27.450829</dc:date>
    <dc:format>image/svg+xml</dc:format>
    <dc:creator>
     <cc:Agent>
      <dc:title>Matplotlib v3.11.0, https://matplotlib.org/</dc:title>
     </cc:Agent>
    </dc:creator>
   </cc:Work>
  </rdf:RDF>
 </metadata>
 <defs>
  <style type="text/css">*{stroke-linejoin: round; stroke-linecap: butt}</style>
 </defs>
 <g id="figure_1">
  <g id="patch_1">
   <path d="M 0 504 
L 864 504 
L 864 0 
L 0 0 
z
" style="fill: #ffffff"/>
  </g>
  <g id="axes_1">
   <g id="patch_2">
    <path d="M 49.28 323.344 
L 847.44 323.344 
L 847.44 27.6 
L 49.28 27.6 
z
" style="fill: #ffffff"/>
   </g>
   <g id="FillBetweenPolyCollection_1">
    <defs>
     <path id="ma8d1968a8b" d="M 85.56 -450.732904 
L 85.56 -264.624802 
L 91.411613 -255.333593 
L 97.263226 -266.798852 
L 103.114839 -232.583382 
L 108.966452 -221.479289 
L 114.818065 -229.845891 
L 120.669677 -235.931523 
L 126.52129 -244.546669 
L 132.372903 -272.936146 
L 138.224516 -260.424034 
L 144.076129 -265.772322 
L 149.927742 -272.793117 
L 155.779355 -278.959642 
L 161.630968 -277.06032 
L 167.482581 -273.179061 
L 173.334194 -274.915424 
L 179.185806 -276.094049 
L 185.037419 -274.949812 
L 190.889032 -275.839097 
L 196.740645 -275.033989 
L 202.592258 -274.971385 
L 208.443871 -274.806081 
L 214.295484 -276.490156 
L 220.147097 -276.845775 
L 225.99871 -275.13708 
L 231.850323 -275.791812 
L 237.701935 -274.915737 
L 243.553548 -273.854114 
L 249.405161 -269.007602 
L 255.256774 -270.437351 
L 261.108387 -269.389172 
L 266.96 -268.276119 
L 272.811613 -267.986545 
L 278.663226 -266.437606 
L 284.514839 -265.801554 
L 290.366452 -264.597917 
L 296.218065 -264.109271 
L 302.069677 -260.5061 
L 307.92129 -259.846524 
L 313.772903 -258.390751 
L 319.624516 -260.25576 
L 325.476129 -259.732569 
L 331.327742 -258.378557 
L 337.179355 -257.865369 
L 343.030968 -257.726561 
L 348.882581 -259.205001 
L 354.734194 -260.135084 
L 360.585806 -259.825577 
L 366.437419 -262.104983 
L 372.289032 -261.989934 
L 378.140645 -264.575095 
L 383.992258 -265.508304 
L 389.843871 -267.006127 
L 395.695484 -268.350371 
L 401.547097 -269.580816 
L 407.39871 -271.101148 
L 413.250323 -273.03744 
L 419.101935 -274.666881 
L 424.953548 -276.808258 
L 430.805161 -279.468843 
L 436.656774 -281.738634 
L 442.508387 -293.082515 
L 448.36 -294.581589 
L 454.211613 -295.558801 
L 460.063226 -296.752824 
L 465.914839 -297.881115 
L 471.766452 -299.221372 
L 477.618065 -300.491443 
L 483.469677 -301.128432 
L 489.32129 -302.132843 
L 495.172903 -299.698138 
L 501.024516 -299.821549 
L 506.876129 -300.684494 
L 512.727742 -302.799455 
L 518.579355 -301.847331 
L 524.430968 -295.282903 
L 530.282581 -292.804271 
L 536.134194 -296.25691 
L 541.985806 -298.310204 
L 547.837419 -298.895062 
L 553.689032 -291.692237 
L 559.540645 -291.871063 
L 565.392258 -290.849848 
L 571.243871 -287.000244 
L 577.095484 -286.070787 
L 582.947097 -283.219733 
L 588.79871 -283.472496 
L 594.650323 -284.148409 
L 600.501935 -279.735284 
L 606.353548 -273.057134 
L 612.205161 -268.276041 
L 618.056774 -262.883594 
L 623.908387 -260.344548 
L 629.76 -260.728773 
L 635.611613 -261.39687 
L 641.463226 -259.721315 
L 647.314839 -254.819389 
L 653.166452 -248.268171 
L 659.018065 -238.922011 
L 664.869677 -235.140094 
L 670.72129 -237.646155 
L 676.572903 -242.824608 
L 682.424516 -239.334685 
L 688.276129 -239.790349 
L 694.127742 -237.780278 
L 699.979355 -239.64904 
L 705.830968 -234.905147 
L 711.682581 -234.256125 
L 717.534194 -238.967031 
L 723.385806 -245.869807 
L 729.237419 -249.599516 
L 735.089032 -254.22015 
L 740.940645 -259.995025 
L 746.792258 -262.142186 
L 752.643871 -263.65783 
L 758.495484 -260.558858 
L 764.347097 -258.211766 
L 770.19871 -257.849426 
L 776.050323 -253.475381 
L 781.901935 -250.984636 
L 787.753548 -254.086891 
L 793.605161 -256.649854 
L 799.456774 -254.859406 
L 805.308387 -256.455631 
L 811.16 -256.609838 
L 811.16 -449.317932 
L 811.16 -449.317932 
L 805.308387 -456.3664 
L 799.456774 -396.900359 
L 793.605161 -363.264824 
L 787.753548 -343.507369 
L 781.901935 -320.6103 
L 776.050323 -302.856823 
L 770.19871 -286.897232 
L 764.347097 -286.076728 
L 758.495484 -283.297578 
L 752.643871 -283.553467 
L 746.792258 -283.258733 
L 740.940645 -280.798547 
L 735.089032 -277.962969 
L 729.237419 -277.24235 
L 723.385806 -276.920339 
L 717.534194 -277.343956 
L 711.682581 -279.093136 
L 705.830968 -278.115846 
L 699.979355 -277.667686 
L 694.127742 -278.517578 
L 688.276129 -282.876618 
L 682.424516 -289.116768 
L 676.572903 -293.008265 
L 670.72129 -298.768367 
L 664.869677 -300.750772 
L 659.018065 -303.457859 
L 653.166452 -306.540887 
L 647.314839 -314.860515 
L 641.463226 -315.393554 
L 635.611613 -314.905534 
L 629.76 -317.395654 
L 623.908387 -320.865565 
L 618.056774 -324.216442 
L 612.205161 -326.686163 
L 606.353548 -325.870973 
L 600.501935 -326.179697 
L 594.650323 -326.688038 
L 588.79871 -329.673369 
L 582.947097 -332.547089 
L 577.095484 -335.406116 
L 571.243871 -335.573609 
L 565.392258 -334.512299 
L 559.540645 -335.660599 
L 553.689032 -335.190399 
L 547.837419 -333.645056 
L 541.985806 -333.252858 
L 536.134194 -334.02764 
L 530.282581 -332.704031 
L 524.430968 -332.350677 
L 518.579355 -332.577258 
L 512.727742 -334.455713 
L 506.876129 -336.933014 
L 501.024516 -342.350002 
L 495.172903 -346.777821 
L 489.32129 -344.076986 
L 483.469677 -342.212757 
L 477.618065 -344.050256 
L 471.766452 -343.668844 
L 465.914839 -353.051109 
L 460.063226 -360.366093 
L 454.211613 -367.23604 
L 448.36 -376.543587 
L 442.508387 -377.424901 
L 436.656774 -362.5292 
L 430.805161 -352.62632 
L 424.953548 -347.746983 
L 419.101935 -345.337677 
L 413.250323 -345.294691 
L 407.39871 -343.709878 
L 401.547097 -344.466839 
L 395.695484 -336.849385 
L 389.843871 -334.206856 
L 383.992258 -331.35549 
L 378.140645 -326.170006 
L 372.289032 -319.559698 
L 366.437419 -312.428857 
L 360.585806 -308.029723 
L 354.734194 -305.835744 
L 348.882581 -302.575141 
L 343.030968 -299.104134 
L 337.179355 -294.592375 
L 331.327742 -293.788284 
L 325.476129 -289.853488 
L 319.624516 -289.09207 
L 313.772903 -286.2425 
L 307.92129 -282.890998 
L 302.069677 -280.897888 
L 296.218065 -280.720703 
L 290.366452 -280.526793 
L 284.514839 -283.132821 
L 278.663226 -284.51286 
L 272.811613 -285.950423 
L 266.96 -287.065741 
L 261.108387 -289.252608 
L 255.256774 -291.445413 
L 249.405161 -294.122957 
L 243.553548 -297.779197 
L 237.701935 -298.992213 
L 231.850323 -300.012021 
L 225.99871 -309.783358 
L 220.147097 -309.077981 
L 214.295484 -310.63497 
L 208.443871 -309.78328 
L 202.592258 -310.052223 
L 196.740645 -311.454381 
L 190.889032 -313.264993 
L 185.037419 -312.488101 
L 179.185806 -312.604244 
L 173.334194 -313.757312 
L 167.482581 -311.717617 
L 161.630968 -312.489508 
L 155.779355 -311.956781 
L 149.927742 -322.266785 
L 144.076129 -354.578165 
L 138.224516 -406.940484 
L 132.372903 -393.253809 
L 126.52129 -400.97193 
L 120.669677 -418.335868 
L 114.818065 -443.765657 
L 108.966452 -448.668598 
L 103.114839 -462.957091 
L 97.263226 -458.884187 
L 91.411613 -452.155471 
L 85.56 -450.732904 
z
" style="stroke: #a7dff3; stroke-opacity: 0.55"/>
    </defs>
    <g clip-path="url(#p7bc30b1c52)">
     <use xlink:href="#ma8d1968a8b" x="0" y="504" style="fill: #a7dff3; fill-opacity: 0.55; stroke: #a7dff3; stroke-opacity: 0.55"/>
    </g>
   </g>
   <g id="matplotlib.axis_1">
    <g id="xtick_1">
     <g id="line2d_1">
      <defs>
       <path id="m7aa5099ed9" d="M 0 0 
L 0 3.5 
" style="stroke: #000000; stroke-width: 0.8"/>
      </defs>
      <g>
       <use xlink:href="#m7aa5099ed9" x="85.56" y="323.344" style="stroke: #000000; stroke-width: 0.8"/>
      </g>
     </g>
     <g id="text_1">
      <!-- 0 -->
      <g transform="translate(82.41 339.344) scale(0.1 -0.1)">
       <defs>
        <path id="AppleSDGothicNeo-Regular-11" d="M 2022 192 
C 2893 192 3558 787 3558 2240 
L 3558 2630 
C 3558 4122 2867 4634 2029 4634 
C 1184 4634 448 4122 448 2605 
L 448 2246 
C 448 794 1139 192 2022 192 
z
M 2022 614 
C 1350 614 992 1126 992 2195 
L 992 2669 
C 992 3744 1357 4211 2029 4211 
C 2688 4211 3040 3718 3040 2637 
L 3040 2163 
C 3040 1062 2682 614 2022 614 
z
" transform="scale(0.015625)"/>
       </defs>
       <use xlink:href="#AppleSDGothicNeo-Regular-11"/>
      </g>
     </g>
    </g>
    <g id="xtick_2">
     <g id="line2d_2">
      <g>
       <use xlink:href="#m7aa5099ed9" x="202.592258" y="323.344" style="stroke: #000000; stroke-width: 0.8"/>
      </g>
     </g>
     <g id="text_2">
      <!-- 20 -->
      <g transform="translate(196.802414 339.344) scale(0.1 -0.1)">
       <defs>
        <path id="AppleSDGothicNeo-Regular-13" d="M 397 269 
L 3066 269 
L 3066 704 
L 1107 704 
L 1779 1382 
C 2522 2138 2970 2650 2970 3392 
C 2970 4160 2502 4640 1638 4640 
C 1152 4640 717 4422 448 4250 
L 595 3846 
C 845 4019 1190 4198 1555 4198 
C 2163 4198 2438 3917 2438 3347 
C 2438 2733 2029 2266 1421 1632 
L 397 570 
L 397 269 
z
" transform="scale(0.015625)"/>
       </defs>
       <use xlink:href="#AppleSDGothicNeo-Regular-13"/>
       <use xlink:href="#AppleSDGothicNeo-Regular-11" transform="translate(52.796875 0)"/>
      </g>
     </g>
    </g>
    <g id="xtick_3">
     <g id="line2d_3">
      <g>
       <use xlink:href="#m7aa5099ed9" x="319.624516" y="323.344" style="stroke: #000000; stroke-width: 0.8"/>
      </g>
     </g>
     <g id="text_3">
      <!-- 40 -->
      <g transform="translate(313.699516 339.344) scale(0.1 -0.1)">
       <defs>
        <path id="AppleSDGothicNeo-Regular-15" d="M 2214 166 
L 2682 166 
L 2682 1171 
L 3398 1171 
L 3398 1587 
L 2682 1587 
L 2682 4621 
L 2285 4621 
L 186 1555 
L 186 1171 
L 2214 1171 
L 2214 166 
z
M 730 1587 
L 2214 3814 
L 2214 1587 
L 730 1587 
z
" transform="scale(0.015625)"/>
       </defs>
       <use xlink:href="#AppleSDGothicNeo-Regular-15"/>
       <use xlink:href="#AppleSDGothicNeo-Regular-11" transform="translate(55.5 0)"/>
      </g>
     </g>
    </g>
    <g id="xtick_4">
     <g id="line2d_4">
      <g>
       <use xlink:href="#m7aa5099ed9" x="436.656774" y="323.344" style="stroke: #000000; stroke-width: 0.8"/>
      </g>
     </g>
     <g id="text_4">
      <!-- 60 -->
      <g transform="translate(430.761462 339.344) scale(0.1 -0.1)">
       <defs>
        <path id="AppleSDGothicNeo-Regular-17" d="M 1837 192 
C 2707 192 3232 826 3232 1645 
C 3232 2464 2656 2957 1939 2957 
C 1459 2957 1107 2733 877 2496 
C 941 3834 1350 4205 2080 4205 
C 2355 4205 2733 4096 2886 4006 
L 3034 4378 
C 2854 4486 2458 4634 2029 4634 
C 1037 4634 365 3968 365 2451 
L 365 2118 
C 365 896 877 192 1837 192 
z
M 1830 614 
C 1146 614 877 1139 877 1939 
L 877 1984 
C 1056 2240 1427 2528 1837 2528 
C 2355 2528 2720 2266 2720 1594 
C 2720 979 2387 614 1830 614 
z
" transform="scale(0.015625)"/>
       </defs>
       <use xlink:href="#AppleSDGothicNeo-Regular-17"/>
       <use xlink:href="#AppleSDGothicNeo-Regular-11" transform="translate(54.90625 0)"/>
      </g>
     </g>
    </g>
    <g id="xtick_5">
     <g id="line2d_5">
      <g>
       <use xlink:href="#m7aa5099ed9" x="553.689032" y="323.344" style="stroke: #000000; stroke-width: 0.8"/>
      </g>
     </g>
     <g id="text_5">
      <!-- 80 -->
      <g transform="translate(547.664032 339.344) scale(0.1 -0.1)">
       <defs>
        <path id="AppleSDGothicNeo-Regular-19" d="M 1837 186 
C 2765 186 3341 723 3341 1408 
C 3341 2054 2829 2362 2298 2534 
C 2739 2765 3168 3066 3168 3584 
C 3168 4250 2624 4640 1818 4640 
C 992 4640 461 4179 461 3558 
C 461 3008 838 2682 1299 2502 
C 826 2317 339 1926 339 1363 
C 339 659 922 186 1837 186 
z
M 1830 608 
C 1261 608 851 909 851 1382 
C 851 1856 1280 2163 1702 2310 
C 2445 2074 2797 1882 2797 1357 
C 2797 915 2381 608 1830 608 
z
M 1920 2720 
C 1350 2867 1005 3130 1005 3571 
C 1005 3981 1331 4218 1824 4218 
C 2355 4218 2637 3942 2637 3565 
C 2637 3155 2323 2899 1920 2720 
z
" transform="scale(0.015625)"/>
       </defs>
       <use xlink:href="#AppleSDGothicNeo-Regular-19"/>
       <use xlink:href="#AppleSDGothicNeo-Regular-11" transform="translate(57.5 0)"/>
      </g>
     </g>
    </g>
    <g id="xtick_6">
     <g id="line2d_6">
      <g>
       <use xlink:href="#m7aa5099ed9" x="670.72129" y="323.344" style="stroke: #000000; stroke-width: 0.8"/>
      </g>
     </g>
     <g id="text_6">
      <!-- 100 -->
      <g transform="translate(662.636134 339.344) scale(0.1 -0.1)">
       <defs>
        <path id="AppleSDGothicNeo-Regular-12" d="M 1146 243 
L 1632 243 
L 1632 4634 
L 1363 4634 
L 352 4160 
L 352 3866 
L 1146 4051 
L 1146 243 
z
" transform="scale(0.015625)"/>
       </defs>
       <use xlink:href="#AppleSDGothicNeo-Regular-12"/>
       <use xlink:href="#AppleSDGothicNeo-Regular-11" transform="translate(35.703125 0)"/>
       <use xlink:href="#AppleSDGothicNeo-Regular-11" transform="translate(98.703125 0)"/>
      </g>
     </g>
    </g>
    <g id="xtick_7">
     <g id="line2d_7">
      <g>
       <use xlink:href="#m7aa5099ed9" x="787.753548" y="323.344" style="stroke: #000000; stroke-width: 0.8"/>
      </g>
     </g>
     <g id="text_7">
      <!-- 120 -->
      <g transform="translate(780.178548 339.344) scale(0.1 -0.1)">
       <use xlink:href="#AppleSDGothicNeo-Regular-12"/>
       <use xlink:href="#AppleSDGothicNeo-Regular-13" transform="translate(35.703125 0)"/>
       <use xlink:href="#AppleSDGothicNeo-Regular-11" transform="translate(88.5 0)"/>
      </g>
     </g>
    </g>
    <g id="text_8">
     <!-- time index -->
     <g transform="translate(426.270156 355.344) scale(0.1 -0.1)">
      <defs>
       <path id="AppleSDGothicNeo-Regular-55" d="M 1472 230 
C 1747 230 1882 301 2010 358 
L 2010 691 
C 1882 653 1734 634 1600 634 
C 1235 634 1133 755 1133 1062 
L 1133 3034 
L 1946 3034 
L 1946 3437 
L 1133 3437 
L 1133 4192 
L 646 4192 
L 646 3437 
L 192 3437 
L 192 3034 
L 646 3034 
L 646 986 
C 646 448 973 230 1472 230 
z
" transform="scale(0.015625)"/>
       <path id="AppleSDGothicNeo-Regular-4a" d="M 486 269 
L 973 269 
L 973 3437 
L 486 3437 
L 486 269 
z
M 480 4077 
L 979 4077 
L 979 4589 
L 480 4589 
L 480 4077 
z
" transform="scale(0.015625)"/>
       <path id="AppleSDGothicNeo-Regular-4e" d="M 467 269 
L 954 269 
L 954 2848 
C 1210 2970 1491 3078 1760 3078 
C 2182 3078 2336 2918 2336 2534 
L 2336 269 
L 2822 269 
L 2822 2637 
C 2822 2714 2816 2771 2803 2848 
C 3104 2982 3373 3078 3622 3078 
C 4051 3078 4205 2918 4205 2534 
L 4205 269 
L 4685 269 
L 4685 2637 
C 4685 3251 4365 3501 3814 3501 
C 3456 3501 3085 3373 2739 3149 
L 2714 3149 
C 2566 3386 2310 3501 1952 3501 
C 1594 3501 1254 3354 960 3168 
L 934 3168 
L 934 3443 
L 467 3443 
L 467 269 
z
" transform="scale(0.015625)"/>
       <path id="AppleSDGothicNeo-Regular-46" d="M 1773 211 
C 2285 211 2650 371 2842 506 
L 2842 870 
C 2554 736 2272 634 1850 634 
C 1171 634 794 941 768 1734 
L 2931 1734 
L 2931 2010 
C 2931 2995 2522 3501 1651 3501 
C 922 3501 269 3008 269 1901 
L 269 1811 
C 269 819 774 211 1773 211 
z
M 1638 3104 
C 2157 3104 2419 2816 2419 2125 
L 768 2125 
C 819 2874 1242 3104 1638 3104 
z
" transform="scale(0.015625)"/>
       <path id="AppleSDGothicNeo-Regular-1" transform="scale(0.015625)"/>
       <path id="AppleSDGothicNeo-Regular-4f" d="M 467 269 
L 954 269 
L 954 2848 
C 1216 2970 1549 3078 1850 3078 
C 2355 3078 2490 2918 2490 2534 
L 2490 269 
L 2976 269 
L 2976 2637 
C 2976 3251 2675 3501 2054 3501 
C 1664 3501 1254 3360 960 3168 
L 934 3168 
L 934 3443 
L 467 3443 
L 467 269 
z
" transform="scale(0.015625)"/>
       <path id="AppleSDGothicNeo-Regular-45" d="M 1600 211 
C 2029 211 2336 346 2528 531 
L 2554 531 
L 2611 269 
L 3021 269 
L 3021 4851 
L 2528 4851 
L 2528 3290 
C 2355 3392 2086 3501 1696 3501 
C 877 3501 282 3002 282 1850 
L 282 1766 
C 282 595 966 211 1600 211 
z
M 1747 614 
C 1178 614 794 896 794 1786 
L 794 1914 
C 794 2771 1158 3085 1760 3085 
C 2086 3085 2381 2995 2528 2880 
L 2528 883 
C 2368 755 2118 614 1747 614 
z
" transform="scale(0.015625)"/>
       <path id="AppleSDGothicNeo-Regular-59" d="M 147 269 
L 685 269 
L 1510 1536 
L 2317 269 
L 2899 269 
L 1837 1882 
L 2822 3443 
L 2291 3443 
L 1568 2234 
L 774 3443 
L 198 3443 
L 1229 1882 
L 147 269 
z
" transform="scale(0.015625)"/>
      </defs>
      <use xlink:href="#AppleSDGothicNeo-Regular-55"/>
      <use xlink:href="#AppleSDGothicNeo-Regular-4a" transform="translate(35 0)"/>
      <use xlink:href="#AppleSDGothicNeo-Regular-4e" transform="translate(57.703125 0)"/>
      <use xlink:href="#AppleSDGothicNeo-Regular-46" transform="translate(138 0)"/>
      <use xlink:href="#AppleSDGothicNeo-Regular-1" transform="translate(188 0)"/>
      <use xlink:href="#AppleSDGothicNeo-Regular-4a" transform="translate(214.296875 0)"/>
      <use xlink:href="#AppleSDGothicNeo-Regular-4f" transform="translate(237 0)"/>
      <use xlink:href="#AppleSDGothicNeo-Regular-45" transform="translate(290.59375 0)"/>
      <use xlink:href="#AppleSDGothicNeo-Regular-46" transform="translate(345.09375 0)"/>
      <use xlink:href="#AppleSDGothicNeo-Regular-59" transform="translate(394.09375 0)"/>
     </g>
    </g>
   </g>
   <g id="matplotlib.axis_2">
    <g id="ytick_1">
     <g id="line2d_8">
      <defs>
       <path id="m2f4c5a13e7" d="M 0 0 
L -3.5 0 
" style="stroke: #000000; stroke-width: 0.8"/>
      </defs>
      <g>
       <use xlink:href="#m2f4c5a13e7" x="49.28" y="307.846466" style="stroke: #000000; stroke-width: 0.8"/>
      </g>
     </g>
     <g id="text_9">
      <!-- -30 -->
      <g transform="translate(26.659688 312.346466) scale(0.1 -0.1)">
       <defs>
        <path id="AppleSDGothicNeo-Regular-e" d="M 333 2138 
L 2445 2138 
L 2445 2560 
L 333 2560 
L 333 2138 
z
" transform="scale(0.015625)"/>
        <path id="AppleSDGothicNeo-Regular-14" d="M 1491 205 
C 2445 205 3053 730 3053 1478 
C 3053 2144 2630 2458 2074 2566 
C 2560 2726 2893 3040 2893 3571 
C 2893 4243 2368 4634 1600 4634 
C 1229 4634 723 4474 467 4301 
L 544 3891 
C 813 4045 1146 4198 1498 4198 
C 2022 4198 2362 4013 2362 3488 
C 2362 3008 1984 2726 1427 2726 
L 1043 2726 
L 1043 2291 
L 1459 2291 
C 2112 2291 2534 2029 2534 1478 
C 2534 947 2138 634 1427 634 
C 1107 634 678 755 435 915 
L 326 512 
C 563 346 992 205 1491 205 
z
" transform="scale(0.015625)"/>
       </defs>
       <use xlink:href="#AppleSDGothicNeo-Regular-e"/>
       <use xlink:href="#AppleSDGothicNeo-Regular-14" transform="translate(39.609375 0)"/>
       <use xlink:href="#AppleSDGothicNeo-Regular-11" transform="translate(93.203125 0)"/>
      </g>
     </g>
    </g>
    <g id="ytick_2">
     <g id="line2d_9">
      <g>
       <use xlink:href="#m2f4c5a13e7" x="49.28" y="269.080001" style="stroke: #000000; stroke-width: 0.8"/>
      </g>
     </g>
     <g id="text_10">
      <!-- -20 -->
      <g transform="translate(26.689375 273.580001) scale(0.1 -0.1)">
       <use xlink:href="#AppleSDGothicNeo-Regular-e"/>
       <use xlink:href="#AppleSDGothicNeo-Regular-13" transform="translate(40.109375 0)"/>
       <use xlink:href="#AppleSDGothicNeo-Regular-11" transform="translate(92.90625 0)"/>
      </g>
     </g>
    </g>
    <g id="ytick_3">
     <g id="line2d_10">
      <g>
       <use xlink:href="#m2f4c5a13e7" x="49.28" y="230.313535" style="stroke: #000000; stroke-width: 0.8"/>
      </g>
     </g>
     <g id="text_11">
      <!-- -10 -->
      <g transform="translate(28.669063 234.813535) scale(0.1 -0.1)">
       <use xlink:href="#AppleSDGothicNeo-Regular-e"/>
       <use xlink:href="#AppleSDGothicNeo-Regular-12" transform="translate(37.40625 0)"/>
       <use xlink:href="#AppleSDGothicNeo-Regular-11" transform="translate(73.109375 0)"/>
      </g>
     </g>
    </g>
    <g id="ytick_4">
     <g id="line2d_11">
      <g>
       <use xlink:href="#m2f4c5a13e7" x="49.28" y="191.54707" style="stroke: #000000; stroke-width: 0.8"/>
      </g>
     </g>
     <g id="text_12">
      <!-- 0 -->
      <g transform="translate(35.98 196.04707) scale(0.1 -0.1)">
       <use xlink:href="#AppleSDGothicNeo-Regular-11"/>
      </g>
     </g>
    </g>
    <g id="ytick_5">
     <g id="line2d_12">
      <g>
       <use xlink:href="#m2f4c5a13e7" x="49.28" y="152.780605" style="stroke: #000000; stroke-width: 0.8"/>
      </g>
     </g>
     <g id="text_13">
      <!-- 10 -->
      <g transform="translate(32.409688 157.280605) scale(0.1 -0.1)">
       <use xlink:href="#AppleSDGothicNeo-Regular-12"/>
       <use xlink:href="#AppleSDGothicNeo-Regular-11" transform="translate(35.703125 0)"/>
      </g>
     </g>
    </g>
    <g id="ytick_6">
     <g id="line2d_13">
      <g>
       <use xlink:href="#m2f4c5a13e7" x="49.28" y="114.01414" style="stroke: #000000; stroke-width: 0.8"/>
      </g>
     </g>
     <g id="text_14">
      <!-- 20 -->
      <g transform="translate(30.700313 118.51414) scale(0.1 -0.1)">
       <use xlink:href="#AppleSDGothicNeo-Regular-13"/>
       <use xlink:href="#AppleSDGothicNeo-Regular-11" transform="translate(52.796875 0)"/>
      </g>
     </g>
    </g>
    <g id="ytick_7">
     <g id="line2d_14">
      <g>
       <use xlink:href="#m2f4c5a13e7" x="49.28" y="75.247675" style="stroke: #000000; stroke-width: 0.8"/>
      </g>
     </g>
     <g id="text_15">
      <!-- 30 -->
      <g transform="translate(30.620625 79.747675) scale(0.1 -0.1)">
       <use xlink:href="#AppleSDGothicNeo-Regular-14"/>
       <use xlink:href="#AppleSDGothicNeo-Regular-11" transform="translate(53.59375 0)"/>
      </g>
     </g>
    </g>
    <g id="ytick_8">
     <g id="line2d_15">
      <g>
       <use xlink:href="#m2f4c5a13e7" x="49.28" y="36.48121" style="stroke: #000000; stroke-width: 0.8"/>
      </g>
     </g>
     <g id="text_16">
      <!-- 40 -->
      <g transform="translate(30.43 40.98121) scale(0.1 -0.1)">
       <use xlink:href="#AppleSDGothicNeo-Regular-15"/>
       <use xlink:href="#AppleSDGothicNeo-Regular-11" transform="translate(55.5 0)"/>
      </g>
     </g>
    </g>
    <g id="text_17">
     <!-- value -->
     <g transform="translate(19.659688 186.502469) rotate(-90) scale(0.1 -0.1)">
      <defs>
       <path id="AppleSDGothicNeo-Regular-57" d="M 1331 269 
L 1818 269 
L 2995 3443 
L 2515 3443 
L 1600 890 
L 1574 890 
L 685 3443 
L 154 3443 
L 1331 269 
z
" transform="scale(0.015625)"/>
       <path id="AppleSDGothicNeo-Regular-42" d="M 1242 211 
C 1670 211 1939 365 2086 544 
L 2118 544 
L 2170 269 
L 2566 269 
L 2566 2566 
C 2566 3213 2176 3501 1478 3501 
C 1114 3501 806 3443 531 3328 
L 531 2976 
C 730 3034 979 3078 1286 3078 
C 1856 3078 2074 2950 2074 2458 
L 2074 2125 
L 1216 2022 
C 608 1952 250 1658 250 1101 
C 250 506 666 211 1242 211 
z
M 1363 595 
C 998 595 762 768 762 1114 
C 762 1478 954 1638 1344 1677 
L 2074 1760 
L 2074 826 
C 1939 691 1658 595 1363 595 
z
" transform="scale(0.015625)"/>
       <path id="AppleSDGothicNeo-Regular-4d" d="M 480 269 
L 973 269 
L 973 4851 
L 480 4851 
L 480 269 
z
" transform="scale(0.015625)"/>
       <path id="AppleSDGothicNeo-Regular-56" d="M 1421 211 
C 1805 211 2144 358 2432 557 
L 2458 557 
L 2502 269 
L 2925 269 
L 2925 3443 
L 2438 3443 
L 2438 883 
C 2176 755 1894 634 1555 634 
C 1088 634 941 800 941 1210 
L 941 3443 
L 448 3443 
L 448 1139 
C 448 525 800 211 1421 211 
z
" transform="scale(0.015625)"/>
      </defs>
      <use xlink:href="#AppleSDGothicNeo-Regular-57"/>
      <use xlink:href="#AppleSDGothicNeo-Regular-42" transform="translate(47.703125 0)"/>
      <use xlink:href="#AppleSDGothicNeo-Regular-4d" transform="translate(94.90625 0)"/>
      <use xlink:href="#AppleSDGothicNeo-Regular-56" transform="translate(117.609375 0)"/>
      <use xlink:href="#AppleSDGothicNeo-Regular-46" transform="translate(170.609375 0)"/>
     </g>
    </g>
   </g>
   <g id="line2d_16">
    <path d="M 85.56 182.378801 
L 91.411613 173.981485 
L 97.263226 137.170535 
L 103.114839 115.015817 
L 108.966452 133.106624 
L 114.818065 161.881658 
L 120.669677 182.540432 
L 126.52129 204.555408 
L 132.372903 206.851695 
L 138.224516 204.829899 
L 144.076129 203.116359 
L 149.927742 206.27989 
L 155.779355 204.467558 
L 161.630968 204.783005 
L 167.482581 206.571889 
L 173.334194 206.448243 
L 179.185806 207.325022 
L 185.037419 205.426403 
L 190.889032 207.623273 
L 196.740645 208.553199 
L 202.592258 210.950311 
L 208.443871 212.823607 
L 214.295484 214.490252 
L 220.147097 216.750743 
L 225.99871 216.650232 
L 231.850323 217.31317 
L 237.701935 218.535095 
L 243.553548 220.726496 
L 249.405161 222.474581 
L 255.256774 224.29848 
L 261.108387 224.820577 
L 266.96 226.306052 
L 272.811613 228.754123 
L 278.663226 230.2446 
L 284.514839 230.674939 
L 290.366452 232.973572 
L 296.218065 233.840033 
L 302.069677 233.200543 
L 307.92129 234.457483 
L 313.772903 234.286785 
L 319.624516 236.091616 
L 325.476129 237.419366 
L 331.327742 236.435198 
L 337.179355 235.726772 
L 343.030968 235.071807 
L 348.882581 233.980093 
L 354.734194 231.449018 
L 360.585806 228.25563 
L 366.437419 225.763478 
L 372.289032 222.971355 
L 378.140645 217.761329 
L 383.992258 212.79547 
L 389.843871 210.387572 
L 395.695484 206.193604 
L 401.547097 205.403893 
L 407.39871 200.106956 
L 413.250323 195.217379 
L 419.101935 193.458664 
L 424.953548 188.624267 
L 430.805161 182.95342 
L 436.656774 179.289989 
L 442.508387 176.317477 
L 448.36 175.488062 
L 454.211613 174.232842 
L 460.063226 172.300771 
L 465.914839 176.333734 
L 471.766452 181.597532 
L 477.618065 187.864413 
L 483.469677 186.139774 
L 489.32129 186.860549 
L 495.172903 186.639673 
L 501.024516 185.812447 
L 506.876129 185.147477 
L 512.727742 185.061659 
L 518.579355 184.045759 
L 524.430968 185.353346 
L 530.282581 186.688757 
L 536.134194 187.014833 
L 541.985806 187.30777 
L 547.837419 187.114563 
L 553.689032 190.112086 
L 559.540645 191.183791 
L 565.392258 191.884088 
L 571.243871 192.508572 
L 577.095484 192.319899 
L 582.947097 192.910149 
L 588.79871 193.726746 
L 594.650323 195.982392 
L 600.501935 198.186765 
L 606.353548 201.079088 
L 612.205161 202.404807 
L 618.056774 206.347419 
L 623.908387 205.830637 
L 629.76 209.399028 
L 635.611613 214.337375 
L 641.463226 217.152321 
L 647.314839 218.43599 
L 653.166452 223.128141 
L 659.018065 224.487936 
L 664.869677 227.64115 
L 670.72129 230.478606 
L 676.572903 231.869508 
L 682.424516 234.939875 
L 688.276129 237.574276 
L 694.127742 238.485757 
L 699.979355 240.604782 
L 705.830968 241.83968 
L 711.682581 240.307155 
L 717.534194 236.862567 
L 723.385806 235.469164 
L 729.237419 235.244693 
L 735.089032 232.474765 
L 740.940645 233.171624 
L 746.792258 231.460273 
L 752.643871 230.953182 
L 758.495484 231.756649 
L 764.347097 230.485483 
L 770.19871 229.995901 
L 776.050323 229.138662 
L 781.901935 230.141588 
L 787.753548 231.431511 
L 793.605161 229.875225 
L 799.456774 217.120431 
L 805.308387 192.103869 
L 811.16 166.639617 
" clip-path="url(#p7bc30b1c52)" style="fill: none; stroke: #2378a8; stroke-width: 1.2; stroke-linecap: square"/>
   </g>
   <g id="line2d_17">
    <path d="M 85.56 64.548137 
L 91.411613 79.163089 
L 97.263226 230.933798 
L 103.114839 309.901091 
L 108.966452 212.287129 
L 114.818065 147.04317 
L 120.669677 157.43258 
L 126.52129 194.144424 
L 132.372903 191.314472 
L 138.224516 222.017512 
L 144.076129 245.393692 
L 149.927742 243.184001 
L 155.779355 222.133811 
L 161.630968 202.246615 
L 167.482581 195.966447 
L 173.334194 198.718866 
L 179.185806 197.594639 
L 185.037419 196.315346 
L 190.889032 195.462483 
L 196.740645 197.904771 
L 202.592258 198.253669 
L 208.443871 196.858076 
L 214.295484 198.292435 
L 220.147097 200.889789 
L 225.99871 205.502997 
L 231.850323 207.906518 
L 237.701935 207.325022 
L 243.553548 208.100351 
L 249.405161 210.542639 
L 255.256774 214.070386 
L 261.108387 215.853644 
L 266.96 216.00871 
L 272.811613 215.737344 
L 278.663226 215.698578 
L 284.514839 216.473907 
L 290.366452 216.202543 
L 296.218065 217.791967 
L 302.069677 219.924123 
L 307.92129 221.358482 
L 313.772903 223.102974 
L 319.624516 225.42896 
L 325.476129 227.250985 
L 331.327742 230.003404 
L 337.179355 231.282697 
L 343.030968 233.337319 
L 348.882581 237.058899 
L 354.734194 241.090612 
L 360.585806 242.176075 
L 366.437419 245.006026 
L 372.289032 247.176949 
L 378.140645 247.525844 
L 383.992258 246.866818 
L 389.843871 245.393692 
L 395.695484 247.293248 
L 401.547097 246.324086 
L 407.39871 245.27739 
L 413.250323 242.757571 
L 419.101935 237.795464 
L 424.953548 236.63247 
L 430.805161 232.096793 
L 436.656774 227.250985 
L 442.508387 221.087116 
L 448.36 212.364662 
L 454.211613 202.130315 
L 460.063226 191.66337 
L 465.914839 178.754137 
L 471.766452 170.031681 
L 477.618065 162.937419 
L 483.469677 162.239623 
L 489.32129 165.922436 
L 495.172903 171.504808 
L 501.024516 173.79203 
L 506.876129 170.729479 
L 512.727742 165.302174 
L 518.579355 157.510115 
L 524.430968 172.435204 
L 530.282581 178.754137 
L 536.134194 181.894221 
L 541.985806 184.181442 
L 547.837419 186.236065 
L 553.689032 188.019322 
L 559.540645 189.066017 
L 565.392258 188.988484 
L 571.243871 190.771741 
L 577.095484 191.353238 
L 582.947097 193.52416 
L 588.79871 197.710938 
L 594.650323 202.983178 
L 600.501935 204.301237 
L 606.353548 201.97525 
L 612.205161 197.788471 
L 618.056774 193.136495 
L 623.908387 190.500376 
L 629.76 188.988484 
L 635.611613 189.531214 
L 641.463226 190.267777 
L 647.314839 192.399933 
L 653.166452 195.191118 
L 659.018065 196.04398 
L 664.869677 194.493322 
L 670.72129 191.66337 
L 676.572903 185.964699 
L 682.424516 178.521538 
L 688.276129 171.853706 
L 694.127742 177.087179 
L 699.979355 186.39113 
L 705.830968 182.243118 
L 711.682581 193.873058 
L 717.534194 200.618423 
L 723.385806 194.72592 
L 729.237419 186.352364 
L 735.089032 191.353238 
L 740.940645 192.283633 
L 746.792258 190.461609 
L 752.643871 189.259849 
L 758.495484 188.639585 
L 764.347097 188.833418 
L 770.19871 189.569981 
L 776.050323 189.957645 
L 781.901935 188.36822 
L 787.753548 189.066017 
L 793.605161 189.02725 
L 799.456774 188.406987 
L 805.308387 188.174388 
L 811.16 188.019322 
" clip-path="url(#p7bc30b1c52)" style="fill: none; stroke: #e45756; stroke-width: 1.1; stroke-linecap: square"/>
   </g>
   <g id="patch_3">
    <path d="M 49.28 323.344 
L 49.28 27.6 
" style="fill: none; stroke: #000000; stroke-width: 0.8; stroke-linejoin: miter; stroke-linecap: square"/>
   </g>
   <g id="patch_4">
    <path d="M 847.44 323.344 
L 847.44 27.6 
" style="fill: none; stroke: #000000; stroke-width: 0.8; stroke-linejoin: miter; stroke-linecap: square"/>
   </g>
   <g id="patch_5">
    <path d="M 49.28 323.344 
L 847.44 323.344 
" style="fill: none; stroke: #000000; stroke-width: 0.8; stroke-linejoin: miter; stroke-linecap: square"/>
   </g>
   <g id="patch_6">
    <path d="M 49.28 27.6 
L 847.44 27.6 
" style="fill: none; stroke: #000000; stroke-width: 0.8; stroke-linejoin: miter; stroke-linecap: square"/>
   </g>
   <g id="text_18">
    <!-- primary score=0.484897, threshold=0.315994 -->
    <g transform="translate(57.2616 317.98656) scale(0.08 -0.08)">
     <defs>
      <path id="AppleSDGothicNeo-Regular-51" d="M 467 -678 
L 960 -678 
L 960 422 
C 1139 320 1408 211 1773 211 
C 2650 211 3206 698 3206 1856 
L 3206 1939 
C 3206 3117 2605 3501 1907 3501 
C 1498 3501 1165 3360 966 3181 
L 941 3181 
L 941 3437 
L 467 3437 
L 467 -678 
z
M 1728 614 
C 1395 614 1107 717 960 838 
L 960 2854 
C 1107 2957 1408 3085 1779 3085 
C 2362 3085 2694 2810 2694 1914 
L 2694 1786 
C 2694 934 2330 614 1728 614 
z
" transform="scale(0.015625)"/>
      <path id="AppleSDGothicNeo-Regular-53" d="M 467 269 
L 960 269 
L 960 2765 
C 1184 2925 1491 3040 1811 3040 
C 1862 3040 1958 3034 2042 3021 
L 2042 3462 
C 2010 3469 1920 3475 1850 3475 
C 1491 3475 1146 3290 966 3085 
L 934 3085 
L 934 3443 
L 467 3443 
L 467 269 
z
" transform="scale(0.015625)"/>
      <path id="AppleSDGothicNeo-Regular-5a" d="M 710 -685 
C 1235 -685 1498 -493 1709 70 
L 2957 3443 
L 2464 3443 
L 1606 1030 
L 1594 1030 
L 659 3443 
L 134 3443 
L 1350 384 
L 1254 122 
C 1120 -224 928 -275 621 -275 
C 506 -275 390 -243 314 -230 
L 314 -595 
C 403 -640 563 -685 710 -685 
z
" transform="scale(0.015625)"/>
      <path id="AppleSDGothicNeo-Regular-54" d="M 1274 218 
C 1971 218 2394 550 2394 1152 
C 2394 1702 2144 1907 1536 2067 
L 1216 2157 
C 877 2253 742 2368 742 2643 
C 742 2938 954 3085 1382 3085 
C 1734 3085 2054 3002 2221 2918 
L 2221 3315 
C 2054 3405 1779 3501 1357 3501 
C 627 3501 275 3136 275 2598 
C 275 2061 589 1850 1050 1722 
L 1363 1638 
C 1766 1523 1914 1395 1914 1101 
C 1914 813 1709 634 1203 634 
C 755 634 525 730 250 832 
L 250 442 
C 512 294 858 218 1274 218 
z
" transform="scale(0.015625)"/>
      <path id="AppleSDGothicNeo-Regular-44" d="M 1734 211 
C 2176 211 2458 339 2662 461 
L 2662 858 
C 2502 768 2221 634 1792 634 
C 1114 634 774 998 774 1811 
L 774 1965 
C 774 2694 1152 3085 1728 3085 
C 2144 3085 2349 3008 2630 2880 
L 2630 3290 
C 2419 3424 2170 3501 1754 3501 
C 934 3501 269 3014 269 1888 
L 269 1792 
C 269 749 826 211 1734 211 
z
" transform="scale(0.015625)"/>
      <path id="AppleSDGothicNeo-Regular-50" d="M 1702 211 
C 2560 211 3149 813 3149 1824 
L 3149 1914 
C 3149 2918 2605 3501 1709 3501 
C 851 3501 269 2899 269 1894 
L 269 1798 
C 269 787 806 211 1702 211 
z
M 1715 614 
C 1184 614 768 902 768 1786 
L 768 1946 
C 768 2688 1126 3098 1702 3098 
C 2221 3098 2650 2810 2650 1926 
L 2650 1766 
C 2650 1018 2291 614 1715 614 
z
" transform="scale(0.015625)"/>
      <path id="AppleSDGothicNeo-Regular-1e" d="M 422 2816 
L 2970 2816 
L 2970 3226 
L 422 3226 
L 422 2816 
z
M 422 1542 
L 2970 1542 
L 2970 1952 
L 422 1952 
L 422 1542 
z
" transform="scale(0.015625)"/>
      <path id="AppleSDGothicNeo-Regular-f" d="M 269 109 
L 826 109 
L 826 678 
L 269 678 
L 269 109 
z
" transform="scale(0.015625)"/>
      <path id="AppleSDGothicNeo-Regular-1a" d="M 1696 4634 
C 826 4634 307 3949 307 3142 
C 307 2323 896 1798 1619 1798 
C 2093 1798 2445 2010 2675 2272 
C 2630 1069 2227 621 1523 621 
C 1178 621 832 723 646 832 
L 506 461 
C 704 326 1107 192 1549 192 
C 2586 192 3187 979 3187 2477 
L 3187 2758 
C 3187 3974 2656 4634 1696 4634 
z
M 1702 4211 
C 2387 4211 2675 3686 2675 2886 
L 2675 2765 
C 2496 2515 2131 2227 1722 2227 
C 1203 2227 813 2515 813 3187 
C 813 3782 1146 4211 1702 4211 
z
" transform="scale(0.015625)"/>
      <path id="AppleSDGothicNeo-Regular-18" d="M 710 243 
L 1274 243 
L 2957 4218 
L 2957 4544 
L 218 4544 
L 218 4115 
L 2400 4115 
L 710 243 
z
" transform="scale(0.015625)"/>
      <path id="AppleSDGothicNeo-Regular-d" d="M 122 -563 
L 467 -563 
L 941 685 
L 358 685 
L 122 -563 
z
" transform="scale(0.015625)"/>
      <path id="AppleSDGothicNeo-Regular-49" d="M 467 269 
L 954 269 
L 954 2842 
C 1216 2970 1549 3078 1850 3078 
C 2355 3078 2490 2918 2490 2534 
L 2490 269 
L 2976 269 
L 2976 2630 
C 2976 3245 2675 3501 2054 3501 
C 1664 3501 1261 3366 986 3168 
L 954 3168 
L 954 4851 
L 467 4851 
L 467 269 
z
" transform="scale(0.015625)"/>
      <path id="AppleSDGothicNeo-Regular-16" d="M 1395 192 
C 2342 192 2906 838 2906 1606 
C 2906 2509 2374 2918 1510 2918 
C 1331 2918 1069 2874 896 2829 
L 986 4134 
L 2752 4134 
L 2752 4570 
L 576 4570 
L 422 2317 
C 621 2406 1024 2528 1318 2528 
C 1990 2528 2374 2266 2374 1613 
C 2374 1005 1978 621 1299 621 
C 947 621 525 768 288 928 
L 192 518 
C 448 333 896 192 1395 192 
z
" transform="scale(0.015625)"/>
     </defs>
     <use xlink:href="#AppleSDGothicNeo-Regular-51"/>
     <use xlink:href="#AppleSDGothicNeo-Regular-53" transform="translate(54.5 0)"/>
     <use xlink:href="#AppleSDGothicNeo-Regular-4a" transform="translate(89.09375 0)"/>
     <use xlink:href="#AppleSDGothicNeo-Regular-4e" transform="translate(111.796875 0)"/>
     <use xlink:href="#AppleSDGothicNeo-Regular-42" transform="translate(192.09375 0)"/>
     <use xlink:href="#AppleSDGothicNeo-Regular-53" transform="translate(239.296875 0)"/>
     <use xlink:href="#AppleSDGothicNeo-Regular-5a" transform="translate(273.890625 0)"/>
     <use xlink:href="#AppleSDGothicNeo-Regular-1" transform="translate(322.09375 0)"/>
     <use xlink:href="#AppleSDGothicNeo-Regular-54" transform="translate(348.390625 0)"/>
     <use xlink:href="#AppleSDGothicNeo-Regular-44" transform="translate(389.890625 0)"/>
     <use xlink:href="#AppleSDGothicNeo-Regular-50" transform="translate(434.890625 0)"/>
     <use xlink:href="#AppleSDGothicNeo-Regular-53" transform="translate(488.296875 0)"/>
     <use xlink:href="#AppleSDGothicNeo-Regular-46" transform="translate(522.890625 0)"/>
     <use xlink:href="#AppleSDGothicNeo-Regular-1e" transform="translate(572.890625 0)"/>
     <use xlink:href="#AppleSDGothicNeo-Regular-11" transform="translate(625.1875 0)"/>
     <use xlink:href="#AppleSDGothicNeo-Regular-f" transform="translate(688.1875 0)"/>
     <use xlink:href="#AppleSDGothicNeo-Regular-15" transform="translate(710.78125 0)"/>
     <use xlink:href="#AppleSDGothicNeo-Regular-19" transform="translate(766.28125 0)"/>
     <use xlink:href="#AppleSDGothicNeo-Regular-15" transform="translate(823.78125 0)"/>
     <use xlink:href="#AppleSDGothicNeo-Regular-19" transform="translate(879.28125 0)"/>
     <use xlink:href="#AppleSDGothicNeo-Regular-1a" transform="translate(935.78125 0)"/>
     <use xlink:href="#AppleSDGothicNeo-Regular-18" transform="translate(988.984375 0)"/>
     <use xlink:href="#AppleSDGothicNeo-Regular-d" transform="translate(1027.984375 0)"/>
     <use xlink:href="#AppleSDGothicNeo-Regular-1" transform="translate(1050.578125 0)"/>
     <use xlink:href="#AppleSDGothicNeo-Regular-55" transform="translate(1076.875 0)"/>
     <use xlink:href="#AppleSDGothicNeo-Regular-49" transform="translate(1111.875 0)"/>
     <use xlink:href="#AppleSDGothicNeo-Regular-53" transform="translate(1165.46875 0)"/>
     <use xlink:href="#AppleSDGothicNeo-Regular-46" transform="translate(1200.0625 0)"/>
     <use xlink:href="#AppleSDGothicNeo-Regular-54" transform="translate(1250.0625 0)"/>
     <use xlink:href="#AppleSDGothicNeo-Regular-49" transform="translate(1291.5625 0)"/>
     <use xlink:href="#AppleSDGothicNeo-Regular-50" transform="translate(1345.15625 0)"/>
     <use xlink:href="#AppleSDGothicNeo-Regular-4d" transform="translate(1398.5625 0)"/>
     <use xlink:href="#AppleSDGothicNeo-Regular-45" transform="translate(1421.265625 0)"/>
     <use xlink:href="#AppleSDGothicNeo-Regular-1e" transform="translate(1475.765625 0)"/>
     <use xlink:href="#AppleSDGothicNeo-Regular-11" transform="translate(1528.0625 0)"/>
     <use xlink:href="#AppleSDGothicNeo-Regular-f" transform="translate(1591.0625 0)"/>
     <use xlink:href="#AppleSDGothicNeo-Regular-14" transform="translate(1613.65625 0)"/>
     <use xlink:href="#AppleSDGothicNeo-Regular-12" transform="translate(1667.25 0)"/>
     <use xlink:href="#AppleSDGothicNeo-Regular-16" transform="translate(1702.953125 0)"/>
     <use xlink:href="#AppleSDGothicNeo-Regular-1a" transform="translate(1751.265625 0)"/>
     <use xlink:href="#AppleSDGothicNeo-Regular-1a" transform="translate(1805.765625 0)"/>
     <use xlink:href="#AppleSDGothicNeo-Regular-15" transform="translate(1861.171875 0)"/>
    </g>
   </g>
   <g id="text_19">
    <!-- 13_우선_검토_TP_1 | GesturePebbleZ1_normal_2 | TEST index 49 | 우선 검토 -->
    <g transform="translate(265.391875 21.6) scale(0.12 -0.12)">
     <defs>
      <path id="AppleSDGothicNeo-Regular-40" d="M 51 -365 
L 2099 -365 
L 2099 -38 
L 51 -38 
L 51 -365 
z
" transform="scale(0.015625)"/>
      <path id="AppleSDGothicNeo-Regular-a0b" d="M 4768 3661 
C 4768 4403 4019 4909 2765 4909 
C 1517 4909 762 4403 762 3661 
C 762 2912 1517 2406 2765 2406 
C 4019 2406 4768 2918 4768 3661 
z
M 2765 4486 
C 3718 4486 4294 4173 4294 3661 
C 4294 3142 3718 2829 2765 2829 
C 1824 2829 1248 3142 1248 3661 
C 1248 4173 1824 4486 2765 4486 
z
M 3008 -454 
L 3008 1491 
L 5318 1491 
L 5318 1901 
L 262 1901 
L 262 1491 
L 2522 1491 
L 2522 -454 
L 3008 -454 
z
" transform="scale(0.015625)"/>
      <path id="AppleSDGothicNeo-Regular-8b6" d="M 4813 1082 
L 4813 5146 
L 4326 5146 
L 4326 3731 
L 3136 3731 
L 3136 3322 
L 4326 3322 
L 4326 1082 
L 4813 1082 
z
M 4934 -275 
L 4934 128 
L 1702 128 
L 1702 1434 
L 1216 1434 
L 1216 -275 
L 4934 -275 
z
M 3514 2298 
C 2854 2541 2106 3213 2106 4147 
L 2106 4826 
L 1613 4826 
L 1613 4128 
C 1613 3226 934 2464 192 2138 
L 493 1760 
C 1101 2067 1702 2675 1869 3277 
C 2106 2688 2675 2163 3238 1914 
L 3514 2298 
z
" transform="scale(0.015625)"/>
      <path id="AppleSDGothicNeo-Regular-468" d="M 4326 3277 
L 4326 1907 
L 4813 1907 
L 4813 5146 
L 4326 5146 
L 4326 3686 
L 3098 3686 
L 3098 3277 
L 4326 3277 
z
M 4813 -371 
L 4813 1613 
L 1210 1613 
L 1210 -371 
L 4813 -371 
z
M 4326 32 
L 1696 32 
L 1696 1210 
L 4326 1210 
L 4326 32 
z
M 563 4762 
L 563 4346 
L 2541 4346 
C 2387 3379 1414 2547 288 2285 
L 544 1875 
C 1984 2336 2989 3270 3078 4762 
L 563 4762 
z
" transform="scale(0.015625)"/>
      <path id="AppleSDGothicNeo-Regular-c37" d="M 4506 3027 
L 4506 3437 
L 1325 3437 
L 1325 4262 
L 4672 4262 
L 4672 4672 
L 838 4672 
L 838 1766 
L 2515 1766 
L 2515 672 
L 243 672 
L 243 262 
L 5293 262 
L 5293 672 
L 3002 672 
L 3002 1766 
L 4736 1766 
L 4736 2170 
L 1325 2170 
L 1325 3027 
L 4506 3027 
z
" transform="scale(0.015625)"/>
      <path id="AppleSDGothicNeo-Regular-35" d="M 1491 269 
L 1990 269 
L 1990 4134 
L 3302 4134 
L 3302 4563 
L 179 4563 
L 179 4134 
L 1491 4134 
L 1491 269 
z
" transform="scale(0.015625)"/>
      <path id="AppleSDGothicNeo-Regular-31" d="M 550 269 
L 1062 269 
L 1062 1990 
L 1939 1990 
C 2758 1990 3309 2451 3309 3296 
C 3309 4102 2842 4563 1875 4563 
L 550 4563 
L 550 269 
z
M 1062 2413 
L 1062 4134 
L 1824 4134 
C 2522 4134 2765 3872 2765 3264 
C 2765 2688 2502 2413 1837 2413 
L 1062 2413 
z
" transform="scale(0.015625)"/>
      <path id="AppleSDGothicNeo-Regular-5d" d="M 691 -384 
L 1114 -384 
L 1114 4941 
L 691 4941 
L 691 -384 
z
" transform="scale(0.015625)"/>
      <path id="AppleSDGothicNeo-Regular-28" d="M 2298 198 
C 2842 198 3283 314 3616 435 
L 3616 2349 
L 2195 2349 
L 2195 1926 
L 3117 1926 
L 3117 755 
C 2912 678 2611 627 2310 627 
C 1158 627 851 1344 851 2342 
L 851 2515 
C 851 3424 1229 4205 2298 4205 
C 2867 4205 3194 4064 3456 3942 
L 3456 4384 
C 3200 4512 2867 4634 2336 4634 
C 1254 4634 307 4058 307 2445 
L 307 2330 
C 307 858 1082 198 2298 198 
z
" transform="scale(0.015625)"/>
      <path id="AppleSDGothicNeo-Regular-43" d="M 1626 198 
C 2650 198 3206 800 3206 1862 
L 3206 1946 
C 3206 3136 2579 3501 1971 3501 
C 1536 3501 1235 3379 992 3232 
L 960 3232 
L 960 4851 
L 467 4851 
L 467 371 
C 749 262 1254 198 1626 198 
z
M 1651 608 
C 1331 608 1107 659 960 723 
L 960 2880 
C 1126 2957 1421 3085 1747 3085 
C 2387 3085 2694 2797 2694 1914 
L 2694 1786 
C 2694 877 2221 608 1651 608 
z
" transform="scale(0.015625)"/>
      <path id="AppleSDGothicNeo-Regular-3b" d="M 250 269 
L 3162 269 
L 3162 698 
L 851 698 
L 851 717 
L 3226 4186 
L 3226 4563 
L 416 4563 
L 416 4134 
L 2618 4134 
L 2618 4115 
L 250 653 
L 250 269 
z
" transform="scale(0.015625)"/>
      <path id="AppleSDGothicNeo-Regular-26" d="M 557 269 
L 3123 269 
L 3123 698 
L 1062 698 
L 1062 2266 
L 2637 2266 
L 2637 2694 
L 1062 2694 
L 1062 4134 
L 3104 4134 
L 3104 4563 
L 557 4563 
L 557 269 
z
" transform="scale(0.015625)"/>
      <path id="AppleSDGothicNeo-Regular-34" d="M 1472 192 
C 2477 192 2912 691 2912 1440 
C 2912 2163 2509 2432 1875 2650 
L 1453 2784 
C 966 2950 813 3130 813 3539 
C 813 3949 1107 4205 1632 4205 
C 2106 4205 2445 4083 2694 3968 
L 2694 4397 
C 2458 4512 2157 4634 1651 4634 
C 755 4634 314 4160 314 3494 
C 314 2842 653 2534 1254 2336 
L 1670 2189 
C 2189 2022 2400 1843 2400 1402 
C 2400 934 2112 627 1453 627 
C 998 627 576 742 250 909 
L 250 480 
C 538 320 947 192 1472 192 
z
" transform="scale(0.015625)"/>
     </defs>
     <use xlink:href="#AppleSDGothicNeo-Regular-12"/>
     <use xlink:href="#AppleSDGothicNeo-Regular-14" transform="translate(35.703125 0)"/>
     <use xlink:href="#AppleSDGothicNeo-Regular-40" transform="translate(89.296875 0)"/>
     <use xlink:href="#AppleSDGothicNeo-Regular-a0b" transform="translate(122.890625 0)"/>
     <use xlink:href="#AppleSDGothicNeo-Regular-8b6" transform="translate(209.390625 0)"/>
     <use xlink:href="#AppleSDGothicNeo-Regular-40" transform="translate(295.890625 0)"/>
     <use xlink:href="#AppleSDGothicNeo-Regular-468" transform="translate(329.484375 0)"/>
     <use xlink:href="#AppleSDGothicNeo-Regular-c37" transform="translate(415.984375 0)"/>
     <use xlink:href="#AppleSDGothicNeo-Regular-40" transform="translate(502.484375 0)"/>
     <use xlink:href="#AppleSDGothicNeo-Regular-35" transform="translate(536.078125 0)"/>
     <use xlink:href="#AppleSDGothicNeo-Regular-31" transform="translate(590.484375 0)"/>
     <use xlink:href="#AppleSDGothicNeo-Regular-40" transform="translate(645.78125 0)"/>
     <use xlink:href="#AppleSDGothicNeo-Regular-12" transform="translate(679.375 0)"/>
     <use xlink:href="#AppleSDGothicNeo-Regular-1" transform="translate(715.078125 0)"/>
     <use xlink:href="#AppleSDGothicNeo-Regular-5d" transform="translate(741.375 0)"/>
     <use xlink:href="#AppleSDGothicNeo-Regular-1" transform="translate(769.578125 0)"/>
     <use xlink:href="#AppleSDGothicNeo-Regular-28" transform="translate(795.875 0)"/>
     <use xlink:href="#AppleSDGothicNeo-Regular-46" transform="translate(859.171875 0)"/>
     <use xlink:href="#AppleSDGothicNeo-Regular-54" transform="translate(909.171875 0)"/>
     <use xlink:href="#AppleSDGothicNeo-Regular-55" transform="translate(950.671875 0)"/>
     <use xlink:href="#AppleSDGothicNeo-Regular-56" transform="translate(985.671875 0)"/>
     <use xlink:href="#AppleSDGothicNeo-Regular-53" transform="translate(1038.671875 0)"/>
     <use xlink:href="#AppleSDGothicNeo-Regular-46" transform="translate(1073.265625 0)"/>
     <use xlink:href="#AppleSDGothicNeo-Regular-31" transform="translate(1123.265625 0)"/>
     <use xlink:href="#AppleSDGothicNeo-Regular-46" transform="translate(1178.5625 0)"/>
     <use xlink:href="#AppleSDGothicNeo-Regular-43" transform="translate(1228.5625 0)"/>
     <use xlink:href="#AppleSDGothicNeo-Regular-43" transform="translate(1283.0625 0)"/>
     <use xlink:href="#AppleSDGothicNeo-Regular-4d" transform="translate(1337.5625 0)"/>
     <use xlink:href="#AppleSDGothicNeo-Regular-46" transform="translate(1360.265625 0)"/>
     <use xlink:href="#AppleSDGothicNeo-Regular-3b" transform="translate(1410.265625 0)"/>
     <use xlink:href="#AppleSDGothicNeo-Regular-12" transform="translate(1464.46875 0)"/>
     <use xlink:href="#AppleSDGothicNeo-Regular-40" transform="translate(1500.171875 0)"/>
     <use xlink:href="#AppleSDGothicNeo-Regular-4f" transform="translate(1533.765625 0)"/>
     <use xlink:href="#AppleSDGothicNeo-Regular-50" transform="translate(1587.359375 0)"/>
     <use xlink:href="#AppleSDGothicNeo-Regular-53" transform="translate(1640.765625 0)"/>
     <use xlink:href="#AppleSDGothicNeo-Regular-4e" transform="translate(1675.359375 0)"/>
     <use xlink:href="#AppleSDGothicNeo-Regular-42" transform="translate(1755.65625 0)"/>
     <use xlink:href="#AppleSDGothicNeo-Regular-4d" transform="translate(1802.859375 0)"/>
     <use xlink:href="#AppleSDGothicNeo-Regular-40" transform="translate(1825.5625 0)"/>
     <use xlink:href="#AppleSDGothicNeo-Regular-13" transform="translate(1859.15625 0)"/>
     <use xlink:href="#AppleSDGothicNeo-Regular-1" transform="translate(1912.453125 0)"/>
     <use xlink:href="#AppleSDGothicNeo-Regular-5d" transform="translate(1938.75 0)"/>
     <use xlink:href="#AppleSDGothicNeo-Regular-1" transform="translate(1966.953125 0)"/>
     <use xlink:href="#AppleSDGothicNeo-Regular-35" transform="translate(1993.25 0)"/>
     <use xlink:href="#AppleSDGothicNeo-Regular-26" transform="translate(2047.65625 0)"/>
     <use xlink:href="#AppleSDGothicNeo-Regular-34" transform="translate(2102.65625 0)"/>
     <use xlink:href="#AppleSDGothicNeo-Regular-35" transform="translate(2153.0625 0)"/>
     <use xlink:href="#AppleSDGothicNeo-Regular-1" transform="translate(2207.46875 0)"/>
     <use xlink:href="#AppleSDGothicNeo-Regular-4a" transform="translate(2233.765625 0)"/>
     <use xlink:href="#AppleSDGothicNeo-Regular-4f" transform="translate(2256.46875 0)"/>
     <use xlink:href="#AppleSDGothicNeo-Regular-45" transform="translate(2310.0625 0)"/>
     <use xlink:href="#AppleSDGothicNeo-Regular-46" transform="translate(2364.5625 0)"/>
     <use xlink:href="#AppleSDGothicNeo-Regular-59" transform="translate(2413.5625 0)"/>
     <use xlink:href="#AppleSDGothicNeo-Regular-1" transform="translate(2461.265625 0)"/>
     <use xlink:href="#AppleSDGothicNeo-Regular-15" transform="translate(2487.5625 0)"/>
     <use xlink:href="#AppleSDGothicNeo-Regular-1a" transform="translate(2540.96875 0)"/>
     <use xlink:href="#AppleSDGothicNeo-Regular-1" transform="translate(2596.375 0)"/>
     <use xlink:href="#AppleSDGothicNeo-Regular-5d" transform="translate(2622.671875 0)"/>
     <use xlink:href="#AppleSDGothicNeo-Regular-1" transform="translate(2650.875 0)"/>
     <use xlink:href="#AppleSDGothicNeo-Regular-a0b" transform="translate(2677.171875 0)"/>
     <use xlink:href="#AppleSDGothicNeo-Regular-8b6" transform="translate(2763.671875 0)"/>
     <use xlink:href="#AppleSDGothicNeo-Regular-1" transform="translate(2850.171875 0)"/>
     <use xlink:href="#AppleSDGothicNeo-Regular-468" transform="translate(2876.46875 0)"/>
     <use xlink:href="#AppleSDGothicNeo-Regular-c37" transform="translate(2962.96875 0)"/>
    </g>
   </g>
   <g id="legend_1">
    <g id="patch_7">
     <path d="M 737.83875 319.344 
L 841.84 319.344 
Q 843.44 319.344 843.44 317.744 
L 843.44 277.744 
Q 843.44 276.144 841.84 276.144 
L 737.83875 276.144 
Q 736.23875 276.144 736.23875 277.744 
L 736.23875 317.744 
Q 736.23875 319.344 737.83875 319.344 
z
" style="fill: #ffffff; opacity: 0.8; stroke: #cccccc; stroke-linejoin: miter"/>
    </g>
    <g id="patch_8">
     <path d="M 739.43875 286.544 
L 755.43875 286.544 
L 755.43875 280.944 
L 739.43875 280.944 
z
" style="fill: #a7dff3; fill-opacity: 0.55; stroke: #a7dff3; stroke-opacity: 0.55; stroke-linejoin: miter"/>
    </g>
    <g id="text_20">
     <!-- TRAIN normal p05-p95 -->
     <g transform="translate(761.83875 286.544) scale(0.08 -0.08)">
      <defs>
       <path id="AppleSDGothicNeo-Regular-33" d="M 550 269 
L 1056 269 
L 1056 2112 
L 1875 2112 
L 2944 269 
L 3520 269 
L 2381 2202 
L 2381 2234 
C 2912 2400 3219 2746 3219 3360 
C 3219 4134 2746 4563 1798 4563 
L 550 4563 
L 550 269 
z
M 1056 2509 
L 1056 4134 
L 1760 4134 
C 2419 4134 2682 3885 2682 3354 
C 2682 2797 2438 2509 1766 2509 
L 1056 2509 
z
" transform="scale(0.015625)"/>
       <path id="AppleSDGothicNeo-Regular-22" d="M 122 269 
L 608 269 
L 1050 1523 
L 2771 1523 
L 3226 269 
L 3757 269 
L 2189 4563 
L 1696 4563 
L 122 269 
z
M 1901 3885 
L 1914 3885 
L 2611 1952 
L 1197 1952 
L 1901 3885 
z
" transform="scale(0.015625)"/>
       <path id="AppleSDGothicNeo-Regular-2a" d="M 576 269 
L 1082 269 
L 1082 4563 
L 576 4563 
L 576 269 
z
" transform="scale(0.015625)"/>
       <path id="AppleSDGothicNeo-Regular-2f" d="M 550 269 
L 1024 269 
L 1024 3872 
L 1043 3872 
L 3174 269 
L 3699 269 
L 3699 4563 
L 3238 4563 
L 3238 1126 
L 3219 1126 
L 1152 4563 
L 550 4563 
L 550 269 
z
" transform="scale(0.015625)"/>
      </defs>
      <use xlink:href="#AppleSDGothicNeo-Regular-35"/>
      <use xlink:href="#AppleSDGothicNeo-Regular-33" transform="translate(54.40625 0)"/>
      <use xlink:href="#AppleSDGothicNeo-Regular-22" transform="translate(112.203125 0)"/>
      <use xlink:href="#AppleSDGothicNeo-Regular-2a" transform="translate(172.703125 0)"/>
      <use xlink:href="#AppleSDGothicNeo-Regular-2f" transform="translate(198.609375 0)"/>
      <use xlink:href="#AppleSDGothicNeo-Regular-1" transform="translate(265.203125 0)"/>
      <use xlink:href="#AppleSDGothicNeo-Regular-4f" transform="translate(291.5 0)"/>
      <use xlink:href="#AppleSDGothicNeo-Regular-50" transform="translate(345.09375 0)"/>
      <use xlink:href="#AppleSDGothicNeo-Regular-53" transform="translate(398.5 0)"/>
      <use xlink:href="#AppleSDGothicNeo-Regular-4e" transform="translate(433.09375 0)"/>
      <use xlink:href="#AppleSDGothicNeo-Regular-42" transform="translate(513.390625 0)"/>
      <use xlink:href="#AppleSDGothicNeo-Regular-4d" transform="translate(560.59375 0)"/>
      <use xlink:href="#AppleSDGothicNeo-Regular-1" transform="translate(583.296875 0)"/>
      <use xlink:href="#AppleSDGothicNeo-Regular-51" transform="translate(609.59375 0)"/>
      <use xlink:href="#AppleSDGothicNeo-Regular-11" transform="translate(664.09375 0)"/>
      <use xlink:href="#AppleSDGothicNeo-Regular-16" transform="translate(727.09375 0)"/>
      <use xlink:href="#AppleSDGothicNeo-Regular-e" transform="translate(777 0)"/>
      <use xlink:href="#AppleSDGothicNeo-Regular-51" transform="translate(820.203125 0)"/>
      <use xlink:href="#AppleSDGothicNeo-Regular-1a" transform="translate(874.703125 0)"/>
      <use xlink:href="#AppleSDGothicNeo-Regular-16" transform="translate(930.109375 0)"/>
     </g>
    </g>
    <g id="line2d_18">
     <path d="M 739.43875 297.344 
L 747.43875 297.344 
L 755.43875 297.344 
" style="fill: none; stroke: #2378a8; stroke-width: 1.2; stroke-linecap: square"/>
    </g>
    <g id="text_21">
     <!-- TRAIN normal median -->
     <g transform="translate(761.83875 300.144) scale(0.08 -0.08)">
      <use xlink:href="#AppleSDGothicNeo-Regular-35"/>
      <use xlink:href="#AppleSDGothicNeo-Regular-33" transform="translate(54.40625 0)"/>
      <use xlink:href="#AppleSDGothicNeo-Regular-22" transform="translate(112.203125 0)"/>
      <use xlink:href="#AppleSDGothicNeo-Regular-2a" transform="translate(172.703125 0)"/>
      <use xlink:href="#AppleSDGothicNeo-Regular-2f" transform="translate(198.609375 0)"/>
      <use xlink:href="#AppleSDGothicNeo-Regular-1" transform="translate(265.203125 0)"/>
      <use xlink:href="#AppleSDGothicNeo-Regular-4f" transform="translate(291.5 0)"/>
      <use xlink:href="#AppleSDGothicNeo-Regular-50" transform="translate(345.09375 0)"/>
      <use xlink:href="#AppleSDGothicNeo-Regular-53" transform="translate(398.5 0)"/>
      <use xlink:href="#AppleSDGothicNeo-Regular-4e" transform="translate(433.09375 0)"/>
      <use xlink:href="#AppleSDGothicNeo-Regular-42" transform="translate(513.390625 0)"/>
      <use xlink:href="#AppleSDGothicNeo-Regular-4d" transform="translate(560.59375 0)"/>
      <use xlink:href="#AppleSDGothicNeo-Regular-1" transform="translate(583.296875 0)"/>
      <use xlink:href="#AppleSDGothicNeo-Regular-4e" transform="translate(609.59375 0)"/>
      <use xlink:href="#AppleSDGothicNeo-Regular-46" transform="translate(689.890625 0)"/>
      <use xlink:href="#AppleSDGothicNeo-Regular-45" transform="translate(739.890625 0)"/>
      <use xlink:href="#AppleSDGothicNeo-Regular-4a" transform="translate(794.390625 0)"/>
      <use xlink:href="#AppleSDGothicNeo-Regular-42" transform="translate(817.09375 0)"/>
      <use xlink:href="#AppleSDGothicNeo-Regular-4f" transform="translate(864.296875 0)"/>
     </g>
    </g>
    <g id="line2d_19">
     <path d="M 739.43875 310.944 
L 747.43875 310.944 
L 755.43875 310.944 
" style="fill: none; stroke: #e45756; stroke-width: 1.1; stroke-linecap: square"/>
    </g>
    <g id="text_22">
     <!-- selected TEST series -->
     <g transform="translate(761.83875 313.744) scale(0.08 -0.08)">
      <use xlink:href="#AppleSDGothicNeo-Regular-54"/>
      <use xlink:href="#AppleSDGothicNeo-Regular-46" transform="translate(41.5 0)"/>
      <use xlink:href="#AppleSDGothicNeo-Regular-4d" transform="translate(91.5 0)"/>
      <use xlink:href="#AppleSDGothicNeo-Regular-46" transform="translate(114.203125 0)"/>
      <use xlink:href="#AppleSDGothicNeo-Regular-44" transform="translate(164.203125 0)"/>
      <use xlink:href="#AppleSDGothicNeo-Regular-55" transform="translate(210.109375 0)"/>
      <use xlink:href="#AppleSDGothicNeo-Regular-46" transform="translate(245.109375 0)"/>
      <use xlink:href="#AppleSDGothicNeo-Regular-45" transform="translate(295.109375 0)"/>
      <use xlink:href="#AppleSDGothicNeo-Regular-1" transform="translate(349.609375 0)"/>
      <use xlink:href="#AppleSDGothicNeo-Regular-35" transform="translate(375.90625 0)"/>
      <use xlink:href="#AppleSDGothicNeo-Regular-26" transform="translate(430.3125 0)"/>
      <use xlink:href="#AppleSDGothicNeo-Regular-34" transform="translate(485.3125 0)"/>
      <use xlink:href="#AppleSDGothicNeo-Regular-35" transform="translate(535.71875 0)"/>
      <use xlink:href="#AppleSDGothicNeo-Regular-1" transform="translate(590.125 0)"/>
      <use xlink:href="#AppleSDGothicNeo-Regular-54" transform="translate(616.421875 0)"/>
      <use xlink:href="#AppleSDGothicNeo-Regular-46" transform="translate(657.921875 0)"/>
      <use xlink:href="#AppleSDGothicNeo-Regular-53" transform="translate(707.921875 0)"/>
      <use xlink:href="#AppleSDGothicNeo-Regular-4a" transform="translate(742.515625 0)"/>
      <use xlink:href="#AppleSDGothicNeo-Regular-46" transform="translate(765.21875 0)"/>
      <use xlink:href="#AppleSDGothicNeo-Regular-54" transform="translate(815.21875 0)"/>
     </g>
    </g>
   </g>
  </g>
  <g id="axes_2">
   <g id="patch_9">
    <path d="M 49.28 443.08 
L 847.44 443.08 
L 847.44 369.144 
L 49.28 369.144 
z
" style="fill: #ffffff"/>
   </g>
   <g id="PathCollection_1">
    <defs>
     <path id="m5d7a5d94cd" d="M -3 3 
L 3 -3 
M -3 -3 
L 3 3 
" style="stroke: #e45756; stroke-width: 1.5"/>
    </defs>
    <g clip-path="url(#pa4aa2af1d0)">
     <use xlink:href="#m5d7a5d94cd" x="831.789804" y="416.984941" style="fill: #e45756; stroke: #e45756; stroke-width: 1.5"/>
    </g>
   </g>
   <g id="PathCollection_2">
    <defs>
     <path id="medcc12cfd3" d="M 0 3 
C 0.795609 3 1.55874 2.683901 2.12132 2.12132 
C 2.683901 1.55874 3 0.795609 3 0 
C 3 -0.795609 2.683901 -1.55874 2.12132 -2.12132 
C 1.55874 -2.683901 0.795609 -3 0 -3 
C -0.795609 -3 -1.55874 -2.683901 -2.12132 -2.12132 
C -2.683901 -1.55874 -3 -0.795609 -3 0 
C -3 0.795609 -2.683901 1.55874 -2.12132 2.12132 
C -1.55874 2.683901 -0.795609 3 0 3 
z
" style="stroke: #111111"/>
    </defs>
    <g clip-path="url(#pa4aa2af1d0)">
     <use xlink:href="#medcc12cfd3" x="831.789804" y="395.239059" style="fill: #111111; stroke: #111111"/>
    </g>
   </g>
   <g id="matplotlib.axis_3">
    <g id="xtick_8">
     <g id="line2d_20">
      <g>
       <use xlink:href="#m7aa5099ed9" x="64.930196" y="443.08" style="stroke: #000000; stroke-width: 0.8"/>
      </g>
     </g>
     <g id="text_23">
      <!-- 0 -->
      <g transform="translate(61.780196 459.08) scale(0.1 -0.1)">
       <use xlink:href="#AppleSDGothicNeo-Regular-11"/>
      </g>
     </g>
    </g>
    <g id="xtick_9">
     <g id="line2d_21">
      <g>
       <use xlink:href="#m7aa5099ed9" x="221.432157" y="443.08" style="stroke: #000000; stroke-width: 0.8"/>
      </g>
     </g>
     <g id="text_24">
      <!-- 10 -->
      <g transform="translate(216.497001 459.08) scale(0.1 -0.1)">
       <use xlink:href="#AppleSDGothicNeo-Regular-12"/>
       <use xlink:href="#AppleSDGothicNeo-Regular-11" transform="translate(35.703125 0)"/>
      </g>
     </g>
    </g>
    <g id="xtick_10">
     <g id="line2d_22">
      <g>
       <use xlink:href="#m7aa5099ed9" x="377.934118" y="443.08" style="stroke: #000000; stroke-width: 0.8"/>
      </g>
     </g>
     <g id="text_25">
      <!-- 20 -->
      <g transform="translate(372.144274 459.08) scale(0.1 -0.1)">
       <use xlink:href="#AppleSDGothicNeo-Regular-13"/>
       <use xlink:href="#AppleSDGothicNeo-Regular-11" transform="translate(52.796875 0)"/>
      </g>
     </g>
    </g>
    <g id="xtick_11">
     <g id="line2d_23">
      <g>
       <use xlink:href="#m7aa5099ed9" x="534.436078" y="443.08" style="stroke: #000000; stroke-width: 0.8"/>
      </g>
     </g>
     <g id="text_26">
      <!-- 30 -->
      <g transform="translate(528.606391 459.08) scale(0.1 -0.1)">
       <use xlink:href="#AppleSDGothicNeo-Regular-14"/>
       <use xlink:href="#AppleSDGothicNeo-Regular-11" transform="translate(53.59375 0)"/>
      </g>
     </g>
    </g>
    <g id="xtick_12">
     <g id="line2d_24">
      <g>
       <use xlink:href="#m7aa5099ed9" x="690.938039" y="443.08" style="stroke: #000000; stroke-width: 0.8"/>
      </g>
     </g>
     <g id="text_27">
      <!-- 40 -->
      <g transform="translate(685.013039 459.08) scale(0.1 -0.1)">
       <use xlink:href="#AppleSDGothicNeo-Regular-15"/>
       <use xlink:href="#AppleSDGothicNeo-Regular-11" transform="translate(55.5 0)"/>
      </g>
     </g>
    </g>
    <g id="xtick_13">
     <g id="line2d_25">
      <g>
       <use xlink:href="#m7aa5099ed9" x="847.44" y="443.08" style="stroke: #000000; stroke-width: 0.8"/>
      </g>
     </g>
     <g id="text_28">
      <!-- 50 -->
      <g transform="translate(841.794688 459.08) scale(0.1 -0.1)">
       <use xlink:href="#AppleSDGothicNeo-Regular-16"/>
       <use xlink:href="#AppleSDGothicNeo-Regular-11" transform="translate(49.90625 0)"/>
      </g>
     </g>
    </g>
    <g id="text_29">
     <!-- TEST sample index -->
     <g transform="translate(408.834219 475.08) scale(0.1 -0.1)">
      <use xlink:href="#AppleSDGothicNeo-Regular-35"/>
      <use xlink:href="#AppleSDGothicNeo-Regular-26" transform="translate(54.40625 0)"/>
      <use xlink:href="#AppleSDGothicNeo-Regular-34" transform="translate(109.40625 0)"/>
      <use xlink:href="#AppleSDGothicNeo-Regular-35" transform="translate(159.8125 0)"/>
      <use xlink:href="#AppleSDGothicNeo-Regular-1" transform="translate(214.21875 0)"/>
      <use xlink:href="#AppleSDGothicNeo-Regular-54" transform="translate(240.515625 0)"/>
      <use xlink:href="#AppleSDGothicNeo-Regular-42" transform="translate(282.015625 0)"/>
      <use xlink:href="#AppleSDGothicNeo-Regular-4e" transform="translate(329.21875 0)"/>
      <use xlink:href="#AppleSDGothicNeo-Regular-51" transform="translate(409.515625 0)"/>
      <use xlink:href="#AppleSDGothicNeo-Regular-4d" transform="translate(464.015625 0)"/>
      <use xlink:href="#AppleSDGothicNeo-Regular-46" transform="translate(486.71875 0)"/>
      <use xlink:href="#AppleSDGothicNeo-Regular-1" transform="translate(536.71875 0)"/>
      <use xlink:href="#AppleSDGothicNeo-Regular-4a" transform="translate(563.015625 0)"/>
      <use xlink:href="#AppleSDGothicNeo-Regular-4f" transform="translate(585.71875 0)"/>
      <use xlink:href="#AppleSDGothicNeo-Regular-45" transform="translate(639.3125 0)"/>
      <use xlink:href="#AppleSDGothicNeo-Regular-46" transform="translate(693.8125 0)"/>
      <use xlink:href="#AppleSDGothicNeo-Regular-59" transform="translate(742.8125 0)"/>
     </g>
    </g>
   </g>
   <g id="matplotlib.axis_4"/>
   <g id="patch_10">
    <path d="M 49.28 443.08 
L 49.28 369.144 
" style="fill: none; stroke: #000000; stroke-width: 0.8; stroke-linejoin: miter; stroke-linecap: square"/>
   </g>
   <g id="patch_11">
    <path d="M 847.44 443.08 
L 847.44 369.144 
" style="fill: none; stroke: #000000; stroke-width: 0.8; stroke-linejoin: miter; stroke-linecap: square"/>
   </g>
   <g id="patch_12">
    <path d="M 49.28 443.08 
L 847.44 443.08 
" style="fill: none; stroke: #000000; stroke-width: 0.8; stroke-linejoin: miter; stroke-linecap: square"/>
   </g>
   <g id="patch_13">
    <path d="M 49.28 369.144 
L 847.44 369.144 
" style="fill: none; stroke: #000000; stroke-width: 0.8; stroke-linejoin: miter; stroke-linecap: square"/>
   </g>
   <g id="legend_2">
    <g id="patch_14">
     <path d="M 728.46875 402.744 
L 841.84 402.744 
Q 843.44 402.744 843.44 401.144 
L 843.44 374.744 
Q 843.44 373.144 841.84 373.144 
L 728.46875 373.144 
Q 726.86875 373.144 726.86875 374.744 
L 726.86875 401.144 
Q 726.86875 402.744 728.46875 402.744 
z
" style="fill: #ffffff; opacity: 0.8; stroke: #cccccc; stroke-linejoin: miter"/>
    </g>
    <g id="PathCollection_3">
     <g>
      <use xlink:href="#m5d7a5d94cd" x="738.06875" y="381.444" style="fill: #e45756; stroke: #e45756; stroke-width: 1.5"/>
     </g>
    </g>
    <g id="text_30">
     <!-- actual anomaly (post-hoc) -->
     <g transform="translate(752.46875 383.544) scale(0.08 -0.08)">
      <defs>
       <path id="AppleSDGothicNeo-Regular-9" d="M 1472 -384 
L 1914 -384 
C 1344 256 883 1235 883 2221 
L 883 2374 
C 883 3392 1344 4307 1914 4941 
L 1472 4941 
C 883 4339 365 3469 365 2330 
L 365 2227 
C 365 1094 883 218 1472 -384 
z
" transform="scale(0.015625)"/>
       <path id="AppleSDGothicNeo-Regular-a" d="M 115 -384 
L 550 -384 
C 1146 218 1651 1088 1651 2227 
L 1651 2330 
C 1651 3462 1146 4339 550 4941 
L 115 4941 
C 678 4301 1146 3322 1146 2336 
L 1146 2176 
C 1146 1165 678 250 115 -384 
z
" transform="scale(0.015625)"/>
      </defs>
      <use xlink:href="#AppleSDGothicNeo-Regular-42"/>
      <use xlink:href="#AppleSDGothicNeo-Regular-44" transform="translate(47.203125 0)"/>
      <use xlink:href="#AppleSDGothicNeo-Regular-55" transform="translate(93.109375 0)"/>
      <use xlink:href="#AppleSDGothicNeo-Regular-56" transform="translate(128.109375 0)"/>
      <use xlink:href="#AppleSDGothicNeo-Regular-42" transform="translate(181.109375 0)"/>
      <use xlink:href="#AppleSDGothicNeo-Regular-4d" transform="translate(228.3125 0)"/>
      <use xlink:href="#AppleSDGothicNeo-Regular-1" transform="translate(251.015625 0)"/>
      <use xlink:href="#AppleSDGothicNeo-Regular-42" transform="translate(277.3125 0)"/>
      <use xlink:href="#AppleSDGothicNeo-Regular-4f" transform="translate(324.515625 0)"/>
      <use xlink:href="#AppleSDGothicNeo-Regular-50" transform="translate(378.109375 0)"/>
      <use xlink:href="#AppleSDGothicNeo-Regular-4e" transform="translate(431.515625 0)"/>
      <use xlink:href="#AppleSDGothicNeo-Regular-42" transform="translate(511.8125 0)"/>
      <use xlink:href="#AppleSDGothicNeo-Regular-4d" transform="translate(559.015625 0)"/>
      <use xlink:href="#AppleSDGothicNeo-Regular-5a" transform="translate(581.71875 0)"/>
      <use xlink:href="#AppleSDGothicNeo-Regular-1" transform="translate(629.921875 0)"/>
      <use xlink:href="#AppleSDGothicNeo-Regular-9" transform="translate(656.21875 0)"/>
      <use xlink:href="#AppleSDGothicNeo-Regular-51" transform="translate(687.921875 0)"/>
      <use xlink:href="#AppleSDGothicNeo-Regular-50" transform="translate(742.421875 0)"/>
      <use xlink:href="#AppleSDGothicNeo-Regular-54" transform="translate(795.828125 0)"/>
      <use xlink:href="#AppleSDGothicNeo-Regular-55" transform="translate(837.328125 0)"/>
      <use xlink:href="#AppleSDGothicNeo-Regular-e" transform="translate(870.234375 0)"/>
      <use xlink:href="#AppleSDGothicNeo-Regular-49" transform="translate(913.4375 0)"/>
      <use xlink:href="#AppleSDGothicNeo-Regular-50" transform="translate(967.03125 0)"/>
      <use xlink:href="#AppleSDGothicNeo-Regular-44" transform="translate(1020.4375 0)"/>
      <use xlink:href="#AppleSDGothicNeo-Regular-a" transform="translate(1065.4375 0)"/>
     </g>
    </g>
    <g id="PathCollection_4">
     <g>
      <use xlink:href="#medcc12cfd3" x="738.06875" y="395.044" style="fill: #111111; stroke: #111111"/>
     </g>
    </g>
    <g id="text_31">
     <!-- selected case -->
     <g transform="translate(752.46875 397.144) scale(0.08 -0.08)">
      <use xlink:href="#AppleSDGothicNeo-Regular-54"/>
      <use xlink:href="#AppleSDGothicNeo-Regular-46" transform="translate(41.5 0)"/>
      <use xlink:href="#AppleSDGothicNeo-Regular-4d" transform="translate(91.5 0)"/>
      <use xlink:href="#AppleSDGothicNeo-Regular-46" transform="translate(114.203125 0)"/>
      <use xlink:href="#AppleSDGothicNeo-Regular-44" transform="translate(164.203125 0)"/>
      <use xlink:href="#AppleSDGothicNeo-Regular-55" transform="translate(210.109375 0)"/>
      <use xlink:href="#AppleSDGothicNeo-Regular-46" transform="translate(245.109375 0)"/>
      <use xlink:href="#AppleSDGothicNeo-Regular-45" transform="translate(295.109375 0)"/>
      <use xlink:href="#AppleSDGothicNeo-Regular-1" transform="translate(349.609375 0)"/>
      <use xlink:href="#AppleSDGothicNeo-Regular-44" transform="translate(375.90625 0)"/>
      <use xlink:href="#AppleSDGothicNeo-Regular-42" transform="translate(420.90625 0)"/>
      <use xlink:href="#AppleSDGothicNeo-Regular-54" transform="translate(468.109375 0)"/>
      <use xlink:href="#AppleSDGothicNeo-Regular-46" transform="translate(509.609375 0)"/>
     </g>
    </g>
   </g>
  </g>
  <g id="text_32">
   <!-- Actual anomaly labels are shown only for post-hoc evaluation and explanation; they were not used for candidate selection or routing. -->
   <g transform="translate(8.64 501.48) scale(0.08 -0.08)">
    <defs>
     <path id="AppleSDGothicNeo-Regular-58" d="M 1082 269 
L 1581 269 
L 2330 2688 
L 2349 2688 
L 3085 269 
L 3578 269 
L 4480 3443 
L 4013 3443 
L 3360 902 
L 3334 902 
L 2566 3443 
L 2144 3443 
L 1382 902 
L 1357 902 
L 704 3443 
L 179 3443 
L 1082 269 
z
" transform="scale(0.015625)"/>
     <path id="AppleSDGothicNeo-Regular-47" d="M 653 269 
L 1146 269 
L 1146 3034 
L 1875 3034 
L 1875 3437 
L 1146 3437 
L 1146 3866 
C 1146 4307 1357 4486 1734 4486 
C 1952 4486 2086 4461 2182 4442 
L 2182 4787 
C 2067 4845 1894 4896 1645 4896 
C 1069 4896 653 4595 653 3898 
L 653 3437 
L 186 3437 
L 186 3034 
L 653 3034 
L 653 269 
z
" transform="scale(0.015625)"/>
     <path id="AppleSDGothicNeo-Regular-1c" d="M 416 -122 
L 774 -122 
L 1222 1094 
L 646 1094 
L 416 -122 
z
M 646 3021 
L 1203 3021 
L 1203 3590 
L 646 3590 
L 646 3021 
z
" transform="scale(0.015625)"/>
     <path id="AppleSDGothicNeo-Regular-48" d="M 1574 -672 
C 2656 -672 3091 -243 3091 301 
C 3091 890 2662 1062 2086 1062 
L 1210 1062 
C 998 1062 896 1126 896 1299 
C 896 1402 960 1478 1043 1555 
C 1210 1498 1389 1466 1587 1466 
C 2253 1466 2778 1805 2778 2483 
L 2778 2490 
C 2778 2739 2694 2931 2547 3072 
L 3117 3072 
L 3117 3450 
L 2042 3450 
C 1901 3482 1754 3501 1594 3501 
C 896 3501 397 3136 397 2477 
L 397 2464 
C 397 2086 550 1830 794 1670 
C 550 1491 435 1344 435 1146 
C 435 934 576 800 755 749 
L 755 717 
C 429 608 154 410 154 70 
C 154 -390 608 -672 1574 -672 
z
M 1562 -288 
C 934 -288 666 -147 666 134 
C 666 403 851 544 1094 627 
L 2010 627 
C 2426 627 2579 531 2579 237 
C 2579 -96 2310 -288 1562 -288 
z
M 1587 1850 
C 1165 1850 883 2054 883 2470 
L 883 2502 
C 883 2899 1152 3130 1587 3130 
C 2016 3130 2285 2931 2285 2496 
L 2285 2464 
C 2285 2054 2029 1850 1587 1850 
z
" transform="scale(0.015625)"/>
    </defs>
    <use xlink:href="#AppleSDGothicNeo-Regular-22"/>
    <use xlink:href="#AppleSDGothicNeo-Regular-44" transform="translate(60.5 0)"/>
    <use xlink:href="#AppleSDGothicNeo-Regular-55" transform="translate(106.40625 0)"/>
    <use xlink:href="#AppleSDGothicNeo-Regular-56" transform="translate(141.40625 0)"/>
    <use xlink:href="#AppleSDGothicNeo-Regular-42" transform="translate(194.40625 0)"/>
    <use xlink:href="#AppleSDGothicNeo-Regular-4d" transform="translate(241.609375 0)"/>
    <use xlink:href="#AppleSDGothicNeo-Regular-1" transform="translate(264.3125 0)"/>
    <use xlink:href="#AppleSDGothicNeo-Regular-42" transform="translate(290.609375 0)"/>
    <use xlink:href="#AppleSDGothicNeo-Regular-4f" transform="translate(337.8125 0)"/>
    <use xlink:href="#AppleSDGothicNeo-Regular-50" transform="translate(391.40625 0)"/>
    <use xlink:href="#AppleSDGothicNeo-Regular-4e" transform="translate(444.8125 0)"/>
    <use xlink:href="#AppleSDGothicNeo-Regular-42" transform="translate(525.109375 0)"/>
    <use xlink:href="#AppleSDGothicNeo-Regular-4d" transform="translate(572.3125 0)"/>
    <use xlink:href="#AppleSDGothicNeo-Regular-5a" transform="translate(595.015625 0)"/>
    <use xlink:href="#AppleSDGothicNeo-Regular-1" transform="translate(643.21875 0)"/>
    <use xlink:href="#AppleSDGothicNeo-Regular-4d" transform="translate(669.515625 0)"/>
    <use xlink:href="#AppleSDGothicNeo-Regular-42" transform="translate(692.21875 0)"/>
    <use xlink:href="#AppleSDGothicNeo-Regular-43" transform="translate(739.421875 0)"/>
    <use xlink:href="#AppleSDGothicNeo-Regular-46" transform="translate(793.921875 0)"/>
    <use xlink:href="#AppleSDGothicNeo-Regular-4d" transform="translate(843.921875 0)"/>
    <use xlink:href="#AppleSDGothicNeo-Regular-54" transform="translate(866.625 0)"/>
    <use xlink:href="#AppleSDGothicNeo-Regular-1" transform="translate(908.125 0)"/>
    <use xlink:href="#AppleSDGothicNeo-Regular-42" transform="translate(934.421875 0)"/>
    <use xlink:href="#AppleSDGothicNeo-Regular-53" transform="translate(981.625 0)"/>
    <use xlink:href="#AppleSDGothicNeo-Regular-46" transform="translate(1016.21875 0)"/>
    <use xlink:href="#AppleSDGothicNeo-Regular-1" transform="translate(1066.21875 0)"/>
    <use xlink:href="#AppleSDGothicNeo-Regular-54" transform="translate(1092.515625 0)"/>
    <use xlink:href="#AppleSDGothicNeo-Regular-49" transform="translate(1134.015625 0)"/>
    <use xlink:href="#AppleSDGothicNeo-Regular-50" transform="translate(1187.609375 0)"/>
    <use xlink:href="#AppleSDGothicNeo-Regular-58" transform="translate(1241.015625 0)"/>
    <use xlink:href="#AppleSDGothicNeo-Regular-4f" transform="translate(1313.8125 0)"/>
    <use xlink:href="#AppleSDGothicNeo-Regular-1" transform="translate(1367.40625 0)"/>
    <use xlink:href="#AppleSDGothicNeo-Regular-50" transform="translate(1393.703125 0)"/>
    <use xlink:href="#AppleSDGothicNeo-Regular-4f" transform="translate(1447.109375 0)"/>
    <use xlink:href="#AppleSDGothicNeo-Regular-4d" transform="translate(1500.703125 0)"/>
    <use xlink:href="#AppleSDGothicNeo-Regular-5a" transform="translate(1523.40625 0)"/>
    <use xlink:href="#AppleSDGothicNeo-Regular-1" transform="translate(1571.609375 0)"/>
    <use xlink:href="#AppleSDGothicNeo-Regular-47" transform="translate(1597.90625 0)"/>
    <use xlink:href="#AppleSDGothicNeo-Regular-50" transform="translate(1630.203125 0)"/>
    <use xlink:href="#AppleSDGothicNeo-Regular-53" transform="translate(1683.609375 0)"/>
    <use xlink:href="#AppleSDGothicNeo-Regular-1" transform="translate(1718.203125 0)"/>
    <use xlink:href="#AppleSDGothicNeo-Regular-51" transform="translate(1744.5 0)"/>
    <use xlink:href="#AppleSDGothicNeo-Regular-50" transform="translate(1799 0)"/>
    <use xlink:href="#AppleSDGothicNeo-Regular-54" transform="translate(1852.40625 0)"/>
    <use xlink:href="#AppleSDGothicNeo-Regular-55" transform="translate(1893.90625 0)"/>
    <use xlink:href="#AppleSDGothicNeo-Regular-e" transform="translate(1926.8125 0)"/>
    <use xlink:href="#AppleSDGothicNeo-Regular-49" transform="translate(1970.015625 0)"/>
    <use xlink:href="#AppleSDGothicNeo-Regular-50" transform="translate(2023.609375 0)"/>
    <use xlink:href="#AppleSDGothicNeo-Regular-44" transform="translate(2077.015625 0)"/>
    <use xlink:href="#AppleSDGothicNeo-Regular-1" transform="translate(2122.015625 0)"/>
    <use xlink:href="#AppleSDGothicNeo-Regular-46" transform="translate(2148.3125 0)"/>
    <use xlink:href="#AppleSDGothicNeo-Regular-57" transform="translate(2197.8125 0)"/>
    <use xlink:href="#AppleSDGothicNeo-Regular-42" transform="translate(2245.515625 0)"/>
    <use xlink:href="#AppleSDGothicNeo-Regular-4d" transform="translate(2292.71875 0)"/>
    <use xlink:href="#AppleSDGothicNeo-Regular-56" transform="translate(2315.421875 0)"/>
    <use xlink:href="#AppleSDGothicNeo-Regular-42" transform="translate(2368.421875 0)"/>
    <use xlink:href="#AppleSDGothicNeo-Regular-55" transform="translate(2415.625 0)"/>
    <use xlink:href="#AppleSDGothicNeo-Regular-4a" transform="translate(2450.625 0)"/>
    <use xlink:href="#AppleSDGothicNeo-Regular-50" transform="translate(2473.328125 0)"/>
    <use xlink:href="#AppleSDGothicNeo-Regular-4f" transform="translate(2526.734375 0)"/>
    <use xlink:href="#AppleSDGothicNeo-Regular-1" transform="translate(2580.328125 0)"/>
    <use xlink:href="#AppleSDGothicNeo-Regular-42" transform="translate(2606.625 0)"/>
    <use xlink:href="#AppleSDGothicNeo-Regular-4f" transform="translate(2653.828125 0)"/>
    <use xlink:href="#AppleSDGothicNeo-Regular-45" transform="translate(2707.421875 0)"/>
    <use xlink:href="#AppleSDGothicNeo-Regular-1" transform="translate(2761.921875 0)"/>
    <use xlink:href="#AppleSDGothicNeo-Regular-46" transform="translate(2788.21875 0)"/>
    <use xlink:href="#AppleSDGothicNeo-Regular-59" transform="translate(2837.21875 0)"/>
    <use xlink:href="#AppleSDGothicNeo-Regular-51" transform="translate(2884.921875 0)"/>
    <use xlink:href="#AppleSDGothicNeo-Regular-4d" transform="translate(2939.421875 0)"/>
    <use xlink:href="#AppleSDGothicNeo-Regular-42" transform="translate(2962.125 0)"/>
    <use xlink:href="#AppleSDGothicNeo-Regular-4f" transform="translate(3009.328125 0)"/>
    <use xlink:href="#AppleSDGothicNeo-Regular-42" transform="translate(3062.921875 0)"/>
    <use xlink:href="#AppleSDGothicNeo-Regular-55" transform="translate(3110.125 0)"/>
    <use xlink:href="#AppleSDGothicNeo-Regular-4a" transform="translate(3145.125 0)"/>
    <use xlink:href="#AppleSDGothicNeo-Regular-50" transform="translate(3167.828125 0)"/>
    <use xlink:href="#AppleSDGothicNeo-Regular-4f" transform="translate(3221.234375 0)"/>
    <use xlink:href="#AppleSDGothicNeo-Regular-1c" transform="translate(3274.828125 0)"/>
    <use xlink:href="#AppleSDGothicNeo-Regular-1" transform="translate(3303.234375 0)"/>
    <use xlink:href="#AppleSDGothicNeo-Regular-55" transform="translate(3329.53125 0)"/>
    <use xlink:href="#AppleSDGothicNeo-Regular-49" transform="translate(3364.53125 0)"/>
    <use xlink:href="#AppleSDGothicNeo-Regular-46" transform="translate(3418.125 0)"/>
    <use xlink:href="#AppleSDGothicNeo-Regular-5a" transform="translate(3468.125 0)"/>
    <use xlink:href="#AppleSDGothicNeo-Regular-1" transform="translate(3516.328125 0)"/>
    <use xlink:href="#AppleSDGothicNeo-Regular-58" transform="translate(3542.625 0)"/>
    <use xlink:href="#AppleSDGothicNeo-Regular-46" transform="translate(3615.421875 0)"/>
    <use xlink:href="#AppleSDGothicNeo-Regular-53" transform="translate(3665.421875 0)"/>
    <use xlink:href="#AppleSDGothicNeo-Regular-46" transform="translate(3700.015625 0)"/>
    <use xlink:href="#AppleSDGothicNeo-Regular-1" transform="translate(3750.015625 0)"/>
    <use xlink:href="#AppleSDGothicNeo-Regular-4f" transform="translate(3776.3125 0)"/>
    <use xlink:href="#AppleSDGothicNeo-Regular-50" transform="translate(3829.90625 0)"/>
    <use xlink:href="#AppleSDGothicNeo-Regular-55" transform="translate(3883.3125 0)"/>
    <use xlink:href="#AppleSDGothicNeo-Regular-1" transform="translate(3918.3125 0)"/>
    <use xlink:href="#AppleSDGothicNeo-Regular-56" transform="translate(3944.609375 0)"/>
    <use xlink:href="#AppleSDGothicNeo-Regular-54" transform="translate(3997.609375 0)"/>
    <use xlink:href="#AppleSDGothicNeo-Regular-46" transform="translate(4039.109375 0)"/>
    <use xlink:href="#AppleSDGothicNeo-Regular-45" transform="translate(4089.109375 0)"/>
    <use xlink:href="#AppleSDGothicNeo-Regular-1" transform="translate(4143.609375 0)"/>
    <use xlink:href="#AppleSDGothicNeo-Regular-47" transform="translate(4169.90625 0)"/>
    <use xlink:href="#AppleSDGothicNeo-Regular-50" transform="translate(4202.203125 0)"/>
    <use xlink:href="#AppleSDGothicNeo-Regular-53" transform="translate(4255.609375 0)"/>
    <use xlink:href="#AppleSDGothicNeo-Regular-1" transform="translate(4290.203125 0)"/>
    <use xlink:href="#AppleSDGothicNeo-Regular-44" transform="translate(4316.5 0)"/>
    <use xlink:href="#AppleSDGothicNeo-Regular-42" transform="translate(4361.5 0)"/>
    <use xlink:href="#AppleSDGothicNeo-Regular-4f" transform="translate(4408.703125 0)"/>
    <use xlink:href="#AppleSDGothicNeo-Regular-45" transform="translate(4462.296875 0)"/>
    <use xlink:href="#AppleSDGothicNeo-Regular-4a" transform="translate(4516.796875 0)"/>
    <use xlink:href="#AppleSDGothicNeo-Regular-45" transform="translate(4539.5 0)"/>
    <use xlink:href="#AppleSDGothicNeo-Regular-42" transform="translate(4594 0)"/>
    <use xlink:href="#AppleSDGothicNeo-Regular-55" transform="translate(4641.203125 0)"/>
    <use xlink:href="#AppleSDGothicNeo-Regular-46" transform="translate(4676.203125 0)"/>
    <use xlink:href="#AppleSDGothicNeo-Regular-1" transform="translate(4726.203125 0)"/>
    <use xlink:href="#AppleSDGothicNeo-Regular-54" transform="translate(4752.5 0)"/>
    <use xlink:href="#AppleSDGothicNeo-Regular-46" transform="translate(4794 0)"/>
    <use xlink:href="#AppleSDGothicNeo-Regular-4d" transform="translate(4844 0)"/>
    <use xlink:href="#AppleSDGothicNeo-Regular-46" transform="translate(4866.703125 0)"/>
    <use xlink:href="#AppleSDGothicNeo-Regular-44" transform="translate(4916.703125 0)"/>
    <use xlink:href="#AppleSDGothicNeo-Regular-55" transform="translate(4962.609375 0)"/>
    <use xlink:href="#AppleSDGothicNeo-Regular-4a" transform="translate(4997.609375 0)"/>
    <use xlink:href="#AppleSDGothicNeo-Regular-50" transform="translate(5020.3125 0)"/>
    <use xlink:href="#AppleSDGothicNeo-Regular-4f" transform="translate(5073.71875 0)"/>
    <use xlink:href="#AppleSDGothicNeo-Regular-1" transform="translate(5127.3125 0)"/>
    <use xlink:href="#AppleSDGothicNeo-Regular-50" transform="translate(5153.609375 0)"/>
    <use xlink:href="#AppleSDGothicNeo-Regular-53" transform="translate(5207.015625 0)"/>
    <use xlink:href="#AppleSDGothicNeo-Regular-1" transform="translate(5241.609375 0)"/>
    <use xlink:href="#AppleSDGothicNeo-Regular-53" transform="translate(5267.90625 0)"/>
    <use xlink:href="#AppleSDGothicNeo-Regular-50" transform="translate(5302.5 0)"/>
    <use xlink:href="#AppleSDGothicNeo-Regular-56" transform="translate(5355.90625 0)"/>
    <use xlink:href="#AppleSDGothicNeo-Regular-55" transform="translate(5408.90625 0)"/>
    <use xlink:href="#AppleSDGothicNeo-Regular-4a" transform="translate(5443.90625 0)"/>
    <use xlink:href="#AppleSDGothicNeo-Regular-4f" transform="translate(5466.609375 0)"/>
    <use xlink:href="#AppleSDGothicNeo-Regular-48" transform="translate(5520.203125 0)"/>
    <use xlink:href="#AppleSDGothicNeo-Regular-f" transform="translate(5570.796875 0)"/>
   </g>
  </g>
 </g>
 <defs>
  <clipPath id="p7bc30b1c52">
   <rect x="49.28" y="27.6" width="798.16" height="295.744"/>
  </clipPath>
  <clipPath id="pa4aa2af1d0">
   <rect x="49.28" y="369.144" width="798.16" height="73.936"/>
  </clipPath>
 </defs>
</svg>
