<?xml version="1.0" encoding="utf-8" standalone="no"?>
<!DOCTYPE svg PUBLIC "-//W3C//DTD SVG 1.1//EN"
  "http://www.w3.org/Graphics/SVG/1.1/DTD/svg11.dtd">
<svg xmlns:xlink="http://www.w3.org/1999/xlink" width="864pt" height="504pt" viewBox="0 0 864 504" xmlns="http://www.w3.org/2000/svg" version="1.1">
 <metadata>
  <rdf:RDF xmlns:dc="http://purl.org/dc/elements/1.1/" xmlns:cc="http://creativecommons.org/ns#" xmlns:rdf="http://www.w3.org/1999/02/22-rdf-syntax-ns#">
   <cc:Work>
    <dc:type rdf:resource="http://purl.org/dc/dcmitype/StillImage"/>
    <dc:date>2026-07-13T08:09:28.948775</dc:date>
    <dc:format>image/svg+xml</dc:format>
    <dc:creator>
     <cc:Agent>
      <dc:title>Matplotlib v3.11.0, https://matplotlib.org/</dc:title>
     </cc:Agent>
    </dc:creator>
   </cc:Work>
  </rdf:RDF>
 </metadata>
 <defs>
  <style type="text/css">*{stroke-linejoin: round; stroke-linecap: butt}</style>
 </defs>
 <g id="figure_1">
  <g id="patch_1">
   <path d="M 0 504 
L 864 504 
L 864 0 
L 0 0 
z
" style="fill: #ffffff"/>
  </g>
  <g id="axes_1">
   <g id="patch_2">
    <path d="M 49.28 323.344 
L 847.44 323.344 
L 847.44 27.6 
L 49.28 27.6 
z
" style="fill: #ffffff"/>
   </g>
   <g id="FillBetweenPolyCollection_1">
    <defs>
     <path id="m246f7744a7" d="M 85.56 -413.196067 
L 85.56 -248.764245 
L 89.503478 -246.129161 
L 93.446957 -244.387817 
L 97.390435 -241.808633 
L 101.333913 -245.48681 
L 105.277391 -250.047042 
L 109.22087 -222.775181 
L 113.164348 -194.098909 
L 117.107826 -200.521826 
L 121.051304 -265.44319 
L 124.994783 -273.818889 
L 128.938261 -266.069081 
L 132.881739 -268.934628 
L 136.825217 -273.144083 
L 140.768696 -268.987616 
L 144.712174 -257.159663 
L 148.655652 -264.365717 
L 152.59913 -258.582555 
L 156.542609 -262.643103 
L 160.486087 -262.414611 
L 164.429565 -269.235828 
L 168.373043 -269.898478 
L 172.316522 -268.097824 
L 176.26 -268.645284 
L 180.203478 -270.638681 
L 184.146957 -270.294269 
L 188.090435 -269.557732 
L 192.033913 -268.684766 
L 195.977391 -269.599102 
L 199.92087 -269.471459 
L 203.864348 -269.493042 
L 207.807826 -268.896882 
L 211.751304 -269.62628 
L 215.694783 -268.99634 
L 219.638261 -268.356838 
L 223.581739 -268.877506 
L 227.525217 -267.630292 
L 231.468696 -265.116891 
L 235.412174 -264.436709 
L 239.355652 -264.241546 
L 243.29913 -264.76337 
L 247.242609 -263.649308 
L 251.186087 -262.998276 
L 255.129565 -262.744982 
L 259.073043 -262.354722 
L 263.016522 -262.839316 
L 266.96 -263.001961 
L 270.903478 -262.088505 
L 274.846957 -261.349612 
L 278.790435 -261.011911 
L 282.733913 -260.72295 
L 286.677391 -260.09425 
L 290.62087 -258.606498 
L 294.564348 -256.802262 
L 298.507826 -254.45839 
L 302.451304 -254.328924 
L 306.394783 -253.797774 
L 310.338261 -253.324243 
L 314.281739 -251.748371 
L 318.225217 -249.61207 
L 322.168696 -247.334643 
L 326.112174 -245.745739 
L 330.055652 -247.409836 
L 333.99913 -248.091307 
L 337.942609 -249.661241 
L 341.886087 -250.190267 
L 345.829565 -249.801122 
L 349.773043 -248.335447 
L 353.716522 -247.215124 
L 357.66 -246.228275 
L 361.603478 -244.86122 
L 365.546957 -245.069072 
L 369.490435 -246.122303 
L 373.433913 -248.19818 
L 377.377391 -246.812454 
L 381.32087 -247.123406 
L 385.264348 -249.264185 
L 389.207826 -250.582094 
L 393.151304 -250.147463 
L 397.094783 -250.825609 
L 401.038261 -251.661687 
L 404.981739 -254.09473 
L 408.925217 -256.560609 
L 412.868696 -257.652144 
L 416.812174 -259.464053 
L 420.755652 -261.087765 
L 424.69913 -262.440717 
L 428.642609 -263.490648 
L 432.586087 -264.15343 
L 436.529565 -264.211215 
L 440.473043 -265.180275 
L 444.416522 -266.685347 
L 448.36 -271.349365 
L 452.303478 -272.685382 
L 456.246957 -273.83848 
L 460.190435 -275.101835 
L 464.133913 -274.694963 
L 468.077391 -274.653017 
L 472.02087 -270.919002 
L 475.964348 -266.875279 
L 479.907826 -270.777577 
L 483.851304 -272.465594 
L 487.794783 -275.225512 
L 491.738261 -277.121317 
L 495.681739 -278.995258 
L 499.625217 -276.291134 
L 503.568696 -277.22716 
L 507.512174 -275.06964 
L 511.455652 -272.029701 
L 515.39913 -272.669136 
L 519.342609 -272.146646 
L 523.286087 -271.067457 
L 527.229565 -272.046332 
L 531.173043 -271.79006 
L 535.116522 -271.459924 
L 539.06 -271.343942 
L 543.003478 -271.742047 
L 546.946957 -271.63691 
L 550.890435 -272.178327 
L 554.833913 -272.280722 
L 558.777391 -274.744692 
L 562.72087 -275.348333 
L 566.664348 -275.261994 
L 570.607826 -283.048691 
L 574.551304 -285.612117 
L 578.494783 -287.57034 
L 582.438261 -288.783752 
L 586.381739 -289.044868 
L 590.325217 -291.159991 
L 594.268696 -293.651184 
L 598.212174 -295.13791 
L 602.155652 -296.500379 
L 606.09913 -298.059531 
L 610.042609 -300.980295 
L 613.986087 -303.331713 
L 617.929565 -304.333823 
L 621.873043 -303.185315 
L 625.816522 -305.906308 
L 629.76 -307.192127 
L 633.703478 -308.516185 
L 637.646957 -310.139727 
L 641.590435 -314.906631 
L 645.533913 -321.951391 
L 649.477391 -315.364195 
L 653.42087 -324.527143 
L 657.364348 -322.822964 
L 661.307826 -323.61883 
L 665.251304 -323.395352 
L 669.194783 -329.110544 
L 673.138261 -328.223517 
L 677.081739 -326.221762 
L 681.025217 -325.901614 
L 684.968696 -324.690389 
L 688.912174 -325.241022 
L 692.855652 -325.507647 
L 696.79913 -324.261182 
L 700.742609 -323.367273 
L 704.686087 -321.717089 
L 708.629565 -320.625489 
L 712.573043 -321.786472 
L 716.516522 -322.534411 
L 720.46 -322.50063 
L 724.403478 -313.21049 
L 728.346957 -304.542018 
L 732.290435 -300.891384 
L 736.233913 -297.429268 
L 740.177391 -293.240819 
L 744.12087 -289.741514 
L 748.064348 -286.561841 
L 752.007826 -281.745617 
L 755.951304 -279.228938 
L 759.894783 -279.156575 
L 763.838261 -277.043337 
L 767.781739 -276.83045 
L 771.725217 -275.591744 
L 775.668696 -271.751821 
L 779.612174 -264.961426 
L 783.555652 -262.516341 
L 787.49913 -239.370406 
L 791.442609 -232.534612 
L 795.386087 -247.623068 
L 799.329565 -238.903731 
L 803.273043 -228.484973 
L 807.216522 -215.070004 
L 811.16 -202.197843 
L 811.16 -462.957091 
L 811.16 -462.957091 
L 807.216522 -462.438535 
L 803.273043 -423.207998 
L 799.329565 -371.606393 
L 795.386087 -360.625918 
L 791.442609 -361.597912 
L 787.49913 -359.387642 
L 783.555652 -359.505683 
L 779.612174 -359.899886 
L 775.668696 -362.072496 
L 771.725217 -357.6123 
L 767.781739 -358.967546 
L 763.838261 -356.678524 
L 759.894783 -361.725684 
L 755.951304 -366.992764 
L 752.007826 -373.467578 
L 748.064348 -373.329431 
L 744.12087 -376.585007 
L 740.177391 -379.266814 
L 736.233913 -383.888586 
L 732.290435 -382.327504 
L 728.346957 -378.443982 
L 724.403478 -383.760282 
L 720.46 -388.271189 
L 716.516522 -391.542321 
L 712.573043 -394.203259 
L 708.629565 -394.25603 
L 704.686087 -388.951226 
L 700.742609 -388.482147 
L 696.79913 -385.843056 
L 692.855652 -382.671828 
L 688.912174 -380.828564 
L 684.968696 -376.16103 
L 681.025217 -374.660176 
L 677.081739 -375.768259 
L 673.138261 -370.789798 
L 669.194783 -369.953484 
L 665.251304 -364.09393 
L 661.307826 -363.262717 
L 657.364348 -359.500109 
L 653.42087 -351.598352 
L 649.477391 -352.388862 
L 645.533913 -352.159466 
L 641.590435 -354.837398 
L 637.646957 -349.453349 
L 633.703478 -345.26683 
L 629.76 -343.036859 
L 625.816522 -343.780384 
L 621.873043 -343.132029 
L 617.929565 -341.033689 
L 613.986087 -340.819665 
L 610.042609 -341.721246 
L 606.09913 -340.492145 
L 602.155652 -336.259776 
L 598.212174 -336.574287 
L 594.268696 -334.601339 
L 590.325217 -331.874751 
L 586.381739 -332.306744 
L 582.438261 -331.485241 
L 578.494783 -330.487697 
L 574.551304 -328.01498 
L 570.607826 -325.036085 
L 566.664348 -322.518935 
L 562.72087 -321.591953 
L 558.777391 -321.162769 
L 554.833913 -319.091222 
L 550.890435 -319.682967 
L 546.946957 -320.967306 
L 543.003478 -318.238403 
L 539.06 -317.286707 
L 535.116522 -315.819723 
L 531.173043 -314.276497 
L 527.229565 -313.124623 
L 523.286087 -312.664744 
L 519.342609 -309.472125 
L 515.39913 -306.202449 
L 511.455652 -302.359225 
L 507.512174 -301.438481 
L 503.568696 -302.728415 
L 499.625217 -303.283592 
L 495.681739 -304.815887 
L 491.738261 -309.629798 
L 487.794783 -310.650942 
L 483.851304 -308.415228 
L 479.907826 -305.034349 
L 475.964348 -302.145651 
L 472.02087 -299.981014 
L 468.077391 -301.353836 
L 464.133913 -302.026989 
L 460.190435 -302.142757 
L 456.246957 -301.343311 
L 452.303478 -301.920245 
L 448.36 -304.488538 
L 444.416522 -297.07161 
L 440.473043 -291.297473 
L 436.529565 -290.389825 
L 432.586087 -291.207662 
L 428.642609 -294.085171 
L 424.69913 -293.387389 
L 420.755652 -292.95844 
L 416.812174 -291.307633 
L 412.868696 -289.867915 
L 408.925217 -286.526475 
L 404.981739 -283.667957 
L 401.038261 -281.21794 
L 397.094783 -281.342046 
L 393.151304 -282.419563 
L 389.207826 -280.841163 
L 385.264348 -280.01383 
L 381.32087 -279.11272 
L 377.377391 -276.52535 
L 373.433913 -274.403731 
L 369.490435 -271.911382 
L 365.546957 -272.725617 
L 361.603478 -273.057616 
L 357.66 -272.065195 
L 353.716522 -271.725844 
L 349.773043 -271.084263 
L 345.829565 -271.841589 
L 341.886087 -271.756666 
L 337.942609 -271.475144 
L 333.99913 -271.598521 
L 330.055652 -272.044361 
L 326.112174 -271.813016 
L 322.168696 -271.589176 
L 318.225217 -272.029356 
L 314.281739 -275.172526 
L 310.338261 -275.808105 
L 306.394783 -277.698207 
L 302.451304 -278.753433 
L 298.507826 -280.022061 
L 294.564348 -280.727087 
L 290.62087 -282.919504 
L 286.677391 -285.363134 
L 282.733913 -285.984137 
L 278.790435 -287.257951 
L 274.846957 -289.580004 
L 270.903478 -290.523041 
L 266.96 -290.313925 
L 263.016522 -292.282821 
L 259.073043 -293.884415 
L 255.129565 -295.235651 
L 251.186087 -295.752139 
L 247.242609 -298.068105 
L 243.29913 -300.421109 
L 239.355652 -301.099707 
L 235.412174 -303.172668 
L 231.468696 -307.605407 
L 227.525217 -312.113939 
L 223.581739 -315.031445 
L 219.638261 -316.354903 
L 215.694783 -317.237922 
L 211.751304 -318.505222 
L 207.807826 -314.537013 
L 203.864348 -310.586124 
L 199.92087 -309.777461 
L 195.977391 -309.39346 
L 192.033913 -308.324945 
L 188.090435 -309.9926 
L 184.146957 -313.54174 
L 180.203478 -315.524097 
L 176.26 -316.470306 
L 172.316522 -313.739281 
L 168.373043 -326.992293 
L 164.429565 -319.616905 
L 160.486087 -340.437358 
L 156.542609 -367.440789 
L 152.59913 -388.543794 
L 148.655652 -403.258476 
L 144.712174 -407.312016 
L 140.768696 -404.047953 
L 136.825217 -380.612865 
L 132.881739 -378.157016 
L 128.938261 -382.362486 
L 124.994783 -422.909155 
L 121.051304 -457.595698 
L 117.107826 -448.366644 
L 113.164348 -453.698818 
L 109.22087 -444.346156 
L 105.277391 -438.029353 
L 101.333913 -427.419382 
L 97.390435 -432.680932 
L 93.446957 -413.153367 
L 89.503478 -414.074332 
L 85.56 -413.196067 
z
" style="stroke: #a7dff3; stroke-opacity: 0.55"/>
    </defs>
    <g clip-path="url(#p012fa3467e)">
     <use xlink:href="#m246f7744a7" x="0" y="504" style="fill: #a7dff3; fill-opacity: 0.55; stroke: #a7dff3; stroke-opacity: 0.55"/>
    </g>
   </g>
   <g id="matplotlib.axis_1">
    <g id="xtick_1">
     <g id="line2d_1">
      <defs>
       <path id="m9a63e5008b" d="M 0 0 
L 0 3.5 
" style="stroke: #000000; stroke-width: 0.8"/>
      </defs>
      <g>
       <use xlink:href="#m9a63e5008b" x="85.56" y="323.344" style="stroke: #000000; stroke-width: 0.8"/>
      </g>
     </g>
     <g id="text_1">
      <!-- 0 -->
      <g transform="translate(82.41 339.344) scale(0.1 -0.1)">
       <defs>
        <path id="AppleSDGothicNeo-Regular-11" d="M 2022 192 
C 2893 192 3558 787 3558 2240 
L 3558 2630 
C 3558 4122 2867 4634 2029 4634 
C 1184 4634 448 4122 448 2605 
L 448 2246 
C 448 794 1139 192 2022 192 
z
M 2022 614 
C 1350 614 992 1126 992 2195 
L 992 2669 
C 992 3744 1357 4211 2029 4211 
C 2688 4211 3040 3718 3040 2637 
L 3040 2163 
C 3040 1062 2682 614 2022 614 
z
" transform="scale(0.015625)"/>
       </defs>
       <use xlink:href="#AppleSDGothicNeo-Regular-11"/>
      </g>
     </g>
    </g>
    <g id="xtick_2">
     <g id="line2d_2">
      <g>
       <use xlink:href="#m9a63e5008b" x="184.146957" y="323.344" style="stroke: #000000; stroke-width: 0.8"/>
      </g>
     </g>
     <g id="text_2">
      <!-- 25 -->
      <g transform="translate(178.9868 339.344) scale(0.1 -0.1)">
       <defs>
        <path id="AppleSDGothicNeo-Regular-13" d="M 397 269 
L 3066 269 
L 3066 704 
L 1107 704 
L 1779 1382 
C 2522 2138 2970 2650 2970 3392 
C 2970 4160 2502 4640 1638 4640 
C 1152 4640 717 4422 448 4250 
L 595 3846 
C 845 4019 1190 4198 1555 4198 
C 2163 4198 2438 3917 2438 3347 
C 2438 2733 2029 2266 1421 1632 
L 397 570 
L 397 269 
z
" transform="scale(0.015625)"/>
        <path id="AppleSDGothicNeo-Regular-16" d="M 1395 192 
C 2342 192 2906 838 2906 1606 
C 2906 2509 2374 2918 1510 2918 
C 1331 2918 1069 2874 896 2829 
L 986 4134 
L 2752 4134 
L 2752 4570 
L 576 4570 
L 422 2317 
C 621 2406 1024 2528 1318 2528 
C 1990 2528 2374 2266 2374 1613 
C 2374 1005 1978 621 1299 621 
C 947 621 525 768 288 928 
L 192 518 
C 448 333 896 192 1395 192 
z
" transform="scale(0.015625)"/>
       </defs>
       <use xlink:href="#AppleSDGothicNeo-Regular-13"/>
       <use xlink:href="#AppleSDGothicNeo-Regular-16" transform="translate(53.296875 0)"/>
      </g>
     </g>
    </g>
    <g id="xtick_3">
     <g id="line2d_3">
      <g>
       <use xlink:href="#m9a63e5008b" x="282.733913" y="323.344" style="stroke: #000000; stroke-width: 0.8"/>
      </g>
     </g>
     <g id="text_3">
      <!-- 50 -->
      <g transform="translate(277.088601 339.344) scale(0.1 -0.1)">
       <use xlink:href="#AppleSDGothicNeo-Regular-16"/>
       <use xlink:href="#AppleSDGothicNeo-Regular-11" transform="translate(49.90625 0)"/>
      </g>
     </g>
    </g>
    <g id="xtick_4">
     <g id="line2d_4">
      <g>
       <use xlink:href="#m9a63e5008b" x="381.32087" y="323.344" style="stroke: #000000; stroke-width: 0.8"/>
      </g>
     </g>
     <g id="text_4">
      <!-- 75 -->
      <g transform="translate(376.375557 339.344) scale(0.1 -0.1)">
       <defs>
        <path id="AppleSDGothicNeo-Regular-18" d="M 710 243 
L 1274 243 
L 2957 4218 
L 2957 4544 
L 218 4544 
L 218 4115 
L 2400 4115 
L 710 243 
z
" transform="scale(0.015625)"/>
       </defs>
       <use xlink:href="#AppleSDGothicNeo-Regular-18"/>
       <use xlink:href="#AppleSDGothicNeo-Regular-16" transform="translate(49 0)"/>
      </g>
     </g>
    </g>
    <g id="xtick_5">
     <g id="line2d_5">
      <g>
       <use xlink:href="#m9a63e5008b" x="479.907826" y="323.344" style="stroke: #000000; stroke-width: 0.8"/>
      </g>
     </g>
     <g id="text_5">
      <!-- 100 -->
      <g transform="translate(471.82267 339.344) scale(0.1 -0.1)">
       <defs>
        <path id="AppleSDGothicNeo-Regular-12" d="M 1146 243 
L 1632 243 
L 1632 4634 
L 1363 4634 
L 352 4160 
L 352 3866 
L 1146 4051 
L 1146 243 
z
" transform="scale(0.015625)"/>
       </defs>
       <use xlink:href="#AppleSDGothicNeo-Regular-12"/>
       <use xlink:href="#AppleSDGothicNeo-Regular-11" transform="translate(35.703125 0)"/>
       <use xlink:href="#AppleSDGothicNeo-Regular-11" transform="translate(98.703125 0)"/>
      </g>
     </g>
    </g>
    <g id="xtick_6">
     <g id="line2d_6">
      <g>
       <use xlink:href="#m9a63e5008b" x="578.494783" y="323.344" style="stroke: #000000; stroke-width: 0.8"/>
      </g>
     </g>
     <g id="text_6">
      <!-- 125 -->
      <g transform="translate(571.54947 339.344) scale(0.1 -0.1)">
       <use xlink:href="#AppleSDGothicNeo-Regular-12"/>
       <use xlink:href="#AppleSDGothicNeo-Regular-13" transform="translate(35.703125 0)"/>
       <use xlink:href="#AppleSDGothicNeo-Regular-16" transform="translate(89 0)"/>
      </g>
     </g>
    </g>
    <g id="xtick_7">
     <g id="line2d_7">
      <g>
       <use xlink:href="#m9a63e5008b" x="677.081739" y="323.344" style="stroke: #000000; stroke-width: 0.8"/>
      </g>
     </g>
     <g id="text_7">
      <!-- 150 -->
      <g transform="translate(669.65127 339.344) scale(0.1 -0.1)">
       <use xlink:href="#AppleSDGothicNeo-Regular-12"/>
       <use xlink:href="#AppleSDGothicNeo-Regular-16" transform="translate(35.703125 0)"/>
       <use xlink:href="#AppleSDGothicNeo-Regular-11" transform="translate(85.609375 0)"/>
      </g>
     </g>
    </g>
    <g id="xtick_8">
     <g id="line2d_8">
      <g>
       <use xlink:href="#m9a63e5008b" x="775.668696" y="323.344" style="stroke: #000000; stroke-width: 0.8"/>
      </g>
     </g>
     <g id="text_8">
      <!-- 175 -->
      <g transform="translate(768.938227 339.344) scale(0.1 -0.1)">
       <use xlink:href="#AppleSDGothicNeo-Regular-12"/>
       <use xlink:href="#AppleSDGothicNeo-Regular-18" transform="translate(35.703125 0)"/>
       <use xlink:href="#AppleSDGothicNeo-Regular-16" transform="translate(84.703125 0)"/>
      </g>
     </g>
    </g>
    <g id="text_9">
     <!-- time index -->
     <g transform="translate(426.270156 355.344) scale(0.1 -0.1)">
      <defs>
       <path id="AppleSDGothicNeo-Regular-55" d="M 1472 230 
C 1747 230 1882 301 2010 358 
L 2010 691 
C 1882 653 1734 634 1600 634 
C 1235 634 1133 755 1133 1062 
L 1133 3034 
L 1946 3034 
L 1946 3437 
L 1133 3437 
L 1133 4192 
L 646 4192 
L 646 3437 
L 192 3437 
L 192 3034 
L 646 3034 
L 646 986 
C 646 448 973 230 1472 230 
z
" transform="scale(0.015625)"/>
       <path id="AppleSDGothicNeo-Regular-4a" d="M 486 269 
L 973 269 
L 973 3437 
L 486 3437 
L 486 269 
z
M 480 4077 
L 979 4077 
L 979 4589 
L 480 4589 
L 480 4077 
z
" transform="scale(0.015625)"/>
       <path id="AppleSDGothicNeo-Regular-4e" d="M 467 269 
L 954 269 
L 954 2848 
C 1210 2970 1491 3078 1760 3078 
C 2182 3078 2336 2918 2336 2534 
L 2336 269 
L 2822 269 
L 2822 2637 
C 2822 2714 2816 2771 2803 2848 
C 3104 2982 3373 3078 3622 3078 
C 4051 3078 4205 2918 4205 2534 
L 4205 269 
L 4685 269 
L 4685 2637 
C 4685 3251 4365 3501 3814 3501 
C 3456 3501 3085 3373 2739 3149 
L 2714 3149 
C 2566 3386 2310 3501 1952 3501 
C 1594 3501 1254 3354 960 3168 
L 934 3168 
L 934 3443 
L 467 3443 
L 467 269 
z
" transform="scale(0.015625)"/>
       <path id="AppleSDGothicNeo-Regular-46" d="M 1773 211 
C 2285 211 2650 371 2842 506 
L 2842 870 
C 2554 736 2272 634 1850 634 
C 1171 634 794 941 768 1734 
L 2931 1734 
L 2931 2010 
C 2931 2995 2522 3501 1651 3501 
C 922 3501 269 3008 269 1901 
L 269 1811 
C 269 819 774 211 1773 211 
z
M 1638 3104 
C 2157 3104 2419 2816 2419 2125 
L 768 2125 
C 819 2874 1242 3104 1638 3104 
z
" transform="scale(0.015625)"/>
       <path id="AppleSDGothicNeo-Regular-1" transform="scale(0.015625)"/>
       <path id="AppleSDGothicNeo-Regular-4f" d="M 467 269 
L 954 269 
L 954 2848 
C 1216 2970 1549 3078 1850 3078 
C 2355 3078 2490 2918 2490 2534 
L 2490 269 
L 2976 269 
L 2976 2637 
C 2976 3251 2675 3501 2054 3501 
C 1664 3501 1254 3360 960 3168 
L 934 3168 
L 934 3443 
L 467 3443 
L 467 269 
z
" transform="scale(0.015625)"/>
       <path id="AppleSDGothicNeo-Regular-45" d="M 1600 211 
C 2029 211 2336 346 2528 531 
L 2554 531 
L 2611 269 
L 3021 269 
L 3021 4851 
L 2528 4851 
L 2528 3290 
C 2355 3392 2086 3501 1696 3501 
C 877 3501 282 3002 282 1850 
L 282 1766 
C 282 595 966 211 1600 211 
z
M 1747 614 
C 1178 614 794 896 794 1786 
L 794 1914 
C 794 2771 1158 3085 1760 3085 
C 2086 3085 2381 2995 2528 2880 
L 2528 883 
C 2368 755 2118 614 1747 614 
z
" transform="scale(0.015625)"/>
       <path id="AppleSDGothicNeo-Regular-59" d="M 147 269 
L 685 269 
L 1510 1536 
L 2317 269 
L 2899 269 
L 1837 1882 
L 2822 3443 
L 2291 3443 
L 1568 2234 
L 774 3443 
L 198 3443 
L 1229 1882 
L 147 269 
z
" transform="scale(0.015625)"/>
      </defs>
      <use xlink:href="#AppleSDGothicNeo-Regular-55"/>
      <use xlink:href="#AppleSDGothicNeo-Regular-4a" transform="translate(35 0)"/>
      <use xlink:href="#AppleSDGothicNeo-Regular-4e" transform="translate(57.703125 0)"/>
      <use xlink:href="#AppleSDGothicNeo-Regular-46" transform="translate(138 0)"/>
      <use xlink:href="#AppleSDGothicNeo-Regular-1" transform="translate(188 0)"/>
      <use xlink:href="#AppleSDGothicNeo-Regular-4a" transform="translate(214.296875 0)"/>
      <use xlink:href="#AppleSDGothicNeo-Regular-4f" transform="translate(237 0)"/>
      <use xlink:href="#AppleSDGothicNeo-Regular-45" transform="translate(290.59375 0)"/>
      <use xlink:href="#AppleSDGothicNeo-Regular-46" transform="translate(345.09375 0)"/>
      <use xlink:href="#AppleSDGothicNeo-Regular-59" transform="translate(394.09375 0)"/>
     </g>
    </g>
   </g>
   <g id="matplotlib.axis_2">
    <g id="ytick_1">
     <g id="line2d_9">
      <defs>
       <path id="mdd23cb9aab" d="M 0 0 
L -3.5 0 
" style="stroke: #000000; stroke-width: 0.8"/>
      </defs>
      <g>
       <use xlink:href="#mdd23cb9aab" x="49.28" y="317.081082" style="stroke: #000000; stroke-width: 0.8"/>
      </g>
     </g>
     <g id="text_10">
      <!-- -30 -->
      <g transform="translate(26.659688 321.581082) scale(0.1 -0.1)">
       <defs>
        <path id="AppleSDGothicNeo-Regular-e" d="M 333 2138 
L 2445 2138 
L 2445 2560 
L 333 2560 
L 333 2138 
z
" transform="scale(0.015625)"/>
        <path id="AppleSDGothicNeo-Regular-14" d="M 1491 205 
C 2445 205 3053 730 3053 1478 
C 3053 2144 2630 2458 2074 2566 
C 2560 2726 2893 3040 2893 3571 
C 2893 4243 2368 4634 1600 4634 
C 1229 4634 723 4474 467 4301 
L 544 3891 
C 813 4045 1146 4198 1498 4198 
C 2022 4198 2362 4013 2362 3488 
C 2362 3008 1984 2726 1427 2726 
L 1043 2726 
L 1043 2291 
L 1459 2291 
C 2112 2291 2534 2029 2534 1478 
C 2534 947 2138 634 1427 634 
C 1107 634 678 755 435 915 
L 326 512 
C 563 346 992 205 1491 205 
z
" transform="scale(0.015625)"/>
       </defs>
       <use xlink:href="#AppleSDGothicNeo-Regular-e"/>
       <use xlink:href="#AppleSDGothicNeo-Regular-14" transform="translate(39.609375 0)"/>
       <use xlink:href="#AppleSDGothicNeo-Regular-11" transform="translate(93.203125 0)"/>
      </g>
     </g>
    </g>
    <g id="ytick_2">
     <g id="line2d_10">
      <g>
       <use xlink:href="#mdd23cb9aab" x="49.28" y="277.641424" style="stroke: #000000; stroke-width: 0.8"/>
      </g>
     </g>
     <g id="text_11">
      <!-- -20 -->
      <g transform="translate(26.689375 282.141424) scale(0.1 -0.1)">
       <use xlink:href="#AppleSDGothicNeo-Regular-e"/>
       <use xlink:href="#AppleSDGothicNeo-Regular-13" transform="translate(40.109375 0)"/>
       <use xlink:href="#AppleSDGothicNeo-Regular-11" transform="translate(92.90625 0)"/>
      </g>
     </g>
    </g>
    <g id="ytick_3">
     <g id="line2d_11">
      <g>
       <use xlink:href="#mdd23cb9aab" x="49.28" y="238.201766" style="stroke: #000000; stroke-width: 0.8"/>
      </g>
     </g>
     <g id="text_12">
      <!-- -10 -->
      <g transform="translate(28.669063 242.701766) scale(0.1 -0.1)">
       <use xlink:href="#AppleSDGothicNeo-Regular-e"/>
       <use xlink:href="#AppleSDGothicNeo-Regular-12" transform="translate(37.40625 0)"/>
       <use xlink:href="#AppleSDGothicNeo-Regular-11" transform="translate(73.109375 0)"/>
      </g>
     </g>
    </g>
    <g id="ytick_4">
     <g id="line2d_12">
      <g>
       <use xlink:href="#mdd23cb9aab" x="49.28" y="198.762108" style="stroke: #000000; stroke-width: 0.8"/>
      </g>
     </g>
     <g id="text_13">
      <!-- 0 -->
      <g transform="translate(35.98 203.262108) scale(0.1 -0.1)">
       <use xlink:href="#AppleSDGothicNeo-Regular-11"/>
      </g>
     </g>
    </g>
    <g id="ytick_5">
     <g id="line2d_13">
      <g>
       <use xlink:href="#mdd23cb9aab" x="49.28" y="159.32245" style="stroke: #000000; stroke-width: 0.8"/>
      </g>
     </g>
     <g id="text_14">
      <!-- 10 -->
      <g transform="translate(32.409688 163.82245) scale(0.1 -0.1)">
       <use xlink:href="#AppleSDGothicNeo-Regular-12"/>
       <use xlink:href="#AppleSDGothicNeo-Regular-11" transform="translate(35.703125 0)"/>
      </g>
     </g>
    </g>
    <g id="ytick_6">
     <g id="line2d_14">
      <g>
       <use xlink:href="#mdd23cb9aab" x="49.28" y="119.882792" style="stroke: #000000; stroke-width: 0.8"/>
      </g>
     </g>
     <g id="text_15">
      <!-- 20 -->
      <g transform="translate(30.700313 124.382792) scale(0.1 -0.1)">
       <use xlink:href="#AppleSDGothicNeo-Regular-13"/>
       <use xlink:href="#AppleSDGothicNeo-Regular-11" transform="translate(52.796875 0)"/>
      </g>
     </g>
    </g>
    <g id="ytick_7">
     <g id="line2d_15">
      <g>
       <use xlink:href="#mdd23cb9aab" x="49.28" y="80.443134" style="stroke: #000000; stroke-width: 0.8"/>
      </g>
     </g>
     <g id="text_16">
      <!-- 30 -->
      <g transform="translate(30.620625 84.943134) scale(0.1 -0.1)">
       <use xlink:href="#AppleSDGothicNeo-Regular-14"/>
       <use xlink:href="#AppleSDGothicNeo-Regular-11" transform="translate(53.59375 0)"/>
      </g>
     </g>
    </g>
    <g id="ytick_8">
     <g id="line2d_16">
      <g>
       <use xlink:href="#mdd23cb9aab" x="49.28" y="41.003476" style="stroke: #000000; stroke-width: 0.8"/>
      </g>
     </g>
     <g id="text_17">
      <!-- 40 -->
      <g transform="translate(30.43 45.503476) scale(0.1 -0.1)">
       <defs>
        <path id="AppleSDGothicNeo-Regular-15" d="M 2214 166 
L 2682 166 
L 2682 1171 
L 3398 1171 
L 3398 1587 
L 2682 1587 
L 2682 4621 
L 2285 4621 
L 186 1555 
L 186 1171 
L 2214 1171 
L 2214 166 
z
M 730 1587 
L 2214 3814 
L 2214 1587 
L 730 1587 
z
" transform="scale(0.015625)"/>
       </defs>
       <use xlink:href="#AppleSDGothicNeo-Regular-15"/>
       <use xlink:href="#AppleSDGothicNeo-Regular-11" transform="translate(55.5 0)"/>
      </g>
     </g>
    </g>
    <g id="text_18">
     <!-- value -->
     <g transform="translate(19.659688 186.502469) rotate(-90) scale(0.1 -0.1)">
      <defs>
       <path id="AppleSDGothicNeo-Regular-57" d="M 1331 269 
L 1818 269 
L 2995 3443 
L 2515 3443 
L 1600 890 
L 1574 890 
L 685 3443 
L 154 3443 
L 1331 269 
z
" transform="scale(0.015625)"/>
       <path id="AppleSDGothicNeo-Regular-42" d="M 1242 211 
C 1670 211 1939 365 2086 544 
L 2118 544 
L 2170 269 
L 2566 269 
L 2566 2566 
C 2566 3213 2176 3501 1478 3501 
C 1114 3501 806 3443 531 3328 
L 531 2976 
C 730 3034 979 3078 1286 3078 
C 1856 3078 2074 2950 2074 2458 
L 2074 2125 
L 1216 2022 
C 608 1952 250 1658 250 1101 
C 250 506 666 211 1242 211 
z
M 1363 595 
C 998 595 762 768 762 1114 
C 762 1478 954 1638 1344 1677 
L 2074 1760 
L 2074 826 
C 1939 691 1658 595 1363 595 
z
" transform="scale(0.015625)"/>
       <path id="AppleSDGothicNeo-Regular-4d" d="M 480 269 
L 973 269 
L 973 4851 
L 480 4851 
L 480 269 
z
" transform="scale(0.015625)"/>
       <path id="AppleSDGothicNeo-Regular-56" d="M 1421 211 
C 1805 211 2144 358 2432 557 
L 2458 557 
L 2502 269 
L 2925 269 
L 2925 3443 
L 2438 3443 
L 2438 883 
C 2176 755 1894 634 1555 634 
C 1088 634 941 800 941 1210 
L 941 3443 
L 448 3443 
L 448 1139 
C 448 525 800 211 1421 211 
z
" transform="scale(0.015625)"/>
      </defs>
      <use xlink:href="#AppleSDGothicNeo-Regular-57"/>
      <use xlink:href="#AppleSDGothicNeo-Regular-42" transform="translate(47.703125 0)"/>
      <use xlink:href="#AppleSDGothicNeo-Regular-4d" transform="translate(94.90625 0)"/>
      <use xlink:href="#AppleSDGothicNeo-Regular-56" transform="translate(117.609375 0)"/>
      <use xlink:href="#AppleSDGothicNeo-Regular-46" transform="translate(170.609375 0)"/>
     </g>
    </g>
   </g>
   <g id="line2d_17">
    <path d="M 85.56 200.536893 
L 89.503478 179.780487 
L 93.446957 169.202084 
L 97.390435 169.137353 
L 101.333913 164.898875 
L 105.277391 171.820963 
L 109.22087 176.934828 
L 113.164348 180.240045 
L 117.107826 186.906204 
L 121.051304 189.879397 
L 124.994783 185.528387 
L 128.938261 188.448638 
L 132.881739 195.503192 
L 136.825217 210.129303 
L 140.768696 213.378789 
L 144.712174 214.363708 
L 148.655652 212.173307 
L 152.59913 216.592264 
L 156.542609 214.473239 
L 160.486087 215.158717 
L 164.429565 216.700294 
L 168.373043 215.501242 
L 176.26 214.301334 
L 180.203478 212.457958 
L 184.146957 212.195599 
L 188.090435 213.029405 
L 192.033913 214.24346 
L 195.977391 216.461084 
L 199.92087 216.021889 
L 203.864348 218.290312 
L 207.807826 218.857257 
L 211.751304 219.305025 
L 215.694783 221.196842 
L 219.638261 222.534363 
L 223.581739 221.923905 
L 227.525217 224.310433 
L 231.468696 224.070365 
L 239.355652 226.717109 
L 243.29913 227.062634 
L 247.242609 227.943597 
L 251.186087 228.424161 
L 255.129565 229.034618 
L 270.903478 232.769811 
L 274.846957 233.518737 
L 278.790435 233.906701 
L 282.733913 235.13619 
L 286.677391 237.294868 
L 294.564348 238.124602 
L 310.338261 239.512706 
L 314.281739 239.97398 
L 318.225217 241.586718 
L 322.168696 242.936239 
L 326.112174 243.846997 
L 330.055652 244.297765 
L 333.99913 244.914655 
L 337.942609 246.141141 
L 341.886087 246.365347 
L 345.829565 245.967948 
L 349.773043 245.166724 
L 353.716522 245.611277 
L 357.66 244.59099 
L 361.603478 245.067697 
L 365.546957 245.103706 
L 373.433913 242.977395 
L 377.377391 243.719888 
L 381.32087 243.026265 
L 385.264348 243.625577 
L 389.207826 242.129442 
L 393.151304 239.991126 
L 397.094783 238.207982 
L 401.038261 237.553583 
L 404.981739 236.0343 
L 408.925217 233.102048 
L 412.868696 231.597339 
L 416.812174 231.038324 
L 420.755652 231.128993 
L 424.69913 230.438583 
L 428.642609 228.789405 
L 432.586087 227.925163 
L 436.529565 226.358508 
L 440.473043 225.553639 
L 448.36 222.504782 
L 456.246957 221.619534 
L 460.190435 220.877039 
L 464.133913 219.807452 
L 468.077391 220.546518 
L 475.964348 216.29818 
L 479.907826 214.733455 
L 483.851304 211.909232 
L 487.794783 212.449813 
L 491.738261 213.465385 
L 495.681739 213.399365 
L 499.625217 212.091427 
L 503.568696 212.82106 
L 507.512174 211.578926 
L 511.455652 211.327927 
L 515.39913 212.79491 
L 519.342609 211.419238 
L 523.286087 208.833153 
L 527.229565 207.274216 
L 531.173043 207.587161 
L 535.116522 206.059302 
L 543.003478 204.731214 
L 546.946957 201.507451 
L 550.890435 199.307404 
L 554.833913 197.776117 
L 558.777391 195.193676 
L 562.72087 195.187675 
L 566.664348 194.394166 
L 570.607826 193.027925 
L 574.551304 190.770433 
L 578.494783 189.123399 
L 582.438261 189.951203 
L 586.381739 189.540088 
L 590.325217 189.70299 
L 594.268696 189.173127 
L 598.212174 187.554386 
L 602.155652 185.385634 
L 606.09913 183.712449 
L 610.042609 184.112848 
L 613.986087 179.760767 
L 617.929565 180.079928 
L 621.873043 175.828804 
L 625.816522 174.690198 
L 629.76 174.901114 
L 633.703478 174.406405 
L 637.646957 173.117757 
L 641.590435 169.122348 
L 645.533913 170.489017 
L 649.477391 170.020029 
L 653.42087 167.837986 
L 657.364348 167.179517 
L 661.307826 166.281833 
L 665.251304 167.411653 
L 669.194783 165.974892 
L 673.138261 163.6143 
L 677.081739 161.512636 
L 684.968696 160.366745 
L 688.912174 156.479793 
L 692.855652 158.317168 
L 696.79913 159.153545 
L 700.742609 153.788893 
L 704.686087 148.690891 
L 708.629565 144.280507 
L 712.573043 146.068582 
L 716.516522 148.84179 
L 720.46 149.526626 
L 724.403478 152.691872 
L 728.346957 154.25274 
L 732.290435 154.993519 
L 736.233913 154.647137 
L 740.177391 154.483376 
L 744.12087 157.570817 
L 748.064348 157.082962 
L 752.007826 160.712271 
L 755.951304 162.123093 
L 759.894783 165.551986 
L 763.838261 164.946032 
L 767.781739 166.888434 
L 771.725217 169.566472 
L 775.668696 170.798104 
L 779.612174 175.780791 
L 783.555652 179.854865 
L 787.49913 180.625868 
L 791.442609 184.807756 
L 795.386087 177.132027 
L 799.329565 175.31266 
L 803.273043 174.918263 
L 807.216522 177.929824 
L 811.16 166.106072 
L 811.16 166.106072 
" clip-path="url(#p012fa3467e)" style="fill: none; stroke: #2378a8; stroke-width: 1.2; stroke-linecap: square"/>
   </g>
   <g id="line2d_18">
    <path d="M 85.56 190.716418 
L 89.503478 187.719004 
L 93.446957 170.681072 
L 97.390435 117.516411 
L 101.333913 102.253268 
L 105.277391 93.221582 
L 109.22087 129.151113 
L 113.164348 151.197879 
L 117.107826 257.684956 
L 121.051304 161.964908 
L 124.994783 203.297669 
L 128.938261 218.363617 
L 132.881739 220.769437 
L 136.825217 220.927196 
L 140.768696 218.994653 
L 144.712174 217.693145 
L 148.655652 214.340773 
L 152.59913 212.684307 
L 156.542609 211.382799 
L 160.486087 213.039264 
L 164.429565 214.301334 
L 168.373043 216.746592 
L 172.316522 219.980645 
L 176.26 223.766852 
L 180.203478 225.383877 
L 184.146957 225.462757 
L 188.090435 227.43474 
L 192.033913 228.57849 
L 199.92087 229.801119 
L 211.751304 231.181508 
L 215.694783 231.142068 
L 219.638261 230.589911 
L 223.581739 230.392716 
L 227.525217 230.471593 
L 243.29913 232.1675 
L 247.242609 232.404136 
L 251.186087 232.522457 
L 255.129565 232.837974 
L 259.073043 233.035169 
L 266.96 234.060601 
L 270.903478 233.863402 
L 274.846957 233.823966 
L 278.790435 233.981724 
L 282.733913 233.863402 
L 286.677391 234.060601 
L 290.62087 234.455 
L 294.564348 234.533877 
L 302.451304 234.533877 
L 306.394783 235.63819 
L 310.338261 235.756508 
L 314.281739 236.466423 
L 318.225217 237.531292 
L 326.112174 240.607584 
L 333.99913 242.027414 
L 341.886087 245.222024 
L 345.829565 247.194007 
L 349.773043 248.929354 
L 353.716522 250.861897 
L 357.66 252.952197 
L 365.546957 254.214269 
L 369.490435 254.845303 
L 373.433913 253.938189 
L 377.377391 253.78043 
L 381.32087 253.307155 
L 385.264348 252.59724 
L 393.151304 249.797024 
L 397.094783 248.653274 
L 401.038261 247.15457 
L 404.981739 246.129138 
L 408.925217 245.379783 
L 412.868696 244.314914 
L 416.812174 242.382372 
L 420.755652 240.055431 
L 424.69913 239.582156 
L 428.642609 236.78194 
L 432.586087 234.691635 
L 436.529565 232.1675 
L 440.473043 213.315342 
L 444.416522 212.36879 
L 448.36 210.633445 
L 452.303478 209.095298 
L 456.246957 210.475687 
L 460.190435 208.85866 
L 464.133913 208.85866 
L 468.077391 210.199609 
L 472.02087 209.016419 
L 475.964348 208.227627 
L 479.907826 208.345945 
L 483.851304 208.188187 
L 487.794783 207.912109 
L 491.738261 206.847238 
L 495.681739 207.162756 
L 503.568696 202.706074 
L 507.512174 201.798962 
L 511.455652 200.339695 
L 515.39913 199.274824 
L 519.342609 197.618358 
L 523.286087 197.302841 
L 527.229565 196.080211 
L 531.173043 196.474608 
L 535.116522 196.632367 
L 539.06 198.209953 
L 543.003478 198.56491 
L 546.946957 199.984738 
L 550.890435 200.655212 
L 558.777391 201.049608 
L 566.664348 201.286246 
L 570.607826 201.049608 
L 574.551304 199.945298 
L 578.494783 199.195944 
L 582.438261 198.328272 
L 586.381739 197.618358 
L 590.325217 197.657798 
L 594.268696 197.460599 
L 598.212174 192.925039 
L 606.09913 196.592927 
L 610.042609 198.840988 
L 613.986087 200.181936 
L 617.929565 201.877841 
L 621.873043 202.863833 
L 625.816522 203.692065 
L 629.76 204.678057 
L 633.703478 205.309091 
L 637.646957 204.954135 
L 641.590435 206.373962 
L 645.533913 208.819221 
L 653.42087 214.380213 
L 657.364348 216.115558 
L 661.307826 218.087541 
L 665.251304 220.532799 
L 669.194783 219.941204 
L 673.138261 221.400471 
L 677.081739 224.319007 
L 681.025217 225.738835 
L 684.968696 229.446163 
L 688.912174 231.93086 
L 692.855652 235.046593 
L 696.79913 235.914266 
L 700.742609 236.900258 
L 704.686087 236.466423 
L 708.629565 235.598749 
L 712.573043 237.965127 
L 716.516522 239.266639 
L 720.46 240.962542 
L 724.403478 244.354355 
L 728.346957 247.588405 
L 732.290435 248.337757 
L 736.233913 249.836465 
L 740.177391 250.901337 
L 744.12087 250.901337 
L 748.064348 248.850473 
L 752.007826 248.101121 
L 755.951304 245.616422 
L 759.894783 243.486681 
L 763.838261 243.131724 
L 767.781739 242.579567 
L 771.725217 242.54013 
L 775.668696 243.4078 
L 779.612174 245.576982 
L 783.555652 246.760172 
L 791.442609 246.089698 
L 795.386087 243.4078 
L 799.329565 238.359525 
L 803.273043 230.274394 
L 807.216522 217.969221 
L 811.16 206.807798 
L 811.16 206.807798 
" clip-path="url(#p012fa3467e)" style="fill: none; stroke: #e45756; stroke-width: 1.1; stroke-linecap: square"/>
   </g>
   <g id="patch_3">
    <path d="M 49.28 323.344 
L 49.28 27.6 
" style="fill: none; stroke: #000000; stroke-width: 0.8; stroke-linejoin: miter; stroke-linecap: square"/>
   </g>
   <g id="patch_4">
    <path d="M 847.44 323.344 
L 847.44 27.6 
" style="fill: none; stroke: #000000; stroke-width: 0.8; stroke-linejoin: miter; stroke-linecap: square"/>
   </g>
   <g id="patch_5">
    <path d="M 49.28 323.344 
L 847.44 323.344 
" style="fill: none; stroke: #000000; stroke-width: 0.8; stroke-linejoin: miter; stroke-linecap: square"/>
   </g>
   <g id="patch_6">
    <path d="M 49.28 27.6 
L 847.44 27.6 
" style="fill: none; stroke: #000000; stroke-width: 0.8; stroke-linejoin: miter; stroke-linecap: square"/>
   </g>
   <g id="text_19">
    <!-- primary score=1.0296, threshold=0.449005 -->
    <g transform="translate(57.2616 317.98656) scale(0.08 -0.08)">
     <defs>
      <path id="AppleSDGothicNeo-Regular-51" d="M 467 -678 
L 960 -678 
L 960 422 
C 1139 320 1408 211 1773 211 
C 2650 211 3206 698 3206 1856 
L 3206 1939 
C 3206 3117 2605 3501 1907 3501 
C 1498 3501 1165 3360 966 3181 
L 941 3181 
L 941 3437 
L 467 3437 
L 467 -678 
z
M 1728 614 
C 1395 614 1107 717 960 838 
L 960 2854 
C 1107 2957 1408 3085 1779 3085 
C 2362 3085 2694 2810 2694 1914 
L 2694 1786 
C 2694 934 2330 614 1728 614 
z
" transform="scale(0.015625)"/>
      <path id="AppleSDGothicNeo-Regular-53" d="M 467 269 
L 960 269 
L 960 2765 
C 1184 2925 1491 3040 1811 3040 
C 1862 3040 1958 3034 2042 3021 
L 2042 3462 
C 2010 3469 1920 3475 1850 3475 
C 1491 3475 1146 3290 966 3085 
L 934 3085 
L 934 3443 
L 467 3443 
L 467 269 
z
" transform="scale(0.015625)"/>
      <path id="AppleSDGothicNeo-Regular-5a" d="M 710 -685 
C 1235 -685 1498 -493 1709 70 
L 2957 3443 
L 2464 3443 
L 1606 1030 
L 1594 1030 
L 659 3443 
L 134 3443 
L 1350 384 
L 1254 122 
C 1120 -224 928 -275 621 -275 
C 506 -275 390 -243 314 -230 
L 314 -595 
C 403 -640 563 -685 710 -685 
z
" transform="scale(0.015625)"/>
      <path id="AppleSDGothicNeo-Regular-54" d="M 1274 218 
C 1971 218 2394 550 2394 1152 
C 2394 1702 2144 1907 1536 2067 
L 1216 2157 
C 877 2253 742 2368 742 2643 
C 742 2938 954 3085 1382 3085 
C 1734 3085 2054 3002 2221 2918 
L 2221 3315 
C 2054 3405 1779 3501 1357 3501 
C 627 3501 275 3136 275 2598 
C 275 2061 589 1850 1050 1722 
L 1363 1638 
C 1766 1523 1914 1395 1914 1101 
C 1914 813 1709 634 1203 634 
C 755 634 525 730 250 832 
L 250 442 
C 512 294 858 218 1274 218 
z
" transform="scale(0.015625)"/>
      <path id="AppleSDGothicNeo-Regular-44" d="M 1734 211 
C 2176 211 2458 339 2662 461 
L 2662 858 
C 2502 768 2221 634 1792 634 
C 1114 634 774 998 774 1811 
L 774 1965 
C 774 2694 1152 3085 1728 3085 
C 2144 3085 2349 3008 2630 2880 
L 2630 3290 
C 2419 3424 2170 3501 1754 3501 
C 934 3501 269 3014 269 1888 
L 269 1792 
C 269 749 826 211 1734 211 
z
" transform="scale(0.015625)"/>
      <path id="AppleSDGothicNeo-Regular-50" d="M 1702 211 
C 2560 211 3149 813 3149 1824 
L 3149 1914 
C 3149 2918 2605 3501 1709 3501 
C 851 3501 269 2899 269 1894 
L 269 1798 
C 269 787 806 211 1702 211 
z
M 1715 614 
C 1184 614 768 902 768 1786 
L 768 1946 
C 768 2688 1126 3098 1702 3098 
C 2221 3098 2650 2810 2650 1926 
L 2650 1766 
C 2650 1018 2291 614 1715 614 
z
" transform="scale(0.015625)"/>
      <path id="AppleSDGothicNeo-Regular-1e" d="M 422 2816 
L 2970 2816 
L 2970 3226 
L 422 3226 
L 422 2816 
z
M 422 1542 
L 2970 1542 
L 2970 1952 
L 422 1952 
L 422 1542 
z
" transform="scale(0.015625)"/>
      <path id="AppleSDGothicNeo-Regular-f" d="M 269 109 
L 826 109 
L 826 678 
L 269 678 
L 269 109 
z
" transform="scale(0.015625)"/>
      <path id="AppleSDGothicNeo-Regular-1a" d="M 1696 4634 
C 826 4634 307 3949 307 3142 
C 307 2323 896 1798 1619 1798 
C 2093 1798 2445 2010 2675 2272 
C 2630 1069 2227 621 1523 621 
C 1178 621 832 723 646 832 
L 506 461 
C 704 326 1107 192 1549 192 
C 2586 192 3187 979 3187 2477 
L 3187 2758 
C 3187 3974 2656 4634 1696 4634 
z
M 1702 4211 
C 2387 4211 2675 3686 2675 2886 
L 2675 2765 
C 2496 2515 2131 2227 1722 2227 
C 1203 2227 813 2515 813 3187 
C 813 3782 1146 4211 1702 4211 
z
" transform="scale(0.015625)"/>
      <path id="AppleSDGothicNeo-Regular-17" d="M 1837 192 
C 2707 192 3232 826 3232 1645 
C 3232 2464 2656 2957 1939 2957 
C 1459 2957 1107 2733 877 2496 
C 941 3834 1350 4205 2080 4205 
C 2355 4205 2733 4096 2886 4006 
L 3034 4378 
C 2854 4486 2458 4634 2029 4634 
C 1037 4634 365 3968 365 2451 
L 365 2118 
C 365 896 877 192 1837 192 
z
M 1830 614 
C 1146 614 877 1139 877 1939 
L 877 1984 
C 1056 2240 1427 2528 1837 2528 
C 2355 2528 2720 2266 2720 1594 
C 2720 979 2387 614 1830 614 
z
" transform="scale(0.015625)"/>
      <path id="AppleSDGothicNeo-Regular-d" d="M 122 -563 
L 467 -563 
L 941 685 
L 358 685 
L 122 -563 
z
" transform="scale(0.015625)"/>
      <path id="AppleSDGothicNeo-Regular-49" d="M 467 269 
L 954 269 
L 954 2842 
C 1216 2970 1549 3078 1850 3078 
C 2355 3078 2490 2918 2490 2534 
L 2490 269 
L 2976 269 
L 2976 2630 
C 2976 3245 2675 3501 2054 3501 
C 1664 3501 1261 3366 986 3168 
L 954 3168 
L 954 4851 
L 467 4851 
L 467 269 
z
" transform="scale(0.015625)"/>
     </defs>
     <use xlink:href="#AppleSDGothicNeo-Regular-51"/>
     <use xlink:href="#AppleSDGothicNeo-Regular-53" transform="translate(54.5 0)"/>
     <use xlink:href="#AppleSDGothicNeo-Regular-4a" transform="translate(89.09375 0)"/>
     <use xlink:href="#AppleSDGothicNeo-Regular-4e" transform="translate(111.796875 0)"/>
     <use xlink:href="#AppleSDGothicNeo-Regular-42" transform="translate(192.09375 0)"/>
     <use xlink:href="#AppleSDGothicNeo-Regular-53" transform="translate(239.296875 0)"/>
     <use xlink:href="#AppleSDGothicNeo-Regular-5a" transform="translate(273.890625 0)"/>
     <use xlink:href="#AppleSDGothicNeo-Regular-1" transform="translate(322.09375 0)"/>
     <use xlink:href="#AppleSDGothicNeo-Regular-54" transform="translate(348.390625 0)"/>
     <use xlink:href="#AppleSDGothicNeo-Regular-44" transform="translate(389.890625 0)"/>
     <use xlink:href="#AppleSDGothicNeo-Regular-50" transform="translate(434.890625 0)"/>
     <use xlink:href="#AppleSDGothicNeo-Regular-53" transform="translate(488.296875 0)"/>
     <use xlink:href="#AppleSDGothicNeo-Regular-46" transform="translate(522.890625 0)"/>
     <use xlink:href="#AppleSDGothicNeo-Regular-1e" transform="translate(572.890625 0)"/>
     <use xlink:href="#AppleSDGothicNeo-Regular-12" transform="translate(621.984375 0)"/>
     <use xlink:href="#AppleSDGothicNeo-Regular-f" transform="translate(657.6875 0)"/>
     <use xlink:href="#AppleSDGothicNeo-Regular-11" transform="translate(680.28125 0)"/>
     <use xlink:href="#AppleSDGothicNeo-Regular-13" transform="translate(741.6875 0)"/>
     <use xlink:href="#AppleSDGothicNeo-Regular-1a" transform="translate(794.984375 0)"/>
     <use xlink:href="#AppleSDGothicNeo-Regular-17" transform="translate(850.390625 0)"/>
     <use xlink:href="#AppleSDGothicNeo-Regular-d" transform="translate(902.703125 0)"/>
     <use xlink:href="#AppleSDGothicNeo-Regular-1" transform="translate(925.296875 0)"/>
     <use xlink:href="#AppleSDGothicNeo-Regular-55" transform="translate(951.59375 0)"/>
     <use xlink:href="#AppleSDGothicNeo-Regular-49" transform="translate(986.59375 0)"/>
     <use xlink:href="#AppleSDGothicNeo-Regular-53" transform="translate(1040.1875 0)"/>
     <use xlink:href="#AppleSDGothicNeo-Regular-46" transform="translate(1074.78125 0)"/>
     <use xlink:href="#AppleSDGothicNeo-Regular-54" transform="translate(1124.78125 0)"/>
     <use xlink:href="#AppleSDGothicNeo-Regular-49" transform="translate(1166.28125 0)"/>
     <use xlink:href="#AppleSDGothicNeo-Regular-50" transform="translate(1219.875 0)"/>
     <use xlink:href="#AppleSDGothicNeo-Regular-4d" transform="translate(1273.28125 0)"/>
     <use xlink:href="#AppleSDGothicNeo-Regular-45" transform="translate(1295.984375 0)"/>
     <use xlink:href="#AppleSDGothicNeo-Regular-1e" transform="translate(1350.484375 0)"/>
     <use xlink:href="#AppleSDGothicNeo-Regular-11" transform="translate(1402.78125 0)"/>
     <use xlink:href="#AppleSDGothicNeo-Regular-f" transform="translate(1465.78125 0)"/>
     <use xlink:href="#AppleSDGothicNeo-Regular-15" transform="translate(1488.375 0)"/>
     <use xlink:href="#AppleSDGothicNeo-Regular-15" transform="translate(1545.671875 0)"/>
     <use xlink:href="#AppleSDGothicNeo-Regular-1a" transform="translate(1599.078125 0)"/>
     <use xlink:href="#AppleSDGothicNeo-Regular-11" transform="translate(1654.484375 0)"/>
     <use xlink:href="#AppleSDGothicNeo-Regular-11" transform="translate(1717.484375 0)"/>
     <use xlink:href="#AppleSDGothicNeo-Regular-16" transform="translate(1780.484375 0)"/>
    </g>
   </g>
   <g id="text_20">
    <!-- 14_우선_검토_TP_2 | GesturePebbleZ2_normal_3 | TEST index 49 | 우선 검토 -->
    <g transform="translate(263.148438 21.6) scale(0.12 -0.12)">
     <defs>
      <path id="AppleSDGothicNeo-Regular-40" d="M 51 -365 
L 2099 -365 
L 2099 -38 
L 51 -38 
L 51 -365 
z
" transform="scale(0.015625)"/>
      <path id="AppleSDGothicNeo-Regular-a0b" d="M 4768 3661 
C 4768 4403 4019 4909 2765 4909 
C 1517 4909 762 4403 762 3661 
C 762 2912 1517 2406 2765 2406 
C 4019 2406 4768 2918 4768 3661 
z
M 2765 4486 
C 3718 4486 4294 4173 4294 3661 
C 4294 3142 3718 2829 2765 2829 
C 1824 2829 1248 3142 1248 3661 
C 1248 4173 1824 4486 2765 4486 
z
M 3008 -454 
L 3008 1491 
L 5318 1491 
L 5318 1901 
L 262 1901 
L 262 1491 
L 2522 1491 
L 2522 -454 
L 3008 -454 
z
" transform="scale(0.015625)"/>
      <path id="AppleSDGothicNeo-Regular-8b6" d="M 4813 1082 
L 4813 5146 
L 4326 5146 
L 4326 3731 
L 3136 3731 
L 3136 3322 
L 4326 3322 
L 4326 1082 
L 4813 1082 
z
M 4934 -275 
L 4934 128 
L 1702 128 
L 1702 1434 
L 1216 1434 
L 1216 -275 
L 4934 -275 
z
M 3514 2298 
C 2854 2541 2106 3213 2106 4147 
L 2106 4826 
L 1613 4826 
L 1613 4128 
C 1613 3226 934 2464 192 2138 
L 493 1760 
C 1101 2067 1702 2675 1869 3277 
C 2106 2688 2675 2163 3238 1914 
L 3514 2298 
z
" transform="scale(0.015625)"/>
      <path id="AppleSDGothicNeo-Regular-468" d="M 4326 3277 
L 4326 1907 
L 4813 1907 
L 4813 5146 
L 4326 5146 
L 4326 3686 
L 3098 3686 
L 3098 3277 
L 4326 3277 
z
M 4813 -371 
L 4813 1613 
L 1210 1613 
L 1210 -371 
L 4813 -371 
z
M 4326 32 
L 1696 32 
L 1696 1210 
L 4326 1210 
L 4326 32 
z
M 563 4762 
L 563 4346 
L 2541 4346 
C 2387 3379 1414 2547 288 2285 
L 544 1875 
C 1984 2336 2989 3270 3078 4762 
L 563 4762 
z
" transform="scale(0.015625)"/>
      <path id="AppleSDGothicNeo-Regular-c37" d="M 4506 3027 
L 4506 3437 
L 1325 3437 
L 1325 4262 
L 4672 4262 
L 4672 4672 
L 838 4672 
L 838 1766 
L 2515 1766 
L 2515 672 
L 243 672 
L 243 262 
L 5293 262 
L 5293 672 
L 3002 672 
L 3002 1766 
L 4736 1766 
L 4736 2170 
L 1325 2170 
L 1325 3027 
L 4506 3027 
z
" transform="scale(0.015625)"/>
      <path id="AppleSDGothicNeo-Regular-35" d="M 1491 269 
L 1990 269 
L 1990 4134 
L 3302 4134 
L 3302 4563 
L 179 4563 
L 179 4134 
L 1491 4134 
L 1491 269 
z
" transform="scale(0.015625)"/>
      <path id="AppleSDGothicNeo-Regular-31" d="M 550 269 
L 1062 269 
L 1062 1990 
L 1939 1990 
C 2758 1990 3309 2451 3309 3296 
C 3309 4102 2842 4563 1875 4563 
L 550 4563 
L 550 269 
z
M 1062 2413 
L 1062 4134 
L 1824 4134 
C 2522 4134 2765 3872 2765 3264 
C 2765 2688 2502 2413 1837 2413 
L 1062 2413 
z
" transform="scale(0.015625)"/>
      <path id="AppleSDGothicNeo-Regular-5d" d="M 691 -384 
L 1114 -384 
L 1114 4941 
L 691 4941 
L 691 -384 
z
" transform="scale(0.015625)"/>
      <path id="AppleSDGothicNeo-Regular-28" d="M 2298 198 
C 2842 198 3283 314 3616 435 
L 3616 2349 
L 2195 2349 
L 2195 1926 
L 3117 1926 
L 3117 755 
C 2912 678 2611 627 2310 627 
C 1158 627 851 1344 851 2342 
L 851 2515 
C 851 3424 1229 4205 2298 4205 
C 2867 4205 3194 4064 3456 3942 
L 3456 4384 
C 3200 4512 2867 4634 2336 4634 
C 1254 4634 307 4058 307 2445 
L 307 2330 
C 307 858 1082 198 2298 198 
z
" transform="scale(0.015625)"/>
      <path id="AppleSDGothicNeo-Regular-43" d="M 1626 198 
C 2650 198 3206 800 3206 1862 
L 3206 1946 
C 3206 3136 2579 3501 1971 3501 
C 1536 3501 1235 3379 992 3232 
L 960 3232 
L 960 4851 
L 467 4851 
L 467 371 
C 749 262 1254 198 1626 198 
z
M 1651 608 
C 1331 608 1107 659 960 723 
L 960 2880 
C 1126 2957 1421 3085 1747 3085 
C 2387 3085 2694 2797 2694 1914 
L 2694 1786 
C 2694 877 2221 608 1651 608 
z
" transform="scale(0.015625)"/>
      <path id="AppleSDGothicNeo-Regular-3b" d="M 250 269 
L 3162 269 
L 3162 698 
L 851 698 
L 851 717 
L 3226 4186 
L 3226 4563 
L 416 4563 
L 416 4134 
L 2618 4134 
L 2618 4115 
L 250 653 
L 250 269 
z
" transform="scale(0.015625)"/>
      <path id="AppleSDGothicNeo-Regular-26" d="M 557 269 
L 3123 269 
L 3123 698 
L 1062 698 
L 1062 2266 
L 2637 2266 
L 2637 2694 
L 1062 2694 
L 1062 4134 
L 3104 4134 
L 3104 4563 
L 557 4563 
L 557 269 
z
" transform="scale(0.015625)"/>
      <path id="AppleSDGothicNeo-Regular-34" d="M 1472 192 
C 2477 192 2912 691 2912 1440 
C 2912 2163 2509 2432 1875 2650 
L 1453 2784 
C 966 2950 813 3130 813 3539 
C 813 3949 1107 4205 1632 4205 
C 2106 4205 2445 4083 2694 3968 
L 2694 4397 
C 2458 4512 2157 4634 1651 4634 
C 755 4634 314 4160 314 3494 
C 314 2842 653 2534 1254 2336 
L 1670 2189 
C 2189 2022 2400 1843 2400 1402 
C 2400 934 2112 627 1453 627 
C 998 627 576 742 250 909 
L 250 480 
C 538 320 947 192 1472 192 
z
" transform="scale(0.015625)"/>
     </defs>
     <use xlink:href="#AppleSDGothicNeo-Regular-12"/>
     <use xlink:href="#AppleSDGothicNeo-Regular-15" transform="translate(35.703125 0)"/>
     <use xlink:href="#AppleSDGothicNeo-Regular-40" transform="translate(91.203125 0)"/>
     <use xlink:href="#AppleSDGothicNeo-Regular-a0b" transform="translate(124.796875 0)"/>
     <use xlink:href="#AppleSDGothicNeo-Regular-8b6" transform="translate(211.296875 0)"/>
     <use xlink:href="#AppleSDGothicNeo-Regular-40" transform="translate(297.796875 0)"/>
     <use xlink:href="#AppleSDGothicNeo-Regular-468" transform="translate(331.390625 0)"/>
     <use xlink:href="#AppleSDGothicNeo-Regular-c37" transform="translate(417.890625 0)"/>
     <use xlink:href="#AppleSDGothicNeo-Regular-40" transform="translate(504.390625 0)"/>
     <use xlink:href="#AppleSDGothicNeo-Regular-35" transform="translate(537.984375 0)"/>
     <use xlink:href="#AppleSDGothicNeo-Regular-31" transform="translate(592.390625 0)"/>
     <use xlink:href="#AppleSDGothicNeo-Regular-40" transform="translate(647.6875 0)"/>
     <use xlink:href="#AppleSDGothicNeo-Regular-13" transform="translate(681.28125 0)"/>
     <use xlink:href="#AppleSDGothicNeo-Regular-1" transform="translate(734.578125 0)"/>
     <use xlink:href="#AppleSDGothicNeo-Regular-5d" transform="translate(760.875 0)"/>
     <use xlink:href="#AppleSDGothicNeo-Regular-1" transform="translate(789.078125 0)"/>
     <use xlink:href="#AppleSDGothicNeo-Regular-28" transform="translate(815.375 0)"/>
     <use xlink:href="#AppleSDGothicNeo-Regular-46" transform="translate(878.671875 0)"/>
     <use xlink:href="#AppleSDGothicNeo-Regular-54" transform="translate(928.671875 0)"/>
     <use xlink:href="#AppleSDGothicNeo-Regular-55" transform="translate(970.171875 0)"/>
     <use xlink:href="#AppleSDGothicNeo-Regular-56" transform="translate(1005.171875 0)"/>
     <use xlink:href="#AppleSDGothicNeo-Regular-53" transform="translate(1058.171875 0)"/>
     <use xlink:href="#AppleSDGothicNeo-Regular-46" transform="translate(1092.765625 0)"/>
     <use xlink:href="#AppleSDGothicNeo-Regular-31" transform="translate(1142.765625 0)"/>
     <use xlink:href="#AppleSDGothicNeo-Regular-46" transform="translate(1198.0625 0)"/>
     <use xlink:href="#AppleSDGothicNeo-Regular-43" transform="translate(1248.0625 0)"/>
     <use xlink:href="#AppleSDGothicNeo-Regular-43" transform="translate(1302.5625 0)"/>
     <use xlink:href="#AppleSDGothicNeo-Regular-4d" transform="translate(1357.0625 0)"/>
     <use xlink:href="#AppleSDGothicNeo-Regular-46" transform="translate(1379.765625 0)"/>
     <use xlink:href="#AppleSDGothicNeo-Regular-3b" transform="translate(1429.765625 0)"/>
     <use xlink:href="#AppleSDGothicNeo-Regular-13" transform="translate(1483.96875 0)"/>
     <use xlink:href="#AppleSDGothicNeo-Regular-40" transform="translate(1537.265625 0)"/>
     <use xlink:href="#AppleSDGothicNeo-Regular-4f" transform="translate(1570.859375 0)"/>
     <use xlink:href="#AppleSDGothicNeo-Regular-50" transform="translate(1624.453125 0)"/>
     <use xlink:href="#AppleSDGothicNeo-Regular-53" transform="translate(1677.859375 0)"/>
     <use xlink:href="#AppleSDGothicNeo-Regular-4e" transform="translate(1712.453125 0)"/>
     <use xlink:href="#AppleSDGothicNeo-Regular-42" transform="translate(1792.75 0)"/>
     <use xlink:href="#AppleSDGothicNeo-Regular-4d" transform="translate(1839.953125 0)"/>
     <use xlink:href="#AppleSDGothicNeo-Regular-40" transform="translate(1862.65625 0)"/>
     <use xlink:href="#AppleSDGothicNeo-Regular-14" transform="translate(1896.25 0)"/>
     <use xlink:href="#AppleSDGothicNeo-Regular-1" transform="translate(1949.84375 0)"/>
     <use xlink:href="#AppleSDGothicNeo-Regular-5d" transform="translate(1976.140625 0)"/>
     <use xlink:href="#AppleSDGothicNeo-Regular-1" transform="translate(2004.34375 0)"/>
     <use xlink:href="#AppleSDGothicNeo-Regular-35" transform="translate(2030.640625 0)"/>
     <use xlink:href="#AppleSDGothicNeo-Regular-26" transform="translate(2085.046875 0)"/>
     <use xlink:href="#AppleSDGothicNeo-Regular-34" transform="translate(2140.046875 0)"/>
     <use xlink:href="#AppleSDGothicNeo-Regular-35" transform="translate(2190.453125 0)"/>
     <use xlink:href="#AppleSDGothicNeo-Regular-1" transform="translate(2244.859375 0)"/>
     <use xlink:href="#AppleSDGothicNeo-Regular-4a" transform="translate(2271.15625 0)"/>
     <use xlink:href="#AppleSDGothicNeo-Regular-4f" transform="translate(2293.859375 0)"/>
     <use xlink:href="#AppleSDGothicNeo-Regular-45" transform="translate(2347.453125 0)"/>
     <use xlink:href="#AppleSDGothicNeo-Regular-46" transform="translate(2401.953125 0)"/>
     <use xlink:href="#AppleSDGothicNeo-Regular-59" transform="translate(2450.953125 0)"/>
     <use xlink:href="#AppleSDGothicNeo-Regular-1" transform="translate(2498.65625 0)"/>
     <use xlink:href="#AppleSDGothicNeo-Regular-15" transform="translate(2524.953125 0)"/>
     <use xlink:href="#AppleSDGothicNeo-Regular-1a" transform="translate(2578.359375 0)"/>
     <use xlink:href="#AppleSDGothicNeo-Regular-1" transform="translate(2633.765625 0)"/>
     <use xlink:href="#AppleSDGothicNeo-Regular-5d" transform="translate(2660.0625 0)"/>
     <use xlink:href="#AppleSDGothicNeo-Regular-1" transform="translate(2688.265625 0)"/>
     <use xlink:href="#AppleSDGothicNeo-Regular-a0b" transform="translate(2714.5625 0)"/>
     <use xlink:href="#AppleSDGothicNeo-Regular-8b6" transform="translate(2801.0625 0)"/>
     <use xlink:href="#AppleSDGothicNeo-Regular-1" transform="translate(2887.5625 0)"/>
     <use xlink:href="#AppleSDGothicNeo-Regular-468" transform="translate(2913.859375 0)"/>
     <use xlink:href="#AppleSDGothicNeo-Regular-c37" transform="translate(3000.359375 0)"/>
    </g>
   </g>
   <g id="legend_1">
    <g id="patch_7">
     <path d="M 396.359375 319.344 
L 500.360625 319.344 
Q 501.960625 319.344 501.960625 317.744 
L 501.960625 277.744 
Q 501.960625 276.144 500.360625 276.144 
L 396.359375 276.144 
Q 394.759375 276.144 394.759375 277.744 
L 394.759375 317.744 
Q 394.759375 319.344 396.359375 319.344 
z
" style="fill: #ffffff; opacity: 0.8; stroke: #cccccc; stroke-linejoin: miter"/>
    </g>
    <g id="patch_8">
     <path d="M 397.959375 286.544 
L 413.959375 286.544 
L 413.959375 280.944 
L 397.959375 280.944 
z
" style="fill: #a7dff3; fill-opacity: 0.55; stroke: #a7dff3; stroke-opacity: 0.55; stroke-linejoin: miter"/>
    </g>
    <g id="text_21">
     <!-- TRAIN normal p05-p95 -->
     <g transform="translate(420.359375 286.544) scale(0.08 -0.08)">
      <defs>
       <path id="AppleSDGothicNeo-Regular-33" d="M 550 269 
L 1056 269 
L 1056 2112 
L 1875 2112 
L 2944 269 
L 3520 269 
L 2381 2202 
L 2381 2234 
C 2912 2400 3219 2746 3219 3360 
C 3219 4134 2746 4563 1798 4563 
L 550 4563 
L 550 269 
z
M 1056 2509 
L 1056 4134 
L 1760 4134 
C 2419 4134 2682 3885 2682 3354 
C 2682 2797 2438 2509 1766 2509 
L 1056 2509 
z
" transform="scale(0.015625)"/>
       <path id="AppleSDGothicNeo-Regular-22" d="M 122 269 
L 608 269 
L 1050 1523 
L 2771 1523 
L 3226 269 
L 3757 269 
L 2189 4563 
L 1696 4563 
L 122 269 
z
M 1901 3885 
L 1914 3885 
L 2611 1952 
L 1197 1952 
L 1901 3885 
z
" transform="scale(0.015625)"/>
       <path id="AppleSDGothicNeo-Regular-2a" d="M 576 269 
L 1082 269 
L 1082 4563 
L 576 4563 
L 576 269 
z
" transform="scale(0.015625)"/>
       <path id="AppleSDGothicNeo-Regular-2f" d="M 550 269 
L 1024 269 
L 1024 3872 
L 1043 3872 
L 3174 269 
L 3699 269 
L 3699 4563 
L 3238 4563 
L 3238 1126 
L 3219 1126 
L 1152 4563 
L 550 4563 
L 550 269 
z
" transform="scale(0.015625)"/>
      </defs>
      <use xlink:href="#AppleSDGothicNeo-Regular-35"/>
      <use xlink:href="#AppleSDGothicNeo-Regular-33" transform="translate(54.40625 0)"/>
      <use xlink:href="#AppleSDGothicNeo-Regular-22" transform="translate(112.203125 0)"/>
      <use xlink:href="#AppleSDGothicNeo-Regular-2a" transform="translate(172.703125 0)"/>
      <use xlink:href="#AppleSDGothicNeo-Regular-2f" transform="translate(198.609375 0)"/>
      <use xlink:href="#AppleSDGothicNeo-Regular-1" transform="translate(265.203125 0)"/>
      <use xlink:href="#AppleSDGothicNeo-Regular-4f" transform="translate(291.5 0)"/>
      <use xlink:href="#AppleSDGothicNeo-Regular-50" transform="translate(345.09375 0)"/>
      <use xlink:href="#AppleSDGothicNeo-Regular-53" transform="translate(398.5 0)"/>
      <use xlink:href="#AppleSDGothicNeo-Regular-4e" transform="translate(433.09375 0)"/>
      <use xlink:href="#AppleSDGothicNeo-Regular-42" transform="translate(513.390625 0)"/>
      <use xlink:href="#AppleSDGothicNeo-Regular-4d" transform="translate(560.59375 0)"/>
      <use xlink:href="#AppleSDGothicNeo-Regular-1" transform="translate(583.296875 0)"/>
      <use xlink:href="#AppleSDGothicNeo-Regular-51" transform="translate(609.59375 0)"/>
      <use xlink:href="#AppleSDGothicNeo-Regular-11" transform="translate(664.09375 0)"/>
      <use xlink:href="#AppleSDGothicNeo-Regular-16" transform="translate(727.09375 0)"/>
      <use xlink:href="#AppleSDGothicNeo-Regular-e" transform="translate(777 0)"/>
      <use xlink:href="#AppleSDGothicNeo-Regular-51" transform="translate(820.203125 0)"/>
      <use xlink:href="#AppleSDGothicNeo-Regular-1a" transform="translate(874.703125 0)"/>
      <use xlink:href="#AppleSDGothicNeo-Regular-16" transform="translate(930.109375 0)"/>
     </g>
    </g>
    <g id="line2d_19">
     <path d="M 397.959375 297.344 
L 405.959375 297.344 
L 413.959375 297.344 
" style="fill: none; stroke: #2378a8; stroke-width: 1.2; stroke-linecap: square"/>
    </g>
    <g id="text_22">
     <!-- TRAIN normal median -->
     <g transform="translate(420.359375 300.144) scale(0.08 -0.08)">
      <use xlink:href="#AppleSDGothicNeo-Regular-35"/>
      <use xlink:href="#AppleSDGothicNeo-Regular-33" transform="translate(54.40625 0)"/>
      <use xlink:href="#AppleSDGothicNeo-Regular-22" transform="translate(112.203125 0)"/>
      <use xlink:href="#AppleSDGothicNeo-Regular-2a" transform="translate(172.703125 0)"/>
      <use xlink:href="#AppleSDGothicNeo-Regular-2f" transform="translate(198.609375 0)"/>
      <use xlink:href="#AppleSDGothicNeo-Regular-1" transform="translate(265.203125 0)"/>
      <use xlink:href="#AppleSDGothicNeo-Regular-4f" transform="translate(291.5 0)"/>
      <use xlink:href="#AppleSDGothicNeo-Regular-50" transform="translate(345.09375 0)"/>
      <use xlink:href="#AppleSDGothicNeo-Regular-53" transform="translate(398.5 0)"/>
      <use xlink:href="#AppleSDGothicNeo-Regular-4e" transform="translate(433.09375 0)"/>
      <use xlink:href="#AppleSDGothicNeo-Regular-42" transform="translate(513.390625 0)"/>
      <use xlink:href="#AppleSDGothicNeo-Regular-4d" transform="translate(560.59375 0)"/>
      <use xlink:href="#AppleSDGothicNeo-Regular-1" transform="translate(583.296875 0)"/>
      <use xlink:href="#AppleSDGothicNeo-Regular-4e" transform="translate(609.59375 0)"/>
      <use xlink:href="#AppleSDGothicNeo-Regular-46" transform="translate(689.890625 0)"/>
      <use xlink:href="#AppleSDGothicNeo-Regular-45" transform="translate(739.890625 0)"/>
      <use xlink:href="#AppleSDGothicNeo-Regular-4a" transform="translate(794.390625 0)"/>
      <use xlink:href="#AppleSDGothicNeo-Regular-42" transform="translate(817.09375 0)"/>
      <use xlink:href="#AppleSDGothicNeo-Regular-4f" transform="translate(864.296875 0)"/>
     </g>
    </g>
    <g id="line2d_20">
     <path d="M 397.959375 310.944 
L 405.959375 310.944 
L 413.959375 310.944 
" style="fill: none; stroke: #e45756; stroke-width: 1.1; stroke-linecap: square"/>
    </g>
    <g id="text_23">
     <!-- selected TEST series -->
     <g transform="translate(420.359375 313.744) scale(0.08 -0.08)">
      <use xlink:href="#AppleSDGothicNeo-Regular-54"/>
      <use xlink:href="#AppleSDGothicNeo-Regular-46" transform="translate(41.5 0)"/>
      <use xlink:href="#AppleSDGothicNeo-Regular-4d" transform="translate(91.5 0)"/>
      <use xlink:href="#AppleSDGothicNeo-Regular-46" transform="translate(114.203125 0)"/>
      <use xlink:href="#AppleSDGothicNeo-Regular-44" transform="translate(164.203125 0)"/>
      <use xlink:href="#AppleSDGothicNeo-Regular-55" transform="translate(210.109375 0)"/>
      <use xlink:href="#AppleSDGothicNeo-Regular-46" transform="translate(245.109375 0)"/>
      <use xlink:href="#AppleSDGothicNeo-Regular-45" transform="translate(295.109375 0)"/>
      <use xlink:href="#AppleSDGothicNeo-Regular-1" transform="translate(349.609375 0)"/>
      <use xlink:href="#AppleSDGothicNeo-Regular-35" transform="translate(375.90625 0)"/>
      <use xlink:href="#AppleSDGothicNeo-Regular-26" transform="translate(430.3125 0)"/>
      <use xlink:href="#AppleSDGothicNeo-Regular-34" transform="translate(485.3125 0)"/>
      <use xlink:href="#AppleSDGothicNeo-Regular-35" transform="translate(535.71875 0)"/>
      <use xlink:href="#AppleSDGothicNeo-Regular-1" transform="translate(590.125 0)"/>
      <use xlink:href="#AppleSDGothicNeo-Regular-54" transform="translate(616.421875 0)"/>
      <use xlink:href="#AppleSDGothicNeo-Regular-46" transform="translate(657.921875 0)"/>
      <use xlink:href="#AppleSDGothicNeo-Regular-53" transform="translate(707.921875 0)"/>
      <use xlink:href="#AppleSDGothicNeo-Regular-4a" transform="translate(742.515625 0)"/>
      <use xlink:href="#AppleSDGothicNeo-Regular-46" transform="translate(765.21875 0)"/>
      <use xlink:href="#AppleSDGothicNeo-Regular-54" transform="translate(815.21875 0)"/>
     </g>
    </g>
   </g>
  </g>
  <g id="axes_2">
   <g id="patch_9">
    <path d="M 49.28 443.08 
L 847.44 443.08 
L 847.44 369.144 
L 49.28 369.144 
z
" style="fill: #ffffff"/>
   </g>
   <g id="PathCollection_1">
    <defs>
     <path id="mb13f5d5a58" d="M -3 3 
L 3 -3 
M -3 -3 
L 3 3 
" style="stroke: #e45756; stroke-width: 1.5"/>
    </defs>
    <g clip-path="url(#pdd7e4019bc)">
     <use xlink:href="#mb13f5d5a58" x="831.789804" y="416.984941" style="fill: #e45756; stroke: #e45756; stroke-width: 1.5"/>
    </g>
   </g>
   <g id="PathCollection_2">
    <defs>
     <path id="mab8ffc6056" d="M 0 3 
C 0.795609 3 1.55874 2.683901 2.12132 2.12132 
C 2.683901 1.55874 3 0.795609 3 0 
C 3 -0.795609 2.683901 -1.55874 2.12132 -2.12132 
C 1.55874 -2.683901 0.795609 -3 0 -3 
C -0.795609 -3 -1.55874 -2.683901 -2.12132 -2.12132 
C -2.683901 -1.55874 -3 -0.795609 -3 0 
C -3 0.795609 -2.683901 1.55874 -2.12132 2.12132 
C -1.55874 2.683901 -0.795609 3 0 3 
z
" style="stroke: #111111"/>
    </defs>
    <g clip-path="url(#pdd7e4019bc)">
     <use xlink:href="#mab8ffc6056" x="831.789804" y="395.239059" style="fill: #111111; stroke: #111111"/>
    </g>
   </g>
   <g id="matplotlib.axis_3">
    <g id="xtick_9">
     <g id="line2d_21">
      <g>
       <use xlink:href="#m9a63e5008b" x="64.930196" y="443.08" style="stroke: #000000; stroke-width: 0.8"/>
      </g>
     </g>
     <g id="text_24">
      <!-- 0 -->
      <g transform="translate(61.780196 459.08) scale(0.1 -0.1)">
       <use xlink:href="#AppleSDGothicNeo-Regular-11"/>
      </g>
     </g>
    </g>
    <g id="xtick_10">
     <g id="line2d_22">
      <g>
       <use xlink:href="#m9a63e5008b" x="221.432157" y="443.08" style="stroke: #000000; stroke-width: 0.8"/>
      </g>
     </g>
     <g id="text_25">
      <!-- 10 -->
      <g transform="translate(216.497001 459.08) scale(0.1 -0.1)">
       <use xlink:href="#AppleSDGothicNeo-Regular-12"/>
       <use xlink:href="#AppleSDGothicNeo-Regular-11" transform="translate(35.703125 0)"/>
      </g>
     </g>
    </g>
    <g id="xtick_11">
     <g id="line2d_23">
      <g>
       <use xlink:href="#m9a63e5008b" x="377.934118" y="443.08" style="stroke: #000000; stroke-width: 0.8"/>
      </g>
     </g>
     <g id="text_26">
      <!-- 20 -->
      <g transform="translate(372.144274 459.08) scale(0.1 -0.1)">
       <use xlink:href="#AppleSDGothicNeo-Regular-13"/>
       <use xlink:href="#AppleSDGothicNeo-Regular-11" transform="translate(52.796875 0)"/>
      </g>
     </g>
    </g>
    <g id="xtick_12">
     <g id="line2d_24">
      <g>
       <use xlink:href="#m9a63e5008b" x="534.436078" y="443.08" style="stroke: #000000; stroke-width: 0.8"/>
      </g>
     </g>
     <g id="text_27">
      <!-- 30 -->
      <g transform="translate(528.606391 459.08) scale(0.1 -0.1)">
       <use xlink:href="#AppleSDGothicNeo-Regular-14"/>
       <use xlink:href="#AppleSDGothicNeo-Regular-11" transform="translate(53.59375 0)"/>
      </g>
     </g>
    </g>
    <g id="xtick_13">
     <g id="line2d_25">
      <g>
       <use xlink:href="#m9a63e5008b" x="690.938039" y="443.08" style="stroke: #000000; stroke-width: 0.8"/>
      </g>
     </g>
     <g id="text_28">
      <!-- 40 -->
      <g transform="translate(685.013039 459.08) scale(0.1 -0.1)">
       <use xlink:href="#AppleSDGothicNeo-Regular-15"/>
       <use xlink:href="#AppleSDGothicNeo-Regular-11" transform="translate(55.5 0)"/>
      </g>
     </g>
    </g>
    <g id="xtick_14">
     <g id="line2d_26">
      <g>
       <use xlink:href="#m9a63e5008b" x="847.44" y="443.08" style="stroke: #000000; stroke-width: 0.8"/>
      </g>
     </g>
     <g id="text_29">
      <!-- 50 -->
      <g transform="translate(841.794688 459.08) scale(0.1 -0.1)">
       <use xlink:href="#AppleSDGothicNeo-Regular-16"/>
       <use xlink:href="#AppleSDGothicNeo-Regular-11" transform="translate(49.90625 0)"/>
      </g>
     </g>
    </g>
    <g id="text_30">
     <!-- TEST sample index -->
     <g transform="translate(408.834219 475.08) scale(0.1 -0.1)">
      <use xlink:href="#AppleSDGothicNeo-Regular-35"/>
      <use xlink:href="#AppleSDGothicNeo-Regular-26" transform="translate(54.40625 0)"/>
      <use xlink:href="#AppleSDGothicNeo-Regular-34" transform="translate(109.40625 0)"/>
      <use xlink:href="#AppleSDGothicNeo-Regular-35" transform="translate(159.8125 0)"/>
      <use xlink:href="#AppleSDGothicNeo-Regular-1" transform="translate(214.21875 0)"/>
      <use xlink:href="#AppleSDGothicNeo-Regular-54" transform="translate(240.515625 0)"/>
      <use xlink:href="#AppleSDGothicNeo-Regular-42" transform="translate(282.015625 0)"/>
      <use xlink:href="#AppleSDGothicNeo-Regular-4e" transform="translate(329.21875 0)"/>
      <use xlink:href="#AppleSDGothicNeo-Regular-51" transform="translate(409.515625 0)"/>
      <use xlink:href="#AppleSDGothicNeo-Regular-4d" transform="translate(464.015625 0)"/>
      <use xlink:href="#AppleSDGothicNeo-Regular-46" transform="translate(486.71875 0)"/>
      <use xlink:href="#AppleSDGothicNeo-Regular-1" transform="translate(536.71875 0)"/>
      <use xlink:href="#AppleSDGothicNeo-Regular-4a" transform="translate(563.015625 0)"/>
      <use xlink:href="#AppleSDGothicNeo-Regular-4f" transform="translate(585.71875 0)"/>
      <use xlink:href="#AppleSDGothicNeo-Regular-45" transform="translate(639.3125 0)"/>
      <use xlink:href="#AppleSDGothicNeo-Regular-46" transform="translate(693.8125 0)"/>
      <use xlink:href="#AppleSDGothicNeo-Regular-59" transform="translate(742.8125 0)"/>
     </g>
    </g>
   </g>
   <g id="matplotlib.axis_4"/>
   <g id="patch_10">
    <path d="M 49.28 443.08 
L 49.28 369.144 
" style="fill: none; stroke: #000000; stroke-width: 0.8; stroke-linejoin: miter; stroke-linecap: square"/>
   </g>
   <g id="patch_11">
    <path d="M 847.44 443.08 
L 847.44 369.144 
" style="fill: none; stroke: #000000; stroke-width: 0.8; stroke-linejoin: miter; stroke-linecap: square"/>
   </g>
   <g id="patch_12">
    <path d="M 49.28 443.08 
L 847.44 443.08 
" style="fill: none; stroke: #000000; stroke-width: 0.8; stroke-linejoin: miter; stroke-linecap: square"/>
   </g>
   <g id="patch_13">
    <path d="M 49.28 369.144 
L 847.44 369.144 
" style="fill: none; stroke: #000000; stroke-width: 0.8; stroke-linejoin: miter; stroke-linecap: square"/>
   </g>
   <g id="legend_2">
    <g id="patch_14">
     <path d="M 728.46875 402.744 
L 841.84 402.744 
Q 843.44 402.744 843.44 401.144 
L 843.44 374.744 
Q 843.44 373.144 841.84 373.144 
L 728.46875 373.144 
Q 726.86875 373.144 726.86875 374.744 
L 726.86875 401.144 
Q 726.86875 402.744 728.46875 402.744 
z
" style="fill: #ffffff; opacity: 0.8; stroke: #cccccc; stroke-linejoin: miter"/>
    </g>
    <g id="PathCollection_3">
     <g>
      <use xlink:href="#mb13f5d5a58" x="738.06875" y="381.444" style="fill: #e45756; stroke: #e45756; stroke-width: 1.5"/>
     </g>
    </g>
    <g id="text_31">
     <!-- actual anomaly (post-hoc) -->
     <g transform="translate(752.46875 383.544) scale(0.08 -0.08)">
      <defs>
       <path id="AppleSDGothicNeo-Regular-9" d="M 1472 -384 
L 1914 -384 
C 1344 256 883 1235 883 2221 
L 883 2374 
C 883 3392 1344 4307 1914 4941 
L 1472 4941 
C 883 4339 365 3469 365 2330 
L 365 2227 
C 365 1094 883 218 1472 -384 
z
" transform="scale(0.015625)"/>
       <path id="AppleSDGothicNeo-Regular-a" d="M 115 -384 
L 550 -384 
C 1146 218 1651 1088 1651 2227 
L 1651 2330 
C 1651 3462 1146 4339 550 4941 
L 115 4941 
C 678 4301 1146 3322 1146 2336 
L 1146 2176 
C 1146 1165 678 250 115 -384 
z
" transform="scale(0.015625)"/>
      </defs>
      <use xlink:href="#AppleSDGothicNeo-Regular-42"/>
      <use xlink:href="#AppleSDGothicNeo-Regular-44" transform="translate(47.203125 0)"/>
      <use xlink:href="#AppleSDGothicNeo-Regular-55" transform="translate(93.109375 0)"/>
      <use xlink:href="#AppleSDGothicNeo-Regular-56" transform="translate(128.109375 0)"/>
      <use xlink:href="#AppleSDGothicNeo-Regular-42" transform="translate(181.109375 0)"/>
      <use xlink:href="#AppleSDGothicNeo-Regular-4d" transform="translate(228.3125 0)"/>
      <use xlink:href="#AppleSDGothicNeo-Regular-1" transform="translate(251.015625 0)"/>
      <use xlink:href="#AppleSDGothicNeo-Regular-42" transform="translate(277.3125 0)"/>
      <use xlink:href="#AppleSDGothicNeo-Regular-4f" transform="translate(324.515625 0)"/>
      <use xlink:href="#AppleSDGothicNeo-Regular-50" transform="translate(378.109375 0)"/>
      <use xlink:href="#AppleSDGothicNeo-Regular-4e" transform="translate(431.515625 0)"/>
      <use xlink:href="#AppleSDGothicNeo-Regular-42" transform="translate(511.8125 0)"/>
      <use xlink:href="#AppleSDGothicNeo-Regular-4d" transform="translate(559.015625 0)"/>
      <use xlink:href="#AppleSDGothicNeo-Regular-5a" transform="translate(581.71875 0)"/>
      <use xlink:href="#AppleSDGothicNeo-Regular-1" transform="translate(629.921875 0)"/>
      <use xlink:href="#AppleSDGothicNeo-Regular-9" transform="translate(656.21875 0)"/>
      <use xlink:href="#AppleSDGothicNeo-Regular-51" transform="translate(687.921875 0)"/>
      <use xlink:href="#AppleSDGothicNeo-Regular-50" transform="translate(742.421875 0)"/>
      <use xlink:href="#AppleSDGothicNeo-Regular-54" transform="translate(795.828125 0)"/>
      <use xlink:href="#AppleSDGothicNeo-Regular-55" transform="translate(837.328125 0)"/>
      <use xlink:href="#AppleSDGothicNeo-Regular-e" transform="translate(870.234375 0)"/>
      <use xlink:href="#AppleSDGothicNeo-Regular-49" transform="translate(913.4375 0)"/>
      <use xlink:href="#AppleSDGothicNeo-Regular-50" transform="translate(967.03125 0)"/>
      <use xlink:href="#AppleSDGothicNeo-Regular-44" transform="translate(1020.4375 0)"/>
      <use xlink:href="#AppleSDGothicNeo-Regular-a" transform="translate(1065.4375 0)"/>
     </g>
    </g>
    <g id="PathCollection_4">
     <g>
      <use xlink:href="#mab8ffc6056" x="738.06875" y="395.044" style="fill: #111111; stroke: #111111"/>
     </g>
    </g>
    <g id="text_32">
     <!-- selected case -->
     <g transform="translate(752.46875 397.144) scale(0.08 -0.08)">
      <use xlink:href="#AppleSDGothicNeo-Regular-54"/>
      <use xlink:href="#AppleSDGothicNeo-Regular-46" transform="translate(41.5 0)"/>
      <use xlink:href="#AppleSDGothicNeo-Regular-4d" transform="translate(91.5 0)"/>
      <use xlink:href="#AppleSDGothicNeo-Regular-46" transform="translate(114.203125 0)"/>
      <use xlink:href="#AppleSDGothicNeo-Regular-44" transform="translate(164.203125 0)"/>
      <use xlink:href="#AppleSDGothicNeo-Regular-55" transform="translate(210.109375 0)"/>
      <use xlink:href="#AppleSDGothicNeo-Regular-46" transform="translate(245.109375 0)"/>
      <use xlink:href="#AppleSDGothicNeo-Regular-45" transform="translate(295.109375 0)"/>
      <use xlink:href="#AppleSDGothicNeo-Regular-1" transform="translate(349.609375 0)"/>
      <use xlink:href="#AppleSDGothicNeo-Regular-44" transform="translate(375.90625 0)"/>
      <use xlink:href="#AppleSDGothicNeo-Regular-42" transform="translate(420.90625 0)"/>
      <use xlink:href="#AppleSDGothicNeo-Regular-54" transform="translate(468.109375 0)"/>
      <use xlink:href="#AppleSDGothicNeo-Regular-46" transform="translate(509.609375 0)"/>
     </g>
    </g>
   </g>
  </g>
  <g id="text_33">
   <!-- Actual anomaly labels are shown only for post-hoc evaluation and explanation; they were not used for candidate selection or routing. -->
   <g transform="translate(8.64 501.48) scale(0.08 -0.08)">
    <defs>
     <path id="AppleSDGothicNeo-Regular-58" d="M 1082 269 
L 1581 269 
L 2330 2688 
L 2349 2688 
L 3085 269 
L 3578 269 
L 4480 3443 
L 4013 3443 
L 3360 902 
L 3334 902 
L 2566 3443 
L 2144 3443 
L 1382 902 
L 1357 902 
L 704 3443 
L 179 3443 
L 1082 269 
z
" transform="scale(0.015625)"/>
     <path id="AppleSDGothicNeo-Regular-47" d="M 653 269 
L 1146 269 
L 1146 3034 
L 1875 3034 
L 1875 3437 
L 1146 3437 
L 1146 3866 
C 1146 4307 1357 4486 1734 4486 
C 1952 4486 2086 4461 2182 4442 
L 2182 4787 
C 2067 4845 1894 4896 1645 4896 
C 1069 4896 653 4595 653 3898 
L 653 3437 
L 186 3437 
L 186 3034 
L 653 3034 
L 653 269 
z
" transform="scale(0.015625)"/>
     <path id="AppleSDGothicNeo-Regular-1c" d="M 416 -122 
L 774 -122 
L 1222 1094 
L 646 1094 
L 416 -122 
z
M 646 3021 
L 1203 3021 
L 1203 3590 
L 646 3590 
L 646 3021 
z
" transform="scale(0.015625)"/>
     <path id="AppleSDGothicNeo-Regular-48" d="M 1574 -672 
C 2656 -672 3091 -243 3091 301 
C 3091 890 2662 1062 2086 1062 
L 1210 1062 
C 998 1062 896 1126 896 1299 
C 896 1402 960 1478 1043 1555 
C 1210 1498 1389 1466 1587 1466 
C 2253 1466 2778 1805 2778 2483 
L 2778 2490 
C 2778 2739 2694 2931 2547 3072 
L 3117 3072 
L 3117 3450 
L 2042 3450 
C 1901 3482 1754 3501 1594 3501 
C 896 3501 397 3136 397 2477 
L 397 2464 
C 397 2086 550 1830 794 1670 
C 550 1491 435 1344 435 1146 
C 435 934 576 800 755 749 
L 755 717 
C 429 608 154 410 154 70 
C 154 -390 608 -672 1574 -672 
z
M 1562 -288 
C 934 -288 666 -147 666 134 
C 666 403 851 544 1094 627 
L 2010 627 
C 2426 627 2579 531 2579 237 
C 2579 -96 2310 -288 1562 -288 
z
M 1587 1850 
C 1165 1850 883 2054 883 2470 
L 883 2502 
C 883 2899 1152 3130 1587 3130 
C 2016 3130 2285 2931 2285 2496 
L 2285 2464 
C 2285 2054 2029 1850 1587 1850 
z
" transform="scale(0.015625)"/>
    </defs>
    <use xlink:href="#AppleSDGothicNeo-Regular-22"/>
    <use xlink:href="#AppleSDGothicNeo-Regular-44" transform="translate(60.5 0)"/>
    <use xlink:href="#AppleSDGothicNeo-Regular-55" transform="translate(106.40625 0)"/>
    <use xlink:href="#AppleSDGothicNeo-Regular-56" transform="translate(141.40625 0)"/>
    <use xlink:href="#AppleSDGothicNeo-Regular-42" transform="translate(194.40625 0)"/>
    <use xlink:href="#AppleSDGothicNeo-Regular-4d" transform="translate(241.609375 0)"/>
    <use xlink:href="#AppleSDGothicNeo-Regular-1" transform="translate(264.3125 0)"/>
    <use xlink:href="#AppleSDGothicNeo-Regular-42" transform="translate(290.609375 0)"/>
    <use xlink:href="#AppleSDGothicNeo-Regular-4f" transform="translate(337.8125 0)"/>
    <use xlink:href="#AppleSDGothicNeo-Regular-50" transform="translate(391.40625 0)"/>
    <use xlink:href="#AppleSDGothicNeo-Regular-4e" transform="translate(444.8125 0)"/>
    <use xlink:href="#AppleSDGothicNeo-Regular-42" transform="translate(525.109375 0)"/>
    <use xlink:href="#AppleSDGothicNeo-Regular-4d" transform="translate(572.3125 0)"/>
    <use xlink:href="#AppleSDGothicNeo-Regular-5a" transform="translate(595.015625 0)"/>
    <use xlink:href="#AppleSDGothicNeo-Regular-1" transform="translate(643.21875 0)"/>
    <use xlink:href="#AppleSDGothicNeo-Regular-4d" transform="translate(669.515625 0)"/>
    <use xlink:href="#AppleSDGothicNeo-Regular-42" transform="translate(692.21875 0)"/>
    <use xlink:href="#AppleSDGothicNeo-Regular-43" transform="translate(739.421875 0)"/>
    <use xlink:href="#AppleSDGothicNeo-Regular-46" transform="translate(793.921875 0)"/>
    <use xlink:href="#AppleSDGothicNeo-Regular-4d" transform="translate(843.921875 0)"/>
    <use xlink:href="#AppleSDGothicNeo-Regular-54" transform="translate(866.625 0)"/>
    <use xlink:href="#AppleSDGothicNeo-Regular-1" transform="translate(908.125 0)"/>
    <use xlink:href="#AppleSDGothicNeo-Regular-42" transform="translate(934.421875 0)"/>
    <use xlink:href="#AppleSDGothicNeo-Regular-53" transform="translate(981.625 0)"/>
    <use xlink:href="#AppleSDGothicNeo-Regular-46" transform="translate(1016.21875 0)"/>
    <use xlink:href="#AppleSDGothicNeo-Regular-1" transform="translate(1066.21875 0)"/>
    <use xlink:href="#AppleSDGothicNeo-Regular-54" transform="translate(1092.515625 0)"/>
    <use xlink:href="#AppleSDGothicNeo-Regular-49" transform="translate(1134.015625 0)"/>
    <use xlink:href="#AppleSDGothicNeo-Regular-50" transform="translate(1187.609375 0)"/>
    <use xlink:href="#AppleSDGothicNeo-Regular-58" transform="translate(1241.015625 0)"/>
    <use xlink:href="#AppleSDGothicNeo-Regular-4f" transform="translate(1313.8125 0)"/>
    <use xlink:href="#AppleSDGothicNeo-Regular-1" transform="translate(1367.40625 0)"/>
    <use xlink:href="#AppleSDGothicNeo-Regular-50" transform="translate(1393.703125 0)"/>
    <use xlink:href="#AppleSDGothicNeo-Regular-4f" transform="translate(1447.109375 0)"/>
    <use xlink:href="#AppleSDGothicNeo-Regular-4d" transform="translate(1500.703125 0)"/>
    <use xlink:href="#AppleSDGothicNeo-Regular-5a" transform="translate(1523.40625 0)"/>
    <use xlink:href="#AppleSDGothicNeo-Regular-1" transform="translate(1571.609375 0)"/>
    <use xlink:href="#AppleSDGothicNeo-Regular-47" transform="translate(1597.90625 0)"/>
    <use xlink:href="#AppleSDGothicNeo-Regular-50" transform="translate(1630.203125 0)"/>
    <use xlink:href="#AppleSDGothicNeo-Regular-53" transform="translate(1683.609375 0)"/>
    <use xlink:href="#AppleSDGothicNeo-Regular-1" transform="translate(1718.203125 0)"/>
    <use xlink:href="#AppleSDGothicNeo-Regular-51" transform="translate(1744.5 0)"/>
    <use xlink:href="#AppleSDGothicNeo-Regular-50" transform="translate(1799 0)"/>
    <use xlink:href="#AppleSDGothicNeo-Regular-54" transform="translate(1852.40625 0)"/>
    <use xlink:href="#AppleSDGothicNeo-Regular-55" transform="translate(1893.90625 0)"/>
    <use xlink:href="#AppleSDGothicNeo-Regular-e" transform="translate(1926.8125 0)"/>
    <use xlink:href="#AppleSDGothicNeo-Regular-49" transform="translate(1970.015625 0)"/>
    <use xlink:href="#AppleSDGothicNeo-Regular-50" transform="translate(2023.609375 0)"/>
    <use xlink:href="#AppleSDGothicNeo-Regular-44" transform="translate(2077.015625 0)"/>
    <use xlink:href="#AppleSDGothicNeo-Regular-1" transform="translate(2122.015625 0)"/>
    <use xlink:href="#AppleSDGothicNeo-Regular-46" transform="translate(2148.3125 0)"/>
    <use xlink:href="#AppleSDGothicNeo-Regular-57" transform="translate(2197.8125 0)"/>
    <use xlink:href="#AppleSDGothicNeo-Regular-42" transform="translate(2245.515625 0)"/>
    <use xlink:href="#AppleSDGothicNeo-Regular-4d" transform="translate(2292.71875 0)"/>
    <use xlink:href="#AppleSDGothicNeo-Regular-56" transform="translate(2315.421875 0)"/>
    <use xlink:href="#AppleSDGothicNeo-Regular-42" transform="translate(2368.421875 0)"/>
    <use xlink:href="#AppleSDGothicNeo-Regular-55" transform="translate(2415.625 0)"/>
    <use xlink:href="#AppleSDGothicNeo-Regular-4a" transform="translate(2450.625 0)"/>
    <use xlink:href="#AppleSDGothicNeo-Regular-50" transform="translate(2473.328125 0)"/>
    <use xlink:href="#AppleSDGothicNeo-Regular-4f" transform="translate(2526.734375 0)"/>
    <use xlink:href="#AppleSDGothicNeo-Regular-1" transform="translate(2580.328125 0)"/>
    <use xlink:href="#AppleSDGothicNeo-Regular-42" transform="translate(2606.625 0)"/>
    <use xlink:href="#AppleSDGothicNeo-Regular-4f" transform="translate(2653.828125 0)"/>
    <use xlink:href="#AppleSDGothicNeo-Regular-45" transform="translate(2707.421875 0)"/>
    <use xlink:href="#AppleSDGothicNeo-Regular-1" transform="translate(2761.921875 0)"/>
    <use xlink:href="#AppleSDGothicNeo-Regular-46" transform="translate(2788.21875 0)"/>
    <use xlink:href="#AppleSDGothicNeo-Regular-59" transform="translate(2837.21875 0)"/>
    <use xlink:href="#AppleSDGothicNeo-Regular-51" transform="translate(2884.921875 0)"/>
    <use xlink:href="#AppleSDGothicNeo-Regular-4d" transform="translate(2939.421875 0)"/>
    <use xlink:href="#AppleSDGothicNeo-Regular-42" transform="translate(2962.125 0)"/>
    <use xlink:href="#AppleSDGothicNeo-Regular-4f" transform="translate(3009.328125 0)"/>
    <use xlink:href="#AppleSDGothicNeo-Regular-42" transform="translate(3062.921875 0)"/>
    <use xlink:href="#AppleSDGothicNeo-Regular-55" transform="translate(3110.125 0)"/>
    <use xlink:href="#AppleSDGothicNeo-Regular-4a" transform="translate(3145.125 0)"/>
    <use xlink:href="#AppleSDGothicNeo-Regular-50" transform="translate(3167.828125 0)"/>
    <use xlink:href="#AppleSDGothicNeo-Regular-4f" transform="translate(3221.234375 0)"/>
    <use xlink:href="#AppleSDGothicNeo-Regular-1c" transform="translate(3274.828125 0)"/>
    <use xlink:href="#AppleSDGothicNeo-Regular-1" transform="translate(3303.234375 0)"/>
    <use xlink:href="#AppleSDGothicNeo-Regular-55" transform="translate(3329.53125 0)"/>
    <use xlink:href="#AppleSDGothicNeo-Regular-49" transform="translate(3364.53125 0)"/>
    <use xlink:href="#AppleSDGothicNeo-Regular-46" transform="translate(3418.125 0)"/>
    <use xlink:href="#AppleSDGothicNeo-Regular-5a" transform="translate(3468.125 0)"/>
    <use xlink:href="#AppleSDGothicNeo-Regular-1" transform="translate(3516.328125 0)"/>
    <use xlink:href="#AppleSDGothicNeo-Regular-58" transform="translate(3542.625 0)"/>
    <use xlink:href="#AppleSDGothicNeo-Regular-46" transform="translate(3615.421875 0)"/>
    <use xlink:href="#AppleSDGothicNeo-Regular-53" transform="translate(3665.421875 0)"/>
    <use xlink:href="#AppleSDGothicNeo-Regular-46" transform="translate(3700.015625 0)"/>
    <use xlink:href="#AppleSDGothicNeo-Regular-1" transform="translate(3750.015625 0)"/>
    <use xlink:href="#AppleSDGothicNeo-Regular-4f" transform="translate(3776.3125 0)"/>
    <use xlink:href="#AppleSDGothicNeo-Regular-50" transform="translate(3829.90625 0)"/>
    <use xlink:href="#AppleSDGothicNeo-Regular-55" transform="translate(3883.3125 0)"/>
    <use xlink:href="#AppleSDGothicNeo-Regular-1" transform="translate(3918.3125 0)"/>
    <use xlink:href="#AppleSDGothicNeo-Regular-56" transform="translate(3944.609375 0)"/>
    <use xlink:href="#AppleSDGothicNeo-Regular-54" transform="translate(3997.609375 0)"/>
    <use xlink:href="#AppleSDGothicNeo-Regular-46" transform="translate(4039.109375 0)"/>
    <use xlink:href="#AppleSDGothicNeo-Regular-45" transform="translate(4089.109375 0)"/>
    <use xlink:href="#AppleSDGothicNeo-Regular-1" transform="translate(4143.609375 0)"/>
    <use xlink:href="#AppleSDGothicNeo-Regular-47" transform="translate(4169.90625 0)"/>
    <use xlink:href="#AppleSDGothicNeo-Regular-50" transform="translate(4202.203125 0)"/>
    <use xlink:href="#AppleSDGothicNeo-Regular-53" transform="translate(4255.609375 0)"/>
    <use xlink:href="#AppleSDGothicNeo-Regular-1" transform="translate(4290.203125 0)"/>
    <use xlink:href="#AppleSDGothicNeo-Regular-44" transform="translate(4316.5 0)"/>
    <use xlink:href="#AppleSDGothicNeo-Regular-42" transform="translate(4361.5 0)"/>
    <use xlink:href="#AppleSDGothicNeo-Regular-4f" transform="translate(4408.703125 0)"/>
    <use xlink:href="#AppleSDGothicNeo-Regular-45" transform="translate(4462.296875 0)"/>
    <use xlink:href="#AppleSDGothicNeo-Regular-4a" transform="translate(4516.796875 0)"/>
    <use xlink:href="#AppleSDGothicNeo-Regular-45" transform="translate(4539.5 0)"/>
    <use xlink:href="#AppleSDGothicNeo-Regular-42" transform="translate(4594 0)"/>
    <use xlink:href="#AppleSDGothicNeo-Regular-55" transform="translate(4641.203125 0)"/>
    <use xlink:href="#AppleSDGothicNeo-Regular-46" transform="translate(4676.203125 0)"/>
    <use xlink:href="#AppleSDGothicNeo-Regular-1" transform="translate(4726.203125 0)"/>
    <use xlink:href="#AppleSDGothicNeo-Regular-54" transform="translate(4752.5 0)"/>
    <use xlink:href="#AppleSDGothicNeo-Regular-46" transform="translate(4794 0)"/>
    <use xlink:href="#AppleSDGothicNeo-Regular-4d" transform="translate(4844 0)"/>
    <use xlink:href="#AppleSDGothicNeo-Regular-46" transform="translate(4866.703125 0)"/>
    <use xlink:href="#AppleSDGothicNeo-Regular-44" transform="translate(4916.703125 0)"/>
    <use xlink:href="#AppleSDGothicNeo-Regular-55" transform="translate(4962.609375 0)"/>
    <use xlink:href="#AppleSDGothicNeo-Regular-4a" transform="translate(4997.609375 0)"/>
    <use xlink:href="#AppleSDGothicNeo-Regular-50" transform="translate(5020.3125 0)"/>
    <use xlink:href="#AppleSDGothicNeo-Regular-4f" transform="translate(5073.71875 0)"/>
    <use xlink:href="#AppleSDGothicNeo-Regular-1" transform="translate(5127.3125 0)"/>
    <use xlink:href="#AppleSDGothicNeo-Regular-50" transform="translate(5153.609375 0)"/>
    <use xlink:href="#AppleSDGothicNeo-Regular-53" transform="translate(5207.015625 0)"/>
    <use xlink:href="#AppleSDGothicNeo-Regular-1" transform="translate(5241.609375 0)"/>
    <use xlink:href="#AppleSDGothicNeo-Regular-53" transform="translate(5267.90625 0)"/>
    <use xlink:href="#AppleSDGothicNeo-Regular-50" transform="translate(5302.5 0)"/>
    <use xlink:href="#AppleSDGothicNeo-Regular-56" transform="translate(5355.90625 0)"/>
    <use xlink:href="#AppleSDGothicNeo-Regular-55" transform="translate(5408.90625 0)"/>
    <use xlink:href="#AppleSDGothicNeo-Regular-4a" transform="translate(5443.90625 0)"/>
    <use xlink:href="#AppleSDGothicNeo-Regular-4f" transform="translate(5466.609375 0)"/>
    <use xlink:href="#AppleSDGothicNeo-Regular-48" transform="translate(5520.203125 0)"/>
    <use xlink:href="#AppleSDGothicNeo-Regular-f" transform="translate(5570.796875 0)"/>
   </g>
  </g>
 </g>
 <defs>
  <clipPath id="p012fa3467e">
   <rect x="49.28" y="27.6" width="798.16" height="295.744"/>
  </clipPath>
  <clipPath id="pdd7e4019bc">
   <rect x="49.28" y="369.144" width="798.16" height="73.936"/>
  </clipPath>
 </defs>
</svg>
