<?xml version="1.0" encoding="utf-8" standalone="no"?>
<!DOCTYPE svg PUBLIC "-//W3C//DTD SVG 1.1//EN"
  "http://www.w3.org/Graphics/SVG/1.1/DTD/svg11.dtd">
<svg xmlns:xlink="http://www.w3.org/1999/xlink" width="864pt" height="504pt" viewBox="0 0 864 504" xmlns="http://www.w3.org/2000/svg" version="1.1">
 <metadata>
  <rdf:RDF xmlns:dc="http://purl.org/dc/elements/1.1/" xmlns:cc="http://creativecommons.org/ns#" xmlns:rdf="http://www.w3.org/1999/02/22-rdf-syntax-ns#">
   <cc:Work>
    <dc:type rdf:resource="http://purl.org/dc/dcmitype/StillImage"/>
    <dc:date>2026-07-13T08:09:36.211951</dc:date>
    <dc:format>image/svg+xml</dc:format>
    <dc:creator>
     <cc:Agent>
      <dc:title>Matplotlib v3.11.0, https://matplotlib.org/</dc:title>
     </cc:Agent>
    </dc:creator>
   </cc:Work>
  </rdf:RDF>
 </metadata>
 <defs>
  <style type="text/css">*{stroke-linejoin: round; stroke-linecap: butt}</style>
 </defs>
 <g id="figure_1">
  <g id="patch_1">
   <path d="M 0 504 
L 864 504 
L 864 0 
L 0 0 
z
" style="fill: #ffffff"/>
  </g>
  <g id="axes_1">
   <g id="patch_2">
    <path d="M 42.845 323.344 
L 844.2 323.344 
L 844.2 27.6 
L 42.845 27.6 
z
" style="fill: #ffffff"/>
   </g>
   <g id="FillBetweenPolyCollection_1">
    <defs>
     <path id="me97c450f00" d="M 79.270227 -275.348664 
L 79.270227 -221.567578 
L 84.874108 -227.448852 
L 90.47799 -233.340282 
L 96.081871 -239.182457 
L 101.685752 -240.417399 
L 107.289633 -242.700868 
L 112.893514 -241.03566 
L 118.497395 -241.728001 
L 124.101276 -245.776733 
L 129.705157 -248.891069 
L 135.309038 -251.971425 
L 140.91292 -252.474852 
L 146.516801 -253.480585 
L 152.120682 -253.969205 
L 157.724563 -255.115688 
L 163.328444 -256.09576 
L 168.932325 -256.019844 
L 174.536206 -256.091717 
L 180.140087 -255.415793 
L 185.743969 -257.733936 
L 191.34785 -258.32601 
L 196.951731 -259.120449 
L 202.555612 -259.040436 
L 208.159493 -257.672739 
L 213.763374 -256.96793 
L 219.367255 -254.314354 
L 224.971136 -251.854947 
L 230.575017 -246.562944 
L 236.178899 -240.637569 
L 241.78278 -240.854139 
L 247.386661 -241.070214 
L 252.990542 -246.377896 
L 258.594423 -259.196406 
L 264.198304 -259.476274 
L 269.802185 -262.100373 
L 275.406066 -263.885869 
L 281.009948 -264.637665 
L 286.613829 -259.716196 
L 292.21771 -251.357549 
L 297.821591 -248.140341 
L 303.425472 -243.466924 
L 309.029353 -240.448243 
L 314.633234 -240.071546 
L 320.237115 -242.135327 
L 325.840997 -249.313523 
L 331.444878 -254.983023 
L 337.048759 -260.925533 
L 342.65264 -261.153074 
L 348.256521 -260.94266 
L 353.860402 -261.230732 
L 359.464283 -260.206314 
L 365.068164 -259.992827 
L 370.672045 -259.63523 
L 376.275927 -259.519376 
L 381.879808 -259.119463 
L 387.483689 -259.119463 
L 393.08757 -258.510575 
L 398.691451 -256.287337 
L 404.295332 -255.384634 
L 409.899213 -253.23766 
L 415.503094 -252.844951 
L 421.106976 -257.526625 
L 426.710857 -259.986084 
L 432.314738 -261.648761 
L 437.918619 -262.160533 
L 443.5225 -260.214804 
L 449.126381 -259.725796 
L 454.730262 -259.671191 
L 460.334143 -261.61028 
L 465.938024 -263.367885 
L 471.541906 -263.209343 
L 477.145787 -262.568623 
L 482.749668 -261.310036 
L 488.353549 -259.357099 
L 493.95743 -259.37808 
L 499.561311 -259.732378 
L 505.165192 -260.702845 
L 510.769073 -258.451275 
L 516.372955 -257.443422 
L 521.976836 -254.921794 
L 527.580717 -252.395459 
L 533.184598 -249.720771 
L 538.788479 -247.871879 
L 544.39236 -245.69866 
L 549.996241 -244.853025 
L 555.600122 -242.440169 
L 561.204003 -233.866333 
L 566.807885 -228.194261 
L 572.411766 -221.392566 
L 578.015647 -213.523866 
L 583.619528 -208.472076 
L 589.223409 -212.031742 
L 594.82729 -213.912779 
L 600.431171 -214.296593 
L 606.035052 -219.834448 
L 611.638934 -223.530495 
L 617.242815 -222.753383 
L 622.846696 -226.582399 
L 628.450577 -233.868434 
L 634.054458 -235.697691 
L 639.658339 -232.684836 
L 645.26222 -231.537102 
L 650.866101 -224.595375 
L 656.469983 -221.003243 
L 662.073864 -222.957847 
L 667.677745 -221.287875 
L 673.281626 -218.128982 
L 678.885507 -220.737385 
L 684.489388 -221.826204 
L 690.093269 -223.980008 
L 695.69715 -226.968148 
L 701.301031 -230.326984 
L 706.904913 -233.212793 
L 712.508794 -235.959213 
L 718.112675 -241.670445 
L 723.716556 -242.963747 
L 729.320437 -246.87091 
L 734.924318 -246.061802 
L 740.528199 -245.589421 
L 746.13208 -243.358056 
L 751.735962 -244.700882 
L 757.339843 -243.189631 
L 762.943724 -239.662694 
L 768.547605 -236.860187 
L 774.151486 -233.879123 
L 779.755367 -233.319593 
L 785.359248 -229.452085 
L 790.963129 -223.278315 
L 796.56701 -212.895118 
L 802.170892 -220.942069 
L 807.774773 -314.866166 
L 807.774773 -462.957091 
L 807.774773 -462.957091 
L 802.170892 -338.718765 
L 796.56701 -281.340083 
L 790.963129 -271.165507 
L 785.359248 -279.65203 
L 779.755367 -291.615295 
L 774.151486 -303.475297 
L 768.547605 -312.191287 
L 762.943724 -316.991322 
L 757.339843 -318.864793 
L 751.735962 -321.107746 
L 746.13208 -323.021758 
L 740.528199 -322.38749 
L 734.924318 -319.522359 
L 729.320437 -313.962152 
L 723.716556 -309.904916 
L 718.112675 -307.1055 
L 712.508794 -305.189084 
L 706.904913 -302.025959 
L 701.301031 -298.012289 
L 695.69715 -290.360015 
L 690.093269 -282.64619 
L 684.489388 -285.317192 
L 678.885507 -290.362671 
L 673.281626 -308.74565 
L 667.677745 -317.886836 
L 662.073864 -322.392878 
L 656.469983 -323.927649 
L 650.866101 -325.861485 
L 645.26222 -327.272074 
L 639.658339 -328.241618 
L 634.054458 -323.813576 
L 628.450577 -323.472015 
L 622.846696 -319.200332 
L 617.242815 -311.773718 
L 611.638934 -311.578586 
L 606.035052 -311.980343 
L 600.431171 -307.130638 
L 594.82729 -304.778867 
L 589.223409 -296.80567 
L 583.619528 -296.647019 
L 578.015647 -295.198699 
L 572.411766 -294.051919 
L 566.807885 -292.416788 
L 561.204003 -292.915793 
L 555.600122 -293.933022 
L 549.996241 -301.044361 
L 544.39236 -303.061568 
L 538.788479 -299.479966 
L 533.184598 -298.961382 
L 527.580717 -296.571873 
L 521.976836 -298.454401 
L 516.372955 -296.976549 
L 510.769073 -291.75225 
L 505.165192 -285.461384 
L 499.561311 -281.004209 
L 493.95743 -283.084281 
L 488.353549 -284.8223 
L 482.749668 -285.886373 
L 477.145787 -286.69043 
L 471.541906 -283.647117 
L 465.938024 -281.461343 
L 460.334143 -280.238941 
L 454.730262 -279.243916 
L 449.126381 -278.975279 
L 443.5225 -278.233519 
L 437.918619 -278.021428 
L 432.314738 -277.163049 
L 426.710857 -277.411609 
L 421.106976 -275.677912 
L 415.503094 -273.739531 
L 409.899213 -272.992865 
L 404.295332 -272.716191 
L 398.691451 -273.34206 
L 393.08757 -278.391374 
L 387.483689 -281.196187 
L 381.879808 -281.274514 
L 376.275927 -280.372612 
L 370.672045 -280.644858 
L 365.068164 -284.082586 
L 359.464283 -295.482628 
L 353.860402 -301.079215 
L 348.256521 -303.198282 
L 342.65264 -307.351525 
L 337.048759 -307.545144 
L 331.444878 -302.543908 
L 325.840997 -289.448192 
L 320.237115 -286.09934 
L 314.633234 -286.636951 
L 309.029353 -287.740145 
L 303.425472 -288.084718 
L 297.821591 -290.362747 
L 292.21771 -291.334293 
L 286.613829 -296.611744 
L 281.009948 -302.874081 
L 275.406066 -311.354426 
L 269.802185 -317.686124 
L 264.198304 -313.086446 
L 258.594423 -304.62351 
L 252.990542 -284.186552 
L 247.386661 -275.55139 
L 241.78278 -275.022308 
L 236.178899 -274.836107 
L 230.575017 -273.598699 
L 224.971136 -272.732917 
L 219.367255 -274.110982 
L 213.763374 -275.250716 
L 208.159493 -276.252244 
L 202.555612 -277.114974 
L 196.951731 -276.916434 
L 191.34785 -275.754587 
L 185.743969 -275.53453 
L 180.140087 -275.223996 
L 174.536206 -276.083672 
L 168.932325 -275.565708 
L 163.328444 -275.755174 
L 157.724563 -275.900989 
L 152.120682 -276.935808 
L 146.516801 -275.6704 
L 140.91292 -273.042765 
L 135.309038 -270.569168 
L 129.705157 -268.387276 
L 124.101276 -269.746846 
L 118.497395 -272.128737 
L 112.893514 -276.462303 
L 107.289633 -277.801555 
L 101.685752 -280.825695 
L 96.081871 -281.015038 
L 90.47799 -282.323173 
L 84.874108 -281.315641 
L 79.270227 -275.348664 
z
" style="stroke: #a7dff3; stroke-opacity: 0.55"/>
    </defs>
    <g clip-path="url(#p97e9dc3a23)">
     <use xlink:href="#me97c450f00" x="0" y="504" style="fill: #a7dff3; fill-opacity: 0.55; stroke: #a7dff3; stroke-opacity: 0.55"/>
    </g>
   </g>
   <g id="matplotlib.axis_1">
    <g id="xtick_1">
     <g id="line2d_1">
      <defs>
       <path id="m583a0698ae" d="M 0 0 
L 0 3.5 
" style="stroke: #000000; stroke-width: 0.8"/>
      </defs>
      <g>
       <use xlink:href="#m583a0698ae" x="79.270227" y="323.344" style="stroke: #000000; stroke-width: 0.8"/>
      </g>
     </g>
     <g id="text_1">
      <!-- 0 -->
      <g transform="translate(76.120227 339.344) scale(0.1 -0.1)">
       <defs>
        <path id="AppleSDGothicNeo-Regular-11" d="M 2022 192 
C 2893 192 3558 787 3558 2240 
L 3558 2630 
C 3558 4122 2867 4634 2029 4634 
C 1184 4634 448 4122 448 2605 
L 448 2246 
C 448 794 1139 192 2022 192 
z
M 2022 614 
C 1350 614 992 1126 992 2195 
L 992 2669 
C 992 3744 1357 4211 2029 4211 
C 2688 4211 3040 3718 3040 2637 
L 3040 2163 
C 3040 1062 2682 614 2022 614 
z
" transform="scale(0.015625)"/>
       </defs>
       <use xlink:href="#AppleSDGothicNeo-Regular-11"/>
      </g>
     </g>
    </g>
    <g id="xtick_2">
     <g id="line2d_2">
      <g>
       <use xlink:href="#m583a0698ae" x="191.34785" y="323.344" style="stroke: #000000; stroke-width: 0.8"/>
      </g>
     </g>
     <g id="text_2">
      <!-- 20 -->
      <g transform="translate(185.558006 339.344) scale(0.1 -0.1)">
       <defs>
        <path id="AppleSDGothicNeo-Regular-13" d="M 397 269 
L 3066 269 
L 3066 704 
L 1107 704 
L 1779 1382 
C 2522 2138 2970 2650 2970 3392 
C 2970 4160 2502 4640 1638 4640 
C 1152 4640 717 4422 448 4250 
L 595 3846 
C 845 4019 1190 4198 1555 4198 
C 2163 4198 2438 3917 2438 3347 
C 2438 2733 2029 2266 1421 1632 
L 397 570 
L 397 269 
z
" transform="scale(0.015625)"/>
       </defs>
       <use xlink:href="#AppleSDGothicNeo-Regular-13"/>
       <use xlink:href="#AppleSDGothicNeo-Regular-11" transform="translate(52.796875 0)"/>
      </g>
     </g>
    </g>
    <g id="xtick_3">
     <g id="line2d_3">
      <g>
       <use xlink:href="#m583a0698ae" x="303.425472" y="323.344" style="stroke: #000000; stroke-width: 0.8"/>
      </g>
     </g>
     <g id="text_3">
      <!-- 40 -->
      <g transform="translate(297.500472 339.344) scale(0.1 -0.1)">
       <defs>
        <path id="AppleSDGothicNeo-Regular-15" d="M 2214 166 
L 2682 166 
L 2682 1171 
L 3398 1171 
L 3398 1587 
L 2682 1587 
L 2682 4621 
L 2285 4621 
L 186 1555 
L 186 1171 
L 2214 1171 
L 2214 166 
z
M 730 1587 
L 2214 3814 
L 2214 1587 
L 730 1587 
z
" transform="scale(0.015625)"/>
       </defs>
       <use xlink:href="#AppleSDGothicNeo-Regular-15"/>
       <use xlink:href="#AppleSDGothicNeo-Regular-11" transform="translate(55.5 0)"/>
      </g>
     </g>
    </g>
    <g id="xtick_4">
     <g id="line2d_4">
      <g>
       <use xlink:href="#m583a0698ae" x="415.503094" y="323.344" style="stroke: #000000; stroke-width: 0.8"/>
      </g>
     </g>
     <g id="text_4">
      <!-- 60 -->
      <g transform="translate(409.607782 339.344) scale(0.1 -0.1)">
       <defs>
        <path id="AppleSDGothicNeo-Regular-17" d="M 1837 192 
C 2707 192 3232 826 3232 1645 
C 3232 2464 2656 2957 1939 2957 
C 1459 2957 1107 2733 877 2496 
C 941 3834 1350 4205 2080 4205 
C 2355 4205 2733 4096 2886 4006 
L 3034 4378 
C 2854 4486 2458 4634 2029 4634 
C 1037 4634 365 3968 365 2451 
L 365 2118 
C 365 896 877 192 1837 192 
z
M 1830 614 
C 1146 614 877 1139 877 1939 
L 877 1984 
C 1056 2240 1427 2528 1837 2528 
C 2355 2528 2720 2266 2720 1594 
C 2720 979 2387 614 1830 614 
z
" transform="scale(0.015625)"/>
       </defs>
       <use xlink:href="#AppleSDGothicNeo-Regular-17"/>
       <use xlink:href="#AppleSDGothicNeo-Regular-11" transform="translate(54.90625 0)"/>
      </g>
     </g>
    </g>
    <g id="xtick_5">
     <g id="line2d_5">
      <g>
       <use xlink:href="#m583a0698ae" x="527.580717" y="323.344" style="stroke: #000000; stroke-width: 0.8"/>
      </g>
     </g>
     <g id="text_5">
      <!-- 80 -->
      <g transform="translate(521.555717 339.344) scale(0.1 -0.1)">
       <defs>
        <path id="AppleSDGothicNeo-Regular-19" d="M 1837 186 
C 2765 186 3341 723 3341 1408 
C 3341 2054 2829 2362 2298 2534 
C 2739 2765 3168 3066 3168 3584 
C 3168 4250 2624 4640 1818 4640 
C 992 4640 461 4179 461 3558 
C 461 3008 838 2682 1299 2502 
C 826 2317 339 1926 339 1363 
C 339 659 922 186 1837 186 
z
M 1830 608 
C 1261 608 851 909 851 1382 
C 851 1856 1280 2163 1702 2310 
C 2445 2074 2797 1882 2797 1357 
C 2797 915 2381 608 1830 608 
z
M 1920 2720 
C 1350 2867 1005 3130 1005 3571 
C 1005 3981 1331 4218 1824 4218 
C 2355 4218 2637 3942 2637 3565 
C 2637 3155 2323 2899 1920 2720 
z
" transform="scale(0.015625)"/>
       </defs>
       <use xlink:href="#AppleSDGothicNeo-Regular-19"/>
       <use xlink:href="#AppleSDGothicNeo-Regular-11" transform="translate(57.5 0)"/>
      </g>
     </g>
    </g>
    <g id="xtick_6">
     <g id="line2d_6">
      <g>
       <use xlink:href="#m583a0698ae" x="639.658339" y="323.344" style="stroke: #000000; stroke-width: 0.8"/>
      </g>
     </g>
     <g id="text_6">
      <!-- 100 -->
      <g transform="translate(631.573183 339.344) scale(0.1 -0.1)">
       <defs>
        <path id="AppleSDGothicNeo-Regular-12" d="M 1146 243 
L 1632 243 
L 1632 4634 
L 1363 4634 
L 352 4160 
L 352 3866 
L 1146 4051 
L 1146 243 
z
" transform="scale(0.015625)"/>
       </defs>
       <use xlink:href="#AppleSDGothicNeo-Regular-12"/>
       <use xlink:href="#AppleSDGothicNeo-Regular-11" transform="translate(35.703125 0)"/>
       <use xlink:href="#AppleSDGothicNeo-Regular-11" transform="translate(98.703125 0)"/>
      </g>
     </g>
    </g>
    <g id="xtick_7">
     <g id="line2d_7">
      <g>
       <use xlink:href="#m583a0698ae" x="751.735962" y="323.344" style="stroke: #000000; stroke-width: 0.8"/>
      </g>
     </g>
     <g id="text_7">
      <!-- 120 -->
      <g transform="translate(744.160962 339.344) scale(0.1 -0.1)">
       <use xlink:href="#AppleSDGothicNeo-Regular-12"/>
       <use xlink:href="#AppleSDGothicNeo-Regular-13" transform="translate(35.703125 0)"/>
       <use xlink:href="#AppleSDGothicNeo-Regular-11" transform="translate(88.5 0)"/>
      </g>
     </g>
    </g>
    <g id="text_8">
     <!-- time index -->
     <g transform="translate(421.432656 355.344) scale(0.1 -0.1)">
      <defs>
       <path id="AppleSDGothicNeo-Regular-55" d="M 1472 230 
C 1747 230 1882 301 2010 358 
L 2010 691 
C 1882 653 1734 634 1600 634 
C 1235 634 1133 755 1133 1062 
L 1133 3034 
L 1946 3034 
L 1946 3437 
L 1133 3437 
L 1133 4192 
L 646 4192 
L 646 3437 
L 192 3437 
L 192 3034 
L 646 3034 
L 646 986 
C 646 448 973 230 1472 230 
z
" transform="scale(0.015625)"/>
       <path id="AppleSDGothicNeo-Regular-4a" d="M 486 269 
L 973 269 
L 973 3437 
L 486 3437 
L 486 269 
z
M 480 4077 
L 979 4077 
L 979 4589 
L 480 4589 
L 480 4077 
z
" transform="scale(0.015625)"/>
       <path id="AppleSDGothicNeo-Regular-4e" d="M 467 269 
L 954 269 
L 954 2848 
C 1210 2970 1491 3078 1760 3078 
C 2182 3078 2336 2918 2336 2534 
L 2336 269 
L 2822 269 
L 2822 2637 
C 2822 2714 2816 2771 2803 2848 
C 3104 2982 3373 3078 3622 3078 
C 4051 3078 4205 2918 4205 2534 
L 4205 269 
L 4685 269 
L 4685 2637 
C 4685 3251 4365 3501 3814 3501 
C 3456 3501 3085 3373 2739 3149 
L 2714 3149 
C 2566 3386 2310 3501 1952 3501 
C 1594 3501 1254 3354 960 3168 
L 934 3168 
L 934 3443 
L 467 3443 
L 467 269 
z
" transform="scale(0.015625)"/>
       <path id="AppleSDGothicNeo-Regular-46" d="M 1773 211 
C 2285 211 2650 371 2842 506 
L 2842 870 
C 2554 736 2272 634 1850 634 
C 1171 634 794 941 768 1734 
L 2931 1734 
L 2931 2010 
C 2931 2995 2522 3501 1651 3501 
C 922 3501 269 3008 269 1901 
L 269 1811 
C 269 819 774 211 1773 211 
z
M 1638 3104 
C 2157 3104 2419 2816 2419 2125 
L 768 2125 
C 819 2874 1242 3104 1638 3104 
z
" transform="scale(0.015625)"/>
       <path id="AppleSDGothicNeo-Regular-1" transform="scale(0.015625)"/>
       <path id="AppleSDGothicNeo-Regular-4f" d="M 467 269 
L 954 269 
L 954 2848 
C 1216 2970 1549 3078 1850 3078 
C 2355 3078 2490 2918 2490 2534 
L 2490 269 
L 2976 269 
L 2976 2637 
C 2976 3251 2675 3501 2054 3501 
C 1664 3501 1254 3360 960 3168 
L 934 3168 
L 934 3443 
L 467 3443 
L 467 269 
z
" transform="scale(0.015625)"/>
       <path id="AppleSDGothicNeo-Regular-45" d="M 1600 211 
C 2029 211 2336 346 2528 531 
L 2554 531 
L 2611 269 
L 3021 269 
L 3021 4851 
L 2528 4851 
L 2528 3290 
C 2355 3392 2086 3501 1696 3501 
C 877 3501 282 3002 282 1850 
L 282 1766 
C 282 595 966 211 1600 211 
z
M 1747 614 
C 1178 614 794 896 794 1786 
L 794 1914 
C 794 2771 1158 3085 1760 3085 
C 2086 3085 2381 2995 2528 2880 
L 2528 883 
C 2368 755 2118 614 1747 614 
z
" transform="scale(0.015625)"/>
       <path id="AppleSDGothicNeo-Regular-59" d="M 147 269 
L 685 269 
L 1510 1536 
L 2317 269 
L 2899 269 
L 1837 1882 
L 2822 3443 
L 2291 3443 
L 1568 2234 
L 774 3443 
L 198 3443 
L 1229 1882 
L 147 269 
z
" transform="scale(0.015625)"/>
      </defs>
      <use xlink:href="#AppleSDGothicNeo-Regular-55"/>
      <use xlink:href="#AppleSDGothicNeo-Regular-4a" transform="translate(35 0)"/>
      <use xlink:href="#AppleSDGothicNeo-Regular-4e" transform="translate(57.703125 0)"/>
      <use xlink:href="#AppleSDGothicNeo-Regular-46" transform="translate(138 0)"/>
      <use xlink:href="#AppleSDGothicNeo-Regular-1" transform="translate(188 0)"/>
      <use xlink:href="#AppleSDGothicNeo-Regular-4a" transform="translate(214.296875 0)"/>
      <use xlink:href="#AppleSDGothicNeo-Regular-4f" transform="translate(237 0)"/>
      <use xlink:href="#AppleSDGothicNeo-Regular-45" transform="translate(290.59375 0)"/>
      <use xlink:href="#AppleSDGothicNeo-Regular-46" transform="translate(345.09375 0)"/>
      <use xlink:href="#AppleSDGothicNeo-Regular-59" transform="translate(394.09375 0)"/>
     </g>
    </g>
   </g>
   <g id="matplotlib.axis_2">
    <g id="ytick_1">
     <g id="line2d_8">
      <defs>
       <path id="mabbbaf6188" d="M 0 0 
L -3.5 0 
" style="stroke: #000000; stroke-width: 0.8"/>
      </defs>
      <g>
       <use xlink:href="#mabbbaf6188" x="42.845" y="282.013926" style="stroke: #000000; stroke-width: 0.8"/>
      </g>
     </g>
     <g id="text_9">
      <!-- -2 -->
      <g transform="translate(26.504375 286.513926) scale(0.1 -0.1)">
       <defs>
        <path id="AppleSDGothicNeo-Regular-e" d="M 333 2138 
L 2445 2138 
L 2445 2560 
L 333 2560 
L 333 2138 
z
" transform="scale(0.015625)"/>
       </defs>
       <use xlink:href="#AppleSDGothicNeo-Regular-e"/>
       <use xlink:href="#AppleSDGothicNeo-Regular-13" transform="translate(40.109375 0)"/>
      </g>
     </g>
    </g>
    <g id="ytick_2">
     <g id="line2d_9">
      <g>
       <use xlink:href="#mabbbaf6188" x="42.845" y="236.125521" style="stroke: #000000; stroke-width: 0.8"/>
      </g>
     </g>
     <g id="text_10">
      <!-- 0 -->
      <g transform="translate(29.545 240.625521) scale(0.1 -0.1)">
       <use xlink:href="#AppleSDGothicNeo-Regular-11"/>
      </g>
     </g>
    </g>
    <g id="ytick_3">
     <g id="line2d_10">
      <g>
       <use xlink:href="#mabbbaf6188" x="42.845" y="190.237116" style="stroke: #000000; stroke-width: 0.8"/>
      </g>
     </g>
     <g id="text_11">
      <!-- 2 -->
      <g transform="translate(30.515313 194.737116) scale(0.1 -0.1)">
       <use xlink:href="#AppleSDGothicNeo-Regular-13"/>
      </g>
     </g>
    </g>
    <g id="ytick_4">
     <g id="line2d_11">
      <g>
       <use xlink:href="#mabbbaf6188" x="42.845" y="144.348711" style="stroke: #000000; stroke-width: 0.8"/>
      </g>
     </g>
     <g id="text_12">
      <!-- 4 -->
      <g transform="translate(30.295 148.848711) scale(0.1 -0.1)">
       <use xlink:href="#AppleSDGothicNeo-Regular-15"/>
      </g>
     </g>
    </g>
    <g id="ytick_5">
     <g id="line2d_12">
      <g>
       <use xlink:href="#mabbbaf6188" x="42.845" y="98.460306" style="stroke: #000000; stroke-width: 0.8"/>
      </g>
     </g>
     <g id="text_13">
      <!-- 6 -->
      <g transform="translate(30.304375 102.960306) scale(0.1 -0.1)">
       <use xlink:href="#AppleSDGothicNeo-Regular-17"/>
      </g>
     </g>
    </g>
    <g id="ytick_6">
     <g id="line2d_13">
      <g>
       <use xlink:href="#mabbbaf6188" x="42.845" y="52.571902" style="stroke: #000000; stroke-width: 0.8"/>
      </g>
     </g>
     <g id="text_14">
      <!-- 8 -->
      <g transform="translate(30.095 57.071902) scale(0.1 -0.1)">
       <use xlink:href="#AppleSDGothicNeo-Regular-19"/>
      </g>
     </g>
    </g>
    <g id="text_15">
     <!-- value -->
     <g transform="translate(19.504375 186.502469) rotate(-90) scale(0.1 -0.1)">
      <defs>
       <path id="AppleSDGothicNeo-Regular-57" d="M 1331 269 
L 1818 269 
L 2995 3443 
L 2515 3443 
L 1600 890 
L 1574 890 
L 685 3443 
L 154 3443 
L 1331 269 
z
" transform="scale(0.015625)"/>
       <path id="AppleSDGothicNeo-Regular-42" d="M 1242 211 
C 1670 211 1939 365 2086 544 
L 2118 544 
L 2170 269 
L 2566 269 
L 2566 2566 
C 2566 3213 2176 3501 1478 3501 
C 1114 3501 806 3443 531 3328 
L 531 2976 
C 730 3034 979 3078 1286 3078 
C 1856 3078 2074 2950 2074 2458 
L 2074 2125 
L 1216 2022 
C 608 1952 250 1658 250 1101 
C 250 506 666 211 1242 211 
z
M 1363 595 
C 998 595 762 768 762 1114 
C 762 1478 954 1638 1344 1677 
L 2074 1760 
L 2074 826 
C 1939 691 1658 595 1363 595 
z
" transform="scale(0.015625)"/>
       <path id="AppleSDGothicNeo-Regular-4d" d="M 480 269 
L 973 269 
L 973 4851 
L 480 4851 
L 480 269 
z
" transform="scale(0.015625)"/>
       <path id="AppleSDGothicNeo-Regular-56" d="M 1421 211 
C 1805 211 2144 358 2432 557 
L 2458 557 
L 2502 269 
L 2925 269 
L 2925 3443 
L 2438 3443 
L 2438 883 
C 2176 755 1894 634 1555 634 
C 1088 634 941 800 941 1210 
L 941 3443 
L 448 3443 
L 448 1139 
C 448 525 800 211 1421 211 
z
" transform="scale(0.015625)"/>
      </defs>
      <use xlink:href="#AppleSDGothicNeo-Regular-57"/>
      <use xlink:href="#AppleSDGothicNeo-Regular-42" transform="translate(47.703125 0)"/>
      <use xlink:href="#AppleSDGothicNeo-Regular-4d" transform="translate(94.90625 0)"/>
      <use xlink:href="#AppleSDGothicNeo-Regular-56" transform="translate(117.609375 0)"/>
      <use xlink:href="#AppleSDGothicNeo-Regular-46" transform="translate(170.609375 0)"/>
     </g>
    </g>
   </g>
   <g id="line2d_14">
    <path d="M 79.270227 257.50347 
L 84.874108 255.997001 
L 90.47799 255.270794 
L 96.081871 254.073252 
L 101.685752 252.370039 
L 112.893514 248.3734 
L 118.497395 245.981164 
L 124.101276 244.064233 
L 129.705157 243.095311 
L 140.91292 241.571951 
L 146.516801 241.192505 
L 152.120682 241.451799 
L 157.724563 240.436177 
L 163.328444 240.286102 
L 168.932325 240.523879 
L 174.536206 239.985626 
L 180.140087 239.022651 
L 185.743969 237.307657 
L 191.34785 236.531201 
L 196.951731 234.93096 
L 202.555612 234.548866 
L 208.159493 235.77436 
L 213.763374 237.518938 
L 219.367255 240.145364 
L 224.971136 240.53726 
L 230.575017 241.118903 
L 241.78278 238.314926 
L 247.386661 236.74954 
L 252.990542 234.673556 
L 258.594423 233.031614 
L 264.198304 232.049014 
L 269.802185 230.816523 
L 275.406066 229.749528 
L 281.009948 228.135561 
L 286.613829 227.306782 
L 292.21771 225.633531 
L 297.821591 224.875818 
L 303.425472 223.567488 
L 309.029353 223.586274 
L 314.633234 225.470477 
L 320.237115 228.377301 
L 325.840997 230.778078 
L 331.444878 232.121664 
L 337.048759 234.299353 
L 342.65264 235.353568 
L 353.860402 237.733711 
L 365.068164 239.315715 
L 370.672045 239.599391 
L 376.275927 240.52848 
L 381.879808 240.899649 
L 387.483689 240.874251 
L 393.08757 240.630917 
L 398.691451 240.056839 
L 409.899213 237.824796 
L 421.106976 233.722857 
L 426.710857 232.28136 
L 432.314738 231.242859 
L 437.918619 229.998262 
L 443.5225 229.735056 
L 460.334143 227.966822 
L 465.938024 227.189474 
L 471.541906 226.950684 
L 477.145787 227.591356 
L 482.749668 228.905118 
L 488.353549 231.209511 
L 493.95743 234.052274 
L 499.561311 235.698649 
L 510.769073 235.528704 
L 521.976836 237.714965 
L 538.788479 245.849202 
L 544.39236 246.819174 
L 549.996241 244.338483 
L 555.600122 241.123666 
L 561.204003 234.534636 
L 566.807885 238.455178 
L 572.411766 244.224887 
L 578.015647 250.997467 
L 583.619528 255.00036 
L 589.223409 256.368599 
L 594.82729 253.395858 
L 600.431171 251.822807 
L 606.035052 249.018477 
L 611.638934 244.704829 
L 617.242815 237.031069 
L 622.846696 230.119504 
L 628.450577 222.887092 
L 634.054458 216.470503 
L 639.658339 213.65197 
L 645.26222 220.543731 
L 650.866101 226.326715 
L 656.469983 239.923434 
L 662.073864 246.369606 
L 667.677745 251.196634 
L 673.281626 252.996584 
L 678.885507 256.230072 
L 684.489388 255.761699 
L 690.093269 253.306201 
L 695.69715 249.107036 
L 701.301031 247.869676 
L 706.904913 247.528478 
L 712.508794 245.49806 
L 718.112675 241.358358 
L 723.716556 235.983638 
L 729.320437 228.302285 
L 734.924318 217.67578 
L 740.528199 205.05664 
L 746.13208 201.511864 
L 751.735962 205.487504 
L 757.339843 216.797869 
L 762.943724 228.842994 
L 768.547605 240.329139 
L 774.151486 246.522265 
L 779.755367 251.311078 
L 785.359248 255.756776 
L 790.963129 259.168175 
L 796.56701 262.792864 
L 802.170892 253.002753 
L 807.774773 108.302787 
L 807.774773 108.302787 
" clip-path="url(#p97e9dc3a23)" style="fill: none; stroke: #2378a8; stroke-width: 1.2; stroke-linecap: square"/>
   </g>
   <g id="line2d_15">
    <path d="M 79.270227 233.055565 
L 84.874108 248.190076 
L 90.47799 259.657343 
L 96.081871 266.469507 
L 101.685752 259.281898 
L 107.289633 246.951525 
L 112.893514 238.273066 
L 118.497395 234.081462 
L 124.101276 236.466488 
L 129.705157 236.224586 
L 135.309038 238.442174 
L 140.91292 241.666388 
L 146.516801 240.947667 
L 152.120682 242.015454 
L 157.724563 240.609125 
L 163.328444 242.165849 
L 168.932325 248.849339 
L 174.536206 246.963533 
L 180.140087 240.825291 
L 185.743969 234.304003 
L 191.34785 229.861539 
L 196.951731 229.193004 
L 202.555612 228.042631 
L 208.159493 232.175723 
L 213.763374 237.000959 
L 219.367255 239.792401 
L 224.971136 239.375278 
L 230.575017 234.897283 
L 236.178899 234.246616 
L 241.78278 232.274516 
L 247.386661 226.601044 
L 252.990542 222.901649 
L 258.594423 221.82938 
L 264.198304 224.648209 
L 269.802185 227.847649 
L 275.406066 229.414615 
L 286.613829 228.514512 
L 292.21771 226.662687 
L 297.821591 226.913602 
L 303.425472 227.998705 
L 309.029353 228.968657 
L 314.633234 232.378018 
L 320.237115 234.164707 
L 325.840997 238.777758 
L 331.444878 239.769796 
L 337.048759 230.110661 
L 342.65264 222.945318 
L 348.256521 218.068343 
L 359.464283 237.205859 
L 365.068164 237.942551 
L 370.672045 240.73239 
L 376.275927 237.28059 
L 381.879808 237.352914 
L 387.483689 235.26715 
L 393.08757 231.962201 
L 398.691451 233.020315 
L 404.295332 237.674504 
L 409.899213 238.906345 
L 415.503094 242.265514 
L 421.106976 241.507444 
L 426.710857 244.610405 
L 432.314738 248.970967 
L 437.918619 248.18679 
L 443.5225 244.84325 
L 449.126381 239.330508 
L 454.730262 232.378693 
L 460.334143 230.187186 
L 465.938024 229.188587 
L 471.541906 229.117621 
L 477.145787 230.579467 
L 482.749668 227.786493 
L 488.353549 228.507579 
L 493.95743 228.496611 
L 499.561311 230.510761 
L 505.165192 230.531865 
L 510.769073 226.169953 
L 516.372955 221.400298 
L 521.976836 218.3822 
L 527.580717 222.77931 
L 533.184598 221.636789 
L 538.788479 211.37034 
L 544.39236 200.393372 
L 549.996241 199.209112 
L 555.600122 225.874955 
L 561.204003 257.698849 
L 566.807885 281.196457 
L 572.411766 284.837258 
L 578.015647 270.382501 
L 583.619528 258.153663 
L 589.223409 239.322534 
L 594.82729 222.479447 
L 600.431171 208.533479 
L 606.035052 219.270287 
L 611.638934 245.057754 
L 617.242815 269.04778 
L 622.846696 275.606357 
L 628.450577 271.372039 
L 634.054458 263.308639 
L 639.658339 252.536854 
L 645.26222 243.440784 
L 650.866101 223.230897 
L 656.469983 198.817891 
L 662.073864 174.991164 
L 667.677745 161.609794 
L 673.281626 178.397606 
L 678.885507 223.949498 
L 684.489388 281.959868 
L 690.093269 309.901091 
L 695.69715 291.131107 
L 701.301031 252.317545 
L 706.904913 226.76404 
L 712.508794 231.264037 
L 718.112675 253.526651 
L 723.716556 257.237842 
L 729.320437 248.516757 
L 734.924318 240.404212 
L 740.528199 247.477546 
L 746.13208 257.552824 
L 751.735962 246.433097 
L 757.339843 219.318917 
L 762.943724 187.790776 
L 768.547605 175.186449 
L 774.151486 184.622993 
L 779.755367 199.107468 
L 785.359248 215.757 
L 790.963129 233.271655 
L 796.56701 258.708552 
L 802.170892 287.11317 
L 807.774773 304.958035 
L 807.774773 304.958035 
" clip-path="url(#p97e9dc3a23)" style="fill: none; stroke: #e45756; stroke-width: 1.1; stroke-linecap: square"/>
   </g>
   <g id="patch_3">
    <path d="M 42.845 323.344 
L 42.845 27.6 
" style="fill: none; stroke: #000000; stroke-width: 0.8; stroke-linejoin: miter; stroke-linecap: square"/>
   </g>
   <g id="patch_4">
    <path d="M 844.2 323.344 
L 844.2 27.6 
" style="fill: none; stroke: #000000; stroke-width: 0.8; stroke-linejoin: miter; stroke-linecap: square"/>
   </g>
   <g id="patch_5">
    <path d="M 42.845 323.344 
L 844.2 323.344 
" style="fill: none; stroke: #000000; stroke-width: 0.8; stroke-linejoin: miter; stroke-linecap: square"/>
   </g>
   <g id="patch_6">
    <path d="M 42.845 27.6 
L 844.2 27.6 
" style="fill: none; stroke: #000000; stroke-width: 0.8; stroke-linejoin: miter; stroke-linecap: square"/>
   </g>
   <g id="text_16">
    <!-- primary score=0.851039, threshold=0.498788 -->
    <g transform="translate(50.85855 317.98656) scale(0.08 -0.08)">
     <defs>
      <path id="AppleSDGothicNeo-Regular-51" d="M 467 -678 
L 960 -678 
L 960 422 
C 1139 320 1408 211 1773 211 
C 2650 211 3206 698 3206 1856 
L 3206 1939 
C 3206 3117 2605 3501 1907 3501 
C 1498 3501 1165 3360 966 3181 
L 941 3181 
L 941 3437 
L 467 3437 
L 467 -678 
z
M 1728 614 
C 1395 614 1107 717 960 838 
L 960 2854 
C 1107 2957 1408 3085 1779 3085 
C 2362 3085 2694 2810 2694 1914 
L 2694 1786 
C 2694 934 2330 614 1728 614 
z
" transform="scale(0.015625)"/>
      <path id="AppleSDGothicNeo-Regular-53" d="M 467 269 
L 960 269 
L 960 2765 
C 1184 2925 1491 3040 1811 3040 
C 1862 3040 1958 3034 2042 3021 
L 2042 3462 
C 2010 3469 1920 3475 1850 3475 
C 1491 3475 1146 3290 966 3085 
L 934 3085 
L 934 3443 
L 467 3443 
L 467 269 
z
" transform="scale(0.015625)"/>
      <path id="AppleSDGothicNeo-Regular-5a" d="M 710 -685 
C 1235 -685 1498 -493 1709 70 
L 2957 3443 
L 2464 3443 
L 1606 1030 
L 1594 1030 
L 659 3443 
L 134 3443 
L 1350 384 
L 1254 122 
C 1120 -224 928 -275 621 -275 
C 506 -275 390 -243 314 -230 
L 314 -595 
C 403 -640 563 -685 710 -685 
z
" transform="scale(0.015625)"/>
      <path id="AppleSDGothicNeo-Regular-54" d="M 1274 218 
C 1971 218 2394 550 2394 1152 
C 2394 1702 2144 1907 1536 2067 
L 1216 2157 
C 877 2253 742 2368 742 2643 
C 742 2938 954 3085 1382 3085 
C 1734 3085 2054 3002 2221 2918 
L 2221 3315 
C 2054 3405 1779 3501 1357 3501 
C 627 3501 275 3136 275 2598 
C 275 2061 589 1850 1050 1722 
L 1363 1638 
C 1766 1523 1914 1395 1914 1101 
C 1914 813 1709 634 1203 634 
C 755 634 525 730 250 832 
L 250 442 
C 512 294 858 218 1274 218 
z
" transform="scale(0.015625)"/>
      <path id="AppleSDGothicNeo-Regular-44" d="M 1734 211 
C 2176 211 2458 339 2662 461 
L 2662 858 
C 2502 768 2221 634 1792 634 
C 1114 634 774 998 774 1811 
L 774 1965 
C 774 2694 1152 3085 1728 3085 
C 2144 3085 2349 3008 2630 2880 
L 2630 3290 
C 2419 3424 2170 3501 1754 3501 
C 934 3501 269 3014 269 1888 
L 269 1792 
C 269 749 826 211 1734 211 
z
" transform="scale(0.015625)"/>
      <path id="AppleSDGothicNeo-Regular-50" d="M 1702 211 
C 2560 211 3149 813 3149 1824 
L 3149 1914 
C 3149 2918 2605 3501 1709 3501 
C 851 3501 269 2899 269 1894 
L 269 1798 
C 269 787 806 211 1702 211 
z
M 1715 614 
C 1184 614 768 902 768 1786 
L 768 1946 
C 768 2688 1126 3098 1702 3098 
C 2221 3098 2650 2810 2650 1926 
L 2650 1766 
C 2650 1018 2291 614 1715 614 
z
" transform="scale(0.015625)"/>
      <path id="AppleSDGothicNeo-Regular-1e" d="M 422 2816 
L 2970 2816 
L 2970 3226 
L 422 3226 
L 422 2816 
z
M 422 1542 
L 2970 1542 
L 2970 1952 
L 422 1952 
L 422 1542 
z
" transform="scale(0.015625)"/>
      <path id="AppleSDGothicNeo-Regular-f" d="M 269 109 
L 826 109 
L 826 678 
L 269 678 
L 269 109 
z
" transform="scale(0.015625)"/>
      <path id="AppleSDGothicNeo-Regular-16" d="M 1395 192 
C 2342 192 2906 838 2906 1606 
C 2906 2509 2374 2918 1510 2918 
C 1331 2918 1069 2874 896 2829 
L 986 4134 
L 2752 4134 
L 2752 4570 
L 576 4570 
L 422 2317 
C 621 2406 1024 2528 1318 2528 
C 1990 2528 2374 2266 2374 1613 
C 2374 1005 1978 621 1299 621 
C 947 621 525 768 288 928 
L 192 518 
C 448 333 896 192 1395 192 
z
" transform="scale(0.015625)"/>
      <path id="AppleSDGothicNeo-Regular-14" d="M 1491 205 
C 2445 205 3053 730 3053 1478 
C 3053 2144 2630 2458 2074 2566 
C 2560 2726 2893 3040 2893 3571 
C 2893 4243 2368 4634 1600 4634 
C 1229 4634 723 4474 467 4301 
L 544 3891 
C 813 4045 1146 4198 1498 4198 
C 2022 4198 2362 4013 2362 3488 
C 2362 3008 1984 2726 1427 2726 
L 1043 2726 
L 1043 2291 
L 1459 2291 
C 2112 2291 2534 2029 2534 1478 
C 2534 947 2138 634 1427 634 
C 1107 634 678 755 435 915 
L 326 512 
C 563 346 992 205 1491 205 
z
" transform="scale(0.015625)"/>
      <path id="AppleSDGothicNeo-Regular-1a" d="M 1696 4634 
C 826 4634 307 3949 307 3142 
C 307 2323 896 1798 1619 1798 
C 2093 1798 2445 2010 2675 2272 
C 2630 1069 2227 621 1523 621 
C 1178 621 832 723 646 832 
L 506 461 
C 704 326 1107 192 1549 192 
C 2586 192 3187 979 3187 2477 
L 3187 2758 
C 3187 3974 2656 4634 1696 4634 
z
M 1702 4211 
C 2387 4211 2675 3686 2675 2886 
L 2675 2765 
C 2496 2515 2131 2227 1722 2227 
C 1203 2227 813 2515 813 3187 
C 813 3782 1146 4211 1702 4211 
z
" transform="scale(0.015625)"/>
      <path id="AppleSDGothicNeo-Regular-d" d="M 122 -563 
L 467 -563 
L 941 685 
L 358 685 
L 122 -563 
z
" transform="scale(0.015625)"/>
      <path id="AppleSDGothicNeo-Regular-49" d="M 467 269 
L 954 269 
L 954 2842 
C 1216 2970 1549 3078 1850 3078 
C 2355 3078 2490 2918 2490 2534 
L 2490 269 
L 2976 269 
L 2976 2630 
C 2976 3245 2675 3501 2054 3501 
C 1664 3501 1261 3366 986 3168 
L 954 3168 
L 954 4851 
L 467 4851 
L 467 269 
z
" transform="scale(0.015625)"/>
      <path id="AppleSDGothicNeo-Regular-18" d="M 710 243 
L 1274 243 
L 2957 4218 
L 2957 4544 
L 218 4544 
L 218 4115 
L 2400 4115 
L 710 243 
z
" transform="scale(0.015625)"/>
     </defs>
     <use xlink:href="#AppleSDGothicNeo-Regular-51"/>
     <use xlink:href="#AppleSDGothicNeo-Regular-53" transform="translate(54.5 0)"/>
     <use xlink:href="#AppleSDGothicNeo-Regular-4a" transform="translate(89.09375 0)"/>
     <use xlink:href="#AppleSDGothicNeo-Regular-4e" transform="translate(111.796875 0)"/>
     <use xlink:href="#AppleSDGothicNeo-Regular-42" transform="translate(192.09375 0)"/>
     <use xlink:href="#AppleSDGothicNeo-Regular-53" transform="translate(239.296875 0)"/>
     <use xlink:href="#AppleSDGothicNeo-Regular-5a" transform="translate(273.890625 0)"/>
     <use xlink:href="#AppleSDGothicNeo-Regular-1" transform="translate(322.09375 0)"/>
     <use xlink:href="#AppleSDGothicNeo-Regular-54" transform="translate(348.390625 0)"/>
     <use xlink:href="#AppleSDGothicNeo-Regular-44" transform="translate(389.890625 0)"/>
     <use xlink:href="#AppleSDGothicNeo-Regular-50" transform="translate(434.890625 0)"/>
     <use xlink:href="#AppleSDGothicNeo-Regular-53" transform="translate(488.296875 0)"/>
     <use xlink:href="#AppleSDGothicNeo-Regular-46" transform="translate(522.890625 0)"/>
     <use xlink:href="#AppleSDGothicNeo-Regular-1e" transform="translate(572.890625 0)"/>
     <use xlink:href="#AppleSDGothicNeo-Regular-11" transform="translate(625.1875 0)"/>
     <use xlink:href="#AppleSDGothicNeo-Regular-f" transform="translate(688.1875 0)"/>
     <use xlink:href="#AppleSDGothicNeo-Regular-19" transform="translate(710.78125 0)"/>
     <use xlink:href="#AppleSDGothicNeo-Regular-16" transform="translate(768.28125 0)"/>
     <use xlink:href="#AppleSDGothicNeo-Regular-12" transform="translate(817.1875 0)"/>
     <use xlink:href="#AppleSDGothicNeo-Regular-11" transform="translate(852.890625 0)"/>
     <use xlink:href="#AppleSDGothicNeo-Regular-14" transform="translate(913.796875 0)"/>
     <use xlink:href="#AppleSDGothicNeo-Regular-1a" transform="translate(966.390625 0)"/>
     <use xlink:href="#AppleSDGothicNeo-Regular-d" transform="translate(1016.796875 0)"/>
     <use xlink:href="#AppleSDGothicNeo-Regular-1" transform="translate(1039.390625 0)"/>
     <use xlink:href="#AppleSDGothicNeo-Regular-55" transform="translate(1065.6875 0)"/>
     <use xlink:href="#AppleSDGothicNeo-Regular-49" transform="translate(1100.6875 0)"/>
     <use xlink:href="#AppleSDGothicNeo-Regular-53" transform="translate(1154.28125 0)"/>
     <use xlink:href="#AppleSDGothicNeo-Regular-46" transform="translate(1188.875 0)"/>
     <use xlink:href="#AppleSDGothicNeo-Regular-54" transform="translate(1238.875 0)"/>
     <use xlink:href="#AppleSDGothicNeo-Regular-49" transform="translate(1280.375 0)"/>
     <use xlink:href="#AppleSDGothicNeo-Regular-50" transform="translate(1333.96875 0)"/>
     <use xlink:href="#AppleSDGothicNeo-Regular-4d" transform="translate(1387.375 0)"/>
     <use xlink:href="#AppleSDGothicNeo-Regular-45" transform="translate(1410.078125 0)"/>
     <use xlink:href="#AppleSDGothicNeo-Regular-1e" transform="translate(1464.578125 0)"/>
     <use xlink:href="#AppleSDGothicNeo-Regular-11" transform="translate(1516.875 0)"/>
     <use xlink:href="#AppleSDGothicNeo-Regular-f" transform="translate(1579.875 0)"/>
     <use xlink:href="#AppleSDGothicNeo-Regular-15" transform="translate(1602.46875 0)"/>
     <use xlink:href="#AppleSDGothicNeo-Regular-1a" transform="translate(1655.875 0)"/>
     <use xlink:href="#AppleSDGothicNeo-Regular-19" transform="translate(1711.28125 0)"/>
     <use xlink:href="#AppleSDGothicNeo-Regular-18" transform="translate(1766.6875 0)"/>
     <use xlink:href="#AppleSDGothicNeo-Regular-19" transform="translate(1815.6875 0)"/>
     <use xlink:href="#AppleSDGothicNeo-Regular-19" transform="translate(1873.1875 0)"/>
    </g>
   </g>
   <g id="text_17">
    <!-- 15_우선_검토_TP_3 | FacesUCR_normal_13 | TEST index 294 | 우선 검토 -->
    <g transform="translate(271.8475 21.6) scale(0.12 -0.12)">
     <defs>
      <path id="AppleSDGothicNeo-Regular-40" d="M 51 -365 
L 2099 -365 
L 2099 -38 
L 51 -38 
L 51 -365 
z
" transform="scale(0.015625)"/>
      <path id="AppleSDGothicNeo-Regular-a0b" d="M 4768 3661 
C 4768 4403 4019 4909 2765 4909 
C 1517 4909 762 4403 762 3661 
C 762 2912 1517 2406 2765 2406 
C 4019 2406 4768 2918 4768 3661 
z
M 2765 4486 
C 3718 4486 4294 4173 4294 3661 
C 4294 3142 3718 2829 2765 2829 
C 1824 2829 1248 3142 1248 3661 
C 1248 4173 1824 4486 2765 4486 
z
M 3008 -454 
L 3008 1491 
L 5318 1491 
L 5318 1901 
L 262 1901 
L 262 1491 
L 2522 1491 
L 2522 -454 
L 3008 -454 
z
" transform="scale(0.015625)"/>
      <path id="AppleSDGothicNeo-Regular-8b6" d="M 4813 1082 
L 4813 5146 
L 4326 5146 
L 4326 3731 
L 3136 3731 
L 3136 3322 
L 4326 3322 
L 4326 1082 
L 4813 1082 
z
M 4934 -275 
L 4934 128 
L 1702 128 
L 1702 1434 
L 1216 1434 
L 1216 -275 
L 4934 -275 
z
M 3514 2298 
C 2854 2541 2106 3213 2106 4147 
L 2106 4826 
L 1613 4826 
L 1613 4128 
C 1613 3226 934 2464 192 2138 
L 493 1760 
C 1101 2067 1702 2675 1869 3277 
C 2106 2688 2675 2163 3238 1914 
L 3514 2298 
z
" transform="scale(0.015625)"/>
      <path id="AppleSDGothicNeo-Regular-468" d="M 4326 3277 
L 4326 1907 
L 4813 1907 
L 4813 5146 
L 4326 5146 
L 4326 3686 
L 3098 3686 
L 3098 3277 
L 4326 3277 
z
M 4813 -371 
L 4813 1613 
L 1210 1613 
L 1210 -371 
L 4813 -371 
z
M 4326 32 
L 1696 32 
L 1696 1210 
L 4326 1210 
L 4326 32 
z
M 563 4762 
L 563 4346 
L 2541 4346 
C 2387 3379 1414 2547 288 2285 
L 544 1875 
C 1984 2336 2989 3270 3078 4762 
L 563 4762 
z
" transform="scale(0.015625)"/>
      <path id="AppleSDGothicNeo-Regular-c37" d="M 4506 3027 
L 4506 3437 
L 1325 3437 
L 1325 4262 
L 4672 4262 
L 4672 4672 
L 838 4672 
L 838 1766 
L 2515 1766 
L 2515 672 
L 243 672 
L 243 262 
L 5293 262 
L 5293 672 
L 3002 672 
L 3002 1766 
L 4736 1766 
L 4736 2170 
L 1325 2170 
L 1325 3027 
L 4506 3027 
z
" transform="scale(0.015625)"/>
      <path id="AppleSDGothicNeo-Regular-35" d="M 1491 269 
L 1990 269 
L 1990 4134 
L 3302 4134 
L 3302 4563 
L 179 4563 
L 179 4134 
L 1491 4134 
L 1491 269 
z
" transform="scale(0.015625)"/>
      <path id="AppleSDGothicNeo-Regular-31" d="M 550 269 
L 1062 269 
L 1062 1990 
L 1939 1990 
C 2758 1990 3309 2451 3309 3296 
C 3309 4102 2842 4563 1875 4563 
L 550 4563 
L 550 269 
z
M 1062 2413 
L 1062 4134 
L 1824 4134 
C 2522 4134 2765 3872 2765 3264 
C 2765 2688 2502 2413 1837 2413 
L 1062 2413 
z
" transform="scale(0.015625)"/>
      <path id="AppleSDGothicNeo-Regular-5d" d="M 691 -384 
L 1114 -384 
L 1114 4941 
L 691 4941 
L 691 -384 
z
" transform="scale(0.015625)"/>
      <path id="AppleSDGothicNeo-Regular-27" d="M 550 269 
L 1056 269 
L 1056 2195 
L 2586 2195 
L 2586 2630 
L 1056 2630 
L 1056 4134 
L 3040 4134 
L 3040 4563 
L 550 4563 
L 550 269 
z
" transform="scale(0.015625)"/>
      <path id="AppleSDGothicNeo-Regular-36" d="M 2112 192 
C 3136 192 3661 672 3661 1766 
L 3661 4570 
L 3187 4570 
L 3187 1792 
C 3187 870 2842 595 2131 595 
C 1421 595 1037 877 1037 1786 
L 1037 4570 
L 525 4570 
L 525 1760 
C 525 691 1101 192 2112 192 
z
" transform="scale(0.015625)"/>
      <path id="AppleSDGothicNeo-Regular-24" d="M 2182 198 
C 2688 198 3078 314 3366 480 
L 3366 909 
C 3098 774 2778 627 2246 627 
C 1261 627 851 1267 851 2368 
L 851 2579 
C 851 3718 1427 4205 2240 4205 
C 2662 4205 2982 4109 3322 3974 
L 3322 4397 
C 3059 4538 2726 4634 2266 4634 
C 1171 4634 314 4032 314 2496 
L 314 2368 
C 314 915 1024 198 2182 198 
z
" transform="scale(0.015625)"/>
      <path id="AppleSDGothicNeo-Regular-33" d="M 550 269 
L 1056 269 
L 1056 2112 
L 1875 2112 
L 2944 269 
L 3520 269 
L 2381 2202 
L 2381 2234 
C 2912 2400 3219 2746 3219 3360 
C 3219 4134 2746 4563 1798 4563 
L 550 4563 
L 550 269 
z
M 1056 2509 
L 1056 4134 
L 1760 4134 
C 2419 4134 2682 3885 2682 3354 
C 2682 2797 2438 2509 1766 2509 
L 1056 2509 
z
" transform="scale(0.015625)"/>
      <path id="AppleSDGothicNeo-Regular-26" d="M 557 269 
L 3123 269 
L 3123 698 
L 1062 698 
L 1062 2266 
L 2637 2266 
L 2637 2694 
L 1062 2694 
L 1062 4134 
L 3104 4134 
L 3104 4563 
L 557 4563 
L 557 269 
z
" transform="scale(0.015625)"/>
      <path id="AppleSDGothicNeo-Regular-34" d="M 1472 192 
C 2477 192 2912 691 2912 1440 
C 2912 2163 2509 2432 1875 2650 
L 1453 2784 
C 966 2950 813 3130 813 3539 
C 813 3949 1107 4205 1632 4205 
C 2106 4205 2445 4083 2694 3968 
L 2694 4397 
C 2458 4512 2157 4634 1651 4634 
C 755 4634 314 4160 314 3494 
C 314 2842 653 2534 1254 2336 
L 1670 2189 
C 2189 2022 2400 1843 2400 1402 
C 2400 934 2112 627 1453 627 
C 998 627 576 742 250 909 
L 250 480 
C 538 320 947 192 1472 192 
z
" transform="scale(0.015625)"/>
     </defs>
     <use xlink:href="#AppleSDGothicNeo-Regular-12"/>
     <use xlink:href="#AppleSDGothicNeo-Regular-16" transform="translate(35.703125 0)"/>
     <use xlink:href="#AppleSDGothicNeo-Regular-40" transform="translate(85.609375 0)"/>
     <use xlink:href="#AppleSDGothicNeo-Regular-a0b" transform="translate(119.203125 0)"/>
     <use xlink:href="#AppleSDGothicNeo-Regular-8b6" transform="translate(205.703125 0)"/>
     <use xlink:href="#AppleSDGothicNeo-Regular-40" transform="translate(292.203125 0)"/>
     <use xlink:href="#AppleSDGothicNeo-Regular-468" transform="translate(325.796875 0)"/>
     <use xlink:href="#AppleSDGothicNeo-Regular-c37" transform="translate(412.296875 0)"/>
     <use xlink:href="#AppleSDGothicNeo-Regular-40" transform="translate(498.796875 0)"/>
     <use xlink:href="#AppleSDGothicNeo-Regular-35" transform="translate(532.390625 0)"/>
     <use xlink:href="#AppleSDGothicNeo-Regular-31" transform="translate(586.796875 0)"/>
     <use xlink:href="#AppleSDGothicNeo-Regular-40" transform="translate(642.09375 0)"/>
     <use xlink:href="#AppleSDGothicNeo-Regular-14" transform="translate(675.6875 0)"/>
     <use xlink:href="#AppleSDGothicNeo-Regular-1" transform="translate(729.28125 0)"/>
     <use xlink:href="#AppleSDGothicNeo-Regular-5d" transform="translate(755.578125 0)"/>
     <use xlink:href="#AppleSDGothicNeo-Regular-1" transform="translate(783.78125 0)"/>
     <use xlink:href="#AppleSDGothicNeo-Regular-27" transform="translate(810.078125 0)"/>
     <use xlink:href="#AppleSDGothicNeo-Regular-42" transform="translate(856.765625 0)"/>
     <use xlink:href="#AppleSDGothicNeo-Regular-44" transform="translate(903.96875 0)"/>
     <use xlink:href="#AppleSDGothicNeo-Regular-46" transform="translate(948.96875 0)"/>
     <use xlink:href="#AppleSDGothicNeo-Regular-54" transform="translate(998.96875 0)"/>
     <use xlink:href="#AppleSDGothicNeo-Regular-36" transform="translate(1040.46875 0)"/>
     <use xlink:href="#AppleSDGothicNeo-Regular-24" transform="translate(1105.765625 0)"/>
     <use xlink:href="#AppleSDGothicNeo-Regular-33" transform="translate(1162.765625 0)"/>
     <use xlink:href="#AppleSDGothicNeo-Regular-40" transform="translate(1220.5625 0)"/>
     <use xlink:href="#AppleSDGothicNeo-Regular-4f" transform="translate(1254.15625 0)"/>
     <use xlink:href="#AppleSDGothicNeo-Regular-50" transform="translate(1307.75 0)"/>
     <use xlink:href="#AppleSDGothicNeo-Regular-53" transform="translate(1361.15625 0)"/>
     <use xlink:href="#AppleSDGothicNeo-Regular-4e" transform="translate(1395.75 0)"/>
     <use xlink:href="#AppleSDGothicNeo-Regular-42" transform="translate(1476.046875 0)"/>
     <use xlink:href="#AppleSDGothicNeo-Regular-4d" transform="translate(1523.25 0)"/>
     <use xlink:href="#AppleSDGothicNeo-Regular-40" transform="translate(1545.953125 0)"/>
     <use xlink:href="#AppleSDGothicNeo-Regular-12" transform="translate(1579.546875 0)"/>
     <use xlink:href="#AppleSDGothicNeo-Regular-14" transform="translate(1615.25 0)"/>
     <use xlink:href="#AppleSDGothicNeo-Regular-1" transform="translate(1668.84375 0)"/>
     <use xlink:href="#AppleSDGothicNeo-Regular-5d" transform="translate(1695.140625 0)"/>
     <use xlink:href="#AppleSDGothicNeo-Regular-1" transform="translate(1723.34375 0)"/>
     <use xlink:href="#AppleSDGothicNeo-Regular-35" transform="translate(1749.640625 0)"/>
     <use xlink:href="#AppleSDGothicNeo-Regular-26" transform="translate(1804.046875 0)"/>
     <use xlink:href="#AppleSDGothicNeo-Regular-34" transform="translate(1859.046875 0)"/>
     <use xlink:href="#AppleSDGothicNeo-Regular-35" transform="translate(1909.453125 0)"/>
     <use xlink:href="#AppleSDGothicNeo-Regular-1" transform="translate(1963.859375 0)"/>
     <use xlink:href="#AppleSDGothicNeo-Regular-4a" transform="translate(1990.15625 0)"/>
     <use xlink:href="#AppleSDGothicNeo-Regular-4f" transform="translate(2012.859375 0)"/>
     <use xlink:href="#AppleSDGothicNeo-Regular-45" transform="translate(2066.453125 0)"/>
     <use xlink:href="#AppleSDGothicNeo-Regular-46" transform="translate(2120.953125 0)"/>
     <use xlink:href="#AppleSDGothicNeo-Regular-59" transform="translate(2169.953125 0)"/>
     <use xlink:href="#AppleSDGothicNeo-Regular-1" transform="translate(2217.65625 0)"/>
     <use xlink:href="#AppleSDGothicNeo-Regular-13" transform="translate(2243.953125 0)"/>
     <use xlink:href="#AppleSDGothicNeo-Regular-1a" transform="translate(2297.25 0)"/>
     <use xlink:href="#AppleSDGothicNeo-Regular-15" transform="translate(2352.65625 0)"/>
     <use xlink:href="#AppleSDGothicNeo-Regular-1" transform="translate(2408.15625 0)"/>
     <use xlink:href="#AppleSDGothicNeo-Regular-5d" transform="translate(2434.453125 0)"/>
     <use xlink:href="#AppleSDGothicNeo-Regular-1" transform="translate(2462.65625 0)"/>
     <use xlink:href="#AppleSDGothicNeo-Regular-a0b" transform="translate(2488.953125 0)"/>
     <use xlink:href="#AppleSDGothicNeo-Regular-8b6" transform="translate(2575.453125 0)"/>
     <use xlink:href="#AppleSDGothicNeo-Regular-1" transform="translate(2661.953125 0)"/>
     <use xlink:href="#AppleSDGothicNeo-Regular-468" transform="translate(2688.25 0)"/>
     <use xlink:href="#AppleSDGothicNeo-Regular-c37" transform="translate(2774.75 0)"/>
    </g>
   </g>
   <g id="legend_1">
    <g id="patch_7">
     <path d="M 48.445 74.8 
L 152.44625 74.8 
Q 154.04625 74.8 154.04625 73.2 
L 154.04625 33.2 
Q 154.04625 31.6 152.44625 31.6 
L 48.445 31.6 
Q 46.845 31.6 46.845 33.2 
L 46.845 73.2 
Q 46.845 74.8 48.445 74.8 
z
" style="fill: #ffffff; opacity: 0.8; stroke: #cccccc; stroke-linejoin: miter"/>
    </g>
    <g id="patch_8">
     <path d="M 50.045 42 
L 66.045 42 
L 66.045 36.4 
L 50.045 36.4 
z
" style="fill: #a7dff3; fill-opacity: 0.55; stroke: #a7dff3; stroke-opacity: 0.55; stroke-linejoin: miter"/>
    </g>
    <g id="text_18">
     <!-- TRAIN normal p05-p95 -->
     <g transform="translate(72.445 42) scale(0.08 -0.08)">
      <defs>
       <path id="AppleSDGothicNeo-Regular-22" d="M 122 269 
L 608 269 
L 1050 1523 
L 2771 1523 
L 3226 269 
L 3757 269 
L 2189 4563 
L 1696 4563 
L 122 269 
z
M 1901 3885 
L 1914 3885 
L 2611 1952 
L 1197 1952 
L 1901 3885 
z
" transform="scale(0.015625)"/>
       <path id="AppleSDGothicNeo-Regular-2a" d="M 576 269 
L 1082 269 
L 1082 4563 
L 576 4563 
L 576 269 
z
" transform="scale(0.015625)"/>
       <path id="AppleSDGothicNeo-Regular-2f" d="M 550 269 
L 1024 269 
L 1024 3872 
L 1043 3872 
L 3174 269 
L 3699 269 
L 3699 4563 
L 3238 4563 
L 3238 1126 
L 3219 1126 
L 1152 4563 
L 550 4563 
L 550 269 
z
" transform="scale(0.015625)"/>
      </defs>
      <use xlink:href="#AppleSDGothicNeo-Regular-35"/>
      <use xlink:href="#AppleSDGothicNeo-Regular-33" transform="translate(54.40625 0)"/>
      <use xlink:href="#AppleSDGothicNeo-Regular-22" transform="translate(112.203125 0)"/>
      <use xlink:href="#AppleSDGothicNeo-Regular-2a" transform="translate(172.703125 0)"/>
      <use xlink:href="#AppleSDGothicNeo-Regular-2f" transform="translate(198.609375 0)"/>
      <use xlink:href="#AppleSDGothicNeo-Regular-1" transform="translate(265.203125 0)"/>
      <use xlink:href="#AppleSDGothicNeo-Regular-4f" transform="translate(291.5 0)"/>
      <use xlink:href="#AppleSDGothicNeo-Regular-50" transform="translate(345.09375 0)"/>
      <use xlink:href="#AppleSDGothicNeo-Regular-53" transform="translate(398.5 0)"/>
      <use xlink:href="#AppleSDGothicNeo-Regular-4e" transform="translate(433.09375 0)"/>
      <use xlink:href="#AppleSDGothicNeo-Regular-42" transform="translate(513.390625 0)"/>
      <use xlink:href="#AppleSDGothicNeo-Regular-4d" transform="translate(560.59375 0)"/>
      <use xlink:href="#AppleSDGothicNeo-Regular-1" transform="translate(583.296875 0)"/>
      <use xlink:href="#AppleSDGothicNeo-Regular-51" transform="translate(609.59375 0)"/>
      <use xlink:href="#AppleSDGothicNeo-Regular-11" transform="translate(664.09375 0)"/>
      <use xlink:href="#AppleSDGothicNeo-Regular-16" transform="translate(727.09375 0)"/>
      <use xlink:href="#AppleSDGothicNeo-Regular-e" transform="translate(777 0)"/>
      <use xlink:href="#AppleSDGothicNeo-Regular-51" transform="translate(820.203125 0)"/>
      <use xlink:href="#AppleSDGothicNeo-Regular-1a" transform="translate(874.703125 0)"/>
      <use xlink:href="#AppleSDGothicNeo-Regular-16" transform="translate(930.109375 0)"/>
     </g>
    </g>
    <g id="line2d_16">
     <path d="M 50.045 52.8 
L 58.045 52.8 
L 66.045 52.8 
" style="fill: none; stroke: #2378a8; stroke-width: 1.2; stroke-linecap: square"/>
    </g>
    <g id="text_19">
     <!-- TRAIN normal median -->
     <g transform="translate(72.445 55.6) scale(0.08 -0.08)">
      <use xlink:href="#AppleSDGothicNeo-Regular-35"/>
      <use xlink:href="#AppleSDGothicNeo-Regular-33" transform="translate(54.40625 0)"/>
      <use xlink:href="#AppleSDGothicNeo-Regular-22" transform="translate(112.203125 0)"/>
      <use xlink:href="#AppleSDGothicNeo-Regular-2a" transform="translate(172.703125 0)"/>
      <use xlink:href="#AppleSDGothicNeo-Regular-2f" transform="translate(198.609375 0)"/>
      <use xlink:href="#AppleSDGothicNeo-Regular-1" transform="translate(265.203125 0)"/>
      <use xlink:href="#AppleSDGothicNeo-Regular-4f" transform="translate(291.5 0)"/>
      <use xlink:href="#AppleSDGothicNeo-Regular-50" transform="translate(345.09375 0)"/>
      <use xlink:href="#AppleSDGothicNeo-Regular-53" transform="translate(398.5 0)"/>
      <use xlink:href="#AppleSDGothicNeo-Regular-4e" transform="translate(433.09375 0)"/>
      <use xlink:href="#AppleSDGothicNeo-Regular-42" transform="translate(513.390625 0)"/>
      <use xlink:href="#AppleSDGothicNeo-Regular-4d" transform="translate(560.59375 0)"/>
      <use xlink:href="#AppleSDGothicNeo-Regular-1" transform="translate(583.296875 0)"/>
      <use xlink:href="#AppleSDGothicNeo-Regular-4e" transform="translate(609.59375 0)"/>
      <use xlink:href="#AppleSDGothicNeo-Regular-46" transform="translate(689.890625 0)"/>
      <use xlink:href="#AppleSDGothicNeo-Regular-45" transform="translate(739.890625 0)"/>
      <use xlink:href="#AppleSDGothicNeo-Regular-4a" transform="translate(794.390625 0)"/>
      <use xlink:href="#AppleSDGothicNeo-Regular-42" transform="translate(817.09375 0)"/>
      <use xlink:href="#AppleSDGothicNeo-Regular-4f" transform="translate(864.296875 0)"/>
     </g>
    </g>
    <g id="line2d_17">
     <path d="M 50.045 66.4 
L 58.045 66.4 
L 66.045 66.4 
" style="fill: none; stroke: #e45756; stroke-width: 1.1; stroke-linecap: square"/>
    </g>
    <g id="text_20">
     <!-- selected TEST series -->
     <g transform="translate(72.445 69.2) scale(0.08 -0.08)">
      <use xlink:href="#AppleSDGothicNeo-Regular-54"/>
      <use xlink:href="#AppleSDGothicNeo-Regular-46" transform="translate(41.5 0)"/>
      <use xlink:href="#AppleSDGothicNeo-Regular-4d" transform="translate(91.5 0)"/>
      <use xlink:href="#AppleSDGothicNeo-Regular-46" transform="translate(114.203125 0)"/>
      <use xlink:href="#AppleSDGothicNeo-Regular-44" transform="translate(164.203125 0)"/>
      <use xlink:href="#AppleSDGothicNeo-Regular-55" transform="translate(210.109375 0)"/>
      <use xlink:href="#AppleSDGothicNeo-Regular-46" transform="translate(245.109375 0)"/>
      <use xlink:href="#AppleSDGothicNeo-Regular-45" transform="translate(295.109375 0)"/>
      <use xlink:href="#AppleSDGothicNeo-Regular-1" transform="translate(349.609375 0)"/>
      <use xlink:href="#AppleSDGothicNeo-Regular-35" transform="translate(375.90625 0)"/>
      <use xlink:href="#AppleSDGothicNeo-Regular-26" transform="translate(430.3125 0)"/>
      <use xlink:href="#AppleSDGothicNeo-Regular-34" transform="translate(485.3125 0)"/>
      <use xlink:href="#AppleSDGothicNeo-Regular-35" transform="translate(535.71875 0)"/>
      <use xlink:href="#AppleSDGothicNeo-Regular-1" transform="translate(590.125 0)"/>
      <use xlink:href="#AppleSDGothicNeo-Regular-54" transform="translate(616.421875 0)"/>
      <use xlink:href="#AppleSDGothicNeo-Regular-46" transform="translate(657.921875 0)"/>
      <use xlink:href="#AppleSDGothicNeo-Regular-53" transform="translate(707.921875 0)"/>
      <use xlink:href="#AppleSDGothicNeo-Regular-4a" transform="translate(742.515625 0)"/>
      <use xlink:href="#AppleSDGothicNeo-Regular-46" transform="translate(765.21875 0)"/>
      <use xlink:href="#AppleSDGothicNeo-Regular-54" transform="translate(815.21875 0)"/>
     </g>
    </g>
   </g>
  </g>
  <g id="axes_2">
   <g id="patch_9">
    <path d="M 42.845 443.08 
L 844.2 443.08 
L 844.2 369.144 
L 42.845 369.144 
z
" style="fill: #ffffff"/>
   </g>
   <g id="PathCollection_1">
    <defs>
     <path id="m099c7401cd" d="M -3 3 
L 3 -3 
M -3 -3 
L 3 3 
" style="stroke: #e45756; stroke-width: 1.5"/>
    </defs>
    <g clip-path="url(#p093bcd7172)">
     <use xlink:href="#m099c7401cd" x="828.226146" y="416.984941" style="fill: #e45756; stroke: #e45756; stroke-width: 1.5"/>
     <use xlink:href="#m099c7401cd" x="830.888455" y="416.984941" style="fill: #e45756; stroke: #e45756; stroke-width: 1.5"/>
     <use xlink:href="#m099c7401cd" x="833.550764" y="416.984941" style="fill: #e45756; stroke: #e45756; stroke-width: 1.5"/>
     <use xlink:href="#m099c7401cd" x="836.213073" y="416.984941" style="fill: #e45756; stroke: #e45756; stroke-width: 1.5"/>
     <use xlink:href="#m099c7401cd" x="838.875382" y="416.984941" style="fill: #e45756; stroke: #e45756; stroke-width: 1.5"/>
     <use xlink:href="#m099c7401cd" x="841.537691" y="416.984941" style="fill: #e45756; stroke: #e45756; stroke-width: 1.5"/>
    </g>
   </g>
   <g id="PathCollection_2">
    <defs>
     <path id="md06defd803" d="M 0 3 
C 0.795609 3 1.55874 2.683901 2.12132 2.12132 
C 2.683901 1.55874 3 0.795609 3 0 
C 3 -0.795609 2.683901 -1.55874 2.12132 -2.12132 
C 1.55874 -2.683901 0.795609 -3 0 -3 
C -0.795609 -3 -1.55874 -2.683901 -2.12132 -2.12132 
C -2.683901 -1.55874 -3 -0.795609 -3 0 
C -3 0.795609 -2.683901 1.55874 -2.12132 2.12132 
C -1.55874 2.683901 -0.795609 3 0 3 
z
" style="stroke: #111111"/>
    </defs>
    <g clip-path="url(#p093bcd7172)">
     <use xlink:href="#md06defd803" x="828.226146" y="395.239059" style="fill: #111111; stroke: #111111"/>
    </g>
   </g>
   <g id="matplotlib.axis_3">
    <g id="xtick_8">
     <g id="line2d_18">
      <g>
       <use xlink:href="#m583a0698ae" x="45.507309" y="443.08" style="stroke: #000000; stroke-width: 0.8"/>
      </g>
     </g>
     <g id="text_21">
      <!-- 0 -->
      <g transform="translate(42.357309 459.08) scale(0.1 -0.1)">
       <use xlink:href="#AppleSDGothicNeo-Regular-11"/>
      </g>
     </g>
    </g>
    <g id="xtick_9">
     <g id="line2d_19">
      <g>
       <use xlink:href="#m583a0698ae" x="178.622757" y="443.08" style="stroke: #000000; stroke-width: 0.8"/>
      </g>
     </g>
     <g id="text_22">
      <!-- 50 -->
      <g transform="translate(172.977445 459.08) scale(0.1 -0.1)">
       <use xlink:href="#AppleSDGothicNeo-Regular-16"/>
       <use xlink:href="#AppleSDGothicNeo-Regular-11" transform="translate(49.90625 0)"/>
      </g>
     </g>
    </g>
    <g id="xtick_10">
     <g id="line2d_20">
      <g>
       <use xlink:href="#m583a0698ae" x="311.738206" y="443.08" style="stroke: #000000; stroke-width: 0.8"/>
      </g>
     </g>
     <g id="text_23">
      <!-- 100 -->
      <g transform="translate(303.65305 459.08) scale(0.1 -0.1)">
       <use xlink:href="#AppleSDGothicNeo-Regular-12"/>
       <use xlink:href="#AppleSDGothicNeo-Regular-11" transform="translate(35.703125 0)"/>
       <use xlink:href="#AppleSDGothicNeo-Regular-11" transform="translate(98.703125 0)"/>
      </g>
     </g>
    </g>
    <g id="xtick_11">
     <g id="line2d_21">
      <g>
       <use xlink:href="#m583a0698ae" x="444.853654" y="443.08" style="stroke: #000000; stroke-width: 0.8"/>
      </g>
     </g>
     <g id="text_24">
      <!-- 150 -->
      <g transform="translate(437.423186 459.08) scale(0.1 -0.1)">
       <use xlink:href="#AppleSDGothicNeo-Regular-12"/>
       <use xlink:href="#AppleSDGothicNeo-Regular-16" transform="translate(35.703125 0)"/>
       <use xlink:href="#AppleSDGothicNeo-Regular-11" transform="translate(85.609375 0)"/>
      </g>
     </g>
    </g>
    <g id="xtick_12">
     <g id="line2d_22">
      <g>
       <use xlink:href="#m583a0698ae" x="577.969103" y="443.08" style="stroke: #000000; stroke-width: 0.8"/>
      </g>
     </g>
     <g id="text_25">
      <!-- 200 -->
      <g transform="translate(569.029259 459.08) scale(0.1 -0.1)">
       <use xlink:href="#AppleSDGothicNeo-Regular-13"/>
       <use xlink:href="#AppleSDGothicNeo-Regular-11" transform="translate(52.796875 0)"/>
       <use xlink:href="#AppleSDGothicNeo-Regular-11" transform="translate(115.796875 0)"/>
      </g>
     </g>
    </g>
    <g id="xtick_13">
     <g id="line2d_23">
      <g>
       <use xlink:href="#m583a0698ae" x="711.084551" y="443.08" style="stroke: #000000; stroke-width: 0.8"/>
      </g>
     </g>
     <g id="text_26">
      <!-- 250 -->
      <g transform="translate(702.774395 459.08) scale(0.1 -0.1)">
       <use xlink:href="#AppleSDGothicNeo-Regular-13"/>
       <use xlink:href="#AppleSDGothicNeo-Regular-16" transform="translate(53.296875 0)"/>
       <use xlink:href="#AppleSDGothicNeo-Regular-11" transform="translate(103.203125 0)"/>
      </g>
     </g>
    </g>
    <g id="xtick_14">
     <g id="line2d_24">
      <g>
       <use xlink:href="#m583a0698ae" x="844.2" y="443.08" style="stroke: #000000; stroke-width: 0.8"/>
      </g>
     </g>
     <g id="text_27">
      <!-- 300 -->
      <g transform="translate(835.220312 459.08) scale(0.1 -0.1)">
       <use xlink:href="#AppleSDGothicNeo-Regular-14"/>
       <use xlink:href="#AppleSDGothicNeo-Regular-11" transform="translate(53.59375 0)"/>
       <use xlink:href="#AppleSDGothicNeo-Regular-11" transform="translate(116.59375 0)"/>
      </g>
     </g>
    </g>
    <g id="text_28">
     <!-- TEST sample index -->
     <g transform="translate(403.996719 475.08) scale(0.1 -0.1)">
      <use xlink:href="#AppleSDGothicNeo-Regular-35"/>
      <use xlink:href="#AppleSDGothicNeo-Regular-26" transform="translate(54.40625 0)"/>
      <use xlink:href="#AppleSDGothicNeo-Regular-34" transform="translate(109.40625 0)"/>
      <use xlink:href="#AppleSDGothicNeo-Regular-35" transform="translate(159.8125 0)"/>
      <use xlink:href="#AppleSDGothicNeo-Regular-1" transform="translate(214.21875 0)"/>
      <use xlink:href="#AppleSDGothicNeo-Regular-54" transform="translate(240.515625 0)"/>
      <use xlink:href="#AppleSDGothicNeo-Regular-42" transform="translate(282.015625 0)"/>
      <use xlink:href="#AppleSDGothicNeo-Regular-4e" transform="translate(329.21875 0)"/>
      <use xlink:href="#AppleSDGothicNeo-Regular-51" transform="translate(409.515625 0)"/>
      <use xlink:href="#AppleSDGothicNeo-Regular-4d" transform="translate(464.015625 0)"/>
      <use xlink:href="#AppleSDGothicNeo-Regular-46" transform="translate(486.71875 0)"/>
      <use xlink:href="#AppleSDGothicNeo-Regular-1" transform="translate(536.71875 0)"/>
      <use xlink:href="#AppleSDGothicNeo-Regular-4a" transform="translate(563.015625 0)"/>
      <use xlink:href="#AppleSDGothicNeo-Regular-4f" transform="translate(585.71875 0)"/>
      <use xlink:href="#AppleSDGothicNeo-Regular-45" transform="translate(639.3125 0)"/>
      <use xlink:href="#AppleSDGothicNeo-Regular-46" transform="translate(693.8125 0)"/>
      <use xlink:href="#AppleSDGothicNeo-Regular-59" transform="translate(742.8125 0)"/>
     </g>
    </g>
   </g>
   <g id="matplotlib.axis_4"/>
   <g id="patch_10">
    <path d="M 42.845 443.08 
L 42.845 369.144 
" style="fill: none; stroke: #000000; stroke-width: 0.8; stroke-linejoin: miter; stroke-linecap: square"/>
   </g>
   <g id="patch_11">
    <path d="M 844.2 443.08 
L 844.2 369.144 
" style="fill: none; stroke: #000000; stroke-width: 0.8; stroke-linejoin: miter; stroke-linecap: square"/>
   </g>
   <g id="patch_12">
    <path d="M 42.845 443.08 
L 844.2 443.08 
" style="fill: none; stroke: #000000; stroke-width: 0.8; stroke-linejoin: miter; stroke-linecap: square"/>
   </g>
   <g id="patch_13">
    <path d="M 42.845 369.144 
L 844.2 369.144 
" style="fill: none; stroke: #000000; stroke-width: 0.8; stroke-linejoin: miter; stroke-linecap: square"/>
   </g>
   <g id="legend_2">
    <g id="patch_14">
     <path d="M 725.22875 402.744 
L 838.6 402.744 
Q 840.2 402.744 840.2 401.144 
L 840.2 374.744 
Q 840.2 373.144 838.6 373.144 
L 725.22875 373.144 
Q 723.62875 373.144 723.62875 374.744 
L 723.62875 401.144 
Q 723.62875 402.744 725.22875 402.744 
z
" style="fill: #ffffff; opacity: 0.8; stroke: #cccccc; stroke-linejoin: miter"/>
    </g>
    <g id="PathCollection_3">
     <g>
      <use xlink:href="#m099c7401cd" x="734.82875" y="381.444" style="fill: #e45756; stroke: #e45756; stroke-width: 1.5"/>
     </g>
    </g>
    <g id="text_29">
     <!-- actual anomaly (post-hoc) -->
     <g transform="translate(749.22875 383.544) scale(0.08 -0.08)">
      <defs>
       <path id="AppleSDGothicNeo-Regular-9" d="M 1472 -384 
L 1914 -384 
C 1344 256 883 1235 883 2221 
L 883 2374 
C 883 3392 1344 4307 1914 4941 
L 1472 4941 
C 883 4339 365 3469 365 2330 
L 365 2227 
C 365 1094 883 218 1472 -384 
z
" transform="scale(0.015625)"/>
       <path id="AppleSDGothicNeo-Regular-a" d="M 115 -384 
L 550 -384 
C 1146 218 1651 1088 1651 2227 
L 1651 2330 
C 1651 3462 1146 4339 550 4941 
L 115 4941 
C 678 4301 1146 3322 1146 2336 
L 1146 2176 
C 1146 1165 678 250 115 -384 
z
" transform="scale(0.015625)"/>
      </defs>
      <use xlink:href="#AppleSDGothicNeo-Regular-42"/>
      <use xlink:href="#AppleSDGothicNeo-Regular-44" transform="translate(47.203125 0)"/>
      <use xlink:href="#AppleSDGothicNeo-Regular-55" transform="translate(93.109375 0)"/>
      <use xlink:href="#AppleSDGothicNeo-Regular-56" transform="translate(128.109375 0)"/>
      <use xlink:href="#AppleSDGothicNeo-Regular-42" transform="translate(181.109375 0)"/>
      <use xlink:href="#AppleSDGothicNeo-Regular-4d" transform="translate(228.3125 0)"/>
      <use xlink:href="#AppleSDGothicNeo-Regular-1" transform="translate(251.015625 0)"/>
      <use xlink:href="#AppleSDGothicNeo-Regular-42" transform="translate(277.3125 0)"/>
      <use xlink:href="#AppleSDGothicNeo-Regular-4f" transform="translate(324.515625 0)"/>
      <use xlink:href="#AppleSDGothicNeo-Regular-50" transform="translate(378.109375 0)"/>
      <use xlink:href="#AppleSDGothicNeo-Regular-4e" transform="translate(431.515625 0)"/>
      <use xlink:href="#AppleSDGothicNeo-Regular-42" transform="translate(511.8125 0)"/>
      <use xlink:href="#AppleSDGothicNeo-Regular-4d" transform="translate(559.015625 0)"/>
      <use xlink:href="#AppleSDGothicNeo-Regular-5a" transform="translate(581.71875 0)"/>
      <use xlink:href="#AppleSDGothicNeo-Regular-1" transform="translate(629.921875 0)"/>
      <use xlink:href="#AppleSDGothicNeo-Regular-9" transform="translate(656.21875 0)"/>
      <use xlink:href="#AppleSDGothicNeo-Regular-51" transform="translate(687.921875 0)"/>
      <use xlink:href="#AppleSDGothicNeo-Regular-50" transform="translate(742.421875 0)"/>
      <use xlink:href="#AppleSDGothicNeo-Regular-54" transform="translate(795.828125 0)"/>
      <use xlink:href="#AppleSDGothicNeo-Regular-55" transform="translate(837.328125 0)"/>
      <use xlink:href="#AppleSDGothicNeo-Regular-e" transform="translate(870.234375 0)"/>
      <use xlink:href="#AppleSDGothicNeo-Regular-49" transform="translate(913.4375 0)"/>
      <use xlink:href="#AppleSDGothicNeo-Regular-50" transform="translate(967.03125 0)"/>
      <use xlink:href="#AppleSDGothicNeo-Regular-44" transform="translate(1020.4375 0)"/>
      <use xlink:href="#AppleSDGothicNeo-Regular-a" transform="translate(1065.4375 0)"/>
     </g>
    </g>
    <g id="PathCollection_4">
     <g>
      <use xlink:href="#md06defd803" x="734.82875" y="395.044" style="fill: #111111; stroke: #111111"/>
     </g>
    </g>
    <g id="text_30">
     <!-- selected case -->
     <g transform="translate(749.22875 397.144) scale(0.08 -0.08)">
      <use xlink:href="#AppleSDGothicNeo-Regular-54"/>
      <use xlink:href="#AppleSDGothicNeo-Regular-46" transform="translate(41.5 0)"/>
      <use xlink:href="#AppleSDGothicNeo-Regular-4d" transform="translate(91.5 0)"/>
      <use xlink:href="#AppleSDGothicNeo-Regular-46" transform="translate(114.203125 0)"/>
      <use xlink:href="#AppleSDGothicNeo-Regular-44" transform="translate(164.203125 0)"/>
      <use xlink:href="#AppleSDGothicNeo-Regular-55" transform="translate(210.109375 0)"/>
      <use xlink:href="#AppleSDGothicNeo-Regular-46" transform="translate(245.109375 0)"/>
      <use xlink:href="#AppleSDGothicNeo-Regular-45" transform="translate(295.109375 0)"/>
      <use xlink:href="#AppleSDGothicNeo-Regular-1" transform="translate(349.609375 0)"/>
      <use xlink:href="#AppleSDGothicNeo-Regular-44" transform="translate(375.90625 0)"/>
      <use xlink:href="#AppleSDGothicNeo-Regular-42" transform="translate(420.90625 0)"/>
      <use xlink:href="#AppleSDGothicNeo-Regular-54" transform="translate(468.109375 0)"/>
      <use xlink:href="#AppleSDGothicNeo-Regular-46" transform="translate(509.609375 0)"/>
     </g>
    </g>
   </g>
  </g>
  <g id="text_31">
   <!-- Actual anomaly labels are shown only for post-hoc evaluation and explanation; they were not used for candidate selection or routing. -->
   <g transform="translate(8.64 501.48) scale(0.08 -0.08)">
    <defs>
     <path id="AppleSDGothicNeo-Regular-43" d="M 1626 198 
C 2650 198 3206 800 3206 1862 
L 3206 1946 
C 3206 3136 2579 3501 1971 3501 
C 1536 3501 1235 3379 992 3232 
L 960 3232 
L 960 4851 
L 467 4851 
L 467 371 
C 749 262 1254 198 1626 198 
z
M 1651 608 
C 1331 608 1107 659 960 723 
L 960 2880 
C 1126 2957 1421 3085 1747 3085 
C 2387 3085 2694 2797 2694 1914 
L 2694 1786 
C 2694 877 2221 608 1651 608 
z
" transform="scale(0.015625)"/>
     <path id="AppleSDGothicNeo-Regular-58" d="M 1082 269 
L 1581 269 
L 2330 2688 
L 2349 2688 
L 3085 269 
L 3578 269 
L 4480 3443 
L 4013 3443 
L 3360 902 
L 3334 902 
L 2566 3443 
L 2144 3443 
L 1382 902 
L 1357 902 
L 704 3443 
L 179 3443 
L 1082 269 
z
" transform="scale(0.015625)"/>
     <path id="AppleSDGothicNeo-Regular-47" d="M 653 269 
L 1146 269 
L 1146 3034 
L 1875 3034 
L 1875 3437 
L 1146 3437 
L 1146 3866 
C 1146 4307 1357 4486 1734 4486 
C 1952 4486 2086 4461 2182 4442 
L 2182 4787 
C 2067 4845 1894 4896 1645 4896 
C 1069 4896 653 4595 653 3898 
L 653 3437 
L 186 3437 
L 186 3034 
L 653 3034 
L 653 269 
z
" transform="scale(0.015625)"/>
     <path id="AppleSDGothicNeo-Regular-1c" d="M 416 -122 
L 774 -122 
L 1222 1094 
L 646 1094 
L 416 -122 
z
M 646 3021 
L 1203 3021 
L 1203 3590 
L 646 3590 
L 646 3021 
z
" transform="scale(0.015625)"/>
     <path id="AppleSDGothicNeo-Regular-48" d="M 1574 -672 
C 2656 -672 3091 -243 3091 301 
C 3091 890 2662 1062 2086 1062 
L 1210 1062 
C 998 1062 896 1126 896 1299 
C 896 1402 960 1478 1043 1555 
C 1210 1498 1389 1466 1587 1466 
C 2253 1466 2778 1805 2778 2483 
L 2778 2490 
C 2778 2739 2694 2931 2547 3072 
L 3117 3072 
L 3117 3450 
L 2042 3450 
C 1901 3482 1754 3501 1594 3501 
C 896 3501 397 3136 397 2477 
L 397 2464 
C 397 2086 550 1830 794 1670 
C 550 1491 435 1344 435 1146 
C 435 934 576 800 755 749 
L 755 717 
C 429 608 154 410 154 70 
C 154 -390 608 -672 1574 -672 
z
M 1562 -288 
C 934 -288 666 -147 666 134 
C 666 403 851 544 1094 627 
L 2010 627 
C 2426 627 2579 531 2579 237 
C 2579 -96 2310 -288 1562 -288 
z
M 1587 1850 
C 1165 1850 883 2054 883 2470 
L 883 2502 
C 883 2899 1152 3130 1587 3130 
C 2016 3130 2285 2931 2285 2496 
L 2285 2464 
C 2285 2054 2029 1850 1587 1850 
z
" transform="scale(0.015625)"/>
    </defs>
    <use xlink:href="#AppleSDGothicNeo-Regular-22"/>
    <use xlink:href="#AppleSDGothicNeo-Regular-44" transform="translate(60.5 0)"/>
    <use xlink:href="#AppleSDGothicNeo-Regular-55" transform="translate(106.40625 0)"/>
    <use xlink:href="#AppleSDGothicNeo-Regular-56" transform="translate(141.40625 0)"/>
    <use xlink:href="#AppleSDGothicNeo-Regular-42" transform="translate(194.40625 0)"/>
    <use xlink:href="#AppleSDGothicNeo-Regular-4d" transform="translate(241.609375 0)"/>
    <use xlink:href="#AppleSDGothicNeo-Regular-1" transform="translate(264.3125 0)"/>
    <use xlink:href="#AppleSDGothicNeo-Regular-42" transform="translate(290.609375 0)"/>
    <use xlink:href="#AppleSDGothicNeo-Regular-4f" transform="translate(337.8125 0)"/>
    <use xlink:href="#AppleSDGothicNeo-Regular-50" transform="translate(391.40625 0)"/>
    <use xlink:href="#AppleSDGothicNeo-Regular-4e" transform="translate(444.8125 0)"/>
    <use xlink:href="#AppleSDGothicNeo-Regular-42" transform="translate(525.109375 0)"/>
    <use xlink:href="#AppleSDGothicNeo-Regular-4d" transform="translate(572.3125 0)"/>
    <use xlink:href="#AppleSDGothicNeo-Regular-5a" transform="translate(595.015625 0)"/>
    <use xlink:href="#AppleSDGothicNeo-Regular-1" transform="translate(643.21875 0)"/>
    <use xlink:href="#AppleSDGothicNeo-Regular-4d" transform="translate(669.515625 0)"/>
    <use xlink:href="#AppleSDGothicNeo-Regular-42" transform="translate(692.21875 0)"/>
    <use xlink:href="#AppleSDGothicNeo-Regular-43" transform="translate(739.421875 0)"/>
    <use xlink:href="#AppleSDGothicNeo-Regular-46" transform="translate(793.921875 0)"/>
    <use xlink:href="#AppleSDGothicNeo-Regular-4d" transform="translate(843.921875 0)"/>
    <use xlink:href="#AppleSDGothicNeo-Regular-54" transform="translate(866.625 0)"/>
    <use xlink:href="#AppleSDGothicNeo-Regular-1" transform="translate(908.125 0)"/>
    <use xlink:href="#AppleSDGothicNeo-Regular-42" transform="translate(934.421875 0)"/>
    <use xlink:href="#AppleSDGothicNeo-Regular-53" transform="translate(981.625 0)"/>
    <use xlink:href="#AppleSDGothicNeo-Regular-46" transform="translate(1016.21875 0)"/>
    <use xlink:href="#AppleSDGothicNeo-Regular-1" transform="translate(1066.21875 0)"/>
    <use xlink:href="#AppleSDGothicNeo-Regular-54" transform="translate(1092.515625 0)"/>
    <use xlink:href="#AppleSDGothicNeo-Regular-49" transform="translate(1134.015625 0)"/>
    <use xlink:href="#AppleSDGothicNeo-Regular-50" transform="translate(1187.609375 0)"/>
    <use xlink:href="#AppleSDGothicNeo-Regular-58" transform="translate(1241.015625 0)"/>
    <use xlink:href="#AppleSDGothicNeo-Regular-4f" transform="translate(1313.8125 0)"/>
    <use xlink:href="#AppleSDGothicNeo-Regular-1" transform="translate(1367.40625 0)"/>
    <use xlink:href="#AppleSDGothicNeo-Regular-50" transform="translate(1393.703125 0)"/>
    <use xlink:href="#AppleSDGothicNeo-Regular-4f" transform="translate(1447.109375 0)"/>
    <use xlink:href="#AppleSDGothicNeo-Regular-4d" transform="translate(1500.703125 0)"/>
    <use xlink:href="#AppleSDGothicNeo-Regular-5a" transform="translate(1523.40625 0)"/>
    <use xlink:href="#AppleSDGothicNeo-Regular-1" transform="translate(1571.609375 0)"/>
    <use xlink:href="#AppleSDGothicNeo-Regular-47" transform="translate(1597.90625 0)"/>
    <use xlink:href="#AppleSDGothicNeo-Regular-50" transform="translate(1630.203125 0)"/>
    <use xlink:href="#AppleSDGothicNeo-Regular-53" transform="translate(1683.609375 0)"/>
    <use xlink:href="#AppleSDGothicNeo-Regular-1" transform="translate(1718.203125 0)"/>
    <use xlink:href="#AppleSDGothicNeo-Regular-51" transform="translate(1744.5 0)"/>
    <use xlink:href="#AppleSDGothicNeo-Regular-50" transform="translate(1799 0)"/>
    <use xlink:href="#AppleSDGothicNeo-Regular-54" transform="translate(1852.40625 0)"/>
    <use xlink:href="#AppleSDGothicNeo-Regular-55" transform="translate(1893.90625 0)"/>
    <use xlink:href="#AppleSDGothicNeo-Regular-e" transform="translate(1926.8125 0)"/>
    <use xlink:href="#AppleSDGothicNeo-Regular-49" transform="translate(1970.015625 0)"/>
    <use xlink:href="#AppleSDGothicNeo-Regular-50" transform="translate(2023.609375 0)"/>
    <use xlink:href="#AppleSDGothicNeo-Regular-44" transform="translate(2077.015625 0)"/>
    <use xlink:href="#AppleSDGothicNeo-Regular-1" transform="translate(2122.015625 0)"/>
    <use xlink:href="#AppleSDGothicNeo-Regular-46" transform="translate(2148.3125 0)"/>
    <use xlink:href="#AppleSDGothicNeo-Regular-57" transform="translate(2197.8125 0)"/>
    <use xlink:href="#AppleSDGothicNeo-Regular-42" transform="translate(2245.515625 0)"/>
    <use xlink:href="#AppleSDGothicNeo-Regular-4d" transform="translate(2292.71875 0)"/>
    <use xlink:href="#AppleSDGothicNeo-Regular-56" transform="translate(2315.421875 0)"/>
    <use xlink:href="#AppleSDGothicNeo-Regular-42" transform="translate(2368.421875 0)"/>
    <use xlink:href="#AppleSDGothicNeo-Regular-55" transform="translate(2415.625 0)"/>
    <use xlink:href="#AppleSDGothicNeo-Regular-4a" transform="translate(2450.625 0)"/>
    <use xlink:href="#AppleSDGothicNeo-Regular-50" transform="translate(2473.328125 0)"/>
    <use xlink:href="#AppleSDGothicNeo-Regular-4f" transform="translate(2526.734375 0)"/>
    <use xlink:href="#AppleSDGothicNeo-Regular-1" transform="translate(2580.328125 0)"/>
    <use xlink:href="#AppleSDGothicNeo-Regular-42" transform="translate(2606.625 0)"/>
    <use xlink:href="#AppleSDGothicNeo-Regular-4f" transform="translate(2653.828125 0)"/>
    <use xlink:href="#AppleSDGothicNeo-Regular-45" transform="translate(2707.421875 0)"/>
    <use xlink:href="#AppleSDGothicNeo-Regular-1" transform="translate(2761.921875 0)"/>
    <use xlink:href="#AppleSDGothicNeo-Regular-46" transform="translate(2788.21875 0)"/>
    <use xlink:href="#AppleSDGothicNeo-Regular-59" transform="translate(2837.21875 0)"/>
    <use xlink:href="#AppleSDGothicNeo-Regular-51" transform="translate(2884.921875 0)"/>
    <use xlink:href="#AppleSDGothicNeo-Regular-4d" transform="translate(2939.421875 0)"/>
    <use xlink:href="#AppleSDGothicNeo-Regular-42" transform="translate(2962.125 0)"/>
    <use xlink:href="#AppleSDGothicNeo-Regular-4f" transform="translate(3009.328125 0)"/>
    <use xlink:href="#AppleSDGothicNeo-Regular-42" transform="translate(3062.921875 0)"/>
    <use xlink:href="#AppleSDGothicNeo-Regular-55" transform="translate(3110.125 0)"/>
    <use xlink:href="#AppleSDGothicNeo-Regular-4a" transform="translate(3145.125 0)"/>
    <use xlink:href="#AppleSDGothicNeo-Regular-50" transform="translate(3167.828125 0)"/>
    <use xlink:href="#AppleSDGothicNeo-Regular-4f" transform="translate(3221.234375 0)"/>
    <use xlink:href="#AppleSDGothicNeo-Regular-1c" transform="translate(3274.828125 0)"/>
    <use xlink:href="#AppleSDGothicNeo-Regular-1" transform="translate(3303.234375 0)"/>
    <use xlink:href="#AppleSDGothicNeo-Regular-55" transform="translate(3329.53125 0)"/>
    <use xlink:href="#AppleSDGothicNeo-Regular-49" transform="translate(3364.53125 0)"/>
    <use xlink:href="#AppleSDGothicNeo-Regular-46" transform="translate(3418.125 0)"/>
    <use xlink:href="#AppleSDGothicNeo-Regular-5a" transform="translate(3468.125 0)"/>
    <use xlink:href="#AppleSDGothicNeo-Regular-1" transform="translate(3516.328125 0)"/>
    <use xlink:href="#AppleSDGothicNeo-Regular-58" transform="translate(3542.625 0)"/>
    <use xlink:href="#AppleSDGothicNeo-Regular-46" transform="translate(3615.421875 0)"/>
    <use xlink:href="#AppleSDGothicNeo-Regular-53" transform="translate(3665.421875 0)"/>
    <use xlink:href="#AppleSDGothicNeo-Regular-46" transform="translate(3700.015625 0)"/>
    <use xlink:href="#AppleSDGothicNeo-Regular-1" transform="translate(3750.015625 0)"/>
    <use xlink:href="#AppleSDGothicNeo-Regular-4f" transform="translate(3776.3125 0)"/>
    <use xlink:href="#AppleSDGothicNeo-Regular-50" transform="translate(3829.90625 0)"/>
    <use xlink:href="#AppleSDGothicNeo-Regular-55" transform="translate(3883.3125 0)"/>
    <use xlink:href="#AppleSDGothicNeo-Regular-1" transform="translate(3918.3125 0)"/>
    <use xlink:href="#AppleSDGothicNeo-Regular-56" transform="translate(3944.609375 0)"/>
    <use xlink:href="#AppleSDGothicNeo-Regular-54" transform="translate(3997.609375 0)"/>
    <use xlink:href="#AppleSDGothicNeo-Regular-46" transform="translate(4039.109375 0)"/>
    <use xlink:href="#AppleSDGothicNeo-Regular-45" transform="translate(4089.109375 0)"/>
    <use xlink:href="#AppleSDGothicNeo-Regular-1" transform="translate(4143.609375 0)"/>
    <use xlink:href="#AppleSDGothicNeo-Regular-47" transform="translate(4169.90625 0)"/>
    <use xlink:href="#AppleSDGothicNeo-Regular-50" transform="translate(4202.203125 0)"/>
    <use xlink:href="#AppleSDGothicNeo-Regular-53" transform="translate(4255.609375 0)"/>
    <use xlink:href="#AppleSDGothicNeo-Regular-1" transform="translate(4290.203125 0)"/>
    <use xlink:href="#AppleSDGothicNeo-Regular-44" transform="translate(4316.5 0)"/>
    <use xlink:href="#AppleSDGothicNeo-Regular-42" transform="translate(4361.5 0)"/>
    <use xlink:href="#AppleSDGothicNeo-Regular-4f" transform="translate(4408.703125 0)"/>
    <use xlink:href="#AppleSDGothicNeo-Regular-45" transform="translate(4462.296875 0)"/>
    <use xlink:href="#AppleSDGothicNeo-Regular-4a" transform="translate(4516.796875 0)"/>
    <use xlink:href="#AppleSDGothicNeo-Regular-45" transform="translate(4539.5 0)"/>
    <use xlink:href="#AppleSDGothicNeo-Regular-42" transform="translate(4594 0)"/>
    <use xlink:href="#AppleSDGothicNeo-Regular-55" transform="translate(4641.203125 0)"/>
    <use xlink:href="#AppleSDGothicNeo-Regular-46" transform="translate(4676.203125 0)"/>
    <use xlink:href="#AppleSDGothicNeo-Regular-1" transform="translate(4726.203125 0)"/>
    <use xlink:href="#AppleSDGothicNeo-Regular-54" transform="translate(4752.5 0)"/>
    <use xlink:href="#AppleSDGothicNeo-Regular-46" transform="translate(4794 0)"/>
    <use xlink:href="#AppleSDGothicNeo-Regular-4d" transform="translate(4844 0)"/>
    <use xlink:href="#AppleSDGothicNeo-Regular-46" transform="translate(4866.703125 0)"/>
    <use xlink:href="#AppleSDGothicNeo-Regular-44" transform="translate(4916.703125 0)"/>
    <use xlink:href="#AppleSDGothicNeo-Regular-55" transform="translate(4962.609375 0)"/>
    <use xlink:href="#AppleSDGothicNeo-Regular-4a" transform="translate(4997.609375 0)"/>
    <use xlink:href="#AppleSDGothicNeo-Regular-50" transform="translate(5020.3125 0)"/>
    <use xlink:href="#AppleSDGothicNeo-Regular-4f" transform="translate(5073.71875 0)"/>
    <use xlink:href="#AppleSDGothicNeo-Regular-1" transform="translate(5127.3125 0)"/>
    <use xlink:href="#AppleSDGothicNeo-Regular-50" transform="translate(5153.609375 0)"/>
    <use xlink:href="#AppleSDGothicNeo-Regular-53" transform="translate(5207.015625 0)"/>
    <use xlink:href="#AppleSDGothicNeo-Regular-1" transform="translate(5241.609375 0)"/>
    <use xlink:href="#AppleSDGothicNeo-Regular-53" transform="translate(5267.90625 0)"/>
    <use xlink:href="#AppleSDGothicNeo-Regular-50" transform="translate(5302.5 0)"/>
    <use xlink:href="#AppleSDGothicNeo-Regular-56" transform="translate(5355.90625 0)"/>
    <use xlink:href="#AppleSDGothicNeo-Regular-55" transform="translate(5408.90625 0)"/>
    <use xlink:href="#AppleSDGothicNeo-Regular-4a" transform="translate(5443.90625 0)"/>
    <use xlink:href="#AppleSDGothicNeo-Regular-4f" transform="translate(5466.609375 0)"/>
    <use xlink:href="#AppleSDGothicNeo-Regular-48" transform="translate(5520.203125 0)"/>
    <use xlink:href="#AppleSDGothicNeo-Regular-f" transform="translate(5570.796875 0)"/>
   </g>
  </g>
 </g>
 <defs>
  <clipPath id="p97e9dc3a23">
   <rect x="42.845" y="27.6" width="801.355" height="295.744"/>
  </clipPath>
  <clipPath id="p093bcd7172">
   <rect x="42.845" y="369.144" width="801.355" height="73.936"/>
  </clipPath>
 </defs>
</svg>
