<?xml version="1.0" encoding="utf-8" standalone="no"?>
<!DOCTYPE svg PUBLIC "-//W3C//DTD SVG 1.1//EN"
  "http://www.w3.org/Graphics/SVG/1.1/DTD/svg11.dtd">
<svg xmlns:xlink="http://www.w3.org/1999/xlink" width="864pt" height="504pt" viewBox="0 0 864 504" xmlns="http://www.w3.org/2000/svg" version="1.1">
 <metadata>
  <rdf:RDF xmlns:dc="http://purl.org/dc/elements/1.1/" xmlns:cc="http://creativecommons.org/ns#" xmlns:rdf="http://www.w3.org/1999/02/22-rdf-syntax-ns#">
   <cc:Work>
    <dc:type rdf:resource="http://purl.org/dc/dcmitype/StillImage"/>
    <dc:date>2026-07-13T08:10:03.061531</dc:date>
    <dc:format>image/svg+xml</dc:format>
    <dc:creator>
     <cc:Agent>
      <dc:title>Matplotlib v3.11.0, https://matplotlib.org/</dc:title>
     </cc:Agent>
    </dc:creator>
   </cc:Work>
  </rdf:RDF>
 </metadata>
 <defs>
  <style type="text/css">*{stroke-linejoin: round; stroke-linecap: butt}</style>
 </defs>
 <g id="figure_1">
  <g id="patch_1">
   <path d="M 0 504 
L 864 504 
L 864 0 
L 0 0 
z
" style="fill: #ffffff"/>
  </g>
  <g id="axes_1">
   <g id="patch_2">
    <path d="M 41.135 323.344 
L 841.68 323.344 
L 841.68 27.6 
L 41.135 27.6 
z
" style="fill: #ffffff"/>
   </g>
   <g id="FillBetweenPolyCollection_1">
    <defs>
     <path id="m93dfcf5ec4" d="M 77.523409 -450.933507 
L 77.523409 -287.349315 
L 81.934125 -364.314445 
L 86.344842 -349.995583 
L 90.755558 -345.714102 
L 95.166274 -330.972666 
L 99.57699 -328.168589 
L 103.987707 -292.400434 
L 108.398423 -295.220347 
L 112.809139 -208.329888 
L 117.219855 -205.354047 
L 121.630572 -203.618776 
L 126.041288 -200.78636 
L 130.452004 -200.085012 
L 134.86272 -198.752552 
L 139.273437 -210.764816 
L 143.684153 -210.565214 
L 148.094869 -214.158697 
L 152.505585 -213.917071 
L 156.916302 -217.286716 
L 161.327018 -217.774006 
L 165.737734 -217.285373 
L 170.14845 -215.235727 
L 174.559167 -213.209043 
L 178.969883 -209.300205 
L 183.380599 -206.206945 
L 187.791315 -198.066173 
L 192.202032 -291.045999 
L 196.612748 -258.901522 
L 201.023464 -256.581162 
L 205.43418 -238.828828 
L 209.844897 -233.590783 
L 214.255613 -228.763632 
L 218.666329 -221.702574 
L 223.077045 -215.147877 
L 227.487762 -212.205687 
L 231.898478 -206.421808 
L 236.309194 -202.002654 
L 240.71991 -195.117518 
L 245.130627 -212.794603 
L 249.541343 -210.001633 
L 253.952059 -208.112952 
L 258.362775 -214.31823 
L 262.773492 -215.944485 
L 267.184208 -211.724352 
L 271.594924 -216.624062 
L 276.00564 -203.012704 
L 280.416357 -210.930972 
L 284.827073 -201.590117 
L 289.237789 -197.609602 
L 293.648506 -200.945607 
L 298.059222 -212.756545 
L 302.469938 -210.890988 
L 306.880654 -212.227357 
L 311.291371 -216.237886 
L 315.702087 -217.952567 
L 320.112803 -211.577067 
L 324.523519 -208.179612 
L 328.934236 -206.024967 
L 333.344952 -203.048052 
L 337.755668 -201.202872 
L 342.166384 -198.66105 
L 346.577101 -202.721936 
L 350.987817 -198.669038 
L 355.398533 -212.076623 
L 359.809249 -213.764125 
L 364.219966 -215.744757 
L 368.630682 -216.695552 
L 373.041398 -214.701276 
L 377.452114 -211.607154 
L 381.862831 -209.301735 
L 386.273547 -205.422103 
L 390.684263 -204.818126 
L 395.094979 -200.677701 
L 399.505696 -220.981201 
L 403.916412 -218.583609 
L 408.327128 -216.655981 
L 412.737844 -215.795217 
L 417.148561 -200.391219 
L 421.559277 -232.852591 
L 425.969993 -220.508383 
L 430.380709 -213.659868 
L 434.791426 -209.692145 
L 439.202142 -210.506911 
L 443.612858 -210.686282 
L 448.023574 -212.589845 
L 452.434291 -216.856723 
L 456.845007 -215.708897 
L 461.255723 -213.436737 
L 465.666439 -210.566971 
L 470.077156 -211.109065 
L 474.487872 -208.501168 
L 478.898588 -199.642725 
L 483.309304 -199.003854 
L 487.720021 -201.458186 
L 492.130737 -199.56515 
L 496.541453 -211.680374 
L 500.952169 -217.87219 
L 505.362886 -213.841898 
L 509.773602 -195.758034 
L 514.184318 -197.798815 
L 518.595034 -197.854068 
L 523.005751 -197.893771 
L 527.416467 -214.51148 
L 531.827183 -217.783891 
L 536.237899 -204.636825 
L 540.648616 -215.505868 
L 545.059332 -217.530789 
L 549.470048 -215.597078 
L 553.880764 -206.875249 
L 558.291481 -199.271952 
L 562.702197 -196.955899 
L 567.112913 -197.173382 
L 571.523629 -215.874594 
L 575.934346 -216.19357 
L 580.345062 -215.630592 
L 584.755778 -211.052403 
L 589.166494 -196.244375 
L 593.577211 -194.403764 
L 597.987927 -211.076474 
L 602.398643 -211.635779 
L 606.80936 -213.165094 
L 611.220076 -207.511623 
L 615.630792 -205.191914 
L 620.041508 -206.6935 
L 624.452225 -202.709325 
L 628.862941 -201.676295 
L 633.273657 -199.575943 
L 637.684373 -200.631203 
L 642.09509 -203.054002 
L 646.505806 -195.372804 
L 650.916522 -198.701695 
L 655.327238 -203.026531 
L 659.737955 -198.759703 
L 664.148671 -194.098909 
L 668.559387 -194.853573 
L 672.970103 -201.774427 
L 677.38082 -200.579235 
L 681.791536 -203.459885 
L 686.202252 -248.241188 
L 690.612968 -252.655123 
L 695.023685 -230.794141 
L 699.434401 -215.705054 
L 703.845117 -236.475361 
L 708.255833 -221.549219 
L 712.66655 -197.45688 
L 717.077266 -216.661695 
L 721.487982 -197.711782 
L 725.898698 -232.691934 
L 730.309415 -220.157914 
L 734.720131 -234.419833 
L 739.130847 -242.073163 
L 743.541563 -220.409104 
L 747.95228 -226.207693 
L 752.362996 -230.466494 
L 756.773712 -258.399073 
L 761.184428 -225.195572 
L 765.595145 -223.748108 
L 770.005861 -243.87432 
L 774.416577 -229.992049 
L 778.827293 -216.610719 
L 783.23801 -228.531576 
L 787.648726 -212.424532 
L 792.059442 -209.166843 
L 796.470158 -199.653024 
L 800.880875 -208.845367 
L 805.291591 -206.183771 
L 805.291591 -233.380884 
L 805.291591 -233.380884 
L 800.880875 -234.131467 
L 796.470158 -233.38088 
L 792.059442 -235.605459 
L 787.648726 -248.930465 
L 783.23801 -294.752142 
L 778.827293 -267.77736 
L 774.416577 -311.884575 
L 770.005861 -325.394351 
L 765.595145 -261.399113 
L 761.184428 -264.664753 
L 756.773712 -338.38253 
L 752.362996 -332.147441 
L 747.95228 -271.968594 
L 743.541563 -270.574904 
L 739.130847 -272.331011 
L 734.720131 -269.842329 
L 730.309415 -269.85043 
L 725.898698 -270.115851 
L 721.487982 -233.380896 
L 717.077266 -250.924549 
L 712.66655 -233.380886 
L 708.255833 -259.101709 
L 703.845117 -276.712792 
L 699.434401 -258.971462 
L 695.023685 -265.977891 
L 690.612968 -298.309863 
L 686.202252 -295.030988 
L 681.791536 -254.545536 
L 677.38082 -244.291002 
L 672.970103 -246.860864 
L 668.559387 -233.38088 
L 664.148671 -233.38088 
L 659.737955 -233.38088 
L 655.327238 -245.353011 
L 650.916522 -233.380888 
L 646.505806 -233.38088 
L 642.09509 -238.366416 
L 637.684373 -233.380879 
L 633.273657 -233.38088 
L 628.862941 -243.630452 
L 624.452225 -233.380881 
L 620.041508 -247.399666 
L 615.630792 -241.32548 
L 611.220076 -245.367232 
L 606.80936 -250.692547 
L 602.398643 -248.229852 
L 597.987927 -254.048693 
L 593.577211 -233.38088 
L 589.166494 -233.38088 
L 584.755778 -247.821485 
L 580.345062 -256.349922 
L 575.934346 -257.813806 
L 571.523629 -263.259183 
L 567.112913 -233.38088 
L 562.702197 -233.38089 
L 558.291481 -233.38088 
L 553.880764 -245.775788 
L 549.470048 -253.842014 
L 545.059332 -262.825867 
L 540.648616 -270.702928 
L 536.237899 -271.309919 
L 531.827183 -266.420561 
L 527.416467 -277.131676 
L 523.005751 -233.380882 
L 518.595034 -233.380901 
L 514.184318 -233.38088 
L 509.773602 -233.380876 
L 505.362886 -247.38006 
L 500.952169 -269.490195 
L 496.541453 -287.317553 
L 492.130737 -233.380887 
L 487.720021 -233.38088 
L 483.309304 -233.38088 
L 478.898588 -233.38088 
L 474.487872 -249.50615 
L 470.077156 -254.895105 
L 465.666439 -260.260414 
L 461.255723 -260.084728 
L 456.845007 -268.896353 
L 452.434291 -277.775959 
L 448.023574 -277.959342 
L 443.612858 -292.519507 
L 439.202142 -299.159185 
L 434.791426 -243.170931 
L 430.380709 -251.071107 
L 425.969993 -259.463988 
L 421.559277 -273.814809 
L 417.148561 -233.380919 
L 412.737844 -249.276139 
L 408.327128 -248.001682 
L 403.916412 -250.660742 
L 399.505696 -258.568363 
L 395.094979 -233.38088 
L 390.684263 -233.54745 
L 386.273547 -235.916792 
L 381.862831 -241.46545 
L 377.452114 -242.436037 
L 373.041398 -245.714849 
L 368.630682 -249.852554 
L 364.219966 -262.825287 
L 359.809249 -270.37872 
L 355.398533 -289.640525 
L 350.987817 -264.123072 
L 346.577101 -233.469864 
L 342.166384 -233.380902 
L 337.755668 -233.38088 
L 333.344952 -233.380878 
L 328.934236 -237.311823 
L 324.523519 -235.456612 
L 320.112803 -243.099002 
L 315.702087 -249.048352 
L 311.291371 -270.793331 
L 306.880654 -282.701598 
L 302.469938 -297.287548 
L 298.059222 -282.399769 
L 293.648506 -233.380919 
L 289.237789 -233.38088 
L 284.827073 -233.38088 
L 280.416357 -247.385053 
L 276.00564 -233.380879 
L 271.594924 -236.257936 
L 267.184208 -239.295495 
L 262.773492 -262.335055 
L 258.362775 -282.591778 
L 253.952059 -277.024104 
L 249.541343 -302.976218 
L 245.130627 -288.215165 
L 240.71991 -233.38088 
L 236.309194 -233.380878 
L 231.898478 -238.758609 
L 227.487762 -247.9413 
L 223.077045 -256.065527 
L 218.666329 -265.339957 
L 214.255613 -269.452207 
L 209.844897 -276.07932 
L 205.43418 -284.965666 
L 201.023464 -308.835891 
L 196.612748 -312.481842 
L 192.202032 -326.18986 
L 187.791315 -233.38088 
L 183.380599 -234.678537 
L 178.969883 -262.307179 
L 174.559167 -265.218012 
L 170.14845 -268.082447 
L 165.737734 -271.093802 
L 161.327018 -272.432778 
L 156.916302 -279.952444 
L 152.505585 -288.200556 
L 148.094869 -294.421777 
L 143.684153 -303.753367 
L 139.273437 -308.353014 
L 134.86272 -255.424111 
L 130.452004 -271.109854 
L 126.041288 -286.305881 
L 121.630572 -298.859288 
L 117.219855 -304.849024 
L 112.809139 -311.996552 
L 108.398423 -331.130711 
L 103.987707 -339.61519 
L 99.57699 -359.540477 
L 95.166274 -367.782606 
L 90.755558 -401.479489 
L 86.344842 -413.441149 
L 81.934125 -462.957091 
L 77.523409 -450.933507 
z
" style="stroke: #a7dff3; stroke-opacity: 0.55"/>
    </defs>
    <g clip-path="url(#p25bcb79805)">
     <use xlink:href="#m93dfcf5ec4" x="0" y="504" style="fill: #a7dff3; fill-opacity: 0.55; stroke: #a7dff3; stroke-opacity: 0.55"/>
    </g>
   </g>
   <g id="matplotlib.axis_1">
    <g id="xtick_1">
     <g id="line2d_1">
      <defs>
       <path id="m745677b0ed" d="M 0 0 
L 0 3.5 
" style="stroke: #000000; stroke-width: 0.8"/>
      </defs>
      <g>
       <use xlink:href="#m745677b0ed" x="77.523409" y="323.344" style="stroke: #000000; stroke-width: 0.8"/>
      </g>
     </g>
     <g id="text_1">
      <!-- 0 -->
      <g transform="translate(74.373409 339.344) scale(0.1 -0.1)">
       <defs>
        <path id="AppleSDGothicNeo-Regular-11" d="M 2022 192 
C 2893 192 3558 787 3558 2240 
L 3558 2630 
C 3558 4122 2867 4634 2029 4634 
C 1184 4634 448 4122 448 2605 
L 448 2246 
C 448 794 1139 192 2022 192 
z
M 2022 614 
C 1350 614 992 1126 992 2195 
L 992 2669 
C 992 3744 1357 4211 2029 4211 
C 2688 4211 3040 3718 3040 2637 
L 3040 2163 
C 3040 1062 2682 614 2022 614 
z
" transform="scale(0.015625)"/>
       </defs>
       <use xlink:href="#AppleSDGothicNeo-Regular-11"/>
      </g>
     </g>
    </g>
    <g id="xtick_2">
     <g id="line2d_2">
      <g>
       <use xlink:href="#m745677b0ed" x="187.791315" y="323.344" style="stroke: #000000; stroke-width: 0.8"/>
      </g>
     </g>
     <g id="text_2">
      <!-- 25 -->
      <g transform="translate(182.631159 339.344) scale(0.1 -0.1)">
       <defs>
        <path id="AppleSDGothicNeo-Regular-13" d="M 397 269 
L 3066 269 
L 3066 704 
L 1107 704 
L 1779 1382 
C 2522 2138 2970 2650 2970 3392 
C 2970 4160 2502 4640 1638 4640 
C 1152 4640 717 4422 448 4250 
L 595 3846 
C 845 4019 1190 4198 1555 4198 
C 2163 4198 2438 3917 2438 3347 
C 2438 2733 2029 2266 1421 1632 
L 397 570 
L 397 269 
z
" transform="scale(0.015625)"/>
        <path id="AppleSDGothicNeo-Regular-16" d="M 1395 192 
C 2342 192 2906 838 2906 1606 
C 2906 2509 2374 2918 1510 2918 
C 1331 2918 1069 2874 896 2829 
L 986 4134 
L 2752 4134 
L 2752 4570 
L 576 4570 
L 422 2317 
C 621 2406 1024 2528 1318 2528 
C 1990 2528 2374 2266 2374 1613 
C 2374 1005 1978 621 1299 621 
C 947 621 525 768 288 928 
L 192 518 
C 448 333 896 192 1395 192 
z
" transform="scale(0.015625)"/>
       </defs>
       <use xlink:href="#AppleSDGothicNeo-Regular-13"/>
       <use xlink:href="#AppleSDGothicNeo-Regular-16" transform="translate(53.296875 0)"/>
      </g>
     </g>
    </g>
    <g id="xtick_3">
     <g id="line2d_3">
      <g>
       <use xlink:href="#m745677b0ed" x="298.059222" y="323.344" style="stroke: #000000; stroke-width: 0.8"/>
      </g>
     </g>
     <g id="text_3">
      <!-- 50 -->
      <g transform="translate(292.413909 339.344) scale(0.1 -0.1)">
       <use xlink:href="#AppleSDGothicNeo-Regular-16"/>
       <use xlink:href="#AppleSDGothicNeo-Regular-11" transform="translate(49.90625 0)"/>
      </g>
     </g>
    </g>
    <g id="xtick_4">
     <g id="line2d_4">
      <g>
       <use xlink:href="#m745677b0ed" x="408.327128" y="323.344" style="stroke: #000000; stroke-width: 0.8"/>
      </g>
     </g>
     <g id="text_4">
      <!-- 75 -->
      <g transform="translate(403.381816 339.344) scale(0.1 -0.1)">
       <defs>
        <path id="AppleSDGothicNeo-Regular-18" d="M 710 243 
L 1274 243 
L 2957 4218 
L 2957 4544 
L 218 4544 
L 218 4115 
L 2400 4115 
L 710 243 
z
" transform="scale(0.015625)"/>
       </defs>
       <use xlink:href="#AppleSDGothicNeo-Regular-18"/>
       <use xlink:href="#AppleSDGothicNeo-Regular-16" transform="translate(49 0)"/>
      </g>
     </g>
    </g>
    <g id="xtick_5">
     <g id="line2d_5">
      <g>
       <use xlink:href="#m745677b0ed" x="518.595034" y="323.344" style="stroke: #000000; stroke-width: 0.8"/>
      </g>
     </g>
     <g id="text_5">
      <!-- 100 -->
      <g transform="translate(510.509878 339.344) scale(0.1 -0.1)">
       <defs>
        <path id="AppleSDGothicNeo-Regular-12" d="M 1146 243 
L 1632 243 
L 1632 4634 
L 1363 4634 
L 352 4160 
L 352 3866 
L 1146 4051 
L 1146 243 
z
" transform="scale(0.015625)"/>
       </defs>
       <use xlink:href="#AppleSDGothicNeo-Regular-12"/>
       <use xlink:href="#AppleSDGothicNeo-Regular-11" transform="translate(35.703125 0)"/>
       <use xlink:href="#AppleSDGothicNeo-Regular-11" transform="translate(98.703125 0)"/>
      </g>
     </g>
    </g>
    <g id="xtick_6">
     <g id="line2d_6">
      <g>
       <use xlink:href="#m745677b0ed" x="628.862941" y="323.344" style="stroke: #000000; stroke-width: 0.8"/>
      </g>
     </g>
     <g id="text_6">
      <!-- 125 -->
      <g transform="translate(621.917628 339.344) scale(0.1 -0.1)">
       <use xlink:href="#AppleSDGothicNeo-Regular-12"/>
       <use xlink:href="#AppleSDGothicNeo-Regular-13" transform="translate(35.703125 0)"/>
       <use xlink:href="#AppleSDGothicNeo-Regular-16" transform="translate(89 0)"/>
      </g>
     </g>
    </g>
    <g id="xtick_7">
     <g id="line2d_7">
      <g>
       <use xlink:href="#m745677b0ed" x="739.130847" y="323.344" style="stroke: #000000; stroke-width: 0.8"/>
      </g>
     </g>
     <g id="text_7">
      <!-- 150 -->
      <g transform="translate(731.700378 339.344) scale(0.1 -0.1)">
       <use xlink:href="#AppleSDGothicNeo-Regular-12"/>
       <use xlink:href="#AppleSDGothicNeo-Regular-16" transform="translate(35.703125 0)"/>
       <use xlink:href="#AppleSDGothicNeo-Regular-11" transform="translate(85.609375 0)"/>
      </g>
     </g>
    </g>
    <g id="text_8">
     <!-- time index -->
     <g transform="translate(419.317656 355.344) scale(0.1 -0.1)">
      <defs>
       <path id="AppleSDGothicNeo-Regular-55" d="M 1472 230 
C 1747 230 1882 301 2010 358 
L 2010 691 
C 1882 653 1734 634 1600 634 
C 1235 634 1133 755 1133 1062 
L 1133 3034 
L 1946 3034 
L 1946 3437 
L 1133 3437 
L 1133 4192 
L 646 4192 
L 646 3437 
L 192 3437 
L 192 3034 
L 646 3034 
L 646 986 
C 646 448 973 230 1472 230 
z
" transform="scale(0.015625)"/>
       <path id="AppleSDGothicNeo-Regular-4a" d="M 486 269 
L 973 269 
L 973 3437 
L 486 3437 
L 486 269 
z
M 480 4077 
L 979 4077 
L 979 4589 
L 480 4589 
L 480 4077 
z
" transform="scale(0.015625)"/>
       <path id="AppleSDGothicNeo-Regular-4e" d="M 467 269 
L 954 269 
L 954 2848 
C 1210 2970 1491 3078 1760 3078 
C 2182 3078 2336 2918 2336 2534 
L 2336 269 
L 2822 269 
L 2822 2637 
C 2822 2714 2816 2771 2803 2848 
C 3104 2982 3373 3078 3622 3078 
C 4051 3078 4205 2918 4205 2534 
L 4205 269 
L 4685 269 
L 4685 2637 
C 4685 3251 4365 3501 3814 3501 
C 3456 3501 3085 3373 2739 3149 
L 2714 3149 
C 2566 3386 2310 3501 1952 3501 
C 1594 3501 1254 3354 960 3168 
L 934 3168 
L 934 3443 
L 467 3443 
L 467 269 
z
" transform="scale(0.015625)"/>
       <path id="AppleSDGothicNeo-Regular-46" d="M 1773 211 
C 2285 211 2650 371 2842 506 
L 2842 870 
C 2554 736 2272 634 1850 634 
C 1171 634 794 941 768 1734 
L 2931 1734 
L 2931 2010 
C 2931 2995 2522 3501 1651 3501 
C 922 3501 269 3008 269 1901 
L 269 1811 
C 269 819 774 211 1773 211 
z
M 1638 3104 
C 2157 3104 2419 2816 2419 2125 
L 768 2125 
C 819 2874 1242 3104 1638 3104 
z
" transform="scale(0.015625)"/>
       <path id="AppleSDGothicNeo-Regular-1" transform="scale(0.015625)"/>
       <path id="AppleSDGothicNeo-Regular-4f" d="M 467 269 
L 954 269 
L 954 2848 
C 1216 2970 1549 3078 1850 3078 
C 2355 3078 2490 2918 2490 2534 
L 2490 269 
L 2976 269 
L 2976 2637 
C 2976 3251 2675 3501 2054 3501 
C 1664 3501 1254 3360 960 3168 
L 934 3168 
L 934 3443 
L 467 3443 
L 467 269 
z
" transform="scale(0.015625)"/>
       <path id="AppleSDGothicNeo-Regular-45" d="M 1600 211 
C 2029 211 2336 346 2528 531 
L 2554 531 
L 2611 269 
L 3021 269 
L 3021 4851 
L 2528 4851 
L 2528 3290 
C 2355 3392 2086 3501 1696 3501 
C 877 3501 282 3002 282 1850 
L 282 1766 
C 282 595 966 211 1600 211 
z
M 1747 614 
C 1178 614 794 896 794 1786 
L 794 1914 
C 794 2771 1158 3085 1760 3085 
C 2086 3085 2381 2995 2528 2880 
L 2528 883 
C 2368 755 2118 614 1747 614 
z
" transform="scale(0.015625)"/>
       <path id="AppleSDGothicNeo-Regular-59" d="M 147 269 
L 685 269 
L 1510 1536 
L 2317 269 
L 2899 269 
L 1837 1882 
L 2822 3443 
L 2291 3443 
L 1568 2234 
L 774 3443 
L 198 3443 
L 1229 1882 
L 147 269 
z
" transform="scale(0.015625)"/>
      </defs>
      <use xlink:href="#AppleSDGothicNeo-Regular-55"/>
      <use xlink:href="#AppleSDGothicNeo-Regular-4a" transform="translate(35 0)"/>
      <use xlink:href="#AppleSDGothicNeo-Regular-4e" transform="translate(57.703125 0)"/>
      <use xlink:href="#AppleSDGothicNeo-Regular-46" transform="translate(138 0)"/>
      <use xlink:href="#AppleSDGothicNeo-Regular-1" transform="translate(188 0)"/>
      <use xlink:href="#AppleSDGothicNeo-Regular-4a" transform="translate(214.296875 0)"/>
      <use xlink:href="#AppleSDGothicNeo-Regular-4f" transform="translate(237 0)"/>
      <use xlink:href="#AppleSDGothicNeo-Regular-45" transform="translate(290.59375 0)"/>
      <use xlink:href="#AppleSDGothicNeo-Regular-46" transform="translate(345.09375 0)"/>
      <use xlink:href="#AppleSDGothicNeo-Regular-59" transform="translate(394.09375 0)"/>
     </g>
    </g>
   </g>
   <g id="matplotlib.axis_2">
    <g id="ytick_1">
     <g id="line2d_8">
      <defs>
       <path id="mca565e1a2f" d="M 0 0 
L -3.5 0 
" style="stroke: #000000; stroke-width: 0.8"/>
      </defs>
      <g>
       <use xlink:href="#mca565e1a2f" x="41.135" y="300.449829" style="stroke: #000000; stroke-width: 0.8"/>
      </g>
     </g>
     <g id="text_9">
      <!-- -1 -->
      <g transform="translate(26.824063 304.949829) scale(0.1 -0.1)">
       <defs>
        <path id="AppleSDGothicNeo-Regular-e" d="M 333 2138 
L 2445 2138 
L 2445 2560 
L 333 2560 
L 333 2138 
z
" transform="scale(0.015625)"/>
       </defs>
       <use xlink:href="#AppleSDGothicNeo-Regular-e"/>
       <use xlink:href="#AppleSDGothicNeo-Regular-12" transform="translate(37.40625 0)"/>
      </g>
     </g>
    </g>
    <g id="ytick_2">
     <g id="line2d_9">
      <g>
       <use xlink:href="#mca565e1a2f" x="41.135" y="262.119175" style="stroke: #000000; stroke-width: 0.8"/>
      </g>
     </g>
     <g id="text_10">
      <!-- 0 -->
      <g transform="translate(27.835 266.619175) scale(0.1 -0.1)">
       <use xlink:href="#AppleSDGothicNeo-Regular-11"/>
      </g>
     </g>
    </g>
    <g id="ytick_3">
     <g id="line2d_10">
      <g>
       <use xlink:href="#mca565e1a2f" x="41.135" y="223.788521" style="stroke: #000000; stroke-width: 0.8"/>
      </g>
     </g>
     <g id="text_11">
      <!-- 1 -->
      <g transform="translate(30.564688 228.288521) scale(0.1 -0.1)">
       <use xlink:href="#AppleSDGothicNeo-Regular-12"/>
      </g>
     </g>
    </g>
    <g id="ytick_4">
     <g id="line2d_11">
      <g>
       <use xlink:href="#mca565e1a2f" x="41.135" y="185.457867" style="stroke: #000000; stroke-width: 0.8"/>
      </g>
     </g>
     <g id="text_12">
      <!-- 2 -->
      <g transform="translate(28.805313 189.957867) scale(0.1 -0.1)">
       <use xlink:href="#AppleSDGothicNeo-Regular-13"/>
      </g>
     </g>
    </g>
    <g id="ytick_5">
     <g id="line2d_12">
      <g>
       <use xlink:href="#mca565e1a2f" x="41.135" y="147.127213" style="stroke: #000000; stroke-width: 0.8"/>
      </g>
     </g>
     <g id="text_13">
      <!-- 3 -->
      <g transform="translate(28.775625 151.627213) scale(0.1 -0.1)">
       <defs>
        <path id="AppleSDGothicNeo-Regular-14" d="M 1491 205 
C 2445 205 3053 730 3053 1478 
C 3053 2144 2630 2458 2074 2566 
C 2560 2726 2893 3040 2893 3571 
C 2893 4243 2368 4634 1600 4634 
C 1229 4634 723 4474 467 4301 
L 544 3891 
C 813 4045 1146 4198 1498 4198 
C 2022 4198 2362 4013 2362 3488 
C 2362 3008 1984 2726 1427 2726 
L 1043 2726 
L 1043 2291 
L 1459 2291 
C 2112 2291 2534 2029 2534 1478 
C 2534 947 2138 634 1427 634 
C 1107 634 678 755 435 915 
L 326 512 
C 563 346 992 205 1491 205 
z
" transform="scale(0.015625)"/>
       </defs>
       <use xlink:href="#AppleSDGothicNeo-Regular-14"/>
      </g>
     </g>
    </g>
    <g id="ytick_6">
     <g id="line2d_13">
      <g>
       <use xlink:href="#mca565e1a2f" x="41.135" y="108.796559" style="stroke: #000000; stroke-width: 0.8"/>
      </g>
     </g>
     <g id="text_14">
      <!-- 4 -->
      <g transform="translate(28.585 113.296559) scale(0.1 -0.1)">
       <defs>
        <path id="AppleSDGothicNeo-Regular-15" d="M 2214 166 
L 2682 166 
L 2682 1171 
L 3398 1171 
L 3398 1587 
L 2682 1587 
L 2682 4621 
L 2285 4621 
L 186 1555 
L 186 1171 
L 2214 1171 
L 2214 166 
z
M 730 1587 
L 2214 3814 
L 2214 1587 
L 730 1587 
z
" transform="scale(0.015625)"/>
       </defs>
       <use xlink:href="#AppleSDGothicNeo-Regular-15"/>
      </g>
     </g>
    </g>
    <g id="ytick_7">
     <g id="line2d_14">
      <g>
       <use xlink:href="#mca565e1a2f" x="41.135" y="70.465905" style="stroke: #000000; stroke-width: 0.8"/>
      </g>
     </g>
     <g id="text_15">
      <!-- 5 -->
      <g transform="translate(29.144375 74.965905) scale(0.1 -0.1)">
       <use xlink:href="#AppleSDGothicNeo-Regular-16"/>
      </g>
     </g>
    </g>
    <g id="ytick_8">
     <g id="line2d_15">
      <g>
       <use xlink:href="#mca565e1a2f" x="41.135" y="32.135251" style="stroke: #000000; stroke-width: 0.8"/>
      </g>
     </g>
     <g id="text_16">
      <!-- 6 -->
      <g transform="translate(28.594375 36.635251) scale(0.1 -0.1)">
       <defs>
        <path id="AppleSDGothicNeo-Regular-17" d="M 1837 192 
C 2707 192 3232 826 3232 1645 
C 3232 2464 2656 2957 1939 2957 
C 1459 2957 1107 2733 877 2496 
C 941 3834 1350 4205 2080 4205 
C 2355 4205 2733 4096 2886 4006 
L 3034 4378 
C 2854 4486 2458 4634 2029 4634 
C 1037 4634 365 3968 365 2451 
L 365 2118 
C 365 896 877 192 1837 192 
z
M 1830 614 
C 1146 614 877 1139 877 1939 
L 877 1984 
C 1056 2240 1427 2528 1837 2528 
C 2355 2528 2720 2266 2720 1594 
C 2720 979 2387 614 1830 614 
z
" transform="scale(0.015625)"/>
       </defs>
       <use xlink:href="#AppleSDGothicNeo-Regular-17"/>
      </g>
     </g>
    </g>
    <g id="text_17">
     <!-- value -->
     <g transform="translate(19.824063 186.502469) rotate(-90) scale(0.1 -0.1)">
      <defs>
       <path id="AppleSDGothicNeo-Regular-57" d="M 1331 269 
L 1818 269 
L 2995 3443 
L 2515 3443 
L 1600 890 
L 1574 890 
L 685 3443 
L 154 3443 
L 1331 269 
z
" transform="scale(0.015625)"/>
       <path id="AppleSDGothicNeo-Regular-42" d="M 1242 211 
C 1670 211 1939 365 2086 544 
L 2118 544 
L 2170 269 
L 2566 269 
L 2566 2566 
C 2566 3213 2176 3501 1478 3501 
C 1114 3501 806 3443 531 3328 
L 531 2976 
C 730 3034 979 3078 1286 3078 
C 1856 3078 2074 2950 2074 2458 
L 2074 2125 
L 1216 2022 
C 608 1952 250 1658 250 1101 
C 250 506 666 211 1242 211 
z
M 1363 595 
C 998 595 762 768 762 1114 
C 762 1478 954 1638 1344 1677 
L 2074 1760 
L 2074 826 
C 1939 691 1658 595 1363 595 
z
" transform="scale(0.015625)"/>
       <path id="AppleSDGothicNeo-Regular-4d" d="M 480 269 
L 973 269 
L 973 4851 
L 480 4851 
L 480 269 
z
" transform="scale(0.015625)"/>
       <path id="AppleSDGothicNeo-Regular-56" d="M 1421 211 
C 1805 211 2144 358 2432 557 
L 2458 557 
L 2502 269 
L 2925 269 
L 2925 3443 
L 2438 3443 
L 2438 883 
C 2176 755 1894 634 1555 634 
C 1088 634 941 800 941 1210 
L 941 3443 
L 448 3443 
L 448 1139 
C 448 525 800 211 1421 211 
z
" transform="scale(0.015625)"/>
      </defs>
      <use xlink:href="#AppleSDGothicNeo-Regular-57"/>
      <use xlink:href="#AppleSDGothicNeo-Regular-42" transform="translate(47.703125 0)"/>
      <use xlink:href="#AppleSDGothicNeo-Regular-4d" transform="translate(94.90625 0)"/>
      <use xlink:href="#AppleSDGothicNeo-Regular-56" transform="translate(117.609375 0)"/>
      <use xlink:href="#AppleSDGothicNeo-Regular-46" transform="translate(170.609375 0)"/>
     </g>
    </g>
   </g>
   <g id="line2d_16">
    <path d="M 77.523409 135.248295 
L 81.934125 109.995873 
L 86.344842 125.620093 
L 90.755558 132.334225 
L 95.166274 151.539552 
L 99.57699 156.080985 
L 103.987707 175.142167 
L 108.398423 187.718325 
L 112.809139 218.36206 
L 117.219855 226.668362 
L 121.630572 235.898814 
L 126.041288 261.783727 
L 130.452004 281.790199 
L 134.86272 286.275387 
L 139.273437 219.884314 
L 143.684153 223.910002 
L 148.094869 231.840551 
L 152.505585 238.268311 
L 156.916302 246.537111 
L 165.737734 259.285212 
L 170.14845 263.699651 
L 174.559167 269.484545 
L 178.969883 274.525032 
L 183.380599 285.775777 
L 187.791315 288.151267 
L 192.202032 189.600101 
L 196.612748 203.500838 
L 201.023464 208.329903 
L 205.43418 232.094946 
L 209.844897 244.923258 
L 214.255613 255.882478 
L 218.666329 263.83527 
L 223.077045 272.026551 
L 227.487762 278.314644 
L 231.898478 284.261885 
L 236.309194 288.986397 
L 240.71991 294.544306 
L 245.130627 240.155027 
L 249.541343 224.435334 
L 253.952059 246.634569 
L 258.362775 243.954218 
L 262.773492 267.761577 
L 267.184208 282.55141 
L 271.594924 280.794295 
L 276.00564 288.585661 
L 280.416357 279.781068 
L 284.827073 287.4786 
L 289.237789 292.643723 
L 293.648506 289.304121 
L 298.059222 258.054926 
L 302.469938 228.734192 
L 306.880654 242.582242 
L 311.291371 252.352258 
L 315.702087 271.85984 
L 320.112803 280.311741 
L 324.523519 287.101173 
L 328.934236 285.64921 
L 333.344952 287.778804 
L 337.755668 288.586161 
L 342.166384 291.970426 
L 346.577101 287.451255 
L 350.987817 272.04789 
L 355.398533 238.307861 
L 359.809249 251.931579 
L 364.219966 259.078085 
L 373.041398 276.893728 
L 377.452114 281.681662 
L 381.862831 282.618516 
L 386.273547 286.608522 
L 390.684263 286.227066 
L 395.094979 292.975934 
L 399.505696 263.163129 
L 403.916412 266.494301 
L 408.327128 269.151903 
L 412.737844 273.966426 
L 417.148561 289.8456 
L 421.559277 248.55963 
L 425.969993 266.000994 
L 430.380709 274.567893 
L 434.791426 281.553994 
L 439.202142 228.188242 
L 443.612858 233.729853 
L 448.023574 246.678462 
L 452.434291 246.71071 
L 456.845007 257.72989 
L 461.255723 265.659238 
L 465.666439 271.570659 
L 470.077156 275.22992 
L 474.487872 279.305316 
L 478.898588 287.241754 
L 483.309304 289.525754 
L 487.720021 287.687089 
L 492.130737 291.466872 
L 496.541453 238.697866 
L 500.952169 253.861792 
L 505.362886 269.590296 
L 509.773602 294.506481 
L 514.184318 291.297458 
L 518.595034 290.82754 
L 523.005751 292.743714 
L 527.416467 247.154113 
L 531.827183 260.721885 
L 536.237899 266.65381 
L 540.648616 252.394722 
L 545.059332 263.962288 
L 549.470048 266.021593 
L 553.880764 281.773635 
L 558.291481 294.035219 
L 562.702197 293.352475 
L 567.112913 294.776565 
L 571.523629 261.945528 
L 575.934346 264.655172 
L 580.345062 265.622294 
L 584.755778 273.494852 
L 589.166494 295.428274 
L 593.577211 296.191621 
L 597.987927 272.60173 
L 602.398643 274.382592 
L 606.80936 269.681309 
L 611.220076 279.937385 
L 615.630792 285.950496 
L 620.041508 279.337706 
L 624.452225 289.351715 
L 628.862941 285.939831 
L 633.273657 290.533871 
L 637.684373 290.55189 
L 642.09509 287.268987 
L 646.505806 294.146963 
L 650.916522 290.34994 
L 655.327238 282.907483 
L 659.737955 291.199953 
L 664.148671 297.588172 
L 668.559387 295.182958 
L 672.970103 283.296427 
L 677.38082 283.599089 
L 681.791536 277.568253 
L 686.202252 225.655917 
L 690.612968 218.301749 
L 695.023685 259.729458 
L 699.434401 272.241298 
L 703.845117 242.950617 
L 712.66655 293.11437 
L 717.077266 275.218198 
L 721.487982 292.264963 
L 725.898698 253.539196 
L 730.309415 266.740912 
L 734.720131 252.96924 
L 739.130847 248.923108 
L 743.541563 266.222558 
L 747.95228 263.496192 
L 752.362996 235.889268 
L 756.773712 181.921485 
L 761.184428 265.409925 
L 765.595145 267.433054 
L 770.005861 207.068867 
L 774.416577 244.035522 
L 778.827293 264.830049 
L 783.23801 253.755763 
L 787.648726 274.746643 
L 792.059442 281.54311 
L 796.470158 292.244401 
L 800.880875 282.667047 
L 805.291591 285.330512 
L 805.291591 285.330512 
" clip-path="url(#p25bcb79805)" style="fill: none; stroke: #2378a8; stroke-width: 1.2; stroke-linecap: square"/>
   </g>
   <g id="line2d_17">
    <path d="M 77.523409 98.111873 
L 81.934125 104.276703 
L 86.344842 118.822835 
L 90.755558 123.133323 
L 95.166274 142.125836 
L 99.57699 145.869722 
L 103.987707 165.064568 
L 108.398423 174.804299 
L 112.809139 196.741108 
L 117.219855 209.603711 
L 121.630572 225.069905 
L 126.041288 230.790576 
L 130.452004 243.026411 
L 134.86272 265.862284 
L 139.273437 209.793176 
L 143.684153 215.712155 
L 148.094869 226.997589 
L 161.327018 257.779429 
L 165.737734 266.270326 
L 170.14845 281.245396 
L 174.559167 290.611427 
L 178.969883 284.919497 
L 183.380599 282.315708 
L 187.791315 282.455846 
L 192.202032 181.840068 
L 196.612748 203.449277 
L 201.023464 214.232227 
L 205.43418 240.734567 
L 209.844897 258.659583 
L 214.255613 275.64652 
L 218.666329 278.986995 
L 223.077045 277.21758 
L 227.487762 276.63659 
L 231.898478 279.34185 
L 236.309194 288.674654 
L 240.71991 290.039981 
L 245.130627 241.40731 
L 249.541343 215.749619 
L 253.952059 243.789036 
L 258.362775 241.008418 
L 262.773492 263.527937 
L 271.594924 280.896833 
L 276.00564 285.923223 
L 280.416357 288.897303 
L 284.827073 281.335674 
L 289.237789 289.287038 
L 293.648506 286.299427 
L 298.059222 287.014469 
L 302.469938 222.121277 
L 306.880654 240.312393 
L 311.291371 255.055073 
L 315.702087 284.1688 
L 320.112803 283.822351 
L 324.523519 285.806563 
L 328.934236 282.453952 
L 333.344952 283.811471 
L 337.755668 284.932689 
L 342.166384 288.233312 
L 346.577101 282.555136 
L 350.987817 255.950797 
L 355.398533 235.540749 
L 359.809249 253.047293 
L 364.219966 265.200139 
L 368.630682 274.501595 
L 373.041398 285.462695 
L 377.452114 286.25076 
L 381.862831 282.231828 
L 386.273547 284.694805 
L 390.684263 281.118906 
L 395.094979 290.229752 
L 399.505696 268.018657 
L 403.916412 279.753617 
L 408.327128 286.128096 
L 412.737844 283.867446 
L 417.148561 285.905216 
L 421.559277 263.06248 
L 425.969993 280.108805 
L 430.380709 279.397337 
L 434.791426 279.213927 
L 439.202142 221.628187 
L 443.612858 229.641765 
L 448.023574 243.925797 
L 452.434291 247.34075 
L 456.845007 281.112084 
L 461.255723 292.456458 
L 465.666439 288.840469 
L 470.077156 288.542432 
L 474.487872 285.475994 
L 478.898588 281.156827 
L 483.309304 286.036041 
L 487.720021 283.297366 
L 492.130737 289.485312 
L 496.541453 236.220177 
L 500.952169 258.94472 
L 505.362886 273.377939 
L 509.773602 291.117571 
L 514.184318 287.388148 
L 518.595034 286.145596 
L 523.005751 289.214187 
L 527.416467 247.828033 
L 531.827183 268.088899 
L 536.237899 292.958251 
L 540.648616 256.431854 
L 545.059332 275.168128 
L 549.470048 288.785822 
L 553.880764 284.422951 
L 558.291481 291.501293 
L 562.702197 289.67044 
L 567.112913 291.400717 
L 571.523629 264.320892 
L 575.934346 286.622392 
L 580.345062 290.85446 
L 584.755778 285.484525 
L 589.166494 291.274822 
L 593.577211 292.29136 
L 597.987927 289.880323 
L 602.398643 291.323504 
L 606.80936 288.65811 
L 611.220076 283.754331 
L 615.630792 287.879108 
L 620.041508 285.348975 
L 624.452225 284.040666 
L 628.862941 286.377056 
L 633.273657 285.583383 
L 637.684373 286.621186 
L 642.09509 283.286829 
L 646.505806 290.87836 
L 650.916522 286.326957 
L 655.327238 273.792385 
L 659.737955 289.409742 
L 664.148671 293.688868 
L 672.970103 285.777902 
L 677.38082 281.772872 
L 681.791536 275.734396 
L 686.202252 209.029981 
L 690.612968 227.463665 
L 695.023685 272.907237 
L 699.434401 271.797704 
L 703.845117 254.178233 
L 708.255833 281.41199 
L 712.66655 289.117113 
L 717.077266 278.429384 
L 721.487982 287.910961 
L 725.898698 264.712172 
L 730.309415 267.857278 
L 734.720131 262.294148 
L 739.130847 258.073168 
L 743.541563 268.097054 
L 747.95228 269.74212 
L 752.362996 246.650372 
L 756.773712 173.440735 
L 761.184428 267.80626 
L 765.595145 269.442648 
L 770.005861 227.750866 
L 774.416577 249.071127 
L 778.827293 251.77143 
L 783.23801 254.78233 
L 787.648726 265.297678 
L 792.059442 275.16845 
L 796.470158 289.377827 
L 800.880875 277.081678 
L 805.291591 281.079574 
L 805.291591 281.079574 
" clip-path="url(#p25bcb79805)" style="fill: none; stroke: #e45756; stroke-width: 1.1; stroke-linecap: square"/>
   </g>
   <g id="patch_3">
    <path d="M 41.135 323.344 
L 41.135 27.6 
" style="fill: none; stroke: #000000; stroke-width: 0.8; stroke-linejoin: miter; stroke-linecap: square"/>
   </g>
   <g id="patch_4">
    <path d="M 841.68 323.344 
L 841.68 27.6 
" style="fill: none; stroke: #000000; stroke-width: 0.8; stroke-linejoin: miter; stroke-linecap: square"/>
   </g>
   <g id="patch_5">
    <path d="M 41.135 323.344 
L 841.68 323.344 
" style="fill: none; stroke: #000000; stroke-width: 0.8; stroke-linejoin: miter; stroke-linecap: square"/>
   </g>
   <g id="patch_6">
    <path d="M 41.135 27.6 
L 841.68 27.6 
" style="fill: none; stroke: #000000; stroke-width: 0.8; stroke-linejoin: miter; stroke-linecap: square"/>
   </g>
   <g id="text_18">
    <!-- primary score=0.391224, threshold=0.701079 -->
    <g transform="translate(49.14045 317.98656) scale(0.08 -0.08)">
     <defs>
      <path id="AppleSDGothicNeo-Regular-51" d="M 467 -678 
L 960 -678 
L 960 422 
C 1139 320 1408 211 1773 211 
C 2650 211 3206 698 3206 1856 
L 3206 1939 
C 3206 3117 2605 3501 1907 3501 
C 1498 3501 1165 3360 966 3181 
L 941 3181 
L 941 3437 
L 467 3437 
L 467 -678 
z
M 1728 614 
C 1395 614 1107 717 960 838 
L 960 2854 
C 1107 2957 1408 3085 1779 3085 
C 2362 3085 2694 2810 2694 1914 
L 2694 1786 
C 2694 934 2330 614 1728 614 
z
" transform="scale(0.015625)"/>
      <path id="AppleSDGothicNeo-Regular-53" d="M 467 269 
L 960 269 
L 960 2765 
C 1184 2925 1491 3040 1811 3040 
C 1862 3040 1958 3034 2042 3021 
L 2042 3462 
C 2010 3469 1920 3475 1850 3475 
C 1491 3475 1146 3290 966 3085 
L 934 3085 
L 934 3443 
L 467 3443 
L 467 269 
z
" transform="scale(0.015625)"/>
      <path id="AppleSDGothicNeo-Regular-5a" d="M 710 -685 
C 1235 -685 1498 -493 1709 70 
L 2957 3443 
L 2464 3443 
L 1606 1030 
L 1594 1030 
L 659 3443 
L 134 3443 
L 1350 384 
L 1254 122 
C 1120 -224 928 -275 621 -275 
C 506 -275 390 -243 314 -230 
L 314 -595 
C 403 -640 563 -685 710 -685 
z
" transform="scale(0.015625)"/>
      <path id="AppleSDGothicNeo-Regular-54" d="M 1274 218 
C 1971 218 2394 550 2394 1152 
C 2394 1702 2144 1907 1536 2067 
L 1216 2157 
C 877 2253 742 2368 742 2643 
C 742 2938 954 3085 1382 3085 
C 1734 3085 2054 3002 2221 2918 
L 2221 3315 
C 2054 3405 1779 3501 1357 3501 
C 627 3501 275 3136 275 2598 
C 275 2061 589 1850 1050 1722 
L 1363 1638 
C 1766 1523 1914 1395 1914 1101 
C 1914 813 1709 634 1203 634 
C 755 634 525 730 250 832 
L 250 442 
C 512 294 858 218 1274 218 
z
" transform="scale(0.015625)"/>
      <path id="AppleSDGothicNeo-Regular-44" d="M 1734 211 
C 2176 211 2458 339 2662 461 
L 2662 858 
C 2502 768 2221 634 1792 634 
C 1114 634 774 998 774 1811 
L 774 1965 
C 774 2694 1152 3085 1728 3085 
C 2144 3085 2349 3008 2630 2880 
L 2630 3290 
C 2419 3424 2170 3501 1754 3501 
C 934 3501 269 3014 269 1888 
L 269 1792 
C 269 749 826 211 1734 211 
z
" transform="scale(0.015625)"/>
      <path id="AppleSDGothicNeo-Regular-50" d="M 1702 211 
C 2560 211 3149 813 3149 1824 
L 3149 1914 
C 3149 2918 2605 3501 1709 3501 
C 851 3501 269 2899 269 1894 
L 269 1798 
C 269 787 806 211 1702 211 
z
M 1715 614 
C 1184 614 768 902 768 1786 
L 768 1946 
C 768 2688 1126 3098 1702 3098 
C 2221 3098 2650 2810 2650 1926 
L 2650 1766 
C 2650 1018 2291 614 1715 614 
z
" transform="scale(0.015625)"/>
      <path id="AppleSDGothicNeo-Regular-1e" d="M 422 2816 
L 2970 2816 
L 2970 3226 
L 422 3226 
L 422 2816 
z
M 422 1542 
L 2970 1542 
L 2970 1952 
L 422 1952 
L 422 1542 
z
" transform="scale(0.015625)"/>
      <path id="AppleSDGothicNeo-Regular-f" d="M 269 109 
L 826 109 
L 826 678 
L 269 678 
L 269 109 
z
" transform="scale(0.015625)"/>
      <path id="AppleSDGothicNeo-Regular-1a" d="M 1696 4634 
C 826 4634 307 3949 307 3142 
C 307 2323 896 1798 1619 1798 
C 2093 1798 2445 2010 2675 2272 
C 2630 1069 2227 621 1523 621 
C 1178 621 832 723 646 832 
L 506 461 
C 704 326 1107 192 1549 192 
C 2586 192 3187 979 3187 2477 
L 3187 2758 
C 3187 3974 2656 4634 1696 4634 
z
M 1702 4211 
C 2387 4211 2675 3686 2675 2886 
L 2675 2765 
C 2496 2515 2131 2227 1722 2227 
C 1203 2227 813 2515 813 3187 
C 813 3782 1146 4211 1702 4211 
z
" transform="scale(0.015625)"/>
      <path id="AppleSDGothicNeo-Regular-d" d="M 122 -563 
L 467 -563 
L 941 685 
L 358 685 
L 122 -563 
z
" transform="scale(0.015625)"/>
      <path id="AppleSDGothicNeo-Regular-49" d="M 467 269 
L 954 269 
L 954 2842 
C 1216 2970 1549 3078 1850 3078 
C 2355 3078 2490 2918 2490 2534 
L 2490 269 
L 2976 269 
L 2976 2630 
C 2976 3245 2675 3501 2054 3501 
C 1664 3501 1261 3366 986 3168 
L 954 3168 
L 954 4851 
L 467 4851 
L 467 269 
z
" transform="scale(0.015625)"/>
     </defs>
     <use xlink:href="#AppleSDGothicNeo-Regular-51"/>
     <use xlink:href="#AppleSDGothicNeo-Regular-53" transform="translate(54.5 0)"/>
     <use xlink:href="#AppleSDGothicNeo-Regular-4a" transform="translate(89.09375 0)"/>
     <use xlink:href="#AppleSDGothicNeo-Regular-4e" transform="translate(111.796875 0)"/>
     <use xlink:href="#AppleSDGothicNeo-Regular-42" transform="translate(192.09375 0)"/>
     <use xlink:href="#AppleSDGothicNeo-Regular-53" transform="translate(239.296875 0)"/>
     <use xlink:href="#AppleSDGothicNeo-Regular-5a" transform="translate(273.890625 0)"/>
     <use xlink:href="#AppleSDGothicNeo-Regular-1" transform="translate(322.09375 0)"/>
     <use xlink:href="#AppleSDGothicNeo-Regular-54" transform="translate(348.390625 0)"/>
     <use xlink:href="#AppleSDGothicNeo-Regular-44" transform="translate(389.890625 0)"/>
     <use xlink:href="#AppleSDGothicNeo-Regular-50" transform="translate(434.890625 0)"/>
     <use xlink:href="#AppleSDGothicNeo-Regular-53" transform="translate(488.296875 0)"/>
     <use xlink:href="#AppleSDGothicNeo-Regular-46" transform="translate(522.890625 0)"/>
     <use xlink:href="#AppleSDGothicNeo-Regular-1e" transform="translate(572.890625 0)"/>
     <use xlink:href="#AppleSDGothicNeo-Regular-11" transform="translate(625.1875 0)"/>
     <use xlink:href="#AppleSDGothicNeo-Regular-f" transform="translate(688.1875 0)"/>
     <use xlink:href="#AppleSDGothicNeo-Regular-14" transform="translate(710.78125 0)"/>
     <use xlink:href="#AppleSDGothicNeo-Regular-1a" transform="translate(763.375 0)"/>
     <use xlink:href="#AppleSDGothicNeo-Regular-12" transform="translate(817.78125 0)"/>
     <use xlink:href="#AppleSDGothicNeo-Regular-13" transform="translate(853.484375 0)"/>
     <use xlink:href="#AppleSDGothicNeo-Regular-13" transform="translate(906.78125 0)"/>
     <use xlink:href="#AppleSDGothicNeo-Regular-15" transform="translate(958.484375 0)"/>
     <use xlink:href="#AppleSDGothicNeo-Regular-d" transform="translate(1011.390625 0)"/>
     <use xlink:href="#AppleSDGothicNeo-Regular-1" transform="translate(1033.984375 0)"/>
     <use xlink:href="#AppleSDGothicNeo-Regular-55" transform="translate(1060.28125 0)"/>
     <use xlink:href="#AppleSDGothicNeo-Regular-49" transform="translate(1095.28125 0)"/>
     <use xlink:href="#AppleSDGothicNeo-Regular-53" transform="translate(1148.875 0)"/>
     <use xlink:href="#AppleSDGothicNeo-Regular-46" transform="translate(1183.46875 0)"/>
     <use xlink:href="#AppleSDGothicNeo-Regular-54" transform="translate(1233.46875 0)"/>
     <use xlink:href="#AppleSDGothicNeo-Regular-49" transform="translate(1274.96875 0)"/>
     <use xlink:href="#AppleSDGothicNeo-Regular-50" transform="translate(1328.5625 0)"/>
     <use xlink:href="#AppleSDGothicNeo-Regular-4d" transform="translate(1381.96875 0)"/>
     <use xlink:href="#AppleSDGothicNeo-Regular-45" transform="translate(1404.671875 0)"/>
     <use xlink:href="#AppleSDGothicNeo-Regular-1e" transform="translate(1459.171875 0)"/>
     <use xlink:href="#AppleSDGothicNeo-Regular-11" transform="translate(1511.46875 0)"/>
     <use xlink:href="#AppleSDGothicNeo-Regular-f" transform="translate(1574.46875 0)"/>
     <use xlink:href="#AppleSDGothicNeo-Regular-18" transform="translate(1597.0625 0)"/>
     <use xlink:href="#AppleSDGothicNeo-Regular-11" transform="translate(1644.96875 0)"/>
     <use xlink:href="#AppleSDGothicNeo-Regular-12" transform="translate(1706.96875 0)"/>
     <use xlink:href="#AppleSDGothicNeo-Regular-11" transform="translate(1742.671875 0)"/>
     <use xlink:href="#AppleSDGothicNeo-Regular-18" transform="translate(1802.46875 0)"/>
     <use xlink:href="#AppleSDGothicNeo-Regular-1a" transform="translate(1851.46875 0)"/>
    </g>
   </g>
   <g id="text_19">
    <!-- 17_최종_FN_2 | ChlorineConcentration_normal_1 | TEST index 980 | 알림 없음 -->
    <g transform="translate(252.398125 21.6) scale(0.12 -0.12)">
     <defs>
      <path id="AppleSDGothicNeo-Regular-40" d="M 51 -365 
L 2099 -365 
L 2099 -38 
L 51 -38 
L 51 -365 
z
" transform="scale(0.015625)"/>
      <path id="AppleSDGothicNeo-Regular-b6d" d="M 518 3578 
L 1837 3578 
L 1837 3565 
C 1837 2906 1152 2298 352 2093 
L 582 1702 
C 1261 1914 1939 2464 2086 2938 
C 2310 2451 3014 2003 3610 1862 
L 3814 2253 
C 3078 2387 2336 2938 2336 3558 
L 2336 3578 
L 3693 3578 
L 3693 3981 
L 518 3981 
L 518 3578 
z
M 4864 -448 
L 4864 5146 
L 4378 5146 
L 4378 -448 
L 4864 -448 
z
M 4058 762 
L 4019 1165 
C 3661 1114 2970 1069 2342 1043 
L 2342 2125 
L 1856 2125 
L 1856 1018 
C 1261 992 698 986 269 992 
L 352 563 
C 826 563 1453 582 2074 621 
C 2758 659 3616 717 4058 762 
z
M 1299 4512 
L 2854 4512 
L 2854 4947 
L 1299 4947 
L 1299 4512 
z
" transform="scale(0.015625)"/>
      <path id="AppleSDGothicNeo-Regular-a99" d="M 4730 531 
C 4730 1152 4019 1485 2765 1485 
C 1517 1485 813 1126 813 531 
C 813 -77 1517 -435 2765 -435 
C 4019 -435 4730 -83 4730 531 
z
M 5043 3277 
C 4262 3354 3232 3789 3053 4454 
L 4832 4454 
L 4832 4858 
L 704 4858 
L 704 4454 
L 2490 4454 
C 2323 3795 1370 3354 506 3270 
L 730 2867 
C 1715 3008 2547 3507 2765 4026 
C 3046 3514 3885 3021 4819 2867 
L 5043 3277 
z
M 2765 1094 
C 3674 1094 4237 890 4237 531 
C 4237 160 3674 -38 2765 -38 
C 1862 -38 1306 160 1306 531 
C 1306 890 1862 1094 2765 1094 
z
M 5293 1939 
L 5293 2349 
L 3008 2349 
L 3008 3194 
L 2522 3194 
L 2522 2349 
L 243 2349 
L 243 1939 
L 5293 1939 
z
" transform="scale(0.015625)"/>
      <path id="AppleSDGothicNeo-Regular-27" d="M 550 269 
L 1056 269 
L 1056 2195 
L 2586 2195 
L 2586 2630 
L 1056 2630 
L 1056 4134 
L 3040 4134 
L 3040 4563 
L 550 4563 
L 550 269 
z
" transform="scale(0.015625)"/>
      <path id="AppleSDGothicNeo-Regular-2f" d="M 550 269 
L 1024 269 
L 1024 3872 
L 1043 3872 
L 3174 269 
L 3699 269 
L 3699 4563 
L 3238 4563 
L 3238 1126 
L 3219 1126 
L 1152 4563 
L 550 4563 
L 550 269 
z
" transform="scale(0.015625)"/>
      <path id="AppleSDGothicNeo-Regular-5d" d="M 691 -384 
L 1114 -384 
L 1114 4941 
L 691 4941 
L 691 -384 
z
" transform="scale(0.015625)"/>
      <path id="AppleSDGothicNeo-Regular-24" d="M 2182 198 
C 2688 198 3078 314 3366 480 
L 3366 909 
C 3098 774 2778 627 2246 627 
C 1261 627 851 1267 851 2368 
L 851 2579 
C 851 3718 1427 4205 2240 4205 
C 2662 4205 2982 4109 3322 3974 
L 3322 4397 
C 3059 4538 2726 4634 2266 4634 
C 1171 4634 314 4032 314 2496 
L 314 2368 
C 314 915 1024 198 2182 198 
z
" transform="scale(0.015625)"/>
      <path id="AppleSDGothicNeo-Regular-35" d="M 1491 269 
L 1990 269 
L 1990 4134 
L 3302 4134 
L 3302 4563 
L 179 4563 
L 179 4134 
L 1491 4134 
L 1491 269 
z
" transform="scale(0.015625)"/>
      <path id="AppleSDGothicNeo-Regular-26" d="M 557 269 
L 3123 269 
L 3123 698 
L 1062 698 
L 1062 2266 
L 2637 2266 
L 2637 2694 
L 1062 2694 
L 1062 4134 
L 3104 4134 
L 3104 4563 
L 557 4563 
L 557 269 
z
" transform="scale(0.015625)"/>
      <path id="AppleSDGothicNeo-Regular-34" d="M 1472 192 
C 2477 192 2912 691 2912 1440 
C 2912 2163 2509 2432 1875 2650 
L 1453 2784 
C 966 2950 813 3130 813 3539 
C 813 3949 1107 4205 1632 4205 
C 2106 4205 2445 4083 2694 3968 
L 2694 4397 
C 2458 4512 2157 4634 1651 4634 
C 755 4634 314 4160 314 3494 
C 314 2842 653 2534 1254 2336 
L 1670 2189 
C 2189 2022 2400 1843 2400 1402 
C 2400 934 2112 627 1453 627 
C 998 627 576 742 250 909 
L 250 480 
C 538 320 947 192 1472 192 
z
" transform="scale(0.015625)"/>
      <path id="AppleSDGothicNeo-Regular-19" d="M 1837 186 
C 2765 186 3341 723 3341 1408 
C 3341 2054 2829 2362 2298 2534 
C 2739 2765 3168 3066 3168 3584 
C 3168 4250 2624 4640 1818 4640 
C 992 4640 461 4179 461 3558 
C 461 3008 838 2682 1299 2502 
C 826 2317 339 1926 339 1363 
C 339 659 922 186 1837 186 
z
M 1830 608 
C 1261 608 851 909 851 1382 
C 851 1856 1280 2163 1702 2310 
C 2445 2074 2797 1882 2797 1357 
C 2797 915 2381 608 1830 608 
z
M 1920 2720 
C 1350 2867 1005 3130 1005 3571 
C 1005 3981 1331 4218 1824 4218 
C 2355 4218 2637 3942 2637 3565 
C 2637 3155 2323 2899 1920 2720 
z
" transform="scale(0.015625)"/>
      <path id="AppleSDGothicNeo-Regular-98c" d="M 5395 3494 
L 5395 3904 
L 4544 3904 
L 4544 5146 
L 4058 5146 
L 4058 2285 
L 4544 2285 
L 4544 3494 
L 5395 3494 
z
M 4749 -403 
L 4749 6 
L 1478 6 
L 1478 627 
L 4544 627 
L 4544 1965 
L 992 1965 
L 992 1562 
L 4058 1562 
L 4058 998 
L 992 998 
L 992 -403 
L 4749 -403 
z
M 1766 4954 
C 966 4954 326 4429 326 3674 
C 326 2899 979 2406 1766 2406 
C 2560 2406 3206 2906 3206 3674 
C 3206 4435 2560 4954 1766 4954 
z
M 1766 4518 
C 2349 4518 2733 4173 2733 3674 
C 2733 3168 2349 2842 1766 2842 
C 1222 2842 800 3168 800 3674 
C 800 4179 1229 4518 1766 4518 
z
" transform="scale(0.015625)"/>
      <path id="AppleSDGothicNeo-Regular-73f" d="M 4819 -365 
L 4819 1504 
L 1088 1504 
L 1088 -365 
L 4819 -365 
z
M 4333 38 
L 1574 38 
L 1574 1101 
L 4333 1101 
L 4333 38 
z
M 4813 1805 
L 4813 5146 
L 4326 5146 
L 4326 1805 
L 4813 1805 
z
M 3565 2611 
C 2989 2490 1888 2464 1011 2464 
L 1011 3270 
L 3098 3270 
L 3098 4813 
L 499 4813 
L 499 4410 
L 2611 4410 
L 2611 3667 
L 525 3667 
L 525 2054 
L 1146 2054 
C 2138 2061 3046 2118 3622 2214 
L 3565 2611 
z
" transform="scale(0.015625)"/>
      <path id="AppleSDGothicNeo-Regular-9b9" d="M 4813 2138 
L 4813 5146 
L 4326 5146 
L 4326 3814 
L 3386 3814 
L 3386 3411 
L 4326 3411 
L 4326 2138 
L 4813 2138 
z
M 5363 -83 
C 4762 205 4378 781 4378 1389 
L 4378 1862 
L 3904 1862 
L 3904 1389 
C 3904 794 3578 179 2944 -109 
L 3213 -467 
C 3654 -230 4032 230 4134 602 
C 4256 224 4666 -205 5075 -442 
L 5363 -83 
z
M 2810 -371 
L 2810 1798 
L 2349 1798 
L 2349 1101 
L 1363 1101 
L 1363 1798 
L 902 1798 
L 902 -371 
L 2810 -371 
z
M 2349 13 
L 1363 13 
L 1363 730 
L 2349 730 
L 2349 13 
z
M 1728 4870 
C 941 4870 288 4346 288 3558 
C 288 2765 947 2266 1728 2266 
C 2515 2266 3162 2765 3162 3565 
C 3162 4358 2515 4870 1728 4870 
z
M 1728 4448 
C 2304 4448 2675 4083 2675 3558 
C 2675 3027 2298 2669 1728 2669 
C 1178 2669 774 3027 774 3565 
C 774 4090 1178 4448 1728 4448 
z
" transform="scale(0.015625)"/>
      <path id="AppleSDGothicNeo-Regular-a3a" d="M 5293 2035 
L 5293 2445 
L 243 2445 
L 243 2035 
L 5293 2035 
z
M 4678 -371 
L 4678 1453 
L 864 1453 
L 864 -371 
L 4678 -371 
z
M 4192 32 
L 1350 32 
L 1350 1056 
L 4192 1056 
L 4192 32 
z
M 4723 3949 
C 4723 4582 3994 4998 2765 4998 
C 1542 4998 819 4582 819 3949 
C 819 3315 1542 2899 2765 2899 
C 3994 2899 4723 3315 4723 3949 
z
M 4250 3949 
C 4250 3539 3661 3290 2765 3290 
C 1869 3290 1293 3539 1293 3949 
C 1293 4365 1869 4608 2765 4608 
C 3661 4608 4250 4365 4250 3949 
z
" transform="scale(0.015625)"/>
     </defs>
     <use xlink:href="#AppleSDGothicNeo-Regular-12"/>
     <use xlink:href="#AppleSDGothicNeo-Regular-18" transform="translate(35.703125 0)"/>
     <use xlink:href="#AppleSDGothicNeo-Regular-40" transform="translate(84.703125 0)"/>
     <use xlink:href="#AppleSDGothicNeo-Regular-b6d" transform="translate(118.296875 0)"/>
     <use xlink:href="#AppleSDGothicNeo-Regular-a99" transform="translate(204.796875 0)"/>
     <use xlink:href="#AppleSDGothicNeo-Regular-40" transform="translate(291.296875 0)"/>
     <use xlink:href="#AppleSDGothicNeo-Regular-27" transform="translate(324.890625 0)"/>
     <use xlink:href="#AppleSDGothicNeo-Regular-2f" transform="translate(376.484375 0)"/>
     <use xlink:href="#AppleSDGothicNeo-Regular-40" transform="translate(443.078125 0)"/>
     <use xlink:href="#AppleSDGothicNeo-Regular-13" transform="translate(476.671875 0)"/>
     <use xlink:href="#AppleSDGothicNeo-Regular-1" transform="translate(529.96875 0)"/>
     <use xlink:href="#AppleSDGothicNeo-Regular-5d" transform="translate(556.265625 0)"/>
     <use xlink:href="#AppleSDGothicNeo-Regular-1" transform="translate(584.46875 0)"/>
     <use xlink:href="#AppleSDGothicNeo-Regular-24" transform="translate(610.765625 0)"/>
     <use xlink:href="#AppleSDGothicNeo-Regular-49" transform="translate(667.765625 0)"/>
     <use xlink:href="#AppleSDGothicNeo-Regular-4d" transform="translate(721.359375 0)"/>
     <use xlink:href="#AppleSDGothicNeo-Regular-50" transform="translate(744.0625 0)"/>
     <use xlink:href="#AppleSDGothicNeo-Regular-53" transform="translate(797.46875 0)"/>
     <use xlink:href="#AppleSDGothicNeo-Regular-4a" transform="translate(832.0625 0)"/>
     <use xlink:href="#AppleSDGothicNeo-Regular-4f" transform="translate(854.765625 0)"/>
     <use xlink:href="#AppleSDGothicNeo-Regular-46" transform="translate(908.359375 0)"/>
     <use xlink:href="#AppleSDGothicNeo-Regular-24" transform="translate(958.359375 0)"/>
     <use xlink:href="#AppleSDGothicNeo-Regular-50" transform="translate(1015.359375 0)"/>
     <use xlink:href="#AppleSDGothicNeo-Regular-4f" transform="translate(1068.765625 0)"/>
     <use xlink:href="#AppleSDGothicNeo-Regular-44" transform="translate(1122.359375 0)"/>
     <use xlink:href="#AppleSDGothicNeo-Regular-46" transform="translate(1167.359375 0)"/>
     <use xlink:href="#AppleSDGothicNeo-Regular-4f" transform="translate(1217.359375 0)"/>
     <use xlink:href="#AppleSDGothicNeo-Regular-55" transform="translate(1270.953125 0)"/>
     <use xlink:href="#AppleSDGothicNeo-Regular-53" transform="translate(1305.953125 0)"/>
     <use xlink:href="#AppleSDGothicNeo-Regular-42" transform="translate(1339.453125 0)"/>
     <use xlink:href="#AppleSDGothicNeo-Regular-55" transform="translate(1386.65625 0)"/>
     <use xlink:href="#AppleSDGothicNeo-Regular-4a" transform="translate(1421.65625 0)"/>
     <use xlink:href="#AppleSDGothicNeo-Regular-50" transform="translate(1444.359375 0)"/>
     <use xlink:href="#AppleSDGothicNeo-Regular-4f" transform="translate(1497.765625 0)"/>
     <use xlink:href="#AppleSDGothicNeo-Regular-40" transform="translate(1551.359375 0)"/>
     <use xlink:href="#AppleSDGothicNeo-Regular-4f" transform="translate(1584.953125 0)"/>
     <use xlink:href="#AppleSDGothicNeo-Regular-50" transform="translate(1638.546875 0)"/>
     <use xlink:href="#AppleSDGothicNeo-Regular-53" transform="translate(1691.953125 0)"/>
     <use xlink:href="#AppleSDGothicNeo-Regular-4e" transform="translate(1726.546875 0)"/>
     <use xlink:href="#AppleSDGothicNeo-Regular-42" transform="translate(1806.84375 0)"/>
     <use xlink:href="#AppleSDGothicNeo-Regular-4d" transform="translate(1854.046875 0)"/>
     <use xlink:href="#AppleSDGothicNeo-Regular-40" transform="translate(1876.75 0)"/>
     <use xlink:href="#AppleSDGothicNeo-Regular-12" transform="translate(1910.34375 0)"/>
     <use xlink:href="#AppleSDGothicNeo-Regular-1" transform="translate(1946.046875 0)"/>
     <use xlink:href="#AppleSDGothicNeo-Regular-5d" transform="translate(1972.34375 0)"/>
     <use xlink:href="#AppleSDGothicNeo-Regular-1" transform="translate(2000.546875 0)"/>
     <use xlink:href="#AppleSDGothicNeo-Regular-35" transform="translate(2026.84375 0)"/>
     <use xlink:href="#AppleSDGothicNeo-Regular-26" transform="translate(2081.25 0)"/>
     <use xlink:href="#AppleSDGothicNeo-Regular-34" transform="translate(2136.25 0)"/>
     <use xlink:href="#AppleSDGothicNeo-Regular-35" transform="translate(2186.65625 0)"/>
     <use xlink:href="#AppleSDGothicNeo-Regular-1" transform="translate(2241.0625 0)"/>
     <use xlink:href="#AppleSDGothicNeo-Regular-4a" transform="translate(2267.359375 0)"/>
     <use xlink:href="#AppleSDGothicNeo-Regular-4f" transform="translate(2290.0625 0)"/>
     <use xlink:href="#AppleSDGothicNeo-Regular-45" transform="translate(2343.65625 0)"/>
     <use xlink:href="#AppleSDGothicNeo-Regular-46" transform="translate(2398.15625 0)"/>
     <use xlink:href="#AppleSDGothicNeo-Regular-59" transform="translate(2447.15625 0)"/>
     <use xlink:href="#AppleSDGothicNeo-Regular-1" transform="translate(2494.859375 0)"/>
     <use xlink:href="#AppleSDGothicNeo-Regular-1a" transform="translate(2521.15625 0)"/>
     <use xlink:href="#AppleSDGothicNeo-Regular-19" transform="translate(2576.5625 0)"/>
     <use xlink:href="#AppleSDGothicNeo-Regular-11" transform="translate(2634.0625 0)"/>
     <use xlink:href="#AppleSDGothicNeo-Regular-1" transform="translate(2697.0625 0)"/>
     <use xlink:href="#AppleSDGothicNeo-Regular-5d" transform="translate(2723.359375 0)"/>
     <use xlink:href="#AppleSDGothicNeo-Regular-1" transform="translate(2751.5625 0)"/>
     <use xlink:href="#AppleSDGothicNeo-Regular-98c" transform="translate(2777.859375 0)"/>
     <use xlink:href="#AppleSDGothicNeo-Regular-73f" transform="translate(2864.359375 0)"/>
     <use xlink:href="#AppleSDGothicNeo-Regular-1" transform="translate(2950.859375 0)"/>
     <use xlink:href="#AppleSDGothicNeo-Regular-9b9" transform="translate(2977.15625 0)"/>
     <use xlink:href="#AppleSDGothicNeo-Regular-a3a" transform="translate(3063.65625 0)"/>
    </g>
   </g>
   <g id="legend_1">
    <g id="patch_7">
     <path d="M 732.07875 74.8 
L 836.08 74.8 
Q 837.68 74.8 837.68 73.2 
L 837.68 33.2 
Q 837.68 31.6 836.08 31.6 
L 732.07875 31.6 
Q 730.47875 31.6 730.47875 33.2 
L 730.47875 73.2 
Q 730.47875 74.8 732.07875 74.8 
z
" style="fill: #ffffff; opacity: 0.8; stroke: #cccccc; stroke-linejoin: miter"/>
    </g>
    <g id="patch_8">
     <path d="M 733.67875 42 
L 749.67875 42 
L 749.67875 36.4 
L 733.67875 36.4 
z
" style="fill: #a7dff3; fill-opacity: 0.55; stroke: #a7dff3; stroke-opacity: 0.55; stroke-linejoin: miter"/>
    </g>
    <g id="text_20">
     <!-- TRAIN normal p05-p95 -->
     <g transform="translate(756.07875 42) scale(0.08 -0.08)">
      <defs>
       <path id="AppleSDGothicNeo-Regular-33" d="M 550 269 
L 1056 269 
L 1056 2112 
L 1875 2112 
L 2944 269 
L 3520 269 
L 2381 2202 
L 2381 2234 
C 2912 2400 3219 2746 3219 3360 
C 3219 4134 2746 4563 1798 4563 
L 550 4563 
L 550 269 
z
M 1056 2509 
L 1056 4134 
L 1760 4134 
C 2419 4134 2682 3885 2682 3354 
C 2682 2797 2438 2509 1766 2509 
L 1056 2509 
z
" transform="scale(0.015625)"/>
       <path id="AppleSDGothicNeo-Regular-22" d="M 122 269 
L 608 269 
L 1050 1523 
L 2771 1523 
L 3226 269 
L 3757 269 
L 2189 4563 
L 1696 4563 
L 122 269 
z
M 1901 3885 
L 1914 3885 
L 2611 1952 
L 1197 1952 
L 1901 3885 
z
" transform="scale(0.015625)"/>
       <path id="AppleSDGothicNeo-Regular-2a" d="M 576 269 
L 1082 269 
L 1082 4563 
L 576 4563 
L 576 269 
z
" transform="scale(0.015625)"/>
      </defs>
      <use xlink:href="#AppleSDGothicNeo-Regular-35"/>
      <use xlink:href="#AppleSDGothicNeo-Regular-33" transform="translate(54.40625 0)"/>
      <use xlink:href="#AppleSDGothicNeo-Regular-22" transform="translate(112.203125 0)"/>
      <use xlink:href="#AppleSDGothicNeo-Regular-2a" transform="translate(172.703125 0)"/>
      <use xlink:href="#AppleSDGothicNeo-Regular-2f" transform="translate(198.609375 0)"/>
      <use xlink:href="#AppleSDGothicNeo-Regular-1" transform="translate(265.203125 0)"/>
      <use xlink:href="#AppleSDGothicNeo-Regular-4f" transform="translate(291.5 0)"/>
      <use xlink:href="#AppleSDGothicNeo-Regular-50" transform="translate(345.09375 0)"/>
      <use xlink:href="#AppleSDGothicNeo-Regular-53" transform="translate(398.5 0)"/>
      <use xlink:href="#AppleSDGothicNeo-Regular-4e" transform="translate(433.09375 0)"/>
      <use xlink:href="#AppleSDGothicNeo-Regular-42" transform="translate(513.390625 0)"/>
      <use xlink:href="#AppleSDGothicNeo-Regular-4d" transform="translate(560.59375 0)"/>
      <use xlink:href="#AppleSDGothicNeo-Regular-1" transform="translate(583.296875 0)"/>
      <use xlink:href="#AppleSDGothicNeo-Regular-51" transform="translate(609.59375 0)"/>
      <use xlink:href="#AppleSDGothicNeo-Regular-11" transform="translate(664.09375 0)"/>
      <use xlink:href="#AppleSDGothicNeo-Regular-16" transform="translate(727.09375 0)"/>
      <use xlink:href="#AppleSDGothicNeo-Regular-e" transform="translate(777 0)"/>
      <use xlink:href="#AppleSDGothicNeo-Regular-51" transform="translate(820.203125 0)"/>
      <use xlink:href="#AppleSDGothicNeo-Regular-1a" transform="translate(874.703125 0)"/>
      <use xlink:href="#AppleSDGothicNeo-Regular-16" transform="translate(930.109375 0)"/>
     </g>
    </g>
    <g id="line2d_18">
     <path d="M 733.67875 52.8 
L 741.67875 52.8 
L 749.67875 52.8 
" style="fill: none; stroke: #2378a8; stroke-width: 1.2; stroke-linecap: square"/>
    </g>
    <g id="text_21">
     <!-- TRAIN normal median -->
     <g transform="translate(756.07875 55.6) scale(0.08 -0.08)">
      <use xlink:href="#AppleSDGothicNeo-Regular-35"/>
      <use xlink:href="#AppleSDGothicNeo-Regular-33" transform="translate(54.40625 0)"/>
      <use xlink:href="#AppleSDGothicNeo-Regular-22" transform="translate(112.203125 0)"/>
      <use xlink:href="#AppleSDGothicNeo-Regular-2a" transform="translate(172.703125 0)"/>
      <use xlink:href="#AppleSDGothicNeo-Regular-2f" transform="translate(198.609375 0)"/>
      <use xlink:href="#AppleSDGothicNeo-Regular-1" transform="translate(265.203125 0)"/>
      <use xlink:href="#AppleSDGothicNeo-Regular-4f" transform="translate(291.5 0)"/>
      <use xlink:href="#AppleSDGothicNeo-Regular-50" transform="translate(345.09375 0)"/>
      <use xlink:href="#AppleSDGothicNeo-Regular-53" transform="translate(398.5 0)"/>
      <use xlink:href="#AppleSDGothicNeo-Regular-4e" transform="translate(433.09375 0)"/>
      <use xlink:href="#AppleSDGothicNeo-Regular-42" transform="translate(513.390625 0)"/>
      <use xlink:href="#AppleSDGothicNeo-Regular-4d" transform="translate(560.59375 0)"/>
      <use xlink:href="#AppleSDGothicNeo-Regular-1" transform="translate(583.296875 0)"/>
      <use xlink:href="#AppleSDGothicNeo-Regular-4e" transform="translate(609.59375 0)"/>
      <use xlink:href="#AppleSDGothicNeo-Regular-46" transform="translate(689.890625 0)"/>
      <use xlink:href="#AppleSDGothicNeo-Regular-45" transform="translate(739.890625 0)"/>
      <use xlink:href="#AppleSDGothicNeo-Regular-4a" transform="translate(794.390625 0)"/>
      <use xlink:href="#AppleSDGothicNeo-Regular-42" transform="translate(817.09375 0)"/>
      <use xlink:href="#AppleSDGothicNeo-Regular-4f" transform="translate(864.296875 0)"/>
     </g>
    </g>
    <g id="line2d_19">
     <path d="M 733.67875 66.4 
L 741.67875 66.4 
L 749.67875 66.4 
" style="fill: none; stroke: #e45756; stroke-width: 1.1; stroke-linecap: square"/>
    </g>
    <g id="text_22">
     <!-- selected TEST series -->
     <g transform="translate(756.07875 69.2) scale(0.08 -0.08)">
      <use xlink:href="#AppleSDGothicNeo-Regular-54"/>
      <use xlink:href="#AppleSDGothicNeo-Regular-46" transform="translate(41.5 0)"/>
      <use xlink:href="#AppleSDGothicNeo-Regular-4d" transform="translate(91.5 0)"/>
      <use xlink:href="#AppleSDGothicNeo-Regular-46" transform="translate(114.203125 0)"/>
      <use xlink:href="#AppleSDGothicNeo-Regular-44" transform="translate(164.203125 0)"/>
      <use xlink:href="#AppleSDGothicNeo-Regular-55" transform="translate(210.109375 0)"/>
      <use xlink:href="#AppleSDGothicNeo-Regular-46" transform="translate(245.109375 0)"/>
      <use xlink:href="#AppleSDGothicNeo-Regular-45" transform="translate(295.109375 0)"/>
      <use xlink:href="#AppleSDGothicNeo-Regular-1" transform="translate(349.609375 0)"/>
      <use xlink:href="#AppleSDGothicNeo-Regular-35" transform="translate(375.90625 0)"/>
      <use xlink:href="#AppleSDGothicNeo-Regular-26" transform="translate(430.3125 0)"/>
      <use xlink:href="#AppleSDGothicNeo-Regular-34" transform="translate(485.3125 0)"/>
      <use xlink:href="#AppleSDGothicNeo-Regular-35" transform="translate(535.71875 0)"/>
      <use xlink:href="#AppleSDGothicNeo-Regular-1" transform="translate(590.125 0)"/>
      <use xlink:href="#AppleSDGothicNeo-Regular-54" transform="translate(616.421875 0)"/>
      <use xlink:href="#AppleSDGothicNeo-Regular-46" transform="translate(657.921875 0)"/>
      <use xlink:href="#AppleSDGothicNeo-Regular-53" transform="translate(707.921875 0)"/>
      <use xlink:href="#AppleSDGothicNeo-Regular-4a" transform="translate(742.515625 0)"/>
      <use xlink:href="#AppleSDGothicNeo-Regular-46" transform="translate(765.21875 0)"/>
      <use xlink:href="#AppleSDGothicNeo-Regular-54" transform="translate(815.21875 0)"/>
     </g>
    </g>
   </g>
  </g>
  <g id="axes_2">
   <g id="patch_9">
    <path d="M 41.135 443.08 
L 841.68 443.08 
L 841.68 369.144 
L 41.135 369.144 
z
" style="fill: #ffffff"/>
   </g>
   <g id="PathCollection_1">
    <defs>
     <path id="m7e815c0549" d="M -3 3 
L 3 -3 
M -3 -3 
L 3 3 
" style="stroke: #e45756; stroke-width: 1.5"/>
    </defs>
    <g clip-path="url(#p205bb35c14)">
     <use xlink:href="#m7e815c0549" x="825.685095" y="416.984941" style="fill: #e45756; stroke: #e45756; stroke-width: 1.5"/>
     <use xlink:href="#m7e815c0549" x="826.48484" y="416.984941" style="fill: #e45756; stroke: #e45756; stroke-width: 1.5"/>
     <use xlink:href="#m7e815c0549" x="827.284585" y="416.984941" style="fill: #e45756; stroke: #e45756; stroke-width: 1.5"/>
     <use xlink:href="#m7e815c0549" x="828.084331" y="416.984941" style="fill: #e45756; stroke: #e45756; stroke-width: 1.5"/>
     <use xlink:href="#m7e815c0549" x="828.884076" y="416.984941" style="fill: #e45756; stroke: #e45756; stroke-width: 1.5"/>
     <use xlink:href="#m7e815c0549" x="829.683821" y="416.984941" style="fill: #e45756; stroke: #e45756; stroke-width: 1.5"/>
     <use xlink:href="#m7e815c0549" x="830.483566" y="416.984941" style="fill: #e45756; stroke: #e45756; stroke-width: 1.5"/>
     <use xlink:href="#m7e815c0549" x="831.283312" y="416.984941" style="fill: #e45756; stroke: #e45756; stroke-width: 1.5"/>
     <use xlink:href="#m7e815c0549" x="832.083057" y="416.984941" style="fill: #e45756; stroke: #e45756; stroke-width: 1.5"/>
     <use xlink:href="#m7e815c0549" x="832.882802" y="416.984941" style="fill: #e45756; stroke: #e45756; stroke-width: 1.5"/>
     <use xlink:href="#m7e815c0549" x="833.682547" y="416.984941" style="fill: #e45756; stroke: #e45756; stroke-width: 1.5"/>
     <use xlink:href="#m7e815c0549" x="834.482293" y="416.984941" style="fill: #e45756; stroke: #e45756; stroke-width: 1.5"/>
     <use xlink:href="#m7e815c0549" x="835.282038" y="416.984941" style="fill: #e45756; stroke: #e45756; stroke-width: 1.5"/>
     <use xlink:href="#m7e815c0549" x="836.081783" y="416.984941" style="fill: #e45756; stroke: #e45756; stroke-width: 1.5"/>
     <use xlink:href="#m7e815c0549" x="836.881528" y="416.984941" style="fill: #e45756; stroke: #e45756; stroke-width: 1.5"/>
     <use xlink:href="#m7e815c0549" x="837.681274" y="416.984941" style="fill: #e45756; stroke: #e45756; stroke-width: 1.5"/>
     <use xlink:href="#m7e815c0549" x="838.481019" y="416.984941" style="fill: #e45756; stroke: #e45756; stroke-width: 1.5"/>
     <use xlink:href="#m7e815c0549" x="839.280764" y="416.984941" style="fill: #e45756; stroke: #e45756; stroke-width: 1.5"/>
     <use xlink:href="#m7e815c0549" x="840.080509" y="416.984941" style="fill: #e45756; stroke: #e45756; stroke-width: 1.5"/>
     <use xlink:href="#m7e815c0549" x="840.880255" y="416.984941" style="fill: #e45756; stroke: #e45756; stroke-width: 1.5"/>
    </g>
   </g>
   <g id="PathCollection_2">
    <defs>
     <path id="mc97abd1cba" d="M 0 3 
C 0.795609 3 1.55874 2.683901 2.12132 2.12132 
C 2.683901 1.55874 3 0.795609 3 0 
C 3 -0.795609 2.683901 -1.55874 2.12132 -2.12132 
C 1.55874 -2.683901 0.795609 -3 0 -3 
C -0.795609 -3 -1.55874 -2.683901 -2.12132 -2.12132 
C -2.683901 -1.55874 -3 -0.795609 -3 0 
C -3 0.795609 -2.683901 1.55874 -2.12132 2.12132 
C -1.55874 2.683901 -0.795609 3 0 3 
z
" style="stroke: #111111"/>
    </defs>
    <g clip-path="url(#p205bb35c14)">
     <use xlink:href="#mc97abd1cba" x="825.685095" y="395.239059" style="fill: #111111; stroke: #111111"/>
    </g>
   </g>
   <g id="matplotlib.axis_3">
    <g id="xtick_8">
     <g id="line2d_20">
      <g>
       <use xlink:href="#m745677b0ed" x="41.934745" y="443.08" style="stroke: #000000; stroke-width: 0.8"/>
      </g>
     </g>
     <g id="text_23">
      <!-- 0 -->
      <g transform="translate(38.784745 459.08) scale(0.1 -0.1)">
       <use xlink:href="#AppleSDGothicNeo-Regular-11"/>
      </g>
     </g>
    </g>
    <g id="xtick_9">
     <g id="line2d_21">
      <g>
       <use xlink:href="#m745677b0ed" x="201.883796" y="443.08" style="stroke: #000000; stroke-width: 0.8"/>
      </g>
     </g>
     <g id="text_24">
      <!-- 200 -->
      <g transform="translate(192.943952 459.08) scale(0.1 -0.1)">
       <use xlink:href="#AppleSDGothicNeo-Regular-13"/>
       <use xlink:href="#AppleSDGothicNeo-Regular-11" transform="translate(52.796875 0)"/>
       <use xlink:href="#AppleSDGothicNeo-Regular-11" transform="translate(115.796875 0)"/>
      </g>
     </g>
    </g>
    <g id="xtick_10">
     <g id="line2d_22">
      <g>
       <use xlink:href="#m745677b0ed" x="361.832847" y="443.08" style="stroke: #000000; stroke-width: 0.8"/>
      </g>
     </g>
     <g id="text_25">
      <!-- 400 -->
      <g transform="translate(352.757847 459.08) scale(0.1 -0.1)">
       <use xlink:href="#AppleSDGothicNeo-Regular-15"/>
       <use xlink:href="#AppleSDGothicNeo-Regular-11" transform="translate(55.5 0)"/>
       <use xlink:href="#AppleSDGothicNeo-Regular-11" transform="translate(118.5 0)"/>
      </g>
     </g>
    </g>
    <g id="xtick_11">
     <g id="line2d_23">
      <g>
       <use xlink:href="#m745677b0ed" x="521.781898" y="443.08" style="stroke: #000000; stroke-width: 0.8"/>
      </g>
     </g>
     <g id="text_26">
      <!-- 600 -->
      <g transform="translate(512.736586 459.08) scale(0.1 -0.1)">
       <use xlink:href="#AppleSDGothicNeo-Regular-17"/>
       <use xlink:href="#AppleSDGothicNeo-Regular-11" transform="translate(54.90625 0)"/>
       <use xlink:href="#AppleSDGothicNeo-Regular-11" transform="translate(117.90625 0)"/>
      </g>
     </g>
    </g>
    <g id="xtick_12">
     <g id="line2d_24">
      <g>
       <use xlink:href="#m745677b0ed" x="681.730949" y="443.08" style="stroke: #000000; stroke-width: 0.8"/>
      </g>
     </g>
     <g id="text_27">
      <!-- 800 -->
      <g transform="translate(672.555949 459.08) scale(0.1 -0.1)">
       <use xlink:href="#AppleSDGothicNeo-Regular-19"/>
       <use xlink:href="#AppleSDGothicNeo-Regular-11" transform="translate(57.5 0)"/>
       <use xlink:href="#AppleSDGothicNeo-Regular-11" transform="translate(120.5 0)"/>
      </g>
     </g>
    </g>
    <g id="xtick_13">
     <g id="line2d_25">
      <g>
       <use xlink:href="#m745677b0ed" x="841.68" y="443.08" style="stroke: #000000; stroke-width: 0.8"/>
      </g>
     </g>
     <g id="text_28">
      <!-- 1000 -->
      <g transform="translate(830.444844 459.08) scale(0.1 -0.1)">
       <use xlink:href="#AppleSDGothicNeo-Regular-12"/>
       <use xlink:href="#AppleSDGothicNeo-Regular-11" transform="translate(35.703125 0)"/>
       <use xlink:href="#AppleSDGothicNeo-Regular-11" transform="translate(98.703125 0)"/>
       <use xlink:href="#AppleSDGothicNeo-Regular-11" transform="translate(161.703125 0)"/>
      </g>
     </g>
    </g>
    <g id="text_29">
     <!-- TEST sample index -->
     <g transform="translate(401.881719 475.08) scale(0.1 -0.1)">
      <use xlink:href="#AppleSDGothicNeo-Regular-35"/>
      <use xlink:href="#AppleSDGothicNeo-Regular-26" transform="translate(54.40625 0)"/>
      <use xlink:href="#AppleSDGothicNeo-Regular-34" transform="translate(109.40625 0)"/>
      <use xlink:href="#AppleSDGothicNeo-Regular-35" transform="translate(159.8125 0)"/>
      <use xlink:href="#AppleSDGothicNeo-Regular-1" transform="translate(214.21875 0)"/>
      <use xlink:href="#AppleSDGothicNeo-Regular-54" transform="translate(240.515625 0)"/>
      <use xlink:href="#AppleSDGothicNeo-Regular-42" transform="translate(282.015625 0)"/>
      <use xlink:href="#AppleSDGothicNeo-Regular-4e" transform="translate(329.21875 0)"/>
      <use xlink:href="#AppleSDGothicNeo-Regular-51" transform="translate(409.515625 0)"/>
      <use xlink:href="#AppleSDGothicNeo-Regular-4d" transform="translate(464.015625 0)"/>
      <use xlink:href="#AppleSDGothicNeo-Regular-46" transform="translate(486.71875 0)"/>
      <use xlink:href="#AppleSDGothicNeo-Regular-1" transform="translate(536.71875 0)"/>
      <use xlink:href="#AppleSDGothicNeo-Regular-4a" transform="translate(563.015625 0)"/>
      <use xlink:href="#AppleSDGothicNeo-Regular-4f" transform="translate(585.71875 0)"/>
      <use xlink:href="#AppleSDGothicNeo-Regular-45" transform="translate(639.3125 0)"/>
      <use xlink:href="#AppleSDGothicNeo-Regular-46" transform="translate(693.8125 0)"/>
      <use xlink:href="#AppleSDGothicNeo-Regular-59" transform="translate(742.8125 0)"/>
     </g>
    </g>
   </g>
   <g id="matplotlib.axis_4"/>
   <g id="patch_10">
    <path d="M 41.135 443.08 
L 41.135 369.144 
" style="fill: none; stroke: #000000; stroke-width: 0.8; stroke-linejoin: miter; stroke-linecap: square"/>
   </g>
   <g id="patch_11">
    <path d="M 841.68 443.08 
L 841.68 369.144 
" style="fill: none; stroke: #000000; stroke-width: 0.8; stroke-linejoin: miter; stroke-linecap: square"/>
   </g>
   <g id="patch_12">
    <path d="M 41.135 443.08 
L 841.68 443.08 
" style="fill: none; stroke: #000000; stroke-width: 0.8; stroke-linejoin: miter; stroke-linecap: square"/>
   </g>
   <g id="patch_13">
    <path d="M 41.135 369.144 
L 841.68 369.144 
" style="fill: none; stroke: #000000; stroke-width: 0.8; stroke-linejoin: miter; stroke-linecap: square"/>
   </g>
   <g id="legend_2">
    <g id="patch_14">
     <path d="M 722.70875 402.744 
L 836.08 402.744 
Q 837.68 402.744 837.68 401.144 
L 837.68 374.744 
Q 837.68 373.144 836.08 373.144 
L 722.70875 373.144 
Q 721.10875 373.144 721.10875 374.744 
L 721.10875 401.144 
Q 721.10875 402.744 722.70875 402.744 
z
" style="fill: #ffffff; opacity: 0.8; stroke: #cccccc; stroke-linejoin: miter"/>
    </g>
    <g id="PathCollection_3">
     <g>
      <use xlink:href="#m7e815c0549" x="732.30875" y="381.444" style="fill: #e45756; stroke: #e45756; stroke-width: 1.5"/>
     </g>
    </g>
    <g id="text_30">
     <!-- actual anomaly (post-hoc) -->
     <g transform="translate(746.70875 383.544) scale(0.08 -0.08)">
      <defs>
       <path id="AppleSDGothicNeo-Regular-9" d="M 1472 -384 
L 1914 -384 
C 1344 256 883 1235 883 2221 
L 883 2374 
C 883 3392 1344 4307 1914 4941 
L 1472 4941 
C 883 4339 365 3469 365 2330 
L 365 2227 
C 365 1094 883 218 1472 -384 
z
" transform="scale(0.015625)"/>
       <path id="AppleSDGothicNeo-Regular-a" d="M 115 -384 
L 550 -384 
C 1146 218 1651 1088 1651 2227 
L 1651 2330 
C 1651 3462 1146 4339 550 4941 
L 115 4941 
C 678 4301 1146 3322 1146 2336 
L 1146 2176 
C 1146 1165 678 250 115 -384 
z
" transform="scale(0.015625)"/>
      </defs>
      <use xlink:href="#AppleSDGothicNeo-Regular-42"/>
      <use xlink:href="#AppleSDGothicNeo-Regular-44" transform="translate(47.203125 0)"/>
      <use xlink:href="#AppleSDGothicNeo-Regular-55" transform="translate(93.109375 0)"/>
      <use xlink:href="#AppleSDGothicNeo-Regular-56" transform="translate(128.109375 0)"/>
      <use xlink:href="#AppleSDGothicNeo-Regular-42" transform="translate(181.109375 0)"/>
      <use xlink:href="#AppleSDGothicNeo-Regular-4d" transform="translate(228.3125 0)"/>
      <use xlink:href="#AppleSDGothicNeo-Regular-1" transform="translate(251.015625 0)"/>
      <use xlink:href="#AppleSDGothicNeo-Regular-42" transform="translate(277.3125 0)"/>
      <use xlink:href="#AppleSDGothicNeo-Regular-4f" transform="translate(324.515625 0)"/>
      <use xlink:href="#AppleSDGothicNeo-Regular-50" transform="translate(378.109375 0)"/>
      <use xlink:href="#AppleSDGothicNeo-Regular-4e" transform="translate(431.515625 0)"/>
      <use xlink:href="#AppleSDGothicNeo-Regular-42" transform="translate(511.8125 0)"/>
      <use xlink:href="#AppleSDGothicNeo-Regular-4d" transform="translate(559.015625 0)"/>
      <use xlink:href="#AppleSDGothicNeo-Regular-5a" transform="translate(581.71875 0)"/>
      <use xlink:href="#AppleSDGothicNeo-Regular-1" transform="translate(629.921875 0)"/>
      <use xlink:href="#AppleSDGothicNeo-Regular-9" transform="translate(656.21875 0)"/>
      <use xlink:href="#AppleSDGothicNeo-Regular-51" transform="translate(687.921875 0)"/>
      <use xlink:href="#AppleSDGothicNeo-Regular-50" transform="translate(742.421875 0)"/>
      <use xlink:href="#AppleSDGothicNeo-Regular-54" transform="translate(795.828125 0)"/>
      <use xlink:href="#AppleSDGothicNeo-Regular-55" transform="translate(837.328125 0)"/>
      <use xlink:href="#AppleSDGothicNeo-Regular-e" transform="translate(870.234375 0)"/>
      <use xlink:href="#AppleSDGothicNeo-Regular-49" transform="translate(913.4375 0)"/>
      <use xlink:href="#AppleSDGothicNeo-Regular-50" transform="translate(967.03125 0)"/>
      <use xlink:href="#AppleSDGothicNeo-Regular-44" transform="translate(1020.4375 0)"/>
      <use xlink:href="#AppleSDGothicNeo-Regular-a" transform="translate(1065.4375 0)"/>
     </g>
    </g>
    <g id="PathCollection_4">
     <g>
      <use xlink:href="#mc97abd1cba" x="732.30875" y="395.044" style="fill: #111111; stroke: #111111"/>
     </g>
    </g>
    <g id="text_31">
     <!-- selected case -->
     <g transform="translate(746.70875 397.144) scale(0.08 -0.08)">
      <use xlink:href="#AppleSDGothicNeo-Regular-54"/>
      <use xlink:href="#AppleSDGothicNeo-Regular-46" transform="translate(41.5 0)"/>
      <use xlink:href="#AppleSDGothicNeo-Regular-4d" transform="translate(91.5 0)"/>
      <use xlink:href="#AppleSDGothicNeo-Regular-46" transform="translate(114.203125 0)"/>
      <use xlink:href="#AppleSDGothicNeo-Regular-44" transform="translate(164.203125 0)"/>
      <use xlink:href="#AppleSDGothicNeo-Regular-55" transform="translate(210.109375 0)"/>
      <use xlink:href="#AppleSDGothicNeo-Regular-46" transform="translate(245.109375 0)"/>
      <use xlink:href="#AppleSDGothicNeo-Regular-45" transform="translate(295.109375 0)"/>
      <use xlink:href="#AppleSDGothicNeo-Regular-1" transform="translate(349.609375 0)"/>
      <use xlink:href="#AppleSDGothicNeo-Regular-44" transform="translate(375.90625 0)"/>
      <use xlink:href="#AppleSDGothicNeo-Regular-42" transform="translate(420.90625 0)"/>
      <use xlink:href="#AppleSDGothicNeo-Regular-54" transform="translate(468.109375 0)"/>
      <use xlink:href="#AppleSDGothicNeo-Regular-46" transform="translate(509.609375 0)"/>
     </g>
    </g>
   </g>
  </g>
  <g id="text_32">
   <!-- Actual anomaly labels are shown only for post-hoc evaluation and explanation; they were not used for candidate selection or routing. -->
   <g transform="translate(8.64 501.48) scale(0.08 -0.08)">
    <defs>
     <path id="AppleSDGothicNeo-Regular-43" d="M 1626 198 
C 2650 198 3206 800 3206 1862 
L 3206 1946 
C 3206 3136 2579 3501 1971 3501 
C 1536 3501 1235 3379 992 3232 
L 960 3232 
L 960 4851 
L 467 4851 
L 467 371 
C 749 262 1254 198 1626 198 
z
M 1651 608 
C 1331 608 1107 659 960 723 
L 960 2880 
C 1126 2957 1421 3085 1747 3085 
C 2387 3085 2694 2797 2694 1914 
L 2694 1786 
C 2694 877 2221 608 1651 608 
z
" transform="scale(0.015625)"/>
     <path id="AppleSDGothicNeo-Regular-58" d="M 1082 269 
L 1581 269 
L 2330 2688 
L 2349 2688 
L 3085 269 
L 3578 269 
L 4480 3443 
L 4013 3443 
L 3360 902 
L 3334 902 
L 2566 3443 
L 2144 3443 
L 1382 902 
L 1357 902 
L 704 3443 
L 179 3443 
L 1082 269 
z
" transform="scale(0.015625)"/>
     <path id="AppleSDGothicNeo-Regular-47" d="M 653 269 
L 1146 269 
L 1146 3034 
L 1875 3034 
L 1875 3437 
L 1146 3437 
L 1146 3866 
C 1146 4307 1357 4486 1734 4486 
C 1952 4486 2086 4461 2182 4442 
L 2182 4787 
C 2067 4845 1894 4896 1645 4896 
C 1069 4896 653 4595 653 3898 
L 653 3437 
L 186 3437 
L 186 3034 
L 653 3034 
L 653 269 
z
" transform="scale(0.015625)"/>
     <path id="AppleSDGothicNeo-Regular-1c" d="M 416 -122 
L 774 -122 
L 1222 1094 
L 646 1094 
L 416 -122 
z
M 646 3021 
L 1203 3021 
L 1203 3590 
L 646 3590 
L 646 3021 
z
" transform="scale(0.015625)"/>
     <path id="AppleSDGothicNeo-Regular-48" d="M 1574 -672 
C 2656 -672 3091 -243 3091 301 
C 3091 890 2662 1062 2086 1062 
L 1210 1062 
C 998 1062 896 1126 896 1299 
C 896 1402 960 1478 1043 1555 
C 1210 1498 1389 1466 1587 1466 
C 2253 1466 2778 1805 2778 2483 
L 2778 2490 
C 2778 2739 2694 2931 2547 3072 
L 3117 3072 
L 3117 3450 
L 2042 3450 
C 1901 3482 1754 3501 1594 3501 
C 896 3501 397 3136 397 2477 
L 397 2464 
C 397 2086 550 1830 794 1670 
C 550 1491 435 1344 435 1146 
C 435 934 576 800 755 749 
L 755 717 
C 429 608 154 410 154 70 
C 154 -390 608 -672 1574 -672 
z
M 1562 -288 
C 934 -288 666 -147 666 134 
C 666 403 851 544 1094 627 
L 2010 627 
C 2426 627 2579 531 2579 237 
C 2579 -96 2310 -288 1562 -288 
z
M 1587 1850 
C 1165 1850 883 2054 883 2470 
L 883 2502 
C 883 2899 1152 3130 1587 3130 
C 2016 3130 2285 2931 2285 2496 
L 2285 2464 
C 2285 2054 2029 1850 1587 1850 
z
" transform="scale(0.015625)"/>
    </defs>
    <use xlink:href="#AppleSDGothicNeo-Regular-22"/>
    <use xlink:href="#AppleSDGothicNeo-Regular-44" transform="translate(60.5 0)"/>
    <use xlink:href="#AppleSDGothicNeo-Regular-55" transform="translate(106.40625 0)"/>
    <use xlink:href="#AppleSDGothicNeo-Regular-56" transform="translate(141.40625 0)"/>
    <use xlink:href="#AppleSDGothicNeo-Regular-42" transform="translate(194.40625 0)"/>
    <use xlink:href="#AppleSDGothicNeo-Regular-4d" transform="translate(241.609375 0)"/>
    <use xlink:href="#AppleSDGothicNeo-Regular-1" transform="translate(264.3125 0)"/>
    <use xlink:href="#AppleSDGothicNeo-Regular-42" transform="translate(290.609375 0)"/>
    <use xlink:href="#AppleSDGothicNeo-Regular-4f" transform="translate(337.8125 0)"/>
    <use xlink:href="#AppleSDGothicNeo-Regular-50" transform="translate(391.40625 0)"/>
    <use xlink:href="#AppleSDGothicNeo-Regular-4e" transform="translate(444.8125 0)"/>
    <use xlink:href="#AppleSDGothicNeo-Regular-42" transform="translate(525.109375 0)"/>
    <use xlink:href="#AppleSDGothicNeo-Regular-4d" transform="translate(572.3125 0)"/>
    <use xlink:href="#AppleSDGothicNeo-Regular-5a" transform="translate(595.015625 0)"/>
    <use xlink:href="#AppleSDGothicNeo-Regular-1" transform="translate(643.21875 0)"/>
    <use xlink:href="#AppleSDGothicNeo-Regular-4d" transform="translate(669.515625 0)"/>
    <use xlink:href="#AppleSDGothicNeo-Regular-42" transform="translate(692.21875 0)"/>
    <use xlink:href="#AppleSDGothicNeo-Regular-43" transform="translate(739.421875 0)"/>
    <use xlink:href="#AppleSDGothicNeo-Regular-46" transform="translate(793.921875 0)"/>
    <use xlink:href="#AppleSDGothicNeo-Regular-4d" transform="translate(843.921875 0)"/>
    <use xlink:href="#AppleSDGothicNeo-Regular-54" transform="translate(866.625 0)"/>
    <use xlink:href="#AppleSDGothicNeo-Regular-1" transform="translate(908.125 0)"/>
    <use xlink:href="#AppleSDGothicNeo-Regular-42" transform="translate(934.421875 0)"/>
    <use xlink:href="#AppleSDGothicNeo-Regular-53" transform="translate(981.625 0)"/>
    <use xlink:href="#AppleSDGothicNeo-Regular-46" transform="translate(1016.21875 0)"/>
    <use xlink:href="#AppleSDGothicNeo-Regular-1" transform="translate(1066.21875 0)"/>
    <use xlink:href="#AppleSDGothicNeo-Regular-54" transform="translate(1092.515625 0)"/>
    <use xlink:href="#AppleSDGothicNeo-Regular-49" transform="translate(1134.015625 0)"/>
    <use xlink:href="#AppleSDGothicNeo-Regular-50" transform="translate(1187.609375 0)"/>
    <use xlink:href="#AppleSDGothicNeo-Regular-58" transform="translate(1241.015625 0)"/>
    <use xlink:href="#AppleSDGothicNeo-Regular-4f" transform="translate(1313.8125 0)"/>
    <use xlink:href="#AppleSDGothicNeo-Regular-1" transform="translate(1367.40625 0)"/>
    <use xlink:href="#AppleSDGothicNeo-Regular-50" transform="translate(1393.703125 0)"/>
    <use xlink:href="#AppleSDGothicNeo-Regular-4f" transform="translate(1447.109375 0)"/>
    <use xlink:href="#AppleSDGothicNeo-Regular-4d" transform="translate(1500.703125 0)"/>
    <use xlink:href="#AppleSDGothicNeo-Regular-5a" transform="translate(1523.40625 0)"/>
    <use xlink:href="#AppleSDGothicNeo-Regular-1" transform="translate(1571.609375 0)"/>
    <use xlink:href="#AppleSDGothicNeo-Regular-47" transform="translate(1597.90625 0)"/>
    <use xlink:href="#AppleSDGothicNeo-Regular-50" transform="translate(1630.203125 0)"/>
    <use xlink:href="#AppleSDGothicNeo-Regular-53" transform="translate(1683.609375 0)"/>
    <use xlink:href="#AppleSDGothicNeo-Regular-1" transform="translate(1718.203125 0)"/>
    <use xlink:href="#AppleSDGothicNeo-Regular-51" transform="translate(1744.5 0)"/>
    <use xlink:href="#AppleSDGothicNeo-Regular-50" transform="translate(1799 0)"/>
    <use xlink:href="#AppleSDGothicNeo-Regular-54" transform="translate(1852.40625 0)"/>
    <use xlink:href="#AppleSDGothicNeo-Regular-55" transform="translate(1893.90625 0)"/>
    <use xlink:href="#AppleSDGothicNeo-Regular-e" transform="translate(1926.8125 0)"/>
    <use xlink:href="#AppleSDGothicNeo-Regular-49" transform="translate(1970.015625 0)"/>
    <use xlink:href="#AppleSDGothicNeo-Regular-50" transform="translate(2023.609375 0)"/>
    <use xlink:href="#AppleSDGothicNeo-Regular-44" transform="translate(2077.015625 0)"/>
    <use xlink:href="#AppleSDGothicNeo-Regular-1" transform="translate(2122.015625 0)"/>
    <use xlink:href="#AppleSDGothicNeo-Regular-46" transform="translate(2148.3125 0)"/>
    <use xlink:href="#AppleSDGothicNeo-Regular-57" transform="translate(2197.8125 0)"/>
    <use xlink:href="#AppleSDGothicNeo-Regular-42" transform="translate(2245.515625 0)"/>
    <use xlink:href="#AppleSDGothicNeo-Regular-4d" transform="translate(2292.71875 0)"/>
    <use xlink:href="#AppleSDGothicNeo-Regular-56" transform="translate(2315.421875 0)"/>
    <use xlink:href="#AppleSDGothicNeo-Regular-42" transform="translate(2368.421875 0)"/>
    <use xlink:href="#AppleSDGothicNeo-Regular-55" transform="translate(2415.625 0)"/>
    <use xlink:href="#AppleSDGothicNeo-Regular-4a" transform="translate(2450.625 0)"/>
    <use xlink:href="#AppleSDGothicNeo-Regular-50" transform="translate(2473.328125 0)"/>
    <use xlink:href="#AppleSDGothicNeo-Regular-4f" transform="translate(2526.734375 0)"/>
    <use xlink:href="#AppleSDGothicNeo-Regular-1" transform="translate(2580.328125 0)"/>
    <use xlink:href="#AppleSDGothicNeo-Regular-42" transform="translate(2606.625 0)"/>
    <use xlink:href="#AppleSDGothicNeo-Regular-4f" transform="translate(2653.828125 0)"/>
    <use xlink:href="#AppleSDGothicNeo-Regular-45" transform="translate(2707.421875 0)"/>
    <use xlink:href="#AppleSDGothicNeo-Regular-1" transform="translate(2761.921875 0)"/>
    <use xlink:href="#AppleSDGothicNeo-Regular-46" transform="translate(2788.21875 0)"/>
    <use xlink:href="#AppleSDGothicNeo-Regular-59" transform="translate(2837.21875 0)"/>
    <use xlink:href="#AppleSDGothicNeo-Regular-51" transform="translate(2884.921875 0)"/>
    <use xlink:href="#AppleSDGothicNeo-Regular-4d" transform="translate(2939.421875 0)"/>
    <use xlink:href="#AppleSDGothicNeo-Regular-42" transform="translate(2962.125 0)"/>
    <use xlink:href="#AppleSDGothicNeo-Regular-4f" transform="translate(3009.328125 0)"/>
    <use xlink:href="#AppleSDGothicNeo-Regular-42" transform="translate(3062.921875 0)"/>
    <use xlink:href="#AppleSDGothicNeo-Regular-55" transform="translate(3110.125 0)"/>
    <use xlink:href="#AppleSDGothicNeo-Regular-4a" transform="translate(3145.125 0)"/>
    <use xlink:href="#AppleSDGothicNeo-Regular-50" transform="translate(3167.828125 0)"/>
    <use xlink:href="#AppleSDGothicNeo-Regular-4f" transform="translate(3221.234375 0)"/>
    <use xlink:href="#AppleSDGothicNeo-Regular-1c" transform="translate(3274.828125 0)"/>
    <use xlink:href="#AppleSDGothicNeo-Regular-1" transform="translate(3303.234375 0)"/>
    <use xlink:href="#AppleSDGothicNeo-Regular-55" transform="translate(3329.53125 0)"/>
    <use xlink:href="#AppleSDGothicNeo-Regular-49" transform="translate(3364.53125 0)"/>
    <use xlink:href="#AppleSDGothicNeo-Regular-46" transform="translate(3418.125 0)"/>
    <use xlink:href="#AppleSDGothicNeo-Regular-5a" transform="translate(3468.125 0)"/>
    <use xlink:href="#AppleSDGothicNeo-Regular-1" transform="translate(3516.328125 0)"/>
    <use xlink:href="#AppleSDGothicNeo-Regular-58" transform="translate(3542.625 0)"/>
    <use xlink:href="#AppleSDGothicNeo-Regular-46" transform="translate(3615.421875 0)"/>
    <use xlink:href="#AppleSDGothicNeo-Regular-53" transform="translate(3665.421875 0)"/>
    <use xlink:href="#AppleSDGothicNeo-Regular-46" transform="translate(3700.015625 0)"/>
    <use xlink:href="#AppleSDGothicNeo-Regular-1" transform="translate(3750.015625 0)"/>
    <use xlink:href="#AppleSDGothicNeo-Regular-4f" transform="translate(3776.3125 0)"/>
    <use xlink:href="#AppleSDGothicNeo-Regular-50" transform="translate(3829.90625 0)"/>
    <use xlink:href="#AppleSDGothicNeo-Regular-55" transform="translate(3883.3125 0)"/>
    <use xlink:href="#AppleSDGothicNeo-Regular-1" transform="translate(3918.3125 0)"/>
    <use xlink:href="#AppleSDGothicNeo-Regular-56" transform="translate(3944.609375 0)"/>
    <use xlink:href="#AppleSDGothicNeo-Regular-54" transform="translate(3997.609375 0)"/>
    <use xlink:href="#AppleSDGothicNeo-Regular-46" transform="translate(4039.109375 0)"/>
    <use xlink:href="#AppleSDGothicNeo-Regular-45" transform="translate(4089.109375 0)"/>
    <use xlink:href="#AppleSDGothicNeo-Regular-1" transform="translate(4143.609375 0)"/>
    <use xlink:href="#AppleSDGothicNeo-Regular-47" transform="translate(4169.90625 0)"/>
    <use xlink:href="#AppleSDGothicNeo-Regular-50" transform="translate(4202.203125 0)"/>
    <use xlink:href="#AppleSDGothicNeo-Regular-53" transform="translate(4255.609375 0)"/>
    <use xlink:href="#AppleSDGothicNeo-Regular-1" transform="translate(4290.203125 0)"/>
    <use xlink:href="#AppleSDGothicNeo-Regular-44" transform="translate(4316.5 0)"/>
    <use xlink:href="#AppleSDGothicNeo-Regular-42" transform="translate(4361.5 0)"/>
    <use xlink:href="#AppleSDGothicNeo-Regular-4f" transform="translate(4408.703125 0)"/>
    <use xlink:href="#AppleSDGothicNeo-Regular-45" transform="translate(4462.296875 0)"/>
    <use xlink:href="#AppleSDGothicNeo-Regular-4a" transform="translate(4516.796875 0)"/>
    <use xlink:href="#AppleSDGothicNeo-Regular-45" transform="translate(4539.5 0)"/>
    <use xlink:href="#AppleSDGothicNeo-Regular-42" transform="translate(4594 0)"/>
    <use xlink:href="#AppleSDGothicNeo-Regular-55" transform="translate(4641.203125 0)"/>
    <use xlink:href="#AppleSDGothicNeo-Regular-46" transform="translate(4676.203125 0)"/>
    <use xlink:href="#AppleSDGothicNeo-Regular-1" transform="translate(4726.203125 0)"/>
    <use xlink:href="#AppleSDGothicNeo-Regular-54" transform="translate(4752.5 0)"/>
    <use xlink:href="#AppleSDGothicNeo-Regular-46" transform="translate(4794 0)"/>
    <use xlink:href="#AppleSDGothicNeo-Regular-4d" transform="translate(4844 0)"/>
    <use xlink:href="#AppleSDGothicNeo-Regular-46" transform="translate(4866.703125 0)"/>
    <use xlink:href="#AppleSDGothicNeo-Regular-44" transform="translate(4916.703125 0)"/>
    <use xlink:href="#AppleSDGothicNeo-Regular-55" transform="translate(4962.609375 0)"/>
    <use xlink:href="#AppleSDGothicNeo-Regular-4a" transform="translate(4997.609375 0)"/>
    <use xlink:href="#AppleSDGothicNeo-Regular-50" transform="translate(5020.3125 0)"/>
    <use xlink:href="#AppleSDGothicNeo-Regular-4f" transform="translate(5073.71875 0)"/>
    <use xlink:href="#AppleSDGothicNeo-Regular-1" transform="translate(5127.3125 0)"/>
    <use xlink:href="#AppleSDGothicNeo-Regular-50" transform="translate(5153.609375 0)"/>
    <use xlink:href="#AppleSDGothicNeo-Regular-53" transform="translate(5207.015625 0)"/>
    <use xlink:href="#AppleSDGothicNeo-Regular-1" transform="translate(5241.609375 0)"/>
    <use xlink:href="#AppleSDGothicNeo-Regular-53" transform="translate(5267.90625 0)"/>
    <use xlink:href="#AppleSDGothicNeo-Regular-50" transform="translate(5302.5 0)"/>
    <use xlink:href="#AppleSDGothicNeo-Regular-56" transform="translate(5355.90625 0)"/>
    <use xlink:href="#AppleSDGothicNeo-Regular-55" transform="translate(5408.90625 0)"/>
    <use xlink:href="#AppleSDGothicNeo-Regular-4a" transform="translate(5443.90625 0)"/>
    <use xlink:href="#AppleSDGothicNeo-Regular-4f" transform="translate(5466.609375 0)"/>
    <use xlink:href="#AppleSDGothicNeo-Regular-48" transform="translate(5520.203125 0)"/>
    <use xlink:href="#AppleSDGothicNeo-Regular-f" transform="translate(5570.796875 0)"/>
   </g>
  </g>
 </g>
 <defs>
  <clipPath id="p25bcb79805">
   <rect x="41.135" y="27.6" width="800.545" height="295.744"/>
  </clipPath>
  <clipPath id="p205bb35c14">
   <rect x="41.135" y="369.144" width="800.545" height="73.936"/>
  </clipPath>
 </defs>
</svg>
